<svg xmlns="http://www.w3.org/2000/svg" fill="none" viewBox="0 0 32 32" height="32" width="32">
<g clip-path="url(#clip0_6008_13281)">
<path fill="#004600" d="M31.4025 14.7502H31.385C28.075 15.4802 25.57 16.6427 23.675 17.9652C23.7625 17.3802 23.8575 16.7977 23.9625 16.2152L24.0075 15.9652C24.445 13.5727 24.7575 11.8452 25.59 9.48769C25.7575 9.01019 26.7175 7.39269 27.0525 7.13769C27.108 7.09921 27.1551 7.0499 27.191 6.99271C27.2269 6.93553 27.2509 6.87167 27.2614 6.80498C27.272 6.73829 27.2689 6.67016 27.2524 6.60468C27.2359 6.53921 27.2063 6.47775 27.1655 6.42402C27.1246 6.37029 27.0732 6.3254 27.0145 6.29205C26.9558 6.25871 26.8909 6.2376 26.8239 6.23C26.7568 6.22239 26.6888 6.22846 26.6241 6.24783C26.5595 6.2672 26.4994 6.29947 26.4475 6.34269C23.5475 8.54019 21.3525 11.5152 19.75 14.3302C19.235 10.9835 18.3092 6.91186 16.9725 2.11519C16.9435 2.01162 16.8818 1.92017 16.7967 1.85442C16.7116 1.78867 16.6075 1.75211 16.5 1.75019C16.3931 1.74725 16.288 1.77869 16.2002 1.83989C16.1125 1.90109 16.0467 1.98882 16.0125 2.09019C15.8625 2.53769 13.6075 9.36769 12.94 15.6102C11.305 12.4477 8.895 8.87519 5.5525 6.34519C5.50063 6.30197 5.44054 6.2697 5.37586 6.25033C5.31117 6.23096 5.24324 6.22489 5.17615 6.23249C5.10906 6.2401 5.0442 6.26121 4.98549 6.29455C4.92678 6.3279 4.87543 6.37279 4.83454 6.42652C4.79365 6.48025 4.76407 6.54171 4.74758 6.60718C4.73108 6.67266 4.72802 6.74079 4.73858 6.80748C4.74913 6.87417 4.77309 6.93803 4.80899 6.99521C4.8449 7.0524 4.89202 7.10171 4.9475 7.14019C5.2825 7.39019 6.24 9.01269 6.41 9.49019C7.2375 11.8452 7.555 13.5752 7.9925 15.9677L8.0375 16.2177C8.145 16.8002 8.2375 17.3827 8.325 17.9677C6.4275 16.6352 3.925 15.4727 0.615 14.7502H0.5975C0.470771 14.7301 0.341179 14.7595 0.235539 14.8324C0.129898 14.9052 0.0562954 15.0158 0.0299599 15.1414C0.00362436 15.267 0.0265718 15.3979 0.094054 15.507C0.161536 15.6161 0.268388 15.6951 0.3925 15.7277C0.415 15.7277 2.74 16.3552 6.1 22.4102C6.31 22.8877 8.805 28.4102 12.575 29.5177C13.7624 29.9953 15.0278 30.2495 16.3075 30.2677C17.7576 30.2781 19.1816 29.8814 20.4175 29.1227C23.63 27.4552 25.71 22.8527 25.9 22.4177C29.235 16.4052 31.55 15.7502 31.605 15.7352C31.7291 15.7026 31.836 15.6236 31.9034 15.5145C31.9709 15.4054 31.9939 15.2745 31.9675 15.1489C31.9412 15.0233 31.8676 14.9127 31.762 14.8399C31.6563 14.767 31.5267 14.7376 31.4 14.7577L31.4025 14.7502ZM14.4725 28.3352C14.3238 26.5248 13.8138 24.7626 12.9725 23.1527C12.1026 21.4957 10.913 20.0274 9.4725 18.8327C9.3425 17.9002 9.1975 16.9652 9.0275 16.0302L8.9825 15.7802C8.55 13.4177 8.2325 11.6902 7.4375 9.37519C12.7025 14.9702 14.8125 22.9102 14.835 23.0002C15.0541 23.7875 15.1931 24.5949 15.25 25.4102C15.2875 26.1277 15.25 27.1602 14.82 27.9277C14.731 28.0843 14.613 28.2225 14.4725 28.3352ZM15.0725 29.1377C15.3246 28.9366 15.5344 28.6877 15.69 28.4052C15.8187 28.1661 15.9234 27.9149 16.0025 27.6552C16.0815 27.915 16.1862 28.1662 16.315 28.4052C16.4878 28.7179 16.7267 28.9892 17.015 29.2002C16.3672 29.2569 15.715 29.235 15.0725 29.1352V29.1377ZM17.1925 27.9302C16.77 27.1502 16.725 26.1327 16.7625 25.4127C16.8151 24.597 16.95 23.7888 17.165 23.0002C17.1875 22.9102 19.2975 14.9702 24.57 9.38019C23.775 11.6952 23.4575 13.4227 23.025 15.7852L22.98 16.0352C22.81 16.9677 22.6675 17.9052 22.535 18.8377C21.0945 20.0324 19.9049 21.5007 19.035 23.1577C18.1938 24.7676 17.6838 26.5298 17.535 28.3402C17.3949 28.2257 17.2779 28.0858 17.19 27.9277L17.1925 27.9302ZM0.5 27.9577H5.75C5.88261 27.9577 6.00979 27.905 6.10355 27.8112C6.19732 27.7175 6.25 27.5903 6.25 27.4577C6.25 27.3251 6.19732 27.1979 6.10355 27.1041C6.00979 27.0104 5.88261 26.9577 5.75 26.9577H0.5C0.367392 26.9577 0.240215 27.0104 0.146447 27.1041C0.0526784 27.1979 0 27.3251 0 27.4577C0 27.5903 0.0526784 27.7175 0.146447 27.8112C0.240215 27.905 0.367392 27.9577 0.5 27.9577ZM0.5 29.9527H9.25C9.38261 29.9527 9.50979 29.9 9.60355 29.8062C9.69732 29.7125 9.75 29.5853 9.75 29.4527C9.75 29.3201 9.69732 29.1929 9.60355 29.0991C9.50979 29.0054 9.38261 28.9527 9.25 28.9527H0.5C0.367392 28.9527 0.240215 29.0054 0.146447 29.0991C0.0526784 29.1929 0 29.3201 0 29.4527C0 29.5853 0.0526784 29.7125 0.146447 29.8062C0.240215 29.9 0.367392 29.9527 0.5 29.9527ZM31.5 26.9577H26.25C26.1174 26.9577 25.9902 27.0104 25.8964 27.1041C25.8027 27.1979 25.75 27.3251 25.75 27.4577C25.75 27.5903 25.8027 27.7175 25.8964 27.8112C25.9902 27.905 26.1174 27.9577 26.25 27.9577H31.5C31.6326 27.9577 31.7598 27.905 31.8536 27.8112C31.9473 27.7175 32 27.5903 32 27.4577C32 27.3251 31.9473 27.1979 31.8536 27.1041C31.7598 27.0104 31.6326 26.9577 31.5 26.9577ZM31.5 28.9552H22.75C22.6174 28.9552 22.4902 29.0079 22.3964 29.1016C22.3027 29.1954 22.25 29.3226 22.25 29.4552C22.25 29.5878 22.3027 29.715 22.3964 29.8087C22.4902 29.9025 22.6174 29.9552 22.75 29.9552H31.5C31.6326 29.9552 31.7598 29.9025 31.8536 29.8087C31.9473 29.715 32 29.5878 32 29.4552C32 29.3226 31.9473 29.1954 31.8536 29.1016C31.7598 29.0079 31.6326 28.9552 31.5 28.9552Z"></path>
</g>
<defs>
<clipPath id="clip0_6008_13281">
<rect fill="white" height="32" width="32"></rect>
</clipPath>
</defs>
</svg>
