<svg xmlns="http://www.w3.org/2000/svg" fill="none" viewBox="0 0 24 24" height="24" width="24">
<path fill="#004600" d="M22 8.50001H19.535L15.835 2.94501C15.6878 2.72435 15.459 2.5712 15.1989 2.51925C14.9388 2.4673 14.6687 2.52081 14.448 2.66801C14.2273 2.8152 14.0742 3.04402 14.0222 3.30414C13.9703 3.56425 14.0238 3.83435 14.171 4.05501L17.132 8.50001H6.868L9.832 4.05501C9.97919 3.83435 10.0327 3.56425 9.98076 3.30414C9.92881 3.04402 9.77566 2.8152 9.555 2.66801C9.33434 2.52081 9.06424 2.4673 8.80413 2.51925C8.54402 2.5712 8.3152 2.72435 8.168 2.94501L4.465 8.50001H2C1.73478 8.50001 1.48043 8.60536 1.29289 8.7929C1.10536 8.98044 1 9.23479 1 9.50001C1 9.76522 1.10536 10.0196 1.29289 10.2071C1.48043 10.3946 1.73478 10.5 2 10.5H3V18.5C3 19.2957 3.31607 20.0587 3.87868 20.6213C4.44129 21.1839 5.20435 21.5 6 21.5H18C18.7956 21.5 19.5587 21.1839 20.1213 20.6213C20.6839 20.0587 21 19.2957 21 18.5V10.5H22C22.2652 10.5 22.5196 10.3946 22.7071 10.2071C22.8946 10.0196 23 9.76522 23 9.50001C23 9.23479 22.8946 8.98044 22.7071 8.7929C22.5196 8.60536 22.2652 8.50001 22 8.50001ZM19 18.5C19 18.7652 18.8946 19.0196 18.7071 19.2071C18.5196 19.3946 18.2652 19.5 18 19.5H6C5.73478 19.5 5.48043 19.3946 5.29289 19.2071C5.10536 19.0196 5 18.7652 5 18.5V10.5H19V18.5Z"></path>
<path fill="#004600" d="M8 18C8.26522 18 8.51957 17.8946 8.70711 17.7071C8.89464 17.5196 9 17.2652 9 17V13C9 12.7348 8.89464 12.4804 8.70711 12.2929C8.51957 12.1054 8.26522 12 8 12C7.73478 12 7.48043 12.1054 7.29289 12.2929C7.10536 12.4804 7 12.7348 7 13V17C7 17.2652 7.10536 17.5196 7.29289 17.7071C7.48043 17.8946 7.73478 18 8 18ZM12 18C12.2652 18 12.5196 17.8946 12.7071 17.7071C12.8946 17.5196 13 17.2652 13 17V13C13 12.7348 12.8946 12.4804 12.7071 12.2929C12.5196 12.1054 12.2652 12 12 12C11.7348 12 11.4804 12.1054 11.2929 12.2929C11.1054 12.4804 11 12.7348 11 13V17C11 17.2652 11.1054 17.5196 11.2929 17.7071C11.4804 17.8946 11.7348 18 12 18ZM16 18C16.2652 18 16.5196 17.8946 16.7071 17.7071C16.8946 17.5196 17 17.2652 17 17V13C17 12.7348 16.8946 12.4804 16.7071 12.2929C16.5196 12.1054 16.2652 12 16 12C15.7348 12 15.4804 12.1054 15.2929 12.2929C15.1054 12.4804 15 12.7348 15 13V17C15 17.2652 15.1054 17.5196 15.2929 17.7071C15.4804 17.8946 15.7348 18 16 18Z"></path>
</svg>
