<svg xmlns="http://www.w3.org/2000/svg" fill="none" viewBox="0 0 24 24" height="24" width="24">
<path fill="#004600" d="M9.00003 12C9.26524 12 9.5196 11.8946 9.70713 11.7071C9.89467 11.5196 10 11.2652 10 11V9C10 8.73478 9.89467 8.48043 9.70713 8.29289C9.5196 8.10536 9.26524 8 9.00003 8C8.73481 8 8.48046 8.10536 8.29292 8.29289C8.10538 8.48043 8.00003 8.73478 8.00003 9V11C8.00003 11.2652 8.10538 11.5196 8.29292 11.7071C8.48046 11.8946 8.73481 12 9.00003 12ZM15.225 14.368C14.8535 14.8744 14.3679 15.2862 13.8076 15.57C13.2473 15.8538 12.6281 16.0017 12 16.0017C11.372 16.0017 10.7527 15.8538 10.1924 15.57C9.63215 15.2862 9.14658 14.8744 8.77503 14.368C8.60741 14.1625 8.36501 14.0319 8.10114 14.0051C7.83728 13.9783 7.57357 14.0574 7.36803 14.225C7.16248 14.3926 7.03195 14.635 7.00513 14.8989C6.97831 15.1627 7.05741 15.4265 7.22503 15.632C7.78481 16.3677 8.50702 16.9641 9.33531 17.3747C10.1636 17.7853 11.0756 17.9989 12 17.9989C12.9245 17.9989 13.8365 17.7853 14.6647 17.3747C15.493 16.9641 16.2152 16.3677 16.775 15.632C16.9426 15.4265 17.0217 15.1627 16.9949 14.8989C16.9681 14.635 16.8376 14.3926 16.632 14.225C16.4265 14.0574 16.1628 13.9783 15.8989 14.0051C15.635 14.0319 15.3926 14.1625 15.225 14.368Z"></path>
<path fill="#004600" d="M12 1C9.82441 1 7.69767 1.64514 5.88873 2.85383C4.07979 4.06253 2.66989 5.78049 1.83733 7.79048C1.00477 9.80047 0.786929 12.0122 1.21137 14.146C1.6358 16.2798 2.68345 18.2398 4.22183 19.7782C5.76021 21.3166 7.72022 22.3642 9.85401 22.7886C11.9878 23.2131 14.1995 22.9952 16.2095 22.1627C18.2195 21.3301 19.9375 19.9202 21.1462 18.1113C22.3549 16.3023 23 14.1756 23 12C22.9966 9.08367 21.8365 6.28778 19.7744 4.22563C17.7122 2.16347 14.9163 1.00344 12 1ZM12 21C10.22 21 8.47992 20.4722 6.99987 19.4832C5.51983 18.4943 4.36628 17.0887 3.68509 15.4442C3.0039 13.7996 2.82567 11.99 3.17294 10.2442C3.5202 8.49836 4.37737 6.89471 5.63604 5.63604C6.89472 4.37737 8.49836 3.5202 10.2442 3.17293C11.99 2.82567 13.7996 3.0039 15.4442 3.68508C17.0887 4.36627 18.4943 5.51983 19.4832 6.99987C20.4722 8.47991 21 10.22 21 12C20.9971 14.3861 20.0479 16.6735 18.3608 18.3607C16.6736 20.0479 14.3861 20.9971 12 21Z"></path>
<path fill="#004600" d="M17 9H14C13.7348 9 13.4804 9.10536 13.2929 9.29289C13.1054 9.48043 13 9.73478 13 10C13 10.2652 13.1054 10.5196 13.2929 10.7071C13.4804 10.8946 13.7348 11 14 11H17C17.2652 11 17.5196 10.8946 17.7071 10.7071C17.8946 10.5196 18 10.2652 18 10C18 9.73478 17.8946 9.48043 17.7071 9.29289C17.5196 9.10536 17.2652 9 17 9Z"></path>
</svg>
