<svg xmlns="http://www.w3.org/2000/svg" fill="none" viewBox="0 0 32 32" height="32" width="32">
<path fill="#004600" d="M12 16.0001C12.3536 16.0001 12.6927 15.8596 12.9428 15.6096C13.1928 15.3595 13.3333 15.0204 13.3333 14.6667V12.0001C13.3333 11.6465 13.1928 11.3073 12.9428 11.0573C12.6927 10.8072 12.3536 10.6667 12 10.6667C11.6463 10.6667 11.3072 10.8072 11.0571 11.0573C10.8071 11.3073 10.6666 11.6465 10.6666 12.0001V14.6667C10.6666 15.0204 10.8071 15.3595 11.0571 15.6096C11.3072 15.8596 11.6463 16.0001 12 16.0001ZM20.3 19.1574C19.8046 19.8326 19.1571 20.3816 18.4101 20.7601C17.663 21.1385 16.8374 21.3357 16 21.3357C15.1625 21.3357 14.3369 21.1385 13.5898 20.7601C12.8428 20.3816 12.1954 19.8326 11.7 19.1574C11.4765 18.8834 11.1533 18.7093 10.8014 18.6735C10.4496 18.6378 10.098 18.7433 9.82396 18.9667C9.5499 19.1902 9.37585 19.5134 9.34009 19.8653C9.30433 20.2171 9.4098 20.5687 9.63329 20.8427C10.3797 21.8237 11.3426 22.6189 12.447 23.1664C13.5514 23.7138 14.7673 23.9986 16 23.9986C17.2326 23.9986 18.4485 23.7138 19.5529 23.1664C20.6573 22.6189 21.6203 21.8237 22.3666 20.8427C22.5901 20.5687 22.6956 20.2171 22.6598 19.8653C22.6241 19.5134 22.45 19.1902 22.176 18.9667C21.9019 18.7433 21.5503 18.6378 21.1985 18.6735C20.8466 18.7093 20.5234 18.8834 20.3 19.1574Z"></path>
<path fill="#004600" d="M15.9999 1.33325C13.0991 1.33325 10.2635 2.19344 7.85156 3.80503C5.43964 5.41662 3.55978 7.70724 2.44969 10.3872C1.33961 13.0672 1.04916 16.0162 1.61507 18.8612C2.18099 21.7063 3.57786 24.3196 5.62903 26.3708C7.6802 28.422 10.2935 29.8188 13.1386 30.3848C15.9837 30.9507 18.9326 30.6602 21.6126 29.5501C24.2926 28.4401 26.5832 26.5602 28.1948 24.1483C29.8064 21.7364 30.6666 18.9007 30.6666 15.9999C30.662 12.1115 29.1153 8.38363 26.3658 5.63409C23.6162 2.88455 19.8884 1.33784 15.9999 1.33325ZM15.9999 27.9999C13.6265 27.9999 11.3065 27.2961 9.33308 25.9776C7.35969 24.659 5.82162 22.7848 4.91337 20.5921C4.00512 18.3994 3.76748 15.9866 4.2305 13.6588C4.69352 11.3311 5.83641 9.19287 7.51464 7.51464C9.19287 5.83641 11.3311 4.69352 13.6588 4.23049C15.9866 3.76747 18.3994 4.00511 20.5921 4.91336C22.7848 5.82162 24.659 7.35969 25.9776 9.33308C27.2961 11.3065 27.9999 13.6265 27.9999 15.9999C27.996 19.1813 26.7305 22.2313 24.4809 24.4809C22.2313 26.7305 19.1813 27.996 15.9999 27.9999Z"></path>
<path fill="#004600" d="M22.6666 12H18.6666C18.313 12 17.9738 12.1405 17.7238 12.3905C17.4737 12.6406 17.3333 12.9797 17.3333 13.3333C17.3333 13.687 17.4737 14.0261 17.7238 14.2761C17.9738 14.5262 18.313 14.6667 18.6666 14.6667H22.6666C23.0202 14.6667 23.3593 14.5262 23.6094 14.2761C23.8594 14.0261 23.9999 13.687 23.9999 13.3333C23.9999 12.9797 23.8594 12.6406 23.6094 12.3905C23.3593 12.1405 23.0202 12 22.6666 12Z"></path>
</svg>
