<svg xmlns="http://www.w3.org/2000/svg" fill="none" viewBox="0 0 24 24" height="24" width="24">
<path fill="#004600" d="M22 12H13V11H18C18.2652 11 18.5196 10.8946 18.7071 10.7071C18.8946 10.5196 19 10.2652 19 10C19.0865 8.2945 18.5105 6.62156 17.3923 5.33084C16.2742 4.04012 14.7004 3.23151 13 3.074V3C13 2.73478 12.8946 2.48043 12.7071 2.29289C12.5196 2.10536 12.2652 2 12 2C11.7348 2 11.4804 2.10536 11.2929 2.29289C11.1054 2.48043 11 2.73478 11 3V12H2C1.73478 12 1.48043 12.1054 1.29289 12.2929C1.10536 12.4804 1 12.7348 1 13C1.00291 15.3861 1.95206 17.6735 3.63925 19.3607C5.32645 21.0479 7.61395 21.9971 10 22H14C16.3861 21.9971 18.6735 21.0479 20.3607 19.3607C22.0479 17.6735 22.9971 15.3861 23 13C23 12.7348 22.8946 12.4804 22.7071 12.2929C22.5196 12.1054 22.2652 12 22 12ZM13 5.108C13.9932 5.23067 14.9177 5.67927 15.6286 6.38355C16.3396 7.08783 16.7969 8.00801 16.929 9H13V5.108ZM14 20H10C8.31724 19.9979 6.69136 19.3906 5.41925 18.2891C4.14714 17.1875 3.31366 15.6652 3.071 14H20.929C20.6863 15.6652 19.8529 17.1875 18.5808 18.2891C17.3086 19.3906 15.6828 19.9979 14 20Z"></path>
</svg>
