<svg xmlns="http://www.w3.org/2000/svg" fill="none" viewBox="0 0 64 64" height="64" width="64">
<circle fill="#FFF073" r="32" cy="32" cx="32"></circle>
<g clip-path="url(#clip0_8241_14234)">
<path fill="#00452B" d="M21.3872 44.9841C21.0523 44.9841 20.7131 45.0192 20.3782 45.047C19.625 45.1099 18.8748 45.202 18.1319 45.3424C17.5382 45.455 16.943 45.572 16.3755 45.7826C15.8344 45.983 15.2305 46.293 14.9087 46.7931C14.7888 46.9803 14.7098 47.2377 14.8005 47.4527C14.9292 47.7583 15.365 47.8402 15.6487 47.9294C16.2556 48.1196 16.8918 48.2073 17.5206 48.298C17.9213 48.3565 18.3235 48.4062 18.7256 48.4471C19.764 48.5554 20.8067 48.6387 21.8479 48.7075C22.5572 48.7542 23.265 48.7937 23.9757 48.8288C24.7069 48.8654 25.4396 48.8961 26.1723 48.9239C26.5393 48.937 26.9064 48.9502 27.2735 48.9619C27.4928 48.9692 27.7122 48.9721 27.9316 48.9868C28.088 48.997 28.5897 48.978 28.597 49.212C28.5984 49.2632 28.5692 49.3114 28.5297 49.3436C28.4902 49.3758 28.442 49.3962 28.3952 49.4167C28.2548 49.4752 28.1158 49.5323 27.9754 49.5908C27.8511 49.6419 27.7224 49.6975 27.6288 49.794C27.5206 49.9052 27.4768 50.0836 27.5718 50.2196C27.6713 50.3644 27.8526 50.3965 28.0135 50.4273C28.2372 50.4682 28.4639 50.4887 28.6906 50.5077C29.5227 50.5779 30.3563 50.6364 31.1898 50.6846C32.0161 50.7314 32.8409 50.7651 33.6672 50.7841C33.9757 50.7914 34.2843 50.7972 34.5929 50.8031C35.406 50.8163 36.2191 50.8221 37.0322 50.8221C42.1887 50.8221 49.1864 50.806 49.1878 49.4153C49.1893 47.0096 39.7567 47.0198 39.7567 47.0198L31.2147 44.9841H21.3872Z"></path>
<path fill="white" d="M44.8473 30.8147C44.8473 30.8147 44.1673 26.0911 40.5902 24.6448C37.6361 23.4515 35.7906 25.1259 35.365 25.5764C35.3475 25.5354 35.3314 25.493 35.3153 25.4506C35.0038 24.598 35.0784 23.6109 35.4922 22.8051C35.9076 22.0183 37.079 20.9025 35.6239 20.4579C35.1837 20.3365 34.7157 20.3116 34.2623 20.3014C31.6622 20.2414 30.1003 20.7957 28.0339 19.4854C27.1608 18.9326 26.2951 18.3652 25.3445 17.9498C24.2389 17.4672 23.0354 17.2069 21.8274 17.3546C21.1225 17.4409 20.4439 17.6705 19.8093 17.9864C19.489 18.1458 19.179 18.3271 18.8762 18.5187C18.6861 18.6401 18.2094 18.8843 18.2796 19.1724C18.2927 19.2265 18.3307 19.2719 18.3732 19.307C18.4887 19.4006 18.6379 19.4137 18.7739 19.4591C18.9289 19.5102 19.0795 19.5834 19.2228 19.6594C19.7595 19.9446 20.2377 20.3833 20.6472 20.8293C21.064 21.2856 21.4165 21.8018 21.6724 22.3649C21.9532 22.982 22.1447 23.6518 22.1564 24.3333C22.1564 24.4225 22.1564 24.5088 22.1506 24.5936C22.1096 25.2093 21.8844 25.7387 21.5583 26.2798C21.0333 27.1514 20.3942 27.9557 19.7391 28.7323C19.3852 29.1505 19.021 29.5614 18.651 29.9651C14.9686 33.9867 16.8069 39.4986 20.0725 43.9136C20.0725 43.9136 21.4779 45.7724 22.3846 46.4524C22.9783 46.897 24.9789 47.1777 27.0775 47.3181C27.0775 47.3181 28.7388 47.3635 30.1383 47.324C32.2749 47.2626 34.3223 46.9043 34.9234 46.4524C35.8301 45.7724 37.2354 43.9136 37.2354 43.9136C38.5151 42.1836 39.5753 40.2839 40.1705 38.3725C41.0392 38.5261 42.0219 38.4807 43.0018 37.9879C45.8593 36.5518 44.8459 30.8147 44.8459 30.8147H44.8473ZM42.1419 35.5384C41.5978 35.8425 41.0875 35.9668 40.6546 36.0019C40.8447 33.8463 40.3007 31.758 38.6598 29.9651C38.0486 29.2997 37.4519 28.6167 36.8947 27.906C37.3685 27.0622 37.9769 26.4523 38.7564 26.3295C41.8552 25.8411 42.8979 30.9464 42.8979 30.9464C42.8979 30.9464 43.6833 34.677 42.1419 35.5384Z"></path>
<path fill="#F15623" d="M21.918 27.4439C21.918 27.4439 22.7925 26.0663 26.7937 26.7215C30.7949 27.3766 31.8712 25.9683 34.7083 26.3354L29.2827 29.2822L25.7861 29.1813L21.918 27.4454V27.4439Z"></path>
<path fill="#FDB515" d="M34.7083 26.3353C35.2962 27.4438 36.3857 28.8682 37.968 30.5968C39.4685 32.2347 40.0271 34.2675 39.6308 36.6381C39.2813 38.7235 38.1947 41.0458 36.488 43.3535C36.1151 43.8449 35.0168 45.2137 34.3631 45.7051C34.0941 45.9025 32.5234 46.3207 30.1119 46.3895C28.8323 46.426 27.3026 46.3895 27.1212 46.3836C24.3105 46.195 23.1596 45.8572 22.9446 45.7051C22.2909 45.2137 21.1911 43.8449 20.8197 43.3535C19.113 41.0458 18.0265 38.7235 17.6769 36.6381C17.2806 34.2675 17.8393 32.2347 19.3397 30.5968C20.4365 29.3976 21.2964 28.3462 21.9165 27.4453C21.9165 27.4453 23.066 27.0344 24.698 28.0829C26.3286 29.1315 28.6275 29.2324 31.2774 27.4073C33.2619 26.1876 34.7083 26.3353 34.7083 26.3353Z"></path>
<path fill="#FFED9A" d="M33.9012 37.1836C33.9012 37.1836 34.1761 37.2772 34.5725 37.8388C34.9688 38.4018 35.0492 39.1798 35.1077 39.7896C35.1618 40.3424 34.6631 44.1257 30.9515 45.3117C27.0542 46.5562 24.7684 43.0669 24.4291 41.7332C24.4291 41.7332 24.22 41.3515 24.8766 41.0619L33.8998 37.1851L33.9012 37.1836Z"></path>
<path fill="white" d="M24.7757 41.138L33.6701 37.1792C33.6701 37.1792 33.8178 37.1061 33.9231 37.2011C34.0284 37.2962 34.0664 37.4746 34.0898 37.6209C34.1132 37.7671 35.3197 42.6077 30.9837 44.5571C30.9837 44.5571 29.7611 45.1099 28.1817 44.6419C26.5715 44.1637 24.9322 42.6384 24.7011 41.2754C24.6909 41.2184 24.723 41.1614 24.7757 41.138Z"></path>
<path fill="#FFED9A" d="M30.0813 39.2017C30.0813 39.2017 32.3627 38.1166 33.2255 37.9075C34.0898 37.6984 33.8105 39.851 33.8105 39.851C33.8105 39.851 33.7637 40.7577 33.2226 40.5866C32.5791 40.3834 30.9164 39.8657 30.134 39.4752C30.134 39.4752 29.7859 39.3304 30.0813 39.2017Z"></path>
<path fill="#FFED9A" d="M29.8677 39.6697L32.9549 41.037C32.9549 41.037 33.4287 41.2037 33.3936 41.5518C33.3585 41.8998 32.7341 42.925 31.8917 43.4866C31.8917 43.4866 31.4837 43.7966 31.1927 43.2336C30.9017 42.6705 29.6045 40.0996 29.6045 40.0996C29.6045 40.0996 29.429 39.7545 29.508 39.6389C29.5752 39.5424 29.8677 39.6697 29.8677 39.6697Z"></path>
<path fill="#FFED9A" d="M25.6194 41.1629L28.417 39.8935C28.5238 39.8452 28.6349 39.9505 28.5925 40.0602L27.3802 43.1284C27.3802 43.1284 27.0906 43.7718 26.5042 43.358C25.9178 42.9441 25.4893 42.286 25.3035 41.919C25.0345 41.3896 25.6209 41.1614 25.6209 41.1614L25.6194 41.1629Z"></path>
<path fill="#FFED9A" d="M27.7532 43.2556L28.8836 39.9739C28.9319 39.835 29.1249 39.8262 29.1849 39.9608C29.6207 40.9318 30.754 43.4603 30.7438 43.4589C30.7306 43.4574 31.1138 44.2003 30.1398 44.3787C29.1659 44.5586 28.3776 44.2749 28.0149 44.0936C27.5616 43.8683 27.6815 43.4647 27.7532 43.2556Z"></path>
<path fill="white" d="M34.3018 41.0342C34.3867 41.0093 34.3457 40.8806 34.2638 40.8996C34.1819 40.9186 34.2141 41.0605 34.3018 41.0342Z"></path>
<path fill="white" d="M34.6001 41.0253C34.6674 40.9742 34.5928 40.863 34.5211 40.9098C34.4451 40.9595 34.5255 41.0794 34.6001 41.0253Z"></path>
<path fill="white" d="M34.5928 40.6013C34.6045 40.5954 34.6162 40.5852 34.622 40.5735C34.6644 40.5018 34.5811 40.4316 34.5196 40.4887C34.4626 40.5413 34.5167 40.6393 34.5913 40.6013H34.5928Z"></path>
<path fill="white" d="M34.593 40.2649C34.6134 40.2854 34.6471 40.2912 34.6734 40.2781C34.6997 40.2649 34.7143 40.2327 34.7085 40.205C34.6895 40.0909 34.5096 40.1772 34.593 40.2649Z"></path>
<path fill="white" d="M34.8284 40.0367C34.8474 40.0616 34.8869 40.0675 34.9132 40.0514C34.9468 40.0324 34.9571 39.9812 34.9337 39.9505C34.8766 39.8715 34.7728 39.968 34.8284 40.0382V40.0367Z"></path>
<path fill="white" d="M31.7911 39.4137C31.8058 39.4284 31.8248 39.4386 31.8452 39.4474C31.9608 39.4986 32.0924 39.5147 32.2182 39.4927C32.265 39.4839 32.3147 39.4679 32.3366 39.4254C32.3629 39.3757 32.3352 39.3114 32.2884 39.2807C32.2416 39.25 32.1831 39.2441 32.1275 39.2456C32.0412 39.247 31.9564 39.2617 31.8745 39.2865C31.8145 39.3055 31.7224 39.345 31.7926 39.4152L31.7911 39.4137Z"></path>
<path fill="white" d="M28.4479 43.0728C28.4362 43.0801 28.426 43.0903 28.4158 43.1006C28.3602 43.1649 28.3251 43.2468 28.3148 43.3316C28.3119 43.3623 28.3134 43.3989 28.3353 43.4208C28.3616 43.4471 28.4084 43.4413 28.4377 43.4179C28.4669 43.3945 28.4816 43.3565 28.4918 43.3214C28.5079 43.2658 28.5152 43.2088 28.5137 43.1503C28.5137 43.1079 28.505 43.0406 28.4465 43.0728H28.4479Z"></path>
<path fill="white" d="M31.3449 41.1408C31.3522 41.2008 31.3946 41.2505 31.4385 41.2929C31.4604 41.3148 31.4838 41.3353 31.5087 41.3543C31.5409 41.3792 31.5745 41.4026 31.614 41.4114C31.6535 41.4201 31.6988 41.4114 31.7251 41.3806C31.7558 41.3455 31.7529 41.29 31.7295 41.2505C31.7061 41.211 31.6681 41.1818 31.6286 41.1554C31.6052 41.1393 31.5803 41.1247 31.5555 41.1101C31.4984 41.0779 31.3303 41.0107 31.3449 41.1408Z"></path>
<path fill="white" d="M27.316 41.1891C27.2546 41.1847 27.199 41.2169 27.1493 41.252C27.1245 41.2696 27.0996 41.2886 27.0747 41.309C27.044 41.3354 27.0148 41.3646 26.9987 41.4026C26.9826 41.4407 26.9826 41.486 27.0075 41.5182C27.0367 41.5547 27.0908 41.562 27.1347 41.5474C27.1786 41.5328 27.2137 41.5006 27.2473 41.467C27.2678 41.4465 27.2868 41.4246 27.3058 41.4041C27.3482 41.3544 27.4462 41.2008 27.316 41.1906V41.1891Z"></path>
<path fill="white" d="M30.14 40.6627C30.1356 40.689 30.1429 40.7168 30.1517 40.7416C30.1795 40.8191 30.2233 40.8908 30.2804 40.9508C30.2965 40.9683 30.314 40.9844 30.3345 40.9932C30.355 41.002 30.3813 41.0063 30.4018 40.9976C30.4295 40.9844 30.4456 40.9522 30.4456 40.9215C30.4456 40.8908 30.4339 40.8601 30.4193 40.8323C30.3842 40.765 30.3389 40.7036 30.2833 40.6524C30.2628 40.6334 30.2263 40.5983 30.1956 40.6012C30.1663 40.6027 30.1444 40.6363 30.14 40.6627Z"></path>
<path fill="white" d="M29.2099 42.1573C29.1982 42.2099 29.1923 42.2684 29.2143 42.3181C29.2362 42.3679 29.2903 42.4073 29.343 42.3971C29.3912 42.3869 29.4234 42.3415 29.4453 42.2962C29.4994 42.1821 29.517 42.052 29.4951 41.9277C29.4892 41.894 29.479 41.8589 29.4512 41.8399C29.3898 41.7931 29.3371 41.8882 29.3093 41.9291C29.2625 41.9979 29.2274 42.0768 29.2084 42.1587L29.2099 42.1573Z"></path>
<path fill="#FFED9A" d="M30.9924 35.2606C30.9924 35.2606 31.0334 35.5472 30.7117 36.1556C30.3899 36.7639 29.7304 37.1866 29.2141 37.5142C28.7447 37.8125 25.1457 39.0775 22.4095 36.3018C19.5373 33.3872 21.6183 29.7721 22.6552 28.8654C22.6552 28.8654 22.9009 28.5071 23.4566 28.9619L30.9924 35.2591V35.2606Z"></path>
<path fill="white" d="M23.3396 28.9063L30.8901 35.0514C30.8901 35.0514 31.0217 35.1509 30.9851 35.2869C30.9486 35.4229 30.8053 35.5384 30.6853 35.6261C30.5654 35.7139 26.7924 38.9766 23.0939 35.9888C23.0939 35.9888 22.0483 35.1494 21.7529 33.5276C21.4516 31.875 22.0717 29.7224 23.1831 28.9019C23.2299 28.8668 23.2943 28.8698 23.3381 28.9063H23.3396Z"></path>
<path fill="white" d="M21.2336 31.9642C21.1576 32.381 21.1122 32.8095 21.162 33.2307C21.1751 33.3375 21.1941 33.4442 21.2395 33.5422C21.2702 33.6095 21.3331 33.6797 21.4047 33.6621C21.4735 33.6446 21.4983 33.5612 21.5071 33.491C21.5451 33.1693 21.5012 32.8388 21.4852 32.517C21.4691 32.1924 21.4925 31.8677 21.5553 31.5489C21.5744 31.4568 21.5948 31.3646 21.6197 31.274C21.6416 31.1921 21.668 31.1102 21.6665 31.0254C21.6665 31.002 21.6621 30.9756 21.646 30.9596C21.57 30.8835 21.4384 31.236 21.4179 31.2842C21.3287 31.5036 21.2746 31.7346 21.2322 31.9672L21.2336 31.9642Z"></path>
<path fill="white" d="M21.3975 34.0863C21.3785 34.1462 21.3887 34.212 21.4048 34.272C21.4209 34.3305 21.4428 34.389 21.4896 34.4285C21.5364 34.4665 21.611 34.4753 21.6534 34.4329C21.6666 34.4197 21.6754 34.4022 21.6827 34.3846C21.7119 34.3129 21.7148 34.2325 21.6914 34.1594C21.6476 34.0248 21.4618 33.8742 21.396 34.0863H21.3975Z"></path>
<path fill="#FFED9A" d="M27.4665 32.7642C27.4665 32.7642 29.4642 34.31 30.0418 34.9856C30.618 35.6612 28.5721 36.3851 28.5721 36.3851C28.5721 36.3851 27.7414 36.7522 27.6493 36.1936C27.5396 35.5282 27.2501 33.8098 27.2457 32.9367C27.2457 32.9367 27.2164 32.5609 27.4665 32.7656V32.7642Z"></path>
<path fill="#FFED9A" d="M26.9518 32.7847L27.1273 36.1556C27.1273 36.1556 27.1931 36.6528 26.8655 36.78C26.5394 36.9073 25.3431 36.8122 24.4613 36.315C24.4613 36.315 24.0006 36.0912 24.3721 35.5765C24.7435 35.0617 26.4502 32.7438 26.4502 32.7438C26.4502 32.7438 26.6783 32.4308 26.8172 32.4498C26.9342 32.4659 26.9518 32.7847 26.9518 32.7847Z"></path>
<path fill="#FFED9A" d="M23.7007 29.6712L26.0962 31.5928C26.1883 31.6659 26.143 31.8136 26.026 31.8239L22.7399 32.128C22.7399 32.128 22.035 32.1602 22.1389 31.4509C22.2427 30.7402 22.6361 30.0617 22.8803 29.7297C23.2313 29.25 23.6993 29.6697 23.6993 29.6697L23.7007 29.6712Z"></path>
<path fill="#FFED9A" d="M22.7971 32.52L26.2352 32.0447C26.38 32.0242 26.4765 32.1924 26.3829 32.3064C25.7131 33.1342 23.9699 35.2869 23.967 35.2781C23.9626 35.2664 23.4727 35.9435 22.8731 35.1552C22.2735 34.367 22.1697 33.5363 22.1668 33.1313C22.1638 32.6253 22.5762 32.5492 22.7956 32.5185L22.7971 32.52Z"></path>
<path fill="white" d="M27.7386 37.3577C27.7985 37.422 27.895 37.3284 27.8424 37.2626C27.7897 37.1968 27.6771 37.2904 27.7386 37.3577Z"></path>
<path fill="white" d="M27.8818 37.6208C27.9579 37.6589 28.0222 37.5404 27.9491 37.4995C27.8701 37.4541 27.7999 37.5799 27.8818 37.6208Z"></path>
<path fill="white" d="M28.2562 37.422C28.2679 37.4308 28.281 37.4352 28.2942 37.4367C28.3776 37.4425 28.4024 37.3358 28.3234 37.3065C28.2503 37.2802 28.1874 37.3723 28.2547 37.422H28.2562Z"></path>
<path fill="white" d="M28.5545 37.2699C28.5442 37.2977 28.5545 37.3299 28.5793 37.3474C28.6042 37.365 28.6378 37.3635 28.6612 37.3474C28.7548 37.2787 28.5954 37.1573 28.5545 37.2714V37.2699Z"></path>
<path fill="white" d="M28.866 37.3767C28.8529 37.4045 28.866 37.4425 28.8909 37.4586C28.9231 37.4791 28.9728 37.4659 28.9903 37.4323C29.0342 37.346 28.9011 37.2963 28.8646 37.3767H28.866Z"></path>
<path fill="white" d="M28.05 34.386C28.0442 34.4065 28.0442 34.4269 28.0442 34.4489C28.05 34.5761 28.0954 34.7004 28.1729 34.8013C28.2007 34.8393 28.2387 34.8759 28.2855 34.8759C28.3411 34.8759 28.3864 34.8232 28.3937 34.7677C28.401 34.7121 28.3791 34.658 28.3528 34.6083C28.3118 34.5322 28.2621 34.462 28.2021 34.4006C28.1583 34.3553 28.0808 34.2924 28.0515 34.386H28.05Z"></path>
<path fill="white" d="M23.2737 33.0567C23.262 33.0493 23.2488 33.045 23.2342 33.0406C23.1509 33.0201 23.0631 33.0259 22.9827 33.0552C22.9534 33.0669 22.9227 33.083 22.9125 33.1137C22.9008 33.1488 22.9271 33.1883 22.9622 33.2044C22.9973 33.2204 23.0353 33.2161 23.0734 33.2087C23.1304 33.197 23.1845 33.178 23.2357 33.1517C23.2737 33.1327 23.3293 33.0947 23.2737 33.0567Z"></path>
<path fill="white" d="M26.3067 34.7692C26.2556 34.8028 26.2307 34.8628 26.2132 34.9213C26.2044 34.9505 26.1956 34.9812 26.1898 35.0119C26.181 35.0514 26.1766 35.0924 26.1868 35.1318C26.1971 35.1713 26.2249 35.2079 26.2643 35.2167C26.3097 35.2269 26.3565 35.2006 26.3828 35.1611C26.4091 35.1216 26.4164 35.0748 26.4223 35.028C26.4252 34.9988 26.4281 34.971 26.4296 34.9417C26.4325 34.8774 26.4164 34.696 26.3067 34.7677V34.7692Z"></path>
<path fill="white" d="M24.4436 31.1965C24.4202 31.1409 24.3647 31.1043 24.312 31.0766C24.2842 31.0619 24.2564 31.0488 24.2272 31.0371C24.1892 31.021 24.1497 31.0093 24.1102 31.0107C24.0707 31.0122 24.0283 31.0341 24.0122 31.0707C23.9932 31.1131 24.0122 31.1658 24.0444 31.1979C24.0766 31.2301 24.1234 31.2477 24.1672 31.2608C24.195 31.2696 24.2228 31.2769 24.2506 31.2842C24.3135 31.3003 24.4948 31.3179 24.4451 31.1965H24.4436Z"></path>
<path fill="white" d="M26.1883 33.4778C26.162 33.4866 26.1415 33.5056 26.1225 33.5246C26.0655 33.5846 26.0216 33.6562 25.9938 33.7337C25.9865 33.7557 25.9792 33.7791 25.9807 33.8025C25.9821 33.8259 25.9894 33.8493 26.0084 33.8639C26.0318 33.8829 26.0684 33.8829 26.0962 33.8683C26.124 33.8536 26.1444 33.8302 26.1635 33.8039C26.2073 33.7425 26.241 33.6738 26.2629 33.6006C26.2702 33.5729 26.2848 33.5246 26.2688 33.4983C26.2541 33.4734 26.2146 33.469 26.1898 33.4763L26.1883 33.4778Z"></path>
<path fill="white" d="M24.4349 33.3228C24.3822 33.336 24.3281 33.3579 24.293 33.3989C24.2579 33.4398 24.2477 33.5071 24.2813 33.5495C24.312 33.5875 24.3676 33.5963 24.4173 33.5948C24.5431 33.5919 24.6689 33.548 24.7683 33.4735C24.7946 33.453 24.8224 33.4281 24.8283 33.3945C24.8414 33.3184 24.7347 33.3155 24.6849 33.3082C24.6016 33.2965 24.5168 33.3024 24.4349 33.3228Z"></path>
<path fill="white" d="M21.3478 42.4015C21.1548 42.2187 21.0158 41.9876 20.8828 41.758C20.3987 40.9274 19.9512 40.0762 19.5388 39.2076C18.8646 37.7861 18.2767 36.2462 18.4273 34.6799C18.4522 34.4254 18.4975 34.1666 18.6277 33.9458C18.7579 33.7249 18.9875 33.5495 19.2434 33.5436C19.5066 33.5378 19.7479 33.7103 19.8883 33.9326C20.0287 34.1549 20.0843 34.4181 20.1223 34.6784C20.2276 35.4038 20.2159 36.1409 20.3109 36.8662C20.5186 38.4734 21.2323 39.9695 21.9957 41.3983C22.1404 41.6688 22.2911 41.9496 22.3101 42.2552C22.3525 42.9148 21.6432 42.6808 21.3478 42.4V42.4015Z"></path>
<path fill="white" d="M22.4724 43.8873C22.5367 44.0263 22.645 44.1389 22.759 44.2412C22.8058 44.2836 22.8556 44.3246 22.914 44.3495C22.9725 44.3743 23.0427 44.3787 23.0983 44.348C23.1524 44.3173 23.1861 44.2559 23.1934 44.1944C23.2007 44.133 23.1904 44.0701 23.1729 44.0087C23.1071 43.782 22.9374 43.5042 22.7166 43.396C22.4168 43.2483 22.3817 43.6884 22.4739 43.8873H22.4724Z"></path>
<path fill="#00452B" d="M33.8807 36.2462C33.8807 36.2462 29.3706 42.1105 34.4057 47.7525L37.1463 46.489L33.8807 36.2448V36.2462Z"></path>
<path fill="#FFED9A" d="M47.1067 44.2983C47.1067 44.2983 47.1667 44.718 46.6958 45.6057C46.2249 46.4934 45.2641 47.1105 44.5095 47.5902C43.8236 48.0245 38.5691 49.8716 34.5767 45.8206C30.384 41.5665 33.4214 36.2886 34.935 34.9651C34.935 34.9651 35.2948 34.4416 36.105 35.1055L47.1067 44.2983Z"></path>
<path fill="white" d="M35.9367 35.0221L46.9589 43.9926C46.9589 43.9926 47.152 44.1374 47.0979 44.3362C47.0438 44.5351 46.8361 44.7033 46.6606 44.8305C46.4851 44.9578 40.9762 49.7223 35.5784 45.3614C35.5784 45.3614 34.0516 44.1344 33.6202 41.7682C33.18 39.3552 34.0853 36.214 35.7085 35.0162C35.7773 34.9665 35.8709 34.9695 35.9352 35.0221H35.9367Z"></path>
<path fill="white" d="M32.8612 39.484C32.7501 40.0938 32.6843 40.7168 32.7574 41.3325C32.7764 41.4875 32.8042 41.644 32.87 41.7858C32.9154 41.8838 33.0075 41.9862 33.1128 41.9598C33.2137 41.935 33.2502 41.8136 33.2619 41.7098C33.3175 41.2403 33.2532 40.7577 33.2298 40.2868C33.2064 39.8145 33.24 39.3377 33.3321 38.8741C33.3585 38.7396 33.3906 38.605 33.4272 38.4734C33.4594 38.3535 33.4974 38.2336 33.4945 38.1107C33.4945 38.0756 33.4886 38.0376 33.4638 38.0142C33.3526 37.9031 33.161 38.4164 33.1318 38.488C33.0016 38.8069 32.9241 39.1461 32.8612 39.484Z"></path>
<path fill="white" d="M33.1011 42.5828C33.0733 42.6705 33.0894 42.7656 33.1128 42.8548C33.1347 42.9396 33.1684 43.0259 33.2356 43.0829C33.3029 43.1385 33.4126 43.1517 33.4755 43.0902C33.4945 43.0698 33.5091 43.0449 33.5194 43.0186C33.5618 42.9147 33.5662 42.7963 33.5325 42.6895C33.4682 42.4936 33.1976 42.2742 33.1026 42.5842L33.1011 42.5828Z"></path>
<path fill="#FFED9A" d="M41.9605 40.6539C41.9605 40.6539 44.878 42.909 45.7203 43.8961C46.5627 44.8833 43.575 45.9391 43.575 45.9391C43.575 45.9391 42.3626 46.4758 42.2281 45.6598C42.0687 44.6873 41.646 42.1807 41.6387 40.9055C41.6387 40.9055 41.5963 40.3571 41.9605 40.6554V40.6539Z"></path>
<path fill="#FFED9A" d="M41.2087 40.6833L41.4646 45.6043C41.4646 45.6043 41.5597 46.3311 41.0829 46.5154C40.6062 46.6997 38.86 46.5637 37.5731 45.8368C37.5731 45.8368 36.9004 45.5093 37.4415 44.759C37.9826 44.0088 40.4746 40.6248 40.4746 40.6248C40.4746 40.6248 40.808 40.167 41.0113 40.1963C41.1824 40.2197 41.2072 40.6847 41.2072 40.6847L41.2087 40.6833Z"></path>
<path fill="#FFED9A" d="M36.4632 36.138L39.9613 38.9429C40.0944 39.0497 40.03 39.2661 39.8604 39.2808L35.0651 39.7253C35.0651 39.7253 34.037 39.7736 34.1877 38.7367C34.3383 37.6999 34.913 36.7098 35.2684 36.2228C35.7803 35.5223 36.4647 36.1366 36.4647 36.1366L36.4632 36.138Z"></path>
<path fill="#FFED9A" d="M35.144 40.2957L40.1645 39.6025C40.3766 39.5732 40.5155 39.8189 40.381 39.9856C39.4041 41.1936 36.8594 44.3378 36.8536 44.3232C36.8477 44.3056 36.1326 45.2942 35.2566 44.1448C34.3806 42.9953 34.23 41.7815 34.2256 41.1892C34.2198 40.4507 34.8238 40.3395 35.1426 40.2957H35.144Z"></path>
<path fill="white" d="M42.3584 47.3577C42.4461 47.4513 42.5865 47.3138 42.509 47.2188C42.4271 47.1193 42.2677 47.2597 42.3584 47.3577Z"></path>
<path fill="white" d="M42.5675 47.7423C42.6787 47.7979 42.7737 47.6253 42.6655 47.5639C42.55 47.4981 42.4461 47.6824 42.5675 47.7423Z"></path>
<path fill="white" d="M43.1129 47.4528C43.129 47.4645 43.1494 47.4718 43.1684 47.4732C43.2898 47.482 43.3264 47.3255 43.2123 47.2846C43.1056 47.2451 43.0134 47.3796 43.1129 47.4528Z"></path>
<path fill="white" d="M43.5503 47.2305C43.5357 47.2699 43.5503 47.3182 43.5868 47.3431C43.6234 47.3679 43.6717 47.3665 43.7053 47.3416C43.8413 47.2407 43.6102 47.0637 43.5503 47.2305Z"></path>
<path fill="white" d="M44.0021 47.387C43.9831 47.4279 44.0021 47.482 44.0387 47.5069C44.0869 47.5376 44.1586 47.5186 44.1849 47.4674C44.2493 47.3416 44.0548 47.2685 44.0021 47.387Z"></path>
<path fill="white" d="M42.8115 43.02C42.8027 43.0493 42.8027 43.0815 42.8042 43.1122C42.813 43.2964 42.8802 43.4792 42.9914 43.6269C43.0323 43.6811 43.0879 43.7352 43.1566 43.7366C43.2385 43.7381 43.3043 43.6591 43.3146 43.5787C43.3248 43.4983 43.2926 43.4178 43.2546 43.3462C43.1961 43.235 43.1215 43.1327 43.0338 43.0434C42.9694 42.9776 42.8568 42.884 42.813 43.0215L42.8115 43.02Z"></path>
<path fill="white" d="M35.8403 41.0794C35.8227 41.0677 35.8022 41.0619 35.7832 41.0575C35.6619 41.0282 35.5332 41.0355 35.4162 41.0794C35.3738 41.0955 35.3284 41.1204 35.3138 41.1642C35.2977 41.2169 35.3357 41.2739 35.3855 41.2958C35.4352 41.3178 35.4937 41.3119 35.5463 41.3017C35.6282 41.2856 35.7087 41.2564 35.7832 41.2183C35.8373 41.1891 35.9192 41.135 35.8403 41.0809V41.0794Z"></path>
<path fill="white" d="M40.2686 43.5788C40.194 43.627 40.1575 43.7162 40.1326 43.8011C40.1194 43.8449 40.1077 43.8888 40.099 43.9327C40.0873 43.9897 40.0799 44.0511 40.0946 44.1082C40.1092 44.1652 40.1516 44.2179 40.2086 44.2325C40.2744 44.2486 40.3446 44.2076 40.3812 44.152C40.4178 44.0965 40.4309 44.0263 40.4382 43.959C40.4426 43.9181 40.447 43.8757 40.4485 43.8332C40.4529 43.7382 40.428 43.4735 40.2701 43.5788H40.2686Z"></path>
<path fill="white" d="M37.5469 38.3637C37.5133 38.2818 37.4328 38.2292 37.3539 38.1882C37.3129 38.1663 37.272 38.1473 37.231 38.1298C37.1769 38.1078 37.1184 38.0888 37.0599 38.0917C37.0014 38.0947 36.9415 38.1268 36.9166 38.1795C36.8888 38.2409 36.9151 38.3169 36.9634 38.3652C37.0116 38.4135 37.0775 38.4369 37.1418 38.4573C37.1813 38.4705 37.2222 38.4807 37.2632 38.491C37.3553 38.5129 37.62 38.5392 37.5469 38.3637Z"></path>
<path fill="white" d="M40.0959 41.6952C40.0579 41.7069 40.0272 41.7347 39.9994 41.7639C39.9161 41.8516 39.8517 41.9555 39.8108 42.0695C39.7991 42.1017 39.7903 42.1354 39.7903 42.169C39.7903 42.2026 39.8034 42.2377 39.8298 42.2597C39.8649 42.2889 39.9175 42.2874 39.9585 42.267C39.9994 42.2465 40.0301 42.2114 40.0564 42.1734C40.1208 42.0842 40.1705 41.9833 40.2012 41.8765C40.2129 41.837 40.2334 41.7668 40.21 41.7273C40.1881 41.6908 40.131 41.6849 40.0945 41.6952H40.0959Z"></path>
<path fill="white" d="M37.5353 41.4684C37.4578 41.4874 37.3803 41.5196 37.3276 41.5795C37.275 41.6395 37.2604 41.7375 37.3101 41.7989C37.3554 41.8545 37.4359 41.8662 37.5075 41.8647C37.6918 41.8603 37.8746 41.7974 38.0208 41.6863C38.0603 41.6571 38.0983 41.6205 38.1071 41.5722C38.1261 41.4611 37.9696 41.4567 37.898 41.4465C37.7766 41.4304 37.6523 41.4377 37.5338 41.4669L37.5353 41.4684Z"></path>
<path fill="#00452B" d="M19.4523 18.5641C19.4523 18.5641 20.7524 17.6574 22.5819 17.7334C24.4113 17.8095 25.6208 18.6109 27.3742 19.5629C29.1276 20.5149 30.0651 21.0897 33.4198 20.8177C36.7761 20.5456 36.0507 21.7404 34.9919 22.087C33.9332 22.4351 30.4263 22.6003 27.2835 20.8177C24.1393 19.0335 23.8527 18.4441 21.5099 18.5509C21.5099 18.5509 20.4219 18.6109 19.7258 18.8916C19.0296 19.1724 18.9931 18.899 19.4537 18.567L19.4523 18.5641Z"></path>
<path fill="#00452B" d="M20.2027 19.5731C21.1167 19.3377 22.0848 19.2236 23.0164 19.4386C23.7344 19.6126 24.4042 19.9636 24.998 20.3935C25.0272 20.4155 25.0345 20.4579 25.0126 20.4871C24.9921 20.5149 24.9556 20.5222 24.9263 20.5062C24.2126 20.1274 23.4639 19.7808 22.6596 19.674C21.8523 19.5673 21.0377 19.6857 20.2217 19.7047C20.1442 19.7062 20.1266 19.5921 20.2027 19.5731Z"></path>
<path fill="#00452B" d="M22.9491 20.3935C23.8031 20.4418 24.5709 20.8834 25.2626 21.3499C25.3065 21.3996 25.2626 21.4757 25.1983 21.464C25.109 21.4552 25.0842 21.3221 25.1851 21.3134C25.2217 21.3134 25.2524 21.3426 25.2524 21.3792C25.2524 21.3675 25.2465 21.3543 25.2407 21.347C25.2202 21.3221 25.1895 21.328 25.1646 21.347C25.1339 21.3733 25.1383 21.4289 25.1705 21.4479C25.1675 21.4464 25.1602 21.442 25.1558 21.4391C24.9994 21.3441 24.8283 21.2446 24.6674 21.1583C24.1365 20.8702 23.5428 20.6304 22.9388 20.6231C22.7853 20.6172 22.7897 20.3876 22.9461 20.392L22.9491 20.3935Z"></path>
<path fill="#00452B" d="M34.9057 23.0595C33.0046 23.5567 31.0157 23.0434 29.2403 22.3429C29.1628 22.3107 29.2008 22.1908 29.2857 22.2171C30.6252 22.6792 32.0204 23.0375 33.4404 22.9513C33.9054 22.9235 34.3676 22.846 34.8078 22.7114C35.0403 22.6485 35.1383 22.9878 34.9057 23.058V23.0595Z"></path>
<path fill="#00452B" d="M33.0267 24.0204C32.452 24.0057 31.8802 23.9034 31.3405 23.7162C31.3054 23.7045 31.2864 23.6665 31.2996 23.6314C31.3113 23.5977 31.3479 23.5787 31.3815 23.589C31.9167 23.7454 32.4739 23.8186 33.0282 23.8069C33.1715 23.8069 33.1715 24.0189 33.0282 24.0204H33.0267Z"></path>
<path fill="#FDB515" d="M28.9157 13.9384L26.2249 14.4063L24.9248 14.8904C24.9248 14.8904 26.4062 15.3437 26.6636 16.8252C26.6636 16.8252 28.1948 15.471 30.3928 14.5394C29.511 14.1811 28.9157 13.9384 28.9157 13.9384Z"></path>
<path fill="#FDB515" d="M37.8336 17.457C37.8336 17.4716 37.7005 17.4307 37.468 17.3488L38.8456 20.9083C38.8456 20.9083 39.3297 19.9109 40.115 20.259C40.115 20.259 37.8322 17.3341 37.8322 17.4584L37.8336 17.457Z"></path>
<path fill="#FDB515" d="M34.8444 16.3309C34.1 16.0354 33.2942 15.7123 32.5235 15.4008L30.4951 18.6839C30.4951 18.6839 33.0266 19.0159 35.0067 20.1653C35.0067 20.1653 35.112 18.1267 34.8444 16.3309Z"></path>
<path fill="#00452B" d="M30.3927 14.5394C28.1947 15.4724 26.6636 16.8252 26.6636 16.8252C26.6636 16.8252 28.7036 16.8705 30.4951 18.6839L32.5235 15.4008C31.744 15.0864 30.9996 14.7851 30.3927 14.538V14.5394Z"></path>
<path fill="#00452B" d="M34.8442 16.3309C35.1119 18.1268 35.0066 20.1654 35.0066 20.1654C35.0066 20.1654 37.228 20.0148 38.8454 20.9054L37.4678 17.3458C36.9589 17.1645 35.9718 16.7784 34.8428 16.3295L34.8442 16.3309Z"></path>
<path fill="#00452B" d="M32.9242 15.8951L28.3132 27.4219L28.7637 27.5579L33.3103 16.0414L32.9242 15.8951Z"></path>
<path fill="#00452B" d="M34.0078 13.516L34.0064 13.5155C33.9421 13.4916 33.8705 13.5245 33.8467 13.5888L33.6967 13.9934C33.6729 14.0577 33.7057 14.1293 33.7701 14.1531L33.7714 14.1536C33.8358 14.1775 33.9073 14.1447 33.9312 14.0803L34.0812 13.6758C34.105 13.6114 34.0722 13.5399 34.0078 13.516Z"></path>
<path fill="#62BB46" d="M24.9248 14.8904C24.9248 14.8904 25.9032 14.3318 28.4112 14.6813C29.7523 13.7483 30.4952 13.4236 30.4952 13.4236C30.4952 13.4236 27.4197 13.2277 24.9248 14.8904Z"></path>
<path fill="#62BB46" d="M40.1163 20.2576C40.1163 20.2576 39.5123 18.3754 38.3629 16.9466C37.2134 15.5179 35.324 14.6565 35.324 14.6565C35.324 14.6565 35.6969 15.5091 35.811 17.1236C39.3749 18.8653 40.1163 20.2576 40.1163 20.2576Z"></path>
<path fill="white" d="M34.4319 14.0744C33.7446 14.1797 32.9051 13.7263 32.6185 13.5231C32.3319 13.3183 31.5305 12.9132 30.4951 13.4251C30.4951 13.4251 29.7522 13.7497 28.4111 14.6828C29.5913 14.848 31.1108 15.2136 33.028 15.9346C34.1073 16.3411 35.0271 16.7404 35.8124 17.125C35.6998 15.5105 35.3255 14.6579 35.3255 14.6579C35.3255 14.6579 35.1207 13.9706 34.4334 14.0758L34.4319 14.0744Z"></path>
<path fill="#62BB46" d="M35.4733 30.8996C35.4908 30.8323 35.5025 30.765 35.5084 30.6977C35.5625 30.0879 35.3855 29.4708 35.0667 28.9531C34.9936 28.8332 34.9117 28.7191 34.8239 28.6094C34.7362 28.4997 34.6602 28.39 34.5475 28.3125C34.5417 28.3082 34.5358 28.3052 34.53 28.3052C34.5227 28.3052 34.5154 28.3111 34.5095 28.3169C34.4861 28.3418 34.4788 28.3769 34.4788 28.412C34.4788 28.4471 34.4803 28.4807 34.4744 28.5129C34.2916 28.295 34.0825 28.0976 33.8763 27.9031C33.8295 27.8592 33.7827 27.8139 33.7359 27.77C33.5853 27.6281 33.4332 27.4833 33.2504 27.3854C33.2153 27.3664 33.167 27.3503 33.1392 27.3795C33.1202 27.3985 33.1202 27.4307 33.1232 27.4585C33.1319 27.5199 33.1495 27.5813 33.1758 27.6384C32.8672 27.4219 32.525 27.2099 32.2004 27.0183C32.1185 26.97 32.038 26.9218 31.9518 26.8823C31.8611 26.8399 31.7675 26.8911 31.8231 26.992C31.5437 26.8472 31.2381 26.698 30.9558 26.5576C30.8125 26.486 30.6663 26.4143 30.5098 26.3836C30.4762 26.3763 30.4557 26.3924 30.4615 26.426C30.4674 26.464 30.4762 26.5006 30.4908 26.5357C30.3299 26.445 30.1618 26.369 30.0023 26.2725C29.8429 26.1759 29.6879 26.0721 29.5388 25.961C29.451 25.8952 29.3633 25.825 29.2624 25.7796C29.2521 25.7752 29.2419 25.7709 29.2317 25.7738C29.2126 25.7782 29.2068 25.803 29.2068 25.822C29.2068 25.8528 29.2112 25.8805 29.2141 25.9098C29.217 25.9332 29.2214 25.9405 29.1936 25.9317C29.1805 25.9273 29.1688 25.9229 29.1556 25.9186C29.1044 25.8995 29.0562 25.8761 29.0079 25.8484C28.9392 25.8089 28.869 25.7709 28.8032 25.727C28.6584 25.6319 28.5238 25.5193 28.3981 25.3994C28.2723 25.2795 28.1597 25.1479 28.0515 25.0133C28.0164 24.9694 27.9696 24.9197 27.914 24.9344C27.8555 24.949 27.8409 25.0206 27.8438 25.0718C27.7458 25.0119 27.6318 24.9314 27.5499 24.851C27.2969 24.5995 27.1448 24.2689 26.9766 23.9545C26.9561 23.9165 26.9342 23.8756 26.9006 23.8478C26.7836 23.7498 26.6958 23.8522 26.6534 23.9618C26.5613 24.2017 26.5262 24.4503 26.4706 24.6989C26.3946 25.0396 26.3361 25.3936 26.3551 25.7431C26.3141 25.7007 26.26 25.6597 26.2044 25.6816C26.1459 25.705 26.1401 25.7826 26.1416 25.844C26.1503 26.075 26.162 26.3076 26.184 26.5372C26.2044 26.7521 26.2571 26.9657 26.2717 27.1792C26.241 27.147 26.2147 27.1075 26.1752 27.0841C26.1474 27.068 26.1065 27.068 26.0889 27.0943C26.0831 27.1046 26.0816 27.1148 26.0801 27.1265C26.0787 27.1514 26.0801 27.1762 26.0845 27.2011C26.1313 27.5769 26.26 27.944 26.4589 28.2657C26.4136 28.2555 26.3785 28.2657 26.3317 28.2687C26.3127 28.2687 26.2937 28.2731 26.2805 28.2862C26.2703 28.2979 26.2673 28.314 26.2659 28.3301C26.2659 28.3754 26.2805 28.4193 26.298 28.4617C26.3741 28.6474 26.4648 28.8273 26.5686 28.9984C26.6739 29.1724 26.8084 29.3231 26.921 29.4898C26.8889 29.5029 26.8596 29.5073 26.8274 29.522C26.8011 29.5337 26.7733 29.5468 26.7646 29.5746C26.7602 29.5907 26.7646 29.6097 26.7675 29.6258C26.8026 29.7516 26.8757 29.8627 26.9517 29.968C27.1272 30.2093 27.3305 30.4316 27.5572 30.6261C27.5791 30.6451 27.5879 30.6466 27.6113 30.6641C27.5601 30.6787 27.5118 30.7051 27.4724 30.7402C27.4636 30.7475 27.4548 30.7577 27.4519 30.7679C27.449 30.7796 27.4548 30.7928 27.4592 30.803C27.5309 30.9507 27.6756 31.0487 27.8131 31.1379C28.0471 31.29 28.2796 31.4421 28.5136 31.5942C28.48 31.6176 28.4419 31.6249 28.4142 31.6542C28.4025 31.6673 28.3893 31.682 28.3893 31.701C28.3893 31.72 28.4025 31.7361 28.4156 31.7492C28.4712 31.8048 28.5355 31.8516 28.5999 31.8969C28.9596 32.1485 29.372 32.3693 29.8166 32.4088C29.7771 32.4307 29.7523 32.46 29.726 32.4965C29.7157 32.5097 29.7069 32.5258 29.7099 32.5419C29.7128 32.5638 29.7347 32.577 29.7552 32.5872C30.1632 32.7875 30.6341 32.8563 31.0831 32.7832C31.0582 32.8197 31.0421 32.8592 31.0392 32.9031C31.0392 32.9162 31.0392 32.9309 31.0451 32.944C31.0597 32.9718 31.0992 32.9762 31.1313 32.9762C31.3858 32.9747 31.6388 32.9528 31.8889 32.9118C32.1316 32.8724 32.3656 32.7992 32.6069 32.7524C32.6098 32.7524 32.6142 32.7495 32.6142 32.7466C32.6142 32.7437 32.6069 32.7451 32.6098 32.7466C32.6055 32.7963 32.6055 32.8446 32.5996 32.8943C32.5996 32.9089 32.5981 32.925 32.6084 32.9338C32.6186 32.9426 32.6332 32.9411 32.6464 32.9382C33.1392 32.8475 33.6642 32.6457 34.0576 32.3313C34.0752 32.3591 34.0474 32.3971 34.0518 32.4307C34.0766 32.5945 34.4086 32.3649 34.4642 32.324C34.7303 32.1324 34.96 31.8882 35.1369 31.6118C35.2685 31.407 35.4001 31.1555 35.4645 30.9069L35.4733 30.8996Z"></path>
<mask height="10" width="10" y="23" x="26" maskUnits="userSpaceOnUse" style="mask-type:luminance" id="mask0_8241_14234">
<path fill="white" d="M35.4733 30.8996C35.4908 30.8323 35.5025 30.765 35.5084 30.6977C35.5625 30.0879 35.3855 29.4708 35.0667 28.9531C34.9936 28.8332 34.9117 28.7191 34.8239 28.6094C34.7362 28.4997 34.6602 28.39 34.5475 28.3125C34.5417 28.3082 34.5358 28.3052 34.53 28.3052C34.5227 28.3052 34.5154 28.3111 34.5095 28.3169C34.4861 28.3418 34.4788 28.3769 34.4788 28.412C34.4788 28.4471 34.4803 28.4807 34.4744 28.5129C34.2916 28.295 34.0825 28.0976 33.8763 27.9031C33.8295 27.8592 33.7827 27.8139 33.7359 27.77C33.5853 27.6281 33.4332 27.4833 33.2504 27.3854C33.2153 27.3664 33.167 27.3503 33.1392 27.3795C33.1202 27.3985 33.1202 27.4307 33.1232 27.4585C33.1319 27.5199 33.1495 27.5813 33.1758 27.6384C32.8672 27.4219 32.525 27.2099 32.2004 27.0183C32.1185 26.97 32.038 26.9218 31.9518 26.8823C31.8611 26.8399 31.7675 26.8911 31.8231 26.992C31.5437 26.8472 31.2381 26.698 30.9558 26.5576C30.8125 26.486 30.6663 26.4143 30.5098 26.3836C30.4762 26.3763 30.4557 26.3924 30.4615 26.426C30.4674 26.464 30.4762 26.5006 30.4908 26.5357C30.3299 26.445 30.1618 26.369 30.0023 26.2725C29.8429 26.1759 29.6879 26.0721 29.5388 25.961C29.451 25.8952 29.3633 25.825 29.2624 25.7796C29.2521 25.7752 29.2419 25.7709 29.2317 25.7738C29.2126 25.7782 29.2068 25.803 29.2068 25.822C29.2068 25.8528 29.2112 25.8805 29.2141 25.9098C29.217 25.9332 29.2214 25.9405 29.1936 25.9317C29.1805 25.9273 29.1688 25.9229 29.1556 25.9186C29.1044 25.8995 29.0562 25.8761 29.0079 25.8484C28.9392 25.8089 28.869 25.7709 28.8032 25.727C28.6584 25.6319 28.5238 25.5193 28.3981 25.3994C28.2723 25.2795 28.1597 25.1479 28.0515 25.0133C28.0164 24.9694 27.9696 24.9197 27.914 24.9344C27.8555 24.949 27.8409 25.0206 27.8438 25.0718C27.7458 25.0119 27.6318 24.9314 27.5499 24.851C27.2969 24.5995 27.1448 24.2689 26.9766 23.9545C26.9561 23.9165 26.9342 23.8756 26.9006 23.8478C26.7836 23.7498 26.6958 23.8522 26.6534 23.9618C26.5613 24.2017 26.5262 24.4503 26.4706 24.6989C26.3946 25.0396 26.3361 25.3936 26.3551 25.7431C26.3141 25.7007 26.26 25.6597 26.2044 25.6816C26.1459 25.705 26.1401 25.7826 26.1416 25.844C26.1503 26.075 26.162 26.3076 26.184 26.5372C26.2044 26.7521 26.2571 26.9657 26.2717 27.1792C26.241 27.147 26.2147 27.1075 26.1752 27.0841C26.1474 27.068 26.1065 27.068 26.0889 27.0943C26.0831 27.1046 26.0816 27.1148 26.0801 27.1265C26.0787 27.1514 26.0801 27.1762 26.0845 27.2011C26.1313 27.5769 26.26 27.944 26.4589 28.2657C26.4136 28.2555 26.3785 28.2657 26.3317 28.2687C26.3127 28.2687 26.2937 28.2731 26.2805 28.2862C26.2703 28.2979 26.2673 28.314 26.2659 28.3301C26.2659 28.3754 26.2805 28.4193 26.298 28.4617C26.3741 28.6474 26.4648 28.8273 26.5686 28.9984C26.6739 29.1724 26.8084 29.3231 26.921 29.4898C26.8889 29.5029 26.8596 29.5073 26.8274 29.522C26.8011 29.5337 26.7733 29.5468 26.7646 29.5746C26.7602 29.5907 26.7646 29.6097 26.7675 29.6258C26.8026 29.7516 26.8757 29.8627 26.9517 29.968C27.1272 30.2093 27.3305 30.4316 27.5572 30.6261C27.5791 30.6451 27.5879 30.6466 27.6113 30.6641C27.5601 30.6787 27.5118 30.7051 27.4724 30.7402C27.4636 30.7475 27.4548 30.7577 27.4519 30.7679C27.449 30.7796 27.4548 30.7928 27.4592 30.803C27.5309 30.9507 27.6756 31.0487 27.8131 31.1379C28.0471 31.29 28.2796 31.4421 28.5136 31.5942C28.48 31.6176 28.4419 31.6249 28.4142 31.6542C28.4025 31.6673 28.3893 31.682 28.3893 31.701C28.3893 31.72 28.4025 31.7361 28.4156 31.7492C28.4712 31.8048 28.5355 31.8516 28.5999 31.8969C28.9596 32.1485 29.372 32.3693 29.8166 32.4088C29.7771 32.4307 29.7523 32.46 29.726 32.4965C29.7157 32.5097 29.7069 32.5258 29.7099 32.5419C29.7128 32.5638 29.7347 32.577 29.7552 32.5872C30.1632 32.7875 30.6341 32.8563 31.0831 32.7832C31.0582 32.8197 31.0421 32.8592 31.0392 32.9031C31.0392 32.9162 31.0392 32.9309 31.0451 32.944C31.0597 32.9718 31.0992 32.9762 31.1313 32.9762C31.3858 32.9747 31.6388 32.9528 31.8889 32.9118C32.1316 32.8724 32.3656 32.7992 32.6069 32.7524C32.6098 32.7524 32.6142 32.7495 32.6142 32.7466C32.6142 32.7437 32.6069 32.7451 32.6098 32.7466C32.6055 32.7963 32.6055 32.8446 32.5996 32.8943C32.5996 32.9089 32.5981 32.925 32.6084 32.9338C32.6186 32.9426 32.6332 32.9411 32.6464 32.9382C33.1392 32.8475 33.6642 32.6457 34.0576 32.3313C34.0752 32.3591 34.0474 32.3971 34.0518 32.4307C34.0766 32.5945 34.4086 32.3649 34.4642 32.324C34.7303 32.1324 34.96 31.8882 35.1369 31.6118C35.2685 31.407 35.4001 31.1555 35.4645 30.9069L35.4733 30.8996Z"></path>
</mask>
<g mask="url(#mask0_8241_14234)">
<path fill="#00452B" d="M34.7085 26.3353C35.2964 27.4438 36.3859 28.8682 37.9683 30.5968C39.4687 32.2347 40.0273 34.2675 39.631 36.6381C39.2815 38.7235 38.1949 41.0458 36.4883 43.3535C36.1154 43.8449 35.0171 45.2137 34.3634 45.7051C34.0943 45.9025 32.5237 46.3207 30.1121 46.3895C28.8325 46.426 27.3028 46.3895 27.1215 46.3836C24.3107 46.195 23.1598 45.8572 22.9448 45.7051C22.2911 45.2137 21.1914 43.8449 20.8199 43.3535C19.1133 41.0458 18.0267 38.7235 17.6772 36.6381C17.2809 34.2675 17.8395 32.2347 19.34 30.5968C20.4368 29.3976 21.2967 28.3462 21.9167 27.4453C21.9167 27.4453 23.0662 27.0344 24.6983 28.0829C26.3289 29.1315 28.6278 29.2324 31.2777 27.4073C33.2622 26.1876 34.7085 26.3353 34.7085 26.3353Z"></path>
</g>
<path fill="white" d="M28.1699 30.5004C28.1553 30.5501 28.1612 30.6028 28.1743 30.6525C28.1977 30.7432 28.2533 30.8294 28.3381 30.8704C28.4229 30.9113 28.537 30.8923 28.5882 30.8133C28.6365 30.7402 28.6174 30.6422 28.5794 30.5633C28.5502 30.5033 28.5078 30.4477 28.4522 30.4112C28.3469 30.3439 28.208 30.3717 28.1714 30.5004H28.1699Z"></path>
<path fill="white" d="M29.5812 31.9292C29.8138 32.0038 30.0594 32.0316 30.292 32.1091C30.5728 32.2027 30.8389 32.3694 31.1343 32.3694C31.3274 32.3694 31.5043 32.2787 31.693 32.2831C31.7515 32.2831 31.81 32.2831 31.8685 32.2831C32.0045 32.2787 32.1463 32.2655 32.2633 32.1953C32.3481 32.1442 32.4169 32.0608 32.4359 31.9643C32.4549 31.8663 32.4139 31.7566 32.3291 31.7054C32.2224 31.6411 32.0454 31.6382 31.9255 31.6455C31.7807 31.6542 31.6359 31.6718 31.4912 31.6791C31.0539 31.7025 30.6137 31.625 30.2028 31.4773C30.1209 31.448 30.039 31.4144 29.9585 31.3822C29.9059 31.3603 29.8532 31.3398 29.8021 31.3135C29.7377 31.2799 29.6778 31.2404 29.6178 31.2024C29.5403 31.1526 29.4613 31.1058 29.375 31.0795C29.2858 31.0532 29.1103 31.0313 29.0489 31.1146C28.9977 31.1834 28.9699 31.2696 28.9729 31.3559C28.9831 31.6586 29.3341 31.8502 29.5842 31.9292H29.5812Z"></path>
<path fill="#00452B" d="M26.8464 24.6141C26.8464 24.6141 26.8496 24.6189 26.8512 24.6221C26.8512 24.6189 26.848 24.6173 26.8464 24.6141Z"></path>
<path fill="#62BB46" d="M36.2498 30.8324C36.1942 30.8353 36.1299 30.8353 36.0685 30.8367C35.1354 30.8338 34.201 30.7051 33.2986 30.4682C31.9064 30.1099 30.6005 29.4284 29.5563 28.4369C29.5344 28.4164 29.5124 28.396 29.4905 28.3755L29.2097 28.4808C29.4905 28.763 29.7844 29.0292 30.0872 29.2822C31.8172 30.6539 34.0796 31.293 36.2659 31.331C36.6066 31.312 36.5818 30.8265 36.2513 30.8309L36.2498 30.8324Z"></path>
<path fill="#00452B" d="M27.0847 24.9241C27.0555 24.8378 27.0247 24.7442 26.9984 24.655C26.994 24.6419 26.9823 24.5965 26.9779 24.5848L26.9736 24.5717V24.5688C26.9677 24.5541 26.9546 24.5366 26.9429 24.5278C26.9121 24.5073 26.8712 24.5161 26.8507 24.5468C26.8361 24.5673 26.8361 24.5936 26.8478 24.6156C26.8478 24.6185 26.8507 24.6199 26.8522 24.6229C26.8566 24.6302 26.8624 24.636 26.8697 24.6404C26.8624 24.6375 26.8566 24.6302 26.8522 24.6229C26.8507 24.6214 26.8493 24.6185 26.8478 24.6156V24.6185L26.8507 24.6273L26.8566 24.6492C26.8844 24.7559 26.9151 24.8686 26.9487 24.9738C27.3904 26.3134 28.2181 27.4877 29.2125 28.4851L29.4933 28.3798C28.4638 27.4161 27.5673 26.2652 27.0862 24.9285L27.0847 24.9241Z"></path>
<path fill="white" d="M31.627 33.6036C32.0175 33.3784 32.424 33.7221 32.7692 33.8713C33.284 34.095 33.7066 33.6314 34.1336 33.4106C34.255 33.3492 34.3969 33.3009 34.5372 33.3185C34.5489 33.3199 34.5577 33.3316 34.5563 33.3433C34.5563 33.3536 34.546 33.3623 34.5358 33.3623C34.4086 33.3784 34.2959 33.4369 34.1907 33.51C33.7549 33.8318 33.2898 34.3027 32.7019 34.0248C32.4533 33.9137 32.2676 33.7279 32.0116 33.6475C31.8932 33.6095 31.766 33.5993 31.646 33.6446C31.6226 33.6548 31.6022 33.6183 31.6256 33.6051L31.627 33.6036Z"></path>
<path fill="white" d="M31.8304 33.94C32.1185 33.9049 32.2822 34.2018 32.5192 34.3012C32.7297 34.4094 33.0032 34.4051 33.1831 34.2456C33.2387 34.1974 33.3162 34.2764 33.265 34.3305C33.0588 34.544 32.7093 34.5469 32.465 34.408C32.2837 34.3188 32.1711 34.1404 32.0058 34.038C31.9532 34.0058 31.8947 33.9868 31.8347 33.9839C31.8084 33.9839 31.8055 33.9429 31.8318 33.94H31.8304Z"></path>
<path fill="white" d="M18.5764 21.0415C15.9002 21.4114 15.6793 21.7127 15.4059 25.3424C15.1324 21.7127 14.9116 21.4129 12.2354 21.0415C14.9116 20.6715 15.1324 20.3702 15.4059 16.7405C15.6793 20.3702 15.9002 20.67 18.5764 21.0415Z"></path>
<path fill="white" d="M51.3142 37.9996C48.638 38.3696 48.4171 38.6708 48.1437 42.3006C47.8702 38.6708 47.6494 38.371 44.9731 37.9996C47.6494 37.6296 47.8702 37.3283 48.1437 33.6986C48.4171 37.3283 48.638 37.6281 51.3142 37.9996Z"></path>
</g>
<defs>
<clipPath id="clip0_8241_14234">
<rect transform="translate(12.2354 13.1765)" fill="white" height="37.6471" width="39.0788"></rect>
</clipPath>
</defs>
</svg>
