<svg xmlns="http://www.w3.org/2000/svg" fill="none" viewBox="0 0 32 32" height="32" width="32">
<path fill="#004600" d="M30.6626 8.7573C30.6571 8.17287 30.4787 7.60316 30.1498 7.12003C29.8209 6.6369 29.3563 6.262 28.8146 6.04263L18.5573 1.83996C16.9193 1.16435 15.0805 1.16435 13.4426 1.83996L3.18659 6.04263C2.64462 6.2618 2.17973 6.63661 1.85059 7.11975C1.52146 7.6029 1.34283 8.17272 1.33725 8.7573C1.33725 8.7653 1.33325 8.77063 1.33325 8.77996V23.2133C1.33261 23.8032 1.50887 24.3797 1.83925 24.8684C2.16963 25.357 2.63895 25.7354 3.18659 25.9546L13.4439 30.164C15.0834 30.8345 16.9208 30.834 18.5599 30.1626L28.8266 25.948C29.3713 25.728 29.8377 25.35 30.1656 24.8626C30.4936 24.3752 30.668 23.8007 30.6666 23.2133V8.77996C30.6666 8.77196 30.6626 8.7653 30.6626 8.7573ZM4.19592 8.51063L14.4546 4.30663C15.4456 3.90445 16.5543 3.90445 17.5453 4.30663L27.8026 8.5093C27.8608 8.52889 27.9114 8.56627 27.9472 8.61614C27.983 8.66602 28.0023 8.72588 28.0023 8.7873C28.0023 8.84871 27.983 8.90858 27.9472 8.95846C27.9114 9.00833 27.8608 9.0457 27.8026 9.0653L17.5466 13.2666C16.5548 13.6691 15.4451 13.6691 14.4533 13.2666L4.19859 9.06663C4.14086 9.04674 4.09077 9.00933 4.05532 8.95961C4.01986 8.9099 4.00081 8.85036 4.00081 8.7893C4.00081 8.72824 4.01986 8.6687 4.05532 8.61898C4.09077 8.56927 4.14086 8.53186 4.19859 8.51196L4.19592 8.51063ZM4.21459 23.4946C4.15248 23.4785 4.09758 23.442 4.05866 23.391C4.01974 23.34 3.99906 23.2774 3.99992 23.2133V11.8666L13.4426 15.736C13.8381 15.8969 14.2479 16.0201 14.6666 16.104V27.76C14.5959 27.7346 4.21325 23.4933 4.21325 23.4933L4.21459 23.4946ZM27.8013 23.488C27.8013 23.488 17.4053 27.7333 17.3333 27.76V16.104C17.7519 16.0201 18.1617 15.8968 18.5573 15.736L27.9999 11.8666V23.2133C28.0018 23.2748 27.9831 23.3351 27.9469 23.3848C27.9107 23.4346 27.8603 23.4708 27.8013 23.488Z"></path>
</svg>
