<svg xmlns="http://www.w3.org/2000/svg" fill="none" viewBox="0 0 24 24" height="24" width="24">
<path fill="#004600" d="M22.997 6.56797C22.9929 6.12966 22.8591 5.70237 22.6124 5.34002C22.3657 4.97768 22.0173 4.6965 21.611 4.53197L13.918 1.37997C12.6895 0.873261 11.3105 0.873261 10.082 1.37997L2.39 4.53197C1.98353 4.69635 1.63486 4.97746 1.38801 5.33982C1.14115 5.70217 1.00718 6.12954 1.003 6.56797C1.003 6.57397 1 6.57797 1 6.58497V17.41C0.999521 17.8524 1.13171 18.2848 1.3795 18.6513C1.62728 19.0178 1.97927 19.3016 2.39 19.466L10.083 22.623C11.3126 23.1259 12.6906 23.1255 13.92 22.622L21.62 19.461C22.0285 19.296 22.3783 19.0125 22.6243 18.6469C22.8702 18.2814 23.0011 17.8506 23 17.41V6.58497C23 6.57897 22.997 6.57397 22.997 6.56797ZM3.147 6.38297L10.841 3.22997C11.5842 2.92834 12.4158 2.92834 13.159 3.22997L20.852 6.38197C20.8957 6.39667 20.9336 6.4247 20.9605 6.46211C20.9873 6.49951 21.0018 6.54441 21.0018 6.59047C21.0018 6.63653 20.9873 6.68143 20.9605 6.71884C20.9336 6.75625 20.8957 6.78428 20.852 6.79897L13.16 9.94997C12.4161 10.2518 11.5839 10.2518 10.84 9.94997L3.149 6.79997C3.1057 6.78506 3.06814 6.757 3.04155 6.71971C3.01496 6.68242 3.00067 6.63777 3.00067 6.59197C3.00067 6.54618 3.01496 6.50152 3.04155 6.46424C3.06814 6.42695 3.1057 6.39889 3.149 6.38397L3.147 6.38297ZM3.161 17.621C3.11442 17.6089 3.07325 17.5815 3.04406 17.5433C3.01487 17.505 2.99936 17.4581 3 17.41V8.89997L10.082 11.802C10.3786 11.9227 10.686 12.0151 11 12.078V20.82C10.947 20.801 3.16 17.62 3.16 17.62L3.161 17.621ZM20.851 17.616C20.851 17.616 13.054 20.8 13 20.82V12.078C13.314 12.015 13.6214 11.9226 13.918 11.802L21 8.89997V17.41C21.0014 17.4561 20.9874 17.5013 20.9602 17.5386C20.9331 17.5759 20.8953 17.6031 20.851 17.616Z"></path>
</svg>
