<svg xmlns="http://www.w3.org/2000/svg" fill="none" viewBox="0 0 26 32" height="32" width="26">
<path fill="#FFDB00" d="M22.0217 4.48605C22.0217 4.48605 24.1718 6.09409 24.4238 7.31234C24.6688 8.49427 24.0956 9.05031 24.2369 10.0786C24.3781 11.1068 27.8338 15.991 24.6702 23.7057C21.5066 31.4203 14.8153 32.3312 10.3045 31.9177C6.95819 31.6103 6.5193 31.4678 5.09049 31.6159C3.8652 31.7431 2.75343 31.6159 2.68282 29.7536C2.61221 27.8913 1.24709 25.9843 0.784662 24.7521C0.372078 23.6526 -1.67561 18.1257 3.13971 11.0607C6.30609 6.41541 10.5925 4.32119 15.0036 4.55171C15.0036 4.55171 16.7259 4.71098 17.5871 3.71765C18.1866 3.0275 19.7954 3.16162 22.0217 4.48605Z"></path>
<mask height="29" width="26" y="3" x="0" maskUnits="userSpaceOnUse" style="mask-type:luminance" id="mask0_14042_13944">
<path fill="white" d="M22.0217 4.48605C22.0217 4.48605 24.1718 6.09409 24.4238 7.31234C24.6688 8.49427 24.0956 9.05031 24.2369 10.0786C24.3781 11.1068 27.8338 15.991 24.6702 23.7057C21.5066 31.4203 14.8153 32.3312 10.3045 31.9177C6.95819 31.6103 6.5193 31.4678 5.09049 31.6159C3.8652 31.7431 2.75343 31.6159 2.68282 29.7536C2.61221 27.8913 1.24709 25.9843 0.784662 24.7521C0.372078 23.6526 -1.67561 18.1257 3.13971 11.0607C6.30609 6.41541 10.5925 4.32119 15.0036 4.55171C15.0036 4.55171 16.7259 4.71098 17.5871 3.71765C18.1866 3.0275 19.7954 3.16162 22.0217 4.48605Z"></path>
</mask>
<g mask="url(#mask0_14042_13944)">
<path fill="#00452B" d="M3.43738 10.3496C3.43738 10.3496 11.066 14.6596 18.9522 5.31172L5.00187 7.24528L3.43738 10.3496Z"></path>
</g>
<path fill="#62BB46" d="M20.7065 2.30661C20.7065 2.30661 19.2999 7.05109 13.5971 8.77089C7.89427 10.4907 3.78089 7.86698 2.69128 6.56351C2.69128 6.56351 4.27932 6.82616 6.02241 4.74591C7.94688 2.44911 10.5913 -0.433066 15.1256 0.0545143C19.1766 0.577022 20.7065 2.30661 20.7065 2.30661Z"></path>
<path fill="white" d="M2.13461 15.8317C1.93109 15.9575 1.77326 16.1475 1.63757 16.3458C1.02147 17.247 0.799946 18.38 0.851173 19.4753C0.901016 20.5692 1.20561 21.6352 1.56281 22.6704C1.92001 23.7043 2.33398 24.7213 2.61781 25.7775C2.65519 25.9144 2.70503 26.0709 2.83794 26.1212C2.9404 26.1589 3.05947 26.1142 3.13284 26.0332C3.20622 25.9522 3.24361 25.8446 3.26714 25.737C3.42913 24.9784 2.99993 24.238 2.73826 23.5087C2.35337 22.4357 2.32152 21.2636 2.4489 20.1291C2.57627 18.9961 2.85871 17.8868 3.09131 16.7706C3.13008 16.5848 3.16746 16.3934 3.14254 16.2047C3.07193 15.6697 2.53889 15.5816 2.13461 15.8317Z"></path>
<path fill="white" d="M2.97638 26.8742C2.89746 27.0419 2.903 27.2431 2.97638 27.4135C3.0193 27.5141 3.08853 27.6077 3.18406 27.6608C3.35158 27.753 3.57726 27.6943 3.70048 27.5476C3.8237 27.4009 3.85139 27.1872 3.79463 27.0028C3.74894 26.8505 3.60495 26.5948 3.43327 26.5627C3.2519 26.5278 3.04699 26.7262 2.97638 26.8742Z"></path>
<path fill="white" d="M10.5289 1.37056C10.4153 1.44879 10.3046 1.5424 10.245 1.66813C10.1855 1.79387 10.1883 1.95733 10.2824 2.05932C10.3738 2.15851 10.5261 2.17527 10.6562 2.14174C10.7864 2.10821 10.8999 2.03277 11.0176 1.96851C11.4025 1.75615 11.8345 1.65277 12.254 1.52843C12.3758 1.4921 12.5059 1.44739 12.5821 1.34541C12.6444 1.26019 12.6596 1.14143 12.6181 1.04364C12.4699 0.685987 11.9411 0.871798 11.6697 0.926284C11.2682 1.00731 10.8708 1.13724 10.5302 1.37195L10.5289 1.37056Z"></path>
<path fill="white" d="M14.8624 0.850842C14.8291 0.924887 14.8139 1.00871 14.8361 1.08695C14.8748 1.21967 15.0244 1.3035 15.1587 1.27835C15.293 1.2532 15.401 1.13305 15.4231 0.996139C15.4951 0.577015 15.0202 0.504367 14.861 0.850842L14.8624 0.850842Z"></path>
<path fill="white" d="M17.1219 1.00871C17.079 0.996139 17.0374 0.983566 16.9945 0.972389C16.8242 0.924888 16.6526 0.884373 16.4781 0.859226C16.3203 0.835475 16.1417 0.803342 15.9866 0.859226C15.8731 0.901138 15.7928 1.00452 15.8218 1.13026C15.8468 1.23783 15.9354 1.32026 16.0351 1.36357C16.1347 1.40688 16.2455 1.41806 16.3535 1.42784C16.6415 1.45159 16.9336 1.46556 17.2064 1.56056C17.3503 1.61085 17.4888 1.6835 17.6397 1.69608C17.7352 1.70446 17.8474 1.67791 17.8889 1.5899C17.9152 1.53262 17.9041 1.46276 17.8723 1.40828C17.8405 1.35379 17.7906 1.31188 17.7394 1.27556C17.5539 1.14563 17.3365 1.07018 17.1191 1.00592L17.1219 1.00871Z"></path>
<path fill="#00452B" d="M24.957 1.45299L23.8355 0.658049C23.8355 0.658049 23.7801 0.793565 23.6666 1.0185C23.3731 1.54519 22.7293 1.77152 22.1713 1.85535C21.9457 1.88888 21.72 1.88888 21.4943 1.90704C21.2506 1.9266 21.0084 1.95035 20.7661 1.97549C17.8046 2.34991 14.9442 3.35581 12.3123 4.75149C11.7321 5.06025 11.0953 5.42768 10.5124 5.71827C9.90598 6.01445 9.27879 6.2785 8.64053 6.49365C8.62946 6.49784 8.617 6.50064 8.60592 6.50483C8.53531 6.52858 8.46332 6.55093 8.39271 6.57328C8.3221 6.59564 8.24872 6.61659 8.17672 6.63755C8.10473 6.65851 8.02996 6.67946 7.95659 6.69902C7.88321 6.71858 7.80844 6.73814 7.73368 6.7577C7.65892 6.77726 7.58415 6.79402 7.50939 6.81218C7.43463 6.83035 7.35848 6.84571 7.28233 6.86248C7.20618 6.87924 7.13003 6.89321 7.05389 6.90858C6.97774 6.92395 6.9002 6.93652 6.82406 6.9491C6.74791 6.96167 6.67038 6.97425 6.59284 6.98542C6.51531 6.9966 6.43778 7.00638 6.36025 7.01616C6.28271 7.02594 6.20518 7.03432 6.12626 7.04131C6.04873 7.04829 5.96981 7.05528 5.89228 7.06086C5.81475 7.06645 5.73583 7.07064 5.6583 7.07483C5.58077 7.07903 5.50185 7.08042 5.42432 7.08182C5.34678 7.08322 5.26925 7.08182 5.19034 7.08182C5.11142 7.08182 5.03527 7.07903 4.95774 7.07483C4.88021 7.07064 4.80267 7.06645 4.72652 7.06086C4.64899 7.05528 4.57284 7.04829 4.4967 7.03991C4.42055 7.03153 4.3444 7.02175 4.26825 7.01057C4.1921 6.99939 4.11734 6.98682 4.04119 6.97285C3.96504 6.95888 3.89167 6.94351 3.8169 6.92674C3.74214 6.90998 3.66876 6.89182 3.594 6.87226C3.51923 6.8527 3.44724 6.83174 3.37386 6.80939C3.30048 6.78704 3.22849 6.76329 3.15788 6.73674C3.08727 6.7102 3.01527 6.68365 2.94466 6.65571C2.91005 6.64174 2.87405 6.62637 2.83944 6.611C2.8159 6.60123 2.79375 6.58725 2.76883 6.58027C2.74252 6.57328 2.71622 6.5663 2.68991 6.55931C2.70929 6.58027 2.73283 6.59983 2.75775 6.6138C2.83252 6.65851 2.91282 6.69623 2.99173 6.73115C3.51508 6.96726 4.07857 7.10278 4.64484 7.17822C6.70776 7.43947 8.78591 6.86807 10.6536 6.01026C11.4511 5.64143 12.2956 5.14687 13.0903 4.77245C13.2053 4.71936 13.7521 4.4595 13.8574 4.412C13.9571 4.37009 14.2215 4.25832 14.3253 4.21501C15.03 3.90905 15.8164 3.62545 16.5461 3.38934C18.3612 2.81095 20.2621 2.38624 22.1672 2.32616C22.2696 2.31918 22.3721 2.31359 22.4746 2.3066C22.649 2.29543 22.7542 2.49661 22.6462 2.63631C22.6227 2.66705 22.5992 2.69639 22.5756 2.72712C21.72 3.80287 21.5276 3.86854 21.0402 4.03339C20.6816 4.15494 20.5778 4.26391 20.5182 4.35332C20.503 4.37009 20.4906 4.38825 20.4795 4.40781C20.4739 4.41899 20.4684 4.42877 20.4629 4.43994C20.3133 4.78223 20.7204 5.36062 21.4002 5.75599C22.1007 6.16394 22.8262 6.22262 23.0187 5.88592C23.0422 5.84541 23.056 5.8021 23.0616 5.75459C23.0824 5.60371 23.074 5.44584 23.045 5.29635C22.9951 5.04208 22.9564 4.77664 22.9951 4.51818C23.0339 4.25972 23.1474 4.03758 23.2568 3.81545C23.5517 3.2161 23.9491 2.66705 24.3658 2.14734C24.5569 1.90843 24.7562 1.67652 24.9597 1.4474L24.957 1.45299Z"></path>
<path fill="white" d="M15.7387 20.2353C15.574 21.142 15.4785 22.0711 15.5851 22.9862C15.6128 23.2181 15.6529 23.45 15.7512 23.6624C15.8177 23.8091 15.9533 23.9599 16.1084 23.9222C16.2565 23.8859 16.3105 23.7043 16.3285 23.5506C16.4116 22.8521 16.3147 22.1326 16.2801 21.434C16.2455 20.7299 16.2953 20.0216 16.4324 19.33C16.4711 19.1288 16.5182 18.9305 16.5722 18.7335C16.6207 18.556 16.6747 18.3772 16.6719 18.1928C16.6719 18.1411 16.6636 18.0852 16.6276 18.0489C16.4628 17.8841 16.1804 18.6483 16.1375 18.753C15.945 19.228 15.8301 19.7324 15.7387 20.2353Z"></path>
<path fill="white" d="M16.0932 24.8485C16.053 24.9784 16.0752 25.1209 16.1098 25.2522C16.143 25.378 16.1915 25.5079 16.2912 25.5917C16.3908 25.6756 16.5528 25.6937 16.6442 25.6015C16.6733 25.5722 16.6927 25.5345 16.7079 25.4953C16.7716 25.3417 16.7771 25.1642 16.7273 25.0064C16.6331 24.7144 16.2344 24.3875 16.0932 24.8485Z"></path>
<path fill="#00452B" d="M23.3356 13.4469C23.2843 13.4916 23.258 13.5643 23.2691 13.6313C23.2746 13.6648 23.2913 13.6984 23.3217 13.7137C23.3688 13.7361 23.4242 13.7026 23.4574 13.6607C23.4975 13.609 23.546 13.5056 23.51 13.4413C23.474 13.3771 23.384 13.4064 23.3369 13.4483L23.3356 13.4469Z"></path>
<path fill="#00452B" d="M23.7772 14.1538C23.762 14.1971 23.7634 14.2502 23.7924 14.2866C23.8257 14.3271 23.8907 14.3354 23.9378 14.3103C24.0195 14.2684 24.0721 14.1175 23.9932 14.0477C23.9143 13.9778 23.8049 14.0728 23.7772 14.1538Z"></path>
<path fill="#00452B" d="M23.9683 13.3812C24.0694 13.5042 24.2092 13.3156 24.1289 13.201C24.0278 13.0571 23.8907 13.2876 23.9683 13.3812Z"></path>
<path fill="#00452B" d="M3.86137 21.8783C3.8143 21.923 3.7963 21.99 3.79215 22.0557C3.78938 22.1004 3.79215 22.1479 3.8143 22.187C3.83645 22.2262 3.87799 22.2569 3.92229 22.2541C3.9749 22.2499 4.01505 22.2024 4.0372 22.1535C4.06905 22.0823 4.09397 21.9565 4.05243 21.8839C4.01367 21.8154 3.91121 21.8308 3.86137 21.8783Z"></path>
<path fill="#00452B" d="M4.17556 22.3449C4.17279 22.3798 4.17556 22.4176 4.19909 22.4441C4.22817 22.4762 4.28217 22.4748 4.31539 22.4483C4.3777 22.3994 4.38047 22.2764 4.31816 22.2262C4.23509 22.1577 4.17971 22.2751 4.17556 22.3449Z"></path>
<path fill="#00452B" d="M3.84327 22.7836C3.80589 22.8199 3.79066 22.873 3.78928 22.9247C3.78928 22.9512 3.79204 22.9778 3.80312 23.0015C3.8142 23.0253 3.83496 23.0462 3.85989 23.0518C3.89311 23.0602 3.92911 23.0434 3.95542 23.0197C4.01218 22.968 4.04126 22.873 4.01357 22.8004C3.98588 22.7277 3.8945 22.7361 3.84466 22.7836L3.84327 22.7836Z"></path>
<path fill="#62BB46" d="M24.9873 1.40991C25.0974 1.21746 24.9188 0.905393 24.5883 0.712882C24.2579 0.520372 23.9008 0.520319 23.7906 0.712765C23.6805 0.90521 23.8592 1.21728 24.1896 1.40979C24.52 1.6023 24.8772 1.60235 24.9873 1.40991Z"></path>
<path fill="white" d="M11.6988 24.3958C9.13607 24.7535 8.92424 25.0441 8.66257 28.5522C8.4009 25.0455 8.18907 24.7549 5.62634 24.3958C8.18907 24.0382 8.4009 23.7476 8.66257 20.2395C8.92424 23.7462 9.13607 24.0368 11.6988 24.3958Z"></path>
</svg>
