<svg viewBox="0 0 32 32" xmlns="http://www.w3.org/2000/svg" data-name="Layer 2" id="Layer_2">
  <defs>
    <style>
      .cls-1 {
        fill: none;
        stroke-width: 2px;
      }

      .cls-1, .cls-2 {
        stroke: #004600;
        stroke-miterlimit: 10;
      }

      .cls-2 {
        stroke-width: .5px;
      }

      .cls-2, .cls-3 {
        fill: #004600;
      }
    </style>
  </defs>
  <g data-name="Layer 1" id="Layer_1-2">
    <path d="M23.39,17.48c-.27-.54-.84-1.72-1.57-1.51-.11.03-.34.25-.36.08-.02-.16.05-.59.04-.82-.08-.99-.58-2.16-1.17-2.95-.35-.48-.81-.52-1.31-.24.19-.87-.04-1.69-.36-2.48-.04-.03-.07-.07-.1-.12-.29-.62-.66-1.55-1.37-1.78-.82.43-1.68.86-2.36,1.5-.36-1.52-1.53-2.79-3-3.3-.25-.09-1.88-.52-2.03-.48-.08.02-.15.04-.22.09-.32.21-.64,1.57-.71,1.98-.29,1.69.22,3.16,1.39,4.41-.68.25-1.55.65-2.12,1.09-.41.31-.41.74-.2,1.17.37.8,1.07,1.72,1.77,2.24.32.23.68.38,1,.61-1.28.78.45,2.47,1.06,3.21l1.36.9c-.93.52-.3,1.25,0,1.93.01.01.02.03.03.05.32.52.73.95,1.18,1.35.06-.03.04.03.09.06,1.12.8,3.2,1.44,4.49.68l1.04-.61c.08,0,.12.04.17.09.37.43.89,1.81,1.29,2.04.34.2.88-.05.99-.42.02-.05.02-.37,0-.39l-1.21-2.06c.33-.23.76-.4,1.07-.63,1.73-1.3,2.05-3.84,1.13-5.69ZM19.36,13.42l.6,1.01c.54.92-.12,3.07-1.03,3.61l-.84.49-.6-1.01c-.07-.11-.16-.8-.17-.98-.06-1.38.83-2.54,2.04-3.13ZM16.94,9.31l.63,1.07c.5.85-.16,3.02-1.01,3.52l-.9.53-.6-1.01c-.07-.11-.16-.8-.17-.98-.06-1.36.84-2.55,2.04-3.13ZM10.43,6.91c2.38.24,3.77,2.61,2.9,4.83-2.44-.16-3.83-2.61-2.9-4.83ZM9.92,14.73l-.56-.96c1.05-.71,2.29-.96,3.47-.41.21.1.89.54.99.71l.63,1.07-.84.49c-.95.56-3.13.05-3.69-.91ZM12.34,18.84l-.56-.96c1.03-.73,2.3-.96,3.47-.41.21.1.89.54.99.71l.63,1.07-.84.49c-.94.55-3.13.05-3.69-.91ZM18.45,23.86c-.94.55-3.13.04-3.69-.91l-.56-.96c1.19-.86,2.83-1.01,4.02-.08.08.06.42.33.44.38l.63,1.07-.84.49ZM21.34,22.15l-.84.49-.6-1.01c-.07-.11-.16-.8-.17-.98-.06-1.38.82-2.55,2.04-3.13l.6,1.01c.54.92-.12,3.07-1.03,3.61Z" class="cls-2"></path>
    <g>
      <path d="M16,2c7.72,0,14,6.28,14,14s-6.28,14-14,14S2,23.72,2,16,8.28,2,16,2M16,0C7.16,0,0,7.16,0,16s7.16,16,16,16,16-7.16,16-16S24.84,0,16,0h0Z" class="cls-3"></path>
      <line y2="4.64" x2="26.73" y1="26.09" x1="4.17" class="cls-1"></line>
    </g>
  </g>
</svg>