<svg xmlns="http://www.w3.org/2000/svg" fill="none" viewBox="0 0 24 24" height="24" width="24">
<path fill="#004600" d="M16.293 7.62601C16.0408 7.55273 15.7698 7.58164 15.5387 7.7065C15.3076 7.83135 15.1349 8.04213 15.0579 8.29327C14.9809 8.54442 15.0059 8.81577 15.1273 9.04868C15.2488 9.28159 15.457 9.45736 15.707 9.53801C18.923 10.522 21 12.666 21 15C21 18.309 16.963 21 12 21C7.037 21 3 18.309 3 15C3.05066 14.1467 3.3113 13.3191 3.75877 12.5907C4.20625 11.8624 4.8267 11.2559 5.565 10.825C5.67831 10.753 5.77596 10.6588 5.85211 10.5482C5.92826 10.4376 5.98135 10.3128 6.00823 10.1813C6.0351 10.0497 6.03521 9.91409 6.00853 9.78248C5.98186 9.65088 5.92895 9.526 5.85297 9.41528C5.77699 9.30457 5.67949 9.21029 5.56628 9.13808C5.45308 9.06586 5.32649 9.01718 5.19406 8.99494C5.06164 8.9727 4.92609 8.97736 4.79551 9.00865C4.66492 9.03993 4.54198 9.09719 4.434 9.17701C3.42348 9.78656 2.58051 10.638 1.98103 11.6545C1.38155 12.671 1.04442 13.8207 1 15C1 19.411 5.935 23 12 23C18.065 23 23 19.411 23 15C23 11.768 20.367 8.87301 16.293 7.62601Z"></path>
<path fill="#004600" d="M8 1C7.73478 1 7.48043 1.10536 7.29289 1.29289C7.10536 1.48043 7 1.73478 7 2V15C7 15.2652 7.10536 15.5196 7.29289 15.7071C7.48043 15.8946 7.73478 16 8 16C8.26522 16 8.51957 15.8946 8.70711 15.7071C8.89464 15.5196 9 15.2652 9 15V9.58L14.5 6.439C14.6615 6.34688 14.794 6.21157 14.8829 6.04828C14.9717 5.88498 15.0133 5.70016 15.0029 5.51456C14.9925 5.32896 14.9306 5.14993 14.8241 4.99756C14.7176 4.8452 14.5707 4.72553 14.4 4.652L9 2.341V2C9 1.73478 8.89464 1.48043 8.70711 1.29289C8.51957 1.10536 8.26522 1 8 1ZM11.76 5.7L9 7.276V4.517L11.76 5.7Z"></path>
</svg>
