<svg xmlns="http://www.w3.org/2000/svg" fill="none" viewBox="0 0 64 64" height="64" width="64">
<circle fill="#8BE3C6" r="32" cy="32" cx="32"></circle>
<g clip-path="url(#clip0_8241_13834)">
<path fill="#00A94F" d="M16.833 34.968C16.5128 34.2708 16.229 33.5559 16.0087 32.8195C15.8263 32.2074 15.6709 31.575 15.6331 30.9359C15.629 30.8656 15.6263 30.794 15.6453 30.7264C15.6547 30.6913 15.6804 30.6521 15.7169 30.6535C15.7385 30.6535 15.7561 30.6697 15.7723 30.6845C15.8493 30.7575 15.9182 30.8399 15.9777 30.9278C15.9385 30.5683 15.9047 30.2265 15.8642 29.867C15.8412 29.6562 15.8182 29.4455 15.7993 29.2347C15.775 28.9428 15.7588 28.6509 15.7547 28.3577C15.752 28.201 15.752 28.0429 15.779 27.8875C15.7871 27.8361 15.7993 27.7834 15.8317 27.7429C15.8642 27.7023 15.9182 27.6753 15.9682 27.6915C15.9925 27.6996 16.0128 27.7172 16.0317 27.7361C16.079 27.7821 16.1236 27.8307 16.1628 27.8848C16.3209 26.8335 16.1722 25.7782 16.0209 24.7256C16.0142 24.681 16.0087 24.635 16.0169 24.5904C16.025 24.5458 16.0533 24.5026 16.0966 24.4877C16.1601 24.4661 16.2263 24.5121 16.2749 24.558C16.3303 24.6093 16.383 24.6647 16.4317 24.7228C16.4695 24.5134 16.4682 24.304 16.4655 24.0918C16.4641 23.9756 16.4628 23.8594 16.4614 23.7432C16.4587 23.5256 16.456 23.3081 16.4398 23.0919C16.4101 22.7122 16.3385 22.3379 16.2668 21.9636C16.2587 21.9244 16.252 21.8839 16.2587 21.8447C16.2655 21.8055 16.2885 21.7663 16.3249 21.7528C16.3709 21.7352 16.4222 21.7609 16.4574 21.7947C16.4925 21.8285 16.5182 21.8717 16.5533 21.9055C16.5506 21.288 16.4303 20.6813 16.2628 20.0867C16.2371 19.9948 16.2101 19.9043 16.1777 19.8151C16.129 19.68 16.0669 19.5476 16.0358 19.407C16.025 19.3571 16.0196 19.2989 16.0506 19.2584C16.0804 19.2192 16.1344 19.2071 16.1831 19.2165C16.2317 19.226 16.2736 19.2517 16.3155 19.2773C16.2358 18.8436 16.1263 18.4112 15.9425 18.0112C15.7588 17.6112 15.5007 17.2396 15.1615 16.9586C15.0899 16.8991 15.0142 16.8437 14.944 16.7816C14.9048 16.7478 14.8669 16.71 14.8467 16.6613C14.8264 16.6127 14.8291 16.5519 14.8642 16.5154C14.9142 16.4627 15.0034 16.4762 15.0696 16.4465C14.8751 16.2289 14.6129 16.0668 14.3575 15.9249C14.1805 15.8249 13.9994 15.7303 13.8197 15.6344C13.7387 15.5911 13.6576 15.5479 13.5725 15.5128C13.386 15.4357 13.1846 15.3993 13.0009 15.3141C12.9833 15.306 12.9657 15.2979 12.9536 15.283C12.8806 15.206 12.9684 15.1114 13.0333 15.075C13.1306 15.0182 13.24 14.9871 13.3481 14.9587C14.0305 14.7763 14.7291 14.6642 15.4277 14.5547C15.3737 14.5291 15.3129 14.4912 15.2737 14.4453C15.3156 14.398 15.3858 14.3926 15.448 14.3912C16.202 14.3723 16.96 14.4764 17.6802 14.698C17.6397 14.6655 17.6127 14.6372 17.5816 14.5953C17.5762 14.5885 17.5721 14.5817 17.5721 14.5736C17.5721 14.5601 17.5857 14.552 17.5992 14.548C17.6559 14.5277 17.7194 14.5412 17.7775 14.5561C18.1018 14.6399 18.4207 14.7452 18.7329 14.8669C19.0328 14.9844 19.3477 15.1047 19.6233 15.2736C19.6058 15.2358 19.572 15.1371 19.5977 15.0966C19.6247 15.0547 19.6949 15.0723 19.7328 15.0858C20.2165 15.2655 20.6597 15.5344 21.1002 15.8019C21.2151 15.8708 21.3286 15.9411 21.4394 16.0181C21.4151 15.9722 21.4056 15.9316 21.4056 15.8789C21.4056 15.8519 21.4137 15.8181 21.4394 15.8087C21.4516 15.8046 21.4637 15.8046 21.4759 15.8073C21.5556 15.8208 21.6232 15.8722 21.6867 15.9208C22.1704 16.2978 22.6569 16.6762 23.0906 17.1113C23.0825 17.0572 23.0785 17.0018 23.0879 16.9478C23.0906 16.9329 23.0947 16.9167 23.1055 16.9059C23.1298 16.8856 23.1663 16.9059 23.1906 16.9248C23.6203 17.2653 23.9919 17.6734 24.3621 18.0788C24.4743 18.1869 24.5729 18.3098 24.677 18.4247C24.7743 18.5314 24.8743 18.6395 24.9756 18.7409C24.9756 18.7017 24.9986 18.6395 25.0162 18.6058C25.031 18.5774 25.058 18.5531 25.0891 18.5504C25.1324 18.5463 25.1688 18.5828 25.1972 18.6152C25.6972 19.1841 26.0999 19.8178 26.4579 20.4826C26.5512 20.6556 26.6417 20.8313 26.7282 21.0083C26.7444 20.9475 26.7809 20.9002 26.8214 20.8502C26.8336 20.834 26.8484 20.8191 26.8674 20.8137C26.9092 20.8002 26.9498 20.8353 26.9782 20.8691C27.0822 20.9961 27.1552 21.1461 27.2227 21.2961C27.2295 21.311 27.2362 21.3245 27.2417 21.3393C27.4011 21.6961 27.5376 22.0622 27.6632 22.4311C27.7268 22.6163 27.7862 22.8027 27.8443 22.9892C27.9024 23.1757 27.9538 23.3635 28.0092 23.5513C28.0348 23.4324 28.07 23.2919 28.1591 23.2054C28.1646 23.2 28.17 23.1946 28.1767 23.1919C28.1983 23.1811 28.2254 23.1905 28.2443 23.2054C28.2943 23.2459 28.3172 23.3486 28.3389 23.4081C28.3699 23.4905 28.3956 23.5756 28.4186 23.6608C28.4632 23.8283 28.497 23.9986 28.5294 24.1688C28.5834 24.4499 28.6375 24.7323 28.674 25.0161C28.7334 25.4768 28.7496 25.9444 28.7199 26.4092C28.6024 28.2645 27.2038 29.7981 26.1755 31.3467C25.3931 32.5249 24.5797 33.6857 23.6487 34.7504C22.9204 35.5842 22.0718 36.3868 21.0002 36.6638C20.2449 36.8597 19.449 36.7746 18.6788 36.6516C18.3937 36.6057 18.1005 36.5517 17.8654 36.3841C17.6424 36.2247 17.4965 35.9814 17.3573 35.745C17.2073 35.4896 16.9587 35.2369 16.8344 34.968H16.833Z"></path>
<mask height="23" width="17" y="14" x="12" maskUnits="userSpaceOnUse" style="mask-type:luminance" id="mask0_8241_13834">
<path fill="white" d="M16.833 34.968C16.5128 34.2708 16.229 33.5559 16.0087 32.8195C15.8263 32.2074 15.6709 31.575 15.6331 30.9359C15.629 30.8656 15.6263 30.794 15.6453 30.7264C15.6547 30.6913 15.6804 30.6521 15.7169 30.6535C15.7385 30.6535 15.7561 30.6697 15.7723 30.6845C15.8493 30.7575 15.9182 30.8399 15.9777 30.9278C15.9385 30.5683 15.9047 30.2265 15.8642 29.867C15.8412 29.6562 15.8182 29.4455 15.7993 29.2347C15.775 28.9428 15.7588 28.6509 15.7547 28.3577C15.752 28.201 15.752 28.0429 15.779 27.8875C15.7871 27.8361 15.7993 27.7834 15.8317 27.7429C15.8642 27.7023 15.9182 27.6753 15.9682 27.6915C15.9925 27.6996 16.0128 27.7172 16.0317 27.7361C16.079 27.7821 16.1236 27.8307 16.1628 27.8848C16.3209 26.8335 16.1722 25.7782 16.0209 24.7256C16.0142 24.681 16.0087 24.635 16.0169 24.5904C16.025 24.5458 16.0533 24.5026 16.0966 24.4877C16.1601 24.4661 16.2263 24.5121 16.2749 24.558C16.3303 24.6093 16.383 24.6647 16.4317 24.7228C16.4695 24.5134 16.4682 24.304 16.4655 24.0918C16.4641 23.9756 16.4628 23.8594 16.4614 23.7432C16.4587 23.5256 16.456 23.3081 16.4398 23.0919C16.4101 22.7122 16.3385 22.3379 16.2668 21.9636C16.2587 21.9244 16.252 21.8839 16.2587 21.8447C16.2655 21.8055 16.2885 21.7663 16.3249 21.7528C16.3709 21.7352 16.4222 21.7609 16.4574 21.7947C16.4925 21.8285 16.5182 21.8717 16.5533 21.9055C16.5506 21.288 16.4303 20.6813 16.2628 20.0867C16.2371 19.9948 16.2101 19.9043 16.1777 19.8151C16.129 19.68 16.0669 19.5476 16.0358 19.407C16.025 19.3571 16.0196 19.2989 16.0506 19.2584C16.0804 19.2192 16.1344 19.2071 16.1831 19.2165C16.2317 19.226 16.2736 19.2517 16.3155 19.2773C16.2358 18.8436 16.1263 18.4112 15.9425 18.0112C15.7588 17.6112 15.5007 17.2396 15.1615 16.9586C15.0899 16.8991 15.0142 16.8437 14.944 16.7816C14.9048 16.7478 14.8669 16.71 14.8467 16.6613C14.8264 16.6127 14.8291 16.5519 14.8642 16.5154C14.9142 16.4627 15.0034 16.4762 15.0696 16.4465C14.8751 16.2289 14.6129 16.0668 14.3575 15.9249C14.1805 15.8249 13.9994 15.7303 13.8197 15.6344C13.7387 15.5911 13.6576 15.5479 13.5725 15.5128C13.386 15.4357 13.1846 15.3993 13.0009 15.3141C12.9833 15.306 12.9657 15.2979 12.9536 15.283C12.8806 15.206 12.9684 15.1114 13.0333 15.075C13.1306 15.0182 13.24 14.9871 13.3481 14.9587C14.0305 14.7763 14.7291 14.6642 15.4277 14.5547C15.3737 14.5291 15.3129 14.4912 15.2737 14.4453C15.3156 14.398 15.3858 14.3926 15.448 14.3912C16.202 14.3723 16.96 14.4764 17.6802 14.698C17.6397 14.6655 17.6127 14.6372 17.5816 14.5953C17.5762 14.5885 17.5721 14.5817 17.5721 14.5736C17.5721 14.5601 17.5857 14.552 17.5992 14.548C17.6559 14.5277 17.7194 14.5412 17.7775 14.5561C18.1018 14.6399 18.4207 14.7452 18.7329 14.8669C19.0328 14.9844 19.3477 15.1047 19.6233 15.2736C19.6058 15.2358 19.572 15.1371 19.5977 15.0966C19.6247 15.0547 19.6949 15.0723 19.7328 15.0858C20.2165 15.2655 20.6597 15.5344 21.1002 15.8019C21.2151 15.8708 21.3286 15.9411 21.4394 16.0181C21.4151 15.9722 21.4056 15.9316 21.4056 15.8789C21.4056 15.8519 21.4137 15.8181 21.4394 15.8087C21.4516 15.8046 21.4637 15.8046 21.4759 15.8073C21.5556 15.8208 21.6232 15.8722 21.6867 15.9208C22.1704 16.2978 22.6569 16.6762 23.0906 17.1113C23.0825 17.0572 23.0785 17.0018 23.0879 16.9478C23.0906 16.9329 23.0947 16.9167 23.1055 16.9059C23.1298 16.8856 23.1663 16.9059 23.1906 16.9248C23.6203 17.2653 23.9919 17.6734 24.3621 18.0788C24.4743 18.1869 24.5729 18.3098 24.677 18.4247C24.7743 18.5314 24.8743 18.6395 24.9756 18.7409C24.9756 18.7017 24.9986 18.6395 25.0162 18.6058C25.031 18.5774 25.058 18.5531 25.0891 18.5504C25.1324 18.5463 25.1688 18.5828 25.1972 18.6152C25.6972 19.1841 26.0999 19.8178 26.4579 20.4826C26.5512 20.6556 26.6417 20.8313 26.7282 21.0083C26.7444 20.9475 26.7809 20.9002 26.8214 20.8502C26.8336 20.834 26.8484 20.8191 26.8674 20.8137C26.9092 20.8002 26.9498 20.8353 26.9782 20.8691C27.0822 20.9961 27.1552 21.1461 27.2227 21.2961C27.2295 21.311 27.2362 21.3245 27.2417 21.3393C27.4011 21.6961 27.5376 22.0622 27.6632 22.4311C27.7268 22.6163 27.7862 22.8027 27.8443 22.9892C27.9024 23.1757 27.9538 23.3635 28.0092 23.5513C28.0348 23.4324 28.07 23.2919 28.1591 23.2054C28.1646 23.2 28.17 23.1946 28.1767 23.1919C28.1983 23.1811 28.2254 23.1905 28.2443 23.2054C28.2943 23.2459 28.3172 23.3486 28.3389 23.4081C28.3699 23.4905 28.3956 23.5756 28.4186 23.6608C28.4632 23.8283 28.497 23.9986 28.5294 24.1688C28.5834 24.4499 28.6375 24.7323 28.674 25.0161C28.7334 25.4768 28.7496 25.9444 28.7199 26.4092C28.6024 28.2645 27.2038 29.7981 26.1755 31.3467C25.3931 32.5249 24.5797 33.6857 23.6487 34.7504C22.9204 35.5842 22.0718 36.3868 21.0002 36.6638C20.2449 36.8597 19.449 36.7746 18.6788 36.6516C18.3937 36.6057 18.1005 36.5517 17.8654 36.3841C17.6424 36.2247 17.4965 35.9814 17.3573 35.745C17.2073 35.4896 16.9587 35.2369 16.8344 34.968H16.833Z"></path>
</mask>
<g mask="url(#mask0_8241_13834)">
<path fill="#00452B" d="M22.0176 32.1979C22.4244 31.1953 22.9973 30.2602 23.7054 29.4441C23.731 29.4143 23.7594 29.3833 23.7959 29.3684C23.854 29.3441 23.9148 29.3724 23.9121 29.4387C23.9094 29.4981 23.8999 29.5576 23.8837 29.6157C23.9351 29.5535 23.9715 29.4765 24.0148 29.4076C24.0594 29.3373 24.1053 29.267 24.1526 29.1968C24.308 28.9657 24.4729 28.7401 24.6458 28.5198C24.8188 28.2996 24.9958 28.0861 25.1782 27.8766C25.2606 27.782 25.3458 27.6861 25.4512 27.6172C25.489 27.5929 25.539 27.5712 25.5768 27.5956C25.6012 27.6118 25.612 27.6429 25.6187 27.6712C25.639 27.7523 25.6484 27.8361 25.6444 27.9199C26.0998 27.2604 26.6038 26.6605 27.1672 26.0916C27.2551 26.0038 27.3443 25.916 27.4483 25.8497C27.4726 25.8349 27.5024 25.82 27.5294 25.8281C27.5618 25.8376 27.5767 25.8727 27.5875 25.9051C27.6172 26.0065 27.6253 26.1132 27.6091 26.2173C27.9834 25.7943 28.3482 25.3903 28.7239 24.9674C28.8631 24.8106 29.0022 24.6525 29.1495 24.5026C29.2401 24.4107 29.3333 24.3215 29.4306 24.2377C29.4752 24.1999 29.5279 24.162 29.586 24.1715C29.6427 24.1823 29.6806 24.2377 29.6954 24.2945C29.7103 24.3512 29.7089 24.4093 29.7238 24.4661C29.8319 24.4026 29.917 24.335 30.0035 24.2431C30.39 23.8377 30.7508 23.408 31.0818 22.9554C31.1723 22.8324 31.2602 22.7081 31.3602 22.5946C31.3966 22.5541 31.4412 22.5122 31.4953 22.5108C31.5507 22.5108 31.5993 22.5568 31.6196 22.6081C31.6399 22.6595 31.6372 22.7176 31.6345 22.7743C32.1398 22.1919 32.5857 21.5866 33.0006 20.9366C33.0465 20.8637 33.1208 20.7799 33.2019 20.8096C33.2722 20.8353 33.287 20.9258 33.2897 20.9988C33.6424 20.615 33.9127 20.161 34.1221 19.6854C34.1775 19.5597 34.2262 19.4313 34.2762 19.303C34.3234 19.1814 34.3653 19.0449 34.437 18.9368C34.4991 18.8435 34.6018 18.8489 34.645 18.957C34.6667 19.0097 34.6694 19.0692 34.691 19.1205C35.1004 18.3314 35.4261 17.4977 35.649 16.637C35.699 16.4437 35.7341 16.2464 35.7463 16.0465C35.7585 15.8438 35.7355 15.6438 35.7274 15.4425C35.7247 15.3898 35.7274 15.3262 35.772 15.2965C35.8233 15.2627 35.8895 15.2965 35.9395 15.333C36.7179 15.8789 37.3665 16.5964 37.884 17.3937C37.9191 17.3491 37.9259 17.2761 37.9799 17.2599C38.0299 17.245 38.0759 17.2896 38.1069 17.3301C38.1799 17.4261 38.2434 17.5288 38.3002 17.6342C38.4083 17.8342 38.4947 18.0436 38.5799 18.2544C38.7542 18.6841 38.9231 19.1165 39.0852 19.5516C39.1325 19.5043 39.192 19.4597 39.2541 19.4854C39.2812 19.4962 39.3014 19.5205 39.3177 19.5435C39.3649 19.611 39.3947 19.6894 39.4203 19.7678C39.4825 19.9556 39.523 20.1502 39.5622 20.3434C39.6555 20.7988 39.7433 21.2555 39.8176 21.7136C39.846 21.6717 39.8838 21.6231 39.9244 21.5906C39.9487 21.5704 39.9811 21.5514 40.0108 21.5609C40.0419 21.5704 40.0581 21.6041 40.0689 21.6339C40.1284 21.7947 40.1527 21.9663 40.173 22.1365C40.2419 22.7081 40.2649 23.3526 40.2554 23.9296C40.2838 23.8864 40.3216 23.854 40.3568 23.8175C40.3676 23.8067 40.3797 23.7959 40.3946 23.7918C40.4189 23.785 40.4446 23.7972 40.4608 23.8175C40.477 23.8377 40.4838 23.8621 40.4905 23.8864C40.5459 24.0985 40.5459 24.3215 40.5392 24.5417C40.5392 24.5539 40.5392 24.5647 40.5392 24.5769C40.5189 25.1512 40.4608 25.7403 40.3351 26.3011C40.3635 26.2713 40.3919 26.2416 40.423 26.2146C40.4378 26.2024 40.4513 26.1889 40.4689 26.1808C40.4865 26.1727 40.5067 26.17 40.5243 26.1781C40.5554 26.193 40.5635 26.2322 40.5676 26.2659C40.5811 26.424 40.554 26.5875 40.5311 26.7429C40.4432 27.3267 40.3378 27.9117 40.1906 28.4833C40.173 28.5509 40.1554 28.6185 40.1379 28.6874C40.1879 28.632 40.2514 28.5874 40.3203 28.5603C40.3378 28.5536 40.3581 28.5468 40.377 28.5536C40.4135 28.5658 40.4203 28.6117 40.4189 28.6495C40.4135 28.7874 40.373 28.9211 40.3311 29.0522C40.1595 29.6022 39.9744 30.1467 39.7784 30.6886C39.7365 30.8034 39.6933 30.9196 39.646 31.0318C39.6055 31.1277 39.5609 31.2209 39.5122 31.3128C39.4879 31.3588 39.4839 31.3817 39.4636 31.4304C39.5257 31.3669 39.596 31.3169 39.673 31.2736C39.719 31.248 39.7676 31.225 39.819 31.2237C39.8433 31.2237 39.869 31.2264 39.8892 31.2426C39.9217 31.2682 39.9244 31.3155 39.9217 31.3574C39.9122 31.4953 39.869 31.6277 39.8176 31.756C39.7663 31.8858 39.7122 32.0128 39.646 32.1371C39.6392 32.1506 39.6311 32.1655 39.623 32.179C39.5217 32.3682 39.4136 32.5546 39.3068 32.7411C39.2339 32.8681 39.1609 32.9938 39.0879 33.1208C38.6339 33.9059 38.2326 34.6801 37.6435 35.3693C36.7138 36.4543 35.3855 37.1394 34.0073 37.5124C32.629 37.8853 31.1899 37.9704 29.7616 38.0204C28.1537 38.0772 26.443 38.0677 25.0796 37.2124C24.5148 36.857 24.0405 36.3733 23.6216 35.853C22.7743 34.8018 21.5096 33.4465 22.0163 32.1952L22.0176 32.1979Z"></path>
</g>
<path fill="#00452B" d="M15.244 15.4668C16.5641 15.9681 17.7424 16.7897 18.791 17.7234C20.5368 19.3003 21.8583 21.3137 22.7393 23.4865C22.9731 24.0445 23.1758 24.6526 23.3555 25.2296C23.4636 25.5971 23.5447 25.9822 23.6204 26.3565C24.1338 29.0766 24.0987 31.8912 23.5623 34.6072C23.5244 34.8058 23.3325 34.9356 23.1339 34.8977C22.9299 34.8585 22.7988 34.6559 22.8474 34.4532C23.4731 31.6156 23.546 28.6347 22.9596 25.7822C22.9218 25.6228 22.8853 25.4471 22.8366 25.2917C22.4353 23.8608 21.8705 22.4676 21.1219 21.1826C20.78 20.5975 20.3855 20.0097 19.9652 19.4787C18.7626 17.9531 17.2506 16.6343 15.4859 15.8019C15.3818 15.7533 15.2737 15.7073 15.1697 15.6695C15.1143 15.6479 15.0859 15.5857 15.1062 15.5303C15.1264 15.4749 15.1872 15.4479 15.2426 15.4668H15.244Z"></path>
<path fill="#00A94F" d="M23.1204 32.048C23.5272 31.0454 24.1001 30.1103 24.8081 29.2942C24.8338 29.2644 24.8622 29.2334 24.8987 29.2185C24.9568 29.1942 25.0176 29.2225 25.0149 29.2888C25.0122 29.3482 25.0027 29.4077 24.9865 29.4658C25.0378 29.4036 25.0743 29.3266 25.1176 29.2577C25.1622 29.1874 25.2081 29.1171 25.2554 29.0469C25.4108 28.8158 25.5756 28.5902 25.7486 28.3699C25.9202 28.151 26.0986 27.9362 26.281 27.7267C26.3634 27.6321 26.4485 27.5362 26.5539 27.4673C26.5918 27.443 26.6418 27.4213 26.6796 27.4457C26.7039 27.4619 26.7147 27.4929 26.7215 27.5213C26.7418 27.6024 26.7512 27.6862 26.7472 27.77C27.2025 27.1105 27.7066 26.5106 28.27 25.9417C28.3579 25.8539 28.447 25.7661 28.5511 25.6998C28.5754 25.685 28.6051 25.6701 28.6322 25.6782C28.6646 25.6877 28.6795 25.7228 28.6903 25.7552C28.72 25.8566 28.7281 25.9633 28.7119 26.0674C29.0862 25.6444 29.451 25.2404 29.8267 24.8175C29.9658 24.6607 30.105 24.5026 30.2523 24.3527C30.3428 24.2608 30.4361 24.1716 30.5334 24.0878C30.578 24.05 30.6307 24.0121 30.6888 24.0216C30.7455 24.0324 30.7833 24.0878 30.7982 24.1446C30.8131 24.2013 30.8117 24.2594 30.8266 24.3162C30.9347 24.2527 31.0198 24.1851 31.1063 24.0932C31.4928 23.6878 31.8535 23.2581 32.1846 22.8055C32.2751 22.6825 32.363 22.5582 32.4629 22.4447C32.4994 22.4042 32.544 22.3623 32.5981 22.3609C32.6535 22.3609 32.7021 22.4069 32.7224 22.4582C32.7427 22.5109 32.74 22.5677 32.7372 22.6244C33.2426 22.042 33.6885 21.4367 34.1034 20.7867C34.1493 20.7137 34.2236 20.63 34.3047 20.6597C34.375 20.6854 34.3898 20.7759 34.3925 20.8489C34.7452 20.4651 35.0155 20.0111 35.2249 19.5355C35.2803 19.4098 35.3289 19.2814 35.3789 19.1531C35.4262 19.0314 35.4681 18.895 35.5397 18.7869C35.6019 18.6936 35.7046 18.699 35.7478 18.8071C35.7694 18.8598 35.7721 18.9193 35.7938 18.9706C36.2032 18.1815 36.5288 17.3478 36.7518 16.4871C36.8018 16.2938 36.8369 16.0965 36.8491 15.8966C36.8613 15.6966 36.8383 15.4939 36.8302 15.2926C36.8275 15.2399 36.8302 15.1763 36.8748 15.1466C36.9261 15.1128 36.9923 15.1466 37.0423 15.1831C37.8206 15.729 38.4692 16.4465 38.9868 17.2437C39.0219 17.1992 39.0287 17.1262 39.0827 17.11C39.1327 17.0951 39.1786 17.1397 39.2097 17.1802C39.2827 17.2762 39.3462 17.3789 39.4029 17.4843C39.511 17.6843 39.5975 17.8937 39.6827 18.1045C39.857 18.5342 40.0259 18.9666 40.188 19.4017C40.2353 19.3544 40.2948 19.3098 40.3569 19.3355C40.384 19.3463 40.4042 19.3706 40.4204 19.3936C40.4677 19.4611 40.4975 19.5395 40.5231 19.6179C40.5853 19.8057 40.6258 20.0003 40.665 20.1935C40.7582 20.6489 40.8461 21.1056 40.9204 21.5637C40.9488 21.5218 40.9866 21.4731 41.0271 21.4407C41.0515 21.4205 41.0839 21.4015 41.1136 21.411C41.1447 21.4204 41.1609 21.4542 41.1717 21.484C41.2312 21.6448 41.2555 21.8164 41.2758 21.9866C41.3447 22.5582 41.3677 23.2027 41.3582 23.7797C41.3866 23.7365 41.4244 23.7041 41.4595 23.6676C41.4704 23.6568 41.4825 23.646 41.4974 23.6419C41.5217 23.6351 41.5474 23.6473 41.5636 23.6676C41.5798 23.6878 41.5866 23.7122 41.5933 23.7365C41.6487 23.9486 41.6487 24.1716 41.642 24.3918C41.642 24.404 41.642 24.4148 41.642 24.427C41.6217 25.0013 41.5636 25.5904 41.4379 26.1512C41.4663 26.1214 41.4947 26.0917 41.5258 26.0647C41.5406 26.0525 41.5541 26.039 41.5717 26.0309C41.5893 26.0228 41.6095 26.0201 41.6271 26.0282C41.6582 26.0431 41.6663 26.0822 41.6703 26.116C41.6839 26.2741 41.6568 26.4376 41.6339 26.593C41.546 27.1768 41.4406 27.7618 41.2933 28.3334C41.2758 28.401 41.2582 28.4685 41.2406 28.5375C41.2906 28.4821 41.3541 28.4375 41.4231 28.4104C41.4406 28.4037 41.4609 28.3969 41.4798 28.4037C41.5163 28.4158 41.5231 28.4618 41.5217 28.4996C41.5163 28.6375 41.4758 28.7712 41.4339 28.9023C41.2623 29.4523 41.0771 29.9968 40.8812 30.5387C40.8393 30.6535 40.7961 30.7697 40.7488 30.8819C40.7083 30.9778 40.6637 31.071 40.615 31.1629C40.5907 31.2089 40.5866 31.2318 40.5664 31.2805C40.6285 31.217 40.6988 31.167 40.7758 31.1237C40.8218 31.0981 40.8704 31.0751 40.9217 31.0737C40.9461 31.0737 40.9717 31.0765 40.992 31.0927C41.0244 31.1183 41.0271 31.1656 41.0244 31.2075C41.015 31.3454 40.9717 31.4778 40.9204 31.6061C40.8691 31.7345 40.815 31.8629 40.7488 31.9872C40.742 32.0007 40.7339 32.0156 40.7258 32.0291C40.6245 32.2183 40.5164 32.4047 40.4096 32.5912C40.3367 32.7182 40.2637 32.8439 40.1907 32.9709C39.7367 33.756 39.3354 34.5302 38.7462 35.2194C37.8166 36.3044 36.4883 36.9895 35.11 37.3624C33.7318 37.7354 32.2927 37.8205 30.8644 37.8705C29.2564 37.9273 27.5458 37.9178 26.1824 37.0625C25.6175 36.7071 25.1432 36.2233 24.7244 35.7031C23.8771 34.6518 22.6124 33.2965 23.1191 32.0453L23.1204 32.048Z"></path>
<path fill="white" d="M23.6865 20.4624C23.7757 20.6178 23.8662 20.7813 24.0122 20.8866C24.1581 20.992 24.3784 21.0177 24.5094 20.8961C24.6743 20.7421 24.6121 20.4691 24.5148 20.2664C24.2446 19.6989 23.8136 19.226 23.3879 18.7611C22.919 18.249 22.4434 17.7328 21.8664 17.3477C21.788 17.295 21.7043 17.245 21.611 17.2315C21.5178 17.218 21.411 17.2518 21.3651 17.3342C21.1935 17.6396 22.0204 18.2504 22.1961 18.4409C22.5596 18.8355 22.8961 19.2557 23.2001 19.6976C23.3717 19.9475 23.5338 20.2029 23.6838 20.4664L23.6865 20.4624Z"></path>
<path fill="#00452B" d="M28.2956 35.399C33.2831 32.3992 36.3612 26.9862 37.4084 21.3393C37.6435 20.0286 37.6584 18.6814 37.4503 17.3639C37.4422 17.3126 37.4773 17.2653 37.5287 17.2572C37.5787 17.2491 37.626 17.2829 37.6354 17.3329C37.7989 18.222 37.8624 19.1287 37.8246 20.034C37.7908 20.938 37.6395 21.8379 37.4341 22.7176C36.2815 28.1104 33.3844 32.9857 28.6888 36.0165C28.5199 36.1273 28.2929 36.08 28.1821 35.9111C28.0686 35.7395 28.1213 35.5071 28.2956 35.399Z"></path>
<path fill="white" d="M24.9891 21.6528C24.9499 21.7123 24.9351 21.7853 24.931 21.8555C24.9175 22.092 25.0067 22.3325 25.1716 22.5028C25.2756 22.6109 25.4377 22.6933 25.5742 22.6298C25.6472 22.596 25.6985 22.5244 25.7215 22.4474C25.7445 22.3704 25.7418 22.2879 25.7283 22.2082C25.6918 21.9947 25.5783 21.7947 25.4121 21.6555C25.2918 21.5542 25.0932 21.4974 24.9891 21.6542V21.6528Z"></path>
<path fill="white" d="M38.353 30.2035C38.1395 30.5724 37.9017 30.9507 37.8733 31.3764C37.8585 31.5872 37.9247 31.8358 38.1193 31.9169C38.2666 31.9777 38.4409 31.9169 38.5571 31.8088C38.6733 31.6993 38.7408 31.5507 38.799 31.402C38.9597 30.9967 39.1138 30.6102 39.3178 30.2251C39.5665 29.7535 39.7435 29.29 39.9678 28.7901C40.1921 28.2901 40.2867 27.9591 40.388 27.3915C40.4353 27.1294 40.4596 26.7592 40.4488 26.4943C40.4407 26.3024 40.484 25.9471 40.2786 25.839C39.8678 25.6228 39.7691 26.7483 39.7056 26.9794C39.5583 27.5118 39.38 28.0347 39.1692 28.5455C38.9341 29.1157 38.6611 29.6711 38.3517 30.2048L38.353 30.2035Z"></path>
<path fill="white" d="M40.3839 24.2229C40.3245 24.2553 40.2839 24.3147 40.2529 24.3755C40.1961 24.489 40.1637 24.6134 40.1596 24.7404C40.1583 24.8039 40.1637 24.8687 40.188 24.9269C40.2137 24.985 40.2596 25.0363 40.3204 25.0552C40.3974 25.0782 40.4839 25.0458 40.542 24.9904C40.6001 24.935 40.638 24.8606 40.6731 24.7877C40.7204 24.689 40.765 24.5836 40.7582 24.4742C40.7474 24.3174 40.538 24.135 40.3826 24.2215L40.3839 24.2229Z"></path>
<path fill="#00452B" d="M50.5856 40.7716C50.4248 40.6987 50.2654 40.623 50.11 40.5392C49.4357 40.1744 48.5398 40.0649 47.7912 39.9501C45.1901 39.5528 42.4227 39.5717 39.8635 40.2203C38.2609 40.6257 36.6583 41.1189 35.2287 41.9675C34.8571 42.1877 34.4963 42.4337 34.2045 42.7498C33.9112 43.066 33.6883 43.4606 33.6342 43.8876C33.5545 44.5092 33.1235 45.6145 33.8139 45.6645C34.118 45.6861 35.1922 45.2388 35.4827 45.1483C35.8624 45.0294 36.2435 44.9132 36.6259 44.7997C38.7609 44.1619 40.9174 43.5917 43.0889 43.0944C43.6294 42.9701 44.1875 42.8498 44.7361 42.9336C45.1793 43.0012 45.5887 43.1985 46.0035 43.3714C46.717 43.7079 47.6804 43.9498 48.7533 44.0241C51.0261 44.1808 52.9233 43.5241 52.9895 42.558C53.0395 41.8324 52.045 41.1392 50.5856 40.7716Z"></path>
<path fill="#00452B" d="M37.276 45.8915C37.276 45.8915 38.9651 46.228 39.2745 47.1685C39.7474 48.6089 33.6087 47.84 33.8709 48.5075C33.8992 48.5792 35.3883 49.098 35.3491 49.8818C35.3113 50.6412 31.9656 50.8222 27.647 50.8222C23.3284 50.8222 20.7773 50.502 20.8246 49.3521C20.8503 48.7346 21.8745 48.2522 22.4082 47.9535C22.9041 47.6752 17.5465 47.7414 16.9924 46.7955C16.1803 45.4064 19.6139 44.9875 19.6139 44.9875L37.276 45.8902V45.8915Z"></path>
<path fill="#FFDB00" d="M19.7179 44.8915C19.7179 44.8915 17.1979 45.3104 17.2546 46.082C17.3465 47.3143 24.1649 46.6387 24.2216 47.2103C24.277 47.7819 21.4813 47.8156 21.5272 48.7115C21.5718 49.6074 24.827 49.7087 28.0092 49.7087C31.1914 49.7087 34.2587 49.6641 34.2708 48.9129C34.2708 48.3859 32.6372 48.4196 32.5696 47.8602C32.5021 47.3008 39.1232 47.7508 38.4867 46.5414C37.7949 45.228 33.9236 45.905 33.5466 45.1213C33.3142 44.6389 34.3627 43.7714 34.3627 43.7714L19.7193 44.8915H19.7179Z"></path>
<path fill="#FFDB00" d="M48.3196 42.1472C50.6047 42.1472 52.4572 40.2948 52.4572 38.0097C52.4572 35.7246 50.6047 33.8722 48.3196 33.8722C46.0346 33.8722 44.1821 35.7246 44.1821 38.0097C44.1821 40.2948 46.0346 42.1472 48.3196 42.1472Z"></path>
<path fill="#00452B" d="M45.5401 40.6068C46.2341 40.6068 46.7968 39.4961 46.7968 38.1259C46.7968 36.7558 46.2341 35.645 45.5401 35.645C44.8461 35.645 44.2834 36.7558 44.2834 38.1259C44.2834 39.4961 44.8461 40.6068 45.5401 40.6068Z"></path>
<path fill="white" d="M46.8846 34.9276C46.8265 34.9708 46.7697 35.0167 46.7305 35.0762C46.6913 35.1356 46.6711 35.2127 46.6913 35.2816C46.7305 35.4113 46.8927 35.4613 47.0278 35.4545C47.2616 35.4424 47.4751 35.3316 47.698 35.26C47.9466 35.1775 48.2101 35.1492 48.4709 35.164C48.5817 35.1708 48.6817 35.1613 48.7898 35.187C48.9236 35.2194 49.056 35.2546 49.1898 35.287C49.2898 35.3127 49.3938 35.3383 49.4965 35.3248C49.5992 35.3127 49.7033 35.2532 49.7397 35.1573C49.7722 35.0694 49.7424 34.9681 49.6843 34.8951C49.6262 34.8222 49.5425 34.7735 49.4587 34.7316C48.8331 34.4262 48.0831 34.3817 47.4318 34.6303C47.2386 34.7046 47.0535 34.8032 46.8873 34.9262L46.8846 34.9276Z"></path>
<path fill="#FFDB00" d="M36.5678 36.4139C36.5678 36.4139 41.3985 36.999 44.8604 35.9464C44.8604 35.9464 46.0576 35.968 46.059 38.153C46.059 40.2934 45.1847 40.5393 45.1847 40.5393C45.1847 40.5393 40.9918 40.2407 36.2827 41.9757L36.5678 36.4139Z"></path>
<path fill="#00452B" d="M37.2571 38.7178C37.3625 39.1096 37.4814 39.5272 37.7882 39.7934C38.0314 40.0055 38.3611 40.0906 38.6813 40.1366C39.3475 40.2312 40.0258 40.1825 40.6988 40.1839C40.7325 40.1839 40.7677 40.1839 40.796 40.2014C40.8244 40.219 40.8433 40.2582 40.8244 40.2866C40.8109 40.3082 40.7825 40.3149 40.7569 40.3203C39.3867 40.5919 38.0179 40.8622 36.6477 41.1338C36.5599 41.1514 36.4545 41.1635 36.395 41.096C36.3477 41.0433 36.3518 40.9622 36.3586 40.8906C36.4194 40.2676 36.4802 39.6447 36.541 39.0218C36.5707 38.7124 36.6018 38.4029 36.6315 38.0948C36.6396 38.0097 36.618 37.7557 36.7126 37.7151C36.8126 37.6719 36.9045 37.8476 36.9463 37.9138C37.1017 38.157 37.1815 38.4408 37.2558 38.7164L37.2571 38.7178Z"></path>
<path fill="white" d="M37.7638 37.3692C37.7219 37.4138 37.734 37.4894 37.7732 37.5367C37.8124 37.584 37.8732 37.6056 37.9313 37.6259C38.5718 37.8435 39.2623 37.8462 39.9379 37.8259C40.7162 37.8029 41.4932 37.7529 42.2675 37.6773C42.4823 37.657 42.7026 37.6313 42.8917 37.5286C43.0133 37.4624 43.1268 37.3435 43.1174 37.2043C43.0998 36.9665 42.808 36.8611 42.608 36.8557C42.4593 36.8517 42.312 36.8827 42.1675 36.9125C41.9864 36.9489 41.804 36.9841 41.6216 37.0152C40.9459 37.1341 40.2636 37.2192 39.5798 37.2719C39.238 37.2989 38.8947 37.3165 38.5515 37.3259C38.3988 37.33 38.2394 37.3462 38.0881 37.3205C37.9881 37.303 37.8448 37.2854 37.7651 37.3705L37.7638 37.3692Z"></path>
<path fill="white" d="M43.8213 36.8841C43.7929 36.9747 43.8213 37.0787 43.8848 37.1503C43.9483 37.2219 44.0416 37.2625 44.1361 37.2746C44.2307 37.2868 44.328 37.2719 44.4199 37.2449C44.478 37.2287 44.5388 37.2057 44.5807 37.1611C44.6321 37.1071 44.6496 37.026 44.6348 36.953C44.6199 36.8801 44.5753 36.8152 44.5172 36.7679C44.4132 36.6814 44.2645 36.6504 44.1348 36.6841C44.0186 36.7139 43.8618 36.7558 43.8213 36.8841Z"></path>
<path fill="#FFDB00" d="M36.8949 38.5286C36.8273 36.4761 36.0923 34.7141 35.064 33.8263C34.3856 33.198 33.0425 32.7169 33.0425 32.7169L33.0371 33.2885C31.494 33.7195 30.3738 36.014 30.463 38.7394C30.5441 41.2041 31.5886 43.2512 32.9466 43.8647L32.9371 44.9889C35.164 43.8593 35.7045 42.9661 35.7045 42.9661C36.4801 41.9554 36.9544 40.3379 36.8949 38.53V38.5286Z"></path>
<path fill="#00452B" d="M34.9316 38.5394C34.8356 35.5964 33.8033 33.1155 32.4331 32.1723C32.4331 32.1723 32.4237 32.1656 32.4196 32.1629C32.4021 32.1507 32.3845 32.1385 32.3656 32.1277C31.2859 31.4197 30.0739 31.421 30.0739 31.421L30.1009 32.1196C28.6929 33.0466 27.7349 35.6896 27.8362 38.7718C27.9389 41.9067 29.1037 44.5159 30.6063 45.3024L30.6346 46.0537C32.0102 45.8212 32.9371 44.9875 32.9371 44.9875C34.1965 43.916 35.0262 41.4189 34.9316 38.538V38.5394Z"></path>
<path fill="#FFDB00" d="M29.6081 46.3571C31.7599 46.2869 33.3937 42.8426 33.2573 38.6643C33.1209 34.4859 31.2659 31.1556 29.114 31.2258C26.9622 31.2961 25.3284 34.7403 25.4648 38.9187C25.6012 43.0971 27.4562 46.4274 29.6081 46.3571Z"></path>
<path fill="#00452B" d="M27.9844 47.0968C30.2407 47.0231 31.952 43.3584 31.8069 38.9115C31.6617 34.4646 29.7149 30.9194 27.4586 30.9931C25.2024 31.0667 23.491 34.7314 23.6362 39.1783C23.7814 43.6252 25.7281 47.1704 27.9844 47.0968Z"></path>
<path fill="#FFDB00" d="M26.4668 47.153C28.7231 47.0793 30.4344 43.4128 30.2892 38.9637C30.1439 34.5145 28.1971 30.9675 25.9408 31.0412C23.6845 31.1148 21.9732 34.7813 22.1185 39.2304C22.2637 43.6796 24.2106 47.2266 26.4668 47.153Z"></path>
<path fill="#00452B" d="M24.6427 46.7905C26.6394 46.7253 28.1473 43.2792 28.0106 39.0933C27.874 34.9075 26.1445 31.567 24.1478 31.6322C22.1511 31.6974 20.6433 35.1435 20.7799 39.3294C20.9166 43.5152 22.646 46.8557 24.6427 46.7905Z"></path>
<path fill="#FFDB00" d="M23.1514 46.4484C25.1347 46.3837 26.6375 43.1187 26.5082 39.1558C26.3788 35.193 24.6661 32.033 22.6828 32.0977C20.6996 32.1625 19.1967 35.4275 19.3261 39.3903C19.4555 43.3531 21.1681 46.5132 23.1514 46.4484Z"></path>
<path fill="#00452B" d="M21.7778 45.7469C23.459 45.692 24.7286 42.7912 24.6136 39.2677C24.4986 35.7441 23.0424 32.9323 21.3612 32.9872C19.68 33.0421 18.4104 35.9429 18.5254 39.4664C18.6405 42.9899 20.0966 45.8018 21.7778 45.7469Z"></path>
<path fill="#FFDB00" d="M23.038 39.4245C22.9312 36.1734 21.6367 33.5763 20.1449 33.6249C20.026 33.629 19.9098 33.6493 19.7963 33.6857C18.8086 33.8911 17.1006 35.8086 17.1006 35.8086L18.0316 43.8458C19.5247 45.5848 20.53 45.401 20.53 45.401C22.0218 45.3524 23.1447 42.6769 23.038 39.4245Z"></path>
<path fill="#00452B" d="M18.962 44.1528C20.1238 44.019 20.8371 41.9272 20.5553 39.4807C20.2736 37.0342 19.1034 35.1593 17.9416 35.2931C16.7799 35.4269 16.0666 37.5187 16.3483 39.9652C16.6301 42.4118 17.8003 44.2866 18.962 44.1528Z"></path>
<path fill="#FFDB00" d="M18.7997 43.9649C19.8843 43.84 20.5445 41.8371 20.2744 39.4914C20.0042 37.1457 18.9059 35.3454 17.8213 35.4703C16.7367 35.5953 16.0764 37.5981 16.3466 39.9438C16.6168 42.2895 17.715 44.0898 18.7997 43.9649Z"></path>
<path fill="white" d="M19.2463 34.533C19.2166 34.6154 19.3058 34.6897 19.3815 34.7343C20.1328 35.187 20.7151 35.9112 20.9976 36.7409C21.0462 36.8841 21.107 37.0517 21.2529 37.0949C21.3989 37.1382 21.5529 37.0165 21.5975 36.872C21.6435 36.7274 21.6083 36.5706 21.5678 36.4247C21.4381 35.968 21.2367 35.5261 20.9313 35.1626C20.703 34.8897 20.4152 34.664 20.0882 34.5249C19.9652 34.4722 19.8422 34.4222 19.7071 34.4195C19.5923 34.4168 19.2977 34.3965 19.2477 34.5343L19.2463 34.533Z"></path>
<path fill="white" d="M21.1949 37.8152C21.1354 37.9476 21.1476 38.1003 21.1719 38.2435C21.1868 38.3341 21.2057 38.4246 21.2503 38.5057C21.2949 38.5868 21.3679 38.6543 21.457 38.6732C21.5908 38.7016 21.7273 38.6138 21.803 38.4989C21.8989 38.3557 21.9273 38.1692 21.8773 38.0044C21.7908 37.7193 21.3692 37.4287 21.1935 37.8138L21.1949 37.8152Z"></path>
<path fill="white" d="M22.9136 32.7899C22.9501 32.8047 22.9879 32.8156 23.0257 32.8277C23.323 32.9291 23.5797 33.2074 23.7405 33.4696C23.8973 33.7236 24.0162 33.9992 24.177 34.2492C24.2432 34.3506 24.3189 34.4519 24.4256 34.5114C24.5324 34.5708 24.6742 34.5789 24.7688 34.5006C24.8513 34.433 24.8783 34.3181 24.8756 34.2127C24.8702 33.9884 24.754 33.7817 24.6242 33.5966C24.4283 33.3155 24.1932 33.0588 23.9094 32.8669C23.75 32.7588 23.5905 32.6372 23.4149 32.5548C23.2716 32.4872 23.1109 32.448 22.9541 32.4723C22.8757 32.4845 22.7893 32.5237 22.7744 32.6007C22.7622 32.6615 22.8028 32.7237 22.8541 32.7588C22.873 32.7723 22.8947 32.7818 22.9163 32.7912L22.9136 32.7899Z"></path>
<path fill="white" d="M35.8639 45.9402C35.876 46.0145 35.9571 46.0537 36.0166 46.0902C36.0882 46.1334 36.1611 46.1672 36.2395 46.1983C36.3787 46.255 36.5287 46.2902 36.6746 46.3239C36.8233 46.3591 36.9719 46.3834 37.1165 46.432C37.0867 46.4226 37.0949 46.4226 37.1192 46.4334C37.1327 46.4402 37.1476 46.4469 37.1611 46.4537C37.1881 46.4672 37.2138 46.4861 37.2394 46.501C37.2246 46.4915 37.2138 46.478 37.234 46.4969C37.2448 46.5077 37.257 46.5172 37.2665 46.528C37.2867 46.5496 37.2921 46.5456 37.2692 46.528C37.2813 46.5374 37.2908 46.5604 37.3002 46.5739C37.3732 46.6766 37.5137 46.7347 37.6299 46.6604C37.7475 46.5847 37.7732 46.4537 37.7164 46.3307C37.6421 46.1713 37.4678 46.0632 37.3097 46.0024C37.1408 45.9375 36.9516 45.9334 36.7746 45.924C36.6044 45.9159 36.4625 45.8902 36.2936 45.8659C36.2044 45.8537 36.1166 45.8443 36.0274 45.8375C35.9612 45.8321 35.8477 45.8443 35.8639 45.9388V45.9402Z"></path>
<path fill="white" d="M36.0585 46.7604C36.0531 46.8401 36.1085 46.9131 36.1747 46.9509C36.2058 46.9685 36.2382 46.9834 36.2706 46.9955C36.2882 47.0023 36.3071 47.0077 36.326 47.0117C36.3355 47.0145 36.3449 47.0172 36.3557 47.0185C36.4003 47.0266 36.4476 47.0334 36.4909 47.0185C36.5287 47.0077 36.5611 46.9888 36.5895 46.9618L36.6246 46.9172C36.6449 46.882 36.6544 46.8455 36.6557 46.805C36.6584 46.7388 36.6327 46.6942 36.5814 46.6577C36.5301 46.6212 36.4733 46.5956 36.4125 46.5848C36.3584 46.5739 36.3017 46.5753 36.2463 46.5848C36.2017 46.5942 36.1409 46.6077 36.1112 46.6442C36.1017 46.6564 36.0923 46.6672 36.0841 46.6793C36.0693 46.705 36.0612 46.7334 36.0612 46.7631L36.0585 46.7604Z"></path>
<path fill="white" d="M24.7053 47.5374C24.6634 47.5536 24.6188 47.5428 24.5743 47.5536C24.531 47.563 24.4905 47.5779 24.4486 47.5928C24.3621 47.6238 24.2743 47.6522 24.1837 47.6711C23.9919 47.713 23.8054 47.7414 23.6189 47.7698C23.4257 47.7995 23.2419 47.84 23.0636 47.9252C22.8771 48.0143 22.7379 48.1887 22.6744 48.3832C22.6339 48.5048 22.7203 48.6562 22.846 48.6846C22.9811 48.7156 23.1054 48.644 23.1473 48.513C23.1514 48.5008 23.1554 48.49 23.1595 48.4778L23.15 48.5021C23.15 48.49 23.1703 48.4657 23.1771 48.4535C23.1865 48.4386 23.196 48.4197 23.2081 48.4076C23.1663 48.4481 23.2081 48.4103 23.2176 48.3995C23.2433 48.3724 23.2717 48.3467 23.3 48.3238C23.3054 48.3197 23.3568 48.2832 23.3122 48.3143C23.3284 48.3035 23.3433 48.2927 23.3595 48.2819C23.4433 48.2305 23.4784 48.2197 23.5689 48.1887C23.6541 48.1589 23.7419 48.1346 23.8284 48.1062C24.0027 48.0468 24.1675 47.967 24.3283 47.8765C24.4026 47.8346 24.477 47.7941 24.5486 47.7495C24.5851 47.7265 24.6215 47.7009 24.6526 47.6711C24.6824 47.6428 24.6945 47.6049 24.7269 47.5792C24.7459 47.5644 24.7256 47.5306 24.704 47.5387L24.7053 47.5374Z"></path>
<path fill="white" d="M19.2529 45.2078C19.1948 45.1849 19.1246 45.2038 19.0665 45.2132C19.007 45.224 18.9475 45.2376 18.8867 45.247C18.7895 45.2619 18.6692 45.2646 18.5624 45.2605C18.4273 45.2551 18.3003 45.2754 18.1787 45.3389C18.0679 45.397 17.9395 45.4767 17.8841 45.5916C17.8314 45.6997 17.8503 45.8456 17.9665 45.9064C18.0787 45.9659 18.2152 45.9334 18.2814 45.824C18.2949 45.8024 18.2935 45.8037 18.2746 45.8294C18.2814 45.8199 18.2895 45.8118 18.2976 45.8037C18.3057 45.7956 18.3152 45.7875 18.3246 45.7808C18.3017 45.7983 18.3003 45.7997 18.3206 45.7848C18.3652 45.7537 18.4084 45.7199 18.4557 45.6916C18.4665 45.6848 18.4787 45.6781 18.4908 45.6713C18.5124 45.6605 18.5151 45.6591 18.4962 45.6686C18.5165 45.6632 18.5354 45.6578 18.5557 45.6551C18.5368 45.6578 18.5395 45.6564 18.5638 45.6551C18.5881 45.6524 18.6124 45.6483 18.6354 45.6456C18.6638 45.6416 18.6908 45.6375 18.7192 45.6335C18.8246 45.6146 18.9273 45.5875 19.0273 45.551C19.1421 45.5092 19.2786 45.4605 19.3286 45.3402C19.3516 45.2835 19.3029 45.2294 19.2556 45.2105L19.2529 45.2078Z"></path>
<path fill="white" d="M32.1075 17.114C29.6577 17.4532 29.455 17.7289 29.2036 21.0516C28.9537 17.7289 28.751 17.4532 26.2998 17.114C28.7496 16.7749 28.9523 16.4992 29.2036 13.1765C29.4536 16.4992 29.6563 16.7749 32.1075 17.114Z"></path>
<path fill="white" d="M47.5428 30.8805C45.093 31.2197 44.8903 31.4953 44.6389 34.8181C44.389 31.4953 44.1863 31.2197 41.7351 30.8805C44.1849 30.5414 44.3876 30.2657 44.6389 26.943C44.8889 30.2657 45.0916 30.5414 47.5428 30.8805Z"></path>
<path fill="white" d="M17.1004 30.8805C14.6506 31.2197 14.4479 31.4953 14.1966 34.8181C13.9466 31.4953 13.7439 31.2197 11.2927 30.8805C13.7425 30.5414 13.9452 30.2657 14.1966 26.943C14.4465 30.2657 14.6492 30.5414 17.1004 30.8805Z"></path>
</g>
<defs>
<clipPath id="clip0_8241_13834">
<rect transform="translate(11.2942 13.1765)" fill="white" height="37.6471" width="41.6981"></rect>
</clipPath>
</defs>
</svg>
