<svg xmlns="http://www.w3.org/2000/svg" fill="none" viewBox="0 0 160 160" height="160" width="160">
<circle fill="#8BE3C6" r="80" cy="80" cx="80"></circle>
<g clip-path="url(#clip0_8_22946)">
<path fill="#00A94F" d="M42.0824 87.42C41.2818 85.6769 40.5724 83.8899 40.0217 82.0488C39.5657 80.5186 39.1772 78.9376 39.0826 77.3397C39.0725 77.1641 39.0657 76.9851 39.113 76.8161C39.1367 76.7283 39.2009 76.6303 39.2921 76.6337C39.3461 76.6337 39.39 76.6743 39.4306 76.7114C39.6231 76.8938 39.7954 77.0999 39.9441 77.3195C39.8461 76.4209 39.7616 75.5662 39.6603 74.6677C39.6029 74.1407 39.5454 73.6137 39.4981 73.0867C39.4373 72.357 39.3968 71.6274 39.3867 70.8943C39.3799 70.5024 39.3799 70.1072 39.4475 69.7187C39.4677 69.5904 39.4981 69.4586 39.5792 69.3573C39.6603 69.2559 39.7954 69.1884 39.9204 69.2289C39.9812 69.2492 40.0319 69.2931 40.0792 69.3404C40.1974 69.4552 40.3089 69.5768 40.4069 69.712C40.8021 67.0838 40.4305 64.4455 40.0521 61.8139C40.0353 61.7025 40.0217 61.5876 40.042 61.4761C40.0623 61.3646 40.1332 61.2565 40.2413 61.2194C40.4001 61.1653 40.5656 61.2802 40.6872 61.3951C40.8257 61.5234 40.9575 61.6619 41.0791 61.8072C41.1737 61.2836 41.1703 60.76 41.1635 60.2296C41.1602 59.9391 41.1568 59.6486 41.1534 59.358C41.1467 58.8142 41.1399 58.2703 41.0994 57.7298C41.025 56.7805 40.846 55.8448 40.667 54.9091C40.6467 54.8111 40.6298 54.7098 40.6467 54.6118C40.6636 54.5138 40.721 54.4159 40.8122 54.3821C40.9271 54.3382 41.0554 54.4024 41.1433 54.4868C41.2311 54.5713 41.2953 54.6794 41.3831 54.7638C41.3764 53.22 41.0757 51.7032 40.6568 50.2169C40.5926 49.9872 40.5251 49.7608 40.444 49.5379C40.3224 49.2001 40.167 48.869 40.0893 48.5177C40.0623 48.3927 40.0488 48.2474 40.1265 48.1461C40.2008 48.0481 40.3359 48.0177 40.4575 48.0414C40.5791 48.065 40.6839 48.1292 40.7886 48.1934C40.5893 47.109 40.3156 46.028 39.8562 45.0281C39.3968 44.0282 38.7516 43.0992 37.9037 42.3965C37.7246 42.2479 37.5355 42.1094 37.3598 41.954C37.2618 41.8696 37.1672 41.775 37.1166 41.6534C37.0659 41.5317 37.0727 41.3797 37.1605 41.2885C37.2855 41.1568 37.5084 41.1906 37.674 41.1162C37.1875 40.5724 36.5322 40.167 35.8937 39.8123C35.4512 39.5623 34.9985 39.3258 34.5492 39.086C34.3465 38.9779 34.1438 38.8698 33.931 38.782C33.4648 38.5894 32.9615 38.4982 32.5021 38.2854C32.4581 38.2651 32.4142 38.2448 32.3838 38.2077C32.2014 38.0151 32.421 37.7787 32.5831 37.6874C32.8264 37.5456 33.1 37.4679 33.3702 37.3969C35.0762 36.9409 36.8227 36.6605 38.5692 36.3869C38.434 36.3227 38.282 36.2281 38.1841 36.1132C38.2888 35.995 38.4644 35.9815 38.6198 35.9781C40.5048 35.9308 42.3999 36.1909 44.2005 36.745C44.0991 36.6639 44.0316 36.5929 43.9539 36.4882C43.9404 36.4713 43.9302 36.4544 43.9302 36.4342C43.9302 36.4004 43.964 36.3801 43.9978 36.37C44.1397 36.3193 44.2984 36.3531 44.4437 36.3902C45.2544 36.5997 46.0517 36.8632 46.832 37.1672C47.582 37.4611 48.3691 37.7618 49.0582 38.184C49.0143 38.0894 48.9298 37.8428 48.994 37.7415C49.0616 37.6368 49.2372 37.6807 49.3318 37.7145C50.5412 38.1638 51.6492 38.836 52.7505 39.5049C53.0376 39.6772 53.3214 39.8528 53.5984 40.0454C53.5376 39.9305 53.5139 39.8292 53.5139 39.6974C53.5139 39.6299 53.5342 39.5454 53.5984 39.5218C53.6288 39.5116 53.6592 39.5116 53.6896 39.5184C53.8889 39.5522 54.0578 39.6805 54.2166 39.8021C55.4259 40.7446 56.6421 41.6905 57.7264 42.7783C57.7062 42.6431 57.696 42.5046 57.7197 42.3695C57.7264 42.3324 57.7366 42.2918 57.7636 42.2648C57.8244 42.2141 57.9156 42.2648 57.9764 42.3121C59.0507 43.1634 59.9796 44.1836 60.9052 45.197C61.1856 45.4672 61.4322 45.7747 61.6924 46.0618C61.9356 46.3287 62.1856 46.5989 62.4389 46.8523C62.4389 46.7543 62.4963 46.5989 62.5403 46.5145C62.5774 46.4435 62.645 46.3827 62.7227 46.376C62.8308 46.3658 62.922 46.457 62.9929 46.5381C64.2428 47.9603 65.2495 49.5446 66.1447 51.2067C66.3778 51.6391 66.6041 52.0782 66.8203 52.5207C66.8609 52.3687 66.9521 52.2505 67.0534 52.1255C67.0838 52.085 67.121 52.0478 67.1683 52.0343C67.273 52.0005 67.3743 52.0883 67.4453 52.1728C67.7054 52.4903 67.8878 52.8653 68.0567 53.2403C68.0736 53.2774 68.0905 53.3112 68.104 53.3484C68.5026 54.2402 68.8438 55.1557 69.158 56.0779C69.3168 56.5407 69.4654 57.0069 69.6107 57.4731C69.7559 57.9392 69.8843 58.4088 70.0228 58.8784C70.087 58.5811 70.1748 58.2298 70.3978 58.0136C70.4113 58 70.4248 57.9865 70.4417 57.9798C70.4957 57.9528 70.5633 57.9764 70.6106 58.0136C70.7356 58.1149 70.793 58.3716 70.847 58.5203C70.9247 58.7263 70.9889 58.9392 71.0464 59.152C71.1578 59.5709 71.2423 59.9965 71.3234 60.4222C71.4585 61.1248 71.5936 61.8308 71.6848 62.5402C71.8334 63.6922 71.874 64.861 71.7997 66.0231C71.5058 70.6612 68.0094 74.4954 65.4387 78.3667C63.4828 81.3124 61.4491 84.2142 59.1216 86.8762C57.3008 88.9605 55.1793 90.9671 52.5005 91.6596C50.6121 92.1494 48.6224 91.9366 46.6969 91.6292C45.9841 91.5143 45.2511 91.3792 44.6633 90.9603C44.1059 90.5617 43.7411 89.9536 43.3931 89.3625C43.0181 88.724 42.3966 88.0923 42.0858 87.42H42.0824Z"></path>
<mask height="57" width="40" y="35" x="32" maskUnits="userSpaceOnUse" style="mask-type:luminance" id="mask0_8_22946">
<path fill="white" d="M42.0824 87.42C41.2818 85.6769 40.5724 83.8899 40.0217 82.0488C39.5657 80.5186 39.1772 78.9376 39.0826 77.3397C39.0725 77.1641 39.0657 76.9851 39.113 76.8161C39.1367 76.7283 39.2009 76.6303 39.2921 76.6337C39.3461 76.6337 39.39 76.6743 39.4306 76.7114C39.6231 76.8938 39.7954 77.0999 39.9441 77.3195C39.8461 76.4209 39.7616 75.5662 39.6603 74.6677C39.6029 74.1407 39.5454 73.6137 39.4981 73.0867C39.4373 72.357 39.3968 71.6274 39.3867 70.8943C39.3799 70.5024 39.3799 70.1072 39.4475 69.7187C39.4677 69.5904 39.4981 69.4586 39.5792 69.3573C39.6603 69.2559 39.7954 69.1884 39.9204 69.2289C39.9812 69.2492 40.0319 69.2931 40.0792 69.3404C40.1974 69.4552 40.3089 69.5768 40.4069 69.712C40.8021 67.0838 40.4305 64.4455 40.0521 61.8139C40.0353 61.7025 40.0217 61.5876 40.042 61.4761C40.0623 61.3646 40.1332 61.2565 40.2413 61.2194C40.4001 61.1653 40.5656 61.2802 40.6872 61.3951C40.8257 61.5234 40.9575 61.6619 41.0791 61.8072C41.1737 61.2836 41.1703 60.76 41.1635 60.2296C41.1602 59.9391 41.1568 59.6486 41.1534 59.358C41.1467 58.8142 41.1399 58.2703 41.0994 57.7298C41.025 56.7805 40.846 55.8448 40.667 54.9091C40.6467 54.8111 40.6298 54.7098 40.6467 54.6118C40.6636 54.5138 40.721 54.4159 40.8122 54.3821C40.9271 54.3382 41.0554 54.4024 41.1433 54.4868C41.2311 54.5713 41.2953 54.6794 41.3831 54.7638C41.3764 53.22 41.0757 51.7032 40.6568 50.2169C40.5926 49.9872 40.5251 49.7608 40.444 49.5379C40.3224 49.2001 40.167 48.869 40.0893 48.5177C40.0623 48.3927 40.0488 48.2474 40.1265 48.1461C40.2008 48.0481 40.3359 48.0177 40.4575 48.0414C40.5791 48.065 40.6839 48.1292 40.7886 48.1934C40.5893 47.109 40.3156 46.028 39.8562 45.0281C39.3968 44.0282 38.7516 43.0992 37.9037 42.3965C37.7246 42.2479 37.5355 42.1094 37.3598 41.954C37.2618 41.8696 37.1672 41.775 37.1166 41.6534C37.0659 41.5317 37.0727 41.3797 37.1605 41.2885C37.2855 41.1568 37.5084 41.1906 37.674 41.1162C37.1875 40.5724 36.5322 40.167 35.8937 39.8123C35.4512 39.5623 34.9985 39.3258 34.5492 39.086C34.3465 38.9779 34.1438 38.8698 33.931 38.782C33.4648 38.5894 32.9615 38.4982 32.5021 38.2854C32.4581 38.2651 32.4142 38.2448 32.3838 38.2077C32.2014 38.0151 32.421 37.7787 32.5831 37.6874C32.8264 37.5456 33.1 37.4679 33.3702 37.3969C35.0762 36.9409 36.8227 36.6605 38.5692 36.3869C38.434 36.3227 38.282 36.2281 38.1841 36.1132C38.2888 35.995 38.4644 35.9815 38.6198 35.9781C40.5048 35.9308 42.3999 36.1909 44.2005 36.745C44.0991 36.6639 44.0316 36.5929 43.9539 36.4882C43.9404 36.4713 43.9302 36.4544 43.9302 36.4342C43.9302 36.4004 43.964 36.3801 43.9978 36.37C44.1397 36.3193 44.2984 36.3531 44.4437 36.3902C45.2544 36.5997 46.0517 36.8632 46.832 37.1672C47.582 37.4611 48.3691 37.7618 49.0582 38.184C49.0143 38.0894 48.9298 37.8428 48.994 37.7415C49.0616 37.6368 49.2372 37.6807 49.3318 37.7145C50.5412 38.1638 51.6492 38.836 52.7505 39.5049C53.0376 39.6772 53.3214 39.8528 53.5984 40.0454C53.5376 39.9305 53.5139 39.8292 53.5139 39.6974C53.5139 39.6299 53.5342 39.5454 53.5984 39.5218C53.6288 39.5116 53.6592 39.5116 53.6896 39.5184C53.8889 39.5522 54.0578 39.6805 54.2166 39.8021C55.4259 40.7446 56.6421 41.6905 57.7264 42.7783C57.7062 42.6431 57.696 42.5046 57.7197 42.3695C57.7264 42.3324 57.7366 42.2918 57.7636 42.2648C57.8244 42.2141 57.9156 42.2648 57.9764 42.3121C59.0507 43.1634 59.9796 44.1836 60.9052 45.197C61.1856 45.4672 61.4322 45.7747 61.6924 46.0618C61.9356 46.3287 62.1856 46.5989 62.4389 46.8523C62.4389 46.7543 62.4963 46.5989 62.5403 46.5145C62.5774 46.4435 62.645 46.3827 62.7227 46.376C62.8308 46.3658 62.922 46.457 62.9929 46.5381C64.2428 47.9603 65.2495 49.5446 66.1447 51.2067C66.3778 51.6391 66.6041 52.0782 66.8203 52.5207C66.8609 52.3687 66.9521 52.2505 67.0534 52.1255C67.0838 52.085 67.121 52.0478 67.1683 52.0343C67.273 52.0005 67.3743 52.0883 67.4453 52.1728C67.7054 52.4903 67.8878 52.8653 68.0567 53.2403C68.0736 53.2774 68.0905 53.3112 68.104 53.3484C68.5026 54.2402 68.8438 55.1557 69.158 56.0779C69.3168 56.5407 69.4654 57.0069 69.6107 57.4731C69.7559 57.9392 69.8843 58.4088 70.0228 58.8784C70.087 58.5811 70.1748 58.2298 70.3978 58.0136C70.4113 58 70.4248 57.9865 70.4417 57.9798C70.4957 57.9528 70.5633 57.9764 70.6106 58.0136C70.7356 58.1149 70.793 58.3716 70.847 58.5203C70.9247 58.7263 70.9889 58.9392 71.0464 59.152C71.1578 59.5709 71.2423 59.9965 71.3234 60.4222C71.4585 61.1248 71.5936 61.8308 71.6848 62.5402C71.8334 63.6922 71.874 64.861 71.7997 66.0231C71.5058 70.6612 68.0094 74.4954 65.4387 78.3667C63.4828 81.3124 61.4491 84.2142 59.1216 86.8762C57.3008 88.9605 55.1793 90.9671 52.5005 91.6596C50.6121 92.1494 48.6224 91.9366 46.6969 91.6292C45.9841 91.5143 45.2511 91.3792 44.6633 90.9603C44.1059 90.5617 43.7411 89.9536 43.3931 89.3625C43.0181 88.724 42.3966 88.0923 42.0858 87.42H42.0824Z"></path>
</mask>
<g mask="url(#mask0_8_22946)">
<path fill="#004600" d="M55.0442 80.4948C56.0611 77.9883 57.4934 75.6506 59.2635 73.6102C59.3277 73.5359 59.3986 73.4582 59.4898 73.421C59.6351 73.3602 59.7871 73.4312 59.7804 73.5967C59.7736 73.7453 59.75 73.894 59.7094 74.0392C59.8378 73.8838 59.929 73.6913 60.0371 73.519C60.1486 73.3433 60.2634 73.1677 60.3817 72.992C60.7701 72.4144 61.1823 71.8502 61.6147 71.2996C62.0471 70.749 62.4896 70.2152 62.9457 69.6916C63.1517 69.4551 63.3645 69.2153 63.628 69.043C63.7226 68.9822 63.8476 68.9281 63.9422 68.989C64.003 69.0295 64.03 69.1072 64.0469 69.1781C64.0976 69.3808 64.1212 69.5903 64.1111 69.7997C65.2495 68.1512 66.5096 66.6513 67.9182 65.2291C68.1378 65.0095 68.3608 64.79 68.6209 64.6244C68.6817 64.5873 68.756 64.5501 68.8236 64.5704C68.9046 64.594 68.9418 64.6819 68.9688 64.7629C69.0431 65.0163 69.0634 65.2832 69.0229 65.5433C69.9586 64.4859 70.8707 63.4759 71.8098 62.4185C72.1578 62.0267 72.5057 61.6314 72.8739 61.2565C73.1003 61.0267 73.3334 60.8038 73.5766 60.5943C73.6881 60.4998 73.8198 60.4052 73.9651 60.4288C74.1069 60.4558 74.2015 60.5943 74.2387 60.7362C74.2758 60.8781 74.2725 61.0234 74.3096 61.1652C74.5799 61.0065 74.7927 60.8376 75.0089 60.6079C75.975 59.5944 76.877 58.5202 77.7046 57.3885C77.931 57.0811 78.1505 56.7703 78.4005 56.4866C78.4917 56.3852 78.6032 56.2805 78.7383 56.2771C78.8768 56.2771 78.9985 56.392 79.0491 56.5203C79.0998 56.6487 79.093 56.794 79.0863 56.9358C80.3497 55.4799 81.4645 53.9665 82.5016 52.3416C82.6164 52.1592 82.8022 51.9497 83.0049 52.0241C83.1806 52.0883 83.2177 52.3146 83.2245 52.497C84.1062 51.5376 84.7818 50.4026 85.3054 49.2135C85.4439 48.8993 85.5655 48.5784 85.6905 48.2575C85.8087 47.9534 85.9135 47.6122 86.0925 47.342C86.2479 47.1089 86.5046 47.1224 86.6127 47.3927C86.6668 47.5244 86.6735 47.6731 86.7276 47.8014C87.7511 45.8286 88.5653 43.7443 89.1227 41.5924C89.2477 41.1094 89.3355 40.6162 89.3659 40.1162C89.3963 39.6095 89.3389 39.1095 89.3186 38.6062C89.3118 38.4744 89.3186 38.3157 89.4301 38.2414C89.5584 38.1569 89.724 38.2414 89.849 38.3326C91.7948 39.6973 93.4162 41.4911 94.7101 43.4842C94.7979 43.3727 94.8148 43.1903 94.9499 43.1498C95.0749 43.1126 95.1898 43.2241 95.2675 43.3254C95.4499 43.5653 95.6086 43.822 95.7505 44.0855C96.0208 44.5855 96.237 45.1091 96.4498 45.6361C96.8856 46.7103 97.3078 47.7913 97.7132 48.879C97.8314 48.7608 97.9801 48.6493 98.1355 48.7135C98.203 48.7405 98.2537 48.8013 98.2942 48.8588C98.4125 49.0277 98.4868 49.2236 98.551 49.4195C98.7064 49.8891 98.8077 50.3755 98.9057 50.8586C99.1388 51.997 99.3583 53.1388 99.5441 54.284C99.6151 54.1793 99.7097 54.0577 99.811 53.9766C99.8718 53.9259 99.9529 53.8787 100.027 53.9023C100.105 53.9259 100.145 54.0104 100.172 54.0847C100.321 54.4867 100.382 54.9157 100.433 55.3414C100.605 56.7703 100.662 58.3817 100.639 59.8241C100.71 59.716 100.804 59.635 100.892 59.5437C100.919 59.5167 100.949 59.4897 100.987 59.4796C101.047 59.4627 101.112 59.4931 101.152 59.5437C101.193 59.5944 101.21 59.6552 101.226 59.716C101.365 60.2464 101.365 60.8038 101.348 61.3544C101.348 61.3848 101.348 61.4118 101.348 61.4422C101.297 62.8779 101.152 64.3508 100.838 65.7527C100.909 65.6784 100.98 65.6041 101.058 65.5365C101.095 65.5061 101.128 65.4723 101.172 65.4521C101.216 65.4318 101.267 65.425 101.311 65.4453C101.389 65.4825 101.409 65.5804 101.419 65.6649C101.453 66.0601 101.385 66.4689 101.328 66.8574C101.108 68.3167 100.845 69.7794 100.477 71.2084C100.433 71.3773 100.389 71.5462 100.345 71.7185C100.47 71.58 100.629 71.4685 100.801 71.4009C100.845 71.384 100.895 71.3672 100.943 71.384C101.034 71.4144 101.051 71.5293 101.047 71.6239C101.034 71.9685 100.933 72.3029 100.828 72.6306C100.399 74.0055 99.936 75.3668 99.4462 76.7215C99.3415 77.0086 99.2334 77.2991 99.1151 77.5795C99.0138 77.8193 98.9023 78.0524 98.7807 78.2822C98.7199 78.397 98.7098 78.4544 98.6591 78.576C98.8145 78.4173 98.9901 78.2923 99.1827 78.1842C99.2975 78.12 99.4192 78.0626 99.5475 78.0592C99.6083 78.0592 99.6725 78.0659 99.7232 78.1065C99.8043 78.1707 99.811 78.2889 99.8043 78.3936C99.7806 78.7382 99.6725 79.0693 99.5441 79.3902C99.4158 79.7145 99.2807 80.032 99.1151 80.3428C99.0982 80.3766 99.078 80.4137 99.0577 80.4475C98.8043 80.9205 98.5341 81.3866 98.2672 81.8528C98.0848 82.1704 97.9024 82.4845 97.72 82.8021C96.5849 84.7648 95.5816 86.7004 94.1088 88.4233C91.7846 91.1359 88.4639 92.8486 85.0183 93.7809C81.5726 94.7133 77.9749 94.9261 74.4042 95.0511C70.3843 95.193 66.1076 95.1693 62.699 93.031C61.287 92.1426 60.1013 90.9332 59.0541 89.6326C56.936 87.0044 53.7741 83.6162 55.0409 80.4881L55.0442 80.4948Z"></path>
</g>
<path fill="#004600" d="M38.11 38.6671C41.4104 39.9204 44.3561 41.9743 46.9775 44.3086C51.342 48.2508 54.6458 53.2842 56.8484 58.7162C57.4328 60.1114 57.9395 61.6315 58.3888 63.074C58.659 63.9928 58.8617 64.9556 59.0509 65.8913C60.3346 72.6915 60.2467 79.7281 58.9056 86.5181C58.811 87.0147 58.3313 87.339 57.8348 87.2444C57.3247 87.1464 56.997 86.6397 57.1186 86.133C58.6827 79.039 58.8651 71.5868 57.399 64.4556C57.3044 64.057 57.2132 63.6179 57.0916 63.2294C56.0883 59.652 54.6762 56.1691 52.8048 52.9565C51.9501 51.4938 50.9637 50.0243 49.9131 48.6967C46.9066 44.8828 43.1265 41.5858 38.7146 39.5049C38.4545 39.3833 38.1843 39.2684 37.9242 39.1738C37.7857 39.1198 37.7147 38.9644 37.7654 38.8259C37.8161 38.6874 37.9681 38.6198 38.1066 38.6671H38.11Z"></path>
<path fill="#00A94F" d="M57.8006 80.1201C58.8174 77.6135 60.2497 75.2758 62.0199 73.2355C62.084 73.1611 62.155 73.0834 62.2462 73.0463C62.3914 72.9855 62.5435 73.0564 62.5367 73.2219C62.5299 73.3706 62.5063 73.5192 62.4658 73.6645C62.5941 73.5091 62.6853 73.3165 62.7934 73.1443C62.9049 72.9686 63.0198 72.7929 63.138 72.6173C63.5265 72.0396 63.9386 71.4755 64.371 70.9248C64.8 70.3776 65.246 69.8405 65.702 69.3168C65.9081 69.0804 66.1209 68.8405 66.3844 68.6683C66.479 68.6074 66.604 68.5534 66.6985 68.6142C66.7593 68.6547 66.7864 68.7324 66.8033 68.8034C66.8539 69.0061 66.8776 69.2155 66.8674 69.4249C68.0059 67.7764 69.2659 66.2765 70.6746 64.8544C70.8942 64.6348 71.1171 64.4152 71.3772 64.2497C71.438 64.2125 71.5124 64.1754 71.5799 64.1956C71.661 64.2193 71.6982 64.3071 71.7252 64.3882C71.7995 64.6415 71.8198 64.9084 71.7792 65.1685C72.715 64.1112 73.6271 63.1011 74.5662 62.0438C74.9141 61.6519 75.2621 61.2567 75.6303 60.8817C75.8566 60.652 76.0897 60.429 76.3329 60.2196C76.4444 60.125 76.5761 60.0304 76.7214 60.0541C76.8633 60.0811 76.9579 60.2196 76.995 60.3615C77.0322 60.5033 77.0288 60.6486 77.066 60.7905C77.3362 60.6317 77.549 60.4628 77.7652 60.2331C78.7314 59.2197 79.6333 58.1454 80.461 57.0138C80.6873 56.7063 80.9069 56.3956 81.1569 56.1118C81.2481 56.0105 81.3596 55.9057 81.4947 55.9024C81.6332 55.9024 81.7548 56.0172 81.8055 56.1456C81.8561 56.2773 81.8494 56.4192 81.8426 56.5611C83.106 55.1051 84.2208 53.5917 85.2579 51.9669C85.3728 51.7844 85.5586 51.575 85.7612 51.6493C85.9369 51.7135 85.9741 51.9398 85.9808 52.1222C86.8625 51.1629 87.5381 50.0278 88.0617 48.8387C88.2002 48.5246 88.3219 48.2036 88.4468 47.8827C88.5651 47.5787 88.6698 47.2375 88.8488 46.9672C89.0042 46.7342 89.261 46.7477 89.3691 47.0179C89.4231 47.1497 89.4299 47.2983 89.4839 47.4267C90.5075 45.4538 91.3216 43.3695 91.879 41.2177C92.004 40.7346 92.0918 40.2414 92.1222 39.7415C92.1526 39.2415 92.0952 38.7348 92.0749 38.2314C92.0682 38.0997 92.0749 37.9409 92.1864 37.8666C92.3148 37.7821 92.4803 37.8666 92.6053 37.9578C94.5511 39.3226 96.1726 41.1163 97.4664 43.1094C97.5542 42.998 97.5711 42.8155 97.7063 42.775C97.8312 42.7378 97.9461 42.8493 98.0238 42.9507C98.2062 43.1905 98.365 43.4472 98.5069 43.7107C98.7771 44.2107 98.9933 44.7343 99.2061 45.2613C99.6419 46.3355 100.064 47.4165 100.47 48.5043C100.588 48.3861 100.736 48.2746 100.892 48.3388C100.959 48.3658 101.01 48.4266 101.051 48.484C101.169 48.6529 101.243 48.8489 101.307 49.0448C101.463 49.5143 101.564 50.0008 101.662 50.4839C101.895 51.6223 102.115 52.7641 102.3 53.9093C102.371 53.8045 102.466 53.6829 102.567 53.6019C102.628 53.5512 102.709 53.5039 102.784 53.5275C102.861 53.5512 102.902 53.6356 102.929 53.71C103.077 54.112 103.138 54.541 103.189 54.9666C103.361 56.3956 103.419 58.0069 103.395 59.4494C103.466 59.3413 103.561 59.2602 103.648 59.169C103.675 59.142 103.706 59.1149 103.743 59.1048C103.804 59.0879 103.868 59.1183 103.908 59.169C103.949 59.2197 103.966 59.2805 103.983 59.3413C104.121 59.8716 104.121 60.429 104.104 60.9797C104.104 61.0101 104.104 61.0371 104.104 61.0675C104.054 62.5032 103.908 63.976 103.594 65.378C103.665 65.3036 103.736 65.2293 103.814 65.1618C103.851 65.1314 103.885 65.0976 103.929 65.0773C103.973 65.057 104.023 65.0503 104.067 65.0706C104.145 65.1077 104.165 65.2057 104.175 65.2901C104.209 65.6854 104.142 66.0941 104.084 66.4826C103.865 67.942 103.601 69.4047 103.233 70.8336C103.189 71.0025 103.145 71.1714 103.101 71.3437C103.226 71.2052 103.385 71.0937 103.557 71.0262C103.601 71.0093 103.652 70.9924 103.699 71.0093C103.79 71.0397 103.807 71.1545 103.804 71.2491C103.79 71.5937 103.689 71.9281 103.584 72.2558C103.155 73.6307 102.692 74.9921 102.203 76.3467C102.098 76.6338 101.99 76.9244 101.871 77.2047C101.77 77.4446 101.659 77.6777 101.537 77.9074C101.476 78.0223 101.466 78.0797 101.415 78.2013C101.571 78.0425 101.746 77.9175 101.939 77.8094C102.054 77.7452 102.176 77.6878 102.304 77.6844C102.365 77.6844 102.429 77.6912 102.48 77.7317C102.561 77.7959 102.567 77.9142 102.561 78.0189C102.537 78.3634 102.429 78.6945 102.3 79.0154C102.172 79.3363 102.037 79.6573 101.871 79.968C101.855 80.0018 101.834 80.039 101.814 80.0728C101.561 80.5457 101.29 81.0119 101.024 81.4781C100.841 81.7956 100.659 82.1098 100.476 82.4273C99.3413 84.39 98.338 86.3257 96.8651 88.0485C94.541 90.7611 91.2203 92.4738 87.7746 93.4062C84.3289 94.3385 80.7312 94.5514 77.1606 94.6764C73.1406 94.8182 68.8639 94.7946 65.4554 92.6562C64.0433 91.7678 62.8576 90.5584 61.8104 89.2579C59.6923 86.6297 56.5304 83.2414 57.7972 80.1133L57.8006 80.1201Z"></path>
<path fill="white" d="M59.2163 51.1561C59.4393 51.5446 59.6656 51.9533 60.0305 52.2168C60.3953 52.4803 60.9459 52.5445 61.2736 52.2405C61.6857 51.8553 61.5303 51.173 61.2871 50.6663C60.6115 49.2474 59.5339 48.0651 58.4698 46.903C57.2976 45.6227 56.1085 44.3323 54.666 43.3695C54.4701 43.2378 54.2606 43.1128 54.0275 43.079C53.7945 43.0452 53.5276 43.1297 53.4127 43.3357C52.9837 44.0992 55.0511 45.6261 55.4903 46.1024C56.399 47.0888 57.2401 48.1394 58.0002 49.2441C58.4292 49.869 58.8346 50.5075 59.2096 51.1662L59.2163 51.1561Z"></path>
<path fill="#004600" d="M70.7391 88.4977C83.2077 80.9983 90.903 67.4656 93.5211 53.3484C94.1088 50.0717 94.146 46.7037 93.6258 43.41C93.6055 43.2816 93.6933 43.1634 93.8217 43.1431C93.9467 43.1229 94.0649 43.2073 94.0886 43.3323C94.4973 45.5551 94.6561 47.8218 94.5615 50.0852C94.4771 52.3451 94.0987 54.5949 93.5852 56.7941C90.7037 70.2762 83.461 82.4644 71.7221 90.0415C71.2998 90.3185 70.7323 90.2003 70.4553 89.778C70.1715 89.349 70.3033 88.768 70.7391 88.4977Z"></path>
<path fill="white" d="M62.4728 54.1322C62.3749 54.2809 62.3377 54.4633 62.3276 54.6389C62.2938 55.2301 62.5167 55.8314 62.9289 56.2571C63.189 56.5273 63.5944 56.7334 63.9356 56.5746C64.118 56.4901 64.2463 56.3111 64.3038 56.1186C64.3612 55.926 64.3544 55.7199 64.3207 55.5206C64.2295 54.9869 63.9457 54.4869 63.5302 54.139C63.2295 53.8856 62.7329 53.7437 62.4728 54.1356V54.1322Z"></path>
<path fill="white" d="M95.8825 75.5087C95.3487 76.4309 94.7542 77.3768 94.6832 78.4409C94.6461 78.9679 94.8116 79.5895 95.2981 79.7922C95.6663 79.9442 96.1021 79.7922 96.3926 79.5219C96.6831 79.2483 96.852 78.8767 96.9973 78.5051C97.3993 77.4917 97.7844 76.5255 98.2944 75.5628C98.916 74.3838 99.3586 73.2251 99.9193 71.9752C100.48 70.7253 100.717 69.8977 100.97 68.4788C101.088 67.8235 101.149 66.8979 101.122 66.2358C101.102 65.7561 101.21 64.8676 100.696 64.5974C99.6693 64.0569 99.4227 66.8709 99.264 67.4485C98.8958 68.7795 98.4498 70.0868 97.9229 71.3638C97.3351 72.7893 96.6527 74.1777 95.8791 75.5121L95.8825 75.5087Z"></path>
<path fill="white" d="M100.96 60.5574C100.811 60.6385 100.71 60.7871 100.632 60.9391C100.49 61.2229 100.409 61.5337 100.399 61.8512C100.396 62.01 100.409 62.1721 100.47 62.3174C100.534 62.4626 100.649 62.591 100.801 62.6383C100.993 62.6957 101.21 62.6146 101.355 62.4761C101.5 62.3376 101.595 62.1518 101.683 61.9694C101.801 61.7228 101.912 61.4593 101.895 61.1857C101.868 60.7938 101.345 60.3378 100.956 60.554L100.96 60.5574Z"></path>
<path fill="#004600" d="M126.464 101.929C126.062 101.747 125.664 101.558 125.275 101.348C123.589 100.436 121.35 100.162 119.478 99.8752C112.975 98.8821 106.057 98.9294 99.6589 100.551C95.6525 101.564 91.646 102.797 88.072 104.919C87.143 105.469 86.241 106.084 85.5114 106.875C84.7783 107.665 84.2209 108.652 84.0858 109.719C83.8865 111.273 82.8089 114.036 84.5351 114.161C85.2952 114.215 87.9808 113.097 88.7071 112.871C89.6563 112.574 90.6089 112.283 91.565 111.999C96.9024 110.405 102.294 108.979 107.722 107.736C109.074 107.425 110.469 107.125 111.84 107.334C112.948 107.503 113.972 107.996 115.009 108.429C116.793 109.27 119.201 109.874 121.884 110.06C127.566 110.452 132.308 108.81 132.474 106.395C132.599 104.581 130.113 102.848 126.464 101.929Z"></path>
<path fill="#004600" d="M93.1895 114.729C93.1895 114.729 97.4122 115.57 98.1857 117.921C99.3681 121.522 84.0213 119.6 84.6767 121.269C84.7476 121.448 88.4703 122.745 88.3723 124.704C88.2777 126.603 79.9135 127.055 69.1171 127.055C58.3206 127.055 51.9427 126.255 52.061 123.38C52.1251 121.836 54.6858 120.63 56.0201 119.884C57.2599 119.188 43.8657 119.353 42.4806 116.989C40.4504 113.516 49.0342 112.469 49.0342 112.469L93.1895 114.725V114.729Z"></path>
<path fill="#FFDB00" d="M49.2945 112.229C49.2945 112.229 42.9943 113.276 43.1361 115.205C43.3659 118.286 60.4118 116.597 60.5537 118.026C60.6922 119.455 53.7029 119.539 53.8177 121.779C53.9292 124.019 62.0671 124.272 70.0226 124.272C77.978 124.272 85.6463 124.16 85.6767 122.282C85.6767 120.965 81.5926 121.049 81.4237 119.651C81.2548 118.252 97.8076 119.377 96.2165 116.354C94.4869 113.07 84.8086 114.763 83.8661 112.803C83.285 111.597 85.9065 109.428 85.9065 109.428L49.2978 112.229H49.2945Z"></path>
<path fill="#FFDB00" d="M120.799 105.368C126.512 105.368 131.143 100.737 131.143 95.0242C131.143 89.3115 126.512 84.6804 120.799 84.6804C115.086 84.6804 110.455 89.3115 110.455 95.0242C110.455 100.737 115.086 105.368 120.799 105.368Z"></path>
<path fill="#004600" d="M113.85 101.517C115.585 101.517 116.992 98.7402 116.992 95.3148C116.992 91.8894 115.585 89.1125 113.85 89.1125C112.115 89.1125 110.708 91.8894 110.708 95.3148C110.708 98.7402 112.115 101.517 113.85 101.517Z"></path>
<path fill="white" d="M117.212 87.3187C117.066 87.4268 116.924 87.5417 116.826 87.6903C116.728 87.8389 116.678 88.0315 116.728 88.2038C116.826 88.5281 117.232 88.6531 117.57 88.6362C118.154 88.6058 118.688 88.3288 119.245 88.1497C119.867 87.9437 120.525 87.8727 121.177 87.9099C121.454 87.9268 121.704 87.9031 121.975 87.9673C122.309 88.0484 122.64 88.1362 122.975 88.2173C123.225 88.2815 123.485 88.3457 123.741 88.3119C123.998 88.2815 124.258 88.1328 124.349 87.893C124.431 87.6734 124.356 87.42 124.211 87.2376C124.066 87.0552 123.856 86.9336 123.647 86.8289C122.083 86.0654 120.208 85.9539 118.58 86.5755C118.097 86.7613 117.634 87.0079 117.218 87.3153L117.212 87.3187Z"></path>
<path fill="#FFDB00" d="M91.4198 91.0346C91.4198 91.0346 103.497 92.4973 112.151 89.8657C112.151 89.8657 115.144 89.9198 115.148 95.3822C115.148 100.733 112.962 101.348 112.962 101.348C112.962 101.348 102.48 100.601 90.707 104.939L91.4198 91.0346Z"></path>
<path fill="#004600" d="M93.1423 96.7942C93.4058 97.7739 93.7031 98.8177 94.4699 99.4832C95.078 100.014 95.9023 100.226 96.7029 100.341C98.3683 100.578 100.064 100.456 101.746 100.459C101.831 100.459 101.919 100.459 101.99 100.503C102.061 100.547 102.108 100.645 102.061 100.716C102.027 100.77 101.956 100.787 101.892 100.801C98.4662 101.48 95.0442 102.155 91.6188 102.834C91.3992 102.878 91.1357 102.909 90.9871 102.74C90.8689 102.608 90.879 102.405 90.8959 102.226C91.0479 100.669 91.1999 99.1116 91.3519 97.5543C91.4263 96.7807 91.504 96.0071 91.5783 95.2369C91.5985 95.0241 91.5445 94.389 91.781 94.2877C92.0309 94.1796 92.2607 94.6187 92.3654 94.7842C92.7539 95.3923 92.9532 96.1017 93.139 96.7908L93.1423 96.7942Z"></path>
<path fill="white" d="M94.4093 93.4228C94.3045 93.5342 94.3349 93.7234 94.4329 93.8416C94.5309 93.9599 94.6829 94.0139 94.8282 94.0646C96.4294 94.6085 98.1556 94.6152 99.8447 94.5646C101.79 94.5071 103.733 94.3821 105.669 94.193C106.206 94.1423 106.756 94.0781 107.229 93.8214C107.533 93.6559 107.817 93.3586 107.793 93.0106C107.749 92.4161 107.02 92.1526 106.52 92.1391C106.148 92.1289 105.78 92.2066 105.419 92.281C104.966 92.3722 104.51 92.46 104.054 92.5377C102.365 92.835 100.659 93.0478 98.9495 93.1795C98.0948 93.2471 97.2367 93.291 96.3787 93.3147C95.997 93.3248 95.5984 93.3653 95.22 93.3011C94.97 93.2572 94.612 93.2133 94.4126 93.4261L94.4093 93.4228Z"></path>
<path fill="white" d="M109.553 92.2101C109.482 92.4365 109.553 92.6966 109.712 92.8756C109.871 93.0547 110.104 93.156 110.34 93.1864C110.577 93.2168 110.82 93.1797 111.05 93.1121C111.195 93.0716 111.347 93.0141 111.452 92.9027C111.58 92.7675 111.624 92.5648 111.587 92.3824C111.55 92.2 111.438 92.0379 111.293 91.9196C111.033 91.7034 110.661 91.6257 110.337 91.7102C110.047 91.7845 109.655 91.8892 109.553 92.2101Z"></path>
<path fill="#FFDB00" d="M92.2373 96.3213C92.0684 91.1899 90.2307 86.7848 87.6599 84.5654C85.9641 82.9946 82.6063 81.792 82.6063 81.792L82.5928 83.2209C78.735 84.2986 75.9345 90.0346 76.1575 96.8482C76.3601 103.01 78.9714 108.128 82.3664 109.661L82.3428 112.472C87.9099 109.648 89.2612 107.415 89.2612 107.415C91.2002 104.888 92.3859 100.845 92.2373 96.3246V96.3213Z"></path>
<path fill="#004600" d="M87.3286 96.3484C87.0888 88.9909 84.5079 82.7886 81.0825 80.4307C81.0825 80.4307 81.0588 80.4138 81.0487 80.4071C81.0048 80.3767 80.9609 80.3463 80.9136 80.3192C78.2145 78.5491 75.1843 78.5525 75.1843 78.5525L75.2518 80.299C71.7318 82.6164 69.3368 89.224 69.5901 96.9294C69.8469 104.767 72.7588 111.29 76.5153 113.256L76.5862 115.134C80.0251 114.553 82.3425 112.469 82.3425 112.469C85.4909 109.79 87.5651 103.547 87.3286 96.345V96.3484Z"></path>
<path fill="#FFDB00" d="M74.0197 115.893C79.3993 115.717 83.4839 107.107 83.1428 96.6606C82.8018 86.2147 78.1642 77.8889 72.7846 78.0645C67.405 78.2402 63.3204 86.8507 63.6615 97.2967C64.0025 107.743 68.6401 116.068 74.0197 115.893Z"></path>
<path fill="#004600" d="M69.9609 117.742C75.6016 117.557 79.88 108.396 79.517 97.2786C79.1541 86.1613 74.2871 77.2983 68.6465 77.4825C63.0058 77.6666 58.7274 86.8282 59.0903 97.9455C59.4533 109.063 64.3202 117.926 69.9609 117.742Z"></path>
<path fill="#FFDB00" d="M66.1671 117.882C71.8078 117.698 76.0861 108.532 75.7229 97.4091C75.3598 86.2862 70.4927 77.4187 64.852 77.6028C59.2113 77.787 54.9331 86.9531 55.2962 98.076C55.6594 109.199 60.5264 118.066 66.1671 117.882Z"></path>
<path fill="#004600" d="M61.6067 116.976C66.5985 116.813 70.3681 108.198 70.0265 97.7332C69.6848 87.2685 65.3612 78.9174 60.3695 79.0804C55.3777 79.2434 51.608 87.8587 51.9497 98.3234C52.2914 108.788 56.615 117.139 61.6067 116.976Z"></path>
<path fill="#FFDB00" d="M57.8785 116.121C62.8367 115.959 66.5939 107.797 66.2704 97.8895C65.947 87.9824 61.6653 80.0824 56.7071 80.2442C51.7489 80.4061 47.9917 88.5686 48.3152 98.4757C48.6386 108.383 52.9203 116.283 57.8785 116.121Z"></path>
<path fill="#004600" d="M54.4447 114.367C58.6477 114.23 61.8217 106.978 61.5341 98.1688C61.2465 89.3601 57.6062 82.3304 53.4032 82.4676C49.2002 82.6048 46.0261 89.857 46.3137 98.6658C46.6013 107.475 50.2417 114.504 54.4447 114.367Z"></path>
<path fill="#FFDB00" d="M57.5944 98.5611C57.3275 90.4334 54.0913 83.9406 50.3619 84.0622C50.0646 84.0724 49.7741 84.123 49.4903 84.2142C47.0209 84.7277 42.751 89.5213 42.751 89.5213L45.0785 109.614C48.8113 113.962 51.3246 113.502 51.3246 113.502C55.0541 113.381 57.8613 106.692 57.5944 98.5611Z"></path>
<path fill="#004600" d="M47.4049 110.382C50.3093 110.047 52.0926 104.818 51.3882 98.7016C50.6838 92.5853 47.7583 87.8982 44.854 88.2327C41.9496 88.5672 40.1663 93.7966 40.8707 99.9129C41.5751 106.029 44.5006 110.716 47.4049 110.382Z"></path>
<path fill="#FFDB00" d="M46.9982 109.912C49.7097 109.6 51.3604 104.593 50.685 98.7284C50.0096 92.8642 47.2639 88.3634 44.5523 88.6757C41.8407 88.988 40.1901 93.9951 40.8655 99.8594C41.5409 105.724 44.2866 110.224 46.9982 109.912Z"></path>
<path fill="white" d="M48.1157 86.3325C48.0414 86.5385 48.2644 86.7243 48.4535 86.8358C50.3318 87.9675 51.7877 89.7781 52.4938 91.8523C52.6154 92.2104 52.7674 92.6293 53.1322 92.7374C53.4971 92.8455 53.8822 92.5414 53.9937 92.18C54.1085 91.8185 54.0207 91.4267 53.9193 91.0618C53.595 89.92 53.0917 88.8154 52.3282 87.9067C51.7573 87.2243 51.0378 86.6601 50.2203 86.3122C49.9129 86.1804 49.6055 86.0555 49.2677 86.0487C48.9805 86.0419 48.2441 85.9913 48.1191 86.3358L48.1157 86.3325Z"></path>
<path fill="white" d="M52.987 94.5379C52.8383 94.869 52.8687 95.2507 52.9296 95.6088C52.9667 95.8351 53.014 96.0614 53.1255 96.2641C53.237 96.4668 53.4194 96.6357 53.6423 96.683C53.9768 96.754 54.318 96.5344 54.5071 96.2472C54.747 95.8892 54.8179 95.423 54.6929 95.0109C54.4767 94.2981 53.4228 93.5718 52.9836 94.5345L52.987 94.5379Z"></path>
<path fill="white" d="M57.284 81.9746C57.3753 82.0117 57.4698 82.0388 57.5644 82.0692C58.3076 82.3225 58.9495 83.0184 59.3515 83.6738C59.7433 84.3089 60.0406 84.998 60.4426 85.623C60.6081 85.8763 60.7973 86.1297 61.0642 86.2783C61.331 86.4269 61.6857 86.4472 61.9222 86.2513C62.1283 86.0824 62.1958 85.7952 62.1891 85.5317C62.1756 84.971 61.885 84.4541 61.5607 83.9913C61.0709 83.2887 60.4831 82.6468 59.7737 82.1671C59.3751 81.8969 58.9765 81.5929 58.5373 81.3868C58.1792 81.2179 57.7773 81.1199 57.3854 81.1807C57.1895 81.2111 56.9733 81.3091 56.9361 81.5017C56.9057 81.6537 57.007 81.8091 57.1354 81.8969C57.1827 81.9307 57.2368 81.9543 57.2908 81.978L57.284 81.9746Z"></path>
<path fill="white" d="M89.6597 114.85C89.6901 115.036 89.8928 115.134 90.0414 115.225C90.2204 115.333 90.4029 115.418 90.5988 115.495C90.9467 115.637 91.3217 115.725 91.6865 115.81C92.0581 115.897 92.4297 115.958 92.7912 116.08C92.7169 116.056 92.7371 116.056 92.7979 116.083C92.8317 116.1 92.8689 116.117 92.9027 116.134C92.9702 116.168 93.0344 116.215 93.0986 116.252C93.0614 116.229 93.0344 116.195 93.0851 116.242C93.1121 116.269 93.1425 116.293 93.1662 116.32C93.2168 116.374 93.2303 116.364 93.1729 116.32C93.2033 116.343 93.227 116.401 93.2506 116.435C93.433 116.691 93.7844 116.837 94.0749 116.651C94.3688 116.462 94.433 116.134 94.2911 115.827C94.1053 115.428 93.6695 115.158 93.2743 115.006C92.852 114.843 92.3791 114.833 91.9365 114.81C91.5109 114.789 91.1562 114.725 90.7339 114.664C90.511 114.634 90.2914 114.61 90.0684 114.594C89.9029 114.58 89.6191 114.61 89.6597 114.847V114.85Z"></path>
<path fill="white" d="M90.1459 116.901C90.1324 117.1 90.2709 117.283 90.4364 117.377C90.5141 117.421 90.5952 117.458 90.6763 117.489C90.7202 117.505 90.7675 117.519 90.8148 117.529C90.8384 117.536 90.8621 117.543 90.8891 117.546C91.0006 117.566 91.1188 117.583 91.2269 117.546C91.3215 117.519 91.4026 117.472 91.4735 117.404L91.5614 117.293C91.612 117.205 91.6357 117.114 91.6391 117.012C91.6458 116.847 91.5816 116.735 91.4533 116.644C91.3249 116.553 91.183 116.489 91.031 116.462C90.8959 116.435 90.754 116.438 90.6155 116.462C90.504 116.485 90.352 116.519 90.2777 116.61C90.254 116.641 90.2304 116.668 90.2101 116.698C90.173 116.762 90.1527 116.833 90.1527 116.908L90.1459 116.901Z"></path>
<path fill="white" d="M61.7632 118.843C61.6585 118.884 61.547 118.857 61.4355 118.884C61.3274 118.907 61.2261 118.944 61.1213 118.982C60.9051 119.059 60.6856 119.13 60.4592 119.177C59.9795 119.282 59.5134 119.353 59.0472 119.424C58.5641 119.498 58.1047 119.6 57.6588 119.813C57.1926 120.035 56.8446 120.471 56.6859 120.958C56.5845 121.262 56.8007 121.64 57.1149 121.711C57.4527 121.789 57.7635 121.61 57.8682 121.282C57.8784 121.252 57.8885 121.225 57.8986 121.194L57.875 121.255C57.875 121.225 57.9256 121.164 57.9425 121.133C57.9662 121.096 57.9898 121.049 58.0202 121.019C57.9155 121.12 58.0202 121.025 58.0439 120.998C58.1081 120.931 58.179 120.867 58.2499 120.809C58.2635 120.799 58.3918 120.708 58.2803 120.785C58.3209 120.758 58.358 120.731 58.3986 120.704C58.608 120.576 58.6959 120.549 58.9222 120.471C59.135 120.397 59.3546 120.336 59.5708 120.265C60.0066 120.117 60.4187 119.917 60.8207 119.691C61.0065 119.586 61.1923 119.485 61.3713 119.373C61.4625 119.316 61.5537 119.252 61.6314 119.177C61.7058 119.107 61.7362 119.012 61.8172 118.948C61.8645 118.911 61.8139 118.826 61.7598 118.846L61.7632 118.843Z"></path>
<path fill="white" d="M48.1324 113.019C47.9872 112.962 47.8115 113.009 47.6663 113.033C47.5176 113.06 47.369 113.094 47.217 113.117C46.9738 113.154 46.6731 113.161 46.4062 113.151C46.0684 113.137 45.7509 113.188 45.4468 113.347C45.1698 113.492 44.8489 113.692 44.7104 113.979C44.5787 114.249 44.626 114.614 44.9165 114.766C45.1969 114.914 45.5381 114.833 45.7036 114.56C45.7374 114.506 45.734 114.509 45.6867 114.573C45.7036 114.55 45.7239 114.529 45.7441 114.509C45.7644 114.489 45.788 114.468 45.8117 114.452C45.7543 114.495 45.7509 114.499 45.8015 114.462C45.913 114.384 46.0211 114.3 46.1394 114.229C46.1664 114.212 46.1968 114.195 46.2272 114.178C46.2812 114.151 46.288 114.148 46.2407 114.171C46.2914 114.158 46.3387 114.144 46.3893 114.137C46.342 114.144 46.3488 114.141 46.4096 114.137C46.4704 114.131 46.5312 114.121 46.5886 114.114C46.6596 114.104 46.7272 114.094 46.7981 114.083C47.0616 114.036 47.3183 113.969 47.5683 113.877C47.8554 113.773 48.1966 113.651 48.3216 113.35C48.379 113.208 48.2574 113.073 48.1392 113.026L48.1324 113.019Z"></path>
<path fill="white" d="M80.2686 42.785C74.1441 43.6329 73.6374 44.322 73.0091 52.6288C72.3841 44.322 71.8774 43.6329 65.7495 42.785C71.874 41.9371 72.3807 41.2479 73.0091 32.9412C73.634 41.2479 74.1407 41.9371 80.2686 42.785Z"></path>
<path fill="white" d="M118.857 77.2013C112.732 78.0492 112.225 78.7383 111.597 87.0451C110.972 78.7383 110.465 78.0492 104.337 77.2013C110.462 76.3533 110.969 75.6642 111.597 67.3574C112.222 75.6642 112.729 76.3533 118.857 77.2013Z"></path>
<path fill="white" d="M42.7511 77.2013C36.6265 78.0492 36.1198 78.7383 35.4915 87.0451C34.8666 78.7383 34.3598 78.0492 28.2319 77.2013C34.3565 76.3533 34.8632 75.6642 35.4915 67.3574C36.1165 75.6642 36.6232 76.3533 42.7511 77.2013Z"></path>
</g>
<defs>
<clipPath id="clip0_8_22946">
<rect transform="translate(28.2354 32.9412)" fill="white" height="94.1176" width="104.245"></rect>
</clipPath>
</defs>
</svg>
