<svg xmlns="http://www.w3.org/2000/svg" fill="none" viewBox="0 0 160 160" height="160" width="160">
<circle fill="#E6BCFF" r="80" cy="80" cx="80"></circle>
<g clip-path="url(#clip0_8_23000)">
<path fill="#004600" d="M111.62 117.421C111.62 117.421 130.877 119.588 130.501 123.365C130.107 127.359 102.343 127.051 102.343 127.051C102.343 127.051 73.1517 127.252 73.6718 124.599C73.5275 123.274 78.2573 122.913 78.2763 121.854C78.3143 119.983 28.6438 122.393 31.4453 115.709C33.9734 109.684 71.6599 109.404 71.6599 109.404L111.616 117.424L111.62 117.421Z"></path>
<path fill="#D21774" d="M49.9017 47.1418C49.9017 47.1418 51.1696 44.4315 55.812 44.2873L61.5212 42.9625C61.5212 42.9625 67.3177 38.6958 72.5334 42.9625C72.5334 42.9625 75.4752 41.2315 78.6753 42.9625C81.0553 44.1051 82.0916 46.3485 82.0916 46.3485C82.0916 46.3485 85.7092 45.8133 88.0437 48.7855C88.0437 48.7855 89.8468 50.7177 89.7747 53.6444C89.7747 53.6444 95.9166 56.685 95.3662 64.0378L71.4971 110.626C71.4971 110.626 68.3274 110.451 65.8752 108.724C65.8752 108.724 61.5781 108.754 59.5625 106.101C59.5625 106.101 53.7964 106.591 50.5964 101.865C50.5964 101.865 41.4556 101.519 41.1102 92.3217C41.1102 92.3217 35.5605 89.4861 36.3121 83.7807C36.3121 83.7807 31.6848 80.5693 32.9109 73.4177C33.9206 67.5377 38.1721 66.118 38.1721 66.118C38.1721 66.118 37.356 62.8041 40.4725 57.615C43.589 52.4259 48.0606 53.1395 48.0606 53.1395L49.9017 47.1494V47.1418Z"></path>
<mask height="70" width="64" y="41" x="32" maskUnits="userSpaceOnUse" style="mask-type:luminance" id="mask0_8_23000">
<path fill="white" d="M49.9017 47.1418C49.9017 47.1418 51.1696 44.4315 55.812 44.2873L61.5212 42.9625C61.5212 42.9625 67.3177 38.6958 72.5334 42.9625C72.5334 42.9625 75.4752 41.2315 78.6753 42.9625C81.0553 44.1051 82.0916 46.3485 82.0916 46.3485C82.0916 46.3485 85.7092 45.8133 88.0437 48.7855C88.0437 48.7855 89.8468 50.7177 89.7747 53.6444C89.7747 53.6444 95.9166 56.685 95.3662 64.0378L71.4971 110.626C71.4971 110.626 68.3274 110.451 65.8752 108.724C65.8752 108.724 61.5781 108.754 59.5625 106.101C59.5625 106.101 53.7964 106.591 50.5964 101.865C50.5964 101.865 41.4556 101.519 41.1102 92.3217C41.1102 92.3217 35.5605 89.4861 36.3121 83.7807C36.3121 83.7807 31.6848 80.5693 32.9109 73.4177C33.9206 67.5377 38.1721 66.118 38.1721 66.118C38.1721 66.118 37.356 62.8041 40.4725 57.615C43.589 52.4259 48.0606 53.1395 48.0606 53.1395L49.9017 47.1494V47.1418Z"></path>
</mask>
<g mask="url(#mask0_8_23000)">
<path fill="#004600" d="M38.354 63.1191C38.6463 62.5421 39.1397 62.0904 39.675 61.726C40.4721 61.1832 41.387 60.8074 42.336 60.6365C42.8484 60.5454 43.4064 60.5189 43.8506 60.7922C45.2816 61.6728 44.0973 63.6088 43.3609 64.5084C43.1331 64.7856 42.8712 65.0361 42.5941 65.2676C42.0816 65.7004 41.5198 66.08 40.8935 66.3153C40.3013 66.5393 39.6978 66.5697 39.079 66.5089C38.7526 66.4786 38.4413 66.3229 38.2211 66.08C38.001 65.837 37.8757 65.5106 37.8795 65.1841C37.8795 64.8539 37.9858 64.5388 38.0465 64.2124C38.111 63.8366 38.1832 63.4608 38.3578 63.1191H38.354Z"></path>
<path fill="#004600" d="M51.9814 44.8264C53.143 46.3638 53.7048 48.2694 54.0427 50.1636C54.1717 50.8848 54.2704 51.6175 54.259 52.3501C54.2552 52.5968 54.2363 52.8474 54.1262 53.0675C54.0161 53.2877 53.7921 53.4661 53.5454 53.4547C53.2949 53.4433 53.0899 53.2497 52.9418 53.0447C52.6571 52.6538 52.4825 52.1982 52.2851 51.7579C51.8106 50.7102 51.1805 49.7346 50.7174 48.6794C50.2581 47.6241 49.9658 46.4397 50.2239 45.3161C50.2846 45.0466 50.3871 44.7733 50.6035 44.6063C50.9148 44.3671 51.4234 44.4544 51.636 44.7847"></path>
<path fill="#004600" d="M64.1856 41.4517C64.3261 41.7668 64.3944 42.1084 64.4475 42.4463C64.6639 43.828 64.6943 45.2401 64.5348 46.6295C64.4893 47.0204 64.421 47.4304 64.178 47.7417C63.973 47.9998 63.6693 48.163 63.3581 48.2731C63.0999 48.368 62.8001 48.4288 62.5533 48.3073C62.3408 48.2048 62.2079 47.9922 62.1092 47.7796C61.741 46.9977 61.6613 46.1132 61.6157 45.2515C61.5778 44.4923 61.5626 43.7255 61.7258 42.9853C61.87 42.3362 62.1623 41.7099 62.6179 41.2278C62.819 41.0152 63.062 40.8254 63.3505 40.7761C63.639 40.7267 63.973 40.8634 64.0717 41.1367"></path>
<path fill="#004600" d="M61.3194 68.7525C63.6729 69.0106 66.1289 69.0979 68.3344 68.2249C69.5871 67.7276 70.7069 66.938 71.9368 66.3876C74.2447 65.3551 76.8374 65.1995 79.3655 65.0628C78.0711 63.7304 76.6286 62.455 74.8711 61.8476C71.7204 60.7582 68.2888 62.0108 64.956 62.0488C63.3882 62.0678 61.8205 61.8096 60.3401 61.2934C59.224 60.9062 57.9865 60.371 56.9237 60.8796C56.0734 61.2858 55.6292 62.2728 55.5913 63.2104C55.5533 64.148 55.8418 65.0704 56.1037 65.9738C56.8819 68.6272 57.4779 71.3679 57.3602 74.1314C57.3109 75.3347 57.1249 76.557 57.3944 77.73C57.6867 79.0017 58.5218 80.1405 59.653 80.7972C60.2224 81.1274 60.788 81.6019 61.3042 82.0119C60.6058 81.283 60.5071 80.186 60.4122 79.1801C60.3552 78.5803 60.2983 77.9805 60.3325 77.377C60.3818 76.4546 60.6323 75.5549 60.8715 74.6629C61.3802 72.7535 61.7522 70.6847 61.3232 68.7525H61.3194Z"></path>
<path fill="#004600" d="M37.2645 83.2C37.2645 83.2 38.3387 81.9549 40.2861 81.3285C42.2334 80.7022 47.5971 78.4322 48.8081 72.5294C48.8081 72.5294 51.0135 65.6967 50.7972 65.5904C50.5808 65.4841 49.1117 65.1804 49.0017 65.3095C48.8916 65.4385 42.9926 72.3586 42.8408 72.6623C42.6889 72.966 37.7807 80.1859 37.6934 80.296C37.6061 80.4061 37.1961 82.0915 37.1316 82.1978C37.0671 82.3041 37.2645 83.2038 37.2645 83.2038V83.2Z"></path>
<path fill="#004600" d="M67.6288 101.318C66.5659 100.866 65.5524 100.149 64.6983 99.238C63.9049 98.3915 63.2254 97.3704 62.6864 96.205C62.5991 96.0152 62.3713 95.9317 62.1777 96.019C61.9841 96.1063 61.9044 96.3341 61.9917 96.5277C62.1512 96.8769 62.3372 97.2299 62.5384 97.564C62.7395 97.898 62.9863 98.2055 63.1381 98.5661C63.271 98.8888 63.3052 99.2266 63.2103 99.5645C63.1116 99.9099 62.9331 100.236 62.6902 100.502C62.4359 100.783 62.079 100.969 61.726 101.102C61.2022 101.303 60.629 101.364 60.071 101.311C59.8053 101.284 59.5319 101.242 59.2814 101.151C59.084 101.079 58.8638 101.185 58.7955 101.383C58.7234 101.58 58.8259 101.8 59.0271 101.872C59.0423 101.876 59.6268 102.081 60.4468 102.081C60.6442 102.081 60.8757 102.081 61.0579 102.184C61.2819 102.313 61.3578 102.597 61.3768 102.84C61.4223 103.474 61.1376 104.097 60.7884 104.613C60.6707 104.788 60.7163 105.027 60.8909 105.145C60.9554 105.19 61.0314 105.209 61.1035 105.209C61.225 105.209 61.3464 105.148 61.4223 105.042C61.6008 104.776 61.7526 104.492 61.8779 104.192C61.9386 104.044 61.9917 103.896 62.0373 103.744C62.079 103.615 62.1664 103.497 62.2916 103.44C62.4359 103.379 62.6181 103.414 62.6826 103.558C62.7623 103.729 62.8686 103.896 62.9711 104.055C63.1837 104.374 63.4304 104.67 63.7075 104.932C63.7759 104.997 63.8442 105.057 63.9125 105.114C63.9846 105.175 64.0719 105.205 64.1592 105.205C64.2693 105.205 64.3756 105.16 64.4515 105.069C64.5882 104.909 64.5692 104.666 64.406 104.53C63.8518 104.059 63.4228 103.444 63.1609 102.764C62.88 102.036 62.9673 101.06 63.7379 100.661C64.0416 100.502 64.4098 100.464 64.7362 100.57C64.8084 100.593 64.8767 100.62 64.945 100.654C65.3246 100.825 65.6397 101.087 65.9851 101.311C66.3305 101.535 66.695 101.736 67.067 101.91C67.1505 101.948 67.2378 101.986 67.3213 102.024C67.3707 102.043 67.42 102.055 67.4693 102.055C67.6174 102.055 67.7578 101.967 67.8224 101.823C67.9059 101.629 67.8148 101.406 67.6212 101.322L67.6288 101.318Z"></path>
<path fill="#004600" d="M60.7807 93.3238C60.7389 93.1151 60.5377 92.9822 60.3327 93.024C59.2737 93.2327 58.0552 93.0999 56.8101 92.6406C55.9408 92.3179 55.2082 91.8965 54.6312 91.3841C54.0466 90.8678 53.5797 90.2111 53.2722 89.4937C53.1887 89.3001 52.9647 89.209 52.7711 89.2925C52.5775 89.376 52.4864 89.6 52.57 89.7936C52.6952 90.0859 52.8433 90.3668 53.0103 90.6363C53.1659 90.8868 53.3405 91.1525 53.4165 91.4486C53.5038 91.7827 53.4582 92.1395 53.3747 92.4697C53.2798 92.8493 53.128 93.2138 52.9192 93.5478C52.4485 94.3108 51.7956 94.7891 50.8883 94.8954C50.6112 94.9257 50.3341 94.9219 50.0608 94.8726C49.852 94.8346 49.6546 94.9713 49.6167 95.1801C49.5787 95.3889 49.7154 95.5862 49.9242 95.6242C50.1291 95.6622 50.3341 95.6811 50.5467 95.6811C51.1427 95.6811 51.7045 95.5597 52.1524 96.0531C52.4295 96.3606 52.5775 96.7136 52.7294 97.0932C52.8888 97.4918 53.0179 97.936 53.2267 98.3118C53.4013 98.6268 53.5949 98.9343 53.8112 99.2228C54.2516 99.8112 54.783 100.324 55.3866 100.741C55.4473 100.783 55.508 100.825 55.5688 100.863C55.6333 100.904 55.7054 100.923 55.7776 100.923C55.9028 100.923 56.0243 100.863 56.1002 100.749C56.2141 100.57 56.1648 100.335 55.9863 100.221C55.0563 99.6176 54.3085 98.7749 53.8264 97.7765C53.5076 97.116 53.2684 96.3796 53.3026 95.6394C53.3254 95.0966 53.5 94.5651 53.7885 94.1058C54.0504 93.6807 54.4604 93.1682 54.9652 93.0391C55.6751 92.8569 56.4001 93.3276 57.0568 93.5288C57.7894 93.7528 58.5524 93.8856 59.323 93.8856C59.7254 93.8856 60.1164 93.8477 60.4922 93.7756C60.701 93.7338 60.8338 93.5326 60.7921 93.3276L60.7807 93.3238Z"></path>
<path fill="#004600" d="M47.085 94.1894C47.085 94.1894 47.0736 94.1818 47.0698 94.1742C46.0981 93.2139 45.392 92.0333 45.0504 90.7085C45.0048 90.5263 44.8302 90.401 44.6366 90.4238C44.4278 90.4466 44.276 90.6364 44.2988 90.8452C44.3443 91.2513 44.4354 91.6499 44.5721 92.0333C44.6366 92.2193 44.7239 92.3977 44.7998 92.5837C44.8606 92.7318 44.8074 92.914 44.6898 93.0203C44.4051 93.2898 43.8736 93.1379 43.5472 93.0355C43.346 92.9709 43.1334 93.0848 43.0689 93.286C43.0043 93.4872 43.1182 93.7035 43.3194 93.7643C43.6876 93.8782 44.0634 93.9351 44.4354 93.9351C44.6898 93.9351 44.9403 93.8782 45.1946 93.8782C45.3275 93.8782 45.4603 93.8782 45.5818 93.9313C45.7868 94.0148 45.9197 94.2046 46.0791 94.3527C46.2461 94.5083 46.4245 94.6487 46.6105 94.7816C47.0015 95.0549 47.4418 94.5121 47.0888 94.1856L47.085 94.1894Z"></path>
<path fill="#004600" d="M50.4138 102.639C50.3683 102.639 50.3227 102.639 50.2772 102.639C50.0646 102.632 49.9014 102.453 49.9089 102.244C49.9165 102.032 50.0949 101.872 50.3037 101.876C51.2451 101.914 52.1827 101.47 52.7559 100.726C52.885 100.559 53.1241 100.525 53.2912 100.654C53.4582 100.783 53.4924 101.022 53.3633 101.189C52.6724 102.093 51.5526 102.643 50.4138 102.643V102.639Z"></path>
<path fill="#004600" d="M64.8198 109.389C64.6338 109.389 64.4705 109.252 64.444 109.062C64.4136 108.853 64.5579 108.66 64.7666 108.629C65.1538 108.572 65.5486 108.333 65.8485 107.973C66.1066 107.658 66.3154 107.248 66.4824 106.709C66.547 106.507 66.7595 106.393 66.9607 106.458C67.1619 106.523 67.2758 106.735 67.2113 106.936C67.0139 107.57 66.7595 108.071 66.4331 108.462C66.0079 108.975 65.4537 109.305 64.8729 109.385C64.8539 109.385 64.835 109.389 64.8198 109.389Z"></path>
<path fill="#004600" d="M45.069 83.9401C43.8618 83.739 42.6889 82.976 41.9752 81.9055C41.8614 81.7309 41.626 81.6777 41.4476 81.7954C41.2692 81.9131 41.235 82.1446 41.3337 82.3268C41.6943 82.9798 42.1916 83.5529 42.78 84.0161C43.0267 84.2097 43.2886 84.3843 43.5658 84.5399C43.8922 84.7183 44.0365 85.1055 43.9226 85.4585C43.6796 86.2101 43.5658 86.9997 43.5885 87.7931C43.6113 88.2372 43.6227 88.6396 43.7973 89.0761C43.9947 89.5164 44.6514 89.2735 44.5147 88.8104C44.4198 88.5143 44.4388 88.1233 44.4464 87.8007C44.4654 87.44 44.5185 87.0832 44.5983 86.734C44.7577 86.0355 45.05 85.375 45.4334 84.7866C45.6573 84.4678 45.4562 83.9971 45.069 83.9401Z"></path>
<path fill="#004600" d="M36.1562 83.6972C37.1887 84.4451 38.5173 84.8171 39.8155 84.6994C40.0243 84.6804 40.2141 84.836 40.2331 85.0448C40.2521 85.2498 40.1078 85.4282 39.9066 85.4586C38.43 85.6712 36.8775 85.3371 35.5982 84.5134C35.0478 84.1338 35.602 83.3214 36.1562 83.6972Z"></path>
<path fill="#004600" d="M55.0262 80.9415C54.8895 80.9073 54.7415 80.9377 54.6314 81.0212C53.8494 81.3097 52.9764 81.3894 52.1564 81.2452C51.2834 81.0895 50.4406 80.672 49.7877 80.0684C49.4992 79.8027 49.2335 79.4876 48.9754 79.184C48.8425 79.0245 48.6034 78.9866 48.4402 79.108C48.2655 79.2409 48.239 79.4914 48.3794 79.6585C48.5085 79.8103 48.63 79.9659 48.759 80.114C48.8767 80.2506 49.0209 80.3645 49.131 80.505C49.3322 80.7555 49.4157 81.0744 49.3854 81.3932C49.355 81.7121 49.1918 81.9816 48.9412 82.1638C48.3149 82.6193 47.6544 82.9799 46.9104 83.2115C46.713 83.2722 46.5801 83.4696 46.6257 83.667C46.6674 83.8454 46.8269 83.9631 46.9977 83.9631C47.0356 83.9631 47.0736 83.9593 47.1116 83.9441C47.8214 83.7278 48.5009 83.4089 49.1082 82.9837C49.3284 82.8281 49.541 82.6611 49.7384 82.4827C49.9358 82.3043 50.1142 82.0917 50.4065 82.0803C50.5773 82.0727 50.7481 82.1448 50.8582 82.2701C51.1163 82.57 50.9986 83.0331 50.9911 83.3899C50.9835 83.8075 50.9986 84.225 51.0366 84.6426C51.086 85.1664 51.1733 85.6865 51.3137 86.1951C51.3593 86.3622 51.5149 86.4723 51.6819 86.4723C51.7351 86.4723 51.792 86.4609 51.8452 86.4381C52.0198 86.3584 52.0957 86.1534 52.0463 85.9712C52.0084 85.8383 51.978 85.7055 51.9476 85.5688C51.7654 84.7375 51.6743 83.8606 51.9059 83.0293C51.9325 82.9382 51.959 82.8509 51.997 82.7674C52.1374 82.4637 52.4601 82.179 52.7941 82.1107C52.8435 82.0993 52.8928 82.0955 52.9422 82.0917C53.132 82.0765 53.3218 82.0689 53.5078 82.0499C53.9254 82.0082 54.3391 81.9209 54.7377 81.788C54.8478 81.75 54.9579 81.7083 55.0679 81.6627C55.2539 81.5868 55.3526 81.378 55.2805 81.1769C55.2388 81.0592 55.1363 80.9681 55.0148 80.9415H55.0262Z"></path>
<path fill="#004600" d="M59.8358 80.1975C59.6308 80.1975 59.46 80.0342 59.4524 79.8255C59.4448 79.6129 59.6118 79.4383 59.8244 79.4307C60.7051 79.4041 61.5857 79.0549 62.2424 78.4703C62.3981 78.3298 62.641 78.345 62.7815 78.5007C62.9219 78.6601 62.9067 78.8992 62.7511 79.0397C61.9615 79.7419 60.9025 80.1633 59.8472 80.1937C59.8434 80.1937 59.8396 80.1937 59.8358 80.1937V80.1975Z"></path>
<path fill="#004600" d="M70.8362 70.2255C70.7223 70.0471 70.4869 69.9939 70.3085 70.1078C70.1339 70.2179 69.9517 70.3204 69.7657 70.4153C69.2874 70.6544 68.7787 70.829 68.2549 70.9391C67.4729 71.1023 66.5619 70.9391 65.9735 70.3621C65.6812 70.0736 65.4952 69.6864 65.2675 69.3448C65.0777 69.0639 64.8689 68.7944 64.6373 68.5439C64.4931 68.3882 64.2539 68.3806 64.0983 68.5211C63.9427 68.6653 63.9351 68.9045 64.0755 69.0601C65.1422 70.2103 65.7723 71.8805 65.8103 73.6419C65.8255 74.3251 65.7496 74.8869 65.5749 75.3614C65.3889 75.8663 65.0701 76.3332 64.7626 76.7887C64.6449 76.9633 64.6905 77.2025 64.8651 77.3202C64.9296 77.3657 65.0055 77.3847 65.0777 77.3847C65.1991 77.3847 65.3206 77.3278 65.3927 77.2177C65.4649 77.1114 65.537 77.0051 65.6091 76.895C65.7116 76.7394 65.7989 76.5762 65.9166 76.4357C66.0343 76.2915 66.1785 76.1548 66.3379 76.0599C66.5505 75.9346 66.7972 75.8853 67.0402 75.8929C67.4805 75.9043 67.9474 76.0485 68.327 76.2687C68.5282 76.3826 68.7218 76.5116 68.9116 76.6483C69.1052 76.7887 69.2988 76.9254 69.4886 77.0658C69.6253 77.1645 69.7771 77.3354 69.9669 77.286C70.1111 77.248 70.2022 77.0924 70.2174 76.952C70.2326 76.8001 70.1643 76.6597 70.0466 76.5648C69.5569 76.1624 69.0217 75.7524 68.4105 75.4488C68.2321 75.3614 68.0499 75.2741 67.8639 75.202C67.6551 75.1223 67.4274 75.0881 67.2224 75.0008C67.0478 74.9249 66.8997 74.8072 66.7897 74.6516C66.4784 74.1999 66.5467 73.5697 66.6985 73.0725C66.8086 72.708 67.044 72.3892 67.3477 72.1538C67.7728 71.8236 68.2739 71.7325 68.7787 71.5996C69.2988 71.4592 69.8037 71.2656 70.2782 71.0112C70.4262 70.9315 70.5704 70.848 70.7109 70.7607C70.8893 70.6468 70.9425 70.4115 70.8286 70.2331L70.8362 70.2255Z"></path>
<path fill="#004600" d="M75.6041 80.7402C74.7842 80.2923 73.8238 80.2506 73.1595 79.5293C72.8938 79.2408 72.7495 78.8878 72.5483 78.5537C72.4383 78.3753 72.2029 78.3184 72.0245 78.4285C71.8461 78.5386 71.7891 78.7739 71.8992 78.9523C71.9106 78.9713 72.313 79.6432 72.6546 80.6264C72.6584 80.6491 72.666 80.6719 72.6774 80.6909C73.2202 82.3004 73.5733 84.6994 71.8157 86.4684C70.191 88.1842 68.1868 88.6625 65.8522 87.8881C64.0605 87.2921 62.7357 86.1533 62.7243 86.1419C62.5649 86.0053 62.3258 86.0204 62.1853 86.1799C62.0449 86.3393 62.0638 86.5785 62.2233 86.7189C62.5118 86.9732 62.8382 87.1706 63.1457 87.3984C63.567 87.7097 63.8631 88.2221 63.9884 88.727C64.0302 88.8902 64.0377 89.0421 64.0377 89.2053C64.0453 90.01 63.6126 90.6781 63.0774 91.2437C62.9331 91.3956 62.9369 91.6385 63.0925 91.7828C63.1647 91.8549 63.2596 91.889 63.3545 91.889C63.457 91.889 63.5557 91.8511 63.6316 91.7714C63.9087 91.4791 64.163 91.1678 64.387 90.83C64.6109 90.4921 64.7628 90.1581 65.0285 89.862C65.0854 89.7975 65.1462 89.7367 65.2107 89.6798C65.3512 89.5545 65.5068 89.4406 65.67 89.3533C65.8332 89.266 66.0117 89.2167 66.1939 89.1673C66.5962 89.0572 67.0138 89.0231 67.4276 89.0155C67.5908 89.0117 67.754 89.0117 67.9134 89.0117C69.5913 89.0117 71.1021 88.336 72.3623 87.0036C73.3189 85.9939 73.8466 84.745 73.8883 83.3481C73.8959 83.1127 73.8883 82.8774 73.8731 82.642C73.8542 82.3915 73.8086 82.1637 73.8618 81.9056C73.8959 81.7348 73.9756 81.5678 74.1047 81.4501C74.1692 81.3931 74.2414 81.3514 74.3173 81.3096C74.6741 81.1236 74.9057 81.2223 75.2359 81.4045C75.2928 81.4349 75.3574 81.4501 75.4181 81.4501C75.5548 81.4501 75.6838 81.378 75.7522 81.2527C75.8547 81.0667 75.7863 80.8351 75.6003 80.7326L75.6041 80.7402Z"></path>
<path fill="#004600" d="M82.4405 74.5073C82.2393 74.5073 82.0723 74.3517 82.0609 74.1467C81.966 72.598 81.2827 71.0834 80.1857 69.9901C80.0377 69.8421 80.0339 69.5991 80.1857 69.4511C80.3337 69.303 80.5767 69.2992 80.7247 69.4511C81.9546 70.6772 82.7176 72.3702 82.8239 74.105C82.8353 74.3137 82.6759 74.4959 82.4671 74.5073C82.4595 74.5073 82.4519 74.5073 82.4443 74.5073H82.4405Z"></path>
<path fill="#004600" d="M73.824 59.5473C73.7594 59.5473 73.6949 59.5321 73.6342 59.4979C73.452 59.3916 73.3874 59.1601 73.4937 58.9779C74.196 57.7556 75.3651 56.7838 76.6975 56.3207C76.8949 56.2523 77.1151 56.3548 77.1834 56.556C77.2517 56.7534 77.1492 56.9736 76.9481 57.0419C75.7865 57.4481 74.7692 58.2946 74.1542 59.3613C74.0821 59.4827 73.9568 59.5511 73.824 59.5511V59.5473Z"></path>
<path fill="#004600" d="M84.1451 50.8887C83.9021 50.4673 83.6212 50.0688 83.3024 49.7005C82.9835 49.3323 82.7937 48.9831 82.733 48.5048C82.6191 47.6279 82.8772 46.7625 82.7064 45.8856C82.6646 45.6768 82.4673 45.5439 82.2585 45.5819C82.0497 45.6199 81.9168 45.821 81.9548 46.0298C82.0155 46.3563 82.0231 46.6676 81.9244 46.9864C81.9017 47.0547 81.8789 47.1231 81.8447 47.1876C81.7498 47.366 81.5866 47.5065 81.4006 47.59C81.3854 47.5976 81.3702 47.6014 81.355 47.609C80.8464 47.8063 80.3643 47.5254 79.8974 47.3584C79.3773 47.1686 78.8345 47.0358 78.2841 46.9636C78.0753 46.9371 77.8817 47.0851 77.8551 47.2939C77.8286 47.5027 77.9766 47.6963 78.1854 47.7228C80.3567 48.0037 82.3875 49.3665 83.477 51.2759C83.5491 51.3974 83.6782 51.4695 83.8072 51.4695C83.8718 51.4695 83.9363 51.4543 83.997 51.4201C84.1792 51.3138 84.2438 51.0823 84.1375 50.9001L84.1451 50.8887Z"></path>
<path fill="#004600" d="M89.7249 55.6943C89.6718 55.6943 89.6224 55.6829 89.5693 55.6602C89.3757 55.5766 89.2884 55.3489 89.3757 55.1553C89.649 54.5365 89.7895 53.8533 89.7781 53.1814C89.7781 52.9688 89.9451 52.798 90.1539 52.7942C90.1539 52.7942 90.1539 52.7942 90.1577 52.7942C90.3664 52.7942 90.5373 52.9612 90.5411 53.17C90.5524 53.9558 90.3892 54.7491 90.0742 55.4666C90.0096 55.6108 89.873 55.6943 89.7249 55.6943Z"></path>
<path fill="#004600" d="M67.7538 44.7125C67.6285 44.7125 67.5032 44.6518 67.4311 44.5379C67.3172 44.3595 67.3704 44.1242 67.5488 44.0103C68.2776 43.5434 69.033 43.0613 69.8453 42.6893C70.7754 42.2603 71.6674 42.0364 72.4987 42.0174C72.7075 42.0136 72.8859 42.1806 72.8897 42.3894C72.8935 42.602 72.7265 42.7766 72.5177 42.7804C71.7927 42.7956 71.0031 43.0006 70.168 43.384C69.405 43.737 68.6724 44.2039 67.9625 44.6556C67.898 44.6974 67.8259 44.7163 67.7576 44.7163L67.7538 44.7125Z"></path>
<path fill="#004600" d="M77.4984 67.7276C77.0505 67.5226 76.5798 67.3822 76.1015 67.2683C75.756 67.1848 75.4562 67.0102 75.3195 66.6647C75.198 66.3611 75.2398 66.0232 75.2891 65.7082C75.3157 65.5259 75.3499 65.3475 75.3688 65.1653C75.3878 64.9565 75.2322 64.7705 75.0234 64.7516C74.8146 64.7326 74.6286 64.8882 74.6096 65.097C74.5413 65.8638 74.2566 66.604 73.8087 67.2228C73.7897 67.2417 73.7745 67.2645 73.7631 67.2873C73.4898 67.6517 73.1596 67.9744 72.78 68.2325C72.6054 68.3502 72.5636 68.5893 72.6813 68.7639C72.7534 68.8702 72.8749 68.9309 72.9964 68.9309C73.0723 68.9309 73.1482 68.9082 73.2127 68.8626C73.3911 68.7411 73.5582 68.6083 73.7404 68.4906C73.9226 68.3729 74.1314 68.278 74.3477 68.2173C74.7501 68.1034 75.1753 68.0996 75.589 68.1148C76.0028 68.13 76.4203 68.1793 76.8227 68.2894C76.948 68.3236 77.0657 68.3653 77.1833 68.4185C77.2365 68.4413 77.2896 68.4527 77.3428 68.4527C77.487 68.4527 77.6275 68.3691 77.692 68.2287C77.7793 68.0351 77.692 67.8111 77.5022 67.7238L77.4984 67.7276Z"></path>
<path fill="#004600" d="M87.4894 62.8422C87.2313 62.417 87.0832 61.9197 87.0415 61.4339C86.9997 60.9897 87.068 60.5228 87.2806 60.1242C87.3793 59.9382 87.4476 59.7788 87.5957 59.6232C87.7551 59.4561 87.9373 59.3119 88.1044 59.1525C88.5181 58.7501 88.8825 58.287 89.0913 57.7442C89.1672 57.5468 89.0685 57.3266 88.8711 57.2507C88.6737 57.1748 88.4536 57.2735 88.3777 57.4708C88.1461 58.0744 87.6716 58.6286 87.0794 58.9057C86.9238 58.9779 86.753 59.031 86.586 59.0158C86.3924 59.0006 86.2405 58.8981 86.1342 58.7425C86.0052 58.5565 85.8989 58.3553 85.7698 58.1655C85.6559 58.0061 85.5383 57.8504 85.4092 57.6986C85.265 57.5278 85.0941 57.3835 84.9689 57.1937C84.8436 57.0077 84.7487 56.8028 84.6918 56.5902C84.5627 56.1043 84.6652 55.6184 84.7525 55.1325C84.8246 54.7453 84.817 54.324 84.7753 53.9368C84.7525 53.728 84.5627 53.5762 84.3539 53.5989C84.1451 53.6217 83.9933 53.8115 84.0161 54.0203C84.0692 54.5062 84.0502 55.1097 83.7579 55.5273C83.5795 55.7816 83.2834 55.9411 82.9722 55.9638C82.809 55.979 82.6609 55.9449 82.5015 55.9031C82.3079 55.8538 82.0991 55.8272 81.8979 55.8082C81.6512 55.7854 81.3968 55.7854 81.1539 55.8272C80.9451 55.8613 80.8085 56.0625 80.8426 56.2675C80.8806 56.4763 81.078 56.6168 81.283 56.5788C81.3133 56.575 84.1262 56.1309 85.8002 59.756C87.4666 63.3698 85.7015 65.1273 85.6256 65.1995C85.4699 65.3437 85.4623 65.5867 85.6066 65.7385C85.6825 65.8182 85.785 65.86 85.8837 65.86C85.9786 65.86 86.0697 65.8258 86.1456 65.7575C86.4341 65.488 86.5936 65.1273 86.8669 64.8464C87.0187 64.687 87.2161 64.5617 87.4363 64.5314C87.5767 64.5124 87.721 64.5352 87.8576 64.5769C88.4422 64.7591 88.7193 65.2906 88.9622 65.8144C89.2318 66.3876 89.3912 67.014 89.4026 67.6517L90.1656 67.6365C90.2035 67.6365 90.0555 66.6761 90.0365 66.5888C89.9568 66.2396 89.8429 65.9017 89.6987 65.5753C89.4975 65.1236 89.2356 64.6984 88.9205 64.3188C88.7724 64.1404 88.613 63.9658 88.446 63.8063C88.279 63.6469 88.0778 63.5292 87.9108 63.3736C87.7475 63.2218 87.6033 63.0434 87.4856 62.8498L87.4894 62.8422Z"></path>
<path fill="#D5ADD1" d="M39.3105 87.4097C39.2308 87.5426 39.208 87.7058 39.208 87.8614C39.208 88.4726 39.5041 89.0534 39.9027 89.5165C39.9748 89.6 40.0507 89.6797 40.1456 89.7291C40.2785 89.7974 40.4417 89.805 40.5784 89.748C40.715 89.6911 40.8213 89.5658 40.8593 89.4216C40.8858 89.3153 40.8782 89.2052 40.8669 89.0989C40.8023 88.5523 40.5897 88.0209 40.2633 87.5767C40.0469 87.2845 39.5686 86.9922 39.3105 87.4173V87.4097Z"></path>
<path fill="#D5ADD1" d="M50.1292 77.3655C50.0078 77.4946 49.9508 77.673 49.947 77.8476C49.9432 78.0222 49.985 78.1968 50.0381 78.3639C50.152 78.7131 50.3342 79.0547 50.6341 79.2673C50.7973 79.3812 51.0023 79.4495 51.1997 79.4191C51.3971 79.3888 51.5793 79.2331 51.6135 79.0358C51.6324 78.9067 51.5907 78.7738 51.5451 78.6524C51.4426 78.3601 51.325 78.0678 51.1428 77.8172C50.9643 77.5705 50.4253 77.0542 50.1254 77.3655H50.1292Z"></path>
<path fill="#D5ADD1" d="M47.9044 91.1237C48.5593 90.9688 48.8284 89.7368 48.5055 88.3719C48.1826 87.0071 47.39 86.0262 46.7351 86.1811C46.0802 86.3361 45.8111 87.5681 46.134 88.933C46.4569 90.2978 47.2495 91.2787 47.9044 91.1237Z"></path>
<path fill="#D5ADD1" d="M57.0145 90.0235C57.5283 89.6754 57.3823 88.5631 56.6884 87.5391C55.9946 86.5151 55.0157 85.9672 54.502 86.3153C53.9882 86.6634 54.1342 87.7757 54.828 88.7997C55.5219 89.8237 56.5008 90.3716 57.0145 90.0235Z"></path>
<path fill="#D5ADD1" d="M58.5169 98.8891C58.7759 98.4898 58.3455 97.751 57.5557 97.2389C56.7659 96.7267 55.9157 96.6353 55.6568 97.0346C55.3979 97.4339 55.8283 98.1727 56.6181 98.6849C57.4079 99.197 58.258 99.2884 58.5169 98.8891Z"></path>
<path fill="#D5ADD1" d="M69.5508 105.169C69.6616 104.824 69.1964 104.366 68.5117 104.146C67.8269 103.927 67.1821 104.028 67.0712 104.374C66.9604 104.719 67.4257 105.177 68.1104 105.397C68.7951 105.617 69.44 105.515 69.5508 105.169Z"></path>
<path fill="#D5ADD1" d="M46.8389 98.9247C47.0464 98.6046 46.7427 98.039 46.1605 97.6614C45.5782 97.2839 44.9379 97.2374 44.7304 97.5575C44.5228 97.8777 44.8265 98.4433 45.4087 98.8208C45.991 99.1983 46.6313 99.2449 46.8389 98.9247Z"></path>
<path fill="#D5ADD1" d="M57.1848 104.556C57.2964 104.278 56.9783 103.888 56.4743 103.686C55.9703 103.484 55.4713 103.546 55.3597 103.824C55.2482 104.102 55.5663 104.492 56.0702 104.694C56.5742 104.896 57.0732 104.834 57.1848 104.556Z"></path>
<path fill="#D5ADD1" d="M64.4231 107.325C64.4988 107.136 64.2826 106.872 63.9401 106.735C63.5976 106.597 63.2586 106.639 63.1829 106.828C63.1073 107.016 63.3235 107.281 63.666 107.418C64.0085 107.555 64.3475 107.514 64.4231 107.325Z"></path>
<path fill="#D5ADD1" d="M69.8827 100.092C70.2485 99.5907 69.735 98.5932 68.7359 97.8641C67.7367 97.1349 66.6302 96.9502 66.2644 97.4515C65.8986 97.9528 66.412 98.9502 67.4112 99.6793C68.4103 100.408 69.5169 100.593 69.8827 100.092Z"></path>
<path fill="#D5ADD1" d="M70.5569 80.909C70.9331 80.4155 70.4407 79.4075 69.457 78.6576C68.4733 77.9077 67.3709 77.6998 66.9947 78.1934C66.6185 78.6869 67.1109 79.6948 68.0946 80.4447C69.0782 81.1946 70.1806 81.4025 70.5569 80.909Z"></path>
<path fill="#D5ADD1" d="M80.8008 53.182C81.3857 52.7673 81.2798 51.6131 80.5644 50.6041C79.8489 49.5951 78.7948 49.1134 78.2099 49.5281C77.625 49.9428 77.7309 51.097 78.4463 52.106C79.1618 53.115 80.2159 53.5967 80.8008 53.182Z"></path>
<path fill="#D5ADD1" d="M45.2048 81.8291C45.4026 81.5581 45.2457 81.107 44.8545 80.8216C44.4634 80.5361 43.9859 80.5243 43.7882 80.7953C43.5905 81.0662 43.7473 81.5173 44.1385 81.8028C44.5297 82.0883 45.0071 82.1 45.2048 81.8291Z"></path>
<path fill="#D5ADD1" d="M63.245 72.9167C63.7157 72.7785 63.9254 72.0811 63.7134 71.3589C63.5014 70.6368 62.948 70.1634 62.4773 70.3016C62.0066 70.4397 61.7969 71.1372 62.0089 71.8593C62.2208 72.5815 62.7743 73.0549 63.245 72.9167Z"></path>
<path fill="#D5ADD1" d="M78.8272 72.606C79.22 72.2132 78.9725 71.3287 78.2743 70.6305C77.576 69.9322 76.6915 69.6847 76.2987 70.0775C75.9059 70.4704 76.1534 71.3548 76.8516 72.0531C77.5499 72.7513 78.4343 72.9988 78.8272 72.606Z"></path>
<path fill="#D5ADD1" d="M81.6017 58.898C81.5182 59.2283 81.6169 59.5775 81.7725 59.8774C81.9282 60.1773 82.137 60.4506 82.2964 60.7467C82.452 61.0428 82.5621 61.3616 82.7063 61.6615C82.8506 61.9614 83.0442 62.2537 83.3251 62.4321C83.4352 62.5042 83.5642 62.5574 83.6971 62.5612C83.8565 62.5612 84.0084 62.4928 84.1336 62.3903C84.2893 62.2651 84.4069 62.0943 84.4601 61.9045C84.5056 61.7374 84.4981 61.5628 84.4791 61.392C84.3842 60.4316 83.9628 59.5092 83.3023 58.8031C83.0442 58.5298 82.7291 58.2907 82.3381 58.3059C81.9851 58.3172 81.689 58.545 81.5979 58.898H81.6017Z"></path>
<path fill="#D5ADD1" d="M91.023 58.0668C90.9584 58.3249 91.0381 58.602 91.1596 58.8373C91.2811 59.0727 91.4481 59.2891 91.5734 59.5244C91.6986 59.756 91.7822 60.0065 91.896 60.2457C92.0099 60.4848 92.1618 60.7126 92.3857 60.853C92.473 60.91 92.5755 60.9517 92.678 60.9517C92.8033 60.9517 92.9247 60.8948 93.0196 60.8188C93.1411 60.7202 93.236 60.5873 93.2778 60.4355C93.3119 60.3064 93.3081 60.1659 93.293 60.0331C93.217 59.2777 92.8868 58.5488 92.3667 57.9946C92.1656 57.7783 91.915 57.5885 91.6037 57.5999C91.3228 57.6112 91.0913 57.7897 91.023 58.0668Z"></path>
<path fill="#D5ADD1" d="M86.3277 50.4142C86.3809 50.6685 86.5745 50.8621 86.7263 51.0709C86.8743 51.2683 86.992 51.4847 87.0793 51.7124C87.1742 51.963 87.2691 52.2666 87.5235 52.3501C87.755 52.4261 88.0093 52.259 88.1118 52.0389C88.2143 51.8187 88.1953 51.5606 88.1498 51.3252C88.0549 50.7976 87.8347 50.2699 87.4323 49.9169C87.2236 49.7347 86.8971 49.5449 86.6314 49.7043C86.396 49.8448 86.267 50.1485 86.3239 50.4142H86.3277Z"></path>
<path fill="#D5ADD1" d="M76.2038 43.7711C76.1773 43.9267 76.2114 44.0899 76.2798 44.2342C76.4582 44.6138 76.8302 44.8605 77.2136 45.0275C77.4224 45.1186 77.6387 45.1908 77.8513 45.2705C78.0525 45.3464 78.2385 45.4603 78.4511 45.5248C78.5991 45.5704 78.7547 45.5969 78.9104 45.5742C79.066 45.5514 79.2141 45.4679 79.2862 45.3312C79.3811 45.1566 79.3355 44.9364 79.2558 44.7504C78.9332 43.995 78.1854 43.7141 77.4603 43.4598C77.0086 43.3004 76.3253 43.103 76.2076 43.7673L76.2038 43.7711Z"></path>
<path fill="#D5ADD1" d="M67.5108 42.3894C67.4538 42.2945 67.3589 42.2034 67.2602 42.1541C67.1691 42.1047 67.0628 42.0895 66.9565 42.0781C66.7705 42.0516 66.5807 42.0288 66.3909 42.0478C66.3226 42.0554 66.2543 42.0668 66.1898 42.0819C66.0531 42.1123 65.9164 42.1541 65.8102 42.2414C65.6811 42.3477 65.5444 42.6058 65.6355 42.769C65.7266 42.9322 65.9506 43.012 66.1328 43.0233C66.3264 43.0347 66.5238 42.9968 66.7174 43.0006C66.8503 43.0006 66.9831 43.0271 67.1122 43.0233C67.2412 43.0195 67.3817 42.9816 67.4728 42.8867C67.5943 42.7576 67.5981 42.545 67.5108 42.3932V42.3894Z"></path>
</g>
<path fill="#004600" d="M69.4584 56.6396C70.5099 56.2486 71.307 55.3717 71.9675 54.4645C73.243 52.7107 74.1844 50.6989 74.6247 48.5731C75.065 46.4474 74.9967 44.2077 74.34 42.1389C73.801 44.2267 72.9355 46.1513 71.8498 48.0113C71.0944 49.3057 70.1948 50.5508 68.9801 51.4239C67.9589 52.1603 66.7556 52.6006 65.6662 53.2346C64.5767 53.8685 63.548 54.7833 63.2519 56.0056C63.2026 56.2144 63.176 56.4498 63.2975 56.6282C63.4228 56.8142 63.6619 56.8787 63.8783 56.9281C64.7893 57.1369 65.7421 57.3456 66.6417 57.0989C67.0555 56.9888 67.4465 56.7838 67.8716 56.7573C68.3234 56.7307 69.0332 56.7914 69.4546 56.6358L69.4584 56.6396Z"></path>
<path fill="#62BB46" d="M53.3673 52.7752C53.4129 52.7524 53.4394 52.6993 53.4318 52.6499C53.3445 52.0464 52.908 48.3984 54.5403 44.8947C56.146 41.4518 57.2164 36.7827 55.9372 33.651C55.7626 33.2259 56.1877 32.8045 56.6129 32.9829C58.1161 33.6207 60.6632 35.4427 62.1247 40.5977C63.0471 44.3177 62.7282 47.6051 62.7282 47.6051C62.7282 47.6051 63.3925 46.7396 68.0046 45.559C70.8668 44.8264 72.351 42.2831 73.0685 40.461C73.2773 39.9258 74.0592 40.0131 74.1503 40.5825C74.4882 42.6855 74.6172 46.1284 72.9964 49.7118C70.6542 54.882 65.746 55.8082 64.7135 55.9448C64.6072 55.96 64.5351 56.0549 64.5541 56.1612C64.5731 56.2789 64.6983 56.351 64.8084 56.3055C66.0877 55.7892 72.8787 53.7204 79.7722 64.5579C80.0341 64.9717 79.5862 65.4652 79.1458 65.2526C77.7831 64.5921 75.6308 63.9506 72.8293 64.3795C68.798 64.9983 61.8362 70.0583 57.3987 62.7207C57.3455 62.6334 57.2316 62.5992 57.1405 62.6448C57.0266 62.7017 56.9963 62.846 57.0722 62.9446C57.7099 63.7494 60.0293 67.162 59.4864 73.5051C59.0461 78.6676 60.0748 80.968 61.2857 82.1637C61.6995 82.5699 61.4034 83.2721 60.8226 83.2494C58.3704 83.1469 54.2214 82.4826 51.6819 79.3889C47.9694 74.8716 47.6923 69.7888 49.7459 66.9039C49.8143 66.809 49.7991 66.6837 49.7118 66.6078C49.6283 66.5356 49.503 66.5394 49.4233 66.6116C49.1348 66.8811 48.4743 67.7883 47.5746 70.8251C46.3409 74.9779 41.8883 78.1552 40.0054 79.7343C38.4833 81.0097 37.428 81.75 37.2989 83.0861C37.2685 83.3974 36.87 83.5037 36.6991 83.2418C35.7084 81.7196 34.0116 78.3298 34.4899 73.4633C35.1504 66.8014 39.9979 64.0796 43.8432 62.8422C43.9419 62.8118 43.9912 62.7017 43.9495 62.6068C43.9115 62.5157 43.8052 62.4777 43.7141 62.5195C42.8828 62.9181 38.897 64.5845 33.9281 62.7435C30.5193 61.4794 29.3273 58.9247 28.9212 57.1178C28.8225 56.6889 29.3311 56.3776 29.669 56.6623C30.3447 57.2279 31.4607 57.5619 33.279 56.7952C37.1281 55.1743 41.0645 53.2041 46.4017 55.5615C46.4017 55.5615 41.2543 46.8041 41.2543 46.7396C41.2543 46.6751 42.0325 43.0841 42.0743 43.0651C42.116 43.0461 49.4043 43.1296 51.7388 47.8442C52.6651 49.6777 53.0826 52.054 53.1851 52.6955C53.1965 52.779 53.2876 52.8208 53.3597 52.7866L53.3673 52.7752Z"></path>
<path fill="#004600" d="M33.1689 40.4116C33.1689 40.4116 34.7405 47.8935 48.0302 58.3856L53.5648 56.0511C53.5648 56.0511 52.0881 56.6736 45.3503 44.8074C43.2093 41.0418 42.7272 37.6292 41.1899 34.9492L33.1689 40.4116Z"></path>
<path fill="white" d="M42.1614 40.017C43.3306 42.7653 44.5984 45.468 45.9992 48.11C46.4623 48.9907 46.933 49.8676 47.4037 50.7482C47.5555 51.0253 47.4492 51.3746 47.1721 51.5264C46.914 51.6669 46.5913 51.5833 46.4281 51.3442C45.8549 50.5053 45.3197 49.6398 44.8148 48.7591C43.3192 46.1057 42.0551 43.3119 41.091 40.4231C40.8784 39.7285 41.8577 39.3565 42.1614 40.017Z"></path>
<path fill="white" d="M48.1134 52.3312C48.0527 52.4337 48.0451 52.5627 48.0755 52.6766C48.1058 52.7905 48.1779 52.893 48.2653 52.9727C48.3715 53.0714 48.5082 53.1397 48.6524 53.1321C48.7967 53.1245 48.9371 53.0221 48.9599 52.8816C48.9789 52.7677 48.9258 52.6538 48.8688 52.5514C48.8081 52.4413 48.7398 52.3312 48.6411 52.2553C48.4892 52.1414 48.2197 52.1528 48.1172 52.3312H48.1134Z"></path>
<path fill="#004600" d="M79.1005 64.3036C78.4097 63.6545 77.6884 63.0433 76.9216 62.4815C76.1548 61.9197 75.3501 61.411 74.5188 60.9517C73.6875 60.4924 72.8258 60.0862 71.9413 59.737C71.0568 59.384 70.1534 59.0879 69.2348 58.845C68.3161 58.602 67.3785 58.416 66.4371 58.2869C65.4957 58.1579 64.5429 58.0858 63.5901 58.0744C62.4172 58.0592 61.248 58.1427 60.0864 58.3021C59.8815 58.3287 59.6727 58.3591 59.4677 58.3932C59.2286 58.4312 58.997 58.4805 58.7616 58.397C58.3289 58.2414 58.1125 57.7745 58.0973 57.338C58.0784 56.8748 58.2606 56.4193 58.4921 56.0283C58.6478 55.7664 58.83 55.5235 59.0388 55.3033C59.2058 55.1249 59.3918 54.9693 59.593 54.8288C60.1813 54.415 60.8494 54.1038 61.5061 53.8229C62.0642 53.5837 62.6336 53.3711 63.2029 53.1548C68.7413 51.0708 73.6913 47.1989 73.7672 40.8064C73.7672 40.7723 73.7406 40.7419 73.7064 40.7419C73.6723 40.7419 73.6419 40.7685 73.6419 40.8026C73.5508 43.9191 72.0438 46.8686 69.6941 48.8729C68.0504 50.3116 66.0993 51.3555 64.0722 52.1602C63.0777 52.555 62.0528 52.8663 61.0582 53.2649C60.0713 53.6596 59.0843 54.1455 58.2909 54.8592C58.1657 54.9731 58.048 55.1249 57.8848 55.1932C57.7329 55.2578 57.5242 55.2388 57.4558 55.068C57.3989 54.9275 57.4217 54.7491 57.4786 54.6162C57.6418 54.2101 57.7785 53.7887 57.9113 53.3711C58.029 53.0105 58.1391 52.6499 58.2416 52.2893C58.3783 51.7996 58.5035 51.3099 58.6136 50.8127C59.3994 47.3887 59.5778 43.8318 59.1564 40.3471C58.8376 37.8949 58.3175 35.2871 56.6131 33.3891C56.5903 33.3625 56.5524 33.3625 56.5258 33.3853C56.4992 33.4081 56.4954 33.4498 56.5182 33.4764C57.1597 34.228 57.6266 35.1125 57.9607 36.0387C58.4656 37.4318 58.6781 38.916 58.83 40.3889C59.1526 43.828 58.8869 47.3279 58.0214 50.676C57.8089 51.5187 57.5583 52.3462 57.266 53.1624C57.0079 53.895 56.7801 54.639 56.2601 55.235C56.0893 55.4286 55.8957 55.6032 55.6831 55.7512C55.3453 55.9904 54.9543 56.1612 54.5367 56.1802C53.5004 56.2295 52.9993 55.5425 52.8247 55.2312C51.8643 53.0143 50.4826 50.9835 48.7554 49.2981C48 48.573 47.2105 47.8252 46.2159 47.4456C46.1855 47.4342 46.1514 47.4456 46.1362 47.4798C46.121 47.5101 46.1362 47.5481 46.1666 47.5633C47.1004 48.0036 47.8064 48.7894 48.4859 49.5486C50.0081 51.2834 51.1849 53.3142 51.9403 55.4893L47.3471 57.839C47.3471 57.839 48.0911 58.4236 47.9545 58.8488C47.8786 59.0803 47.6432 59.1676 47.4192 59.1866C47.0321 59.217 46.6638 59.1145 46.2842 59.0499C46.0717 59.012 45.8553 58.9778 45.6427 58.9512C45.2138 58.8943 44.781 58.8563 44.3521 58.8336C43.4866 58.7918 42.6211 58.8222 41.7594 58.9247C41.3381 58.974 40.9167 59.0423 40.503 59.1297C39.2199 59.3916 37.9597 59.8471 36.669 59.9762C34.084 60.2381 31.423 59.1828 29.6958 57.2279C29.673 57.2013 29.6351 57.1975 29.6085 57.2203C29.5819 57.2431 29.5781 57.281 29.6009 57.3114C31.2977 59.3688 34.027 60.5418 36.7032 60.352C37.599 60.2912 38.4683 60.0825 39.3224 59.8851C41.0116 59.4675 42.7312 59.3005 44.4584 59.4599C45.3011 59.5358 46.1324 59.6877 46.9485 59.904C47.3281 60.0065 47.7001 60.1204 48.0722 60.2533C48.2544 60.3178 48.4366 60.3861 48.615 60.4583C48.8276 60.5418 49.0098 60.7278 49.0515 60.9593C49.0933 61.2174 48.9528 61.4908 48.7782 61.673C48.41 62.0602 47.852 62.1702 47.3775 62.3638C46.6335 62.6713 45.9122 63.0281 45.2214 63.4305C44.5988 63.7949 43.9953 64.1935 43.4221 64.63C38.7454 68.1831 36.4906 73.524 36.4564 79.3129C36.4299 80.4251 36.4451 81.5715 36.8133 82.6344C36.8247 82.6686 36.8588 82.6837 36.893 82.6724C36.9271 82.661 36.9461 82.6268 36.9347 82.5926C36.6007 81.5412 36.6159 80.4175 36.6652 79.3167C36.7146 78.2121 36.8284 77.1074 37.0258 76.0218C37.7661 71.6944 40.2221 67.6744 43.7903 65.1197C44.4774 64.6224 45.1986 64.1783 45.954 63.7949C46.3032 63.6165 46.66 63.4495 47.0207 63.2901C47.7723 62.9598 48.5808 62.8687 49.397 62.9788C49.6323 63.013 49.8677 63.0623 50.0954 63.1306C50.3346 63.2027 50.5661 63.2939 50.7825 63.4115C51.3139 63.7 51.7011 64.1821 51.9479 64.7287C52.1528 65.1805 52.2667 65.6625 52.2743 66.156C52.2819 66.8697 52.335 67.5795 52.4148 68.2894C52.4945 68.9916 52.6084 69.6901 52.7564 70.381C52.9044 71.0718 53.0829 71.7551 53.2992 72.427C53.5156 73.0989 53.7623 73.7556 54.0432 74.4009C54.3241 75.0462 54.643 75.6688 54.9922 76.2761C55.3415 76.8835 55.7287 77.4681 56.1462 78.0299C56.5676 78.5917 57.0193 79.1307 57.509 79.6356C58.0024 80.148 58.5263 80.6263 59.0805 81.0705C59.0805 81.0705 59.0843 81.0742 59.0881 81.078C59.1147 81.1008 59.1526 81.097 59.1754 81.0705C59.1982 81.0439 59.1944 81.0021 59.1678 80.9793C57.9113 79.8937 56.8333 78.6182 55.9488 77.2213C55.5237 76.557 55.1479 75.8624 54.8138 75.1449C54.4798 74.4275 54.1989 73.6986 53.9597 72.9508C53.7206 72.203 53.527 71.44 53.3789 70.6657C53.2309 69.8913 53.1246 69.1131 53.0601 68.3273C53.0259 67.8832 52.9993 67.4391 52.988 66.9949C52.9804 66.6609 52.9614 66.3268 52.988 65.9928C53.0145 65.6588 53.0904 65.3247 53.1929 65.0058C53.4473 64.2277 53.8421 63.4723 54.3355 62.8194C54.4304 62.6941 54.5253 62.5726 54.6278 62.4587C54.6772 62.4018 54.7303 62.3449 54.7797 62.2917C54.9695 62.0905 55.1706 61.9007 55.387 61.7261C56.1538 61.1074 57.0079 60.6025 57.8962 60.1774C58.9325 59.6839 59.9953 59.2815 61.1417 59.1486C61.2139 59.141 61.2898 59.1183 61.3619 59.1183C61.8364 59.0537 62.3147 59.0082 62.793 58.974C63.7496 58.9095 64.71 58.9095 65.6665 58.9702C66.6231 59.031 67.5759 59.1524 68.5211 59.3308C69.4663 59.5093 70.3963 59.7522 71.3074 60.0483C72.2222 60.3444 73.1143 60.7012 73.9835 61.1112C74.8528 61.5211 75.6955 61.988 76.5041 62.5119C77.3164 63.0357 78.0908 63.6089 78.8234 64.2353C78.888 64.2922 78.9563 64.3491 79.0208 64.4061C79.0474 64.4289 79.0853 64.4251 79.1081 64.4023C79.1309 64.3757 79.1309 64.3377 79.1081 64.3112L79.1005 64.3036Z"></path>
<path fill="white" d="M60.4773 41.2734C60.5001 41.4594 60.5722 41.653 60.6101 41.8238C60.6785 42.1313 60.7354 42.4388 60.781 42.7463C60.8721 43.3764 60.9138 44.0141 60.891 44.6519C60.8493 45.7906 60.5988 46.9294 60.0863 47.9468C59.9572 48.2087 59.8092 48.463 59.7181 48.7401C59.627 49.0172 59.608 49.3285 59.7295 49.598C59.8509 49.8675 60.1394 50.0649 60.4279 50.0194C60.5798 49.9966 60.7164 49.9093 60.8341 49.8106C61.2289 49.4879 61.5022 48.9337 61.6123 48.444C62.0982 46.2689 62.045 43.98 61.4642 41.8276C61.3959 41.5809 61.0505 40.4383 60.6215 40.7724C60.5418 40.8331 60.5039 40.9318 60.4849 41.0305C60.4697 41.1102 60.4697 41.1899 60.4849 41.2696L60.4773 41.2734Z"></path>
<path fill="white" d="M59.2664 50.5659C59.0956 50.7177 59.0197 50.9455 58.9627 51.1695C58.9172 51.3555 58.883 51.5453 58.9172 51.7351C58.9514 51.9249 59.0728 52.1033 59.255 52.164C59.441 52.2248 59.6536 52.145 59.7903 52.0046C59.9269 51.8641 60.0066 51.6781 60.0636 51.4883C60.1205 51.3099 60.1623 51.1201 60.1395 50.9341C60.0902 50.5014 59.6233 50.247 59.2664 50.5659Z"></path>
<path fill="white" d="M36.4864 69.7508C36.4712 69.5193 36.5433 69.2915 36.6307 69.0752C37.0862 67.9402 37.9479 67.0253 38.8513 66.2016C39.0942 65.9814 39.341 65.7651 39.6181 65.5904C39.7472 65.5069 39.8876 65.4348 40.0432 65.4158C40.1989 65.3968 40.3773 65.45 40.4456 65.5904C40.5291 65.7726 40.3963 65.9738 40.2634 66.1257C39.713 66.7672 39.1322 67.3935 38.7184 68.1337C38.4793 68.5589 38.2971 69.0144 38.0314 69.4244C37.8226 69.747 37.5493 70.0431 37.2 70.2139C37.0634 70.2823 36.8888 70.3734 36.7483 70.2823C36.5851 70.1798 36.5016 69.933 36.4902 69.7508H36.4864Z"></path>
<path fill="white" d="M35.7993 71.2845C35.5868 71.4401 35.4691 71.6944 35.4008 71.9488C35.3514 72.1348 35.3286 72.3284 35.3324 72.522C35.3324 72.7839 35.4084 73.08 35.6437 73.1977C35.8335 73.2926 36.0689 73.2318 36.2321 73.099C36.3953 72.9661 36.4978 72.7725 36.5813 72.5827C36.6762 72.3625 36.7559 72.1272 36.7635 71.888C36.7787 71.3452 36.308 70.9201 35.8031 71.2921L35.7993 71.2845Z"></path>
<path fill="#62BB46" d="M38.3683 39.3716C40.559 37.8182 41.8228 35.8367 41.191 34.9457C40.5592 34.0547 38.2711 34.5917 36.0804 36.1451C33.8897 37.6985 32.6259 39.6801 33.2577 40.571C33.8895 41.462 36.1776 40.925 38.3683 39.3716Z"></path>
<path fill="#004600" d="M71.9865 112.793C71.9448 112.619 67.1428 108.341 69.6937 103.152C69.6937 103.152 68.3538 99.5188 70.0847 96.5352C70.0847 96.5352 67.4655 89.3304 73.5315 85.1169C73.5315 85.1169 73.2923 81.4917 77.0693 79.6203C77.0693 79.6203 77.2212 74.2793 83.1011 72.9811C83.1011 72.9811 84.5436 68.4563 90.454 66.9113C90.454 66.9113 92.1546 63.4836 95.7721 63.2368L96.9603 65.9623C96.9603 65.9623 78.174 117.424 78.0867 117.25C77.9993 117.075 71.9903 112.797 71.9903 112.797L71.9865 112.793Z"></path>
<path fill="#D21774" d="M71.5767 95.4953C71.5767 95.4953 68.5285 88.9852 74.2567 85.1588C74.2567 85.1588 74.1694 81.397 77.6313 79.7534C77.6313 79.7534 77.8705 74.3137 83.4468 73.4482C83.4468 73.4482 85.1549 68.5628 90.7123 67.2684C90.7123 67.2684 93.2784 61.935 99.8074 63.9241C99.8074 63.9241 103.342 62.9296 106.302 64.4214C106.302 64.4214 111.947 63.8178 114.669 68.6577C114.669 68.6577 121.243 69.5232 122.192 74.9287C122.192 74.9287 125.457 76.2269 125.176 80.615C125.176 80.615 129.154 82.9724 127.556 87.9223C127.556 87.9223 131.709 91.2969 129.416 96.4633C129.416 96.4633 131.189 101.394 126.736 105.35C126.736 105.35 127.321 110.387 121.437 112.832C121.437 112.832 120.378 117.717 112.919 117.611C112.919 117.611 110.952 119.664 105.999 119.144C105.999 119.144 101.611 123.122 93.5213 120.203C93.5213 120.203 85.8458 122.041 82.9039 115.792C82.9039 115.792 77.3694 115.728 75.6384 110.797C75.6384 110.797 71.2047 108.914 72.1575 103.748C72.1575 103.748 68.5475 99.4887 71.5729 95.4877L71.5767 95.4953Z"></path>
<mask height="59" width="61" y="63" x="70" maskUnits="userSpaceOnUse" style="mask-type:luminance" id="mask1_8_23000">
<path fill="white" d="M71.5767 95.4953C71.5767 95.4953 68.5285 88.9852 74.2567 85.1588C74.2567 85.1588 74.1694 81.397 77.6313 79.7534C77.6313 79.7534 77.8705 74.3137 83.4468 73.4482C83.4468 73.4482 85.1549 68.5628 90.7123 67.2684C90.7123 67.2684 93.2784 61.935 99.8074 63.9241C99.8074 63.9241 103.342 62.9296 106.302 64.4214C106.302 64.4214 111.947 63.8178 114.669 68.6577C114.669 68.6577 121.243 69.5232 122.192 74.9287C122.192 74.9287 125.457 76.2269 125.176 80.615C125.176 80.615 129.154 82.9724 127.556 87.9223C127.556 87.9223 131.709 91.2969 129.416 96.4633C129.416 96.4633 131.189 101.394 126.736 105.35C126.736 105.35 127.321 110.387 121.437 112.832C121.437 112.832 120.378 117.717 112.919 117.611C112.919 117.611 110.952 119.664 105.999 119.144C105.999 119.144 101.611 123.122 93.5213 120.203C93.5213 120.203 85.8458 122.041 82.9039 115.792C82.9039 115.792 77.3694 115.728 75.6384 110.797C75.6384 110.797 71.2047 108.914 72.1575 103.748C72.1575 103.748 68.5475 99.4887 71.5729 95.4877L71.5767 95.4953Z"></path>
</mask>
<g mask="url(#mask1_8_23000)">
<path fill="#004600" d="M121.471 76.4092C121.395 76.4092 121.323 76.3902 121.255 76.3446C121.08 76.2345 121.019 76.0106 121.118 75.8284C121.141 75.7904 121.164 75.76 121.186 75.7335C121.501 75.0312 121.593 74.2227 121.68 73.4407C121.703 73.2319 121.892 73.0801 122.101 73.1028C122.31 73.1256 122.462 73.3154 122.439 73.5242C122.348 74.3555 122.242 75.2931 121.843 76.132C121.843 76.132 121.843 76.1396 121.839 76.1434C121.828 76.1814 121.809 76.2193 121.782 76.2497C121.706 76.3522 121.589 76.4054 121.467 76.4054L121.471 76.4092Z"></path>
<path fill="#004600" d="M124.979 82.103C124.895 82.103 124.808 82.0764 124.736 82.0157C124.572 81.8828 124.55 81.6398 124.682 81.4766C124.944 81.154 125.073 80.7174 125.195 80.2885C125.252 80.0873 125.464 79.9696 125.669 80.0266C125.871 80.0835 125.988 80.2961 125.931 80.5011C125.795 80.9756 125.635 81.5146 125.275 81.9587C125.199 82.0498 125.089 82.0992 124.979 82.0992V82.103Z"></path>
<path fill="#004600" d="M128.118 87.9641C128.061 87.9641 128.008 87.9528 127.955 87.9262C127.522 87.7174 127.04 87.6187 126.558 87.6377C126.353 87.6415 126.17 87.4821 126.163 87.2695C126.155 87.0569 126.318 86.8823 126.531 86.8747C127.135 86.8519 127.742 86.9772 128.289 87.2391C128.478 87.3302 128.558 87.558 128.467 87.7478C128.402 87.8844 128.266 87.9641 128.122 87.9641H128.118Z"></path>
<path fill="#004600" d="M93.525 91.1337C93.4795 91.1337 93.4301 91.1261 93.3846 91.1071C93.1872 91.0312 93.0923 90.8072 93.1682 90.6136C93.897 88.7574 95.4534 87.2542 97.3362 86.5937C97.5336 86.5215 97.7538 86.6278 97.8221 86.829C97.8904 87.0264 97.7879 87.2466 97.5867 87.3149C95.9127 87.9033 94.5234 89.2395 93.8781 90.8945C93.8173 91.0463 93.6731 91.1374 93.5212 91.1374L93.525 91.1337Z"></path>
<path fill="#004600" d="M96.315 87.8351C95.5786 87.8351 94.8232 87.5428 94.1854 87.0113C93.6692 86.5824 93.2327 86.0092 92.8455 85.2614C92.7506 85.0754 92.8227 84.8438 93.0087 84.7451C93.1947 84.6502 93.4262 84.7223 93.5249 84.9083C93.8628 85.565 94.2386 86.0585 94.6751 86.4229C95.1762 86.8405 95.757 87.0683 96.315 87.0683C96.5276 87.0683 96.6984 87.2391 96.6984 87.4479C96.6984 87.6604 96.5276 87.8313 96.3188 87.8313L96.315 87.8351Z"></path>
<path fill="#004600" d="M95.036 97.5033C94.0035 96.3076 93.4759 94.7171 93.5897 93.1456C93.5973 93.0355 93.5556 92.9292 93.4797 92.8495C92.8723 92.2383 91.9385 91.7562 91.0388 91.593C90.8301 91.555 90.6327 91.6917 90.5947 91.9005C90.5567 92.1093 90.6934 92.3066 90.9022 92.3446C91.2856 92.4167 91.6728 92.5268 92.0144 92.7166C92.356 92.9064 92.5952 93.2139 92.7356 93.5707C92.8457 93.844 92.8989 94.1401 92.952 94.4286C92.9824 94.5918 93.009 94.7589 93.0203 94.9221C93.0621 95.5598 92.7888 96.1748 92.4396 96.6948C92.2194 97.0213 91.9385 97.2946 91.7411 97.6362C91.7259 97.659 91.7145 97.6818 91.7031 97.7045C91.6006 97.8905 91.6728 98.1221 91.855 98.2208C91.9119 98.2512 91.9764 98.2663 92.0372 98.2663C92.1738 98.2663 92.3029 98.1942 92.375 98.0652C92.5914 97.6704 92.8951 97.3211 93.3734 97.268C93.5897 97.2452 93.8137 97.2984 93.9883 97.4274C94.0832 97.4958 94.1288 97.5831 94.1971 97.678C94.2806 97.788 94.3679 97.8943 94.4552 98.0006C94.5311 98.0879 94.6374 98.1335 94.7437 98.1335C94.831 98.1335 94.9221 98.1031 94.9943 98.0424C95.1537 97.9057 95.1727 97.6628 95.036 97.5033Z"></path>
<path fill="#004600" d="M94.4363 108.406C94.1212 108.413 93.791 108.345 93.5063 108.28C92.637 108.087 91.6538 107.802 90.9516 107.153C90.6365 106.861 90.3708 106.485 90.1165 106.124C89.995 105.953 89.7558 105.912 89.585 106.033C89.4142 106.155 89.3724 106.394 89.4939 106.564C89.6268 106.754 89.7634 106.944 89.9039 107.126C90.0595 107.324 90.2417 107.502 90.3594 107.722C90.5872 108.151 90.5226 108.694 90.3025 109.112C90.2455 109.218 90.162 109.305 90.0861 109.4C89.9456 109.582 89.7938 109.757 89.6306 109.92C89.4218 110.125 89.194 110.311 88.9587 110.467C87.892 111.169 86.4799 111.355 85.269 110.953C85.0678 110.884 84.8514 110.994 84.7869 111.196C84.7186 111.397 84.8286 111.613 85.0298 111.678C85.5309 111.845 86.0585 111.928 86.59 111.928C86.8785 111.928 87.167 111.905 87.4517 111.856C87.687 111.818 87.911 111.769 88.116 111.928C88.3096 112.076 88.3361 112.281 88.3247 112.509C88.3096 112.775 88.3209 113.044 88.3513 113.31C88.4083 113.841 88.5525 114.361 88.7765 114.847C88.841 114.988 88.9777 115.067 89.1219 115.067C89.175 115.067 89.232 115.056 89.2813 115.033C89.4711 114.946 89.5546 114.718 89.4673 114.525C89.251 114.058 89.1257 113.553 89.0915 113.044C89.0346 112.205 89.3724 111.408 89.8849 110.755C90.0899 110.493 90.3214 110.25 90.5644 110.023C90.9098 109.692 91.2439 109.381 91.688 109.188C92.098 109.005 92.5611 108.918 93.0128 108.964C93.4835 109.009 93.9238 109.18 94.4059 109.18C94.4211 109.18 94.4363 109.18 94.4515 109.18C94.664 109.18 94.8311 109.002 94.8273 108.793C94.8273 108.58 94.6565 108.413 94.4401 108.417L94.4363 108.406Z"></path>
<path fill="#004600" d="M102.374 98.851C102.294 98.6574 102.07 98.5625 101.876 98.6422C100.87 99.056 99.8721 99.2648 98.9193 99.2534C97.8716 99.2458 96.8885 98.9801 96.0799 98.479C95.9015 98.3689 95.6662 98.4259 95.5561 98.6043C95.446 98.7827 95.4992 99.0181 95.6814 99.1281C95.9926 99.3179 96.3191 99.4812 96.6607 99.6102C97.0024 99.7393 97.3744 99.7924 97.716 99.9367C97.8185 99.9784 97.921 100.024 98.0159 100.085C98.331 100.286 98.5207 100.639 98.6005 101.003C98.7181 101.535 98.646 102.089 98.6612 102.624C98.6764 103.159 98.7523 103.714 98.8738 104.245C98.9231 104.469 98.9801 104.689 99.0446 104.909C99.1509 105.278 99.223 105.646 99.2078 106.029C99.1964 106.287 99.1509 106.549 99.0522 106.788C98.9725 106.99 98.7865 107.179 98.646 107.343C98.3234 107.707 97.9324 108.011 97.4958 108.227C97.306 108.322 97.2301 108.55 97.325 108.74C97.3933 108.872 97.5262 108.952 97.6667 108.952C97.7236 108.952 97.7843 108.941 97.8375 108.91C98.2626 108.698 98.6536 108.417 98.9915 108.083C99.3293 107.749 99.6975 107.1 100.271 107.301C100.369 107.335 100.46 107.388 100.548 107.441C100.84 107.624 101.11 107.836 101.417 107.996C101.474 108.026 101.531 108.037 101.592 108.037C101.732 108.037 101.865 107.961 101.933 107.829C102.028 107.643 101.956 107.411 101.766 107.316C101.113 106.982 100.559 106.439 100.21 105.794C100.051 105.498 99.9139 105.149 99.7772 104.697C99.6178 104.158 99.5039 103.604 99.4508 103.042C99.428 102.787 99.4128 102.529 99.4242 102.271C99.4356 102.013 99.5077 101.744 99.5798 101.497C99.6292 101.326 99.6861 101.163 99.762 101.003C99.9594 100.59 100.267 100.233 100.643 99.9708C101.075 99.671 101.599 99.5761 102.085 99.3825C102.112 99.3711 102.138 99.3597 102.169 99.3483C102.362 99.2686 102.457 99.0446 102.377 98.851H102.374Z"></path>
<path fill="#004600" d="M100.487 116.498C99.6174 116.301 98.8051 115.838 98.1977 115.196C97.5145 114.471 97.0855 113.53 96.9868 112.539C96.9678 112.33 96.778 112.175 96.5693 112.198C96.3605 112.217 96.2048 112.406 96.2276 112.615C96.2694 113.036 96.3643 113.45 96.5047 113.849C96.5769 114.054 96.668 114.251 96.7173 114.464C96.7856 114.756 96.7856 115.079 96.7211 115.371C96.6604 115.659 96.5199 115.994 96.277 116.172C96.1593 116.259 96.0264 116.32 95.8936 116.373C95.6696 116.464 95.4305 116.521 95.1875 116.54C94.9787 116.555 94.8193 116.738 94.8345 116.95C94.8497 117.151 95.0167 117.303 95.2141 117.303C95.2255 117.303 95.2331 117.303 95.2445 117.303C95.6203 117.273 95.9847 117.174 96.3263 117.015C96.6148 116.878 96.8616 116.669 97.1349 116.506C97.4234 116.331 97.7232 116.252 98.0611 116.301C98.1408 116.312 98.2205 116.331 98.2926 116.358C98.4445 116.411 98.5735 116.502 98.7102 116.586C99.0746 116.81 99.4656 116.992 99.8718 117.125C100.02 117.174 100.172 117.216 100.323 117.25C100.354 117.258 100.38 117.261 100.407 117.261C100.582 117.261 100.737 117.14 100.779 116.965C100.825 116.76 100.696 116.555 100.491 116.51L100.487 116.498Z"></path>
<path fill="#004600" d="M94.1971 120.568C93.7529 120.237 93.3809 119.74 93.1228 119.133C93.0507 118.966 92.9975 118.795 92.9406 118.624C92.8799 118.446 92.8115 118.286 92.8305 118.089C92.8495 117.892 92.9482 117.721 93.1114 117.633C93.3088 117.527 93.5555 117.55 93.7719 117.519C93.9807 117.489 94.1249 117.292 94.0908 117.083C94.0604 116.874 93.863 116.73 93.6542 116.764C92.7622 116.901 91.817 116.631 91.1261 116.05C90.9667 115.914 90.7237 115.933 90.5871 116.096C90.4504 116.255 90.4694 116.498 90.6326 116.635C90.8224 116.794 91.0274 116.939 91.2476 117.056C91.3463 117.11 91.4526 117.147 91.5437 117.216C91.6348 117.284 91.7107 117.371 91.7714 117.466C91.8435 117.58 91.9005 117.706 91.9498 117.835C91.9992 117.964 92.0144 118.1 92.0447 118.233C92.1017 118.487 92.1662 118.742 92.2497 118.989C92.2991 119.14 92.356 119.288 92.4167 119.433C92.728 120.165 93.1873 120.769 93.7377 121.183C93.8061 121.232 93.8858 121.259 93.9655 121.259C94.0832 121.259 94.1971 121.205 94.273 121.107C94.3982 120.936 94.3641 120.697 94.1933 120.571L94.1971 120.568Z"></path>
<path fill="#004600" d="M84.855 115.474C84.0996 115.17 83.4429 114.627 83.0064 113.94C82.5699 113.257 82.3497 112.433 82.3915 111.621C82.4028 111.412 82.2396 111.23 82.0308 111.218C81.8221 111.207 81.6399 111.37 81.6285 111.579C81.6171 111.769 81.6398 111.966 81.5981 112.152C81.5563 112.323 81.4728 112.482 81.3476 112.604C81.3324 112.619 81.3172 112.634 81.2982 112.649C81.0135 112.896 80.6263 112.927 80.2695 112.877C79.8671 112.824 79.4761 112.695 79.1193 112.498C78.9029 112.376 78.698 112.232 78.5158 112.061C78.3601 111.917 78.121 111.924 77.9767 112.08C77.8325 112.236 77.8401 112.475 77.9957 112.619C78.7245 113.302 79.7267 113.667 80.725 113.667C81.0742 113.667 81.4652 113.538 81.7955 113.701C81.9663 113.784 82.0954 113.925 82.2017 114.084C82.3231 114.263 82.4256 114.422 82.475 114.635C82.5319 114.893 82.4408 115.121 82.4066 115.375C82.3725 115.629 82.3801 115.903 82.4256 116.165C82.4598 116.351 82.6192 116.48 82.8014 116.48C82.8242 116.48 82.847 116.48 82.8698 116.472C83.0785 116.434 83.2152 116.237 83.1772 116.028C83.1582 115.925 83.1355 115.815 83.1772 115.717C83.1886 115.682 83.2114 115.648 83.238 115.622C83.2873 115.576 83.3632 115.561 83.4316 115.569C83.5872 115.588 83.7049 115.713 83.8339 115.796C84.0693 115.944 84.316 116.073 84.5779 116.18C84.6235 116.199 84.6728 116.206 84.7222 116.206C84.874 116.206 85.0183 116.115 85.0752 115.967C85.1549 115.77 85.06 115.55 84.8626 115.47L84.855 115.474Z"></path>
<path fill="#004600" d="M75.6234 111.154C75.4753 111.154 75.3387 111.07 75.2741 110.926C75.1868 110.732 75.2741 110.509 75.4677 110.421C75.6575 110.338 75.8207 110.193 75.9308 110.015C76.0409 109.837 76.2763 109.78 76.4547 109.886C76.6331 109.996 76.69 110.231 76.5837 110.41C76.3939 110.717 76.1092 110.972 75.779 111.116C75.7296 111.139 75.6765 111.15 75.6234 111.15V111.154Z"></path>
<path fill="#004600" d="M72.6928 104.416C72.2562 104.416 71.8311 104.199 71.5729 103.846C71.4477 103.676 71.4856 103.436 71.6565 103.311C71.8273 103.186 72.0664 103.224 72.1917 103.395C72.3094 103.554 72.5105 103.657 72.7117 103.649C72.9205 103.641 73.0989 103.808 73.1065 104.017C73.1141 104.23 72.9471 104.404 72.7383 104.412C72.7231 104.412 72.7117 104.412 72.6966 104.412L72.6928 104.416Z"></path>
<path fill="#004600" d="M88.7271 91.6614C88.6967 91.4526 88.5031 91.3084 88.2944 91.3349C87.2695 91.4754 86.2749 91.8246 85.398 92.375C84.9691 92.6446 84.5705 92.9672 84.2175 93.3278C83.8645 93.6884 83.5418 94.1364 83.2381 94.5729C83.1888 94.645 83.1394 94.7172 83.0863 94.7893C82.8813 95.0816 82.6573 95.3739 82.3537 95.5675C81.5489 96.0761 80.3456 95.8142 79.6623 95.2144C79.5712 95.1347 79.4839 95.0474 79.408 94.9525C79.1043 94.5843 78.9031 94.087 78.8082 93.4835C78.7209 92.9179 78.7361 92.3219 78.7513 91.7449C78.7551 91.5323 78.5918 91.3577 78.3793 91.3539C78.1667 91.3425 77.9921 91.5133 77.9883 91.7259C77.9769 92.1814 77.9655 92.637 77.9959 93.0887C78.0224 93.4455 78.087 93.7947 78.1705 94.1402C78.254 94.4856 78.3299 94.8121 78.2198 95.1499C78.1173 95.4726 77.8934 95.7573 77.6011 95.9281C77.3088 96.0989 76.9558 96.2242 76.6141 96.3153C76.4091 96.3684 76.2877 96.5772 76.3446 96.7822C76.3902 96.953 76.5458 97.0669 76.7128 97.0669C76.747 97.0669 76.7773 97.0631 76.8115 97.0555C77.4113 96.8961 77.8668 96.6949 78.2464 96.4216C78.421 96.2963 78.5994 96.1634 78.8044 96.0951C79.0777 96.0078 79.3358 96.0496 79.594 96.152C79.8255 96.2469 80.0495 96.3608 80.281 96.4481C80.5126 96.5354 80.7517 96.6114 80.9833 96.7025C81.3781 96.8619 81.7197 97.101 81.993 97.4313C82.4675 98.0121 82.6573 98.7295 82.8775 99.428C83.1053 100.149 83.4089 101.06 83.1129 101.8C82.9686 102.161 82.7219 102.472 82.4637 102.753C82.3195 102.909 82.3271 103.148 82.4827 103.292C82.5548 103.361 82.6497 103.395 82.7408 103.395C82.8433 103.395 82.9458 103.353 83.0217 103.273C83.2229 103.057 83.3672 102.799 83.5532 102.571C83.6936 102.396 83.872 102.229 84.0884 102.157C84.339 102.07 84.5819 102.15 84.8097 102.267C85.3297 102.541 85.7966 102.89 86.3394 103.129C86.3888 103.152 86.4419 103.163 86.4951 103.163C86.6431 103.163 86.7798 103.08 86.8443 102.935C86.9316 102.742 86.8443 102.518 86.6507 102.431C85.4398 101.892 84.449 100.973 83.8607 99.8379C83.2609 98.6764 83.1091 97.3136 83.4507 96.0989C83.743 95.055 84.3997 94.087 85.3031 93.3772C86.1648 92.6977 87.2353 92.2536 88.3969 92.0941C88.6056 92.0638 88.7499 91.8702 88.7233 91.6614H88.7271Z"></path>
<path fill="#004600" d="M81.5943 108.459C80.9984 107.38 80.93 106.006 81.4083 104.871C81.4918 104.678 81.4007 104.454 81.2071 104.37C80.9452 104.26 80.7364 104.461 80.6491 104.689C80.5466 104.955 80.429 105.236 80.1936 105.41C80.0418 105.52 79.8444 105.596 79.6546 105.585C78.903 105.536 78.1704 105.224 77.6047 104.731C77.4719 104.613 77.3504 104.488 77.2327 104.351C77.2176 104.325 77.1948 104.302 77.172 104.279C76.6368 103.622 76.3065 102.772 76.2458 101.865C76.2306 101.656 76.0484 101.493 75.8396 101.508C75.6308 101.523 75.4714 101.705 75.4828 101.914C75.5094 102.313 75.5815 102.711 75.6992 103.091C75.7637 103.304 75.8472 103.501 75.9345 103.702C75.9535 103.744 75.9687 103.786 75.9763 103.831C76.0028 103.964 75.9687 104.116 75.889 104.226C75.7068 104.48 75.3196 104.382 75.069 104.325C74.7654 104.256 74.4693 104.139 74.2036 103.975C74.0251 103.865 73.7898 103.922 73.6797 104.101C73.5696 104.279 73.6266 104.514 73.805 104.625C74.1124 104.814 74.4503 104.955 74.7995 105.042C74.9741 105.084 75.1487 105.118 75.3272 105.137C75.4828 105.152 75.6422 105.152 75.7371 105.3C75.7979 105.399 75.813 105.52 75.7941 105.634C75.7675 105.801 75.6878 105.968 75.6308 106.128C75.5663 106.31 75.5132 106.5 75.4752 106.69C75.3993 107.065 75.3803 107.453 75.4221 107.832C75.4448 108.03 75.6081 108.174 75.8017 108.174C75.8168 108.174 75.8282 108.174 75.8434 108.174C76.0522 108.151 76.204 107.961 76.1813 107.752C76.1395 107.35 76.1813 106.944 76.2989 106.557C76.4014 106.223 76.5305 105.828 76.8607 105.657C76.9101 105.634 76.9594 105.612 77.0126 105.6C77.0695 105.585 77.1227 105.577 77.1796 105.577C77.377 105.577 77.5744 105.665 77.7376 105.763C77.9084 105.866 78.0944 105.957 78.2766 106.033C78.6069 106.17 78.9523 106.264 79.3053 106.314C79.461 106.337 79.609 106.333 79.7571 106.393C80.0456 106.511 80.243 106.728 80.3379 107.02C80.41 107.24 80.429 107.475 80.4859 107.699C80.5846 108.09 80.7326 108.47 80.9262 108.823C80.9946 108.948 81.1274 109.02 81.2603 109.02C81.321 109.02 81.3856 109.005 81.4463 108.971C81.6323 108.868 81.6968 108.637 81.5981 108.451L81.5943 108.459Z"></path>
<path fill="#004600" d="M74.7542 95.2903C73.9152 93.9237 73.5926 92.2345 73.8697 90.6592C73.9077 90.4504 73.7672 90.253 73.5584 90.2189C73.3496 90.1847 73.1523 90.3213 73.1181 90.5301C73.046 90.9401 73.0118 91.3538 73.0118 91.7714C73.0118 92.2497 73.0346 92.7432 72.8372 93.1911C72.7081 93.4834 72.4842 93.6504 72.264 93.863C72.0438 94.0756 71.8275 94.3375 71.668 94.6184C71.5617 94.8006 71.6225 95.036 71.8047 95.1422C71.8654 95.1764 71.9299 95.1954 71.9983 95.1954C72.1311 95.1954 72.2564 95.1271 72.3285 95.0056C72.488 94.7323 72.7878 94.2957 73.1598 94.3299C73.2889 94.3413 73.4028 94.421 73.4825 94.5235C73.6116 94.6867 73.6837 94.8993 73.7748 95.0853C73.8773 95.2941 73.9874 95.4991 74.1088 95.6965C74.181 95.8141 74.3062 95.8787 74.4353 95.8787C74.5036 95.8787 74.572 95.8597 74.6365 95.8217C74.8149 95.7116 74.8718 95.4763 74.7618 95.2979L74.7542 95.2903Z"></path>
<path fill="#004600" d="M76.7885 84.4755C76.6556 84.3123 76.4127 84.2857 76.2494 84.4224C75.9572 84.6577 75.6952 84.9272 75.4599 85.2195C75.3498 85.36 75.2473 85.5042 75.1448 85.6485C75.0613 85.7661 75.0006 85.8914 74.8943 85.9939C74.8829 86.0053 74.8715 86.0167 74.8563 86.0243C74.7956 86.066 74.7007 86.0888 74.6286 86.0774C74.5754 86.066 74.5299 86.0319 74.4957 85.9901C74.2907 85.7661 74.2755 85.3448 74.2528 85.0525C74.2262 84.7109 74.249 84.3654 74.3211 84.0314C74.3666 83.8264 74.2338 83.6214 74.0288 83.5759C73.8238 83.5303 73.6188 83.6632 73.5733 83.8681C73.3076 85.1094 73.5998 86.4342 74.3552 87.4516C74.2869 87.7249 74.2414 88.0058 74.2186 88.2867C74.2034 88.4954 74.359 88.6815 74.5678 88.6966C74.6096 88.6966 74.6475 88.6966 74.6855 88.689C74.8449 88.6511 74.9664 88.5182 74.9816 88.3474C75.0841 87.0682 75.737 85.8231 76.7315 85.0145C76.8948 84.8817 76.9213 84.6425 76.7847 84.4755H76.7885Z"></path>
<path fill="#004600" d="M87.6757 76.2192C87.5808 76.0294 87.353 75.9535 87.1632 76.0446C86.8709 76.1888 86.5824 76.3483 86.3015 76.5153C86.0206 76.6823 85.7663 76.8569 85.4664 76.9822C85.269 77.0657 85.0413 77.134 84.8439 77.0505C84.5819 76.9404 84.4946 76.6671 84.4073 76.4204C84.3124 76.1509 84.2517 75.87 84.2251 75.5853C84.2061 75.3765 84.0201 75.2209 83.8076 75.2398C83.5988 75.2588 83.4431 75.4448 83.4621 75.6574C83.4963 75.999 83.5684 76.3407 83.6823 76.6671C83.7962 76.9936 83.9632 77.2821 84.0201 77.6199C84.0467 77.787 84.0391 77.9616 83.9746 78.1134C83.9366 78.2045 83.8759 78.288 83.8114 78.3639C83.6975 78.4968 83.557 78.6107 83.3938 78.6752C83.1622 78.7663 82.9649 78.717 82.7447 78.6335C82.5245 78.5499 82.3043 78.4854 82.0766 78.4399C81.6173 78.3488 81.139 78.3412 80.6759 78.4247C80.4671 78.4626 80.3304 78.66 80.3646 78.8688C80.4026 79.0776 80.6 79.2142 80.8087 79.1801C81.0858 79.1307 81.3705 79.1231 81.6514 79.1535C81.8906 79.1801 82.2246 79.2029 82.4106 79.3699C82.4904 79.442 82.5359 79.5445 82.5587 79.6508C82.6194 79.9431 82.4941 80.1784 82.3423 80.4214C82.1753 80.6871 82.0197 80.9604 81.8792 81.2413C81.7843 81.4273 81.8564 81.6589 82.0462 81.7538C82.1032 81.7841 82.1601 81.7955 82.2208 81.7955C82.3613 81.7955 82.4941 81.7196 82.5625 81.5867C83.6367 79.4951 85.3905 77.7718 87.5011 76.7317C87.6909 76.6368 87.7668 76.409 87.6757 76.2192Z"></path>
<path fill="#004600" d="M89.0684 83.4772C88.9545 83.2988 88.7192 83.2457 88.5408 83.3596C88.1422 83.6139 87.7702 83.8872 87.402 84.1871C87.011 84.5059 86.6124 84.8286 86.1 84.8931C85.5571 84.9577 85.0219 84.8248 84.4791 84.8058C84.126 84.7944 83.7692 84.802 83.4162 84.8248C83.1277 84.8438 82.7633 84.9577 82.4824 84.8855C82.3951 84.8628 82.3078 84.8286 82.2432 84.7679C82.1673 84.6995 82.118 84.6009 82.099 84.4984C82.0307 84.1909 82.0231 83.8872 81.9244 83.5797C81.8598 83.3785 81.6435 83.2685 81.4423 83.333C81.2411 83.3975 81.131 83.6139 81.1955 83.8151C81.374 84.3579 81.3588 84.9804 81.1538 85.5119C80.9526 86.0471 80.554 86.5216 80.0605 86.8101C79.8783 86.9164 79.8176 87.1517 79.9239 87.334C79.996 87.4554 80.1213 87.5238 80.2541 87.5238C80.3187 87.5238 80.387 87.5086 80.4477 87.4706C80.7742 87.277 81.0133 87.0075 81.3056 86.7797C81.5979 86.552 81.8636 86.3166 82.1863 86.1344C82.8316 85.7738 83.568 85.5802 84.3045 85.5802C84.5436 85.5802 84.8131 85.5612 85.0447 85.6182C85.1206 85.6372 85.1965 85.6637 85.2648 85.7055C85.4357 85.8118 85.5343 86.013 85.5571 86.2141C85.5913 86.5406 85.4622 86.8329 85.337 87.1214C85.2117 87.4099 85.094 87.7249 85.0029 88.0324C84.8852 88.4234 84.8131 88.7688 84.7827 89.0953C84.7638 89.3041 84.9156 89.4901 85.1282 89.5129C85.1396 89.5129 85.151 89.5129 85.1661 89.5129C85.3597 89.5129 85.5268 89.3648 85.5457 89.1674C85.5723 88.8941 85.633 88.5942 85.7355 88.2526C86.2556 86.5216 87.4247 84.9691 88.9507 83.9973C89.1291 83.8834 89.1823 83.6481 89.0684 83.4696V83.4772Z"></path>
<path fill="#004600" d="M107.794 115.777C107.95 115.633 107.961 115.394 107.817 115.238C107.673 115.083 107.433 115.071 107.278 115.215C106.545 115.887 105.664 116.411 104.723 116.726C104.457 116.817 104.237 116.87 104.036 116.901C103.565 116.969 103.06 116.908 102.571 116.848C102.362 116.825 102.172 116.973 102.146 117.182C102.119 117.391 102.271 117.58 102.48 117.607C102.681 117.63 102.905 117.626 103.095 117.683C103.284 117.74 103.478 117.846 103.649 117.964C103.983 118.199 104.245 118.507 104.537 118.784C104.81 119.042 105.11 119.27 105.441 119.456C105.702 119.604 105.983 119.725 106.276 119.809C106.31 119.82 106.344 119.824 106.382 119.824C106.549 119.824 106.701 119.714 106.75 119.547C106.807 119.345 106.689 119.133 106.488 119.076C106.169 118.985 105.869 118.841 105.592 118.655C105.315 118.469 104.985 118.271 104.947 117.933C104.928 117.785 104.97 117.633 105.069 117.52C105.182 117.391 105.365 117.311 105.52 117.246C105.702 117.17 105.881 117.087 106.055 116.996C106.405 116.817 106.743 116.612 107.061 116.381C107.32 116.195 107.566 115.994 107.802 115.781L107.794 115.777Z"></path>
<path fill="#004600" d="M119.672 112.627C119.308 112.577 118.955 112.475 118.62 112.323C118.355 112.205 118.097 112.072 118.013 111.772C117.892 111.343 118.226 110.99 118.442 110.66C118.662 110.322 118.852 109.966 119.004 109.594C119.027 109.537 119.049 109.476 119.072 109.415C119.144 109.218 119.046 108.998 118.848 108.925C118.651 108.853 118.431 108.952 118.359 109.149C117.914 110.345 117.011 111.423 115.808 112.182C115.508 112.372 115.253 112.497 115.014 112.581C114.809 112.649 114.593 112.695 114.403 112.729C113.659 112.866 112.9 112.934 112.141 112.93C111.932 112.93 111.761 113.101 111.757 113.31C111.757 113.522 111.924 113.693 112.137 113.693C112.167 113.693 112.194 113.693 112.224 113.693C112.558 113.693 112.889 113.682 113.219 113.655C113.515 113.632 113.853 113.549 114.137 113.693C114.187 113.72 114.236 113.75 114.274 113.792C114.308 113.83 114.331 113.872 114.35 113.917C114.502 114.259 114.433 114.616 114.293 114.953C114.153 115.291 113.986 115.614 113.769 115.91C113.644 116.081 113.682 116.32 113.853 116.445C113.921 116.495 114.001 116.517 114.077 116.517C114.194 116.517 114.312 116.464 114.384 116.362C114.612 116.047 114.802 115.709 114.954 115.348C115.242 114.665 115.314 113.917 115.758 113.302C115.986 112.987 116.29 112.683 116.681 112.592C116.859 112.551 117.049 112.554 117.227 112.592C117.634 112.672 117.983 112.885 118.359 113.048C118.734 113.211 119.125 113.321 119.528 113.382C119.539 113.382 119.55 113.382 119.566 113.386C119.585 113.386 119.6 113.386 119.619 113.386C119.805 113.386 119.972 113.249 119.998 113.055C120.029 112.847 119.881 112.653 119.672 112.623V112.627Z"></path>
<path fill="#004600" d="M109.935 106.28C110.045 106.097 109.984 105.866 109.806 105.756C109.624 105.646 109.392 105.706 109.282 105.885C108.364 107.407 106.488 108.345 104.719 108.17C104.511 108.151 104.321 108.303 104.302 108.512C104.283 108.72 104.435 108.91 104.644 108.929C104.814 108.948 104.989 108.956 105.16 108.956C105.422 108.956 105.68 108.937 105.938 108.899C106.196 108.861 106.42 108.785 106.659 108.736C107.039 108.66 107.483 108.827 107.703 109.146C107.836 109.339 107.897 109.582 107.946 109.806C108.003 110.06 108.052 110.311 108.128 110.562C108.276 111.044 108.481 111.511 108.743 111.943C108.815 112.061 108.941 112.129 109.07 112.129C109.138 112.129 109.206 112.11 109.267 112.076C109.449 111.966 109.506 111.734 109.396 111.552C109.123 111.097 108.918 110.599 108.785 110.087C108.66 109.601 108.569 109.07 108.633 108.565C108.69 108.14 108.853 107.726 109.104 107.377C109.373 107.005 109.692 106.678 109.931 106.28H109.935Z"></path>
<path fill="#004600" d="M127.044 106.147C127.044 106.147 127.032 106.147 127.025 106.147C126.812 106.135 126.653 105.957 126.66 105.748C126.71 104.746 126.463 103.714 125.97 102.84C125.867 102.658 125.932 102.423 126.114 102.32C126.296 102.218 126.531 102.282 126.634 102.465C127.196 103.463 127.477 104.64 127.423 105.786C127.412 105.991 127.245 106.151 127.044 106.151V106.147Z"></path>
<path fill="#004600" d="M129.727 97.0668C129.568 97.0668 129.42 96.9681 129.367 96.8087C129.131 96.1216 128.619 95.4687 127.803 94.8082C127.64 94.6753 127.613 94.4362 127.746 94.2691C127.879 94.1059 128.118 94.0793 128.285 94.2122C129.219 94.9638 129.811 95.7344 130.092 96.5619C130.16 96.7631 130.054 96.9795 129.853 97.0478C129.811 97.063 129.769 97.0668 129.727 97.0668Z"></path>
<path fill="#004600" d="M98.3763 76.5191C98.3535 76.3103 98.1675 76.1585 97.9587 76.1775C97.4538 76.2306 96.949 76.3217 96.4593 76.4584C95.9772 76.595 95.5445 76.7317 95.0396 76.6254C94.6524 76.5419 94.3259 76.3331 93.9957 76.1243C93.6389 75.9004 93.2745 75.6802 92.8835 75.5246C92.5684 75.3955 92.2382 75.312 91.9117 75.2057C91.6042 75.107 91.3347 74.9855 91.1373 74.7198C90.7615 74.2188 90.8868 73.6456 91.0348 73.08C91.088 72.875 90.9665 72.6662 90.7615 72.6131C90.5565 72.5599 90.3478 72.6814 90.2946 72.8864C90.0744 73.7291 90.0061 74.5946 90.0896 75.4638C90.101 75.5701 90.1542 75.6688 90.2415 75.7334C90.4123 75.8624 90.6818 75.7789 90.883 75.7903C91.2094 75.8093 91.5169 75.8966 91.8282 75.9801C92.1395 76.0636 92.4507 76.1547 92.7506 76.2838C93.1454 76.4508 93.711 76.7241 93.7565 77.21C93.8021 77.73 93.4832 78.1438 93.1834 78.531C92.8987 78.8954 92.6747 79.2902 92.4545 79.6736C92.2382 80.0532 92.0142 80.4442 91.8661 80.8807C91.7978 81.0819 91.9041 81.2983 92.1053 81.3666C92.147 81.3818 92.1888 81.3856 92.2268 81.3856C92.3862 81.3856 92.5342 81.2869 92.5874 81.1275C92.7126 80.7592 92.9176 80.4024 93.115 80.0532C93.32 79.6926 93.5326 79.3244 93.7831 78.9979C94.9789 77.4567 96.9604 77.0392 98.0346 76.9291C98.2434 76.9063 98.399 76.7203 98.3763 76.5115V76.5191Z"></path>
<path fill="#004600" d="M109.889 69.8838C109.722 69.8838 109.567 69.7737 109.521 69.6029C109.263 68.6615 108.895 67.7505 108.424 66.8964C108.261 66.6041 108.064 66.2662 107.802 65.9815C107.638 65.8031 107.449 65.6437 107.247 65.4729L106.067 64.4707C105.907 64.3341 105.885 64.0949 106.021 63.9317C106.158 63.7685 106.397 63.7495 106.56 63.8861L107.741 64.8883C107.95 65.0667 108.166 65.2489 108.363 65.4653C108.679 65.8069 108.906 66.1941 109.092 66.5244C109.593 67.4316 109.988 68.3996 110.258 69.4017C110.315 69.6067 110.193 69.8155 109.988 69.8724C109.954 69.88 109.92 69.8876 109.886 69.8876L109.889 69.8838Z"></path>
<path fill="#004600" d="M115.303 71.0796C115.303 71.0796 115.295 71.0796 115.291 71.0796C115.079 71.072 114.915 70.8974 114.919 70.6848C114.942 69.9294 114.828 69.1816 114.581 68.4641C114.513 68.2629 114.619 68.0466 114.817 67.9782C115.014 67.9099 115.234 68.0162 115.303 68.2136C115.58 69.0183 115.709 69.8535 115.682 70.7038C115.675 70.9125 115.507 71.0758 115.299 71.0758L115.303 71.0796Z"></path>
<path fill="#004600" d="M102.875 70.7949C102.844 70.7114 102.039 68.7299 98.0689 67.9631C97.8259 67.9176 97.5602 67.9138 97.3363 67.8037C97.2945 67.7847 97.2527 67.7581 97.2148 67.7278C97.1654 67.6822 97.1275 67.6177 97.1047 67.5532C96.8656 66.923 97.6665 66.2398 98.0993 65.9019C98.2663 65.7728 98.2928 65.5299 98.1638 65.3667C98.0347 65.2034 97.7918 65.1731 97.6286 65.3021C97.0022 65.7956 96.5998 66.4295 96.1443 67.0635C96.0494 67.1925 95.9317 67.3178 95.7799 67.3672C95.7116 67.3899 95.6395 67.3975 95.5673 67.3975C95.0283 67.3975 94.6791 66.904 94.2274 66.6725C93.7453 66.4258 93.1986 66.3043 92.6596 66.3384C92.4508 66.3498 92.2876 66.532 92.3028 66.7446C92.3142 66.9534 92.4964 67.1166 92.709 67.1014C93.2138 67.0711 93.9009 67.2305 94.2615 67.6025C94.2919 67.6329 94.3222 67.667 94.3412 67.705C94.3564 67.7392 94.3602 67.7771 94.364 67.8151C94.3716 67.9214 94.3602 68.0277 94.3147 68.1226C94.1818 68.4035 93.7339 68.4984 93.4795 68.6312C93.2024 68.7755 92.9329 68.9387 92.6748 69.1209C92.4167 69.3031 92.1699 69.4929 91.9536 69.7169C91.8055 69.8687 91.8131 70.1079 91.9649 70.2559C92.1168 70.4039 92.3597 70.4001 92.504 70.2483C92.5913 70.161 94.6525 68.0846 97.9322 68.7147C101.444 69.3904 102.165 71.0569 102.169 71.0682C102.225 71.2201 102.37 71.315 102.525 71.315C102.571 71.315 102.616 71.3074 102.662 71.2884C102.859 71.2125 102.958 70.9923 102.882 70.7949H102.875Z"></path>
<path fill="#004600" d="M123.677 99.2647C123.149 98.6915 122.576 98.1563 121.965 97.6666C121.353 97.1769 120.712 96.7366 120.04 96.3418C119.387 95.9622 118.708 95.613 118.286 94.9525C118.021 94.5349 117.91 93.9883 118.112 93.5366C118.29 93.1456 118.666 92.8837 119.049 92.6863C119.467 92.4699 119.854 92.4623 120.31 92.4395C120.765 92.4168 121.247 92.4319 121.71 92.4889C121.919 92.5154 122.113 92.3674 122.139 92.1586C122.166 91.9498 122.018 91.7562 121.809 91.7297C121.285 91.6613 120.754 91.6462 120.226 91.6765C119.698 91.7069 119.216 91.7752 118.708 91.6386C118.434 91.5665 118.142 91.4184 118.066 91.1489C118.021 90.9933 118.058 90.8224 118.119 90.6706C118.172 90.5377 118.241 90.4087 118.324 90.291C118.719 89.7368 119.436 89.3496 120.029 89.0383C120.708 88.6815 121.441 88.4272 122.196 88.3095C122.405 88.2753 122.545 88.0817 122.515 87.873C122.481 87.6642 122.287 87.5237 122.078 87.5541C122.063 87.5541 122.048 87.5579 122.033 87.5617C121.258 87.687 120.503 87.9375 119.801 88.2829C119.467 88.4461 119.133 88.6549 118.818 88.8675C118.503 89.0801 118.207 89.3534 117.865 89.5166C117.557 89.6609 117.231 89.5849 117.155 89.2167C117.083 88.8713 117.254 88.4613 117.39 88.1463C117.527 87.8312 117.713 87.5313 117.922 87.2542C118.351 86.6962 118.89 86.2331 119.478 85.8535C119.649 85.7434 119.827 85.6371 120.01 85.5422C120.511 85.2727 121.046 85.0867 121.555 84.8324C122.063 84.578 122.591 84.2706 123.081 83.9441C123.255 83.8264 123.305 83.5911 123.187 83.4127C123.069 83.2381 122.834 83.1887 122.655 83.3064C122.17 83.6328 121.661 83.9251 121.133 84.1871C120.609 84.4452 120.097 84.6805 119.505 84.6995C118.901 84.7185 117.96 84.5818 117.679 83.9631C117.504 83.5759 117.557 83.1052 117.736 82.7294C117.983 82.2131 118.438 81.8563 118.814 81.4388C119.19 81.0212 119.524 80.5847 119.854 80.1367C119.979 79.9659 119.941 79.7268 119.77 79.6015C119.6 79.4762 119.361 79.5142 119.235 79.685C118.772 80.3152 118.317 80.9491 117.667 81.4046C117.068 81.826 116.369 82.1069 115.644 82.2093C114.604 82.3574 113.238 82.3232 112.433 81.5261C111.966 81.063 111.81 80.3189 112.042 79.7002C112.296 79.0283 112.885 78.5652 113.295 77.9958C113.302 77.9844 113.31 77.973 113.317 77.9616C114.042 76.9291 114.524 75.9422 114.794 74.9514C114.851 74.7464 114.729 74.5377 114.524 74.4807C114.319 74.4238 114.111 74.5453 114.054 74.7502C113.997 74.9552 113.932 75.1564 113.86 75.3538C113.674 75.8511 113.45 76.3977 113.139 76.8304C112.809 77.2935 112.387 77.768 111.905 78.0793C111.583 78.2881 111.066 78.402 110.903 77.9351C110.801 77.6466 110.964 77.3505 111.036 77.0734C111.321 76.0029 111.343 74.8679 111.18 73.7785C111.15 73.5697 110.956 73.4254 110.744 73.4596C110.535 73.49 110.391 73.6874 110.425 73.8961C110.455 74.0897 110.478 74.2833 110.493 74.4769C110.539 75.0349 110.539 75.6119 110.444 76.1661C110.349 76.7204 110.11 77.1949 109.871 77.6694C109.768 77.8705 109.662 78.0755 109.533 78.2615C109.066 78.9296 108.276 79.3662 107.46 79.3889C107.122 79.3965 106.762 79.332 106.511 79.1042C106.158 78.7892 106.116 78.2919 106.12 77.8478C106.124 77.3543 106.139 76.8684 106.067 76.3787C105.987 75.8473 105.828 75.3234 105.592 74.8413C105.501 74.6515 105.274 74.5718 105.084 74.6629C104.894 74.754 104.814 74.9818 104.905 75.1716C105.031 75.4297 105.129 75.6954 105.201 75.9687C105.308 76.3559 105.361 76.7583 105.369 77.1569C105.369 77.3581 105.361 77.5593 105.338 77.7567C105.308 78.03 105.247 78.345 104.905 78.3678C104.697 78.383 104.583 78.235 104.438 78.1173C104.245 77.9503 104.021 77.8098 103.805 77.6769C103.364 77.4112 102.886 77.2062 102.389 77.081C102.184 77.0316 101.975 77.1531 101.926 77.3581C101.876 77.5631 101.998 77.7718 102.203 77.8212C103.649 78.1818 104.833 79.3472 105.604 80.5809C105.957 81.1465 106.242 81.7462 106.405 82.3953C106.56 83.0331 106.526 83.6974 106.299 84.3161C106.067 84.9387 105.623 85.4777 105 85.732C104.283 86.0243 103.531 85.9332 102.787 85.8535C101.975 85.77 101.155 85.8079 100.343 85.8535C100.134 85.8649 99.9706 86.0433 99.982 86.2559C99.9934 86.4646 100.172 86.6279 100.384 86.6165C100.927 86.5899 101.466 86.5633 102.009 86.6013C103.167 86.6886 104.252 87.1973 105.148 87.9223C106.044 88.6473 106.784 89.509 107.179 90.5871C107.859 92.4433 107.373 94.292 106.162 95.799C105.889 96.1368 105.532 96.4177 105.194 96.691C104.818 96.9985 104.423 97.2832 104.025 97.5603C103.85 97.678 103.805 97.9171 103.926 98.0917C103.998 98.198 104.12 98.2588 104.241 98.2588C104.317 98.2588 104.389 98.236 104.457 98.1904C105.129 97.7311 105.794 97.2377 106.386 96.6721C106.731 96.3418 107.092 95.9736 107.551 95.799C108.056 95.6054 108.641 95.6092 109.161 95.7534C109.867 95.9508 110.383 96.4215 110.74 97.0516C111.013 97.5337 111.15 98.0993 111.256 98.6422C111.4 99.3862 111.457 100.168 111.355 100.92C111.252 101.671 111.009 102.396 110.694 103.08C110.607 103.273 110.694 103.497 110.884 103.585C110.937 103.607 110.99 103.619 111.044 103.619C111.188 103.619 111.328 103.535 111.393 103.395C111.723 102.677 111.955 101.918 112.11 101.148C112.266 100.385 112.273 99.5874 112.592 98.8623C112.653 98.7257 112.721 98.5966 112.797 98.4675C113.196 97.8298 113.913 97.3439 114.665 97.4047C115.041 97.435 115.397 97.5983 115.709 97.8108C116.02 98.0234 116.29 98.2929 116.555 98.5624C116.901 98.9079 117.242 99.2571 117.542 99.6443C118.461 100.836 118.966 102.317 119.099 103.809C119.118 104.006 119.281 104.158 119.478 104.158C119.49 104.158 119.501 104.158 119.512 104.158C119.721 104.139 119.877 103.953 119.862 103.744C119.789 102.928 119.611 102.123 119.33 101.352C119.205 101.007 119.072 100.643 118.916 100.309C118.742 99.9366 118.525 99.6101 118.484 99.1888C118.476 99.0939 118.472 98.999 118.484 98.9041C118.529 98.4638 118.814 98.0538 119.212 97.8564C119.63 97.6514 120.127 97.6818 120.568 97.8336C121.585 98.1866 122.394 99.0066 123.107 99.781C123.183 99.8607 123.286 99.9024 123.388 99.9024C123.479 99.9024 123.574 99.8683 123.646 99.7999C123.802 99.6557 123.809 99.4165 123.669 99.2609L123.677 99.2647Z"></path>
<path fill="#D5ADD1" d="M101.17 91.2697C102.564 90.8311 103.479 89.7946 103.215 88.9547C102.951 88.1148 101.607 87.7895 100.213 88.2282C98.8189 88.6668 97.9033 89.7033 98.1676 90.5432C98.4319 91.3831 99.7761 91.7084 101.17 91.2697Z"></path>
<path fill="#D5ADD1" d="M98.6093 80.6957C99.7787 80.5205 100.645 79.8323 100.544 79.1585C100.443 78.4846 99.4131 78.0804 98.2438 78.2556C97.0744 78.4307 96.2083 79.119 96.3092 79.7928C96.4102 80.4667 97.44 80.8709 98.6093 80.6957Z"></path>
<path fill="#D5ADD1" d="M117.098 108.271C117.69 107.247 117.691 106.141 117.1 105.8C116.51 105.46 115.553 106.014 114.962 107.038C114.37 108.062 114.369 109.168 114.96 109.509C115.55 109.849 116.507 109.295 117.098 108.271Z"></path>
<path fill="#D5ADD1" d="M78.1141 87.8983C78.7307 87.4347 79.014 86.7708 78.7469 86.4156C78.4798 86.0603 77.7634 86.1482 77.1468 86.6119C76.5302 87.0755 76.2468 87.7394 76.5139 88.0946C76.781 88.4499 77.4974 88.362 78.1141 87.8983Z"></path>
<path fill="#D5ADD1" d="M78.1197 102.682C78.4271 102.577 78.5275 102.057 78.3439 101.522C78.1604 100.986 77.7624 100.638 77.455 100.743C77.1476 100.848 77.0472 101.368 77.2308 101.903C77.4143 102.439 77.8123 102.788 78.1197 102.682Z"></path>
<path fill="#D5ADD1" d="M94.8958 107.11C95.5507 106.996 96.0365 106.645 95.981 106.324C95.9256 106.004 95.3498 105.837 94.6949 105.95C94.0401 106.064 93.5543 106.415 93.6097 106.735C93.6652 107.055 94.241 107.223 94.8958 107.11Z"></path>
<path fill="#D5ADD1" d="M106.897 106.188C107.653 105.675 108.024 104.902 107.725 104.461C107.426 104.021 106.571 104.079 105.814 104.592C105.058 105.106 104.687 105.879 104.986 106.319C105.285 106.76 106.141 106.701 106.897 106.188Z"></path>
<path fill="#D5ADD1" d="M123.953 103.279C124.296 103.107 124.335 102.492 124.041 101.906C123.747 101.319 123.23 100.983 122.888 101.155C122.545 101.327 122.505 101.942 122.799 102.529C123.094 103.115 123.61 103.451 123.953 103.279Z"></path>
<path fill="#D5ADD1" d="M115.609 79.3193C115.737 78.8632 115.625 78.4328 115.359 78.3579C115.092 78.2831 114.772 78.5922 114.644 79.0483C114.516 79.5045 114.628 79.9349 114.895 80.0098C115.161 80.0846 115.481 79.7755 115.609 79.3193Z"></path>
<path fill="#D5ADD1" d="M105.052 114.986C105.897 114.639 106.419 113.958 106.217 113.465C106.015 112.973 105.165 112.855 104.32 113.202C103.474 113.549 102.952 114.229 103.155 114.722C103.357 115.214 104.206 115.333 105.052 114.986Z"></path>
<path fill="#D5ADD1" d="M85.139 109.407C85.4217 109.086 85.2299 108.455 84.7108 107.998C84.1916 107.541 83.5415 107.43 83.2589 107.751C82.9762 108.072 83.168 108.703 83.6872 109.16C84.2063 109.618 84.8564 109.728 85.139 109.407Z"></path>
<path fill="#D5ADD1" d="M92.8848 114.638C93.0292 114.236 92.6183 113.72 91.9671 113.486C91.3159 113.253 90.6709 113.39 90.5266 113.792C90.3822 114.195 90.7931 114.711 91.4443 114.944C92.0955 115.178 92.7405 115.041 92.8848 114.638Z"></path>
<path fill="#D5ADD1" d="M87.6384 95.9301C88.3868 95.0501 88.5973 93.9999 88.1086 93.5842C87.6199 93.1686 86.6171 93.5451 85.8687 94.425C85.1203 95.305 84.9098 96.3552 85.3985 96.7708C85.8872 97.1865 86.89 96.81 87.6384 95.9301Z"></path>
<path fill="#D5ADD1" d="M89.4851 79.346C90.397 79.059 91.0025 78.4016 90.8376 77.8776C90.6727 77.3537 89.7998 77.1616 88.8879 77.4486C87.9761 77.7356 87.3705 78.393 87.5354 78.9169C87.7003 79.4409 88.5732 79.633 89.4851 79.346Z"></path>
<path fill="#D5ADD1" d="M77.9962 82.0499C78.4604 81.7009 78.6732 81.2006 78.4716 80.9325C78.27 80.6644 77.7303 80.73 77.2662 81.079C76.8021 81.428 76.5892 81.9283 76.7908 82.1964C76.9924 82.4645 77.5321 82.3989 77.9962 82.0499Z"></path>
<path fill="#D5ADD1" d="M98.495 70.784C98.6152 70.3561 98.1384 69.8479 97.4299 69.6489C96.7215 69.4499 96.0497 69.6355 95.9295 70.0634C95.8094 70.4913 96.2862 70.9995 96.9947 71.1985C97.7031 71.3975 98.3748 71.2119 98.495 70.784Z"></path>
<path fill="#D5ADD1" d="M106.029 67.1567C106.373 66.7474 106.076 65.9324 105.367 65.3362C104.657 64.7401 103.804 64.5886 103.46 64.9979C103.116 65.4072 103.412 66.2223 104.121 66.8184C104.831 67.4145 105.685 67.566 106.029 67.1567Z"></path>
<path fill="#D5ADD1" d="M86.6802 72.6958C86.9712 72.3112 86.9888 71.8344 86.7196 71.6308C86.4505 71.4271 85.9964 71.5737 85.7055 71.9583C85.4146 72.3428 85.3969 72.8196 85.6661 73.0233C85.9353 73.2269 86.3893 73.0803 86.6802 72.6958Z"></path>
<path fill="#D5ADD1" d="M113.446 68.2744C113.465 68.3997 113.469 68.5325 113.408 68.6426C113.31 68.8248 113.067 68.8856 112.869 68.8286C112.672 68.7717 112.52 68.6122 112.402 68.4452C112.285 68.2782 112.194 68.0922 112.065 67.929C111.932 67.7582 111.761 67.6139 111.662 67.4203C111.351 66.7902 112.091 66.7067 112.513 66.8889C113.021 67.109 113.37 67.7506 113.443 68.2744H113.446Z"></path>
</g>
<path fill="white" d="M32.8157 49.6777C26.4157 50.566 25.8843 51.2834 25.2313 59.9649C24.5784 51.2834 24.047 50.566 17.647 49.6777C24.047 48.7895 24.5784 48.072 25.2313 39.3906C25.8843 48.072 26.4157 48.7895 32.8157 49.6777Z"></path>
<path fill="white" d="M109.992 49.6777C103.592 50.566 103.061 51.2834 102.408 59.9649C101.755 51.2834 101.223 50.566 94.8232 49.6777C101.223 48.7895 101.755 48.072 102.408 39.3906C103.061 48.072 103.592 48.7895 109.992 49.6777Z"></path>
<path fill="white" d="M142.918 111.112C136.518 112 135.987 112.718 135.334 121.399C134.681 112.718 134.15 112 127.75 111.112C134.15 110.224 134.681 109.506 135.334 100.825C135.987 109.506 136.518 110.224 142.918 111.112Z"></path>
</g>
<defs>
<clipPath id="clip0_8_23000">
<rect transform="translate(17.647 32.9412)" fill="white" height="94.1176" width="125.271"></rect>
</clipPath>
</defs>
</svg>
