<svg xmlns="http://www.w3.org/2000/svg" fill="none" viewBox="0 0 160 160" height="160" width="160">
<circle fill="#FF7832" r="80" cy="80" cx="80"></circle>
<g clip-path="url(#clip0_8_22897)">
<path fill="#004600" d="M56.6716 112.528C56.6716 112.528 43.0265 114.725 42.7341 118.035C42.7085 118.317 42.9132 118.543 43.1178 118.704C43.6002 119.088 44.2324 119.292 44.8134 119.475C45.7489 119.767 46.7136 119.965 47.6784 120.144C48.9501 120.378 50.2327 120.557 51.5154 120.714C53.0502 120.904 54.585 121.057 56.1271 121.196C57.8556 121.35 59.5841 121.478 61.3125 121.595C63.1653 121.719 65.0216 121.821 66.878 121.913C68.7929 122.008 70.7077 122.088 72.6262 122.161C73.5873 122.198 74.5447 122.23 75.5058 122.26C76.0795 122.278 76.6533 122.289 77.227 122.326C77.6363 122.351 78.9482 122.304 78.9701 122.914C78.9737 123.049 78.897 123.173 78.7947 123.257C78.6924 123.341 78.5681 123.396 78.4439 123.447C78.0784 123.601 77.713 123.751 77.3476 123.904C77.0223 124.039 76.6862 124.182 76.4377 124.434C76.1526 124.726 76.0393 125.194 76.2878 125.549C76.5473 125.925 77.0224 126.013 77.4426 126.089C78.0273 126.199 78.6229 126.25 79.2149 126.301C81.3929 126.484 83.5708 126.641 85.7525 126.765C87.9121 126.89 90.0718 126.974 92.2352 127.029C93.0428 127.047 93.8504 127.065 94.658 127.076C96.7848 127.113 98.9116 127.127 101.042 127.127C114.534 127.127 129.465 127.306 128.701 123.747C127.938 120.188 107.678 119.614 107.678 119.614L85.8219 111.852L56.6825 112.536L56.6716 112.528Z"></path>
<path fill="#F0533D" d="M45.2633 95.2656C45.2633 95.2656 34.0702 77.0416 51.1723 59.2744C70.9164 38.7665 114.633 50.2995 114.077 77.8273C113.533 104.829 93.4525 115.434 82.7162 118.105C71.9798 120.776 53.1748 115.613 46.7067 103.868C46.7067 103.868 45.4826 100.488 45.2633 95.2656Z"></path>
<mask height="71" width="74" y="48" x="41" maskUnits="userSpaceOnUse" style="mask-type:luminance" id="mask0_8_22897">
<path fill="white" d="M45.2633 95.2656C45.2633 95.2656 34.0702 77.0416 51.1723 59.2744C70.9164 38.7665 114.633 50.2995 114.077 77.8273C113.533 104.829 93.4525 115.434 82.7162 118.105C71.9798 120.776 53.1748 115.613 46.7067 103.868C46.7067 103.868 45.4826 100.488 45.2633 95.2656Z"></path>
</mask>
<g mask="url(#mask0_8_22897)">
<path fill="#004600" d="M44.8944 96.3072C44.6678 96.3072 44.4888 96.1208 44.4888 95.8979C44.4888 95.8467 44.5436 90.8842 46.3415 84.5038C48.0005 78.6094 51.5306 70.252 58.9232 63.9118C63.7542 59.6729 69.2028 56.8883 75.1191 55.6385C80.2753 54.5495 85.4826 54.7176 90.1748 56.1209C96.2701 57.9444 100.622 61.6279 101.821 65.9692C101.879 66.1848 101.752 66.4114 101.536 66.4698C101.32 66.5283 101.094 66.4004 101.035 66.1848C99.9135 62.1139 95.7658 58.6423 89.9409 56.8992C82.0842 54.5459 69.9482 55.3133 59.4568 64.5221C52.2249 70.7234 48.7643 78.9164 47.1308 84.6938C45.3585 90.9755 45.3037 95.8467 45.3037 95.8979C45.3037 96.1208 45.121 96.3035 44.8944 96.3035V96.3072Z"></path>
<path fill="#004600" d="M87.2402 75.5762C87.2402 75.5762 76.3322 81.5144 77.1361 99.1793C77.9254 116.541 89.3963 125.161 96.0727 126.035C96.2481 126.057 93.2296 107.288 93.2296 107.288L87.2366 75.5762H87.2402Z"></path>
<path fill="#004600" d="M47.7156 62.2235C47.7156 62.2235 55.3092 63.5098 62.954 61.1966C62.954 61.1966 72.499 54.9697 81.463 55.3461C81.463 55.3461 80.7394 52.2692 89.7217 50.2959C89.7217 50.2959 82.9832 46.0459 82.9868 45.8851C82.9905 45.7244 49.4002 56.1135 49.4002 56.1939C49.4002 56.2743 47.7119 62.2235 47.7119 62.2235H47.7156Z"></path>
</g>
<path fill="#62BB46" d="M37.3332 52.3166C37.3332 52.3166 43.1253 62.4025 66.659 58.0904C81.3711 55.0829 82.9133 50.2593 89.3594 48.7172C89.3594 48.7172 79.4051 37.1148 61.7659 42.852C47.4995 47.493 46.9221 51.4067 37.3296 52.3166H37.3332Z"></path>
<path fill="#FFF200" d="M50.24 86.1006C49.9842 86.3089 49.8417 86.6231 49.7284 86.9301C49.151 88.4759 49.0524 90.197 49.4434 91.8013C49.5165 92.1046 49.6151 92.4189 49.8234 92.6527C50.0317 92.8866 50.3789 93.0291 50.6676 92.9122C50.938 92.8062 51.0915 92.5066 51.1243 92.2179C51.1572 91.9292 51.0915 91.6405 51.0439 91.3518C50.8759 90.3322 50.9307 89.2798 51.2047 88.2822C51.3107 87.8948 51.4532 87.5184 51.5007 87.1201C51.5409 86.7912 51.5409 86.2102 51.2267 85.9946C50.9526 85.8046 50.4702 85.9069 50.2327 86.1006H50.24Z"></path>
<path fill="#FFF200" d="M50.5363 94.5456C50.3828 94.8343 50.3609 95.1814 50.4047 95.5067C50.4522 95.8538 50.5801 96.2083 50.8542 96.4239C51.1283 96.6395 51.5777 96.6541 51.8007 96.3873C51.9103 96.2594 51.9505 96.084 51.9541 95.9159C51.9578 95.7478 51.9176 95.5797 51.8774 95.4153C51.8007 95.0864 51.7239 94.7539 51.6472 94.425C51.6253 94.3373 51.6033 94.2459 51.5522 94.1692C51.2817 93.7745 50.6751 94.2715 50.5326 94.5419L50.5363 94.5456Z"></path>
<path fill="#FFF200" d="M47.0608 92.3968C47.0097 92.4918 46.9621 92.5905 46.9256 92.6892C46.509 93.7635 46.5492 95.0462 47.0206 96.095C47.112 96.3033 47.2253 96.5043 47.386 96.665C47.5468 96.8258 47.7661 96.9391 47.9927 96.9282C48.3179 96.9172 48.5993 96.6541 48.7126 96.3471C48.8258 96.0402 48.8039 95.7003 48.7454 95.3787C48.687 95.0572 48.5956 94.7392 48.57 94.414C48.5481 94.0924 48.592 93.7708 48.6175 93.4529C48.6541 92.9888 48.6358 92.3055 48.1827 92.0277C47.9525 91.8852 47.6455 91.8852 47.4153 92.0204C47.2618 92.1081 47.1522 92.247 47.0645 92.4005L47.0608 92.3968Z"></path>
<path fill="#FFF200" d="M93.9457 61.9312C94.0663 61.6864 94.0662 61.3757 93.9639 61.1163C93.8214 60.7545 93.5181 60.4768 93.2002 60.2539C92.7726 59.9542 92.2903 59.7203 91.7787 59.629C91.2671 59.5376 90.7153 59.5961 90.2585 59.8482C89.8017 60.1004 89.4436 60.5535 89.3632 61.0688C89.2755 61.6279 89.5057 62.1249 89.9442 62.4611C90.3827 62.7973 91.077 62.8302 91.6179 62.7753C92.1697 62.7205 92.7069 62.5634 93.2404 62.4063C93.4158 62.3551 93.5985 62.3003 93.7447 62.1833C93.8324 62.1139 93.8982 62.0299 93.9457 61.9312Z"></path>
<path fill="#FFF200" d="M94.8813 63.7401C94.8996 64.0507 95.086 64.3248 95.3162 64.5331C95.5464 64.7414 95.8168 64.8948 96.069 65.0776C96.7523 65.5745 97.2822 66.2835 97.5599 67.0838C97.6586 67.3651 97.728 67.6575 97.8413 67.9352C97.9546 68.2129 98.119 68.476 98.3675 68.6441C98.616 68.8122 98.9559 68.8634 99.2153 68.7136C99.5406 68.5272 99.6392 68.0997 99.6356 67.7233C99.6246 67.007 99.3506 66.3164 98.9705 65.7134C98.5905 65.1104 98.1008 64.5806 97.6148 64.0544C97.0776 63.4733 96.0763 62.3551 95.2102 63.0202C94.9946 63.1846 94.8667 63.4624 94.885 63.7364L94.8813 63.7401Z"></path>
<path fill="#FFF200" d="M92.8786 65.7062C92.7726 65.9839 92.8165 66.3055 92.9407 66.5722C93.065 66.839 93.2733 67.0656 93.4962 67.2666C93.8506 67.5845 94.2599 67.8439 94.6984 68.034C94.914 68.129 95.1479 68.2057 95.3818 68.1984C95.6193 68.1911 95.8641 68.0851 95.9847 67.8841C96.1236 67.6576 96.0798 67.3652 95.9994 67.1131C95.8313 66.5869 95.4951 66.1228 95.0712 65.7756C94.713 65.4833 94.0699 65.0886 93.5802 65.1617C93.2769 65.2092 92.9882 65.4175 92.8786 65.7062Z"></path>
<path fill="white" d="M49.4872 63.3672C48.8038 63.5792 48.3653 64.2296 47.9962 64.8436C46.6112 67.1458 45.3834 69.5649 44.6489 72.1522C44.5722 72.4189 44.5027 72.693 44.5502 72.9671C44.5977 73.2375 44.7987 73.5006 45.0728 73.5335C45.3505 73.5627 45.599 73.3544 45.7708 73.1315C45.9315 72.9232 46.0594 72.6893 46.1873 72.4591C47.4371 70.1898 48.6869 67.9205 49.9367 65.6512C50.1157 65.3223 50.2984 64.9897 50.4007 64.628C50.5944 63.9263 50.3752 63.0932 49.4872 63.3672Z"></path>
<path fill="white" d="M43.8378 75.3788C43.7172 75.5141 43.6478 75.6858 43.5856 75.8576C43.4504 76.2449 43.3481 76.6542 43.3664 77.0635C43.381 77.3704 43.5052 77.7212 43.8012 77.8053C43.962 77.8491 44.1374 77.8053 44.2726 77.7066C44.4078 77.608 44.5102 77.4764 44.5979 77.3339C44.8171 76.9721 44.9487 76.5592 44.9743 76.1353C45.0145 75.4812 44.4809 74.6589 43.8341 75.3715L43.8378 75.3788Z"></path>
<path fill="white" d="M52.2721 77.8455C52.0528 77.9734 51.8994 78.189 51.7641 78.401C50.9894 79.5959 50.4194 80.948 50.2769 82.3623C50.2513 82.6327 50.2403 82.9104 50.3244 83.1662C50.3719 83.3087 50.4596 83.4512 50.5984 83.5134C50.7702 83.5901 50.9821 83.5207 51.1246 83.3928C51.2672 83.2649 51.3512 83.0895 51.4316 82.9177C51.9944 81.7483 52.5535 80.579 53.1162 79.4059C53.2405 79.1501 53.3647 78.8834 53.383 78.5983C53.4159 78.0246 52.8166 77.5276 52.2721 77.8419V77.8455Z"></path>
<path fill="white" d="M53.2 76.0001C53.094 75.6968 53.105 75.3496 53.2548 75.0646C53.4046 74.7795 53.7043 74.5749 54.0259 74.5566C54.3474 74.5384 54.6763 74.7284 54.8006 75.0244C54.8663 75.1815 54.8737 75.3606 54.8517 75.5323C54.8115 75.8137 54.6836 76.0841 54.4753 76.2778C54.0332 76.6944 53.4119 76.6067 53.2 76.0001Z"></path>
<path fill="white" d="M59.9092 45.3114C59.2076 45.5014 58.506 45.6988 57.8117 45.9144C57.1174 46.13 56.3646 46.3858 55.652 46.6599C55.0856 46.8791 54.1501 47.0655 54.0039 47.7598C53.9601 47.9681 54.0258 48.2056 54.1976 48.3262C54.4022 48.4687 54.68 48.4139 54.9248 48.3555C57.428 47.7744 60.0225 47.7379 62.5659 47.3761C63.1652 47.2921 63.7682 47.1861 64.3236 46.9485C64.8791 46.711 65.3943 46.3346 65.6903 45.8048C65.8804 45.4649 65.9754 45.052 65.8438 44.6865C65.5917 43.9813 64.6379 44.153 64.0496 44.2773C63.4393 44.4052 62.8327 44.5586 62.2261 44.7121C61.4514 44.9095 60.6803 45.1031 59.9092 45.3114Z"></path>
<path fill="white" d="M69.3446 43.9958C69.2423 44.4161 69.4725 44.8948 69.8635 45.0812C69.9877 45.1396 70.1266 45.1725 70.2655 45.1835C70.5469 45.2054 70.8502 45.1396 71.0475 44.9386C71.2412 44.7413 71.3069 44.4453 71.2814 44.1712C71.2558 43.9191 71.1535 43.6706 70.9744 43.4879C70.4701 42.9726 69.509 43.3198 69.3446 43.9995V43.9958Z"></path>
<path fill="white" d="M72.6738 43.3783C72.3924 43.6085 72.2207 43.9411 72.2426 44.3394C72.2682 44.7341 72.5057 45.1105 72.8529 45.3041C73.4449 45.6257 74.2305 45.443 74.8591 45.3553C75.6338 45.2457 76.4048 45.0958 77.1869 45.1031C77.5121 45.1031 77.8373 45.136 78.1626 45.1689C78.8715 45.2347 79.5768 45.3041 80.2857 45.3699C80.4173 45.3809 80.5525 45.3955 80.6804 45.3626C80.8083 45.3297 80.9325 45.2493 80.9764 45.1251C81.0129 45.0191 80.9873 44.8985 80.9362 44.7998C80.8229 44.566 80.6036 44.4052 80.3844 44.27C79.5548 43.773 78.5024 43.583 77.5633 43.3966C76.551 43.1993 75.5205 43.0896 74.4863 43.0714C73.9747 43.0604 73.4339 42.9727 72.9552 43.2029C72.8492 43.2541 72.7542 43.3125 72.6702 43.3856L72.6738 43.3783Z"></path>
<path fill="#004600" d="M99.036 49.6379L94.5157 46.4441C94.5157 46.4441 94.3476 46.667 94.333 46.6889C93.931 47.1969 93.4194 47.6317 92.8274 47.9058C92.1988 48.1908 91.457 48.2018 90.7956 48.041C89.2571 47.6683 87.7406 47.3211 86.1583 47.1786C85.8733 47.153 85.5919 47.1348 85.3068 47.1055C83.7574 46.9959 82.1897 46.9813 80.6403 47.0617C77.6584 47.2151 74.6729 47.661 71.7677 48.3334C68.5848 49.0386 65.464 50.1093 62.3908 51.1618C59.0434 52.2471 55.5901 53.1168 52.1039 53.6102C52.093 53.6102 52.082 53.6102 52.071 53.6138C51.9176 53.6357 51.7604 53.654 51.6069 53.6723C51.4535 53.6906 51.2927 53.7088 51.1355 53.7271C50.9784 53.7454 50.8176 53.7636 50.6568 53.7783C50.496 53.7965 50.3316 53.8111 50.1708 53.8258C50.0064 53.8404 49.8419 53.855 49.6811 53.8696C49.5203 53.8842 49.3486 53.8952 49.1842 53.9062C49.0197 53.9171 48.8516 53.9281 48.6835 53.939C48.5154 53.95 48.3473 53.9573 48.1792 53.9646C48.0111 53.9719 47.8394 53.9792 47.6713 53.9829C47.5032 53.9866 47.3314 53.9939 47.1597 53.9975C46.9879 53.9975 46.8162 54.0012 46.6481 54.0048C46.48 54.0085 46.3046 54.0048 46.1328 54.0048C45.9611 54.0048 45.7893 54.0012 45.6176 53.9975C45.4458 53.9939 45.2741 53.9866 45.1023 53.9792C44.9306 53.9719 44.7588 53.9646 44.587 53.9537C44.4153 53.9427 44.2435 53.9317 44.0754 53.9208C43.9074 53.9098 43.7356 53.8915 43.5638 53.8769C43.3921 53.8623 43.224 53.844 43.0559 53.8221C42.8878 53.8002 42.7197 53.7819 42.5516 53.76C42.3835 53.7381 42.2154 53.7125 42.051 53.6869C41.8865 53.6613 41.7184 53.6321 41.554 53.6029C41.3895 53.5736 41.2251 53.5407 41.0607 53.5078C40.8962 53.475 40.7354 53.4384 40.5746 53.3982C40.4138 53.358 40.2531 53.3215 40.0959 53.2776C39.9388 53.2338 39.7817 53.1899 39.6245 53.1461C39.4674 53.1022 39.3139 53.0511 39.1604 52.9999C39.0069 52.9487 38.8535 52.8976 38.7036 52.8391C38.5538 52.7806 38.404 52.7258 38.2542 52.6674C38.1043 52.6089 37.9618 52.5468 37.8156 52.481C37.7791 52.4664 37.7426 52.4481 37.706 52.4335C37.6731 52.4189 37.6366 52.3969 37.6 52.386C37.516 52.3604 37.4356 52.3129 37.3442 52.3129C37.3735 52.3567 37.41 52.3933 37.4466 52.4262C37.4831 52.4591 37.5306 52.481 37.5781 52.5066C37.7535 52.5979 37.9326 52.6856 38.1153 52.7624C40.0265 53.5919 42.0948 53.9939 44.1595 54.2131C51.2854 54.9001 58.4368 53.3105 65.179 51.1399C67.9818 50.2628 70.8322 49.5466 73.7227 49.0606C75.1625 48.823 76.6096 48.6367 78.064 48.5161C79.5586 48.3955 81.0606 48.3407 82.5588 48.3772C84.0534 48.4138 85.5444 48.538 87.0207 48.7792C87.4994 48.8559 87.9781 48.9473 88.4532 49.0533C89.5897 49.3017 91.3072 49.5904 91.4132 51.0595C91.4132 51.1033 91.4168 51.1472 91.4168 51.191C91.4059 51.8744 90.9893 52.4956 90.5617 52.9926C90.0465 53.5882 89.4325 54.0998 88.8004 54.5639C88.3034 54.9257 87.7881 55.2619 87.2582 55.5725C87.1413 55.6383 87.028 55.7077 86.9074 55.7699C90.3754 56.4167 95.0748 58.6567 95.0748 58.6567C94.6472 53.3726 99.0506 49.6379 99.0506 49.6379H99.036Z"></path>
<path fill="#62BB46" d="M99.171 49.4276C99.4859 48.8823 98.6685 47.8209 97.3454 47.0571C96.0223 46.2932 94.6945 46.116 94.3796 46.6613C94.0648 47.2066 94.8822 48.2679 96.2053 49.0318C97.5284 49.7957 98.8562 49.9729 99.171 49.4276Z"></path>
<path fill="#F0533D" d="M88.6029 74.6663C88.6029 74.6663 87.4994 75.1742 86.7466 76.0841C85.9938 76.994 75.9116 90.1641 83.3663 106.835C91.1281 124.193 111.778 124.657 121.55 120.064C128.749 116.683 131.753 111.125 131.753 111.125C131.753 111.125 133.69 108.198 131.95 106.616L130.514 105.216L110.277 109.978L88.5993 74.6699L88.6029 74.6663Z"></path>
<path fill="#FFF200" d="M88.6028 74.6664C88.6028 74.6664 88.5918 74.6701 88.5845 74.6737C88.5078 74.703 88.4384 74.7578 88.3726 74.8089C88.2374 74.9149 88.1241 75.1086 88.0108 75.2474C87.9158 75.3607 87.8244 75.474 87.7331 75.5909C87.4188 75.9929 87.1301 76.4095 86.856 76.8407C86.487 77.4217 86.1508 78.0247 85.8475 78.6386C85.4638 79.4097 85.1276 80.2063 84.8316 81.0176C84.4734 81.9933 84.1774 82.9909 83.9326 84.0031C83.6439 85.1981 83.4283 86.4077 83.2785 87.6282C83.1031 89.0534 83.0117 90.4858 82.9935 91.9183C82.8363 104.284 89.4908 110.968 94.4533 114.133C100.874 118.226 109.593 120.301 118.846 116.804C120 116.369 121.115 115.832 122.175 115.203C123.472 114.432 124.682 113.519 125.778 112.481C126.699 111.611 127.539 110.658 128.288 109.634C128.869 108.845 129.392 108.012 129.856 107.149C130.024 106.835 130.181 106.517 130.331 106.192C130.39 106.068 130.444 105.94 130.499 105.812C130.605 105.567 130.678 105.377 130.452 105.154C130.338 105.041 130.192 104.968 130.046 104.895C129.366 104.555 128.584 104.358 127.872 104.091C127.145 103.817 126.421 103.528 125.709 103.21C123.998 102.45 122.343 101.525 120.929 100.29C120.191 99.6435 119.485 98.9017 118.557 98.5728C117.804 98.306 116.982 98.3389 116.185 98.2695C115.389 98.2001 114.541 97.9881 114.033 97.3705C113.58 96.8187 113.485 96.0623 113.152 95.4301C112.794 94.7504 112.147 94.2278 111.406 94.0232C110.751 93.8441 109.995 93.8807 109.483 93.4349C108.986 93.0037 108.902 92.2691 108.53 91.7283C108.204 91.2533 107.645 90.9463 107.068 90.9244C106.37 90.8988 105.581 91.2386 105.025 90.8147C104.331 90.2849 104.696 89.0643 104.101 88.4248C103.563 87.8438 102.5 88.0265 101.985 87.4235C101.784 87.1897 101.703 86.8791 101.605 86.5867C101.32 85.7718 100.812 85.0373 100.147 84.4891C96.4632 81.4451 93.1232 77.9553 89.4104 74.9478C89.2788 74.8418 89.1327 74.7468 88.9719 74.6883C88.8549 74.6481 88.7234 74.6335 88.6028 74.6737V74.6664Z"></path>
<path fill="white" d="M88.2486 78.9455C87.7297 79.2598 87.3972 79.8043 87.1121 80.3415C86.2826 81.8982 85.6796 83.5792 85.3252 85.3077C85.1753 86.0349 85.073 86.7913 85.2229 87.5222C85.285 87.8218 85.3983 88.1215 85.6212 88.3261C85.8441 88.5308 86.2022 88.6148 86.4617 88.454C86.6773 88.3225 86.7759 88.0667 86.8417 87.8218C87.2035 86.5246 87.061 85.125 87.43 83.8277C87.6676 82.9835 88.1134 82.2161 88.5921 81.4816C88.8479 81.0833 89.122 80.685 89.2572 80.2319C89.3668 79.8628 89.3814 79.4352 89.2097 79.0844C89.0197 78.6934 88.5848 78.7446 88.2523 78.9455H88.2486Z"></path>
<path fill="white" d="M85.2961 90.8476C85.1792 91.0961 85.1719 91.3848 85.2231 91.6552C85.2633 91.8781 85.351 92.101 85.5118 92.2618C85.6725 92.4226 85.9247 92.503 86.1366 92.4262C86.217 92.397 86.2901 92.3422 86.3559 92.2837C86.6336 92.0316 86.7834 91.6479 86.7469 91.2751C86.714 90.9536 86.4911 90.4712 86.1586 90.3579C85.826 90.2446 85.4314 90.5589 85.2961 90.8476Z"></path>
<path fill="#F0533D" d="M100.49 86.8096C100.68 87.2627 100.75 87.7816 101.06 88.1617C101.634 88.8633 102.84 88.8633 103.282 89.6526C103.552 90.135 103.447 90.7782 103.783 91.2167C104.057 91.5748 104.546 91.6844 104.996 91.7064C105.445 91.7283 105.913 91.6954 106.333 91.8562C107.002 92.1156 107.382 92.799 107.737 93.4239C108.091 94.0451 108.548 94.7065 109.25 94.8527C109.608 94.9258 109.984 94.8527 110.342 94.9148C111.113 95.0537 111.618 95.7882 111.957 96.4971C112.297 97.2024 112.593 97.9881 113.236 98.4339C113.931 98.9163 114.848 98.8834 115.652 99.1428C116.785 99.5083 117.76 100.411 118.597 101.226C119.05 101.668 119.489 102.154 119.686 102.753C119.884 103.353 119.781 104.094 119.284 104.489C119.2 104.555 119.105 104.613 119.007 104.646C118.634 104.778 118.221 104.621 117.877 104.427C117.643 104.295 117.424 104.149 117.212 103.985C116.891 103.733 116.595 103.44 116.229 103.258C115.864 103.071 115.403 103.009 115.06 103.225C114.709 103.444 114.461 103.886 114.234 104.222C113.898 104.723 113.543 105.457 112.933 105.666C112.674 105.753 112.502 105.626 112.425 105.37C112.283 104.924 112.29 104.453 112.257 103.992C112.231 103.634 112.195 103.188 111.914 102.929C111.738 102.768 111.512 102.83 111.318 102.914C111.095 103.013 110.876 103.115 110.656 103.225C110.43 103.338 110.203 103.451 109.977 103.565C109.703 103.703 109.392 103.842 109.1 103.751C108.8 103.656 108.632 103.338 108.595 103.046C108.555 102.731 108.632 102.417 108.698 102.11C108.753 101.854 108.818 101.569 108.76 101.31C108.716 101.127 108.592 100.985 108.409 100.937C108.252 100.893 108.087 100.908 107.927 100.919C107.207 100.977 106.472 101.072 105.745 101.061C105.376 101.058 105.003 101.028 104.641 100.952C104.356 100.893 103.929 100.831 103.808 100.517C103.801 100.499 103.797 100.48 103.794 100.466C103.768 100.356 103.779 100.239 103.801 100.13C103.867 99.8079 104.031 99.5156 104.225 99.2488C104.419 98.9821 104.649 98.7555 104.762 98.4522C104.864 98.1854 104.718 97.8675 104.514 97.6884C104.229 97.4363 103.885 97.4144 103.523 97.3851C103.099 97.3486 102.683 97.3486 102.263 97.2755C101.521 97.1476 100.6 96.943 100.107 96.3181C99.9347 96.1025 99.8544 95.8101 100.081 95.6018C100.293 95.4045 100.593 95.3241 100.808 95.1304C100.965 94.9916 101.093 94.7723 101.064 94.5567C101.035 94.3265 100.841 94.1547 100.636 94.0597C100.465 93.9793 100.275 93.9464 100.096 93.8916C99.8251 93.8076 99.5328 93.592 99.5803 93.2667C99.6241 92.9598 100.033 93.0109 100.18 92.7844C100.487 92.313 99.4926 91.9402 99.1893 91.8196C98.0016 91.3519 96.7226 90.9938 95.7652 90.1496C95.619 90.0217 95.4802 89.8792 95.3961 89.7038C95.3121 89.5284 95.2865 89.3165 95.3705 89.141C95.5313 88.8049 95.9296 88.7537 96.2658 88.7647C96.803 88.7829 97.3329 88.8962 97.8701 88.9035C98.1624 88.9072 98.7544 88.8779 98.769 88.4723C98.769 88.3919 98.7361 88.3152 98.6923 88.2494C98.4146 87.8036 97.8664 87.5441 97.4352 87.2737C97.1173 87.0764 96.8103 86.8608 96.5472 86.594C96.2695 86.3126 95.7762 85.6475 96.2585 85.304C96.3462 85.2419 96.4559 85.2273 96.5582 85.22C97.2744 85.1725 97.9943 85.3625 98.6667 85.5891C99.2514 85.7864 99.8945 85.9618 100.293 86.4734C100.373 86.5794 100.443 86.6927 100.494 86.8169L100.49 86.8096Z"></path>
<path fill="#F0533D" d="M94.0077 86.3454C93.9492 86.4076 93.909 86.4843 93.8834 86.5647C93.7811 86.868 93.8944 87.2334 94.1648 87.4052C94.4352 87.5769 94.8336 87.5148 95.0236 87.259C95.0894 87.1677 95.1332 87.0617 95.1551 86.9521C95.1807 86.8315 95.1917 86.7072 95.1551 86.5903C95.0309 86.1481 94.3037 86.0129 94.0077 86.3454Z"></path>
<path fill="#F0533D" d="M97.1869 94.3704C97.0919 94.5531 97.0882 94.7833 97.1759 94.9697C97.2636 95.1561 97.4391 95.3022 97.64 95.3497C97.8008 95.3899 97.9799 95.3644 98.1114 95.262C98.2357 95.1634 98.3015 95.0062 98.338 94.8528C98.3599 94.7614 98.3745 94.6664 98.3672 94.5714C98.3088 94.0159 97.4354 93.888 97.1906 94.3704H97.1869Z"></path>
<path fill="#F0533D" d="M115.224 106.002C115.071 106.126 114.998 106.335 115.009 106.528C115.02 106.726 115.104 106.912 115.224 107.069C115.301 107.168 115.396 107.259 115.513 107.299C115.747 107.376 116.014 107.212 116.109 106.981C116.204 106.755 116.16 106.488 116.065 106.262C115.926 105.933 115.542 105.743 115.224 106.002Z"></path>
<path fill="white" d="M130.598 86.7509C124.831 87.5512 124.356 88.198 123.764 96.0182C123.176 88.198 122.697 87.5512 116.931 86.7509C122.697 85.9506 123.172 85.3038 123.764 77.4836C124.353 85.3038 124.831 85.9506 130.598 86.7509Z"></path>
<path fill="white" d="M112.03 42.2673C106.264 43.0676 105.789 43.7144 105.197 51.5346C104.608 43.7144 104.13 43.0676 98.3633 42.2673C104.13 41.467 104.605 40.8202 105.197 33C105.785 40.8202 106.264 41.467 112.03 42.2673Z"></path>
<path fill="white" d="M41.6636 65.0263C35.8972 65.8266 35.4221 66.4734 34.8301 74.2936C34.2418 66.4734 33.7631 65.8266 27.9966 65.0263C33.7631 64.226 34.2381 63.5792 34.8301 55.759C35.4185 63.5792 35.8972 64.226 41.6636 65.0263Z"></path>
</g>
<defs>
<clipPath id="clip0_8_22897">
<rect transform="translate(28 33)" fill="white" height="94.12" width="104.677"></rect>
</clipPath>
</defs>
</svg>
