<svg xmlns="http://www.w3.org/2000/svg" fill="none" viewBox="0 0 160 160" height="160" width="160">
<circle fill="#44D5E2" r="80" cy="80" cx="80"></circle>
<g clip-path="url(#clip0_8_23131)">
<path fill="#004600" d="M55.2063 112.409C55.2063 112.409 43.9258 112.731 43.9258 117.317C43.9258 121.903 68.9936 122.265 72.9694 122.323C76.9452 122.381 93.9628 121.146 93.9628 122.743C93.9628 123.353 91.1637 123.931 91.2221 125.129C91.3281 127.282 104.677 127.256 112.976 126.832C121.278 126.412 136.578 124.227 122.447 119.487C122.447 119.487 93.9701 112.336 93.7874 112.036C93.6083 111.737 55.2063 112.409 55.2063 112.409Z"></path>
<path fill="white" d="M102.382 73.901C100.979 67.4513 98.0849 66.9909 96.4295 64.5572C96.192 64.1772 95.8412 63.6181 95.7389 62.9786C95.6731 62.562 95.7133 62.1089 95.9545 61.6485C96.1591 61.6119 96.013 61.6375 97.6208 61.4C98.4869 61.2721 99.1556 60.6545 99.3968 59.8725C99.4041 59.8469 99.4114 59.8177 99.4187 59.7921C99.426 59.7666 99.4333 59.7373 99.4369 59.7117C99.4516 59.6533 99.4589 59.5948 99.4662 59.5363C99.4662 59.5363 99.4662 59.5327 99.4662 59.529C99.4735 59.4669 99.4808 59.4011 99.4845 59.339C99.4845 59.2842 99.4845 59.2294 99.4845 59.1709C99.4845 59.0905 99.4735 59.0101 99.4625 58.9297C99.3017 57.8298 98.3443 57.0478 97.2627 57.0661C97.2627 57.0661 97.2371 57.0661 97.1969 57.0551C97.0179 57.0222 96.5428 56.8761 96.4734 56.2549C96.4588 56.1233 96.4588 56.0064 96.4661 55.9041C96.5099 55.334 96.8315 55.1659 96.8315 55.1659C96.8534 55.1659 96.8754 55.1586 96.8973 55.1549C97.4271 55.0782 97.8364 54.6872 97.9643 54.1975C97.9753 54.161 97.9826 54.1245 97.9899 54.0879C97.9899 54.0697 97.9972 54.0514 97.9972 54.0331C98.0045 53.9966 98.0045 53.9564 98.0082 53.9198C98.0082 53.8723 98.0082 53.8248 98.0082 53.7773C98.0082 53.7444 98.0008 53.7152 97.9972 53.6823C97.8949 52.9953 97.2773 52.5166 96.594 52.5787C96.5867 52.5787 96.5794 52.5751 96.5684 52.5714C96.4624 52.5312 96.2212 52.3997 96.192 52.0379C96.1518 51.5702 96.192 50.3387 96.192 50.3387C96.192 48.8039 87.2611 47.5579 76.2474 47.5579C65.2336 47.5579 56.3027 48.8039 56.3027 50.3387C56.3027 50.3387 56.3429 51.5702 56.3027 52.0379C56.2735 52.3997 56.0323 52.5276 55.9264 52.5678C55.9154 52.5678 55.9081 52.5751 55.9044 52.5751C55.2613 52.5166 54.6583 52.9405 54.5158 53.5873C54.5122 53.6092 54.5049 53.6348 54.5012 53.6567C54.4976 53.6787 54.4939 53.7042 54.4903 53.7262C54.4903 53.7481 54.4903 53.7737 54.4866 53.7956C54.4866 53.8541 54.4866 53.9089 54.4866 53.9673C54.5305 54.5228 54.9288 55.0051 55.4988 55.133C55.5171 55.133 55.5756 55.1513 55.6742 55.1696C55.7546 55.2244 56.0981 55.4948 56.0177 56.2512C56.0177 56.2695 56.0177 56.2841 56.0104 56.3024C55.9264 56.8797 55.4769 57.0186 55.2978 57.0515C55.254 57.0624 55.2247 57.0624 55.2247 57.0624C54.1943 57.0442 53.2661 57.7604 53.0505 58.8055C53.0432 58.8347 53.0395 58.8603 53.0322 58.8895C53.0322 58.8932 53.0322 58.9005 53.0322 58.9078C53.0286 58.9297 53.0249 58.9517 53.0213 58.9736C53.0213 59.0028 53.014 59.0284 53.014 59.0576C53.014 59.0832 53.0103 59.1125 53.0066 59.1417C53.003 59.2403 53.0067 59.3427 53.014 59.4377C53.014 59.4669 53.0213 59.4961 53.0249 59.5254C53.0249 59.5473 53.0322 59.5692 53.0359 59.5912C53.1711 60.4645 53.8325 61.2027 54.7497 61.3927C54.8155 61.4073 55.4221 61.5279 56.5147 61.7033C56.818 61.9627 56.9495 62.2916 56.9788 62.6278C56.9861 62.6826 56.9861 62.7374 56.9861 62.7959C56.9861 63.3769 56.7266 63.9652 56.5658 64.2795C56.0652 65.12 55.3636 65.8837 53.9969 66.5634C51.8519 66.2966 47.5363 66.2126 43.7761 68.9313C40.4143 71.3613 38.4848 75.2823 38.039 80.5882C37.257 89.8443 37.2461 99.0712 42.4095 103.88C44.4485 105.777 47.0649 106.782 50.2148 106.884C50.4012 107.849 50.5876 108.747 50.7739 109.573C51.9323 114.744 54.9763 117.05 56.7632 117.985C56.7961 118.007 56.8289 118.029 56.8655 118.047C56.902 118.066 56.9386 118.088 56.9788 118.11C56.9788 118.11 56.9788 118.11 56.9861 118.11C57.0226 118.128 57.0628 118.15 57.103 118.168C57.103 118.168 57.1103 118.168 57.114 118.175C57.1542 118.194 57.1944 118.212 57.2346 118.23C57.2419 118.23 57.2492 118.237 57.2565 118.241C57.2967 118.259 57.3369 118.274 57.3807 118.292C57.3917 118.296 57.4027 118.303 57.4136 118.307C57.4538 118.325 57.494 118.34 57.5379 118.354C57.5525 118.358 57.5671 118.365 57.5817 118.373C57.6219 118.387 57.6621 118.402 57.7023 118.417C57.7206 118.424 57.7352 118.427 57.7535 118.435C57.7973 118.449 57.8375 118.464 57.8814 118.479C58.0385 118.533 58.1262 118.555 58.1262 118.555C58.4222 118.647 58.7511 118.731 59.1092 118.815C59.3467 118.87 59.5952 118.924 59.8583 118.976C59.8619 118.976 59.8692 118.976 59.8729 118.976C60.1323 119.027 60.4064 119.078 60.6914 119.129C60.6987 119.129 60.7097 119.129 60.717 119.133C61.002 119.18 61.298 119.228 61.6013 119.275C61.6123 119.275 61.6233 119.275 61.6342 119.279C61.9412 119.326 62.2554 119.37 62.5843 119.414C62.5989 119.414 62.6135 119.414 62.6282 119.418C62.7889 119.44 62.9497 119.458 63.1142 119.48C63.1142 119.48 63.1178 119.48 63.1215 119.48C63.2932 119.502 63.465 119.52 63.6404 119.542C63.655 119.542 63.666 119.542 63.6806 119.546C63.845 119.564 64.0095 119.582 64.1739 119.6C64.1885 119.6 64.2031 119.6 64.2177 119.604C64.3968 119.622 64.5759 119.641 64.7586 119.659C64.7695 119.659 64.7841 119.659 64.7951 119.659C64.9632 119.677 65.1313 119.692 65.303 119.706C65.3286 119.706 65.3542 119.71 65.3798 119.714C65.5625 119.732 65.7489 119.747 65.9389 119.761C65.9389 119.761 65.9462 119.761 65.9498 119.761C66.1289 119.776 66.3116 119.79 66.4943 119.805C66.5272 119.805 66.5601 119.812 66.593 119.812C66.9694 119.842 67.353 119.871 67.744 119.896C67.7842 119.896 67.8244 119.9 67.861 119.904C68.0547 119.918 68.2483 119.929 68.4457 119.94C68.643 119.951 68.8476 119.962 69.0486 119.973C69.0924 119.973 69.1326 119.973 69.1765 119.981C69.3555 119.991 69.5346 119.999 69.7173 120.006C69.7429 120.006 69.7685 120.006 69.7941 120.01C69.995 120.021 70.1997 120.028 70.4043 120.035C70.4482 120.035 70.4957 120.035 70.5395 120.043C70.7149 120.05 70.8903 120.057 71.0694 120.061C71.1059 120.061 71.1461 120.061 71.1827 120.065C71.3909 120.072 71.5956 120.079 71.8075 120.086C71.8514 120.086 71.8952 120.086 71.9391 120.086C72.1145 120.094 72.2899 120.097 72.4689 120.101C72.5164 120.101 72.5676 120.101 72.6151 120.101C72.827 120.108 73.039 120.112 73.2509 120.116C73.2911 120.116 73.3277 120.116 73.3642 120.116C73.5469 120.116 73.7296 120.123 73.9123 120.127C73.9672 120.127 74.022 120.127 74.0804 120.127C74.296 120.127 74.5116 120.134 74.7272 120.134C74.7528 120.134 74.7784 120.134 74.804 120.134C75.0013 120.134 75.1986 120.134 75.3959 120.138C75.4544 120.138 75.5129 120.138 75.5677 120.138C75.7906 120.138 76.0135 120.138 76.2364 120.138C76.4593 120.138 76.6822 120.138 76.9051 120.138C76.9636 120.138 77.0221 120.138 77.0769 120.138C77.2742 120.138 77.4715 120.138 77.6689 120.134C77.6944 120.134 77.72 120.134 77.7456 120.134C77.9612 120.134 78.1804 120.13 78.396 120.127C78.4509 120.127 78.5057 120.127 78.5641 120.127C78.7469 120.127 78.9296 120.119 79.1123 120.116C79.1488 120.116 79.189 120.116 79.2256 120.116C79.4375 120.112 79.6494 120.105 79.8614 120.101C79.9089 120.101 79.96 120.101 80.0076 120.101C80.183 120.097 80.362 120.09 80.5374 120.086C80.5813 120.086 80.6251 120.086 80.669 120.086C80.8773 120.079 81.0855 120.072 81.2938 120.065C81.3304 120.065 81.3706 120.065 81.4071 120.061C81.5825 120.054 81.7616 120.046 81.937 120.043C81.9808 120.043 82.0247 120.039 82.0722 120.035C82.2768 120.024 82.4814 120.017 82.6824 120.01C82.708 120.01 82.7336 120.01 82.7592 120.006C82.9419 119.999 83.1209 119.988 83.3 119.981C83.3438 119.981 83.384 119.981 83.4279 119.973C83.6325 119.962 83.8335 119.951 84.0308 119.94C84.2282 119.929 84.4218 119.918 84.6155 119.904C84.6557 119.904 84.6959 119.9 84.7324 119.896C85.1234 119.871 85.5071 119.842 85.8835 119.812C85.9164 119.812 85.9493 119.809 85.9822 119.805C86.1649 119.79 86.3476 119.776 86.5267 119.761C86.5267 119.761 86.534 119.761 86.5413 119.761C86.7313 119.747 86.9176 119.728 87.1004 119.714C87.1259 119.714 87.1515 119.71 87.1771 119.706C87.3488 119.688 87.5169 119.674 87.685 119.659C87.696 119.659 87.7106 119.659 87.7216 119.659C87.9043 119.641 88.0833 119.622 88.2624 119.604C88.277 119.604 88.2916 119.604 88.3062 119.6C88.4743 119.582 88.6388 119.564 88.7996 119.546C88.8142 119.546 88.8251 119.546 88.8398 119.542C89.0152 119.524 89.1869 119.502 89.3587 119.48C89.3587 119.48 89.3623 119.48 89.366 119.48C89.5304 119.462 89.6948 119.44 89.852 119.418C89.8666 119.418 89.8812 119.418 89.8958 119.414C90.2247 119.37 90.539 119.326 90.8459 119.279C90.8569 119.279 90.8678 119.279 90.8788 119.275C91.1858 119.228 91.4818 119.18 91.7631 119.133C91.7704 119.133 91.7814 119.133 91.7887 119.129C92.0737 119.078 92.3478 119.03 92.6072 118.976C92.6109 118.976 92.6182 118.976 92.6219 118.976C92.885 118.924 93.1371 118.87 93.371 118.815C93.7291 118.731 94.058 118.643 94.354 118.555C94.354 118.555 94.4417 118.533 94.5988 118.479C94.6426 118.464 94.6865 118.449 94.7267 118.435C94.745 118.431 94.7596 118.424 94.7778 118.417C94.818 118.402 94.8582 118.387 94.8984 118.373C94.913 118.365 94.9277 118.362 94.9423 118.354C94.9861 118.336 95.0263 118.322 95.0665 118.307C95.0775 118.307 95.0884 118.3 95.0994 118.292C95.1433 118.274 95.1835 118.259 95.2237 118.241C95.231 118.241 95.2383 118.234 95.2456 118.23C95.2858 118.212 95.326 118.194 95.3662 118.175C95.3698 118.175 95.3735 118.175 95.3808 118.168C95.421 118.15 95.4612 118.128 95.4977 118.11C95.4977 118.11 95.5014 118.11 95.505 118.11C95.5452 118.091 95.5818 118.069 95.6183 118.047C95.6549 118.029 95.6914 118.007 95.7243 117.985C97.5112 117.05 100.555 114.744 101.714 109.573C103.398 102.057 105.382 88.5799 102.375 73.9047L102.382 73.901ZM50.1198 73.901C48.1575 83.475 48.322 92.5338 49.1368 99.7655C47.9492 99.5097 47.4084 99.0054 47.1636 98.7788C44.1196 95.9432 44.4631 87.3704 44.9893 81.1729C45.2561 78.001 46.2135 75.7902 47.8323 74.599C48.5668 74.0581 49.3926 73.7512 50.1893 73.5868C50.1673 73.6891 50.1418 73.795 50.1198 73.901ZM54.0919 61.1259C54.1541 61.1625 54.2198 61.1953 54.2856 61.2246C54.2125 61.1917 54.1395 61.1515 54.07 61.1113C54.0773 61.115 54.0846 61.1186 54.0919 61.1259ZM53.9531 61.0346C53.9348 61.0199 53.9165 61.009 53.8983 60.9944C53.9165 61.009 53.9348 61.0236 53.9531 61.0346ZM53.8215 60.9359C53.796 60.914 53.774 60.8957 53.7485 60.8738C53.774 60.8957 53.796 60.9176 53.8215 60.9359ZM53.0797 59.7702C53.0797 59.7702 53.087 59.7994 53.0907 59.8141C53.087 59.7994 53.0834 59.7848 53.0797 59.7702ZM53.1272 59.92C53.1272 59.92 53.1382 59.9529 53.1455 59.9712C53.1382 59.9529 53.1345 59.9383 53.1272 59.92ZM53.1894 60.0954C53.1894 60.0954 53.193 60.1064 53.1967 60.1137C53.1967 60.1064 53.193 60.1027 53.1894 60.0954ZM53.2478 60.216C53.2698 60.2599 53.2953 60.3074 53.3209 60.3512C53.2953 60.3074 53.2698 60.2635 53.2478 60.216ZM53.6242 60.7495C53.6425 60.7678 53.6608 60.7861 53.679 60.8043C53.6863 60.8117 53.6936 60.819 53.7009 60.8263C53.6754 60.8007 53.6498 60.7751 53.6242 60.7495ZM54.5706 61.3342C54.5706 61.3342 54.5816 61.3342 54.5853 61.3379C54.5816 61.3379 54.5743 61.3379 54.5706 61.3342Z"></path>
<path fill="#F57E25" d="M99.0605 69.8523C94.2954 68.7049 86.9176 67.5867 76.2509 67.5867C63.728 67.5867 56.6133 69.4138 52.8092 70.9851C52.3927 71.8621 52.0272 72.9182 51.7386 74.2446C48.9065 88.0758 50.5327 100.891 52.3963 109.212C53.4158 113.761 56.0542 115.745 57.5378 116.52L57.5999 116.553L57.7132 116.622L57.7534 116.644C57.7753 116.655 57.7972 116.666 57.8191 116.677L57.7972 116.666L57.8411 116.688L57.8265 116.681C57.852 116.692 57.8776 116.706 57.8995 116.714L57.9215 116.725C57.9507 116.736 57.9799 116.75 58.0128 116.765L58.0311 116.772C58.0603 116.783 58.0932 116.798 58.1298 116.809L58.1626 116.82C58.1955 116.831 58.2248 116.842 58.265 116.856C58.265 116.856 58.4513 116.918 58.4659 116.926L58.6121 116.97C58.8642 117.046 59.1529 117.123 59.4708 117.196H59.4891L59.5147 117.207C59.7266 117.258 59.9569 117.306 60.198 117.353H60.2126C60.4575 117.404 60.7206 117.456 60.9983 117.503H61.0166C61.287 117.554 61.572 117.598 61.8753 117.646L61.9192 117.653H61.9009C62.2005 117.693 62.5075 117.737 62.8217 117.781H62.8619C63.0118 117.806 63.1616 117.825 63.326 117.843H63.3553C63.516 117.865 63.6805 117.887 63.8449 117.905H63.8851C64.0423 117.927 64.203 117.945 64.3784 117.964H64.4113C64.5867 117.985 64.7621 118.004 64.9339 118.022H64.9741C65.1385 118.04 65.303 118.059 65.471 118.073L65.5478 118.08C65.7268 118.095 65.9059 118.113 66.085 118.128C66.0923 118.128 66.1032 118.128 66.1069 118.128C66.2823 118.143 66.4613 118.157 66.644 118.172L66.7391 118.179C67.1081 118.208 67.4882 118.234 67.8682 118.259L67.9851 118.267C68.1752 118.278 68.3652 118.292 68.5588 118.303H68.621C68.7964 118.318 68.9754 118.329 69.1545 118.336L69.2787 118.344C69.4541 118.355 69.6332 118.362 69.8195 118.369H69.889C70.0863 118.384 70.2873 118.391 70.4883 118.398L70.6235 118.406C70.7952 118.413 70.9706 118.42 71.1424 118.428H71.2593C71.4639 118.439 71.6686 118.446 71.8769 118.453H72.0048C72.1765 118.464 72.6735 118.475 72.6735 118.475C72.8818 118.479 73.0901 118.486 73.302 118.49H73.4153C73.5943 118.497 73.7734 118.497 73.9561 118.501H74.1169C74.3288 118.508 74.5444 118.508 74.7564 118.512H74.8368C75.0304 118.512 75.2241 118.515 75.4214 118.515H75.5932C75.8124 118.515 76.0317 118.515 76.2546 118.515C76.4775 118.515 76.6968 118.515 76.916 118.515H77.0878C77.2814 118.515 77.4788 118.515 77.6651 118.512H77.7455C77.9611 118.512 78.1731 118.504 78.3887 118.504H78.5531C78.7321 118.497 78.9149 118.497 79.0939 118.493H79.2072C79.4191 118.486 79.6274 118.482 79.8357 118.475H79.9819C80.1573 118.468 80.6323 118.453 80.6323 118.453C80.837 118.446 81.0416 118.439 81.2499 118.431H81.3632C81.5386 118.42 81.714 118.413 81.8857 118.406H82.0173C82.2183 118.391 82.4192 118.384 82.6239 118.373H82.6933C82.8724 118.362 83.0514 118.351 83.2305 118.344L83.3547 118.336C83.5301 118.325 83.7055 118.318 83.8773 118.307H83.9503C84.144 118.292 84.334 118.278 84.5204 118.267L84.641 118.259C85.0247 118.234 85.4047 118.208 85.7701 118.179L85.8725 118.172C86.0515 118.157 86.2306 118.143 86.4023 118.128H86.4462C86.6216 118.11 86.797 118.095 86.9724 118.077L87.0455 118.069C87.2136 118.055 87.378 118.037 87.5497 118.022H87.5826C87.7617 118 87.9371 117.982 88.1052 117.967H88.1527C88.3171 117.945 88.4779 117.927 88.635 117.909H88.6716C88.8397 117.887 89.0078 117.865 89.1685 117.847H89.1905C89.3476 117.825 89.5047 117.806 89.6546 117.784H89.6984C90.009 117.737 90.3196 117.693 90.6193 117.649H90.6047L90.6522 117.646C90.9445 117.602 91.2295 117.554 91.5109 117.507H91.5255C91.7959 117.456 92.059 117.408 92.3039 117.361H92.3258H92.3185C92.5487 117.313 92.7716 117.266 92.9762 117.218L93.0018 117.211L93.0457 117.203C93.2978 117.145 93.5353 117.083 93.7509 117.021L94.0834 116.918L94.3502 116.831L94.3904 116.816C94.4233 116.805 94.4525 116.791 94.4818 116.78L94.5037 116.772C94.5329 116.761 94.5621 116.747 94.5914 116.736L94.6133 116.725C94.6389 116.714 94.6645 116.703 94.6864 116.692L94.6718 116.699L94.7156 116.677L94.6937 116.688C94.7156 116.677 94.7376 116.666 94.7595 116.655C94.7595 116.655 94.7887 116.641 94.796 116.637L94.8983 116.575H94.902L94.913 116.564L94.9751 116.531C96.4587 115.756 99.097 113.772 100.117 109.223C101.98 100.906 103.606 88.0867 100.774 74.2556C100.339 72.264 99.7438 70.901 99.0678 69.8632L99.0605 69.8523Z"></path>
<path fill="#5CCBF2" d="M81.458 94.8543C80.6138 95.6254 80.1607 96.7764 79.2435 97.4561C78.7283 97.8398 78.0815 98.0554 77.6503 98.5341C77.1277 99.1151 77.0291 99.9702 77.1497 100.741C77.2739 101.512 77.5882 102.236 77.8038 102.985C78.2605 104.571 78.2752 106.252 78.2642 107.903C78.2569 109.011 78.2532 110.169 78.7429 111.163C79.1047 111.905 79.8282 112.387 80.6394 112.504C81.2022 112.585 81.7759 112.53 82.3459 112.5C83.0877 112.464 83.8295 112.566 84.564 112.628C85.4191 112.698 86.2706 112.84 87.1037 113.06C88.1707 113.337 89.3328 113.725 90.3267 113.253C91.2074 112.837 91.6642 111.879 92.2452 111.097C93.2318 109.767 94.7629 108.748 95.1685 107.143C95.4536 106.022 95.1174 104.852 94.8397 103.73C94.339 101.728 94.0065 99.6815 93.8421 97.6205C93.8019 97.1053 93.769 96.5828 93.6009 96.0931C93.4328 95.6034 93.1076 95.143 92.6325 94.942C92.1757 94.7483 91.6568 94.8141 91.1635 94.8616C90.2025 94.9566 89.2341 94.9713 88.2731 94.9091C87.4691 94.858 86.3692 94.8762 85.6932 94.4195C84.4471 93.5717 82.5396 93.8677 81.4616 94.858L81.458 94.8543Z"></path>
<path fill="white" d="M93.1183 96.5755C93.2572 97.0542 93.2499 97.5585 93.2426 98.0555C93.2097 99.5976 93.1585 101.198 93.7688 102.616C93.8126 102.718 93.8601 102.824 93.8565 102.937C93.8528 103.051 93.7651 103.164 93.6555 103.164C93.5422 103.164 93.4655 103.054 93.4143 102.956C92.6688 101.604 92.5263 100.014 92.3473 98.4794C92.2815 97.9166 92.1974 97.3064 91.8686 96.8313C91.4958 96.2942 90.7796 96.254 90.1767 96.2065C89.2595 96.1334 88.3386 96.1005 87.4214 96.0493C86.6065 96.0018 85.5651 96.0749 84.8233 95.7022C84.7429 95.662 84.6625 95.6181 84.6077 95.5523C84.5529 95.4866 84.5236 95.3843 84.5602 95.3075C84.6442 95.1285 85.207 95.2089 85.3641 95.2198C85.7222 95.2417 86.073 95.3075 86.4275 95.366C87.6918 95.5706 88.9781 95.6547 90.2571 95.6254C90.5823 95.6181 90.9039 95.6035 91.2291 95.5779C91.5324 95.556 91.9015 95.4537 92.2011 95.4866C92.6725 95.5377 93.005 96.1736 93.1256 96.5828L93.1183 96.5755Z"></path>
<path fill="white" d="M93.736 107.9C93.641 108.17 93.4437 108.389 93.2573 108.605C92.5484 109.427 91.9199 110.319 91.3791 111.258C91.2439 111.492 91.0758 111.759 90.8054 111.792C90.5569 111.821 90.3194 111.609 90.2682 111.36C90.2171 111.112 90.3084 110.856 90.4582 110.651C90.608 110.447 90.8127 110.293 91.0064 110.133C91.6312 109.617 92.2013 109.04 92.7092 108.408C92.9614 108.093 93.1989 107.761 93.4181 107.421C93.7507 106.906 93.8566 107.586 93.7434 107.9H93.736Z"></path>
<path fill="white" d="M81.0595 110.304C80.8074 110.608 80.526 110.955 80.5845 111.342C80.6283 111.638 80.8731 111.872 81.1509 111.985C81.4286 112.099 81.7355 112.106 82.0352 112.099C83.0474 112.077 84.0596 111.901 85.0645 111.996C86.0658 112.091 87.0414 112.453 88.0463 112.406C88.1815 112.398 88.3496 112.362 88.3898 112.23C88.43 112.099 88.3131 111.978 88.1962 111.901C87.6809 111.569 87.0378 111.536 86.4239 111.481C85.2691 111.382 84.1217 111.174 83.0035 110.867C82.7368 110.794 82.4444 110.692 82.3275 110.44C82.2435 110.261 82.2764 110.049 82.3604 109.87C82.4444 109.691 82.565 109.537 82.6747 109.373C82.9414 108.967 83.1132 108.499 83.168 108.017C83.1899 107.812 83.1643 107.133 82.8428 107.458C82.6089 107.695 82.4883 108.159 82.3275 108.452C81.9657 109.106 81.5419 109.727 81.0632 110.304H81.0595Z"></path>
<path fill="white" d="M82.3312 96.1809C82.2618 95.9397 82.1631 95.6766 81.9366 95.5706C81.7356 95.4793 81.4871 95.5487 81.3117 95.6876C81.1363 95.8264 81.023 96.0237 80.9097 96.2174C80.4018 97.0908 79.8902 97.9678 79.3823 98.8411C78.8853 99.6926 78.3883 100.551 78.0631 101.479C78.0339 101.56 78.0083 101.648 78.0302 101.728C78.0521 101.808 78.1471 101.878 78.2239 101.841C78.2714 101.819 78.297 101.765 78.3189 101.717C79.0205 100.127 80.0619 98.7132 81.0961 97.3173C81.2057 97.1675 81.3592 97.0031 81.5382 97.0433C81.7283 97.0871 81.7904 97.321 81.8306 97.511C81.889 97.7778 81.9804 98.0372 82.1046 98.2784C82.1887 98.4428 82.4262 98.7681 82.6528 98.6292C82.8136 98.5305 82.7332 98.2601 82.7076 98.1103C82.5943 97.4598 82.5103 96.8131 82.3312 96.1736V96.1809Z"></path>
<path fill="white" d="M82.3568 100.606C82.4116 100.705 82.4957 100.803 82.6089 100.811C82.6966 100.818 82.7807 100.763 82.8282 100.694C82.8757 100.624 82.9013 100.533 82.9122 100.449C82.9415 100.226 82.8647 99.3856 82.4628 99.5391C82.1193 99.6743 82.2326 100.372 82.3568 100.606Z"></path>
<path fill="white" d="M83.6579 104.71C83.6945 104.929 83.9283 105.101 84.1476 105.064C84.3668 105.028 84.5349 104.783 84.4801 104.567C84.3632 104.1 83.5593 104.147 83.6543 104.71H83.6579Z"></path>
<path fill="white" d="M85.861 104.264C85.766 104.264 85.6674 104.264 85.576 104.304C85.4846 104.344 85.4116 104.421 85.4079 104.52C85.4006 104.688 85.6016 104.779 85.766 104.816C86.4822 104.977 87.2204 104.98 87.9512 104.984C88.8538 104.988 89.7564 104.995 90.659 104.999C90.8125 104.999 91.4666 104.904 91.1815 104.714C91.0463 104.626 90.7102 104.633 90.5494 104.608C90.3374 104.575 90.1255 104.545 89.9172 104.516C89.0621 104.403 88.2034 104.326 87.341 104.29C86.8477 104.268 86.3543 104.26 85.8647 104.264H85.861Z"></path>
<path fill="white" d="M92.311 104.469C92.216 104.479 92.121 104.49 92.0369 104.534C91.9529 104.578 91.8871 104.666 91.8908 104.757C91.8981 104.878 92.015 104.958 92.1319 104.987C92.2452 105.017 92.3731 105.006 92.4718 104.94C92.5705 104.874 92.6289 104.75 92.5997 104.633C92.5705 104.516 92.4389 104.436 92.3293 104.476"></path>
<path fill="#004600" d="M76.2511 52.3888C86.7556 52.3888 95.2712 51.4727 95.2712 50.3425C95.2712 49.2123 86.7556 48.2961 76.2511 48.2961C65.7466 48.2961 57.231 49.2123 57.231 50.3425C57.231 51.4727 65.7466 52.3888 76.2511 52.3888Z"></path>
<path fill="#004600" d="M73.0423 58.4328C73.9047 58.2318 74.8036 58.2501 75.6697 58.4328C75.7939 58.4657 75.8707 58.5899 75.8414 58.7178C75.8195 58.8055 75.7501 58.8713 75.666 58.8896C75.4468 58.9407 75.2275 58.9663 75.0083 58.9846C74.3469 59.0284 73.6818 59.0211 73.035 58.8494C72.9217 58.8165 72.856 58.6995 72.8888 58.5863C72.9108 58.5095 72.9692 58.4584 73.0423 58.4401V58.4328Z"></path>
<path fill="white" d="M68.9575 106.979C72.1111 105.795 75.0637 104.089 77.6655 101.951L81.5718 88.4705C78.97 90.6337 76.0065 92.3658 72.8419 93.5681C71.5484 98.0372 70.2511 102.51 68.9575 106.979Z"></path>
<path fill="#FFF200" d="M72.8418 93.568C76.0063 92.3658 78.9699 90.6337 81.5717 88.4704L85.6315 74.4529C83.0334 76.4992 80.1027 78.1254 76.993 79.2399C75.608 84.0159 74.2267 88.7883 72.8418 93.5644V93.568Z"></path>
<path fill="#FFF200" d="M67.1558 113.191C67.0133 113.677 67.1923 114.203 67.6053 114.499C68.157 114.89 68.9025 115.318 69.8416 115.617C70.9708 115.979 71.9903 116.034 72.7577 115.994C73.2693 115.968 73.7078 115.621 73.8503 115.128L77.6689 101.951C75.0671 104.088 72.1109 105.795 68.961 106.979C68.3617 109.051 67.7624 111.119 67.1631 113.191H67.1558Z"></path>
<path fill="white" d="M94.8548 36.844L93.1922 37.3885C90.3711 38.313 88.1932 40.5676 87.3674 43.4179C86.494 46.4253 85.6243 49.4364 84.751 52.4438C88.0325 51.0515 91.0691 49.0819 93.6818 46.6555L94.0582 45.3546C94.2446 44.7151 94.7306 44.2145 95.3591 44.0062C96.8427 43.5202 98.3227 43.0342 99.8063 42.5482C99.3422 41.4921 98.7904 40.4726 98.0925 39.5554C97.2301 38.4226 96.1338 37.4469 94.8512 36.8403L94.8548 36.844Z"></path>
<path fill="#FFF200" d="M107.334 36.5369C107.02 35.5247 106.523 34.75 106.073 34.2055C105.668 33.7122 105.002 33.5185 104.396 33.7195L94.8511 36.8475C96.1337 37.4541 97.23 38.4298 98.0924 39.5626C98.7903 40.4798 99.3421 41.4957 99.8062 42.5554C102.061 41.8172 104.312 41.0791 106.566 40.3409C107.169 40.1436 107.593 39.5991 107.63 38.967C107.666 38.3055 107.619 37.4651 107.334 36.5406V36.5369Z"></path>
<path fill="white" d="M76.9927 79.2437C80.1061 78.1292 83.0331 76.4994 85.6312 74.4567L89.9286 59.6243C87.3268 61.7401 84.3778 63.4319 81.2352 64.6013C79.821 69.4833 78.4069 74.3653 76.9927 79.2473V79.2437Z"></path>
<path fill="#FFF200" d="M81.2354 64.5974C84.378 63.4281 87.3269 61.7362 89.9287 59.6204L93.6852 46.6589C91.0761 49.089 88.0358 51.0549 84.7543 52.4472C83.5813 56.496 82.4084 60.5486 81.2354 64.5974Z"></path>
<path fill="#004600" d="M67.1666 54.1939C64.9339 54.1793 62.7048 53.971 60.5123 53.5545C60.209 53.4887 60.2638 53.0429 60.5744 53.0575C62.7925 53.2 64.9923 53.3937 67.1995 53.6568C67.5283 53.7043 67.4991 54.1866 67.1666 54.1939Z"></path>
<path fill="#004600" d="M97.1968 57.0588C97.1274 57.0624 97.058 57.0697 96.9849 57.0807C91.1016 57.9431 85.6423 58.3816 80.8151 58.557C80.6872 58.5607 80.5775 58.4656 80.5629 58.3378C80.5483 58.1989 80.6506 58.0746 80.7931 58.0637C90.7581 57.4279 95.1542 56.306 96.4697 55.9041C96.4587 56.0064 96.4624 56.1233 96.477 56.2549C96.5427 56.8761 97.0178 57.0222 97.2005 57.0551L97.1968 57.0588Z"></path>
<path fill="#004600" d="M95.9579 61.6487C95.7131 62.1091 95.6729 62.5622 95.7423 62.9788C92.4024 63.3442 84.9953 63.3223 83.5373 63.315C83.3984 63.315 83.2852 63.2017 83.2852 63.0629C83.2852 62.9277 83.3911 62.818 83.5263 62.8107C87.5167 62.5988 91.3171 62.2991 95.9579 61.6523V61.6487Z"></path>
<path fill="#004600" d="M66.8963 62.7777C68.0108 62.8435 69.2313 62.9056 70.5468 62.9495C70.6528 62.9495 70.7295 63.0518 70.7039 63.1541C70.6857 63.2272 70.6199 63.2783 70.5468 63.282C64.5576 63.4647 58.9301 62.8654 56.9934 62.6279C56.9641 62.2917 56.8326 61.9665 56.5293 61.7034"></path>
<path fill="#004600" d="M64.7181 56.5474C64.7181 56.668 64.6195 56.763 64.5025 56.7594C61.0055 56.6388 57.2855 56.3976 56.0248 56.3136C56.0248 56.2953 56.0284 56.2807 56.0321 56.2624C56.1125 55.5096 55.769 55.2356 55.6886 55.1807C55.5936 55.1625 55.5315 55.1479 55.5132 55.1442C54.9431 55.0163 54.5412 54.534 54.501 53.9785C54.5485 54.5303 54.9468 55.009 55.5132 55.1332C55.663 55.1661 58.8604 55.8641 64.5281 56.3391C64.6377 56.3464 64.7218 56.4378 64.7218 56.5474H64.7181Z"></path>
<path fill="#FFF200" d="M60.6511 32.9412C53.0394 32.9412 46.8711 39.1131 46.8711 46.7212C46.8711 51.5959 49.4035 55.8786 53.2221 58.3306C53.5839 57.5559 54.3732 57.0552 55.2356 57.0699C55.2356 57.0699 55.2611 57.0699 55.3086 57.0589C55.4877 57.026 55.9372 56.8872 56.0212 56.3098C56.0212 56.2915 56.0249 56.2769 56.0285 56.2586C56.1089 55.5059 55.7654 55.2318 55.685 55.177C55.59 55.1587 55.5279 55.1441 55.5096 55.1404C54.9396 55.0125 54.5376 54.5302 54.4974 53.9748C54.4938 53.9163 54.4901 53.8615 54.4974 53.803C54.4974 53.7811 54.4974 53.7555 54.5011 53.7336C54.5011 53.7116 54.5047 53.6861 54.512 53.6641C54.5193 53.6422 54.523 53.6166 54.5266 53.5947C54.6692 52.9479 55.2721 52.524 55.9152 52.5825C55.9226 52.5825 55.9299 52.5788 55.9372 52.5752C56.0431 52.535 56.2807 52.4034 56.3136 52.0453C56.3537 51.5776 56.3136 50.3461 56.3136 50.3461C56.3136 50.0538 56.6351 49.7724 57.2344 49.5093C57.2088 50.2219 58.2905 50.3461 58.2905 50.3461C61.9739 51.4935 70.8134 51.6178 73.5395 51.6288C74.1205 50.105 74.4384 48.4533 74.4384 46.7248C74.4347 39.1131 68.2628 32.9412 60.6511 32.9412Z"></path>
<path fill="white" d="M59.8035 34.3042C53.2808 34.3042 47.9932 39.727 47.9932 46.4179C47.9932 51.1245 50.6096 55.2062 54.4319 57.2124C54.684 57.1174 54.9544 57.0662 55.2358 57.0735C55.2358 57.0735 55.2614 57.0735 55.3089 57.0626C55.4879 57.0297 55.9374 56.8908 56.0214 56.3135C56.0214 56.2952 56.0251 56.2806 56.0288 56.2623C56.1091 55.5095 55.7657 55.2355 55.6853 55.1807C55.5903 55.1624 55.5281 55.1478 55.5099 55.1441C54.9398 55.0162 54.5378 54.5339 54.4976 53.9784C54.494 53.92 54.4903 53.8651 54.4976 53.8067C54.4976 53.7848 54.4976 53.7592 54.5013 53.7372C54.5013 53.7153 54.505 53.6897 54.5123 53.6678C54.5196 53.6459 54.5232 53.6203 54.5269 53.5984C54.6694 52.9516 55.2723 52.5277 55.9155 52.5862C55.9228 52.5862 55.9301 52.5825 55.9374 52.5789C56.0434 52.5387 56.2809 52.4071 56.3138 52.049C56.354 51.5813 56.3138 50.3498 56.3138 50.3498C56.3138 50.0575 56.6354 49.7761 57.2346 49.513C57.2091 50.2256 58.2907 50.3498 58.2907 50.3498C61.046 51.2085 66.6844 51.4936 70.4921 51.5886C71.212 50.0209 71.6176 48.2706 71.6176 46.4252C71.6176 39.7343 66.33 34.3115 59.8072 34.3115L59.8035 34.3042Z"></path>
<mask height="24" width="25" y="34" x="47" maskUnits="userSpaceOnUse" style="mask-type:luminance" id="mask0_8_23131">
<path fill="white" d="M59.8035 34.3042C53.2808 34.3042 47.9932 39.727 47.9932 46.4179C47.9932 51.1245 50.6096 55.2062 54.4319 57.2124C54.684 57.1174 54.9544 57.0662 55.2358 57.0735C55.2358 57.0735 55.2614 57.0735 55.3089 57.0626C55.4879 57.0297 55.9374 56.8908 56.0214 56.3135C56.0214 56.2952 56.0251 56.2806 56.0288 56.2623C56.1091 55.5095 55.7657 55.2355 55.6853 55.1807C55.5903 55.1624 55.5281 55.1478 55.5099 55.1441C54.9398 55.0162 54.5378 54.5339 54.4976 53.9784C54.494 53.92 54.4903 53.8651 54.4976 53.8067C54.4976 53.7848 54.4976 53.7592 54.5013 53.7372C54.5013 53.7153 54.505 53.6897 54.5123 53.6678C54.5196 53.6459 54.5232 53.6203 54.5269 53.5984C54.6694 52.9516 55.2723 52.5277 55.9155 52.5862C55.9228 52.5862 55.9301 52.5825 55.9374 52.5789C56.0434 52.5387 56.2809 52.4071 56.3138 52.049C56.354 51.5813 56.3138 50.3498 56.3138 50.3498C56.3138 50.0575 56.6354 49.7761 57.2346 49.513C57.2091 50.2256 58.2907 50.3498 58.2907 50.3498C61.046 51.2085 66.6844 51.4936 70.4921 51.5886C71.212 50.0209 71.6176 48.2706 71.6176 46.4252C71.6176 39.7343 66.33 34.3115 59.8072 34.3115L59.8035 34.3042Z"></path>
</mask>
<g mask="url(#mask0_8_23131)">
<path fill="#FFF200" d="M59.1567 45.3728C59.1567 45.3728 58.594 45.3326 58.3821 44.3021C58.1665 43.2716 57.0446 37.0302 58.1409 35.9998C59.2371 34.9693 61.7622 35.4662 62.5661 35.5978C63.3664 35.733 65.2812 36.5077 65.3872 37.5236C65.4931 38.5394 60.3882 44.5543 60.3882 44.5543C60.3882 44.5543 59.6976 45.5007 59.1567 45.3691V45.3728Z"></path>
<path fill="#FFF200" d="M57.9656 45.6358C57.9656 45.6358 57.7646 46.0926 56.4162 45.6906C55.1153 45.3033 52.4331 44.0718 51.2163 43.0852C49.9994 42.0949 50.7229 40.2934 51.6036 39.4237C52.4843 38.554 55.0934 35.8681 56.1092 38.5832C57.1251 41.2983 58.6489 45.1864 57.9656 45.6395V45.6358Z"></path>
<path fill="#FFF200" d="M61.5284 47.2439C61.5284 47.2439 60.0923 46.9113 60.0412 46.2682C59.99 45.625 60.2312 45.3473 65.3909 41.3241C70.547 37.3008 70.2291 46.0307 70.2291 46.0307C70.2291 46.0307 70.1341 47.9966 69.5056 48.7859C68.877 49.5752 61.5321 47.2475 61.5321 47.2475L61.5284 47.2439Z"></path>
<path fill="#FFF200" d="M49.1443 48.5117C49.1443 48.5117 49.5719 52.429 51.5232 52.0015C53.4746 51.5739 57.845 47.8174 57.7646 47.0975C57.6842 46.374 55.8535 46.0926 50.9861 45.3874C48.472 45.0658 49.1407 48.5154 49.1407 48.5154L49.1443 48.5117Z"></path>
<path fill="#FFF200" d="M54.5708 55.747C54.5708 55.747 57.7353 58.093 58.7475 56.3719C59.7598 54.6507 59.9717 48.8917 59.387 48.4569C58.8023 48.0257 57.3516 49.1768 53.5257 52.2682C51.5853 53.8943 54.5671 55.747 54.5671 55.747H54.5708Z"></path>
<path fill="#FFF200" d="M60.1251 48.6945C60.633 50.8285 61.141 52.9589 61.6489 55.093C61.722 55.4036 61.806 55.7325 62.0289 55.959C62.303 56.2404 62.7342 56.3062 63.1252 56.2806C63.8962 56.2294 64.6271 55.886 65.241 55.4146C65.8549 54.9468 66.3665 54.3585 66.8561 53.7592C67.2143 53.3207 67.576 52.8383 67.6308 52.2756C67.6893 51.6544 67.3495 51.0514 66.9036 50.6166C66.3921 50.1196 65.7453 49.7871 65.1021 49.4838C63.7647 48.8553 62.3871 48.3071 60.9802 47.8467C60.2968 47.6238 59.968 48.0404 60.1251 48.6981V48.6945Z"></path>
</g>
<path fill="white" d="M52.4035 47.3971C52.2902 47.4337 52.1805 47.4885 52.1038 47.5799C52.0271 47.6712 51.9978 47.8064 52.0526 47.9124C52.1221 48.0512 52.3048 48.0878 52.4583 48.0805C52.736 48.0659 53.0064 47.9416 53.2037 47.7479C53.2732 47.6785 53.4011 47.5579 53.3207 47.4556C53.2476 47.3606 53.0247 47.346 52.915 47.3387C52.7433 47.3241 52.5679 47.346 52.4035 47.3971Z"></path>
<path fill="white" d="M60.6219 39.314C60.6365 39.197 60.6329 39.0728 60.5781 38.9632C60.5233 38.8535 60.4173 38.7695 60.2967 38.7768C60.1432 38.7841 60.03 38.9303 59.9751 39.0765C59.8728 39.3359 59.8728 39.6319 59.9678 39.895C60.0007 39.9864 60.0555 40.1544 60.1834 40.1252C60.304 40.0996 60.4063 39.9023 60.4611 39.8036C60.5452 39.6538 60.6 39.4857 60.6219 39.314Z"></path>
<path fill="white" d="M66.0995 46.6225C66.2164 46.6079 66.337 46.5714 66.4283 46.4946C66.5197 46.4179 66.5745 46.29 66.5416 46.1767C66.4978 46.0269 66.326 45.9575 66.1725 45.9392C65.8948 45.9026 65.6098 45.9757 65.3796 46.1329C65.2992 46.1877 65.1494 46.2827 65.2115 46.3996C65.2663 46.5092 65.4819 46.5604 65.5915 46.5896C65.7596 46.6335 65.935 46.6481 66.1068 46.6225H66.0995Z"></path>
<path fill="white" d="M62.226 50.1743C62.3064 50.262 62.4014 50.3424 62.5184 50.3717C62.6353 50.4009 62.7705 50.3717 62.8436 50.2803C62.9386 50.1597 62.9021 49.977 62.829 49.8418C62.7011 49.5933 62.4782 49.3996 62.2187 49.2973C62.1274 49.2608 61.9666 49.195 61.9045 49.3083C61.846 49.4179 61.9264 49.6225 61.9629 49.7285C62.0214 49.893 62.1127 50.0428 62.2297 50.1707L62.226 50.1743Z"></path>
<path fill="white" d="M53.9638 39.4565C53.8834 39.3688 53.7884 39.2884 53.6714 39.2592C53.5545 39.23 53.4193 39.2592 53.3462 39.3506C53.2512 39.4711 53.2877 39.6539 53.3608 39.7891C53.4887 40.0375 53.7116 40.2312 53.9711 40.3335C54.0624 40.3701 54.2232 40.4359 54.2853 40.3226C54.3438 40.2129 54.2634 40.0083 54.2269 39.9023C54.1684 39.7379 54.0771 39.5881 53.9601 39.4602L53.9638 39.4565Z"></path>
<path fill="#5CCBF2" d="M58.6266 74.4895C57.8592 74.7562 57.1576 75.3701 57.0297 76.1741C56.8872 77.0584 57.4462 77.8806 57.7532 78.721C58.3196 80.2814 58.0309 82.0025 58.115 83.6615C58.1442 84.2352 58.2282 84.8345 58.5754 85.2913C58.9043 85.7261 59.4232 85.971 59.9421 86.1427C60.461 86.3145 61.0018 86.4314 61.4841 86.6872C62.0177 86.9686 62.4525 87.3961 62.9787 87.6921C63.5232 87.9991 64.0165 88.0539 64.6268 87.9844C65.8984 87.8346 67.0897 87.323 68.2627 86.8407C69.1909 86.457 70.13 86.0769 71.1166 85.8796C72.1361 85.675 73.3091 85.6129 73.9742 84.8126C74.4566 84.2352 74.5223 83.4057 74.3652 82.6712C74.2081 81.9367 73.8573 81.2607 73.5759 80.5628C73.0972 79.3898 72.8085 78.1437 72.7172 76.883C72.6623 76.1266 72.666 75.319 72.2567 74.6831C71.8292 74.0181 71.0399 73.6782 70.2688 73.5065C69.4978 73.3384 68.6939 73.3019 67.9411 73.0607C67.1591 72.8085 66.4319 72.3335 65.6134 72.2933C64.5244 72.2385 63.5999 72.9437 62.7193 73.4809C62.2552 73.7623 61.7765 74.0217 61.2466 74.1606C60.6217 74.325 59.9713 74.23 59.3318 74.3287C59.0943 74.3652 58.8641 74.42 58.6375 74.4968L58.6266 74.4895Z"></path>
<path fill="white" d="M59.8762 77.2155C59.4998 76.9816 59.1271 76.7222 58.6959 76.6235C58.4474 76.5687 58.1514 76.5833 57.9797 76.7733C57.8664 76.9012 57.8298 77.0766 57.8262 77.2484C57.8079 77.8075 58.0454 78.3373 58.2172 78.8672C58.579 80.011 58.6228 81.2278 58.6301 82.4264C58.6301 82.7845 58.6484 83.1865 58.9078 83.4313C58.9626 83.4825 59.0503 83.5263 59.1125 83.4788C59.1673 83.435 59.1563 83.3509 59.1417 83.2851C58.9626 82.4739 58.9078 81.6371 58.8567 80.8076C58.8019 79.9598 58.747 79.112 58.6922 78.2606C58.6813 78.0852 58.674 77.8952 58.7836 77.7563C58.9407 77.5553 59.2513 77.5773 59.4852 77.6723C59.7227 77.7709 59.931 77.9244 60.1503 78.0487C60.3695 78.1729 60.6253 78.2752 60.8774 78.246C61.0273 78.2314 61.1844 78.1583 61.2502 78.0231C61.3013 77.9244 61.2794 77.7819 61.1954 77.7052C61.093 77.6138 60.9103 77.6467 60.7861 77.6211C60.4572 77.5517 60.1576 77.3873 59.8725 77.2082L59.8762 77.2155Z"></path>
<path fill="white" d="M61.8897 78.8854C61.9555 78.9548 62.0505 78.9986 62.1455 78.984C62.2405 78.9694 62.3172 78.889 62.3428 78.7977C62.3976 78.615 62.2368 78.224 61.9993 78.2678C61.7143 78.3226 61.7289 78.7209 61.8897 78.8854Z"></path>
<path fill="white" d="M62.0943 76.2471C61.8751 76.0279 61.9372 75.6734 62.1492 75.4724C62.3319 75.297 62.5877 75.2239 62.8325 75.1545C64.0164 74.8147 65.2187 74.42 66.1724 73.6417C66.2272 73.5978 66.2821 73.5503 66.3149 73.4845C66.3478 73.4188 66.3478 73.3384 66.3003 73.2836C66.2492 73.2288 66.1651 73.2251 66.092 73.2251C65.7668 73.2397 65.4745 73.3384 65.1639 73.4151C64.8752 73.4882 64.6011 73.6636 64.3234 73.7878C63.6803 74.0729 63.0152 74.3031 62.3355 74.4785C61.6631 74.6539 60.9579 74.7818 60.2636 74.8366C59.9639 74.8622 59.5949 74.9243 59.3427 75.107C59.1893 75.2203 59.0796 75.4213 59.1344 75.604C59.1929 75.805 59.4195 75.9365 59.6131 75.9694C59.8726 76.0096 60.132 76.0535 60.3878 76.1046C60.8885 76.2106 61.3854 76.3641 61.8276 76.6308C62.0578 76.7697 62.2697 76.9414 62.5073 77.0693C63.1358 77.4165 63.9141 77.2374 64.5792 77.0839C65.4233 76.8866 66.2565 76.6308 67.0677 76.3129C67.1554 76.28 67.2541 76.2325 67.2833 76.1412C67.3125 76.0388 67.2285 75.9292 67.1262 75.8963C67.0239 75.8634 66.9142 75.8817 66.8083 75.9C65.8034 76.09 64.7985 76.28 63.7935 76.47C63.5012 76.5248 63.2089 76.5797 62.9129 76.565C62.6169 76.5468 62.3172 76.4518 62.1053 76.2435L62.0943 76.2471Z"></path>
<path fill="white" d="M67.9739 75.4177C67.9118 75.4542 67.8533 75.4981 67.8204 75.5602C67.7876 75.6223 67.7802 75.7027 67.8204 75.7612C67.8753 75.8379 67.9812 75.8525 68.0762 75.8415C68.2224 75.8269 68.7303 75.6735 68.6536 75.4469C68.5769 75.2203 68.1091 75.3373 67.9703 75.4177H67.9739Z"></path>
<path fill="white" d="M69.9068 74.8732C69.8155 74.8988 69.7205 74.9317 69.651 74.9938C69.5816 75.0559 69.5304 75.1546 69.556 75.2496C69.5816 75.3446 69.6839 75.4067 69.7826 75.4177C69.8812 75.4286 69.9799 75.3994 70.0749 75.3702C70.5171 75.2313 70.9519 75.0669 71.3795 74.8878C71.4525 74.8586 71.7485 74.6868 71.5293 74.6138C71.4452 74.5882 71.3283 74.6211 71.2443 74.632C71.1346 74.643 71.0287 74.6576 70.919 74.6686C70.5755 74.7124 70.2357 74.7745 69.9032 74.8696L69.9068 74.8732Z"></path>
<path fill="white" d="M71.8109 77.6795C71.8986 79.2033 72.3225 80.6833 72.6002 82.1815C72.6769 82.5981 72.7354 83.0512 72.5271 83.4166C72.3408 83.7455 71.9753 83.9282 71.6209 84.0597C70.3638 84.5275 68.9679 84.5933 67.7767 85.2072C67.4368 85.3826 67.1043 85.6164 66.9581 85.9672C66.885 86.139 66.8741 86.3546 66.9983 86.4898C67.1079 86.6067 67.2907 86.6286 67.4441 86.5848C67.5976 86.5409 67.7292 86.4459 67.8607 86.3582C68.9862 85.5872 70.2944 85.0793 71.6465 84.8929C72.3006 84.8015 73.0424 84.7431 73.4516 84.2278C73.7294 83.8807 73.7769 83.3947 73.6928 82.9598C73.6124 82.525 73.4187 82.1157 73.2507 81.7064C72.6989 80.3544 72.4175 78.8927 72.4321 77.431C72.4321 77.2227 72.4394 77.0108 72.4212 76.8025C72.4102 76.6709 72.4138 76.4553 72.264 76.3969C71.9278 76.269 71.8474 76.8317 71.8219 77.0327C71.7963 77.2483 71.7999 77.4639 71.8109 77.6795Z"></path>
<path fill="white" d="M65.646 86.3472C65.5328 86.4496 65.4926 86.625 65.5328 86.7748C65.5583 86.8625 65.6132 86.9465 65.6936 86.9904C65.7703 87.0306 65.8653 87.0342 65.9493 87.0087C66.0882 86.9685 66.2015 86.8479 66.238 86.709C66.3294 86.3509 65.9311 86.0878 65.646 86.3436V86.3472Z"></path>
<path fill="#5CCBF2" d="M102.316 121.972C102.316 121.972 102.316 121.972 102.313 121.972C101.611 121.939 100.906 121.892 100.226 121.698C99.4586 121.479 98.7205 121.099 98.2381 120.445C97.3647 119.268 97.5803 117.638 97.8617 116.198C98.2564 114.185 98.7058 112.164 98.6949 110.111C98.6876 108.649 98.5487 107.18 98.6072 105.718C98.6474 104.699 98.8593 103.65 99.4586 102.82C100.149 101.867 101.267 101.319 102.386 100.953C103.504 100.588 104.677 100.372 105.751 99.8934C106.453 99.5792 107.103 99.1589 107.794 98.8228C108.484 98.4866 109.245 98.2344 110.012 98.2892C112.804 98.4902 115.281 100.16 118.08 100.193C118.895 100.2 119.707 100.058 120.525 100.051C121.344 100.043 122.199 100.197 122.827 100.719C123.456 101.242 123.763 102.068 123.843 102.883C123.923 103.697 123.799 104.512 123.708 105.324C123.419 107.882 123.437 110.472 123.755 113.023C123.891 114.101 123.931 115.248 124.139 116.308C124.322 117.229 123.861 118.132 123.229 118.8C122.623 119.447 121.844 119.911 121.062 120.335C120.28 120.759 119.48 121.157 118.782 121.709C118.263 122.118 117.814 122.608 117.309 123.028C116.893 123.379 116.334 123.66 115.826 123.869C114.682 124.344 113.403 124.435 112.183 124.296C110.549 124.11 108.985 123.54 107.428 123.014C106.913 122.838 106.394 122.67 105.872 122.52C105.349 122.37 104.841 122.246 104.319 122.151C103.646 122.027 102.996 122.001 102.316 121.972Z"></path>
<mask height="27" width="28" y="98" x="97" maskUnits="userSpaceOnUse" style="mask-type:luminance" id="mask1_8_23131">
<path fill="white" d="M102.316 121.972C102.316 121.972 102.316 121.972 102.313 121.972C101.611 121.939 100.906 121.892 100.226 121.698C99.4586 121.479 98.7205 121.099 98.2381 120.445C97.3647 119.268 97.5803 117.638 97.8617 116.198C98.2564 114.185 98.7058 112.164 98.6949 110.111C98.6876 108.649 98.5487 107.18 98.6072 105.718C98.6474 104.699 98.8593 103.65 99.4586 102.82C100.149 101.867 101.267 101.319 102.386 100.953C103.504 100.588 104.677 100.372 105.751 99.8934C106.453 99.5792 107.103 99.1589 107.794 98.8228C108.484 98.4866 109.245 98.2344 110.012 98.2892C112.804 98.4902 115.281 100.16 118.08 100.193C118.895 100.2 119.707 100.058 120.525 100.051C121.344 100.043 122.199 100.197 122.827 100.719C123.456 101.242 123.763 102.068 123.843 102.883C123.923 103.697 123.799 104.512 123.708 105.324C123.419 107.882 123.437 110.472 123.755 113.023C123.891 114.101 123.931 115.248 124.139 116.308C124.322 117.229 123.861 118.132 123.229 118.8C122.623 119.447 121.844 119.911 121.062 120.335C120.28 120.759 119.48 121.157 118.782 121.709C118.263 122.118 117.814 122.608 117.309 123.028C116.893 123.379 116.334 123.66 115.826 123.869C114.682 124.344 113.403 124.435 112.183 124.296C110.549 124.11 108.985 123.54 107.428 123.014C106.913 122.838 106.394 122.67 105.872 122.52C105.349 122.37 104.841 122.246 104.319 122.151C103.646 122.027 102.996 122.001 102.316 121.972Z"></path>
</mask>
<g mask="url(#mask1_8_23131)">
<path fill="white" d="M122.469 119.999C123.353 119.18 123.671 117.898 123.631 116.692C123.591 115.486 123.247 114.317 123.002 113.136C122.685 111.591 122.538 110.016 122.593 108.444C122.648 106.833 123.178 105.283 123.269 103.672C123.302 103.094 123.269 102.484 122.977 101.984C122.696 101.501 122.217 101.213 121.705 101.026C121.11 100.811 120.543 100.935 119.915 100.942C118.548 100.96 117.174 100.778 115.862 100.394C114.112 99.8825 112.431 99.0201 110.611 98.9397C109.614 98.8958 108.612 99.0931 107.669 99.4257C107.059 99.6413 106.449 99.919 105.799 99.9263C105.148 99.9336 104.435 99.5682 104.3 98.9324C106.88 98.1869 109.566 97.4743 112.234 97.1637C114.901 96.8531 117.667 96.9993 120.163 97.9932C122.067 98.7533 123.821 100.062 124.749 101.889C125.743 103.847 125.696 106.149 125.623 108.346C125.546 110.699 125.469 113.056 125.392 115.409C125.359 116.436 125.319 117.496 124.884 118.428C124.45 119.359 123.503 120.061 122.476 119.988L122.469 119.999Z"></path>
</g>
<path fill="#00B14C" d="M118.599 106.409C118.497 106.336 118.387 106.27 118.278 106.215C117.273 105.725 116.104 105.623 115.015 105.828C114.763 105.875 114.514 105.937 114.269 106.018C114.035 106.095 113.787 106.153 113.582 106.296C113.571 106.303 113.56 106.31 113.557 106.321C113.553 106.336 113.557 106.35 113.564 106.361C113.593 106.416 113.648 106.453 113.706 106.478C113.765 106.504 113.823 106.518 113.878 106.551C113.389 106.719 112.913 106.95 112.446 107.173C112.34 107.224 112.234 107.275 112.128 107.326C111.788 107.49 111.441 107.655 111.152 107.903C111.097 107.951 111.039 108.024 111.068 108.09C111.09 108.137 111.141 108.156 111.192 108.166C111.302 108.192 111.419 108.203 111.532 108.196C110.962 108.579 110.377 109.025 109.837 109.453C109.701 109.559 109.566 109.668 109.442 109.785C109.31 109.913 109.336 110.107 109.544 110.074C109.113 110.454 108.66 110.882 108.24 111.269C108.024 111.466 107.809 111.667 107.651 111.916C107.619 111.967 107.63 112.014 107.692 112.025C107.761 112.04 107.831 112.047 107.9 112.047C107.64 112.263 107.399 112.5 107.133 112.709C106.866 112.917 106.584 113.114 106.299 113.293C106.128 113.399 105.952 113.505 105.81 113.644C105.795 113.659 105.78 113.673 105.78 113.692C105.777 113.728 105.813 113.754 105.846 113.765C105.897 113.787 105.949 113.798 106 113.809C106.044 113.82 106.058 113.816 106.022 113.856C106.007 113.874 105.989 113.893 105.974 113.911C105.908 113.984 105.835 114.053 105.759 114.116C105.645 114.207 105.536 114.302 105.419 114.386C105.159 114.572 104.882 114.729 104.597 114.861C104.308 114.993 104.012 115.106 103.712 115.197C103.614 115.226 103.5 115.278 103.486 115.38C103.471 115.49 103.584 115.563 103.676 115.588C103.508 115.716 103.299 115.859 103.106 115.946C102.514 116.213 101.849 116.253 101.202 116.337C101.121 116.348 101.041 116.359 100.972 116.399C100.727 116.535 100.847 116.754 101.004 116.896C101.355 117.211 101.754 117.434 102.141 117.689C102.671 118.04 103.237 118.373 103.844 118.57C103.745 118.61 103.639 118.68 103.639 118.786C103.639 118.899 103.767 118.961 103.877 118.998C104.279 119.133 104.681 119.264 105.086 119.378C105.466 119.484 105.865 119.535 106.237 119.648C106.161 119.681 106.076 119.695 106.014 119.75C105.971 119.787 105.941 119.86 105.978 119.904C105.989 119.922 106.007 119.933 106.029 119.94C106.069 119.959 106.113 119.973 106.157 119.984C106.829 120.152 107.538 120.171 108.218 120.043C108.17 120.112 108.167 120.181 108.141 120.262C108.13 120.295 108.123 120.331 108.141 120.361C108.152 120.386 108.181 120.401 108.207 120.412C108.284 120.445 108.371 120.445 108.452 120.441C108.817 120.434 109.183 120.397 109.544 120.331C109.906 120.266 110.253 120.134 110.611 120.05C110.611 120.116 110.6 120.167 110.604 120.229C110.604 120.28 110.611 120.339 110.652 120.372C110.677 120.39 110.71 120.397 110.739 120.397C110.977 120.419 111.214 120.368 111.445 120.306C111.971 120.163 112.482 119.962 112.965 119.703C113.012 119.677 113.019 119.663 113.063 119.637C113.056 119.732 113.067 119.834 113.1 119.922C113.107 119.94 113.118 119.962 113.136 119.973C113.155 119.984 113.18 119.984 113.202 119.984C113.502 119.959 113.761 119.776 114.006 119.6C114.419 119.301 114.828 119.005 115.241 118.705C115.259 118.778 115.245 118.848 115.278 118.913C115.292 118.943 115.311 118.976 115.34 118.987C115.373 118.998 115.406 118.987 115.439 118.972C115.57 118.913 115.691 118.837 115.811 118.756C116.476 118.307 117.123 117.748 117.481 117.017C117.492 117.097 117.525 117.159 117.569 117.229C117.584 117.254 117.605 117.28 117.635 117.287C117.675 117.295 117.711 117.265 117.741 117.24C118.347 116.673 118.775 115.917 118.943 115.102C118.99 115.168 119.045 115.219 119.118 115.256C119.14 115.267 119.166 115.274 119.191 115.27C119.25 115.263 119.283 115.201 119.301 115.146C119.465 114.711 119.593 114.265 119.688 113.812C119.783 113.359 119.809 112.924 119.886 112.482C119.886 112.475 119.886 112.467 119.882 112.464C119.878 112.46 119.875 112.475 119.882 112.471C119.962 112.511 120.046 112.544 120.127 112.584C120.149 112.595 120.178 112.606 120.2 112.595C120.222 112.584 120.229 112.559 120.233 112.533C120.401 111.634 120.401 110.607 120.12 109.727C120.178 109.716 120.226 109.789 120.288 109.8C120.584 109.866 120.408 109.149 120.375 109.025C120.222 108.444 119.955 107.896 119.601 107.414C119.338 107.056 118.994 106.668 118.614 106.394L118.599 106.409Z"></path>
<path fill="#004600" d="M120.262 104.823C117.774 110.779 112.665 116.235 106.025 117.123C105.108 117.269 104.18 117.287 103.259 117.28C103.226 117.28 103.201 117.255 103.201 117.222C103.201 117.189 103.226 117.163 103.259 117.163C104.633 117.123 105.992 116.94 107.312 116.564C112.161 115.19 115.866 111.284 118.084 106.884C118.483 106.091 118.859 105.262 119.144 104.428C119.418 103.683 120.518 104.059 120.258 104.827L120.262 104.823Z"></path>
<path fill="white" d="M114.927 116.714C114.846 115.453 114.887 114.182 114.719 112.928C114.649 112.417 114.525 111.868 114.134 111.529C113.988 111.974 113.969 112.449 113.955 112.917C113.871 115.49 113.783 118.059 113.699 120.631C113.684 121.088 113.67 121.552 113.79 121.991C113.911 122.429 114.192 122.849 114.613 123.025C115.146 123.248 115.775 123.025 116.224 122.659C116.674 122.294 116.992 121.801 117.372 121.362C117.967 120.679 118.713 120.131 119.546 119.772C120.609 119.312 121.874 119.107 122.593 118.201C122.685 118.084 122.769 117.953 122.783 117.806C122.798 117.66 122.725 117.496 122.586 117.445C122.414 117.379 122.232 117.507 122.085 117.616C121.486 118.066 120.785 118.377 120.05 118.515C119.571 118.607 119.071 118.629 118.625 118.826C118.113 119.053 117.726 119.484 117.28 119.82C116.959 120.065 116.476 120.346 116.052 120.284C115.687 120.229 115.585 119.886 115.468 119.575C115.124 118.662 114.989 117.682 114.927 116.714Z"></path>
<path fill="white" d="M99.1807 116.433C99.0784 116.648 99.0711 116.893 99.0675 117.134C99.0528 117.752 99.0419 118.38 99.2502 118.961C99.4585 119.542 99.9335 120.065 100.547 120.145C100.759 120.174 100.99 120.145 101.165 120.021C101.34 119.9 101.454 119.674 101.406 119.465C101.337 119.151 100.982 119.012 100.734 118.804C100.365 118.497 100.211 118.004 100.124 117.532C100.05 117.138 100.029 116.677 99.8422 116.312C99.6558 115.946 99.3415 116.096 99.1844 116.433H99.1807Z"></path>
<path fill="white" d="M99.327 115.11C99.2722 114.952 99.2686 114.784 99.2686 114.62C99.2686 114.492 99.2686 114.36 99.3161 114.244C99.3636 114.127 99.4732 114.024 99.6011 114.028C99.7692 114.028 99.8825 114.2 99.93 114.36C100.058 114.792 99.6303 115.946 99.3234 115.11H99.327Z"></path>
<path fill="white" d="M100.124 105.258C100.339 105.397 100.61 105.397 100.865 105.397C104.362 105.419 107.765 106.449 111.21 107.048C112.124 107.205 113.067 107.333 113.977 107.147C115.376 106.858 116.535 105.996 117.741 105.232C118.983 104.447 120.225 103.657 121.398 102.769C121.588 102.623 121.797 102.382 121.672 102.177C121.548 101.98 121.249 102.049 121.04 102.144C119.663 102.777 118.387 103.61 117.039 104.304C115.983 104.848 114.835 105.313 113.673 105.557C112.424 105.821 111.126 105.353 109.921 105.075C106.961 104.395 103.88 104.567 100.847 104.739C100.635 104.75 99.612 104.929 100.127 105.258H100.124Z"></path>
<path fill="white" d="M105.871 100.96C105.817 100.982 105.758 101.008 105.722 101.055C105.612 101.198 105.769 101.395 105.93 101.476C106.284 101.647 106.705 101.629 107.088 101.538C107.472 101.447 107.837 101.289 108.217 101.183C109.88 100.723 111.667 101.315 113.37 101.045C113.476 101.026 113.585 101.004 113.669 100.939C113.754 100.873 113.805 100.752 113.757 100.654C113.71 100.559 113.596 100.526 113.494 100.5C112.792 100.336 112.087 100.168 111.386 100.003C110.593 99.8167 109.449 99.36 108.689 99.7729C107.801 100.255 106.807 100.58 105.868 100.96H105.871Z"></path>
<path fill="white" d="M115.007 100.8C114.879 100.873 114.875 101.066 114.956 101.191C115.058 101.351 115.288 101.424 115.46 101.34C115.632 101.256 115.712 101.015 115.606 100.854C115.5 100.694 115.233 100.672 115.117 100.825"></path>
<path fill="white" d="M122.824 104.238C122.871 104.589 122.809 104.944 122.725 105.287C122.659 105.547 122.582 105.802 122.495 106.054C122.473 106.113 122.451 106.171 122.396 106.201C122.312 106.241 122.213 106.171 122.166 106.095C122.078 105.963 122.052 105.799 122.06 105.642C122.067 105.484 122.104 105.331 122.137 105.177C122.206 104.841 122.25 104.49 122.177 104.158C122.147 104.019 122.096 103.88 122.085 103.738C122.078 103.628 122.1 103.438 122.224 103.394C122.337 103.354 122.447 103.471 122.513 103.544C122.688 103.738 122.787 103.99 122.824 104.246V104.238Z"></path>
<path fill="white" d="M56.4924 70.6197C55.8493 71.0107 55.1257 72.1325 54.9613 72.4651C54.2451 73.9231 53.9235 75.5748 53.697 77.1717C52.8455 83.2267 51.2194 102.594 56.5217 102.594C56.5217 102.594 58.4986 102.437 57.1758 99.7693C55.8529 97.1017 54.7713 89.2598 55.7323 77.7417C55.9589 75.4907 56.2987 73.4919 57.2233 71.4053C57.3219 71.1824 57.4169 70.912 57.2817 70.711C57.0807 70.4114 56.7921 70.4333 56.4888 70.6197H56.4924Z"></path>
<path fill="white" d="M55.853 104.099C55.5936 104.556 55.6119 105.134 55.8019 105.623C55.959 106.029 56.2367 106.391 56.6058 106.621C56.9749 106.847 57.4426 106.928 57.8556 106.8C58.601 106.566 59.0212 105.667 58.8239 104.911C58.517 103.723 56.6131 102.762 55.8494 104.103L55.853 104.099Z"></path>
<path fill="white" d="M96.5316 73.7111C97.8471 81.6919 96.5864 89.8554 96.897 97.9348C96.9116 98.3368 97.0212 98.852 97.4195 98.9178C97.6571 98.958 97.8836 98.8045 98.0481 98.6291C98.7533 97.8763 98.7789 96.7326 98.7606 95.7021C98.6802 90.9663 98.5998 86.2341 98.5194 81.4982C98.4902 79.7954 98.461 78.0925 98.2819 76.3969C98.1906 75.5419 98.0627 74.6868 97.88 73.8463C97.7667 73.3238 97.7155 72.3116 97.0651 72.1581C96.2027 71.9571 96.4512 73.2288 96.5316 73.7038V73.7111Z"></path>
<path fill="white" d="M97.1638 70.9632C97.1565 71.1167 97.1346 71.3359 96.9811 71.4127C96.8934 71.4565 96.7911 71.4602 96.6997 71.4346C96.327 71.3396 96.0566 70.9011 96.0456 70.5283C96.0383 70.247 96.2174 69.9217 96.4987 69.9181C96.7947 69.9108 96.9738 70.236 97.0725 70.5174C97.1236 70.6599 97.1711 70.8097 97.1638 70.9632Z"></path>
<path fill="white" d="M45.618 51.8845C39.7712 52.6957 39.2889 53.3498 38.6896 61.2794C38.094 53.3498 37.608 52.692 31.7612 51.8845C37.608 51.0732 38.0903 50.4191 38.6896 42.4895C39.2852 50.4191 39.7712 51.0769 45.618 51.8845Z"></path>
<path fill="white" d="M120.617 79.218C114.77 80.0292 114.287 80.6833 113.688 88.6129C113.093 80.6833 112.606 80.0255 106.76 79.218C112.606 78.4067 113.089 77.7526 113.688 69.823C114.284 77.7526 114.77 78.4104 120.617 79.218Z"></path>
<path fill="white" d="M69.7466 99.7693C64.7001 100.467 64.2836 101.034 63.7683 107.878C63.2531 101.034 62.8365 100.467 57.79 99.7693C62.8365 99.0714 63.2531 98.505 63.7683 91.6606C64.2836 98.505 64.7001 99.0714 69.7466 99.7693Z"></path>
<path fill="#004600" d="M89.4277 53.8066C89.3291 53.971 89.2085 54.0003 89.0477 54.0039L88.6494 54.0368C86.804 54.183 84.9404 54.2962 83.0914 54.3584C80.9719 54.4278 78.8488 54.4388 76.7294 54.373C76.6088 54.3693 76.5174 54.267 76.5211 54.1501C76.5248 54.0368 76.6161 53.9491 76.7257 53.9418C77.7818 53.8797 78.8342 53.8285 79.8866 53.7518C82.7625 53.5691 85.6858 53.3242 88.5544 53.0246C88.6713 53.0173 89.0258 52.9551 89.1464 52.9771C89.4752 53.0575 89.6141 53.5398 89.4277 53.8102V53.8066Z"></path>
</g>
<defs>
<clipPath id="clip0_8_23131">
<rect transform="translate(31.7646 32.9412)" fill="white" height="94.1176" width="96.4417"></rect>
</clipPath>
</defs>
</svg>
