<svg xmlns="http://www.w3.org/2000/svg" fill="none" viewBox="0 0 160 160" height="160" width="160">
<circle fill="#FFF073" r="80" cy="80" cx="80"></circle>
<g clip-path="url(#clip0_8_23220)">
<path fill="#004600" d="M53.4679 112.46C52.6306 112.46 51.7824 112.548 50.9452 112.617C49.0623 112.775 47.1868 113.005 45.3295 113.356C43.8451 113.637 42.3571 113.93 40.9386 114.456C39.5858 114.957 38.0759 115.732 37.2716 116.983C36.9718 117.451 36.7743 118.094 37.001 118.632C37.3228 119.396 38.4123 119.6 39.1215 119.823C40.6388 120.299 42.2292 120.518 43.8013 120.745C44.803 120.891 45.8084 121.015 46.8139 121.118C49.4097 121.388 52.0164 121.597 54.6195 121.769C56.3927 121.885 58.1622 121.984 59.9391 122.072C61.7671 122.163 63.5988 122.24 65.4305 122.31C66.3481 122.343 67.2658 122.375 68.1835 122.405C68.7319 122.423 69.2803 122.43 69.8287 122.467C70.2199 122.492 71.4739 122.445 71.4922 123.03C71.4958 123.158 71.4227 123.278 71.324 123.359C71.2253 123.439 71.1046 123.491 70.9876 123.542C70.6367 123.688 70.2893 123.831 69.9384 123.977C69.6276 124.105 69.3059 124.244 69.0719 124.485C68.8013 124.763 68.6917 125.209 68.9293 125.549C69.1779 125.911 69.6313 125.991 70.0334 126.068C70.5928 126.17 71.1595 126.222 71.7262 126.269C73.8065 126.445 75.8904 126.591 77.9744 126.711C80.04 126.828 82.102 126.913 84.1677 126.96C84.9391 126.978 85.7106 126.993 86.482 127.008C88.5147 127.041 90.5475 127.055 92.5803 127.055C105.471 127.055 122.966 127.015 122.969 123.538C122.973 117.524 99.3915 117.549 99.3915 117.549L78.0365 112.46H53.4679Z"></path>
<path fill="white" d="M112.118 77.0367C112.118 77.0367 110.418 65.2276 101.476 61.6118C94.0905 58.6285 89.4766 62.8146 88.4126 63.9407C88.3688 63.8383 88.3286 63.7323 88.2883 63.6263C87.5096 61.4948 87.6961 59.027 88.7307 57.0125C89.769 55.0455 92.6975 52.256 89.0598 51.1445C87.9593 50.8411 86.7894 50.7789 85.656 50.7533C79.1555 50.6034 75.2509 51.9891 70.0849 48.7133C67.9022 47.3313 65.7378 45.9127 63.3614 44.8744C60.5974 43.6679 57.5885 43.0171 54.5686 43.3864C52.8064 43.6021 51.11 44.1761 49.5233 44.9658C48.7226 45.3643 47.9475 45.8177 47.1907 46.2966C46.7154 46.6001 45.5235 47.2106 45.699 47.9309C45.7319 48.0661 45.827 48.1795 45.933 48.2672C46.2218 48.5012 46.5948 48.5341 46.9348 48.6475C47.3223 48.7754 47.6989 48.9582 48.0572 49.1483C49.399 49.8613 50.5945 50.9581 51.6182 52.0732C52.6601 53.2139 53.5413 54.5044 54.1811 55.912C54.883 57.4549 55.362 59.1293 55.3912 60.8331C55.3912 61.0561 55.3912 61.2718 55.3766 61.4838C55.2742 63.023 54.7112 64.3465 53.8959 65.6993C52.5834 67.8783 50.9857 69.8891 49.3478 71.8305C48.463 72.8761 47.5526 73.9034 46.6277 74.9125C37.4217 84.9666 42.0174 98.7463 50.1813 109.784C50.1813 109.784 53.6948 114.431 55.9616 116.131C57.4459 117.242 62.4474 117.944 67.6938 118.295C67.6938 118.295 71.8471 118.409 75.3459 118.31C80.6874 118.156 85.8059 117.261 87.3085 116.131C89.5753 114.431 93.0887 109.784 93.0887 109.784C96.2878 105.459 98.9384 100.71 100.426 95.9311C102.598 96.315 105.055 96.2017 107.505 94.9696C114.648 91.3793 112.115 77.0367 112.115 77.0367H112.118ZM105.355 88.8457C103.995 89.6062 102.719 89.9169 101.637 90.0047C102.112 84.6157 100.752 79.3948 96.6497 74.9125C95.1215 73.249 93.6298 71.5416 92.2369 69.7648C93.4214 67.6552 94.9424 66.1307 96.891 65.8236C104.638 64.6024 107.245 77.3657 107.245 77.3657C107.245 77.3657 109.208 86.6923 105.355 88.8457Z"></path>
<path fill="#F15623" d="M54.7949 68.6096C54.7949 68.6096 56.9812 65.1656 66.9842 66.8035C76.9871 68.4414 79.678 64.9207 86.7707 65.8383L73.2068 73.2053L64.4652 72.953L54.7949 68.6133V68.6096Z"></path>
<path fill="#FDB515" d="M86.7708 65.8383C88.2405 68.6095 90.9643 72.1705 94.9201 76.492C98.6713 80.5868 100.068 85.6687 99.0771 91.5951C98.2033 96.8086 95.4868 102.614 91.2202 108.384C90.2879 109.612 87.5422 113.034 85.908 114.263C85.2353 114.756 81.3087 115.802 75.2799 115.974C72.0808 116.065 68.2566 115.974 67.8032 115.959C60.7763 115.487 57.899 114.643 57.3616 114.263C55.7273 113.034 52.978 109.612 52.0493 108.384C47.7827 102.614 45.0663 96.8086 44.1925 91.5951C43.2017 85.6687 44.5983 80.5868 48.3494 76.492C51.0914 73.494 53.2412 70.8653 54.7914 68.6132C54.7914 68.6132 57.665 67.5858 61.7452 70.2072C65.8217 72.8286 71.569 73.0809 78.1937 68.5181C83.155 65.469 86.7708 65.8383 86.7708 65.8383Z"></path>
<path fill="#FFED9A" d="M84.7525 92.9587C84.7525 92.9587 85.4399 93.1927 86.4307 94.5966C87.4215 96.0042 87.6225 97.9492 87.7688 99.4738C87.9041 100.856 86.6573 110.314 77.3783 113.279C67.6349 116.39 61.9205 107.667 61.0723 104.333C61.0723 104.333 60.5495 103.378 62.1911 102.655L84.7489 92.9624L84.7525 92.9587Z"></path>
<path fill="white" d="M61.9388 102.845L84.1748 92.9478C84.1748 92.9478 84.5441 92.765 84.8073 93.0026C85.0706 93.2402 85.1656 93.6863 85.2241 94.0519C85.2826 94.4175 88.2989 106.519 77.4587 111.393C77.4587 111.393 74.4022 112.775 70.4537 111.605C66.4284 110.409 62.3299 106.596 61.7523 103.188C61.7267 103.046 61.8071 102.903 61.9388 102.845Z"></path>
<path fill="#FFED9A" d="M75.203 98.004C75.203 98.004 80.9065 95.2912 83.0635 94.7684C85.2243 94.2456 84.526 99.6273 84.526 99.6273C84.526 99.6273 84.409 101.894 83.0562 101.466C81.4476 100.958 77.2906 99.6639 75.3346 98.6877C75.3346 98.6877 74.4645 98.3258 75.203 98.004Z"></path>
<path fill="#FFED9A" d="M74.6692 99.174L82.3871 102.592C82.3871 102.592 83.5717 103.009 83.4839 103.879C83.3962 104.749 81.8351 107.312 79.7292 108.716C79.7292 108.716 78.7091 109.491 77.9816 108.084C77.254 106.676 74.0111 100.249 74.0111 100.249C74.0111 100.249 73.5724 99.3861 73.7698 99.0972C73.938 98.8559 74.6692 99.174 74.6692 99.174Z"></path>
<path fill="#FFED9A" d="M64.0483 102.907L71.0424 99.7335C71.3092 99.6128 71.5871 99.876 71.4811 100.15L68.4502 107.821C68.4502 107.821 67.7263 109.429 66.2602 108.395C64.7942 107.36 63.7229 105.715 63.2586 104.797C62.5859 103.474 64.052 102.903 64.052 102.903L64.0483 102.907Z"></path>
<path fill="#FFED9A" d="M69.3825 108.139L72.2086 99.9344C72.3293 99.5871 72.8119 99.5651 72.9618 99.9015C74.0513 102.329 76.8847 108.65 76.8591 108.647C76.8262 108.643 77.7841 110.5 75.3492 110.946C72.9143 111.396 70.9437 110.687 70.037 110.233C68.9036 109.67 69.2034 108.661 69.3825 108.139Z"></path>
<path fill="white" d="M85.7542 102.585C85.9663 102.523 85.8639 102.201 85.6592 102.249C85.4544 102.296 85.5349 102.651 85.7542 102.585Z"></path>
<path fill="white" d="M86.5001 102.563C86.6683 102.435 86.4818 102.157 86.3027 102.274C86.1126 102.399 86.3137 102.698 86.5001 102.563Z"></path>
<path fill="white" d="M86.482 101.503C86.5113 101.488 86.5405 101.463 86.5551 101.433C86.6612 101.254 86.4528 101.079 86.2992 101.221C86.1566 101.353 86.2919 101.598 86.4784 101.503H86.482Z"></path>
<path fill="white" d="M86.4816 100.662C86.5327 100.713 86.6168 100.728 86.6826 100.695C86.7485 100.662 86.785 100.581 86.7704 100.512C86.7229 100.227 86.2732 100.442 86.4816 100.662Z"></path>
<path fill="white" d="M87.0704 100.092C87.118 100.154 87.2167 100.168 87.2825 100.128C87.3666 100.081 87.3922 99.9527 87.3337 99.8759C87.1911 99.6785 86.9315 99.9198 87.0704 100.095V100.092Z"></path>
<path fill="white" d="M79.477 98.5342C79.5135 98.5708 79.5611 98.5964 79.6122 98.6183C79.9011 98.7463 80.2301 98.7865 80.5445 98.7317C80.6615 98.7097 80.7858 98.6695 80.8407 98.5635C80.9065 98.4392 80.837 98.2783 80.72 98.2015C80.603 98.1248 80.4568 98.1101 80.3179 98.1138C80.1022 98.1174 79.8901 98.154 79.6854 98.2162C79.5355 98.2637 79.3051 98.3624 79.4806 98.5379L79.477 98.5342Z"></path>
<path fill="white" d="M71.1192 107.682C71.09 107.7 71.0644 107.726 71.0388 107.751C70.8998 107.912 70.8121 108.117 70.7865 108.329C70.7792 108.406 70.7829 108.497 70.8377 108.552C70.9035 108.618 71.0205 108.603 71.0936 108.545C71.1667 108.486 71.2033 108.391 71.2289 108.303C71.2691 108.164 71.2874 108.022 71.2837 107.876C71.2837 107.769 71.2618 107.601 71.1156 107.682H71.1192Z"></path>
<path fill="white" d="M78.3621 102.852C78.3804 103.002 78.4864 103.126 78.5961 103.232C78.6509 103.287 78.7094 103.338 78.7716 103.386C78.852 103.448 78.9361 103.507 79.0348 103.528C79.1335 103.55 79.2469 103.528 79.3127 103.452C79.3895 103.364 79.3821 103.225 79.3236 103.126C79.2652 103.028 79.1701 102.954 79.0714 102.889C79.0129 102.848 78.9507 102.812 78.8886 102.775C78.746 102.695 78.3255 102.527 78.3621 102.852Z"></path>
<path fill="white" d="M68.2895 102.973C68.1359 102.962 67.997 103.042 67.8727 103.13C67.8105 103.174 67.7484 103.221 67.6862 103.272C67.6095 103.338 67.5363 103.411 67.4961 103.506C67.4559 103.602 67.4559 103.715 67.5181 103.795C67.5912 103.887 67.7265 103.905 67.8361 103.868C67.9458 103.832 68.0336 103.751 68.1177 103.667C68.1688 103.616 68.2164 103.561 68.2639 103.51C68.3699 103.386 68.6149 103.002 68.2895 102.976V102.973Z"></path>
<path fill="white" d="M75.3495 101.656C75.3385 101.722 75.3568 101.792 75.3787 101.854C75.4482 102.048 75.5579 102.227 75.7005 102.377C75.7407 102.421 75.7845 102.461 75.8357 102.483C75.8869 102.505 75.9527 102.516 76.0039 102.494C76.0734 102.461 76.1136 102.38 76.1136 102.304C76.1136 102.227 76.0843 102.15 76.0478 102.081C75.96 101.912 75.8467 101.759 75.7078 101.631C75.6566 101.583 75.5652 101.496 75.4884 101.503C75.4153 101.507 75.3604 101.591 75.3495 101.656Z"></path>
<path fill="white" d="M73.0241 105.393C72.9949 105.524 72.9802 105.671 73.0351 105.795C73.0899 105.919 73.2252 106.018 73.3568 105.992C73.4775 105.967 73.5579 105.854 73.6127 105.74C73.748 105.455 73.7919 105.13 73.737 104.819C73.7224 104.735 73.6968 104.647 73.6274 104.6C73.4738 104.483 73.3422 104.72 73.2727 104.823C73.1557 104.994 73.068 105.192 73.0205 105.397L73.0241 105.393Z"></path>
<path fill="#FFED9A" d="M77.4809 88.1512C77.4809 88.1512 77.5832 88.8678 76.7789 90.3887C75.9746 91.9096 74.3257 92.9662 73.0351 93.7852C71.8615 94.531 62.864 97.6935 56.0235 90.7543C48.843 83.4678 54.0456 74.4301 56.6377 72.1633C56.6377 72.1633 57.252 71.2676 58.6413 72.4046L77.4809 88.1476V88.1512Z"></path>
<path fill="white" d="M58.3489 72.2657L77.2251 87.6284C77.2251 87.6284 77.5541 87.877 77.4627 88.217C77.3713 88.5571 77.013 88.8459 76.7132 89.0652C76.4134 89.2846 66.9808 97.4413 57.7347 89.972C57.7347 89.972 55.1206 87.8734 54.3821 83.8188C53.6289 79.6875 55.1791 74.3058 57.9577 72.2547C58.0747 72.167 58.2355 72.1743 58.3452 72.2657H58.3489Z"></path>
<path fill="white" d="M53.0843 79.9105C52.8942 80.9525 52.7808 82.0237 52.9051 83.0767C52.938 83.3436 52.9856 83.6105 53.0989 83.8554C53.1757 84.0236 53.3329 84.1991 53.512 84.1552C53.6839 84.1113 53.746 83.9029 53.768 83.7275C53.863 82.9231 53.7533 82.0969 53.7131 81.2925C53.6729 80.4809 53.7314 79.6692 53.8886 78.8722C53.9361 78.6419 53.9873 78.4116 54.0495 78.1849C54.1043 77.9801 54.1701 77.7754 54.1665 77.5634C54.1665 77.5049 54.1555 77.439 54.1153 77.3988C53.9252 77.2087 53.5961 78.0898 53.5449 78.2105C53.3219 78.7589 53.1867 79.3365 53.0806 79.9178L53.0843 79.9105Z"></path>
<path fill="white" d="M53.494 85.2154C53.4465 85.3653 53.472 85.5298 53.5123 85.6797C53.5525 85.8259 53.6073 85.9722 53.7243 86.0709C53.8413 86.1659 54.0278 86.1879 54.1338 86.0819C54.1667 86.0489 54.1886 86.0051 54.2069 85.9612C54.28 85.7821 54.2873 85.581 54.2288 85.3982C54.1192 85.0618 53.6548 84.6852 53.4903 85.2154H53.494Z"></path>
<path fill="#FFED9A" d="M68.6665 81.9104C68.6665 81.9104 73.6607 85.7749 75.1048 87.464C76.5453 89.1531 71.4305 90.9628 71.4305 90.9628C71.4305 90.9628 69.3538 91.8805 69.1235 90.4839C68.8493 88.8204 68.1254 84.5245 68.1144 82.3419C68.1144 82.3419 68.0413 81.4023 68.6665 81.9141V81.9104Z"></path>
<path fill="#FFED9A" d="M67.3795 81.9616L67.8183 90.3888C67.8183 90.3888 67.9828 91.6319 67.1638 91.95C66.3485 92.268 63.3579 92.0304 61.1533 90.7873C61.1533 90.7873 60.0016 90.228 60.9303 88.941C61.8589 87.6541 66.1255 81.8593 66.1255 81.8593C66.1255 81.8593 66.6959 81.0769 67.0432 81.1244C67.3357 81.1646 67.3795 81.9616 67.3795 81.9616Z"></path>
<path fill="#FFED9A" d="M59.252 74.1778L65.2407 78.9819C65.471 79.1647 65.3576 79.534 65.0652 79.5595L56.85 80.32C56.85 80.32 55.0878 80.4004 55.3474 78.6273C55.607 76.8504 56.5904 75.154 57.201 74.3241C58.0785 73.1249 59.2484 74.1742 59.2484 74.1742L59.252 74.1778Z"></path>
<path fill="#FFED9A" d="M56.9928 81.2999L65.5882 80.1117C65.9501 80.0605 66.1914 80.4809 65.9574 80.7661C64.2829 82.8354 59.9249 88.2171 59.9176 88.1952C59.9067 88.166 58.6819 89.8587 57.1829 87.8881C55.6839 85.9175 55.4243 83.8409 55.417 82.8281C55.4097 81.5631 56.4407 81.373 56.9891 81.2962L56.9928 81.2999Z"></path>
<path fill="white" d="M69.3464 93.394C69.4963 93.5549 69.7376 93.3209 69.606 93.1564C69.4743 92.9918 69.1928 93.2258 69.3464 93.394Z"></path>
<path fill="white" d="M69.7048 94.0521C69.8949 94.1472 70.0558 93.851 69.873 93.7487C69.6755 93.6353 69.5 93.9497 69.7048 94.0521Z"></path>
<path fill="white" d="M70.6407 93.5548C70.6699 93.5767 70.7028 93.5877 70.7357 93.5914C70.9441 93.606 71.0063 93.3391 70.8089 93.266C70.6261 93.2002 70.4689 93.4305 70.637 93.5548H70.6407Z"></path>
<path fill="white" d="M71.3863 93.1746C71.3607 93.244 71.3863 93.3245 71.4485 93.3683C71.5106 93.4122 71.5947 93.4086 71.6532 93.3683C71.8872 93.1965 71.4887 92.8931 71.3863 93.1782V93.1746Z"></path>
<path fill="white" d="M72.1653 93.4414C72.1324 93.5109 72.1653 93.606 72.2275 93.6462C72.3079 93.6974 72.4322 93.6645 72.4761 93.5804C72.5858 93.3647 72.2531 93.2404 72.1617 93.4414H72.1653Z"></path>
<path fill="white" d="M70.1245 85.9649C70.1099 86.0161 70.1099 86.0673 70.1099 86.1221C70.1245 86.4402 70.2378 86.751 70.4316 87.0032C70.5011 87.0983 70.5961 87.1897 70.7131 87.1897C70.852 87.1897 70.9654 87.0581 70.9837 86.9191C71.0019 86.7802 70.9471 86.6449 70.8813 86.5206C70.7789 86.3305 70.6546 86.155 70.5047 86.0015C70.395 85.8881 70.2013 85.7309 70.1281 85.9649H70.1245Z"></path>
<path fill="white" d="M58.184 82.6416C58.1548 82.6233 58.1219 82.6123 58.0853 82.6013C57.8769 82.5502 57.6575 82.5648 57.4565 82.6379C57.3833 82.6672 57.3066 82.7074 57.281 82.7842C57.2517 82.8719 57.3175 82.9706 57.4053 83.0108C57.493 83.051 57.5881 83.0401 57.6831 83.0218C57.8257 82.9925 57.961 82.945 58.089 82.8792C58.184 82.8317 58.3229 82.7366 58.184 82.6416Z"></path>
<path fill="white" d="M65.7667 86.9228C65.6388 87.0069 65.5766 87.1568 65.5328 87.303C65.5108 87.3761 65.4889 87.4529 65.4743 87.5297C65.4523 87.6284 65.4414 87.7308 65.467 87.8295C65.4925 87.9282 65.562 88.0196 65.6607 88.0415C65.7741 88.0671 65.8911 88.0013 65.9569 87.9026C66.0227 87.8039 66.041 87.6869 66.0556 87.5699C66.0629 87.4968 66.0702 87.4273 66.0739 87.3542C66.0812 87.1933 66.041 86.74 65.7667 86.9191V86.9228Z"></path>
<path fill="white" d="M61.1087 77.991C61.0502 77.8521 60.9113 77.7607 60.7797 77.6912C60.7102 77.6546 60.6407 77.6217 60.5676 77.5925C60.4726 77.5523 60.3738 77.523 60.2751 77.5267C60.1764 77.5303 60.0704 77.5852 60.0302 77.6766C59.9826 77.7826 60.0302 77.9142 60.1106 77.9947C60.191 78.0751 60.308 78.119 60.4177 78.1519C60.4872 78.1738 60.5566 78.1921 60.6261 78.2104C60.7833 78.2506 61.2367 78.2944 61.1124 77.991H61.1087Z"></path>
<path fill="white" d="M65.4703 83.6945C65.4045 83.7165 65.3533 83.764 65.3058 83.8115C65.1632 83.9614 65.0535 84.1406 64.9841 84.3343C64.9658 84.3892 64.9475 84.4477 64.9512 84.5062C64.9548 84.5646 64.9731 84.6232 65.0206 84.6597C65.0791 84.7072 65.1705 84.7072 65.24 84.6707C65.3094 84.6341 65.3606 84.5756 65.4082 84.5098C65.5178 84.3563 65.6019 84.1844 65.6568 84.0016C65.6751 83.9322 65.7116 83.8115 65.6714 83.7457C65.6348 83.6835 65.5361 83.6726 65.474 83.6909L65.4703 83.6945Z"></path>
<path fill="white" d="M61.0867 83.3068C60.9551 83.3397 60.8198 83.3946 60.732 83.497C60.6443 83.5993 60.6187 83.7675 60.7028 83.8735C60.7796 83.9686 60.9185 83.9905 61.0428 83.9869C61.3572 83.9795 61.6716 83.8699 61.9203 83.6834C61.9861 83.6322 62.0555 83.5701 62.0702 83.486C62.1031 83.2959 61.8362 83.2886 61.7119 83.2703C61.5035 83.241 61.2914 83.2557 61.0867 83.3068Z"></path>
<path fill="white" d="M53.3694 106.004C52.8868 105.547 52.5395 104.969 52.2068 104.395C50.9966 102.318 49.8779 100.191 48.8468 98.0189C47.1614 94.4652 45.6917 90.6154 46.0683 86.6997C46.1304 86.0636 46.2437 85.4165 46.5691 84.8644C46.8945 84.3124 47.4685 83.8736 48.1083 83.859C48.7664 83.8444 49.3697 84.2758 49.7206 84.8315C50.0716 85.3872 50.2106 86.0453 50.3056 86.6961C50.5688 88.5095 50.5396 90.3521 50.7772 92.1655C51.2964 96.1835 53.0806 99.9237 54.989 103.496C55.351 104.172 55.7275 104.874 55.7751 105.638C55.8811 107.287 54.1079 106.702 53.3694 106V106.004Z"></path>
<path fill="white" d="M56.1809 109.718C56.3417 110.066 56.6123 110.347 56.8975 110.603C57.0145 110.709 57.1388 110.811 57.285 110.874C57.4312 110.936 57.6067 110.947 57.7457 110.87C57.8809 110.793 57.965 110.64 57.9833 110.486C58.0016 110.333 57.976 110.175 57.9321 110.022C57.7676 109.455 57.3435 108.76 56.7914 108.49C56.0419 108.121 55.9542 109.221 56.1845 109.718H56.1809Z"></path>
<path fill="#004600" d="M84.7015 90.6152C84.7015 90.6152 73.4262 105.276 86.014 119.381L92.8654 116.222L84.7015 90.6116V90.6152Z"></path>
<path fill="#FFED9A" d="M117.767 110.745C117.767 110.745 117.917 111.795 116.739 114.014C115.562 116.233 113.16 117.776 111.274 118.975C109.559 120.061 96.4227 124.679 86.4417 114.551C75.9598 103.916 83.5534 90.7213 87.3374 87.4125C87.3374 87.4125 88.2368 86.1037 90.2623 87.7635L117.767 110.745Z"></path>
<path fill="white" d="M89.8419 87.5551L117.398 109.981C117.398 109.981 117.88 110.343 117.745 110.84C117.61 111.338 117.09 111.758 116.652 112.076C116.213 112.394 102.441 124.306 88.9462 113.403C88.9462 113.403 85.1293 110.336 84.0508 104.42C82.9503 98.388 85.2134 90.5348 89.2716 87.5405C89.4434 87.4162 89.6774 87.4235 89.8383 87.5551H89.8419Z"></path>
<path fill="white" d="M82.1531 98.7096C81.8752 100.234 81.7107 101.792 81.8935 103.331C81.9411 103.718 82.0105 104.11 82.175 104.464C82.2884 104.709 82.5187 104.965 82.7819 104.899C83.0342 104.837 83.1256 104.534 83.1549 104.274C83.2938 103.101 83.1329 101.894 83.0744 100.717C83.0159 99.5359 83.1 98.344 83.3303 97.1851C83.3962 96.8487 83.4766 96.5124 83.568 96.1833C83.6484 95.8835 83.7435 95.5837 83.7362 95.2766C83.7362 95.1889 83.7215 95.0938 83.6594 95.0353C83.3815 94.7575 82.9026 96.0407 82.8295 96.2199C82.5041 97.0169 82.3103 97.8651 82.1531 98.7096Z"></path>
<path fill="white" d="M82.7525 106.457C82.6831 106.676 82.7233 106.914 82.7818 107.137C82.8366 107.349 82.9207 107.565 83.0889 107.707C83.2571 107.846 83.5313 107.879 83.6885 107.725C83.736 107.674 83.7726 107.612 83.7981 107.546C83.9042 107.287 83.9151 106.991 83.8311 106.724C83.6702 106.234 82.9938 105.685 82.7562 106.46L82.7525 106.457Z"></path>
<path fill="#FFED9A" d="M104.901 101.635C104.901 101.635 112.195 107.272 114.301 109.74C116.407 112.208 108.938 114.847 108.938 114.847C108.938 114.847 105.907 116.189 105.57 114.149C105.172 111.718 104.115 105.451 104.097 102.263C104.097 102.263 103.991 100.892 104.901 101.638V101.635Z"></path>
<path fill="#FFED9A" d="M103.022 101.708L103.662 114.01C103.662 114.01 103.899 115.827 102.708 116.288C101.516 116.749 97.1504 116.409 93.933 114.592C93.933 114.592 92.2512 113.773 93.604 111.897C94.9567 110.021 101.187 101.561 101.187 101.561C101.187 101.561 102.02 100.417 102.528 100.49C102.956 100.549 103.018 101.711 103.018 101.711L103.022 101.708Z"></path>
<path fill="#FFED9A" d="M91.1581 90.3447L99.9034 97.357C100.236 97.6239 100.075 98.165 99.6511 98.2015L87.6629 99.313C87.6629 99.313 85.0927 99.4336 85.4693 96.8415C85.8459 94.2494 87.2827 91.7742 88.1711 90.5567C89.4508 88.8055 91.1618 90.341 91.1618 90.341L91.1581 90.3447Z"></path>
<path fill="#FFED9A" d="M87.8606 100.739L100.412 99.006C100.942 98.9329 101.289 99.5471 100.953 99.9639C98.5106 102.984 92.1491 110.844 92.1345 110.808C92.1199 110.764 90.332 113.235 88.1421 110.362C85.9521 107.488 85.5755 104.453 85.5646 102.973C85.5499 101.126 87.0599 100.849 87.8569 100.739H87.8606Z"></path>
<path fill="white" d="M105.895 118.394C106.115 118.628 106.466 118.284 106.272 118.047C106.067 117.798 105.669 118.149 105.895 118.394Z"></path>
<path fill="white" d="M106.418 119.355C106.696 119.494 106.934 119.063 106.663 118.909C106.374 118.745 106.115 119.205 106.418 119.355Z"></path>
<path fill="white" d="M107.782 118.632C107.822 118.661 107.873 118.679 107.921 118.683C108.224 118.705 108.315 118.314 108.03 118.211C107.763 118.112 107.533 118.449 107.782 118.632Z"></path>
<path fill="white" d="M108.875 118.076C108.838 118.175 108.875 118.295 108.966 118.357C109.058 118.419 109.178 118.416 109.262 118.354C109.602 118.101 109.025 117.659 108.875 118.076Z"></path>
<path fill="white" d="M110.005 118.467C109.957 118.569 110.005 118.705 110.096 118.767C110.217 118.844 110.396 118.796 110.462 118.668C110.622 118.354 110.136 118.171 110.005 118.467Z"></path>
<path fill="white" d="M107.029 107.55C107.007 107.623 107.007 107.704 107.011 107.78C107.033 108.241 107.201 108.698 107.479 109.067C107.581 109.203 107.72 109.338 107.892 109.342C108.096 109.345 108.261 109.148 108.287 108.947C108.312 108.746 108.232 108.545 108.137 108.365C107.99 108.088 107.804 107.832 107.585 107.609C107.424 107.444 107.142 107.21 107.033 107.554L107.029 107.55Z"></path>
<path fill="white" d="M89.6004 102.699C89.5566 102.669 89.5054 102.655 89.4578 102.644C89.1544 102.571 88.8327 102.589 88.5402 102.699C88.4341 102.739 88.3208 102.801 88.2843 102.911C88.244 103.042 88.3391 103.185 88.4634 103.24C88.5877 103.295 88.7339 103.28 88.8656 103.254C89.0703 103.214 89.2714 103.141 89.4578 103.046C89.5931 102.973 89.7979 102.837 89.6004 102.702V102.699Z"></path>
<path fill="white" d="M100.671 108.947C100.484 109.067 100.393 109.291 100.331 109.503C100.298 109.612 100.269 109.722 100.247 109.832C100.217 109.974 100.199 110.128 100.236 110.27C100.272 110.413 100.378 110.545 100.521 110.581C100.685 110.621 100.861 110.519 100.952 110.38C101.044 110.241 101.077 110.066 101.095 109.897C101.106 109.795 101.117 109.689 101.12 109.583C101.131 109.345 101.069 108.684 100.674 108.947H100.671Z"></path>
<path fill="white" d="M93.8672 95.9093C93.7832 95.7045 93.5821 95.5729 93.3846 95.4706C93.2823 95.4157 93.1799 95.3682 93.0775 95.3243C92.9423 95.2695 92.796 95.2219 92.6498 95.2293C92.5035 95.2366 92.3536 95.317 92.2915 95.4486C92.222 95.6022 92.2878 95.7923 92.4085 95.9129C92.5291 96.0336 92.6936 96.0921 92.8545 96.1433C92.9532 96.1762 93.0556 96.2018 93.158 96.2274C93.3883 96.2822 94.05 96.348 93.8672 95.9093Z"></path>
<path fill="white" d="M100.24 104.238C100.145 104.267 100.068 104.337 99.9984 104.41C99.79 104.629 99.6291 104.889 99.5268 105.174C99.4975 105.254 99.4756 105.338 99.4756 105.422C99.4756 105.506 99.5085 105.594 99.5743 105.649C99.662 105.722 99.7937 105.718 99.896 105.667C99.9984 105.616 100.075 105.528 100.141 105.433C100.302 105.21 100.426 104.958 100.503 104.691C100.532 104.592 100.583 104.417 100.525 104.318C100.47 104.227 100.327 104.212 100.236 104.238H100.24Z"></path>
<path fill="white" d="M93.8376 103.671C93.6439 103.719 93.4501 103.799 93.3185 103.949C93.1869 104.099 93.1503 104.344 93.2746 104.497C93.388 104.636 93.589 104.666 93.7682 104.662C94.2288 104.651 94.6859 104.494 95.0515 104.216C95.1502 104.143 95.2452 104.051 95.2672 103.931C95.3147 103.653 94.9235 103.642 94.7443 103.616C94.4409 103.576 94.1301 103.594 93.834 103.668L93.8376 103.671Z"></path>
<path fill="#004600" d="M48.6308 46.41C48.6308 46.41 51.8811 44.1432 56.4548 44.3333C61.0285 44.5235 64.052 46.527 68.4356 48.9071C72.8192 51.2871 75.1628 52.724 83.5497 52.044C91.9404 51.3639 90.127 54.3509 87.48 55.2174C84.833 56.0875 76.0658 56.5007 68.209 52.044C60.3485 47.5836 59.6319 46.1102 53.7749 46.3771C53.7749 46.3771 51.0548 46.527 49.3145 47.2289C47.5742 47.9309 47.4828 47.2472 48.6345 46.4173L48.6308 46.41Z"></path>
<path fill="#004600" d="M50.5065 48.9326C52.7915 48.344 55.2118 48.0588 57.5407 48.5963C59.3358 49.0314 61.0103 49.9088 62.4947 50.9837C62.5678 51.0385 62.5861 51.1446 62.5312 51.2177C62.4801 51.2871 62.3886 51.3054 62.3155 51.2652C60.5314 50.3183 58.6595 49.4518 56.6487 49.1849C54.6305 48.918 52.5941 49.2142 50.554 49.2617C50.3603 49.2653 50.3164 48.9802 50.5065 48.9326Z"></path>
<path fill="#004600" d="M57.3726 50.9838C59.5078 51.1044 61.4272 52.2086 63.1565 53.3748C63.2662 53.4992 63.1565 53.6893 62.9956 53.66C62.7726 53.6381 62.7105 53.3054 62.9627 53.2834C63.0541 53.2834 63.1309 53.3566 63.1309 53.448C63.1309 53.4187 63.1163 53.3858 63.1017 53.3675C63.0505 53.3054 62.9737 53.32 62.9116 53.3675C62.8348 53.4333 62.8457 53.5723 62.9262 53.6198C62.9189 53.6161 62.9006 53.6052 62.8896 53.5979C62.4984 53.3602 62.0707 53.1116 61.6685 52.8959C60.3414 52.1757 58.857 51.5761 57.347 51.5578C56.9632 51.5432 56.9741 50.9692 57.3653 50.9801L57.3726 50.9838Z"></path>
<path fill="#004600" d="M87.2643 57.6487C82.5115 58.8918 77.5393 57.6085 73.1008 55.8572C72.907 55.7768 73.0021 55.477 73.2142 55.5428C76.5631 56.6981 80.051 57.5939 83.601 57.3781C84.7636 57.3087 85.9189 57.1149 87.0194 56.7786C87.6007 56.6213 87.8457 57.4695 87.2643 57.645V57.6487Z"></path>
<path fill="#004600" d="M82.5665 60.0508C81.1297 60.0142 79.7002 59.7583 78.3511 59.2903C78.2634 59.2611 78.2158 59.166 78.2488 59.0783C78.278 58.9942 78.3694 58.9467 78.4535 58.9723C79.7916 59.3635 81.1846 59.5463 82.5702 59.517C82.9285 59.517 82.9285 60.0471 82.5702 60.0508H82.5665Z"></path>
<path fill="#FDB515" d="M72.2894 34.8459L65.5622 36.0159L62.312 37.226C62.312 37.226 66.0156 38.3594 66.6591 42.063C66.6591 42.063 70.4869 38.6775 75.982 36.3486C73.7774 35.4529 72.2894 34.8459 72.2894 34.8459Z"></path>
<path fill="#FDB515" d="M94.5839 43.6424C94.5839 43.6789 94.2512 43.5766 93.6699 43.3718L97.1139 52.2706C97.1139 52.2706 98.3241 49.7772 100.287 50.6474C100.287 50.6474 94.5803 43.3353 94.5803 43.646L94.5839 43.6424Z"></path>
<path fill="#FDB515" d="M87.1109 40.8272C85.25 40.0887 83.2355 39.2807 81.3087 38.502L76.2378 46.7098C76.2378 46.7098 82.5664 47.5397 87.5167 50.4134C87.5167 50.4134 87.7799 45.3168 87.1109 40.8272Z"></path>
<path fill="#004600" d="M75.9821 36.3486C70.4871 38.6812 66.6592 42.063 66.6592 42.063C66.6592 42.063 71.7594 42.1764 76.238 46.7099L81.309 38.502C79.3603 37.716 77.4994 36.9628 75.9821 36.345V36.3486Z"></path>
<path fill="#004600" d="M87.1111 40.8274C87.7801 45.317 87.5169 50.4135 87.5169 50.4135C87.5169 50.4135 93.0704 50.037 97.114 52.2635L93.67 43.3647C92.3977 42.9113 89.9299 41.9461 87.1074 40.8237L87.1111 40.8274Z"></path>
<path fill="#004600" d="M82.3107 39.7378L70.7832 68.5548L71.9093 68.8948L83.2759 40.1034L82.3107 39.7378Z"></path>
<path fill="#004600" d="M85.0194 33.79L85.016 33.7887C84.8551 33.729 84.6762 33.8111 84.6166 33.9721L84.2417 34.9833C84.182 35.1443 84.2641 35.3231 84.4251 35.3827L84.4285 35.384C84.5894 35.4437 84.7682 35.3616 84.8279 35.2006L85.2028 34.1894C85.2624 34.0284 85.1804 33.8496 85.0194 33.79Z"></path>
<path fill="#62BB46" d="M62.312 37.2261C62.312 37.2261 64.7579 35.8295 71.028 36.7033C74.3806 34.3707 76.2379 33.5591 76.2379 33.5591C76.2379 33.5591 68.5492 33.0692 62.312 37.2261Z"></path>
<path fill="#62BB46" d="M100.291 50.6438C100.291 50.6438 98.781 45.9384 95.9073 42.3665C93.0337 38.7945 88.3101 36.6411 88.3101 36.6411C88.3101 36.6411 89.2424 38.7726 89.5275 42.8089C98.4373 47.1632 100.291 50.6438 100.291 50.6438Z"></path>
<path fill="white" d="M86.0798 35.186C84.3614 35.4493 82.2629 34.3159 81.5463 33.8077C80.8297 33.2958 78.8262 32.2831 76.2377 33.5627C76.2377 33.5627 74.3804 34.3744 71.0278 36.7069C73.9783 37.1201 77.7769 38.0341 82.57 39.8365C85.2681 40.8529 87.5678 41.851 89.5311 42.8125C89.2496 38.7763 88.3136 36.6448 88.3136 36.6448C88.3136 36.6448 87.8018 34.9264 86.0834 35.1897L86.0798 35.186Z"></path>
<path fill="#62BB46" d="M88.6829 77.2488C88.7268 77.0806 88.756 76.9124 88.7706 76.7442C88.9059 75.2197 88.4635 73.6768 87.6665 72.3826C87.4837 72.0828 87.279 71.7976 87.0596 71.5234C86.8403 71.2492 86.6501 70.975 86.3686 70.7812C86.354 70.7703 86.3394 70.7629 86.3247 70.7629C86.3065 70.7629 86.2882 70.7776 86.2736 70.7922C86.2151 70.8543 86.1968 70.9421 86.1968 71.0298C86.1968 71.1176 86.2004 71.2017 86.1858 71.2821C85.7288 70.7374 85.206 70.2438 84.6905 69.7575C84.5735 69.6479 84.4565 69.5345 84.3395 69.4248C83.9629 69.0702 83.5827 68.7082 83.1257 68.4633C83.038 68.4158 82.9173 68.3755 82.8478 68.4487C82.8003 68.4962 82.8003 68.5766 82.8076 68.6461C82.8296 68.7996 82.8734 68.9532 82.9393 69.0958C82.1678 68.5547 81.3123 68.0246 80.5007 67.5456C80.2959 67.425 80.0948 67.3043 79.8791 67.2056C79.6525 67.0996 79.4185 67.2275 79.5574 67.4798C78.8591 67.1179 78.095 66.7449 77.3894 66.394C77.0311 66.2148 76.6655 66.0357 76.2743 65.9589C76.1902 65.9406 76.139 65.9808 76.1536 66.0649C76.1682 66.16 76.1902 66.2514 76.2267 66.3391C75.8246 66.1125 75.4041 65.9223 75.0056 65.681C74.6071 65.4397 74.2196 65.1802 73.8467 64.9023C73.6273 64.7378 73.4079 64.5623 73.1557 64.449C73.1301 64.438 73.1045 64.427 73.0789 64.4343C73.0314 64.4453 73.0167 64.5074 73.0167 64.555C73.0167 64.6318 73.0277 64.7012 73.035 64.7743C73.0423 64.8328 73.0533 64.8511 72.9838 64.8292C72.9509 64.8182 72.9217 64.8072 72.8888 64.7963C72.7608 64.7487 72.6402 64.6903 72.5195 64.6208C72.3477 64.5221 72.1722 64.427 72.0077 64.3173C71.6457 64.0797 71.3094 63.7982 70.9949 63.4984C70.6805 63.1986 70.399 62.8695 70.1285 62.5332C70.0407 62.4235 69.9237 62.2992 69.7848 62.3358C69.6385 62.3723 69.602 62.5515 69.6093 62.6794C69.3643 62.5295 69.0792 62.3284 68.8744 62.1274C68.2419 61.4985 67.8617 60.6723 67.4413 59.8862C67.3901 59.7911 67.3352 59.6888 67.2511 59.6193C66.9587 59.3744 66.7393 59.6303 66.6333 59.9045C66.4029 60.5041 66.3152 61.1256 66.1763 61.7471C65.9862 62.599 65.8399 63.4838 65.8874 64.3576C65.7851 64.2515 65.6498 64.1492 65.5109 64.204C65.3646 64.2625 65.35 64.4563 65.3537 64.6098C65.3756 65.1875 65.4048 65.7688 65.4597 66.3428C65.5109 66.8802 65.6425 67.414 65.679 67.9478C65.6023 67.8674 65.5365 67.7686 65.4377 67.7101C65.3683 67.6699 65.2659 67.6699 65.222 67.7357C65.2074 67.7613 65.2038 67.7869 65.2001 67.8162C65.1964 67.8783 65.2001 67.9405 65.2111 68.0026C65.3281 68.9422 65.6498 69.8599 66.147 70.6642C66.0337 70.6386 65.9459 70.6642 65.8289 70.6715C65.7814 70.6715 65.7339 70.6825 65.701 70.7154C65.6754 70.7447 65.6681 70.7849 65.6644 70.8251C65.6644 70.9384 65.701 71.0481 65.7449 71.1541C65.935 71.6185 66.1616 72.0682 66.4212 72.4959C66.6845 72.931 67.0208 73.3076 67.3023 73.7243C67.2219 73.7572 67.1488 73.7682 67.0683 73.8048C67.0025 73.834 66.9331 73.8669 66.9111 73.9364C66.9002 73.9766 66.9111 74.0241 66.9184 74.0644C67.0062 74.3788 67.189 74.6566 67.3791 74.9199C67.8178 75.5231 68.326 76.0788 68.8927 76.5651C68.9476 76.6126 68.9695 76.6163 69.028 76.6602C68.9 76.6967 68.7794 76.7625 68.6807 76.8503C68.6587 76.8685 68.6368 76.8941 68.6295 76.9197C68.6222 76.949 68.6368 76.9819 68.6478 77.0075C68.8269 77.3767 69.1888 77.6217 69.5325 77.8447C70.1175 78.2249 70.6988 78.6052 71.2838 78.9854C71.1997 79.0439 71.1046 79.0622 71.0352 79.1353C71.0059 79.1682 70.973 79.2048 70.973 79.2523C70.973 79.2998 71.0059 79.34 71.0388 79.3729C71.1777 79.5119 71.3386 79.6289 71.4995 79.7422C72.3989 80.371 73.4299 80.9231 74.5413 81.0218C74.4426 81.0767 74.3804 81.1498 74.3146 81.2412C74.289 81.2741 74.2671 81.3143 74.2744 81.3545C74.2817 81.4094 74.3366 81.4423 74.3878 81.4679C75.4078 81.9687 76.585 82.1406 77.7074 81.9578C77.6453 82.0492 77.6051 82.1479 77.5978 82.2576C77.5978 82.2905 77.5978 82.327 77.6124 82.3599C77.6489 82.4294 77.7477 82.4404 77.8281 82.4404C78.4642 82.4367 79.0967 82.3819 79.7219 82.2795C80.3288 82.1808 80.9138 81.998 81.517 81.881C81.5244 81.881 81.5353 81.8737 81.5353 81.8664C81.5353 81.8591 81.517 81.8627 81.5244 81.8664C81.5134 81.9907 81.5134 82.1113 81.4988 82.2356C81.4988 82.2722 81.4951 82.3124 81.5207 82.3343C81.5463 82.3563 81.5829 82.3526 81.6158 82.3453C82.8479 82.1186 84.1604 81.6141 85.1438 80.828C85.1877 80.8975 85.1183 80.9926 85.1292 81.0767C85.1914 81.4861 86.0213 80.9121 86.1602 80.8098C86.8256 80.3308 87.3996 79.7203 87.842 79.0293C88.1711 78.5174 88.5001 77.8886 88.661 77.2671L88.6829 77.2488Z"></path>
<mask height="24" width="24" y="59" x="65" maskUnits="userSpaceOnUse" style="mask-type:luminance" id="mask0_8_23220">
<path fill="white" d="M88.6829 77.2488C88.7268 77.0806 88.756 76.9124 88.7706 76.7442C88.9059 75.2197 88.4635 73.6768 87.6665 72.3826C87.4837 72.0828 87.279 71.7976 87.0596 71.5234C86.8403 71.2492 86.6501 70.975 86.3686 70.7812C86.354 70.7703 86.3394 70.7629 86.3247 70.7629C86.3065 70.7629 86.2882 70.7776 86.2736 70.7922C86.2151 70.8543 86.1968 70.9421 86.1968 71.0298C86.1968 71.1176 86.2004 71.2017 86.1858 71.2821C85.7288 70.7374 85.206 70.2438 84.6905 69.7575C84.5735 69.6479 84.4565 69.5345 84.3395 69.4248C83.9629 69.0702 83.5827 68.7082 83.1257 68.4633C83.038 68.4158 82.9173 68.3755 82.8478 68.4487C82.8003 68.4962 82.8003 68.5766 82.8076 68.6461C82.8296 68.7996 82.8734 68.9532 82.9393 69.0958C82.1678 68.5547 81.3123 68.0246 80.5007 67.5456C80.2959 67.425 80.0948 67.3043 79.8791 67.2056C79.6525 67.0996 79.4185 67.2275 79.5574 67.4798C78.8591 67.1179 78.095 66.7449 77.3894 66.394C77.0311 66.2148 76.6655 66.0357 76.2743 65.9589C76.1902 65.9406 76.139 65.9808 76.1536 66.0649C76.1682 66.16 76.1902 66.2514 76.2267 66.3391C75.8246 66.1125 75.4041 65.9223 75.0056 65.681C74.6071 65.4397 74.2196 65.1802 73.8467 64.9023C73.6273 64.7378 73.4079 64.5623 73.1557 64.449C73.1301 64.438 73.1045 64.427 73.0789 64.4343C73.0314 64.4453 73.0167 64.5074 73.0167 64.555C73.0167 64.6318 73.0277 64.7012 73.035 64.7743C73.0423 64.8328 73.0533 64.8511 72.9838 64.8292C72.9509 64.8182 72.9217 64.8072 72.8888 64.7963C72.7608 64.7487 72.6402 64.6903 72.5195 64.6208C72.3477 64.5221 72.1722 64.427 72.0077 64.3173C71.6457 64.0797 71.3094 63.7982 70.9949 63.4984C70.6805 63.1986 70.399 62.8695 70.1285 62.5332C70.0407 62.4235 69.9237 62.2992 69.7848 62.3358C69.6385 62.3723 69.602 62.5515 69.6093 62.6794C69.3643 62.5295 69.0792 62.3284 68.8744 62.1274C68.2419 61.4985 67.8617 60.6723 67.4413 59.8862C67.3901 59.7911 67.3352 59.6888 67.2511 59.6193C66.9587 59.3744 66.7393 59.6303 66.6333 59.9045C66.4029 60.5041 66.3152 61.1256 66.1763 61.7471C65.9862 62.599 65.8399 63.4838 65.8874 64.3576C65.7851 64.2515 65.6498 64.1492 65.5109 64.204C65.3646 64.2625 65.35 64.4563 65.3537 64.6098C65.3756 65.1875 65.4048 65.7688 65.4597 66.3428C65.5109 66.8802 65.6425 67.414 65.679 67.9478C65.6023 67.8674 65.5365 67.7686 65.4377 67.7101C65.3683 67.6699 65.2659 67.6699 65.222 67.7357C65.2074 67.7613 65.2038 67.7869 65.2001 67.8162C65.1964 67.8783 65.2001 67.9405 65.2111 68.0026C65.3281 68.9422 65.6498 69.8599 66.147 70.6642C66.0337 70.6386 65.9459 70.6642 65.8289 70.6715C65.7814 70.6715 65.7339 70.6825 65.701 70.7154C65.6754 70.7447 65.6681 70.7849 65.6644 70.8251C65.6644 70.9384 65.701 71.0481 65.7449 71.1541C65.935 71.6185 66.1616 72.0682 66.4212 72.4959C66.6845 72.931 67.0208 73.3076 67.3023 73.7243C67.2219 73.7572 67.1488 73.7682 67.0683 73.8048C67.0025 73.834 66.9331 73.8669 66.9111 73.9364C66.9002 73.9766 66.9111 74.0241 66.9184 74.0644C67.0062 74.3788 67.189 74.6566 67.3791 74.9199C67.8178 75.5231 68.326 76.0788 68.8927 76.5651C68.9476 76.6126 68.9695 76.6163 69.028 76.6602C68.9 76.6967 68.7794 76.7625 68.6807 76.8503C68.6587 76.8685 68.6368 76.8941 68.6295 76.9197C68.6222 76.949 68.6368 76.9819 68.6478 77.0075C68.8269 77.3767 69.1888 77.6217 69.5325 77.8447C70.1175 78.2249 70.6988 78.6052 71.2838 78.9854C71.1997 79.0439 71.1046 79.0622 71.0352 79.1353C71.0059 79.1682 70.973 79.2048 70.973 79.2523C70.973 79.2998 71.0059 79.34 71.0388 79.3729C71.1777 79.5119 71.3386 79.6289 71.4995 79.7422C72.3989 80.371 73.4299 80.9231 74.5413 81.0218C74.4426 81.0767 74.3804 81.1498 74.3146 81.2412C74.289 81.2741 74.2671 81.3143 74.2744 81.3545C74.2817 81.4094 74.3366 81.4423 74.3878 81.4679C75.4078 81.9687 76.585 82.1406 77.7074 81.9578C77.6453 82.0492 77.6051 82.1479 77.5978 82.2576C77.5978 82.2905 77.5978 82.327 77.6124 82.3599C77.6489 82.4294 77.7477 82.4404 77.8281 82.4404C78.4642 82.4367 79.0967 82.3819 79.7219 82.2795C80.3288 82.1808 80.9138 81.998 81.517 81.881C81.5244 81.881 81.5353 81.8737 81.5353 81.8664C81.5353 81.8591 81.517 81.8627 81.5244 81.8664C81.5134 81.9907 81.5134 82.1113 81.4988 82.2356C81.4988 82.2722 81.4951 82.3124 81.5207 82.3343C81.5463 82.3563 81.5829 82.3526 81.6158 82.3453C82.8479 82.1186 84.1604 81.6141 85.1438 80.828C85.1877 80.8975 85.1183 80.9926 85.1292 81.0767C85.1914 81.4861 86.0213 80.9121 86.1602 80.8098C86.8256 80.3308 87.3996 79.7203 87.842 79.0293C88.1711 78.5174 88.5001 77.8886 88.661 77.2671L88.6829 77.2488Z"></path>
</mask>
<g mask="url(#mask0_8_23220)">
<path fill="#004600" d="M86.7708 65.8383C88.2405 68.6095 90.9643 72.1705 94.9201 76.492C98.6713 80.5868 100.068 85.6687 99.0771 91.5951C98.2033 96.8086 95.4868 102.614 91.2202 108.384C90.2879 109.612 87.5422 113.034 85.908 114.263C85.2353 114.756 81.3087 115.802 75.2799 115.974C72.0808 116.065 68.2566 115.974 67.8032 115.959C60.7763 115.487 57.899 114.643 57.3616 114.263C55.7273 113.034 52.978 109.612 52.0493 108.384C47.7827 102.614 45.0663 96.8086 44.1925 91.5951C43.2017 85.6687 44.5983 80.5868 48.3494 76.492C51.0914 73.494 53.2412 70.8653 54.7914 68.6132C54.7914 68.6132 57.665 67.5858 61.7452 70.2072C65.8217 72.8286 71.569 73.0809 78.1937 68.5181C83.155 65.469 86.7708 65.8383 86.7708 65.8383Z"></path>
</g>
<path fill="white" d="M70.4247 76.2506C70.3882 76.3749 70.4028 76.5065 70.4357 76.6308C70.4942 76.8575 70.6331 77.0732 70.8452 77.1756C71.0572 77.278 71.3424 77.2304 71.4704 77.033C71.591 76.8502 71.5435 76.6052 71.4484 76.4078C71.3753 76.2579 71.2693 76.119 71.1304 76.0276C70.8671 75.8594 70.5198 75.9289 70.4284 76.2506H70.4247Z"></path>
<path fill="white" d="M73.9526 79.8227C74.5339 80.0091 75.1481 80.0786 75.7294 80.2724C76.4314 80.5063 77.0968 80.9231 77.8353 80.9231C78.3179 80.9231 78.7603 80.6964 79.2319 80.7074C79.3782 80.7074 79.5244 80.7074 79.6707 80.7074C80.0107 80.6964 80.3653 80.6635 80.6578 80.4881C80.8698 80.3601 81.0417 80.1517 81.0892 79.9104C81.1367 79.6654 81.0344 79.3912 80.8223 79.2633C80.5554 79.1024 80.113 79.0951 79.8132 79.1134C79.4513 79.1353 79.0893 79.1792 78.7274 79.1975C77.6342 79.256 76.5338 79.0622 75.5064 78.6929C75.3017 78.6198 75.0969 78.5357 74.8959 78.4553C74.7642 78.4005 74.6326 78.3493 74.5047 78.2835C74.3438 78.1994 74.1939 78.1007 74.044 78.0056C73.8502 77.8813 73.6528 77.7643 73.4371 77.6985C73.2141 77.6327 72.7753 77.5778 72.6218 77.7862C72.4938 77.9581 72.4244 78.1738 72.4317 78.3895C72.4573 79.1463 73.3347 79.6252 73.9599 79.8227H73.9526Z"></path>
<path fill="#004600" d="M67.1157 61.5352C67.1157 61.5352 67.123 61.5461 67.1267 61.5534C67.1267 61.5461 67.1194 61.5425 67.1157 61.5352Z"></path>
<path fill="#62BB46" d="M90.6241 77.0806C90.4852 77.088 90.3243 77.088 90.1708 77.0916C87.8382 77.0843 85.502 76.7626 83.2462 76.1703C79.7657 75.2745 76.5008 73.5708 73.8904 71.092C73.8356 71.0408 73.7807 70.9897 73.7259 70.9385L73.0239 71.2017C73.7259 71.9073 74.4608 72.5727 75.2176 73.2052C79.5427 76.6346 85.1986 78.2323 90.6644 78.3273C91.5162 78.2798 91.4541 77.066 90.6278 77.077L90.6241 77.0806Z"></path>
<path fill="#004600" d="M67.712 62.3102C67.6389 62.0945 67.5621 61.8606 67.4963 61.6375C67.4853 61.6046 67.4561 61.4913 67.4451 61.462L67.4342 61.4291V61.4218C67.4195 61.3853 67.3866 61.3414 67.3574 61.3195C67.2806 61.2683 67.1782 61.2902 67.127 61.367C67.0905 61.4182 67.0905 61.484 67.1197 61.5388C67.1197 61.5461 67.127 61.5498 67.1307 61.5571C67.1417 61.5754 67.1563 61.59 67.1746 61.601C67.1563 61.5937 67.1417 61.5754 67.1307 61.5571C67.127 61.5534 67.1234 61.5461 67.1197 61.5388V61.5461L67.127 61.5681L67.1417 61.6229C67.2111 61.8898 67.2879 62.1713 67.372 62.4346C68.4761 65.7835 70.5454 68.7193 73.0316 71.2127L73.7335 70.9495C71.1597 68.5402 68.9185 65.6628 67.7157 62.3212L67.712 62.3102Z"></path>
<path fill="white" d="M79.0676 84.0089C80.0437 83.4459 81.0601 84.305 81.923 84.678C83.2099 85.2373 84.2665 84.0784 85.334 83.5263C85.6375 83.3728 85.9921 83.2521 86.3431 83.296C86.3724 83.2996 86.3943 83.3289 86.3906 83.3581C86.3906 83.3837 86.365 83.4057 86.3395 83.4057C86.0214 83.4459 85.7399 83.5921 85.4766 83.7749C84.3871 84.5793 83.2245 85.7565 81.7548 85.0619C81.1332 84.784 80.6689 84.3197 80.0291 84.1186C79.733 84.0235 79.4149 83.9979 79.1151 84.1113C79.0566 84.1369 79.0054 84.0455 79.0639 84.0126L79.0676 84.0089Z"></path>
<path fill="white" d="M79.5759 84.8497C80.2961 84.762 80.7056 85.5041 81.2979 85.7527C81.8244 86.0233 82.508 86.0123 82.9577 85.6138C83.0967 85.4932 83.2904 85.6906 83.1625 85.8259C82.647 86.3596 81.7732 86.367 81.1626 86.0196C80.7093 85.7966 80.4277 85.3506 80.0146 85.0947C79.883 85.0142 79.7368 84.9667 79.5869 84.9594C79.521 84.9594 79.5137 84.857 79.5795 84.8497H79.5759Z"></path>
<path fill="white" d="M46.441 52.6035C39.7504 53.5285 39.1984 54.2816 38.5147 63.3559C37.831 54.2816 37.2789 53.5321 30.5884 52.6035C37.2789 51.6785 37.831 50.9254 38.5147 41.8511C39.1984 50.9254 39.7504 51.6749 46.441 52.6035Z"></path>
<path fill="white" d="M128.285 94.999C121.595 95.924 121.043 96.6771 120.359 105.751C119.675 96.6771 119.123 95.9277 112.433 94.999C119.123 94.074 119.675 93.3209 120.359 84.2466C121.043 93.3209 121.595 94.0704 128.285 94.999Z"></path>
</g>
<defs>
<clipPath id="clip0_8_23220">
<rect transform="translate(30.5884 32.9412)" fill="white" height="94.1176" width="97.6969"></rect>
</clipPath>
</defs>
</svg>
