<svg xmlns="http://www.w3.org/2000/svg" fill="none" viewBox="0 0 160 160" height="160" width="160">
<circle fill="#FFE700" r="80" cy="80" cx="80"></circle>
<g clip-path="url(#clip0_8_22705)">
<path fill="#004600" d="M45.1904 110.513C45.1904 110.513 35.43 113.067 35.1523 116.403C35.1267 116.732 35.3606 116.999 35.6018 117.189C36.1682 117.638 36.91 117.88 37.5897 118.091C38.6859 118.431 39.8187 118.669 40.9479 118.873C42.4388 119.148 43.9407 119.36 45.4462 119.542C47.2441 119.765 49.0492 119.948 50.8544 120.109C52.8788 120.288 54.9069 120.441 56.9387 120.576C59.1129 120.719 61.2908 120.843 63.4651 120.949C65.7124 121.062 67.9597 121.157 70.2071 121.238C71.3326 121.278 72.4581 121.318 73.5836 121.355C74.2559 121.377 74.9283 121.388 75.6007 121.431C76.083 121.464 77.6215 121.402 77.6434 122.122C77.647 122.279 77.5557 122.425 77.4351 122.528C77.3145 122.63 77.1683 122.688 77.0222 122.751C76.5946 122.93 76.1634 123.109 75.7359 123.284C75.3522 123.445 74.9612 123.609 74.6689 123.905C74.3363 124.249 74.2048 124.793 74.4935 125.214C74.8004 125.656 75.3558 125.758 75.8492 125.849C76.5362 125.977 77.2341 126.039 77.9284 126.098C80.4827 126.313 83.037 126.496 85.5986 126.642C88.1346 126.788 90.667 126.887 93.203 126.949C94.1494 126.971 95.0995 126.989 96.0459 127.008C98.5418 127.048 101.038 127.066 103.533 127.066C119.36 127.066 130.494 126.788 129.595 122.612C128.696 118.435 111.317 118.252 111.317 118.252L85.679 109.15L45.1904 110.516L45.1904 110.513Z"></path>
<path fill="#FFDB00" d="M92.2966 44.6747C92.2966 44.6747 97.9716 48.8807 98.6367 52.0672C99.2835 55.1586 97.7706 56.613 98.1434 59.3025C98.5161 61.992 107.637 74.7671 99.2871 94.9456C90.9373 115.124 73.2765 117.507 61.3711 116.425C52.5389 115.621 51.3805 115.248 47.6094 115.636C44.3754 115.968 41.4411 115.636 41.2547 110.765C41.0684 105.894 37.4653 100.906 36.2448 97.6826C35.1559 94.8067 29.7513 80.3507 42.4606 61.8714C50.8178 49.7212 62.1312 44.2435 73.7735 44.8465C73.7735 44.8465 78.3193 45.263 80.5922 42.6649C82.1745 40.8597 86.4207 41.2105 92.2966 44.6747Z"></path>
<mask height="76" width="69" y="41" x="34" maskUnits="userSpaceOnUse" style="mask-type:luminance" id="mask0_8_22705">
<path fill="white" d="M92.2966 44.6747C92.2966 44.6747 97.9716 48.8807 98.6367 52.0672C99.2835 55.1586 97.7706 56.613 98.1434 59.3025C98.5161 61.992 107.637 74.7671 99.2871 94.9456C90.9373 115.124 73.2765 117.507 61.3711 116.425C52.5389 115.621 51.3805 115.248 47.6094 115.636C44.3754 115.968 41.4411 115.636 41.2547 110.765C41.0684 105.894 37.4653 100.906 36.2448 97.6826C35.1559 94.8067 29.7513 80.3507 42.4606 61.8714C50.8178 49.7212 62.1312 44.2435 73.7735 44.8465C73.7735 44.8465 78.3193 45.263 80.5922 42.6649C82.1745 40.8597 86.4207 41.2105 92.2966 44.6747Z"></path>
</mask>
<g mask="url(#mask0_8_22705)">
<path fill="#004600" d="M43.2461 60.0113C43.2461 60.0113 63.3807 71.2845 84.1951 46.8342L47.3753 51.8916L43.2461 60.0113Z"></path>
<path fill="#004600" d="M83.793 68.2698C83.793 68.2698 67.5793 77.9169 71.9643 99.9152C76.5174 122.761 100.562 121.756 100.562 121.756L83.793 68.2698Z"></path>
</g>
<path fill="#FFDB00" d="M131.177 104.607C131.177 104.607 131.411 106.237 129.58 109.694C127.75 113.151 124.004 115.555 121.07 117.419C118.402 119.111 97.946 126.302 82.401 110.531C66.0777 93.9664 77.9027 73.4188 83.7969 68.27C83.7969 68.27 85.1965 66.2346 88.3501 68.8182L131.181 104.607L131.177 104.607Z"></path>
<path fill="#62BB46" d="M88.8253 38.9743C88.8253 38.9743 85.1127 51.384 70.061 55.8823C55.0093 60.3806 44.1527 53.5181 41.2769 50.1087C41.2769 50.1087 45.4682 50.7957 50.0689 45.3546C55.1482 39.3471 62.1277 31.8084 74.0952 33.0837C84.7874 34.4504 88.8253 38.9743 88.8253 38.9743Z"></path>
<path fill="white" d="M39.8076 74.3506C39.2704 74.6795 38.8539 75.1764 38.4957 75.6953C36.8696 78.0523 36.2849 81.0158 36.4202 83.8807C36.5517 86.742 37.3556 89.5301 38.2984 92.2379C39.2412 94.942 40.3338 97.6023 41.0829 100.365C41.1816 100.723 41.3131 101.132 41.6639 101.264C41.9343 101.362 42.2486 101.246 42.4423 101.034C42.636 100.822 42.7346 100.54 42.7967 100.259C43.2243 98.2746 42.0915 96.3379 41.4008 94.4304C40.385 91.624 40.3009 88.5581 40.6371 85.5909C40.9733 82.6273 41.7187 79.7259 42.3327 76.8062C42.435 76.3202 42.5336 75.8196 42.4679 75.3262C42.2815 73.9267 40.8746 73.6965 39.8076 74.3506Z"></path>
<path fill="white" d="M42.0292 103.233C41.8209 103.672 41.8355 104.198 42.0292 104.644C42.1425 104.907 42.3252 105.152 42.5773 105.291C43.0195 105.532 43.6151 105.378 43.9404 104.995C44.2656 104.611 44.3387 104.052 44.1888 103.57C44.0682 103.171 43.6882 102.503 43.2351 102.419C42.7564 102.327 42.2156 102.846 42.0292 103.233Z"></path>
<path fill="white" d="M61.9634 36.5261C61.6637 36.7307 61.3714 36.9755 61.2143 37.3044C61.0571 37.6333 61.0645 38.0608 61.3129 38.3276C61.5541 38.587 61.9561 38.6309 62.2996 38.5432C62.6431 38.4555 62.9427 38.2582 63.2533 38.0901C64.2692 37.5346 65.4093 37.2642 66.5165 36.939C66.8381 36.844 67.1816 36.7271 67.3826 36.4603C67.547 36.2374 67.5872 35.9268 67.4776 35.671C67.0866 34.7355 65.6907 35.2215 64.9745 35.364C63.9147 35.576 62.866 35.9158 61.967 36.5297L61.9634 36.5261Z"></path>
<path fill="white" d="M73.4011 35.1666C73.3134 35.3603 73.2732 35.5796 73.3317 35.7842C73.434 36.1314 73.8287 36.3506 74.1831 36.2848C74.5376 36.2191 74.8226 35.9048 74.8811 35.5467C75.0711 34.4504 73.8177 34.2604 73.3975 35.1666L73.4011 35.1666Z"></path>
<path fill="white" d="M79.3646 35.5795C79.2513 35.5466 79.1417 35.5137 79.0284 35.4845C78.5789 35.3602 78.1258 35.2543 77.6654 35.1885C77.2488 35.1264 76.7774 35.0423 76.3681 35.1885C76.0685 35.2981 75.8565 35.5685 75.9333 35.8974C75.9991 36.1788 76.2329 36.3944 76.496 36.5077C76.7591 36.6209 77.0515 36.6502 77.3365 36.6758C78.0966 36.7379 78.8676 36.7744 79.5875 37.0229C79.9675 37.1545 80.3329 37.3445 80.7313 37.3774C80.9834 37.3993 81.2794 37.3299 81.389 37.0996C81.4584 36.9498 81.4292 36.7671 81.3452 36.6246C81.2611 36.4821 81.1296 36.3725 80.9944 36.2774C80.5047 35.9376 79.931 35.7403 79.3573 35.5722L79.3646 35.5795Z"></path>
<path fill="#004600" d="M100.043 36.7416L97.0836 34.6624C97.0836 34.6624 96.9374 35.0168 96.6378 35.6051C95.8631 36.9828 94.1639 37.5748 92.6912 37.794C92.0956 37.8817 91.5 37.8817 90.9043 37.9292C90.2612 37.9804 89.6217 38.0425 88.9822 38.1083C81.1659 39.0876 73.6163 41.7186 66.6697 45.3692C65.1385 46.1767 63.4576 47.1378 61.9192 47.8979C60.3187 48.6726 58.6633 49.3632 56.9787 49.926C56.9495 49.9369 56.9166 49.9442 56.8874 49.9552C56.701 50.0173 56.511 50.0758 56.3246 50.1342C56.1382 50.1927 55.9446 50.2475 55.7546 50.3023C55.5645 50.3572 55.3672 50.412 55.1735 50.4631C54.9799 50.5143 54.7825 50.5654 54.5852 50.6166C54.3879 50.6678 54.1906 50.7116 53.9932 50.7591C53.7959 50.8066 53.5949 50.8468 53.3939 50.8907C53.193 50.9345 52.992 50.9711 52.791 51.0113C52.59 51.0515 52.3854 51.0843 52.1844 51.1172C51.9834 51.1501 51.7788 51.183 51.5741 51.2122C51.3695 51.2415 51.1649 51.2671 50.9602 51.2926C50.7556 51.3182 50.551 51.3401 50.3427 51.3584C50.138 51.3767 49.9298 51.3949 49.7251 51.4096C49.5205 51.4242 49.3122 51.4351 49.1076 51.4461C48.9029 51.4571 48.6946 51.4607 48.49 51.4644C48.2854 51.468 48.0807 51.4644 47.8724 51.4644C47.6641 51.4644 47.4632 51.4571 47.2585 51.4461C47.0539 51.4351 46.8493 51.4242 46.6483 51.4096C46.4436 51.3949 46.2427 51.3767 46.0417 51.3548C45.8407 51.3328 45.6397 51.3072 45.4387 51.278C45.2378 51.2488 45.0404 51.2159 44.8395 51.1794C44.6385 51.1428 44.4448 51.1026 44.2475 51.0588C44.0501 51.0149 43.8565 50.9674 43.6591 50.9162C43.4618 50.8651 43.2718 50.8103 43.0781 50.7518C42.8845 50.6933 42.6944 50.6312 42.5081 50.5618C42.3217 50.4924 42.1317 50.4229 41.9453 50.3498C41.854 50.3133 41.759 50.2731 41.6676 50.2329C41.6055 50.2073 41.547 50.1708 41.4812 50.1525C41.4118 50.1342 41.3424 50.116 41.2729 50.0977C41.3241 50.1525 41.3862 50.2037 41.452 50.2402C41.6493 50.3572 41.8613 50.4558 42.0696 50.5472C43.4509 51.1647 44.9381 51.5192 46.4327 51.7165C51.8774 52.3999 57.3624 50.9053 62.2919 48.6616C64.3967 47.6969 66.6258 46.4033 68.7233 45.424C69.0266 45.2851 70.47 44.6054 70.7477 44.4812C71.0109 44.3716 71.7088 44.0792 71.9829 43.966C73.8429 43.1657 75.9184 42.4239 77.8442 41.8063C82.6349 40.2935 87.6521 39.1826 92.6803 39.0255C92.9507 39.0072 93.2211 38.9926 93.4915 38.9743C93.9519 38.9451 94.2297 39.4713 93.9446 39.8367C93.8825 39.9171 93.8204 39.9938 93.7583 40.0742C91.5 42.888 90.992 43.0597 89.7058 43.4909C88.7593 43.8088 88.4852 44.0939 88.3281 44.3277C88.2879 44.3716 88.255 44.4191 88.2258 44.4702C88.2112 44.4995 88.1966 44.525 88.1819 44.5543C87.7873 45.4496 88.8616 46.9624 90.6558 47.9965C92.5049 49.0636 94.4197 49.217 94.9276 48.3364C94.9897 48.2304 95.0263 48.1171 95.0409 47.9929C95.0957 47.5982 95.0738 47.1853 94.997 46.7943C94.8655 46.1292 94.7632 45.4349 94.8655 44.7589C94.9678 44.0829 95.2674 43.5019 95.5561 42.9209C96.3345 41.3532 97.3832 39.9171 98.4831 38.5577C98.9874 37.9329 99.5136 37.3263 100.051 36.727L100.043 36.7416Z"></path>
<path fill="white" d="M87.6886 68.4929L130.6 103.416C130.6 103.416 131.349 103.979 131.141 104.754C130.929 105.539 130.121 106.182 129.442 106.679C128.762 107.173 107.315 125.721 86.3 108.744C86.3 108.744 80.3583 103.968 78.6774 94.7593C76.9636 85.3644 80.4899 73.1374 86.8043 68.471C87.0674 68.2737 87.4328 68.2883 87.6886 68.4966L87.6886 68.4929Z"></path>
<path fill="white" d="M75.7138 85.8686C75.279 88.2402 75.0268 90.6702 75.3082 93.0637C75.3813 93.6703 75.4873 94.2769 75.7467 94.8324C75.9221 95.2161 76.2802 95.6107 76.6895 95.5121C77.0805 95.417 77.223 94.942 77.2705 94.54C77.4898 92.7129 77.234 90.831 77.1426 89.0039C77.0513 87.1622 77.1828 85.3095 77.5446 83.5007C77.6469 82.9745 77.7711 82.4556 77.9136 81.9403C78.0415 81.4763 78.1841 81.0085 78.1768 80.5262C78.1768 80.391 78.1548 80.2448 78.0598 80.1498C77.625 79.7186 76.8795 81.7174 76.7662 81.9915C76.2583 83.2339 75.955 84.5531 75.7138 85.8686Z"></path>
<path fill="white" d="M76.6491 97.9347C76.5431 98.2746 76.6016 98.6473 76.6929 98.9908C76.7806 99.3197 76.9085 99.6595 77.1716 99.8788C77.4347 100.098 77.8623 100.146 78.1034 99.9043C78.1802 99.8276 78.2313 99.7289 78.2715 99.6266C78.4396 99.2247 78.4543 98.7606 78.3227 98.3477C78.0742 97.5839 77.0218 96.7288 76.6491 97.9347Z"></path>
<path fill="#FFDB00" d="M111.138 90.4219C111.138 90.4219 122.495 99.203 125.773 103.044C129.051 106.884 117.423 110.995 117.423 110.995C117.423 110.995 112.702 113.085 112.179 109.906C111.562 106.12 109.914 96.36 109.884 91.3976C109.884 91.3976 109.724 89.2635 111.138 90.4219Z"></path>
<path fill="#FFDB00" d="M108.214 90.5352L109.212 109.694C109.212 109.694 109.585 112.523 107.728 113.242C105.872 113.962 99.0717 113.429 94.0617 110.597C94.0617 110.597 91.4417 109.321 93.5502 106.398C95.6623 103.475 105.361 90.3013 105.361 90.3013C105.361 90.3013 106.658 88.5217 107.447 88.6313C108.112 88.7227 108.211 90.5315 108.211 90.5315L108.214 90.5352Z"></path>
<path fill="#FFDB00" d="M89.7388 72.8378L103.354 83.7602C103.873 84.1768 103.621 85.0172 102.96 85.0757L84.2867 86.8078C84.2867 86.8078 80.2817 86.9942 80.87 82.9563C81.4584 78.922 83.6947 75.0632 85.0797 73.1703C87.0749 70.4443 89.7388 72.8341 89.7388 72.8341L89.7388 72.8378Z"></path>
<path fill="#FFDB00" d="M84.6045 89.0295L104.147 86.3327C104.973 86.2194 105.514 87.1732 104.991 87.8236C101.187 92.5266 91.2807 104.765 91.2624 104.71C91.2405 104.64 88.456 108.492 85.0466 104.015C81.6373 99.539 81.0489 94.8141 81.0343 92.512C81.0124 89.6361 83.3657 89.2049 84.6045 89.0332L84.6045 89.0295Z"></path>
<path fill="#004600" d="M95.7645 68.1128C95.6293 68.2297 95.5599 68.4197 95.5891 68.5952C95.6037 68.6829 95.6476 68.7706 95.728 68.8108C95.8522 68.8692 95.9984 68.7815 96.0861 68.6719C96.1921 68.5367 96.32 68.2663 96.225 68.0982C96.1299 67.9301 95.8924 68.0068 95.7682 68.1165L95.7645 68.1128Z"></path>
<path fill="#004600" d="M96.9301 69.9618C96.8899 70.0751 96.8936 70.214 96.9703 70.309C97.058 70.415 97.2297 70.4369 97.354 70.3711C97.5696 70.2615 97.7084 69.8668 97.5002 69.6841C97.2919 69.5014 97.0032 69.7499 96.9301 69.9618Z"></path>
<path fill="#004600" d="M97.4347 67.9411C97.7014 68.2627 98.0705 67.7693 97.8585 67.4697C97.5918 67.0933 97.23 67.6963 97.4347 67.9411Z"></path>
<path fill="#004600" d="M44.3647 90.166C44.2405 90.2829 44.193 90.4583 44.182 90.63C44.1747 90.747 44.182 90.8712 44.2405 90.9735C44.299 91.0759 44.4086 91.1562 44.5255 91.1489C44.6644 91.138 44.7704 91.0137 44.8288 90.8858C44.9129 90.6995 44.9786 90.3706 44.869 90.1806C44.7667 90.0015 44.4963 90.0417 44.3647 90.166Z"></path>
<path fill="#004600" d="M45.1942 91.3865C45.1869 91.4779 45.1942 91.5765 45.2563 91.6459C45.3331 91.73 45.4756 91.7263 45.5633 91.6569C45.7277 91.529 45.735 91.2074 45.5706 91.0759C45.3513 90.8968 45.2052 91.2038 45.1942 91.3865Z"></path>
<path fill="#004600" d="M44.3173 92.5338C44.2187 92.6288 44.1785 92.7677 44.1748 92.9029C44.1748 92.9723 44.1821 93.0417 44.2113 93.1039C44.2406 93.166 44.2954 93.2208 44.3612 93.2354C44.4489 93.2573 44.5439 93.2135 44.6133 93.1514C44.7631 93.0162 44.8399 92.7677 44.7668 92.5777C44.6937 92.3876 44.4525 92.4096 44.321 92.5338L44.3173 92.5338Z"></path>
<path fill="white" d="M112.687 116.52C113.031 116.886 113.575 116.348 113.272 115.983C112.968 115.618 112.333 116.144 112.687 116.52Z"></path>
<path fill="white" d="M113.498 118.015C113.93 118.23 114.299 117.558 113.878 117.321C113.429 117.065 113.027 117.781 113.498 118.015Z"></path>
<path fill="white" d="M115.625 116.889C115.687 116.937 115.764 116.962 115.844 116.97C116.316 117.003 116.462 116.396 116.012 116.235C115.596 116.082 115.238 116.608 115.625 116.893L115.625 116.889Z"></path>
<path fill="white" d="M117.328 116.023C117.273 116.18 117.335 116.367 117.467 116.462C117.602 116.557 117.799 116.553 117.931 116.454C118.464 116.06 117.558 115.373 117.328 116.023Z"></path>
<path fill="white" d="M119.089 116.633C119.016 116.794 119.086 117.002 119.235 117.101C119.422 117.222 119.703 117.145 119.806 116.948C120.054 116.454 119.301 116.177 119.093 116.633L119.089 116.633Z"></path>
<path fill="#62BB46" d="M100.123 36.6288C100.414 36.1255 99.9427 35.3092 99.0705 34.8057C98.1984 34.3022 97.2558 34.302 96.9652 34.8054C96.6746 35.3087 97.146 36.125 98.0181 36.6285C98.8903 37.1321 99.8329 37.1322 100.123 36.6288Z"></path>
<path fill="white" d="M114.452 99.6339C114.415 99.7472 114.415 99.8714 114.423 99.992C114.459 100.712 114.719 101.421 115.15 101.994C115.311 102.206 115.526 102.418 115.793 102.422C116.111 102.429 116.367 102.122 116.407 101.804C116.447 101.487 116.319 101.18 116.173 100.898C115.943 100.467 115.654 100.069 115.314 99.7216C115.066 99.4658 114.627 99.104 114.456 99.6339L114.452 99.6339Z"></path>
<path fill="white" d="M87.3123 92.0808C87.2465 92.0369 87.1661 92.0113 87.0894 91.9931C86.618 91.8798 86.1137 91.909 85.6606 92.0771C85.4925 92.1392 85.3171 92.2379 85.2623 92.4096C85.1965 92.6143 85.3464 92.8372 85.54 92.9212C85.7337 93.0053 85.9603 92.987 86.1686 92.9431C86.4901 92.8774 86.8007 92.7677 87.0931 92.6179C87.305 92.5083 87.6229 92.2927 87.3123 92.0808Z"></path>
<path fill="white" d="M104.553 101.808C104.264 101.998 104.122 102.345 104.023 102.674C103.972 102.842 103.924 103.014 103.892 103.189C103.844 103.416 103.815 103.65 103.873 103.873C103.932 104.096 104.093 104.304 104.315 104.355C104.571 104.417 104.842 104.26 104.988 104.041C105.134 103.822 105.182 103.551 105.211 103.288C105.229 103.127 105.244 102.963 105.251 102.802C105.269 102.433 105.174 101.403 104.553 101.812L104.553 101.808Z"></path>
<path fill="white" d="M93.9557 81.5054C93.8241 81.1839 93.5099 80.9829 93.2029 80.8184C93.0458 80.7344 92.885 80.6577 92.7242 80.5919C92.5123 80.5042 92.2857 80.4311 92.0591 80.4457C91.8326 80.4603 91.5951 80.5809 91.5 80.7892C91.3904 81.0304 91.4927 81.3264 91.6828 81.5091C91.8728 81.6918 92.1286 81.7905 92.3807 81.8709C92.5378 81.9184 92.695 81.9622 92.8521 82.0024C93.2102 82.0901 94.2407 82.1924 93.9593 81.5054L93.9557 81.5054Z"></path>
<path fill="white" d="M103.88 94.4743C103.734 94.5218 103.613 94.6278 103.508 94.7411C103.182 95.0809 102.934 95.4865 102.777 95.9287C102.733 96.0529 102.696 96.1845 102.696 96.316C102.696 96.4476 102.747 96.5864 102.85 96.6668C102.985 96.7801 103.193 96.7728 103.35 96.6924C103.508 96.612 103.628 96.4731 103.73 96.3306C103.983 95.9835 104.173 95.5888 104.293 95.1759C104.337 95.0224 104.417 94.7484 104.33 94.5949C104.246 94.4524 104.023 94.4268 103.88 94.4706L103.88 94.4743Z"></path>
<path fill="white" d="M93.912 93.5935C93.6124 93.6702 93.3054 93.7908 93.1044 94.0283C92.9034 94.2658 92.845 94.6422 93.0386 94.8834C93.214 95.1026 93.5283 95.1465 93.8097 95.1428C94.5259 95.1282 95.2348 94.8797 95.8085 94.4485C95.962 94.3353 96.1118 94.1891 96.1447 94.0027C96.2215 93.5715 95.6112 93.5496 95.3298 93.5131C94.8584 93.4509 94.3724 93.4765 93.9083 93.5935L93.912 93.5935Z"></path>
<path fill="white" d="M120.595 75.5492C113.831 76.4847 113.272 77.2448 112.581 86.4205C111.89 77.2484 111.331 76.4884 104.567 75.5492C111.331 74.6138 111.89 73.8537 112.581 64.678C113.272 73.85 113.831 74.6101 120.595 75.5492Z"></path>
<path fill="white" d="M45.439 45.1535C38.675 46.089 38.1159 46.849 37.4253 56.0247C36.7346 46.8527 36.1756 46.0926 29.4116 45.1535C36.1756 44.218 36.7346 43.4579 37.4253 34.2822C38.1159 43.4543 38.675 44.2143 45.439 45.1535Z"></path>
<path fill="white" d="M65.0513 96.7509C58.2873 97.6864 57.7282 98.4464 57.0376 107.622C56.3469 98.4501 55.7879 97.69 49.0239 96.7509C55.7879 95.8154 56.3469 95.0553 57.0376 85.8796C57.7282 95.0517 58.2873 95.8118 65.0513 96.7509Z"></path>
</g>
<defs>
<clipPath id="clip0_8_22705">
<rect transform="translate(29.4116 32.9412)" fill="white" height="94.1176" width="101.773"></rect>
</clipPath>
</defs>
</svg>
