<svg xmlns="http://www.w3.org/2000/svg" fill="none" viewBox="0 0 177 48" height="48" width="177">
<path fill="#8BE3C6" d="M42.0575 5.1959C36.8326 12.4016 34.1915 24.66 33.9331 33.1576C36.2298 32.6983 38.5551 32.2677 40.8518 31.8658C40.8518 29.9423 40.9092 28.105 41.1101 26.239C43.7513 25.7796 46.3637 25.3777 49.0049 25.0045C49.2058 26.7844 49.292 28.6217 49.2633 30.5452C51.5312 30.2294 53.8278 29.9423 56.0958 29.6552C55.8087 21.2437 52.9379 9.70308 47.914 4.24854C45.9618 4.53562 43.981 4.85141 42.0288 5.1672L42.0575 5.1959ZM42.0288 20.7557C42.6891 17.8275 43.6939 14.8131 45.0432 11.5404C46.4211 14.3825 47.3972 17.0811 48.0862 19.8083C46.0766 20.0954 44.0384 20.4112 42.0288 20.7557Z"></path>
<path fill="#8BE3C6" d="M145.722 33.8183C145.464 25.3207 142.622 12.8613 137.598 5.77041C135.646 5.42591 133.694 5.08141 131.713 4.76562C126.488 10.2776 123.818 21.6747 123.56 30.0862C125.799 30.3733 128.01 30.6891 130.249 31.0336C130.249 29.1101 130.306 27.2728 130.507 25.4929C133.177 25.8948 135.847 26.3541 138.517 26.8422C138.718 28.7082 138.804 30.5455 138.775 32.469C141.1 32.8996 143.397 33.3589 145.722 33.847V33.8183ZM131.426 20.2967C132.115 17.5407 133.12 14.8135 134.498 11.9427C135.904 15.2728 136.909 18.3446 137.569 21.3302C135.502 20.957 133.464 20.6125 131.397 20.2967H131.426Z"></path>
<path fill="#8BE3C6" d="M159.56 10.6221C159.56 15.9619 158.698 19.5504 156.459 21.8183C154.191 18.4021 153.244 14.3542 153.244 9.01449C150.919 8.44033 148.565 7.92359 146.21 7.43555C146.21 14.4977 148.823 22.1341 152.813 26.6987V35.3973C155.053 35.9427 157.292 36.4882 159.531 37.091V28.3925C163.378 24.7178 166.076 19.493 166.076 12.4308C163.923 11.7992 161.742 11.1963 159.588 10.6221H159.56Z"></path>
<path fill="#8BE3C6" d="M23.1675 9.04291V19.8946C21.1292 20.3826 19.0622 20.8994 17.024 21.4448V10.5932C14.7847 11.196 12.5455 11.7989 10.335 12.4592V38.9281C12.5742 38.2678 14.7847 37.6649 17.024 37.0621V27.3013C19.0622 26.7558 21.1005 26.2391 23.1675 25.751V35.5118C25.4067 34.9664 27.6747 34.4496 29.9139 33.9903V7.49268C27.646 7.98071 25.4067 8.49746 23.1675 9.01421V9.04291Z"></path>
<path fill="#8BE3C6" d="M110.411 2.2391C108.258 2.06685 103.263 1.75106 100.651 1.63623V28.1051C103.407 28.2487 106.708 28.3922 110.268 28.708C118.335 29.3683 121.148 23.1099 121.148 15.5884C121.148 8.12427 118.45 2.89939 110.411 2.2391ZM109.981 22.9377C109.177 22.8803 108.344 22.8228 107.541 22.7654V7.77977C108.402 7.83719 109.263 7.8946 110.096 7.98073C113.512 8.26781 113.856 11.196 113.856 14.842C113.856 18.4879 113.426 23.2248 109.981 22.9664V22.9377Z"></path>
<path fill="#8BE3C6" d="M66.8327 21.2726V2.18164C64.536 2.35389 62.2681 2.55485 59.9714 2.78451V22.8802C59.9714 26.4113 62.8423 28.9663 66.4021 28.6793C69.6461 28.4209 72.8901 28.2199 76.1341 28.0764V22.306C73.5791 22.4209 70.9954 22.5644 68.4403 22.7367C67.5504 22.7941 66.8327 22.1338 66.8327 21.2726Z"></path>
<path fill="#8BE3C6" d="M88.7082 7.14829C91.0623 7.14829 93.4451 7.177 95.7991 7.26312V1.46408C92.7561 1.37795 89.713 1.34924 86.6412 1.37795C83.0814 1.37795 80.1819 4.33489 80.1819 7.86599V27.9617C82.4785 27.9043 84.7752 27.8469 87.0718 27.8469V19.0909C89.6269 19.0909 92.1819 19.0909 94.7656 19.177V13.665C92.2106 13.6076 89.6556 13.5789 87.0718 13.5789V8.75594C87.0718 7.86599 87.7895 7.14829 88.6795 7.14829H88.7082Z"></path>
<path fill="#8BE3C6" d="M171.244 14.0669C169.435 14.0669 168.201 15.3013 168.201 17.0525C168.201 18.8037 169.464 20.0382 171.244 20.0382C173.024 20.0382 174.287 18.8037 174.287 17.0525C174.287 15.3013 173.024 14.0669 171.244 14.0669ZM171.244 19.3492C169.866 19.3492 168.947 18.4305 168.947 17.0525C168.947 15.6746 169.866 14.7846 171.244 14.7846C172.622 14.7846 173.512 15.7033 173.512 17.0525C173.512 18.4018 172.593 19.3492 171.244 19.3492ZM172.536 16.5358C172.536 15.732 171.933 15.5023 171.33 15.5023H170.239V18.4592H170.986V17.8851C171.1 17.8564 171.273 17.799 171.445 17.7415C171.588 17.9999 171.703 18.2583 171.761 18.4879H172.622C172.536 18.1147 172.364 17.7415 172.134 17.397C172.392 17.1961 172.565 16.9377 172.565 16.5645L172.536 16.5358ZM171.014 17.1961V16.1052H171.215C171.531 16.1052 171.732 16.22 171.732 16.5645C171.732 16.909 171.215 17.1387 171.014 17.1961Z"></path>
<path fill="white" d="M39.1865 38.8997V40.0193C39.1865 40.0193 39.7033 39.9331 39.9329 39.8757C39.9329 39.8757 39.9329 43.0049 39.9329 43.0336L37.2918 39.2154L35.2822 39.5887V40.7083C35.2822 40.7083 35.7703 40.6221 36.0286 40.5647V45.0432C35.799 45.1006 35.2822 45.1867 35.2822 45.1867V46.3064L38.1243 45.7896V44.67C38.1243 44.67 37.6076 44.7561 37.3779 44.8135C37.3779 44.8135 37.3779 41.7131 37.3779 41.6843L40.0191 45.4738L41.3109 45.2442V39.6461C41.5406 39.6174 42.0573 39.5312 42.0573 39.5312V38.4116L39.2152 38.8997H39.1865Z"></path>
<path fill="white" d="M47.7989 42.3157V43.0621C47.2534 43.1483 46.7079 43.2344 46.1625 43.2918V41.6842C47.1386 41.5406 48.2008 41.3971 48.2008 41.3971V40.22C48.2008 40.22 47.0237 40.3923 46.1625 40.5071V38.9569C46.6505 38.8708 47.1673 38.8133 47.6553 38.7272V39.4449L48.8323 39.2727V37.3779L44.0381 38.0956V39.2153C44.0381 39.2153 44.5261 39.1291 44.7845 39.1004V43.5789C44.5548 43.6076 44.0381 43.6937 44.0381 43.6937V44.8133L48.9472 44.0669V42.1435L47.7701 42.3157H47.7989Z"></path>
<path fill="white" d="M56.842 36.3446V37.4642C56.842 37.4642 57.3013 37.4068 57.531 37.3781L56.7558 40.9953L55.5788 36.4594L54.4879 36.5743L53.3109 41.3972L52.5357 37.9523C52.7367 37.9523 53.2247 37.8661 53.2247 37.8661V36.7465L50.6123 37.091V38.2106L51.2152 38.1245L52.5357 43.5503L53.9712 43.3781C53.9712 43.3781 55.0334 39.0719 55.0334 39.0432L56.0956 43.1197L57.5597 42.9475C57.5597 42.9475 58.3061 39.7035 58.8802 37.2058L59.4544 37.1484V36.0288L56.8133 36.3159L56.842 36.3446Z"></path>
<path fill="white" d="M68.4115 40.105V40.8514C67.866 40.8801 67.3206 40.9375 66.7751 40.9662V39.3586C67.7512 39.2725 68.8134 39.215 68.8134 39.215V38.038C68.8134 38.038 67.6364 38.1241 66.7751 38.1815V36.6026C67.2919 36.5739 67.7799 36.5165 68.2967 36.4878V37.2055L69.5024 37.1193V35.2246L64.6794 35.5978V36.7174C64.6794 36.7174 65.1675 36.6887 65.4259 36.66V41.1385C65.1675 41.1385 64.6794 41.1959 64.6794 41.1959V42.3155L69.6172 41.9423V40.0189L68.4115 40.105Z"></path>
<path fill="white" d="M76.8803 40.2776L76.1626 38.957C76.1052 38.8422 76.0191 38.7561 75.9617 38.6987C76.6506 38.3542 77.0526 37.6652 77.0526 36.8039C77.0526 35.8853 76.5932 35.2537 75.8181 34.9953C75.5023 34.9092 75.1291 34.8805 74.6124 34.9092C73.4066 34.9666 71.7703 35.0527 71.7703 35.0527V36.1724C71.7703 36.1724 72.2583 36.1724 72.5167 36.1437V40.6221C72.2583 40.6221 71.7703 40.6508 71.7703 40.6508V41.7704L74.5837 41.6269V40.5073C74.5837 40.5073 74.0956 40.5073 73.866 40.536V39.158H74.3253C74.6411 39.1293 74.7272 39.158 74.8133 39.3877L75.7033 41.024C75.9329 41.4547 76.1339 41.5408 76.6794 41.5408C76.9377 41.5408 77.5119 41.5121 77.5119 41.5121V40.3925H77.1961C76.9951 40.3925 76.9377 40.3925 76.8803 40.2776ZM75.7033 36.9475C75.7033 37.5504 75.3875 37.9236 74.8133 37.9523C74.4975 37.9523 74.2105 37.981 73.8947 38.0097V36.1437C74.153 36.1437 74.3827 36.1437 74.6411 36.1149C74.9282 36.1149 75.1291 36.1149 75.3014 36.2011C75.5884 36.3159 75.732 36.5743 75.732 36.9762L75.7033 36.9475Z"></path>
<path fill="white" d="M82.8803 34.6509L81.4162 34.6796C81.4162 34.6796 80.4975 37.4643 79.5501 40.3351H78.9473V41.4834L81.5023 41.3973V40.2777H80.9281L81.2439 39.2729C81.8468 39.2729 82.4497 39.2729 83.0525 39.2442L83.3683 40.249H82.7942V41.3686L85.3492 41.3399V40.2203H84.7463C84.086 38.2394 82.8803 34.6509 82.8803 34.6509ZM82.1626 36.3447C82.1626 36.3734 82.7367 38.0959 82.7367 38.0959C82.3635 38.0959 81.9903 38.0959 81.6171 38.0959C81.6171 38.0959 82.1626 36.3447 82.1913 36.316L82.1626 36.3447Z"></path>
<path fill="white" d="M90.4019 34.5933V35.7129C90.4019 35.7129 90.8899 35.7129 91.1483 35.7129V40.1913C90.8899 40.1913 90.4019 40.1913 90.4019 40.1913V41.311L93.2727 41.3397V40.2201C93.2727 40.2201 92.7846 40.2201 92.5263 40.2201V35.7416C92.7846 35.7416 93.2727 35.7416 93.2727 35.7416V34.622L90.4019 34.5933Z"></path>
<path fill="white" d="M99.6746 39.2724V39.904C99.6746 39.9902 99.6459 40.0476 99.5885 40.105C99.3589 40.3346 98.756 40.3921 98.4402 40.3921C97.2345 40.3634 96.4019 39.3586 96.4019 38.0093C96.4019 36.66 96.6029 36.8035 97.0048 36.4303C97.3493 36.0858 97.8373 35.9136 98.3541 35.9423C98.8708 35.9423 99.5885 36.1433 99.5885 36.5452V37.148L100.852 37.2055V36.2007C100.852 35.0524 98.9856 34.7079 98.3254 34.7079C97.4354 34.6791 96.6316 34.9949 96.0287 35.5691C95.3971 36.2007 95.0239 37.0619 95.0239 38.0667C95.0239 40.0476 96.4593 41.5978 98.3828 41.6552C98.4402 41.6552 99.9617 41.7126 100.651 41.0524C100.852 40.8514 100.938 40.6217 100.938 40.3634V39.3586L99.6746 39.3012V39.2724Z"></path>
<path fill="white" d="M106.708 39.9902V40.7366C106.163 40.7079 105.617 40.6792 105.072 40.6218V39.0142C106.048 39.0716 107.11 39.129 107.11 39.129V37.952C107.11 37.952 105.933 37.8658 105.072 37.8371V36.2582C105.589 36.2869 106.077 36.3156 106.593 36.3443V37.062L107.799 37.1481V35.2534L102.976 34.9663V36.0859C102.976 36.0859 103.464 36.0859 103.722 36.1146V40.5931C103.493 40.5931 102.976 40.5644 102.976 40.5644V41.684L107.914 41.9711V40.0476L106.708 39.9615V39.9902Z"></path>
<path fill="white" d="M114 35.9137C113.569 35.7415 113.168 35.6841 112.679 35.6266C111.502 35.5118 109.895 35.397 109.895 35.397V36.5166C109.895 36.5166 110.383 36.5453 110.641 36.574V41.0525C110.412 41.0525 109.895 40.9951 109.895 40.9951V42.1147C109.895 42.1147 111.474 42.2295 112.679 42.3443C112.88 42.3443 113.053 42.3443 113.254 42.3443C113.541 42.3443 113.799 42.3443 114.086 42.2295C115.349 41.9137 116.096 40.7941 116.096 39.2439C116.096 37.6936 115.321 36.373 114.029 35.8563L114 35.9137ZM111.99 36.775C112.191 36.775 112.421 36.8037 112.622 36.8324C112.995 36.8611 113.254 36.9185 113.541 37.062C114.258 37.4065 114.66 38.2104 114.66 39.2152C114.66 40.1912 114.258 40.9089 113.598 41.1386C113.34 41.2247 113.053 41.2534 112.622 41.196C112.392 41.196 112.191 41.1673 111.962 41.1386V36.775H111.99Z"></path>
<path fill="white" d="M121.091 36.4878V38.6409L122.268 38.7844V37.8084C122.584 37.8371 122.9 37.8945 123.215 37.9232V42.3443C122.957 42.3155 122.469 42.2581 122.469 42.2581V43.3777L125.311 43.7509V42.6313C125.311 42.6313 124.823 42.5739 124.565 42.5452V38.1242C124.88 38.1529 125.196 38.2103 125.512 38.239V39.2151L126.689 39.3873V37.2342L121.062 36.5165L121.091 36.4878Z"></path>
<path fill="white" d="M132.287 42.8325V43.5789C131.742 43.4928 131.196 43.4067 130.651 43.3205V41.7129C131.627 41.8564 132.689 42.0287 132.689 42.0287V40.8516C132.689 40.8516 131.541 40.6794 130.651 40.5358V38.9856C131.139 39.0717 131.656 39.1291 132.144 39.2153V39.933L133.321 40.1339V38.2392L128.526 37.5215V38.6411C128.526 38.6411 128.986 38.6985 129.273 38.7559V43.2344C129.014 43.2057 128.526 43.1196 128.526 43.1196V44.2392L133.435 44.9856V43.0622L132.258 42.8612L132.287 42.8325Z"></path>
<path fill="white" d="M140.813 45.1004C140.153 42.9473 138.976 39.1578 138.976 39.1578L137.541 38.8994C137.541 38.8994 136.651 41.4831 135.703 44.1817L135.1 44.0669V45.1865L137.627 45.6171V44.4975L137.052 44.4114L137.368 43.464C137.971 43.5788 138.545 43.665 139.148 43.7798L139.464 44.842L138.919 44.7272V45.8468L141.445 46.3061V45.1865L140.871 45.0717L140.813 45.1004ZM138.258 40.708C138.258 40.7367 138.804 42.5741 138.804 42.5741C138.43 42.5166 138.057 42.4305 137.684 42.3731C137.684 42.3731 138.23 40.7367 138.258 40.708Z"></path>
</svg>
