<svg xmlns="http://www.w3.org/2000/svg" fill="none" viewBox="0 0 177 48" height="48" width="177">
<path fill="#44D5E2" d="M42.057 5.19618C36.8321 12.4019 34.191 24.6603 33.9326 33.1579C36.2293 32.6986 38.5546 32.2679 40.8513 31.866C40.8513 29.9426 40.9087 28.1053 41.1097 26.2392C43.7508 25.7799 46.3632 25.378 49.0044 25.0048C49.2053 26.7847 49.2915 28.622 49.2628 30.5455C51.5307 30.2297 53.8274 29.9426 56.0953 29.6555C55.8082 21.244 52.9374 9.70336 47.9135 4.24881C45.9613 4.53589 43.9805 4.85168 42.0283 5.16747L42.057 5.19618ZM42.0283 20.756C42.6886 17.8278 43.6934 14.8134 45.0427 11.5407C46.4207 14.3828 47.3967 17.0813 48.0857 19.8086C46.0762 20.0957 44.0379 20.4115 42.0283 20.756Z"></path>
<path fill="#44D5E2" d="M145.722 33.8182C145.464 25.3206 142.622 12.8612 137.598 5.77032C135.646 5.42582 133.694 5.08132 131.713 4.76553C126.488 10.2775 123.818 21.6746 123.56 30.0861C125.799 30.3732 128.009 30.689 130.249 31.0335C130.249 29.11 130.306 27.2727 130.507 25.4928C133.177 25.8947 135.847 26.354 138.517 26.8421C138.717 28.7081 138.804 30.5454 138.775 32.4689C141.1 32.8995 143.397 33.3588 145.722 33.8469V33.8182ZM131.426 20.2966C132.115 17.5407 133.119 14.8134 134.497 11.9426C135.904 15.2727 136.909 18.3445 137.569 21.3301C135.502 20.9569 133.464 20.6124 131.397 20.2966H131.426Z"></path>
<path fill="#44D5E2" d="M159.56 10.622C159.56 15.9617 158.699 19.5502 156.46 21.8182C154.192 18.4019 153.244 14.3541 153.244 9.01434C150.919 8.44018 148.565 7.92343 146.211 7.43539C146.211 14.4976 148.823 22.134 152.814 26.6986V35.3971C155.053 35.9426 157.292 36.488 159.532 37.0909V28.3923C163.378 24.7177 166.077 19.4928 166.077 12.4306C163.924 11.799 161.742 11.1962 159.589 10.622H159.56Z"></path>
<path fill="#44D5E2" d="M23.1675 9.04307V19.8947C21.1292 20.3828 19.0622 20.8995 17.024 21.445V10.5933C14.7847 11.1962 12.5455 11.799 10.335 12.4593V38.9282C12.5742 38.268 14.7847 37.6651 17.024 37.0622V27.3014C19.0622 26.756 21.1005 26.2392 23.1675 25.7512V35.512C25.4067 34.9665 27.6747 34.4498 29.9139 33.9904V7.49283C27.646 7.98087 25.4067 8.49761 23.1675 9.01436V9.04307Z"></path>
<path fill="#44D5E2" d="M110.411 2.23922C108.258 2.06697 103.263 1.75119 100.65 1.63635V28.1053C103.406 28.2488 106.708 28.3923 110.268 28.7081C118.335 29.3684 121.148 23.11 121.148 15.5885C121.148 8.12439 118.449 2.89951 110.411 2.23922ZM109.981 22.9378C109.177 22.8804 108.344 22.823 107.54 22.7655V7.77989C108.402 7.83731 109.263 7.89473 110.095 7.98085C113.512 8.26793 113.856 11.1962 113.856 14.8421C113.856 18.488 113.426 23.2249 109.981 22.9665V22.9378Z"></path>
<path fill="#44D5E2" d="M66.8329 21.2727V2.18182C64.5363 2.35407 62.2683 2.55503 59.9717 2.78469V22.8804C59.9717 26.4115 62.8425 28.9665 66.4023 28.6794C69.6463 28.4211 72.8903 28.2201 76.1344 28.0766V22.3062C73.5793 22.4211 70.9956 22.5646 68.4406 22.7368C67.5506 22.7943 66.8329 22.134 66.8329 21.2727Z"></path>
<path fill="#44D5E2" d="M88.708 7.14832C91.062 7.14832 93.4448 7.17703 95.7989 7.26315V1.46411C92.7558 1.37798 89.7127 1.34928 86.641 1.37798C83.0812 1.37798 80.1816 4.33492 80.1816 7.86602V27.9617C82.4783 27.9043 84.7749 27.8469 87.0716 27.8469V19.0909C89.6266 19.0909 92.1816 19.0909 94.7654 19.177V13.6651C92.2104 13.6076 89.6553 13.5789 87.0716 13.5789V8.75597C87.0716 7.86602 87.7893 7.14832 88.6793 7.14832H88.708Z"></path>
<path fill="#44D5E2" d="M171.244 14.067C169.436 14.067 168.201 15.3014 168.201 17.0526C168.201 18.8038 169.464 20.0383 171.244 20.0383C173.024 20.0383 174.287 18.8038 174.287 17.0526C174.287 15.3014 173.024 14.067 171.244 14.067ZM171.244 19.3493C169.866 19.3493 168.948 18.4306 168.948 17.0526C168.948 15.6746 169.866 14.7847 171.244 14.7847C172.622 14.7847 173.512 15.7034 173.512 17.0526C173.512 18.4019 172.594 19.3493 171.244 19.3493ZM172.536 16.5359C172.536 15.7321 171.933 15.5024 171.33 15.5024H170.239V18.4593H170.986V17.8852C171.101 17.8565 171.273 17.799 171.445 17.7416C171.589 18 171.704 18.2584 171.761 18.488H172.622C172.536 18.1148 172.364 17.7416 172.134 17.3971C172.393 17.1962 172.565 16.9378 172.565 16.5646L172.536 16.5359ZM171.015 17.1962V16.1053H171.216C171.531 16.1053 171.732 16.2201 171.732 16.5646C171.732 16.9091 171.216 17.1388 171.015 17.1962Z"></path>
<path fill="#004600" d="M39.1865 38.8995V40.0191C39.1865 40.0191 39.7033 39.933 39.9329 39.8756C39.9329 39.8756 39.9329 43.0048 39.9329 43.0335L37.2918 39.2153L35.2822 39.5885V40.7081C35.2822 40.7081 35.7703 40.622 36.0286 40.5646V45.043C35.799 45.1005 35.2822 45.1866 35.2822 45.1866V46.3062L38.1243 45.7895V44.6698C38.1243 44.6698 37.6076 44.756 37.3779 44.8134C37.3779 44.8134 37.3779 41.7129 37.3779 41.6842L40.0191 45.4737L41.3109 45.244V39.6459C41.5406 39.6172 42.0573 39.5311 42.0573 39.5311V38.4115L39.2152 38.8995H39.1865Z"></path>
<path fill="#004600" d="M47.7989 42.3158V43.0622C47.2534 43.1483 46.7079 43.2345 46.1625 43.2919V41.6842C47.1386 41.5407 48.2008 41.3971 48.2008 41.3971V40.2201C48.2008 40.2201 47.0237 40.3923 46.1625 40.5072V38.9569C46.6505 38.8708 47.1673 38.8134 47.6553 38.7273V39.445L48.8323 39.2727V37.378L44.0381 38.0957V39.2153C44.0381 39.2153 44.5261 39.1292 44.7845 39.1005V43.5789C44.5548 43.6077 44.0381 43.6938 44.0381 43.6938V44.8134L48.9472 44.067V42.1435L47.7701 42.3158H47.7989Z"></path>
<path fill="#004600" d="M56.842 36.3445V37.4641C56.842 37.4641 57.3013 37.4067 57.531 37.378L56.7558 40.9952L55.5788 36.4593L54.4879 36.5741L53.3109 41.3971L52.5357 37.9521C52.7367 37.9521 53.2247 37.866 53.2247 37.866V36.7464L50.6123 37.0909V38.2105L51.2152 38.1244L52.5357 43.5502L53.9712 43.378C53.9712 43.378 55.0334 39.0717 55.0334 39.043L56.0956 43.1196L57.5597 42.9473C57.5597 42.9473 58.3061 39.7033 58.8802 37.2057L59.4544 37.1483V36.0287L56.8133 36.3158L56.842 36.3445Z"></path>
<path fill="#004600" d="M68.4117 40.1053V40.8517C67.8663 40.8804 67.3208 40.9378 66.7754 40.9665V39.3589C67.7515 39.2727 68.8137 39.2153 68.8137 39.2153V38.0383C68.8137 38.0383 67.6366 38.1244 66.7754 38.1818V36.6029C67.2921 36.5742 67.7802 36.5168 68.2969 36.488V37.2057L69.5027 37.1196V35.2249L64.6797 35.5981V36.7177C64.6797 36.7177 65.1677 36.689 65.4261 36.6603V41.1388C65.1677 41.1388 64.6797 41.1962 64.6797 41.1962V42.3158L69.6175 41.9426V40.0191L68.4117 40.1053Z"></path>
<path fill="#004600" d="M76.8806 40.2775L76.1628 38.9569C76.1054 38.8421 76.0193 38.756 75.9619 38.6986C76.6509 38.3541 77.0528 37.6651 77.0528 36.8038C77.0528 35.8852 76.5935 35.2536 75.8184 34.9952C75.5026 34.9091 75.1294 34.8804 74.6126 34.9091C73.4069 34.9665 71.7705 35.0526 71.7705 35.0526V36.1722C71.7705 36.1722 72.2585 36.1722 72.5169 36.1435V40.622C72.2585 40.622 71.7705 40.6507 71.7705 40.6507V41.7703L74.5839 41.6268V40.5072C74.5839 40.5072 74.0959 40.5072 73.8662 40.5359V39.1579H74.3255C74.6413 39.1292 74.7274 39.1579 74.8136 39.3875L75.7035 41.0239C75.9332 41.4545 76.1341 41.5407 76.6796 41.5407C76.938 41.5407 77.5121 41.512 77.5121 41.512V40.3923H77.1963C76.9954 40.3923 76.938 40.3923 76.8806 40.2775ZM75.7035 36.9474C75.7035 37.5502 75.3877 37.9234 74.8136 37.9521C74.4978 37.9521 74.2107 37.9808 73.8949 38.0096V36.1435C74.1533 36.1435 74.3829 36.1435 74.6413 36.1148C74.9284 36.1148 75.1294 36.1148 75.3016 36.2009C75.5887 36.3158 75.7322 36.5742 75.7322 36.9761L75.7035 36.9474Z"></path>
<path fill="#004600" d="M82.8803 34.6507L81.4162 34.6794C81.4162 34.6794 80.4975 37.4641 79.5501 40.3349H78.9473V41.4832L81.5023 41.3971V40.2775H80.9281L81.2439 39.2727C81.8468 39.2727 82.4497 39.2727 83.0525 39.244L83.3683 40.2488H82.7942V41.3684L85.3492 41.3397V40.2201H84.7463C84.086 38.2392 82.8803 34.6507 82.8803 34.6507ZM82.1626 36.3445C82.1626 36.3732 82.7367 38.0957 82.7367 38.0957C82.3635 38.0957 81.9903 38.0957 81.6171 38.0957C81.6171 38.0957 82.1626 36.3445 82.1913 36.3158L82.1626 36.3445Z"></path>
<path fill="#004600" d="M90.4014 34.5933V35.7129C90.4014 35.7129 90.8894 35.7129 91.1478 35.7129V40.1914C90.8894 40.1914 90.4014 40.1914 90.4014 40.1914V41.311L93.2722 41.3397V40.2201C93.2722 40.2201 92.7841 40.2201 92.5258 40.2201V35.7416C92.7841 35.7416 93.2722 35.7416 93.2722 35.7416V34.622L90.4014 34.5933Z"></path>
<path fill="#004600" d="M99.6742 39.2727V39.9043C99.6742 39.9904 99.6454 40.0478 99.588 40.1053C99.3584 40.3349 98.7555 40.3923 98.4397 40.3923C97.234 40.3636 96.4014 39.3588 96.4014 38.0096C96.4014 36.6603 96.6024 36.8038 97.0043 36.4306C97.3488 36.0861 97.8368 35.9139 98.3536 35.9426C98.8703 35.9426 99.588 36.1435 99.588 36.5455V37.1483L100.851 37.2057V36.201C100.851 35.0526 98.9852 34.7081 98.3249 34.7081C97.4349 34.6794 96.6311 34.9952 96.0282 35.5694C95.3966 36.201 95.0234 37.0622 95.0234 38.067C95.0234 40.0478 96.4588 41.5981 98.3823 41.6555C98.4397 41.6555 99.9612 41.7129 100.65 41.0526C100.851 40.8517 100.937 40.622 100.937 40.3636V39.3588L99.6742 39.3014V39.2727Z"></path>
<path fill="#004600" d="M106.708 39.9904V40.7368C106.162 40.7081 105.617 40.6794 105.071 40.622V39.0143C106.047 39.0718 107.11 39.1292 107.11 39.1292V37.9521C107.11 37.9521 105.933 37.866 105.071 37.8373V36.2584C105.588 36.2871 106.076 36.3158 106.593 36.3445V37.0622L107.799 37.1483V35.2536L102.976 34.9665V36.0861C102.976 36.0861 103.464 36.0861 103.722 36.1148V40.5933C103.492 40.5933 102.976 40.5646 102.976 40.5646V41.6842L107.913 41.9713V40.0478L106.708 39.9617V39.9904Z"></path>
<path fill="#004600" d="M114 35.9139C113.569 35.7416 113.167 35.6842 112.679 35.6268C111.502 35.512 109.895 35.3971 109.895 35.3971V36.5167C109.895 36.5167 110.383 36.5455 110.641 36.5742V41.0526C110.411 41.0526 109.895 40.9952 109.895 40.9952V42.1148C109.895 42.1148 111.473 42.2297 112.679 42.3445C112.88 42.3445 113.052 42.3445 113.253 42.3445C113.54 42.3445 113.799 42.3445 114.086 42.2297C115.349 41.9139 116.095 40.7943 116.095 39.244C116.095 37.6938 115.32 36.3732 114.029 35.8565L114 35.9139ZM111.99 36.7751C112.191 36.7751 112.421 36.8038 112.622 36.8325C112.995 36.8612 113.253 36.9187 113.54 37.0622C114.258 37.4067 114.66 38.2105 114.66 39.2153C114.66 40.1914 114.258 40.9091 113.598 41.1388C113.34 41.2249 113.052 41.2536 112.622 41.1962C112.392 41.1962 112.191 41.1675 111.962 41.1388V36.7751H111.99Z"></path>
<path fill="#004600" d="M121.091 36.488V38.6411L122.268 38.7847V37.8086C122.584 37.8373 122.9 37.8947 123.216 37.9234V42.3445C122.957 42.3158 122.469 42.2584 122.469 42.2584V43.378L125.311 43.7512V42.6316C125.311 42.6316 124.823 42.5742 124.565 42.5455V38.1244C124.881 38.1531 125.196 38.2105 125.512 38.2392V39.2153L126.689 39.3876V37.2344L121.062 36.5167L121.091 36.488Z"></path>
<path fill="#004600" d="M132.287 42.8325V43.5789C131.742 43.4928 131.196 43.4067 130.651 43.3206V41.7129C131.627 41.8564 132.689 42.0287 132.689 42.0287V40.8517C132.689 40.8517 131.541 40.6794 130.651 40.5359V38.9856C131.139 39.0718 131.656 39.1292 132.144 39.2153V39.933L133.321 40.134V38.2392L128.526 37.5215V38.6411C128.526 38.6411 128.986 38.6985 129.273 38.756V43.2344C129.014 43.2057 128.526 43.1196 128.526 43.1196V44.2392L133.435 44.9856V43.0622L132.258 42.8612L132.287 42.8325Z"></path>
<path fill="#004600" d="M140.814 45.1005C140.153 42.9474 138.976 39.1579 138.976 39.1579L137.541 38.8995C137.541 38.8995 136.651 41.4832 135.703 44.1818L135.101 44.067V45.1866L137.627 45.6172V44.4976L137.053 44.4115L137.369 43.4641C137.971 43.5789 138.546 43.6651 139.148 43.7799L139.464 44.8421L138.919 44.7273V45.8469L141.445 46.3062V45.1866L140.871 45.0718L140.814 45.1005ZM138.258 40.7081C138.258 40.7368 138.804 42.5741 138.804 42.5741C138.431 42.5167 138.058 42.4306 137.684 42.3732C137.684 42.3732 138.23 40.7368 138.258 40.7081Z"></path>
</svg>
