<svg xmlns="http://www.w3.org/2000/svg" fill="none" viewBox="0 0 177 39" height="39" width="177">
<path fill="#FF5528" d="M42.057 5.19621C36.8321 12.4019 34.191 24.6603 33.9326 33.1579C36.2293 32.6986 38.5546 32.268 40.8513 31.8661C40.8513 29.9426 40.9087 28.1053 41.1097 26.2393C43.7508 25.7799 46.3632 25.378 49.0044 25.0048C49.2053 26.7847 49.2915 28.622 49.2628 30.5455C51.5307 30.2297 53.8274 29.9426 56.0953 29.6555C55.8082 21.2441 52.9374 9.70339 47.9135 4.24884C45.9613 4.53592 43.9805 4.85171 42.0283 5.1675L42.057 5.19621ZM42.0283 20.756C42.6886 17.8278 43.6934 14.8134 45.0427 11.5407C46.4207 14.3828 47.3967 17.0814 48.0857 19.8086C46.0762 20.0957 44.0379 20.4115 42.0283 20.756Z"></path>
<path fill="#FF5528" d="M145.722 33.8183C145.464 25.3207 142.622 12.8614 137.598 5.77047C135.646 5.42597 133.694 5.08148 131.713 4.76569C126.488 10.2776 123.818 21.6748 123.56 30.0863C125.799 30.3733 128.009 30.6891 130.249 31.0336C130.249 29.1102 130.306 27.2729 130.507 25.493C133.177 25.8949 135.847 26.3542 138.517 26.8422C138.717 28.7083 138.804 30.5456 138.775 32.469C141.1 32.8997 143.397 33.359 145.722 33.847V33.8183ZM131.426 20.2968C132.115 17.5408 133.119 14.8135 134.497 11.9427C135.904 15.2729 136.909 18.3446 137.569 21.3303C135.502 20.9571 133.464 20.6126 131.397 20.2968H131.426Z"></path>
<path fill="#FF5528" d="M159.56 10.622C159.56 15.9617 158.699 19.5502 156.46 21.8181C154.192 18.4019 153.244 14.354 153.244 9.01431C150.919 8.44015 148.565 7.9234 146.211 7.43536C146.211 14.4976 148.823 22.1339 152.814 26.6985V35.3971C155.053 35.9425 157.292 36.488 159.532 37.0909V28.3923C163.378 24.7177 166.077 19.4928 166.077 12.4306C163.924 11.799 161.742 11.1961 159.589 10.622H159.56Z"></path>
<path fill="#FF5528" d="M23.1675 9.0431V19.8948C21.1292 20.3828 19.0622 20.8996 17.024 21.445V10.5933C14.7847 11.1962 12.5455 11.7991 10.335 12.4594V38.9283C12.5742 38.268 14.7847 37.6651 17.024 37.0622V27.3015C19.0622 26.756 21.1005 26.2393 23.1675 25.7512V35.512C25.4067 34.9665 27.6747 34.4498 29.9139 33.9905V7.49286C27.646 7.9809 25.4067 8.49764 23.1675 9.01439V9.0431Z"></path>
<path fill="#FF5528" d="M110.411 2.23916C108.258 2.06691 103.263 1.75112 100.65 1.63629V28.1052C103.406 28.2487 106.708 28.3923 110.268 28.7081C118.335 29.3684 121.148 23.11 121.148 15.5884C121.148 8.12433 118.449 2.89945 110.411 2.23916ZM109.981 22.9377C109.177 22.8803 108.344 22.8229 107.54 22.7655V7.77983C108.402 7.83725 109.263 7.89466 110.095 7.98079C113.512 8.26787 113.856 11.1961 113.856 14.842C113.856 18.488 113.426 23.2248 109.981 22.9664V22.9377Z"></path>
<path fill="#FF5528" d="M66.8329 21.2729V2.18195C64.5363 2.35419 62.2683 2.55515 59.9717 2.78482V22.8805C59.9717 26.4116 62.8425 28.9666 66.4023 28.6796C69.6463 28.4212 72.8903 28.2202 76.1344 28.0767V22.3063C73.5793 22.4212 70.9956 22.5647 68.4406 22.737C67.5506 22.7944 66.8329 22.1341 66.8329 21.2729Z"></path>
<path fill="#FF5528" d="M88.708 7.14835C91.062 7.14835 93.4448 7.17706 95.7989 7.26318V1.46414C92.7558 1.37801 89.7127 1.34931 86.641 1.37801C83.0812 1.37801 80.1816 4.33495 80.1816 7.86605V27.9618C82.4783 27.9043 84.7749 27.8469 87.0716 27.8469V19.0909C89.6266 19.0909 92.1816 19.0909 94.7654 19.1771V13.6651C92.2104 13.6077 89.6553 13.579 87.0716 13.579V8.756C87.0716 7.86605 87.7893 7.14835 88.6793 7.14835H88.708Z"></path>
<path fill="#FF5528" d="M171.244 14.067C169.436 14.067 168.201 15.3015 168.201 17.0527C168.201 18.8039 169.464 20.0383 171.244 20.0383C173.024 20.0383 174.287 18.8039 174.287 17.0527C174.287 15.3015 173.024 14.067 171.244 14.067ZM171.244 19.3493C169.866 19.3493 168.948 18.4307 168.948 17.0527C168.948 15.6747 169.866 14.7847 171.244 14.7847C172.622 14.7847 173.512 15.7034 173.512 17.0527C173.512 18.4019 172.594 19.3493 171.244 19.3493ZM172.536 16.5359C172.536 15.7321 171.933 15.5024 171.33 15.5024H170.239V18.4594H170.986V17.8852C171.101 17.8565 171.273 17.7991 171.445 17.7417C171.589 18 171.704 18.2584 171.761 18.4881H172.622C172.536 18.1149 172.364 17.7417 172.134 17.3972C172.393 17.1962 172.565 16.9378 172.565 16.5646L172.536 16.5359ZM171.015 17.1962V16.1053H171.216C171.531 16.1053 171.732 16.2201 171.732 16.5646C171.732 16.9091 171.216 17.1388 171.015 17.1962Z"></path>
</svg>
