<svg xmlns="http://www.w3.org/2000/svg" fill="none" viewBox="0 0 177 39" height="39" width="177">
<path fill="#FF7832" d="M42.057 5.19615C36.8321 12.4019 34.191 24.6603 33.9326 33.1579C36.2293 32.6985 38.5546 32.2679 40.8513 31.866C40.8513 29.9426 40.9087 28.1052 41.1097 26.2392C43.7508 25.7799 46.3632 25.378 49.0044 25.0048C49.2053 26.7847 49.2915 28.622 49.2628 30.5454C51.5307 30.2296 53.8274 29.9426 56.0953 29.6555C55.8082 21.244 52.9374 9.70332 47.9135 4.24878C45.9613 4.53586 43.9805 4.85165 42.0283 5.16744L42.057 5.19615ZM42.0283 20.756C42.6886 17.8277 43.6934 14.8134 45.0427 11.5406C46.4207 14.3828 47.3967 17.0813 48.0857 19.8086C46.0762 20.0957 44.0379 20.4115 42.0283 20.756Z"></path>
<path fill="#FF7832" d="M145.722 33.8183C145.464 25.3207 142.622 12.8613 137.598 5.77041C135.646 5.42591 133.694 5.08141 131.713 4.76562C126.488 10.2776 123.818 21.6747 123.56 30.0862C125.799 30.3733 128.009 30.6891 130.249 31.0336C130.249 29.1101 130.306 27.2728 130.507 25.4929C133.177 25.8948 135.847 26.3541 138.517 26.8422C138.717 28.7082 138.804 30.5455 138.775 32.469C141.1 32.8996 143.397 33.3589 145.722 33.847V33.8183ZM131.426 20.2967C132.115 17.5407 133.119 14.8135 134.497 11.9427C135.904 15.2728 136.909 18.3446 137.569 21.3302C135.502 20.957 133.464 20.6125 131.397 20.2967H131.426Z"></path>
<path fill="#FF7832" d="M159.56 10.6219C159.56 15.9616 158.699 19.5501 156.46 21.8181C154.192 18.4018 153.244 14.354 153.244 9.01425C150.919 8.44009 148.565 7.92334 146.211 7.4353C146.211 14.4975 148.823 22.1339 152.814 26.6985V35.397C155.053 35.9425 157.292 36.4879 159.532 37.0908V28.3922C163.378 24.7176 166.077 19.4927 166.077 12.4305C163.924 11.7989 161.742 11.1961 159.589 10.6219H159.56Z"></path>
<path fill="#FF7832" d="M23.1675 9.04291V19.8946C21.1292 20.3826 19.0622 20.8994 17.024 21.4448V10.5932C14.7847 11.196 12.5455 11.7989 10.335 12.4592V38.9281C12.5742 38.2678 14.7847 37.6649 17.024 37.0621V27.3013C19.0622 26.7558 21.1005 26.2391 23.1675 25.751V35.5118C25.4067 34.9664 27.6747 34.4496 29.9139 33.9903V7.49268C27.646 7.98071 25.4067 8.49746 23.1675 9.01421V9.04291Z"></path>
<path fill="#FF7832" d="M110.411 2.2391C108.258 2.06685 103.263 1.75106 100.65 1.63623V28.1051C103.406 28.2487 106.708 28.3922 110.268 28.708C118.335 29.3683 121.148 23.1099 121.148 15.5884C121.148 8.12427 118.449 2.89939 110.411 2.2391ZM109.981 22.9377C109.177 22.8803 108.344 22.8228 107.54 22.7654V7.77977C108.402 7.83719 109.263 7.8946 110.095 7.98073C113.512 8.26781 113.856 11.196 113.856 14.842C113.856 18.4879 113.426 23.2248 109.981 22.9664V22.9377Z"></path>
<path fill="#FF7832" d="M66.8329 21.2728V2.18188C64.5363 2.35413 62.2683 2.55509 59.9717 2.78476V22.8805C59.9717 26.4116 62.8425 28.9666 66.4023 28.6795C69.6463 28.4211 72.8903 28.2202 76.1344 28.0766V22.3063C73.5793 22.4211 70.9956 22.5647 68.4406 22.7369C67.5506 22.7943 66.8329 22.134 66.8329 21.2728Z"></path>
<path fill="#FF7832" d="M88.7082 7.14829C91.0623 7.14829 93.4451 7.177 95.7991 7.26312V1.46408C92.7561 1.37795 89.713 1.34924 86.6412 1.37795C83.0814 1.37795 80.1819 4.33489 80.1819 7.86599V27.9617C82.4785 27.9043 84.7752 27.8469 87.0718 27.8469V19.0909C89.6269 19.0909 92.1819 19.0909 94.7656 19.177V13.665C92.2106 13.6076 89.6556 13.5789 87.0718 13.5789V8.75594C87.0718 7.86599 87.7895 7.14829 88.6795 7.14829H88.7082Z"></path>
<path fill="#FF7832" d="M171.244 14.0669C169.435 14.0669 168.201 15.3013 168.201 17.0525C168.201 18.8037 169.464 20.0382 171.244 20.0382C173.024 20.0382 174.287 18.8037 174.287 17.0525C174.287 15.3013 173.024 14.0669 171.244 14.0669ZM171.244 19.3492C169.866 19.3492 168.947 18.4305 168.947 17.0525C168.947 15.6746 169.866 14.7846 171.244 14.7846C172.622 14.7846 173.512 15.7033 173.512 17.0525C173.512 18.4018 172.593 19.3492 171.244 19.3492ZM172.536 16.5358C172.536 15.732 171.933 15.5023 171.33 15.5023H170.239V18.4592H170.986V17.8851C171.1 17.8564 171.273 17.799 171.445 17.7415C171.588 17.9999 171.703 18.2583 171.761 18.4879H172.622C172.536 18.1147 172.364 17.7415 172.134 17.397C172.392 17.1961 172.565 16.9377 172.565 16.5645L172.536 16.5358ZM171.014 17.1961V16.1052H171.215C171.531 16.1052 171.732 16.22 171.732 16.5645C171.732 16.909 171.215 17.1387 171.014 17.1961Z"></path>
</svg>
