<svg xmlns="http://www.w3.org/2000/svg" fill="none" viewBox="0 0 354 96" height="96" width="354">
<path fill="#FF7832" d="M84.273 10.3923C73.8232 24.8038 68.5409 49.3205 68.0242 66.3157C72.6175 65.3971 77.2682 64.5358 81.8615 63.732C81.8615 59.8851 81.9763 56.2105 82.3782 52.4784C87.6605 51.5598 92.8854 50.7559 98.1677 50.0095C98.5696 53.5693 98.7419 57.244 98.6845 61.0909C103.22 60.4593 107.814 59.8851 112.35 59.311C111.775 42.488 106.034 19.4066 95.9859 8.49756C92.0816 9.07172 88.1199 9.7033 84.2156 10.3349L84.273 10.3923ZM84.2156 41.5119C85.5361 35.6555 87.5457 29.6267 90.2443 23.0813C93.0002 28.7655 94.9524 34.1626 96.3304 39.6172C92.3113 40.1913 88.2347 40.8229 84.2156 41.5119Z"></path>
<path fill="#FF7832" d="M291.603 67.6365C291.086 50.6413 285.402 25.7226 275.354 11.5408C271.45 10.8518 267.546 10.1628 263.584 9.53125C253.134 20.5552 247.794 43.3494 247.278 60.1724C251.756 60.7466 256.177 61.3781 260.656 62.0671C260.656 58.2202 260.77 54.5456 261.172 50.9858C266.512 51.7896 271.852 52.7083 277.191 53.6844C277.593 57.4164 277.766 61.0911 277.708 64.9379C282.359 65.7992 286.952 66.7179 291.603 67.6939V67.6365ZM263.01 40.5934C264.388 35.0815 266.397 29.6269 269.153 23.8853C271.967 30.5456 273.976 36.6891 275.297 42.6604C271.163 41.914 267.086 41.225 262.952 40.5934H263.01Z"></path>
<path fill="#FF7832" d="M319.278 21.2438C319.278 31.9232 317.555 39.1003 313.077 43.6362C308.541 36.8036 306.646 28.7079 306.646 18.0285C301.995 16.8802 297.287 15.8467 292.579 14.8706C292.579 28.995 297.804 44.2677 305.785 53.3969V70.794C310.263 71.885 314.742 72.9759 319.22 74.1816V56.7845C326.914 49.4352 332.311 38.9854 332.311 24.861C328.005 23.5979 323.641 22.3921 319.335 21.2438H319.278Z"></path>
<path fill="#FF7832" d="M46.493 18.0858V39.7892C42.4164 40.7653 38.2824 41.7987 34.2059 42.8897V21.1863C29.7274 22.3921 25.2489 23.5978 20.8279 24.9184V77.8562C25.3063 76.5356 29.7274 75.3299 34.2059 74.1241V54.6026C38.2824 53.5117 42.359 52.4782 46.493 51.5021V71.0236C50.9714 69.9327 55.5073 68.8992 59.9858 67.9806V14.9854C55.4499 15.9614 50.9714 16.9949 46.493 18.0284V18.0858Z"></path>
<path fill="#FF7832" d="M220.981 4.4782C216.675 4.13371 206.684 3.50213 201.459 3.27246V56.2103C206.971 56.4973 213.574 56.7844 220.694 57.416C236.828 58.7366 242.455 46.2198 242.455 31.1768C242.455 16.2485 237.058 5.79878 220.981 4.4782ZM220.12 45.8753C218.512 45.7605 216.847 45.6457 215.239 45.5308V15.5595C216.962 15.6744 218.684 15.7892 220.349 15.9615C227.182 16.5356 227.871 22.3921 227.871 29.6839C227.871 36.9758 227.01 46.4495 220.12 45.9328V45.8753Z"></path>
<path fill="#FF7832" d="M133.823 42.5456V4.36377C129.23 4.70827 124.694 5.11018 120.101 5.56951V45.7609C120.101 52.8231 125.842 57.9332 132.962 57.359C139.45 56.8422 145.938 56.4403 152.426 56.1532V44.6126C147.316 44.8422 142.148 45.1293 137.038 45.4738C135.258 45.5887 133.823 44.2681 133.823 42.5456Z"></path>
<path fill="#FF7832" d="M177.574 14.2966C182.283 14.2966 187.048 14.354 191.756 14.5262V2.92815C185.67 2.75591 179.584 2.69849 173.44 2.75591C166.321 2.75591 160.522 8.66978 160.522 15.732V55.9234C165.115 55.8085 169.708 55.6937 174.302 55.6937V38.1817C179.412 38.1817 184.522 38.1817 189.689 38.354V27.3301C184.579 27.2152 179.469 27.1578 174.302 27.1578V17.5119C174.302 15.732 175.737 14.2966 177.517 14.2966H177.574Z"></path>
<path fill="#FF7832" d="M342.646 28.1338C339.029 28.1338 336.56 30.6027 336.56 34.1051C336.56 37.6075 339.086 40.0764 342.646 40.0764C346.206 40.0764 348.732 37.6075 348.732 34.1051C348.732 30.6027 346.206 28.1338 342.646 28.1338ZM342.646 38.6984C339.89 38.6984 338.053 36.8611 338.053 34.1051C338.053 31.3491 339.89 29.5692 342.646 29.5692C345.402 29.5692 347.182 31.4065 347.182 34.1051C347.182 36.8036 345.345 38.6984 342.646 38.6984ZM345.23 33.0716C345.23 31.4639 344.024 31.0046 342.818 31.0046H340.637V36.9185H342.129V35.7702C342.359 35.7127 342.704 35.5979 343.048 35.4831C343.335 35.9998 343.565 36.5166 343.68 36.9759H345.402C345.23 36.2295 344.885 35.4831 344.426 34.7941C344.943 34.3922 345.287 33.8754 345.287 33.129L345.23 33.0716ZM342.187 34.3922V32.2103H342.589C343.22 32.2103 343.622 32.44 343.622 33.129C343.622 33.818 342.589 34.2773 342.187 34.3922Z"></path>
<path fill="#004600" d="M78.5313 77.7988V80.0381C78.5313 80.0381 79.5648 79.8658 80.0241 79.751C80.0241 79.751 80.0241 86.0094 80.0241 86.0668L74.7418 78.4304L70.7227 79.1768V81.4161C70.7227 81.4161 71.6987 81.2438 72.2155 81.129V90.0859C71.7561 90.2007 70.7227 90.373 70.7227 90.373V92.6122L76.4069 91.5787V89.3395C76.4069 89.3395 75.3734 89.5118 74.914 89.6266C74.914 89.6266 74.914 83.4256 74.914 83.3682L80.1963 90.9472L82.7801 90.4878V79.2917C83.2394 79.2342 84.2729 79.062 84.2729 79.062V76.8228L78.5887 77.7988H78.5313Z"></path>
<path fill="#004600" d="M95.7562 84.6315V86.1243C94.6652 86.2965 93.5743 86.4688 92.4834 86.5836V83.3683C94.4356 83.0812 96.56 82.7941 96.56 82.7941V80.4401C96.56 80.4401 94.2059 80.7846 92.4834 81.0142V77.9138C93.4595 77.7415 94.493 77.6267 95.4691 77.4544V78.8898L97.8231 78.5453V74.7559L88.2346 76.1913V78.4305C88.2346 78.4305 89.2107 78.2583 89.7274 78.2008V87.1578C89.2681 87.2152 88.2346 87.3874 88.2346 87.3874V89.6267L98.0528 88.1339V84.287L95.6987 84.6315H95.7562Z"></path>
<path fill="#004600" d="M113.842 72.6887V74.9279C113.842 74.9279 114.761 74.8131 115.22 74.7557L113.67 81.9901L111.316 72.9184L109.134 73.148L106.78 82.794L105.23 75.904C105.632 75.904 106.608 75.7318 106.608 75.7318V73.4925L101.383 74.1815V76.4208L102.589 76.2485L105.23 87.1002L108.101 86.7557C108.101 86.7557 110.225 78.1433 110.225 78.0858L112.35 86.2389L115.278 85.8945C115.278 85.8945 116.771 79.4064 117.919 74.4112L119.067 74.2964V72.0571L113.785 72.6313L113.842 72.6887Z"></path>
<path fill="#004600" d="M136.981 80.2105V81.7033C135.89 81.7607 134.799 81.8755 133.708 81.933V78.7177C135.66 78.5454 137.785 78.4306 137.785 78.4306V76.0765C137.785 76.0765 135.431 76.2488 133.708 76.3636V73.2057C134.742 73.1483 135.718 73.0334 136.751 72.976V74.4114L139.163 74.2392V70.4497L129.517 71.1961V73.4354C129.517 73.4354 130.493 73.3779 131.01 73.3205V82.2775C130.493 82.2775 129.517 82.3923 129.517 82.3923V84.6315L139.392 83.8851V80.0382L136.981 80.2105Z"></path>
<path fill="#004600" d="M153.919 80.5548L152.483 77.9136C152.369 77.6839 152.196 77.5117 152.082 77.3969C153.459 76.7079 154.263 75.3299 154.263 73.6074C154.263 71.7701 153.345 70.5069 151.794 69.9902C151.163 69.8179 150.416 69.7605 149.383 69.8179C146.971 69.9328 143.699 70.105 143.699 70.105V72.3442C143.699 72.3442 144.675 72.3442 145.192 72.2868V81.2438C144.675 81.2438 143.699 81.3012 143.699 81.3012V83.5404L149.326 83.2533V81.0141C149.326 81.0141 148.349 81.0141 147.89 81.0715V78.3155H148.809C149.44 78.2581 149.613 78.3155 149.785 78.7749L151.565 82.0476C152.024 82.9088 152.426 83.0811 153.517 83.0811C154.034 83.0811 155.182 83.0237 155.182 83.0237V80.7844H154.55C154.148 80.7844 154.034 80.7844 153.919 80.5548ZM151.565 73.8945C151.565 75.1002 150.933 75.8466 149.785 75.904C149.153 75.904 148.579 75.9615 147.948 76.0189V72.2868C148.464 72.2868 148.924 72.2868 149.44 72.2294C150.015 72.2294 150.416 72.2294 150.761 72.4016C151.335 72.6313 151.622 73.1481 151.622 73.9519L151.565 73.8945Z"></path>
<path fill="#004600" d="M165.919 69.3013L162.991 69.3587C162.991 69.3587 161.153 74.9281 159.258 80.6697H158.053V82.9663L163.163 82.7941V80.5549H162.014L162.646 78.5453C163.852 78.5453 165.058 78.5453 166.263 78.4879L166.895 80.4974H165.747V82.7367L170.857 82.6793V80.44H169.651C168.33 76.4783 165.919 69.3013 165.919 69.3013ZM164.483 72.6888C164.483 72.7462 165.632 76.1912 165.632 76.1912C164.885 76.1912 164.139 76.1912 163.392 76.1912C163.392 76.1912 164.483 72.6888 164.541 72.6314L164.483 72.6888Z"></path>
<path fill="#004600" d="M180.962 69.1865V71.4258C180.962 71.4258 181.938 71.4258 182.455 71.4258V80.3827C181.938 80.3827 180.962 80.3827 180.962 80.3827V82.6219L186.704 82.6793V80.4401C186.704 80.4401 185.727 80.4401 185.211 80.4401V71.4832C185.727 71.4832 186.704 71.4832 186.704 71.4832V69.2439L180.962 69.1865Z"></path>
<path fill="#004600" d="M199.507 78.5454V79.8085C199.507 79.9808 199.45 80.0956 199.335 80.2105C198.876 80.6698 197.67 80.7846 197.038 80.7846C194.627 80.7272 192.962 78.7176 192.962 76.0191C192.962 73.3205 193.364 73.6076 194.168 72.8612C194.857 72.1722 195.833 71.8277 196.866 71.8851C197.9 71.8851 199.335 72.287 199.335 73.0908V74.2966L201.861 74.4114V72.4018C201.861 70.1052 198.129 69.4162 196.809 69.4162C195.029 69.3588 193.421 69.9904 192.215 71.1387C190.952 72.4018 190.206 74.1243 190.206 76.1339C190.206 80.0956 193.077 83.1961 196.924 83.3109C197.038 83.3109 200.081 83.4258 201.459 82.1052C201.861 81.7033 202.034 81.244 202.034 80.7272V78.7176L199.507 78.6028V78.5454Z"></path>
<path fill="#004600" d="M213.574 79.981V81.4738C212.484 81.4164 211.393 81.3589 210.302 81.2441V78.0288C212.254 78.1436 214.378 78.2585 214.378 78.2585V75.9044C214.378 75.9044 212.024 75.7321 210.302 75.6747V72.5168C211.335 72.5743 212.311 72.6317 213.345 72.6891V74.1245L215.756 74.2967V70.5073L206.11 69.9331V72.1723C206.11 72.1723 207.086 72.1723 207.603 72.2298V81.1867C207.144 81.1867 206.11 81.1293 206.11 81.1293V83.3685L215.986 83.9427V80.0958L213.574 79.9235V79.981Z"></path>
<path fill="#004600" d="M228.158 71.8274C227.297 71.4829 226.493 71.3681 225.517 71.2533C223.163 71.0236 219.948 70.7939 219.948 70.7939V73.0332C219.948 73.0332 220.924 73.0906 221.44 73.148V82.1049C220.981 82.1049 219.948 81.9901 219.948 81.9901V84.2293C219.948 84.2293 223.105 84.459 225.517 84.6887C225.919 84.6887 226.263 84.6887 226.665 84.6887C227.239 84.6887 227.756 84.6887 228.33 84.459C230.857 83.8274 232.349 81.5882 232.349 78.4877C232.349 75.3872 230.799 72.7461 228.215 71.7126L228.158 71.8274ZM224.139 73.5499C224.541 73.5499 225 73.6073 225.402 73.6648C226.148 73.7222 226.665 73.837 227.239 74.1241C228.675 74.8131 229.479 76.4207 229.479 78.4303C229.479 80.3825 228.675 81.8179 227.354 82.2772C226.837 82.4494 226.263 82.5069 225.402 82.392C224.943 82.392 224.541 82.3346 224.081 82.2772V73.5499H224.139Z"></path>
<path fill="#004600" d="M242.34 72.9761V77.2823L244.694 77.5694V75.6172C245.326 75.6746 245.957 75.7895 246.589 75.8469V84.689C246.072 84.6316 245.096 84.5167 245.096 84.5167V86.756L250.78 87.5024V85.2632C250.78 85.2632 249.804 85.1483 249.287 85.0909V76.2488C249.919 76.3062 250.55 76.421 251.182 76.4785V78.4306L253.536 78.7751V74.4689L242.282 73.0335L242.34 72.9761Z"></path>
<path fill="#004600" d="M264.732 85.665V87.1578C263.641 86.9856 262.55 86.8133 261.459 86.6411V83.4257C263.412 83.7128 265.536 84.0573 265.536 84.0573V81.7033C265.536 81.7033 263.239 81.3588 261.459 81.0717V77.9712C262.436 78.1435 263.469 78.2583 264.445 78.4305V79.8659L266.799 80.2679V76.4784L257.211 75.043V77.2822C257.211 77.2822 258.129 77.397 258.704 77.5119V86.4688C258.187 86.4114 257.211 86.2391 257.211 86.2391V88.4784L267.029 89.9712V86.1243L264.675 85.7224L264.732 85.665Z"></path>
<path fill="#004600" d="M281.785 90.2007C280.464 85.8945 278.11 78.3156 278.11 78.3156L275.24 77.7988C275.24 77.7988 273.46 82.9663 271.565 88.3634L270.359 88.1338V90.373L275.412 91.2342V88.995L274.263 88.8228L274.895 86.928C276.101 87.1577 277.249 87.3299 278.455 87.5596L279.086 89.684L277.995 89.4543V91.6936L283.048 92.6122V90.373L281.9 90.1433L281.785 90.2007ZM276.675 81.4161C276.675 81.4735 277.766 85.1481 277.766 85.1481C277.019 85.0333 276.273 84.861 275.527 84.7462C275.527 84.7462 276.618 81.4735 276.675 81.4161Z"></path>
</svg>
