<svg viewBox="0 0 267.22 257.43" xmlns:xlink="http://www.w3.org/1999/xlink" xmlns="http://www.w3.org/2000/svg" data-name="Layer 2" id="Layer_2">
  <defs>
    <style>
      .cls-1 {
        fill: none;
      }

      .cls-2 {
        fill: #06de00;
      }

      .cls-3 {
        fill: #fff;
      }

      .cls-4 {
        fill: #feb938;
      }

      .cls-5 {
        fill: #fff073;
      }

      .cls-6 {
        fill: #004600;
      }

      .cls-7 {
        fill: #e55901;
      }

      .cls-8 {
        clip-path: url(#clippath);
      }
    </style>
    <clipPath id="clippath">
      <path d="M158.9,121.19c.12-.46.2-.92.24-1.38.37-4.17-.84-8.39-3.02-11.93-.5-.82-1.06-1.6-1.66-2.35s-1.12-1.5-1.89-2.03c-.04-.03-.08-.05-.12-.05-.05,0-.1.04-.14.08-.16.17-.21.41-.21.65s.01.47-.03.69c-1.25-1.49-2.68-2.84-4.09-4.17-.32-.3-.64-.61-.96-.91-1.03-.97-2.07-1.96-3.32-2.63-.24-.13-.57-.24-.76-.04-.13.13-.13.35-.11.54.06.42.18.84.36,1.23-2.11-1.48-4.45-2.93-6.67-4.24-.56-.33-1.11-.66-1.7-.93-.62-.29-1.26.06-.88.75-1.91-.99-4-2.01-5.93-2.97-.98-.49-1.98-.98-3.05-1.19-.23-.05-.37.06-.33.29.04.26.1.51.2.75-1.1-.62-2.25-1.14-3.34-1.8-1.09-.66-2.15-1.37-3.17-2.13-.6-.45-1.2-.93-1.89-1.24-.07-.03-.14-.06-.21-.04-.13.03-.17.2-.17.33,0,.21.03.4.05.6.02.16.05.21-.14.15-.09-.03-.17-.06-.26-.09-.35-.13-.68-.29-1.01-.48-.47-.27-.95-.53-1.4-.83-.99-.65-1.91-1.42-2.77-2.24s-1.63-1.72-2.37-2.64c-.24-.3-.56-.64-.94-.54-.4.1-.5.59-.48.94-.67-.41-1.45-.96-2.01-1.51-1.73-1.72-2.77-3.98-3.92-6.13-.14-.26-.29-.54-.52-.73-.8-.67-1.4.03-1.69.78-.63,1.64-.87,3.34-1.25,5.04-.52,2.33-.92,4.75-.79,7.14-.28-.29-.65-.57-1.03-.42-.4.16-.44.69-.43,1.11.06,1.58.14,3.17.29,4.74.14,1.47.5,2.93.6,4.39-.21-.22-.39-.49-.66-.65-.19-.11-.47-.11-.59.07-.04.07-.05.14-.06.22-.01.17,0,.34.03.51.32,2.57,1.2,5.08,2.56,7.28-.31-.07-.55,0-.87.02-.13,0-.26.03-.35.12-.07.08-.09.19-.1.3,0,.31.1.61.22.9.52,1.27,1.14,2.5,1.85,3.67.72,1.19,1.64,2.22,2.41,3.36-.22.09-.42.12-.64.22-.18.08-.37.17-.43.36-.03.11,0,.24.02.35.24.86.74,1.62,1.26,2.34,1.2,1.65,2.59,3.17,4.14,4.5.15.13.21.14.37.26-.35.1-.68.28-.95.52-.06.05-.12.12-.14.19-.02.08.02.17.05.24.49,1.01,1.48,1.68,2.42,2.29,1.6,1.04,3.19,2.08,4.79,3.12-.23.16-.49.21-.68.41-.08.09-.17.19-.17.32,0,.13.09.24.18.33.38.38.82.7,1.26,1.01,2.46,1.72,5.28,3.23,8.32,3.5-.27.15-.44.35-.62.6-.07.09-.13.2-.11.31.02.15.17.24.31.31,2.79,1.37,6.01,1.84,9.08,1.34-.17.25-.28.52-.3.82,0,.09,0,.19.04.28.1.19.37.22.59.22,1.74-.01,3.47-.16,5.18-.44,1.66-.27,3.26-.77,4.91-1.09.02,0,.05-.02.05-.04s-.05-.01-.03,0c-.03.34-.03.67-.07,1.01,0,.1-.01.21.06.27.07.06.17.05.26.03,3.37-.62,6.96-2,9.65-4.15.12.19-.07.45-.04.68.17,1.12,2.44-.45,2.82-.73,1.82-1.31,3.39-2.98,4.6-4.87.9-1.4,1.8-3.12,2.24-4.82Z" class="cls-2"></path>
    </clipPath>
  </defs>
  <g id="Illustration">
    <g>
      <path d="M62.58,217.5c-2.29,0-4.61.24-6.9.43-5.15.43-10.28,1.06-15.36,2.02-4.06.77-8.13,1.57-12.01,3.01-3.7,1.37-7.83,3.49-10.03,6.91-.82,1.28-1.36,3.04-.74,4.51.88,2.09,3.86,2.65,5.8,3.26,4.15,1.3,8.5,1.9,12.8,2.52,2.74.4,5.49.74,8.24,1.02,7.1.74,14.23,1.31,21.35,1.78,4.85.32,9.69.59,14.55.83,5,.25,10.01.46,15.02.65,2.51.09,5.02.18,7.53.26,1.5.05,3,.07,4.5.17,1.07.07,4.5-.06,4.55,1.54.01.35-.19.68-.46.9-.27.22-.6.36-.92.5-.96.4-1.91.79-2.87,1.19-.85.35-1.73.73-2.37,1.39-.74.76-1.04,1.98-.39,2.91.68.99,1.92,1.21,3.02,1.42,1.53.28,3.08.42,4.63.55,5.69.48,11.39.88,17.09,1.21,5.65.32,11.29.55,16.94.68,2.11.05,4.22.09,6.33.13,5.56.09,11.12.13,16.68.13,35.26,0,83.11-.11,83.12-9.62.01-16.45-64.49-16.38-64.49-16.38l-58.41-13.92H62.58Z" class="cls-6"></path>
      <path d="M223,120.61s-4.65-32.3-29.11-42.19c-20.2-8.16-32.82,3.29-35.73,6.37-.12-.28-.23-.57-.34-.86-2.13-5.83-1.62-12.58,1.21-18.09,2.84-5.38,10.85-13.01.9-16.05-3.01-.83-6.21-1-9.31-1.07-17.78-.41-28.46,3.38-42.59-5.58-5.97-3.78-11.89-7.66-18.39-10.5-7.56-3.3-15.79-5.08-24.05-4.07-4.82.59-9.46,2.16-13.8,4.32-2.19,1.09-4.31,2.33-6.38,3.64-1.3.83-4.56,2.5-4.08,4.47.09.37.35.68.64.92.79.64,1.81.73,2.74,1.04,1.06.35,2.09.85,3.07,1.37,3.67,1.95,6.94,4.95,9.74,8,2.85,3.12,5.26,6.65,7.01,10.5,1.92,4.22,3.23,8.8,3.31,13.46,0,.61,0,1.2-.04,1.78-.28,4.21-1.82,7.83-4.05,11.53-3.59,5.96-7.96,11.46-12.44,16.77-2.42,2.86-4.91,5.67-7.44,8.43-25.18,27.5-12.61,65.19,9.72,95.38,0,0,9.61,12.71,15.81,17.36,4.06,3.04,17.74,4.96,32.09,5.92,0,0,11.36.31,20.93.04,14.61-.42,28.61-2.87,32.72-5.96,6.2-4.65,15.81-17.36,15.81-17.36,8.75-11.83,16-24.82,20.07-37.89,5.94,1.05,12.66.74,19.36-2.63,19.54-9.82,12.61-49.05,12.61-49.05ZM204.5,152.91c-3.72,2.08-7.21,2.93-10.17,3.17,1.3-14.74-2.42-29.02-13.64-41.28-4.18-4.55-8.26-9.22-12.07-14.08,3.24-5.77,7.4-9.94,12.73-10.78,21.19-3.34,28.32,31.57,28.32,31.57,0,0,5.37,25.51-5.17,31.4Z" class="cls-3"></path>
      <path d="M66.21,97.56s5.98-9.42,33.34-4.94c27.36,4.48,34.72-5.15,54.12-2.64l-37.1,20.15-23.91-.69-26.45-11.87Z" class="cls-7"></path>
      <path d="M153.67,89.98c4.02,7.58,11.47,17.32,22.29,29.14,10.26,11.2,14.08,25.1,11.37,41.31-2.39,14.26-9.82,30.14-21.49,45.92-2.55,3.36-10.06,12.72-14.53,16.08-1.84,1.35-12.58,4.21-29.07,4.68-8.75.25-19.21,0-20.45-.04-19.22-1.29-27.09-3.6-28.56-4.64-4.47-3.36-11.99-12.72-14.53-16.08-11.67-15.78-19.1-31.66-21.49-45.92-2.71-16.21,1.11-30.11,11.37-41.31,7.5-8.2,13.38-15.39,17.62-21.55,0,0,7.86-2.81,19.02,4.36,11.15,7.17,26.87,7.86,44.99-4.62,13.57-8.34,23.46-7.33,23.46-7.33Z" class="cls-4"></path>
      <g>
        <path d="M148.15,164.16s1.88.64,4.59,4.48c2.71,3.85,3.26,9.17,3.66,13.34.37,3.78-3.04,29.65-28.42,37.76-26.65,8.51-42.28-15.35-44.6-24.47,0,0-1.43-2.61,3.06-4.59l61.7-26.51Z" class="cls-5"></path>
        <path d="M85.75,191.2l60.82-27.07s1.01-.5,1.73.15.98,1.87,1.14,2.87,8.41,34.1-21.24,47.43c0,0-8.36,3.78-19.16.58-11.01-3.27-22.22-13.7-23.8-23.02-.07-.39.15-.78.51-.94Z" class="cls-3"></path>
        <g>
          <path d="M122.03,177.96s15.6-7.42,21.5-8.85c5.91-1.43,4,13.29,4,13.29,0,0-.32,6.2-4.02,5.03-4.4-1.39-15.77-4.93-21.12-7.6,0,0-2.38-.99-.36-1.87Z" class="cls-5"></path>
          <path d="M120.57,181.16l21.11,9.35s3.24,1.14,3,3.52c-.24,2.38-4.51,9.39-10.27,13.23,0,0-2.79,2.12-4.78-1.73-1.99-3.85-10.86-21.43-10.86-21.43,0,0-1.2-2.36-.66-3.15.46-.66,2.46.21,2.46.21Z" class="cls-5"></path>
          <path d="M91.52,191.37l19.13-8.68c.73-.33,1.49.39,1.2,1.14l-8.29,20.98s-1.98,4.4-5.99,1.57c-4.01-2.83-6.94-7.33-8.21-9.84-1.84-3.62,2.17-5.18,2.17-5.18Z" class="cls-5"></path>
          <path d="M106.11,205.68l7.73-22.44c.33-.95,1.65-1.01,2.06-.09,2.98,6.64,10.73,23.93,10.66,23.92-.09-.01,2.53,5.07-4.13,6.29-6.66,1.23-12.05-.71-14.53-1.95-3.1-1.54-2.28-4.3-1.79-5.73Z" class="cls-5"></path>
        </g>
        <g>
          <path d="M150.89,190.49c.58-.17.3-1.05-.26-.92s-.34,1.1.26.92Z" class="cls-3"></path>
          <path d="M152.93,190.43c.46-.35-.05-1.11-.54-.79-.52.34.03,1.16.54.79Z" class="cls-3"></path>
          <path d="M152.88,187.53c.08-.04.16-.11.2-.19.29-.49-.28-.97-.7-.58-.39.36-.02,1.03.49.77Z" class="cls-3"></path>
          <path d="M152.88,185.23c.14.14.37.18.55.09s.28-.31.24-.5c-.13-.78-1.36-.19-.79.41Z" class="cls-3"></path>
          <path d="M154.49,183.67c.13.17.4.21.58.1.23-.13.3-.48.14-.69-.39-.54-1.1.12-.72.6Z" class="cls-3"></path>
        </g>
        <g>
          <path d="M133.72,179.41c.1.1.23.17.37.23.79.35,1.69.46,2.55.31.32-.06.66-.17.81-.46.18-.34-.01-.78-.33-.99s-.72-.25-1.1-.24c-.59.01-1.17.11-1.73.28-.41.13-1.04.4-.56.88Z" class="cls-3"></path>
          <path d="M110.86,204.43c-.08.05-.15.12-.22.19-.38.44-.62,1-.69,1.58-.02.21-.01.46.14.61.18.18.5.14.7-.02s.3-.42.37-.66c.11-.38.16-.77.15-1.17,0-.29-.06-.75-.46-.53Z" class="cls-3"></path>
          <path d="M130.67,191.22c.05.41.34.75.64,1.04.15.15.31.29.48.42.22.17.45.33.72.39.27.06.58,0,.76-.21.21-.24.19-.62.03-.89s-.42-.47-.69-.65c-.16-.11-.33-.21-.5-.31-.39-.22-1.54-.68-1.44.21Z" class="cls-3"></path>
          <path d="M103.12,191.55c-.42-.03-.8.19-1.14.43-.17.12-.34.25-.51.39-.21.18-.41.38-.52.64s-.11.57.06.79c.2.25.57.3.87.2s.54-.32.77-.55c.14-.14.27-.29.4-.43.29-.34.96-1.39.07-1.46Z" class="cls-3"></path>
          <path d="M122.43,187.95c-.03.18.02.37.08.54.19.53.49,1.02.88,1.43.11.12.23.23.37.29s.32.09.46.03c.19-.09.3-.31.3-.52s-.08-.42-.18-.61c-.24-.46-.55-.88-.93-1.23-.14-.13-.39-.37-.6-.35-.2.01-.35.24-.38.42Z" class="cls-3"></path>
          <path d="M116.07,198.17c-.08.36-.12.76.03,1.1s.52.61.88.54c.33-.07.55-.38.7-.69.37-.78.49-1.67.34-2.52-.04-.23-.11-.47-.3-.6-.42-.32-.78.33-.97.61-.32.47-.56,1.01-.69,1.57Z" class="cls-3"></path>
        </g>
      </g>
      <g>
        <path d="M128.26,151.01s.28,1.96-1.92,6.12c-2.2,4.16-6.71,7.05-10.24,9.29-3.21,2.04-27.82,10.69-46.53-8.29-19.64-19.93-5.41-44.65,1.68-50.85,0,0,1.68-2.45,5.48.66l51.53,43.06Z" class="cls-5"></path>
        <path d="M75.93,107.56l51.63,42.02s.9.68.65,1.61-1.23,1.72-2.05,2.32-26.62,22.91-51.91,2.48c0,0-7.15-5.74-9.17-16.83-2.06-11.3,2.18-26.02,9.78-31.63.32-.24.76-.22,1.06.03Z" class="cls-3"></path>
        <g>
          <path d="M61.53,128.47c-.52,2.85-.83,5.78-.49,8.66.09.73.22,1.46.53,2.13.21.46.64.94,1.13.82.47-.12.64-.69.7-1.17.26-2.2-.04-4.46-.15-6.66-.11-2.22.05-4.44.48-6.62.13-.63.27-1.26.44-1.88.15-.56.33-1.12.32-1.7,0-.16-.03-.34-.14-.45-.52-.52-1.42,1.89-1.56,2.22-.61,1.5-.98,3.08-1.27,4.67Z" class="cls-3"></path>
          <path d="M62.65,142.98c-.13.41-.06.86.05,1.27.11.4.26.8.58,1.07.32.26.83.32,1.12.03.09-.09.15-.21.2-.33.2-.49.22-1.04.06-1.54-.3-.92-1.57-1.95-2.02-.5Z" class="cls-3"></path>
        </g>
        <g>
          <path d="M104.15,133.94s13.66,10.57,17.61,15.19c3.94,4.62-10.05,9.57-10.05,9.57,0,0-5.68,2.51-6.31-1.31-.75-4.55-2.73-16.3-2.76-22.27,0,0-.2-2.57,1.51-1.17Z" class="cls-5"></path>
          <path d="M100.63,134.08l1.2,23.05s.45,3.4-1.79,4.27c-2.23.87-10.41.22-16.44-3.18,0,0-3.15-1.53-.61-5.05,2.54-3.52,14.21-19.37,14.21-19.37,0,0,1.56-2.14,2.51-2.01.8.11.92,2.29.92,2.29Z" class="cls-5"></path>
          <path d="M78.4,112.79l16.38,13.14c.63.5.32,1.51-.48,1.58l-22.47,2.08s-4.82.22-4.11-4.63c.71-4.86,3.4-9.5,5.07-11.77,2.4-3.28,5.6-.41,5.6-.41Z" class="cls-5"></path>
          <path d="M72.22,132.27l23.51-3.25c.99-.14,1.65,1.01,1.01,1.79-4.58,5.66-16.5,20.38-16.52,20.32-.03-.08-3.38,4.55-7.48-.84-4.1-5.39-4.81-11.07-4.83-13.84-.02-3.46,2.8-3.98,4.3-4.19Z" class="cls-5"></path>
        </g>
        <g>
          <path d="M106.01,165.35c.41.44,1.07-.2.71-.65s-1.13.19-.71.65Z" class="cls-3"></path>
          <path d="M106.99,167.15c.52.26.96-.55.46-.83-.54-.31-1.02.55-.46.83Z" class="cls-3"></path>
          <path d="M109.55,165.79c.08.06.17.09.26.1.57.04.74-.69.2-.89-.5-.18-.93.45-.47.79Z" class="cls-3"></path>
          <path d="M111.59,164.75c-.07.19,0,.41.17.53s.4.11.56,0c.64-.47-.45-1.3-.73-.52Z" class="cls-3"></path>
          <path d="M113.72,165.48c-.09.19,0,.45.17.56.22.14.56.05.68-.18.3-.59-.61-.93-.86-.38Z" class="cls-3"></path>
        </g>
        <g>
          <path d="M108.14,145.03c-.04.14-.04.28-.04.43.04.87.35,1.72.88,2.41.19.26.45.51.77.51.38,0,.69-.36.74-.74s-.1-.75-.28-1.09c-.28-.52-.62-1-1.03-1.42-.3-.31-.83-.74-1.03-.1Z" class="cls-3"></path>
          <path d="M75.48,135.94c-.08-.05-.17-.08-.27-.11-.57-.14-1.17-.1-1.72.1-.2.08-.41.19-.48.4-.08.24.1.51.34.62s.5.08.76.03c.39-.08.76-.21,1.11-.39.26-.13.64-.39.26-.65Z" class="cls-3"></path>
          <path d="M96.22,147.65c-.35.23-.52.64-.64,1.04-.06.2-.12.41-.16.62-.06.27-.09.55-.02.82s.26.52.53.58c.31.07.63-.11.81-.38s.23-.59.27-.91c.02-.2.04-.39.05-.59.02-.44-.09-1.68-.84-1.19Z" class="cls-3"></path>
          <path d="M83.48,123.22c-.16-.38-.54-.63-.9-.82-.19-.1-.38-.19-.58-.27-.26-.11-.53-.19-.8-.18s-.56.16-.67.41c-.13.29,0,.65.22.87s.54.34.84.43c.19.06.38.11.57.16.43.11,1.67.23,1.33-.6Z" class="cls-3"></path>
          <path d="M95.41,138.82c-.18.06-.32.19-.45.32-.39.41-.69.9-.88,1.43-.05.15-.1.31-.09.47s.06.32.19.42c.16.13.41.13.6.03s.33-.26.46-.44c.3-.42.53-.89.68-1.39.05-.19.15-.52.04-.7-.1-.17-.37-.2-.54-.15Z" class="cls-3"></path>
          <path d="M83.42,137.76c-.36.09-.73.24-.97.52s-.31.74-.08,1.03c.21.26.59.32.93.31.86-.02,1.72-.32,2.4-.83.18-.14.37-.31.41-.54.09-.52-.64-.54-.98-.59-.57-.08-1.15-.04-1.71.1Z" class="cls-3"></path>
        </g>
      </g>
      <g>
        <path d="M62.31,199.84c-1.32-1.25-2.27-2.83-3.18-4.4-3.31-5.68-6.37-11.5-9.19-17.44-4.61-9.72-8.63-20.25-7.6-30.96.17-1.74.48-3.51,1.37-5.02.89-1.51,2.46-2.71,4.21-2.75,1.8-.04,3.45,1.14,4.41,2.66.96,1.52,1.34,3.32,1.6,5.1.72,4.96.64,10,1.29,14.96,1.42,10.99,6.3,21.22,11.52,30.99.99,1.85,2.02,3.77,2.15,5.86.29,4.51-4.56,2.91-6.58.99Z" class="cls-3"></path>
        <path d="M70,210c.44.95,1.18,1.72,1.96,2.42.32.29.66.57,1.06.74s.88.2,1.26-.01c.37-.21.6-.63.65-1.05s-.02-.85-.14-1.27c-.45-1.55-1.61-3.45-3.12-4.19-2.05-1.01-2.29,2-1.66,3.36Z" class="cls-3"></path>
      </g>
      <path d="M148.01,157.75s-30.84,40.1,3.59,78.68l18.74-8.64-22.33-70.05Z" class="cls-6"></path>
      <g>
        <path d="M238.45,212.81s.41,2.87-2.81,8.94c-3.22,6.07-9.79,10.29-14.95,13.57-4.69,2.97-40.62,15.6-67.92-12.1-28.67-29.09-7.9-65.18,2.45-74.23,0,0,2.46-3.58,8,.96l75.23,62.86Z" class="cls-5"></path>
        <path d="M162.07,149.38l75.37,61.34s1.32.99.95,2.35-1.79,2.51-2.99,3.38c-1.2.87-38.87,33.45-75.78,3.63,0,0-10.44-8.39-13.39-24.57-3.01-16.5,3.18-37.98,14.28-46.17.47-.34,1.11-.32,1.55.04Z" class="cls-3"></path>
        <g>
          <path d="M141.04,179.89c-.76,4.17-1.21,8.43-.71,12.64.13,1.06.32,2.13.77,3.1.31.67.94,1.37,1.66,1.19.69-.17.94-1,1.02-1.71.38-3.21-.06-6.51-.22-9.73-.16-3.23.07-6.49.7-9.66.18-.92.4-1.84.65-2.74.22-.82.48-1.64.46-2.48,0-.24-.04-.5-.21-.66-.76-.76-2.07,2.75-2.27,3.24-.89,2.18-1.42,4.5-1.85,6.81Z" class="cls-3"></path>
          <path d="M142.68,201.08c-.19.6-.08,1.25.08,1.86.15.58.38,1.17.84,1.56.46.38,1.21.47,1.64.05.13-.14.23-.31.3-.49.29-.71.32-1.52.09-2.25-.44-1.34-2.29-2.84-2.94-.72Z" class="cls-3"></path>
        </g>
        <g>
          <path d="M203.26,187.89s19.95,15.42,25.71,22.17c5.76,6.75-14.67,13.97-14.67,13.97,0,0-8.29,3.67-9.21-1.91-1.09-6.65-3.98-23.79-4.03-32.51,0,0-.29-3.75,2.2-1.71Z" class="cls-5"></path>
          <path d="M198.12,188.09l1.75,33.65s.65,4.97-2.61,6.23c-3.26,1.26-15.2.33-24-4.64,0,0-4.6-2.24-.9-7.37s20.74-28.27,20.74-28.27c0,0,2.28-3.13,3.67-2.93,1.17.16,1.34,3.34,1.34,3.34Z" class="cls-5"></path>
          <path d="M165.67,157.01l23.92,19.18c.91.73.47,2.21-.69,2.31l-32.79,3.04s-7.03.33-6-6.76c1.03-7.09,4.96-13.86,7.39-17.19,3.5-4.79,8.18-.59,8.18-.59Z" class="cls-5"></path>
          <path d="M156.65,185.44l34.33-4.74c1.45-.2,2.4,1.48,1.48,2.62-6.68,8.26-24.08,29.76-24.12,29.66-.04-.12-4.93,6.64-10.92-1.22-5.99-7.86-7.02-16.16-7.05-20.21-.04-5.05,4.09-5.81,6.27-6.11Z" class="cls-5"></path>
        </g>
        <g>
          <path d="M205.98,233.73c.6.64,1.56-.3,1.03-.95-.56-.68-1.65.28-1.03.95Z" class="cls-3"></path>
          <path d="M207.41,236.36c.76.38,1.41-.8.67-1.22-.79-.45-1.5.81-.67,1.22Z" class="cls-3"></path>
          <path d="M211.14,234.38c.11.08.25.13.38.14.83.06,1.08-1.01.3-1.29-.73-.27-1.36.65-.68,1.15Z" class="cls-3"></path>
          <path d="M214.13,232.86c-.1.27,0,.6.25.77s.58.16.81-.01c.93-.69-.65-1.9-1.06-.76Z" class="cls-3"></path>
          <path d="M217.22,233.93c-.13.28,0,.65.25.82.33.21.82.08,1-.27.44-.86-.89-1.36-1.25-.55Z" class="cls-3"></path>
        </g>
        <g>
          <path d="M209.08,204.07c-.06.2-.06.42-.05.63.06,1.26.52,2.51,1.28,3.52.28.37.66.74,1.13.75.56.01,1.01-.53,1.08-1.08s-.15-1.1-.41-1.59c-.4-.76-.91-1.46-1.51-2.07-.44-.45-1.21-1.09-1.51-.15Z" class="cls-3"></path>
          <path d="M161.41,190.8c-.12-.08-.26-.12-.39-.15-.83-.2-1.71-.15-2.51.15-.29.11-.6.28-.7.58-.11.36.15.75.49.9s.74.11,1.1.04c.56-.11,1.11-.31,1.62-.57.37-.2.93-.57.39-.94Z" class="cls-3"></path>
          <path d="M191.69,207.89c-.51.33-.76.94-.93,1.52-.09.3-.17.6-.23.9-.08.39-.13.81-.03,1.2s.39.75.78.85c.45.11.93-.17,1.18-.55s.34-.86.39-1.32c.03-.28.06-.57.07-.86.03-.65-.14-2.46-1.22-1.74Z" class="cls-3"></path>
          <path d="M173.08,172.23c-.23-.56-.78-.92-1.32-1.2-.28-.15-.56-.28-.84-.4-.37-.15-.77-.28-1.17-.26s-.81.24-.98.6c-.19.42-.01.94.32,1.27.33.33.78.49,1.22.63.27.09.55.16.83.23.63.15,2.44.33,1.94-.87Z" class="cls-3"></path>
          <path d="M190.51,195.01c-.26.08-.47.27-.66.47-.57.6-1.01,1.31-1.29,2.09-.08.22-.14.45-.14.68s.09.47.27.62c.24.2.6.19.88.05s.49-.38.67-.64c.44-.61.78-1.3.99-2.03.08-.27.22-.75.06-1.02-.15-.25-.54-.29-.79-.22Z" class="cls-3"></path>
          <path d="M173,193.46c-.53.13-1.06.35-1.42.76s-.46,1.08-.12,1.5c.31.38.86.46,1.35.45,1.26-.03,2.51-.46,3.51-1.22.27-.2.53-.45.59-.78.13-.76-.94-.79-1.43-.86-.83-.11-1.68-.06-2.49.14Z" class="cls-3"></path>
        </g>
      </g>
      <path d="M49.35,36.84s8.89-6.2,21.4-5.68c12.51.52,20.78,6,32.77,12.51,11.99,6.51,18.4,10.44,41.34,8.58,22.95-1.86,17.99,6.31,10.75,8.68-7.24,2.38-31.22,3.51-52.71-8.68-21.5-12.2-23.46-16.23-39.48-15.5,0,0-7.44.41-12.2,2.33s-5.01.05-1.86-2.22Z" class="cls-6"></path>
      <g>
        <path d="M54.48,43.74c6.25-1.61,12.87-2.39,19.24-.92,4.91,1.19,9.49,3.59,13.55,6.53.2.15.25.44.1.64-.14.19-.39.24-.59.13-4.88-2.59-10-4.96-15.5-5.69-5.52-.73-11.09.08-16.67.21-.53.01-.65-.77-.13-.9h0Z" class="cls-6"></path>
        <path d="M73.26,49.35c5.84.33,11.09,3.35,15.82,6.54.3.34,0,.86-.44.78-.61-.06-.78-.97-.09-1.03.25,0,.46.2.46.45,0-.08-.04-.17-.08-.22-.14-.17-.35-.13-.52,0-.21.18-.18.56.04.69-.02-.01-.07-.04-.1-.06-1.07-.65-2.24-1.33-3.34-1.92-3.63-1.97-7.69-3.61-11.82-3.66-1.05-.04-1.02-1.61.05-1.58h0Z" class="cls-6"></path>
        <path d="M155.02,67.58c-13,3.4-26.6-.11-38.74-4.9-.53-.22-.27-1.04.31-.86,9.16,3.16,18.7,5.61,28.41,5.02,3.18-.19,6.34-.72,9.35-1.64,1.59-.43,2.26,1.89.67,2.37h0Z" class="cls-6"></path>
        <path d="M142.17,74.15c-3.93-.1-7.84-.8-11.53-2.08-.24-.08-.37-.34-.28-.58.08-.23.33-.36.56-.29,3.66,1.07,7.47,1.57,11.26,1.49.98,0,.98,1.45,0,1.46h0Z" class="cls-6"></path>
      </g>
      <g>
        <g>
          <path d="M114.06,5.21l-18.4,3.2-8.89,3.31s10.13,3.1,11.89,13.23c0,0,10.47-9.26,25.5-15.63-6.03-2.45-10.1-4.11-10.1-4.11Z" class="cls-4"></path>
          <path d="M175.04,29.27c0,.1-.91-.18-2.5-.74l9.42,24.34s3.31-6.82,8.68-4.44c0,0-15.61-20-15.61-19.15Z" class="cls-4"></path>
          <path d="M154.6,21.57c-5.09-2.02-10.6-4.23-15.87-6.36l-13.87,22.45s17.31,2.27,30.85,10.13c0,0,.72-13.94-1.11-26.22Z" class="cls-4"></path>
        </g>
        <g>
          <path d="M124.16,9.32c-15.03,6.38-25.5,15.63-25.5,15.63,0,0,13.95.31,26.2,12.71l13.87-22.45c-5.33-2.15-10.42-4.21-14.57-5.9Z" class="cls-6"></path>
          <path d="M154.6,21.57c1.83,12.28,1.11,26.22,1.11,26.22,0,0,15.19-1.03,26.25,5.06l-9.42-24.34c-3.48-1.24-10.23-3.88-17.95-6.95Z" class="cls-6"></path>
        </g>
        <polygon points="141.47 18.59 109.94 97.41 113.02 98.34 144.11 19.59 141.47 18.59" class="cls-6"></polygon>
        <rect transform="translate(10.8 -51.19) rotate(20.34)" ry=".85" rx=".85" height="4.65" width="1.71" y="2.18" x="147.21" class="cls-6"></rect>
        <g>
          <path d="M86.77,11.72s6.69-3.82,23.84-1.43c9.17-6.38,14.25-8.6,14.25-8.6,0,0-21.03-1.34-38.09,10.03Z" class="cls-2"></path>
          <path d="M190.65,48.42s-4.13-12.87-11.99-22.64c-7.86-9.77-20.78-15.66-20.78-15.66,0,0,2.55,5.83,3.33,16.87,24.37,11.91,29.44,21.43,29.44,21.43Z" class="cls-2"></path>
        </g>
        <path d="M151.78,6.14c-4.7.72-10.44-2.38-12.4-3.77-1.96-1.4-7.44-4.17-14.52-.67,0,0-5.08,2.22-14.25,8.6,8.07,1.13,18.46,3.63,31.57,8.56,7.38,2.78,13.67,5.51,19.04,8.14-.77-11.04-3.33-16.87-3.33-16.87,0,0-1.4-4.7-6.1-3.98Z" class="cls-3"></path>
      </g>
      <g>
        <path d="M158.9,121.19c.12-.46.2-.92.24-1.38.37-4.17-.84-8.39-3.02-11.93-.5-.82-1.06-1.6-1.66-2.35s-1.12-1.5-1.89-2.03c-.04-.03-.08-.05-.12-.05-.05,0-.1.04-.14.08-.16.17-.21.41-.21.65s.01.47-.03.69c-1.25-1.49-2.68-2.84-4.09-4.17-.32-.3-.64-.61-.96-.91-1.03-.97-2.07-1.96-3.32-2.63-.24-.13-.57-.24-.76-.04-.13.13-.13.35-.11.54.06.42.18.84.36,1.23-2.11-1.48-4.45-2.93-6.67-4.24-.56-.33-1.11-.66-1.7-.93-.62-.29-1.26.06-.88.75-1.91-.99-4-2.01-5.93-2.97-.98-.49-1.98-.98-3.05-1.19-.23-.05-.37.06-.33.29.04.26.1.51.2.75-1.1-.62-2.25-1.14-3.34-1.8-1.09-.66-2.15-1.37-3.17-2.13-.6-.45-1.2-.93-1.89-1.24-.07-.03-.14-.06-.21-.04-.13.03-.17.2-.17.33,0,.21.03.4.05.6.02.16.05.21-.14.15-.09-.03-.17-.06-.26-.09-.35-.13-.68-.29-1.01-.48-.47-.27-.95-.53-1.4-.83-.99-.65-1.91-1.42-2.77-2.24s-1.63-1.72-2.37-2.64c-.24-.3-.56-.64-.94-.54-.4.1-.5.59-.48.94-.67-.41-1.45-.96-2.01-1.51-1.73-1.72-2.77-3.98-3.92-6.13-.14-.26-.29-.54-.52-.73-.8-.67-1.4.03-1.69.78-.63,1.64-.87,3.34-1.25,5.04-.52,2.33-.92,4.75-.79,7.14-.28-.29-.65-.57-1.03-.42-.4.16-.44.69-.43,1.11.06,1.58.14,3.17.29,4.74.14,1.47.5,2.93.6,4.39-.21-.22-.39-.49-.66-.65-.19-.11-.47-.11-.59.07-.04.07-.05.14-.06.22-.01.17,0,.34.03.51.32,2.57,1.2,5.08,2.56,7.28-.31-.07-.55,0-.87.02-.13,0-.26.03-.35.12-.07.08-.09.19-.1.3,0,.31.1.61.22.9.52,1.27,1.14,2.5,1.85,3.67.72,1.19,1.64,2.22,2.41,3.36-.22.09-.42.12-.64.22-.18.08-.37.17-.43.36-.03.11,0,.24.02.35.24.86.74,1.62,1.26,2.34,1.2,1.65,2.59,3.17,4.14,4.5.15.13.21.14.37.26-.35.1-.68.28-.95.52-.06.05-.12.12-.14.19-.02.08.02.17.05.24.49,1.01,1.48,1.68,2.42,2.29,1.6,1.04,3.19,2.08,4.79,3.12-.23.16-.49.21-.68.41-.08.09-.17.19-.17.32,0,.13.09.24.18.33.38.38.82.7,1.26,1.01,2.46,1.72,5.28,3.23,8.32,3.5-.27.15-.44.35-.62.6-.07.09-.13.2-.11.31.02.15.17.24.31.31,2.79,1.37,6.01,1.84,9.08,1.34-.17.25-.28.52-.3.82,0,.09,0,.19.04.28.1.19.37.22.59.22,1.74-.01,3.47-.16,5.18-.44,1.66-.27,3.26-.77,4.91-1.09.02,0,.05-.02.05-.04s-.05-.01-.03,0c-.03.34-.03.67-.07,1.01,0,.1-.01.21.06.27.07.06.17.05.26.03,3.37-.62,6.96-2,9.65-4.15.12.19-.07.45-.04.68.17,1.12,2.44-.45,2.82-.73,1.82-1.31,3.39-2.98,4.6-4.87.9-1.4,1.8-3.12,2.24-4.82Z" class="cls-2"></path>
        <g class="cls-8">
          <path d="M153.67,89.98c4.02,7.58,11.47,17.32,22.29,29.14,10.26,11.2,14.08,25.1,11.37,41.31-2.39,14.26-9.82,30.14-21.49,45.92-2.55,3.36-10.06,12.72-14.53,16.08-1.84,1.35-12.58,4.21-29.07,4.68-8.75.25-19.21,0-20.45-.04-19.22-1.29-27.09-3.6-28.56-4.64-4.47-3.36-11.99-12.72-14.53-16.08-11.67-15.78-19.1-31.66-21.49-45.92-2.71-16.21,1.11-30.11,11.37-41.31,7.5-8.2,13.38-15.39,17.62-21.55,0,0,7.86-2.81,19.02,4.36,11.15,7.17,26.87,7.86,44.99-4.62,13.57-8.34,23.46-7.33,23.46-7.33Z" class="cls-6"></path>
        </g>
      </g>
      <g>
        <path d="M108.96,118.46c-.1.34-.06.7.03,1.04.16.62.54,1.21,1.12,1.49s1.36.15,1.71-.39c.33-.5.2-1.17-.06-1.71-.2-.41-.49-.79-.87-1.04-.72-.46-1.67-.27-1.92.61Z" class="cls-3"></path>
        <path d="M118.61,128.23c1.59.51,3.27.7,4.86,1.23,1.92.64,3.74,1.78,5.76,1.78,1.32,0,2.53-.62,3.82-.59.4,0,.8,0,1.2,0,.93-.03,1.9-.12,2.7-.6.58-.35,1.05-.92,1.18-1.58.13-.67-.15-1.42-.73-1.77-.73-.44-1.94-.46-2.76-.41-.99.06-1.98.18-2.97.23-2.99.16-6-.37-8.81-1.38-.56-.2-1.12-.43-1.67-.65-.36-.15-.72-.29-1.07-.47-.44-.23-.85-.5-1.26-.76-.53-.34-1.07-.66-1.66-.84-.61-.18-1.81-.33-2.23.24-.35.47-.54,1.06-.52,1.65.07,2.07,2.47,3.38,4.18,3.92Z" class="cls-3"></path>
      </g>
      <path d="M100.06,78.38s-.09-.07-.12-.12c.03.05.07.1.12.12Z" class="cls-1"></path>
      <path d="M99.91,78.21s.02.03.03.05c0-.02-.02-.03-.03-.05Z" class="cls-6"></path>
      <path d="M164.21,120.73c-.38.02-.82.02-1.24.03-6.38-.02-12.77-.9-18.94-2.52-9.52-2.45-18.45-7.11-25.59-13.89-.15-.14-.3-.28-.45-.42l-1.92.72c1.92,1.93,3.93,3.75,6,5.48,11.83,9.38,27.3,13.75,42.25,14.01,2.33-.13,2.16-3.45-.1-3.42Z" class="cls-2"></path>
      <path d="M101.54,80.33c-.2-.59-.41-1.23-.59-1.84-.03-.09-.11-.4-.14-.48l-.03-.09v-.02c-.04-.1-.13-.22-.21-.28-.21-.14-.49-.08-.63.13-.1.14-.1.32-.02.47,0,.02.02.03.03.05.03.05.07.09.12.12-.05-.02-.09-.07-.12-.12-.01-.01-.02-.03-.03-.05,0,0,0,0,0,0v.02s.02.06.02.06c0,0,.04.15.04.15.19.73.4,1.5.63,2.22,3.02,9.16,8.68,17.19,15.48,24.01l1.92-.72c-7.04-6.59-13.17-14.46-16.46-23.6Z" class="cls-6"></path>
      <g>
        <path d="M132.6,139.68c2.67-1.54,5.45.81,7.81,1.83,3.52,1.53,6.41-1.64,9.33-3.15.83-.42,1.8-.75,2.76-.63.08.01.14.09.13.17,0,.07-.07.13-.14.13-.87.11-1.64.51-2.36,1.01-2.98,2.2-6.16,5.42-10.18,3.52-1.7-.76-2.97-2.03-4.72-2.58-.81-.26-1.68-.33-2.5-.02-.16.07-.3-.18-.14-.27h0Z" class="cls-3"></path>
        <path d="M133.99,141.98c1.97-.24,3.09,1.79,4.71,2.47,1.44.74,3.31.71,4.54-.38.38-.33.91.21.56.58-1.41,1.46-3.8,1.48-5.47.53-1.24-.61-2.01-1.83-3.14-2.53-.36-.22-.76-.35-1.17-.37-.18,0-.2-.28-.02-.3h0Z" class="cls-3"></path>
      </g>
      <path d="M43.36,53.78c-18.3,2.53-19.81,4.59-21.68,29.41-1.87-24.82-3.38-26.87-21.68-29.41,18.3-2.53,19.81-4.59,21.68-29.41,1.87,24.82,3.38,26.87,21.68,29.41Z" class="cls-3"></path>
      <path d="M267.22,169.74c-18.3,2.53-19.81,4.59-21.68,29.41-1.87-24.82-3.38-26.87-21.68-29.41,18.3-2.53,19.81-4.59,21.68-29.41,1.87,24.82,3.38,26.87,21.68,29.41Z" class="cls-3"></path>
    </g>
  </g>
</svg>