<svg xmlns="http://www.w3.org/2000/svg" fill="none" viewBox="0 0 197 33" height="33" width="197">
<g clip-path="url(#clip0_8099_27527)">
<path fill="#FF5528" d="M193.862 26.7388C193.571 26.7371 193.287 26.6491 193.045 26.486C192.804 26.3228 192.616 26.0919 192.506 25.8223C192.396 25.5527 192.368 25.2564 192.426 24.971C192.484 24.6855 192.625 24.4236 192.832 24.2182C193.038 24.0129 193.301 23.8733 193.587 23.8171C193.873 23.7609 194.169 23.7907 194.438 23.9025C194.707 24.0144 194.936 24.2034 195.098 24.4457C195.26 24.6881 195.346 24.9728 195.346 25.2641C195.347 25.4589 195.31 25.6519 195.235 25.832C195.161 26.012 195.052 26.1755 194.913 26.3128C194.775 26.4501 194.611 26.5585 194.431 26.6316C194.25 26.7048 194.057 26.7412 193.862 26.7388Z"></path>
<path fill="#FF5528" d="M193.862 24.2421C194.065 24.2448 194.262 24.3073 194.429 24.4219C194.596 24.5365 194.726 24.698 194.801 24.8861C194.877 25.0741 194.895 25.2803 194.854 25.4786C194.812 25.677 194.713 25.8586 194.568 26.0006C194.424 26.1426 194.24 26.2387 194.041 26.2768C193.842 26.3148 193.637 26.293 193.45 26.2143C193.263 26.1355 193.104 26.0033 192.992 25.8342C192.881 25.6651 192.821 25.4667 192.822 25.2641C192.822 25.1284 192.849 24.994 192.902 24.8688C192.954 24.7437 193.031 24.6302 193.128 24.535C193.225 24.4399 193.34 24.365 193.466 24.3147C193.592 24.2644 193.727 24.2397 193.862 24.2421ZM193.862 26.1203C194.032 26.1247 194.2 26.0783 194.344 25.987C194.488 25.8957 194.601 25.7636 194.669 25.6076C194.737 25.4516 194.757 25.2788 194.727 25.1113C194.697 24.9437 194.617 24.7891 194.498 24.6671C194.379 24.5451 194.227 24.4613 194.06 24.4264C193.893 24.3915 193.72 24.4071 193.562 24.4712C193.405 24.5353 193.27 24.645 193.175 24.7862C193.079 24.9275 193.029 25.0938 193.029 25.2641C193.024 25.3758 193.043 25.4872 193.083 25.5915C193.123 25.6958 193.184 25.7909 193.262 25.871C193.34 25.951 193.433 26.0144 193.536 26.0573C193.64 26.1001 193.751 26.1216 193.862 26.1203ZM193.916 24.6769C194.198 24.6769 194.337 24.78 194.337 25.0131C194.339 25.0548 194.333 25.0965 194.318 25.1356C194.303 25.1747 194.281 25.2104 194.252 25.2405C194.223 25.2707 194.188 25.2947 194.15 25.3111C194.111 25.3274 194.07 25.3359 194.028 25.3358L194.364 25.8558H194.163L193.853 25.3448H193.647V25.8558H193.468V24.668H193.916M193.647 25.1834H193.862C194.01 25.1834 194.149 25.1834 194.149 24.9907C194.149 24.7979 194.015 24.8204 193.889 24.8204H193.647V25.1834ZM193.862 23.3367C193.351 23.3355 192.861 23.5367 192.498 23.8962C192.135 24.2557 191.929 24.7443 191.926 25.2552C191.922 25.6389 192.033 26.015 192.243 26.3358C192.454 26.6566 192.755 26.9076 193.109 27.0569C193.462 27.2062 193.852 27.2471 194.229 27.1744C194.606 27.1018 194.952 26.9188 195.225 26.6487C195.498 26.3786 195.684 26.0336 195.76 25.6575C195.836 25.2814 195.799 24.8911 195.653 24.5363C195.507 24.1814 195.259 23.8779 194.94 23.6643C194.621 23.4507 194.246 23.3367 193.862 23.3367Z"></path>
<path fill="#FF5528" d="M57.9109 26.6716V18.7018H52.7337V26.6716H46.9648V6.6217H52.7337V13.5919H57.9109V6.6217H63.6843V26.6716H57.9109Z"></path>
<path fill="#FF5528" d="M63.2331 7.06995V26.2188H58.3607V18.2491H52.287V26.2188H47.4102V7.06995H52.287V14.0401H58.3607V7.06995H63.2331ZM64.1296 6.17346H57.4642V13.1436H53.1835V6.17346H46.5137V27.1153H53.1835V19.1456H57.4642V27.1153H64.1296V6.17346Z"></path>
<path fill="#FF5528" d="M79.6152 26.6672V12.0903H84.8283V14.0223C85.28 13.353 85.8859 12.8021 86.595 12.416C87.3041 12.0298 88.0956 11.8198 88.9028 11.8035H89.2838L89.7007 11.8348V16.9627H89.2524C88.4313 16.9625 87.6135 17.0664 86.8185 17.272C86.216 17.403 85.6683 17.7159 85.2496 18.1685V26.6537L79.6152 26.6672Z"></path>
<path fill="#FF5528" d="M88.9018 12.2517H89.2515V16.5235C88.3926 16.523 87.5371 16.6314 86.7054 16.8462C85.9592 17.008 85.2895 17.4171 84.8049 18.0071V26.2055H80.0625V12.5386H84.3791V15.6763C85.2755 13.7219 86.7996 12.2517 88.9018 12.2517ZM88.9018 11.3552C87.5464 11.3609 86.2462 11.8928 85.2755 12.8389V11.6421H79.166V27.1154H85.7014V18.3568C86.0541 18.0454 86.4796 17.828 86.9385 17.7248C87.6974 17.5318 88.4774 17.4339 89.2604 17.4334H90.1569V11.4314L89.3277 11.3687H88.9108L88.9018 11.3552Z"></path>
<path fill="#FF5528" d="M89.4707 26.6672V11.8214H94.6838V14.0223C95.1354 13.353 95.7413 12.8021 96.4504 12.416C97.1595 12.0298 97.951 11.8198 98.7583 11.8035H99.1393L99.5561 11.8348V16.9627H99.1079C98.2868 16.9625 97.4689 17.0664 96.6739 17.272C96.0715 17.403 95.5238 17.7159 95.1051 18.1685V26.6537L89.4707 26.6672Z"></path>
<path fill="#FF5528" d="M98.7593 12.2517H99.1089V16.5235C98.25 16.523 97.3945 16.6314 96.5629 16.8462C95.8166 17.008 95.1469 17.4171 94.6623 18.0071V26.2055H89.9199V12.2696H94.2365V15.6763C95.133 13.7219 96.657 12.2517 98.7593 12.2517ZM98.7593 11.3552C97.4038 11.3609 96.1036 11.8928 95.133 12.8389V11.3732H89.0234V27.1154H95.5588V18.3568C95.9115 18.0454 96.337 17.828 96.796 17.7248C97.5549 17.5318 98.3348 17.4339 99.1178 17.4334H100.014V11.4314L99.1851 11.3687H98.7682L98.7593 11.3552Z"></path>
<path fill="#FF5528" d="M104.825 11.8258H99.4727V26.6716H104.825V11.8258Z"></path>
<path fill="#FF5528" d="M104.373 12.2697V26.2189H99.9219V12.2697H104.373ZM105.269 11.3732H99.0254V27.1154H105.269V11.3732Z"></path>
<path fill="#FF5528" d="M108.029 20.5128C107.049 20.1392 106.221 19.4501 105.676 18.554V18.5226V18.4957C105.454 17.9143 105.356 17.2927 105.389 16.6711C105.422 16.0495 105.586 15.4418 105.869 14.8874C106.18 14.2449 106.619 13.6724 107.158 13.2046C107.697 12.7369 108.326 12.3837 109.006 12.1665C109.881 11.9156 110.786 11.7874 111.696 11.7855C113.727 11.7607 115.697 12.4779 117.236 13.8026L117.527 14.0536L115.331 17.532L114.049 16.77L113.991 16.6714C113.771 16.2337 113.439 15.8613 113.03 15.5915C112.621 15.3218 112.149 15.164 111.66 15.1339C109.988 15.1339 108.63 17.03 108.63 19.3563C108.63 19.5871 108.645 19.8177 108.675 20.0466L108.769 20.8266L108.029 20.5128Z"></path>
<path fill="#FF5528" d="M111.675 12.2338C113.598 12.213 115.463 12.8916 116.924 14.1433L115.162 16.9269L114.355 16.4427C113.714 15.3714 112.737 14.6856 111.639 14.6856C109.716 14.6856 108.161 16.7789 108.161 19.3563C108.161 19.6051 108.177 19.8537 108.21 20.1004C107.318 19.7653 106.564 19.1421 106.067 18.3298C105.144 15.999 106.776 13.2961 109.129 12.5968C109.957 12.3584 110.813 12.2362 111.675 12.2338ZM111.675 11.3373C110.73 11.3402 109.791 11.4729 108.882 11.7317C108.137 11.9643 107.448 12.3467 106.856 12.8554C106.264 13.3641 105.782 13.9885 105.44 14.6901C105.129 15.3007 104.95 15.9698 104.915 16.6539C104.879 17.3381 104.988 18.0221 105.234 18.6615L105.256 18.7198L105.292 18.7781C105.881 19.7584 106.783 20.5128 107.851 20.9207L109.304 21.5303L109.115 19.9749C109.09 19.7637 109.076 19.5511 109.075 19.3384C109.075 17.2944 110.258 15.5642 111.657 15.5642C112.068 15.5959 112.463 15.7341 112.804 15.9652C113.145 16.1963 113.42 16.5123 113.602 16.882L113.719 17.0793L113.916 17.1958L114.364 17.4513L114.741 17.6799L115.489 18.1281L115.938 17.393L117.699 14.6049L118.107 13.955L117.506 13.4619C115.888 12.0677 113.816 11.3123 111.679 11.3373H111.675Z"></path>
<path fill="#FF5528" d="M112.037 26.9584C109.549 26.9584 106.846 26.0126 105.313 24.6007L105.049 24.3586L107.061 20.8579L107.46 21.1178C108.05 21.5068 108.667 21.8514 109.307 22.1488L109.419 22.2026L109.491 22.3012C109.72 22.6738 110.037 22.9848 110.413 23.2074C110.789 23.43 111.215 23.5575 111.651 23.5787C113.323 23.5787 114.682 21.6871 114.682 19.3562C114.68 19.1043 114.662 18.8527 114.628 18.6032L114.525 17.8098L115.255 18.137C117.945 19.3473 118.752 21.2747 117.707 24.0224V24.0673C116.761 25.932 114.758 26.9584 112.068 26.9584H112.037Z"></path>
<path fill="#FF5528" d="M115.057 18.545C117.146 19.4819 118.374 20.9655 117.299 23.8612C116.344 25.7483 114.269 26.5103 112.059 26.5103C109.656 26.5103 107.092 25.6138 105.64 24.2691L107.222 21.49C107.832 21.8913 108.47 22.2478 109.132 22.5568C109.402 22.9887 109.774 23.3483 110.214 23.6045C110.654 23.8606 111.151 24.0057 111.66 24.027C113.578 24.027 115.138 21.9382 115.138 19.3563C115.137 19.0849 115.118 18.8138 115.08 18.545M113.986 17.0703L114.192 18.6616C114.223 18.8919 114.24 19.124 114.242 19.3563C114.242 21.4048 113.058 23.1306 111.66 23.1306C111.295 23.109 110.941 22.9985 110.628 22.8087C110.315 22.6188 110.054 22.3554 109.867 22.0413L109.723 21.8441L109.504 21.741C108.882 21.4532 108.283 21.119 107.711 20.7414L106.913 20.2215L106.442 21.0462L104.86 23.8253L104.506 24.4484L105.03 24.9325C106.666 26.4341 109.428 27.4068 112.059 27.4068C113.252 27.4305 114.437 27.1918 115.528 26.7075C116.637 26.2109 117.543 25.3507 118.097 24.2691L118.119 24.2243V24.1794C119.244 21.2076 118.343 19.0336 115.43 17.7292L113.968 17.0703H113.986Z"></path>
<path fill="#FF5528" d="M124.098 26.6716V11.7272H118.957V6.6217H134.695V11.7272H129.58V26.6716H124.098Z"></path>
<path fill="#FF5528" d="M134.248 7.06995V11.2789H129.134V26.2188H124.544V11.2789H119.402V7.06995H134.248ZM135.145 6.17346H118.506V12.1754H123.647V27.1153H130.03V12.1754H135.145V6.17346Z"></path>
<path fill="#FF5528" d="M154.252 26.9361C150.859 26.9361 148.071 25.1835 146.977 22.3551C146.213 20.3603 146.271 18.1439 147.139 16.1918C147.498 15.3408 148.025 14.5704 148.687 13.926C149.349 13.2817 150.133 12.7764 150.994 12.44C152.062 12.0176 153.202 11.806 154.351 11.8169C156.754 11.8169 158.99 12.6731 160.33 14.1164C161.949 15.7525 162.67 18.2671 162.244 20.84L162.182 21.2121H158.515L158.659 20.6563C158.742 20.3296 158.786 19.9939 158.789 19.6567C158.77 18.9037 158.53 18.1729 158.098 17.5558C157.666 16.9387 157.062 16.4627 156.36 16.1875C155.659 15.9123 154.892 15.85 154.156 16.0086C153.42 16.1671 152.746 16.5393 152.221 17.0787C151.695 17.6181 151.34 18.3006 151.2 19.0407C151.06 19.7809 151.142 20.5458 151.435 21.2397C151.728 21.9337 152.219 22.5257 152.847 22.9418C153.475 23.3579 154.212 23.5795 154.965 23.5788C155.653 23.5742 156.327 23.3839 156.915 23.0281C157.504 22.6722 157.985 22.1641 158.309 21.5572L158.434 21.3242H162.079L161.908 21.8979C160.985 25.0356 158.224 26.9361 154.526 26.9361H154.252Z"></path>
<path fill="#FF5528" d="M154.349 12.2651C156.465 12.2651 158.648 12.9688 160.001 14.4211C161.62 16.0572 162.171 18.5226 161.794 20.7638H159.083C159.176 20.4021 159.224 20.0302 159.226 19.6566C159.207 18.8149 158.941 17.9974 158.46 17.3066C157.978 16.6158 157.304 16.0824 156.521 15.7732C155.738 15.4641 154.881 15.393 154.058 15.5688C153.234 15.7447 152.481 16.1596 151.893 16.7617C151.304 17.3637 150.907 18.1261 150.75 18.9533C150.593 19.7804 150.683 20.6355 151.01 21.4113C151.337 22.1871 151.886 22.8492 152.587 23.3145C153.289 23.7798 154.112 24.0277 154.954 24.027C155.721 24.0248 156.474 23.8154 157.132 23.4209C157.79 23.0264 158.329 22.4615 158.693 21.7858H161.467C160.544 24.9235 157.774 26.5013 154.515 26.5013H154.241C151.238 26.5013 148.464 24.9862 147.383 22.2071C146.012 18.7198 147.504 14.2553 151.144 12.8702C152.161 12.4688 153.247 12.2679 154.34 12.2785M154.34 11.3821C153.133 11.3711 151.935 11.5933 150.812 12.0365C149.899 12.3955 149.067 12.9328 148.363 13.6169C147.66 14.3011 147.1 15.1185 146.716 16.0214C145.799 18.0846 145.74 20.4272 146.55 22.5343C147.715 25.5331 150.66 27.3977 154.241 27.3977H154.515C158.424 27.3977 161.346 25.3941 162.328 22.0188L162.435 21.6558H162.552L162.677 20.9072C162.92 19.6446 162.861 18.3427 162.507 17.1069C162.153 15.8711 161.512 14.736 160.638 13.7936C159.212 12.2696 156.859 11.3641 154.34 11.3641V11.3821ZM154.954 23.1439C154.262 23.1645 153.579 22.9779 152.994 22.6082C152.408 22.2385 151.947 21.7024 151.668 21.0686C151.389 20.4349 151.305 19.7322 151.428 19.0507C151.551 18.3692 151.874 17.7398 152.356 17.2432C152.839 16.7465 153.459 16.4052 154.136 16.263C154.814 16.1207 155.519 16.1839 156.16 16.4446C156.802 16.7052 157.351 17.1514 157.738 17.7261C158.124 18.3007 158.33 18.9776 158.329 19.6701C158.328 19.9726 158.289 20.2737 158.213 20.5665L158.101 21.0148L157.904 21.3779C157.619 21.9148 157.195 22.3649 156.676 22.6805C156.157 22.9961 155.562 23.1655 154.954 23.1708V23.1439Z"></path>
<path fill="#FF5528" d="M178.094 26.936C174.705 26.936 171.917 25.1834 170.819 22.355C170.055 20.3602 170.113 18.1438 170.981 16.1917C171.341 15.3405 171.868 14.5701 172.531 13.9258C173.194 13.2815 173.979 12.7763 174.84 12.4399C175.907 12.0171 177.045 11.8055 178.193 11.8168C180.595 11.8168 182.832 12.673 184.172 14.1163C185.795 15.7479 186.512 18.267 186.086 20.84L186.028 21.212H182.935L183.092 20.6427C183.185 20.3221 183.233 19.9903 183.235 19.6566C183.235 17.4916 181.339 15.73 179.013 15.73C176.687 15.73 174.791 17.4916 174.791 19.6566C174.791 21.8216 176.682 23.5787 179.013 23.5787C179.753 23.5875 180.482 23.4047 181.13 23.0481C181.778 22.6915 182.323 22.1732 182.711 21.5437L182.841 21.3241H185.92L185.75 21.8978C184.827 25.0355 182.066 26.936 178.368 26.936H178.094Z"></path>
<path fill="#FF5528" d="M178.192 12.2651C180.313 12.2651 182.491 12.9688 183.845 14.4211C185.463 16.0572 186.014 18.5226 185.638 20.7638H183.513C183.619 20.4042 183.673 20.0314 183.674 19.6566C183.674 17.2406 181.581 15.2818 179.004 15.2818C176.426 15.2818 174.333 17.2406 174.333 19.6566C174.333 22.0726 176.422 24.027 179.004 24.027C179.82 24.0385 180.626 23.838 181.341 23.4452C182.057 23.0524 182.659 22.4806 183.087 21.7858H185.328C184.405 24.9235 181.639 26.5013 178.376 26.5013H178.103C175.1 26.5013 172.325 24.9907 171.245 22.2071C169.878 18.7198 171.37 14.2553 175.005 12.8702C176.023 12.4688 177.108 12.2679 178.201 12.2785M178.201 11.3821C176.996 11.3716 175.8 11.5938 174.678 12.0365C173.764 12.3952 172.931 12.9323 172.227 13.6165C171.523 14.3007 170.962 15.1182 170.577 16.0214C169.661 18.0846 169.601 20.4272 170.411 22.5343C171.576 25.5331 174.521 27.3977 178.103 27.3977H178.376C182.285 27.3977 185.207 25.3941 186.189 22.0188L186.297 21.6558H186.4L186.525 20.9072C186.768 19.6446 186.709 18.3427 186.355 17.1069C186.001 15.8711 185.36 14.736 184.486 13.7936C183.06 12.2696 180.707 11.3641 178.188 11.3641L178.201 11.3821ZM179.022 23.1439C176.937 23.1439 175.248 21.5841 175.248 19.6701C175.248 17.7561 176.937 16.1917 179.022 16.1917C181.106 16.1917 182.796 17.7516 182.796 19.6701C182.793 19.9627 182.751 20.2537 182.67 20.5352L182.549 20.9834L182.334 21.3465C181.986 21.9094 181.498 22.3725 180.917 22.6906C180.337 23.0088 179.684 23.1711 179.022 23.1619V23.1439Z"></path>
<path fill="#FF5528" d="M138.464 26.9361C135.075 26.9361 132.287 25.1835 131.189 22.3596C130.424 20.3635 130.482 18.1451 131.351 16.1918C131.711 15.3406 132.238 14.5702 132.901 13.9259C133.564 13.2815 134.349 12.7763 135.21 12.44C136.277 12.0176 137.415 11.806 138.563 11.8169C140.965 11.8169 143.202 12.6731 144.542 14.1164C146.165 15.7525 146.882 18.2671 146.461 20.84L146.398 21.2121H142.471L142.588 20.6697C142.66 20.3367 142.697 19.9973 142.7 19.6567C142.7 17.272 140.983 15.3356 138.872 15.3356C136.761 15.3356 135.049 17.272 135.049 19.6567C135.049 22.0413 136.765 23.9777 138.872 23.9777C139.613 23.9572 140.331 23.7199 140.938 23.2953C141.545 22.8706 142.014 22.2773 142.288 21.5886L142.409 21.3242H146.299L146.134 21.8979C145.206 25.0356 142.445 26.9361 138.747 26.9361H138.464Z"></path>
<path fill="#FF5528" d="M138.564 12.2651C140.684 12.2651 142.862 12.9689 144.216 14.4212C145.839 16.0573 146.386 18.5226 146.009 20.7638H143.01C143.09 20.4 143.13 20.0289 143.131 19.6566C143.131 17.021 141.217 14.8873 138.855 14.8873C136.493 14.8873 134.583 17.021 134.583 19.6566C134.583 22.2923 136.497 24.4259 138.855 24.4259C139.682 24.4032 140.484 24.1401 141.164 23.6689C141.844 23.1977 142.372 22.5386 142.683 21.7723H145.686C144.759 24.91 141.993 26.4878 138.73 26.4878H138.456C135.453 26.4878 132.678 24.9773 131.598 22.1937C130.231 18.7064 131.724 14.2419 135.359 12.8568C136.376 12.4562 137.461 12.2553 138.555 12.2651M138.555 11.3686C137.349 11.3582 136.153 11.5804 135.032 12.0231C134.118 12.3812 133.285 12.9182 132.581 13.6024C131.878 14.2867 131.318 15.1045 130.935 16.0079C130.017 18.0705 129.956 20.4131 130.764 22.5209C131.93 25.5196 134.875 27.3843 138.456 27.3843H138.73C142.638 27.3843 145.561 25.3807 146.542 22.0054L146.65 21.6423H146.767L146.892 20.8938C147.134 19.6312 147.076 18.3293 146.722 17.0935C146.367 15.8576 145.727 14.7226 144.853 13.7802C143.427 12.2561 141.074 11.3507 138.555 11.3507V11.3686ZM138.855 23.5294C136.995 23.5294 135.48 21.7903 135.48 19.6566C135.48 17.523 136.995 15.7838 138.855 15.7838C140.715 15.7838 142.235 17.5185 142.235 19.6566C142.233 19.9672 142.198 20.2766 142.132 20.58L142.038 21.0283L141.863 21.4227C141.624 22.0317 141.211 22.5574 140.677 22.9349C140.142 23.3124 139.509 23.5253 138.855 23.5474V23.5294Z"></path>
<path fill="#FF5528" d="M166.64 26.963C164.65 26.963 163.167 26.1203 162.566 24.6456C162.212 23.9911 162.118 21.5079 162.203 11.9558C162.225 9.80876 162.243 7.95751 162.203 7.62582L162.145 7.12378H167.837V11.5166H170.576V15.9048H167.842V20.8355C167.808 21.0816 167.873 21.331 168.021 21.5303C168.223 21.6965 168.482 21.7783 168.743 21.7589C169.105 21.7507 169.463 21.6778 169.8 21.5437L170.383 21.3196L170.41 21.9427C170.437 22.5926 170.527 24.7756 170.531 25.6676V25.8872L170.356 26.0217C169.379 26.7882 167.824 26.9495 166.694 26.9495L166.64 26.963Z"></path>
<path fill="#FF5528" d="M167.393 7.57201V11.9648H170.136V15.4566H167.393V20.8355C167.335 21.8844 167.98 22.2385 168.738 22.2385C169.155 22.2294 169.568 22.1475 169.957 21.9965C169.984 22.6912 170.073 24.8383 170.078 25.7034C169.159 26.4206 167.572 26.5327 166.694 26.5327H166.635C165.116 26.5327 163.565 25.9724 162.964 24.4707C162.319 23.8835 162.776 8.73296 162.646 7.58995H167.393M168.289 6.69346H161.646L161.759 7.69305C161.794 7.99785 161.759 10.0194 161.759 11.9693C161.651 22.5657 161.799 24.3408 162.207 24.9369C162.906 26.5237 164.515 27.4291 166.653 27.4291H166.721C167.913 27.4291 169.571 27.2498 170.647 26.4072L170.997 26.1382V25.69C170.997 24.7935 170.903 22.6061 170.871 21.9516L170.822 20.701L169.652 21.1493C169.366 21.2631 169.063 21.3253 168.756 21.333C168.618 21.3501 168.478 21.3183 168.361 21.2434C168.3 21.1313 168.279 21.0014 168.303 20.8758V16.3531H171.046V11.0683H168.289V6.67554V6.69346Z"></path>
<path fill="#FF5528" d="M186.189 26.6761V11.8303H191.403V14.0357C191.78 13.4857 192.256 13.0101 192.806 12.6327C193.581 12.0968 194.503 11.8149 195.446 11.8259C195.585 11.8259 195.724 11.8259 195.863 11.8259L196.27 11.8617V16.9582H195.822C194.316 17.0075 192.684 17.1868 191.815 18.1595V26.6448L186.189 26.6761Z"></path>
<path fill="#FF5528" d="M195.445 12.2741C195.57 12.2741 195.7 12.2741 195.821 12.2741V16.5279C194.212 16.5772 192.334 16.7744 191.379 18.016V26.2144H186.637V12.2785H190.953V15.7031C191.406 14.6404 192.128 13.7136 193.047 13.0136C193.75 12.5261 194.588 12.2692 195.445 12.2785M195.445 11.382C194.408 11.3727 193.395 11.686 192.545 12.2785C192.296 12.441 192.063 12.6271 191.85 12.8344V11.391H185.74V27.1333H192.276V18.3926C193.051 17.653 194.517 17.4961 195.862 17.4602L196.731 17.4333V11.4672L195.915 11.3955C195.763 11.3955 195.611 11.3955 195.467 11.3955L195.445 11.382Z"></path>
<path fill="#FF5528" d="M70.422 26.9091C69.0294 26.9088 67.6725 26.4682 66.5454 25.6503C65.4183 24.8323 64.5787 23.6789 64.1466 22.355C62.9005 18.9035 63.927 14.0625 67.4501 12.3682C68.2531 11.9841 69.133 11.7879 70.0231 11.7944C70.96 11.7807 71.8852 12.0043 72.7125 12.4444C73.2105 12.7072 73.6509 13.0668 74.0079 13.5022V12.0903H79.6468V26.6402H74.0124V25.4299C73.6026 25.9126 73.0889 26.2964 72.5099 26.5525C71.9308 26.8087 71.3013 26.9306 70.6685 26.9091H70.422ZM71.5919 15.3355C70.879 15.3549 70.1877 15.5841 69.6044 15.9943C69.021 16.4046 68.5716 16.9778 68.3124 17.6421C68.0531 18.3065 67.9955 19.0325 68.1467 19.7294C68.2979 20.4264 68.6513 21.0632 69.1626 21.5604C69.6739 22.0575 70.3204 22.3929 71.0213 22.5245C71.7222 22.6561 72.4463 22.5781 73.1031 22.3003C73.76 22.0225 74.3203 21.5572 74.714 20.9626C75.1077 20.368 75.3174 19.6705 75.3168 18.9573C75.3014 17.9836 74.9008 17.0557 74.2026 16.3769C73.5044 15.698 72.5656 15.3235 71.5919 15.3355Z"></path>
<path fill="#FF5528" d="M70.0186 12.2427C70.8726 12.231 71.7158 12.4345 72.4705 12.8344C73.3448 13.3396 74.0332 14.1129 74.4338 15.0397V12.5385H79.1762V26.192H74.4607V23.9239C73.6584 25.5286 72.5198 26.4609 70.6686 26.4609H70.4221C69.1235 26.4555 67.8595 26.0424 66.8083 25.2799C65.7572 24.5175 64.972 23.4442 64.5635 22.2116C63.3891 18.9484 64.317 14.3718 67.6385 12.7716C68.3812 12.4162 69.1953 12.2353 70.0186 12.2427ZM71.592 23.0319C72.3931 23.0116 73.1705 22.7555 73.8269 22.2957C74.4832 21.8358 74.9894 21.1926 75.282 20.4465C75.5747 19.7004 75.6408 18.8846 75.4721 18.1011C75.3035 17.3177 74.9075 16.6013 74.3338 16.0418C73.7601 15.4822 73.0341 15.1043 72.2466 14.9552C71.4592 14.8062 70.6453 14.8927 69.9067 15.2039C69.1682 15.515 68.5378 16.0371 68.0945 16.7048C67.6512 17.3724 67.4146 18.1559 67.4144 18.9574C67.4208 19.4993 67.534 20.0347 67.7475 20.5328C67.961 21.031 68.2706 21.4822 68.6586 21.8606C69.0466 22.239 69.5053 22.5372 70.0087 22.7382C70.512 22.9392 71.05 23.039 71.592 23.0319ZM70.0186 11.3462C69.0546 11.3359 68.1014 11.5508 67.2351 11.9737C63.5102 13.7667 62.4075 18.8722 63.7208 22.5164C64.1855 23.9264 65.0835 25.1536 66.2869 26.0229C67.4903 26.8922 68.9375 27.3593 70.4221 27.3574H70.6686C71.7061 27.3848 72.7237 27.0697 73.5642 26.4609V27.084H80.0727V11.6421H73.5373V12.4534C73.3347 12.3008 73.1204 12.1644 72.8964 12.0455C72.0119 11.5722 71.0216 11.3316 70.0186 11.3462ZM71.592 22.1354C70.968 22.116 70.3635 21.9133 69.854 21.5525C69.3445 21.1918 68.9526 20.6889 68.7271 20.1068C68.5016 19.5246 68.4526 18.8889 68.5861 18.2791C68.7196 17.6693 69.0298 17.1123 69.478 16.6776C69.9261 16.243 70.4923 15.9499 71.106 15.8351C71.7196 15.7202 72.3535 15.7887 72.9284 16.0318C73.5034 16.275 73.9941 16.6821 74.3391 17.2024C74.6842 17.7227 74.8683 18.3331 74.8686 18.9574C74.8545 19.813 74.5016 20.628 73.8873 21.2238C73.2731 21.8195 72.4476 22.1474 71.592 22.1354Z"></path>
<path fill="#FF5528" d="M101.951 11.5389C101.833 11.5455 101.715 11.5455 101.597 11.5389C100.973 11.5083 100.386 11.2381 99.957 10.7847C99.5281 10.3313 99.2909 9.72973 99.295 9.1056C99.299 8.48148 99.544 7.88305 99.9788 7.43524C100.414 6.98744 101.004 6.72487 101.628 6.70237C101.736 6.69491 101.843 6.69491 101.951 6.70237C103.466 6.70237 104.542 7.70194 104.573 9.12735C104.573 9.46362 104.503 9.79621 104.369 10.1045C104.235 10.4128 104.039 10.6903 103.793 10.9197C103.547 11.1492 103.257 11.3257 102.94 11.4384C102.623 11.551 102.286 11.5975 101.951 11.5748V11.5389Z"></path>
<path fill="#FF5528" d="M101.95 7.11484C103.12 7.11484 104.097 7.83203 104.124 9.10504C104.151 10.378 103.12 11.0907 101.95 11.0907C101.847 11.0973 101.743 11.0973 101.64 11.0907C101.134 11.0666 100.657 10.8485 100.307 10.4817C99.9572 10.1149 99.7621 9.62753 99.7621 9.12073C99.7621 8.61393 99.9572 8.12657 100.307 7.75977C100.657 7.39296 101.134 7.17486 101.64 7.1507C101.743 7.14427 101.847 7.14427 101.95 7.1507M101.95 6.25422C101.826 6.24763 101.702 6.24763 101.578 6.25422C100.837 6.28351 100.136 6.59833 99.6228 7.1327C99.1092 7.66707 98.8223 8.37952 98.8223 9.12073C98.8223 9.86194 99.1092 10.5744 99.6228 11.1088C100.136 11.6431 100.837 11.9579 101.578 11.9872C101.702 11.9938 101.826 11.9938 101.95 11.9872C102.341 12.0078 102.733 11.9492 103.101 11.8152C103.469 11.6811 103.806 11.4743 104.093 11.207C104.38 10.9397 104.609 10.6174 104.769 10.2593C104.928 9.90126 105.013 9.5148 105.02 9.12297V9.08263C105.013 8.69081 104.928 8.30435 104.769 7.9463C104.609 7.58825 104.38 7.26595 104.093 6.99863C103.806 6.73132 103.469 6.52446 103.101 6.3904C102.733 6.25635 102.341 6.19784 101.95 6.21836V6.25422Z"></path>
<path fill="#FF5528" d="M67.4135 18.9574C67.3921 19.7879 67.6188 20.6059 68.0647 21.307C68.5105 22.008 69.1552 22.5601 69.9165 22.8929C70.6777 23.2256 71.5208 23.3239 72.3382 23.175C73.1555 23.0262 73.9099 22.637 74.505 22.0573C75.1 21.4776 75.5087 20.7336 75.6788 19.9204C75.8489 19.1072 75.7727 18.2618 75.4599 17.4921C75.1472 16.7225 74.612 16.0636 73.9229 15.5996C73.2337 15.1356 72.4219 14.8877 71.5911 14.8874C70.4977 14.8742 69.4438 15.2954 68.6606 16.0584C67.8773 16.8215 67.4289 17.8641 67.4135 18.9574Z"></path>
<path fill="#FF5528" d="M111.637 24.0269C113.555 24.0269 115.115 21.9381 115.115 19.3562C115.114 19.0848 115.094 18.8137 115.057 18.5449C114.966 17.804 114.726 17.0889 114.353 16.4426C113.712 15.3713 112.735 14.6855 111.637 14.6855C109.714 14.6855 108.158 16.7788 108.158 19.3562C108.159 19.6051 108.175 19.8536 108.208 20.1003C108.3 20.9804 108.608 21.8241 109.104 22.5567C109.375 22.9892 109.747 23.3492 110.188 23.6054C110.63 23.8616 111.127 24.0063 111.637 24.0269Z"></path>
<path fill="#FF5528" d="M138.887 14.8873C136.529 14.8873 134.615 17.021 134.615 19.6566C134.615 22.2923 136.529 24.4259 138.887 24.4259C139.714 24.4032 140.516 24.1401 141.196 23.6689C141.876 23.1977 142.404 22.5386 142.715 21.7723C143.008 21.1053 143.16 20.3851 143.163 19.6566C143.141 17.021 141.227 14.8873 138.887 14.8873Z"></path>
<path fill="#FF5528" d="M154.963 15.2817C153.828 15.3181 152.751 15.7947 151.961 16.6108C151.17 17.4268 150.729 18.5183 150.729 19.6543C150.729 20.7904 151.17 21.8819 151.961 22.6979C152.751 23.514 153.828 23.9906 154.963 24.0269C155.731 24.0248 156.483 23.8154 157.141 23.4209C157.799 23.0264 158.338 22.4614 158.702 21.7857C158.873 21.4671 159.004 21.1283 159.092 20.7772C159.185 20.4155 159.233 20.0436 159.235 19.67C159.243 19.1012 159.139 18.5364 158.929 18.0078C158.719 17.4793 158.406 16.9974 158.01 16.5898C157.613 16.1821 157.139 15.8568 156.617 15.6324C156.094 15.4079 155.532 15.2888 154.963 15.2817Z"></path>
<path fill="#FF5528" d="M179.012 15.2817C176.431 15.2817 174.342 17.2406 174.342 19.6566C174.342 22.0726 176.431 24.0269 179.012 24.0269C179.829 24.0384 180.634 23.838 181.35 23.4452C182.066 23.0523 182.667 22.4806 183.096 21.7857C183.283 21.4702 183.426 21.131 183.522 20.7772C183.628 20.4176 183.682 20.0449 183.683 19.67C183.683 17.2406 181.59 15.2817 179.012 15.2817Z"></path>
<path fill="white" d="M52.2845 7.06995H47.4121V26.2233H52.2845V18.2536H58.3582V26.2233H63.2351V7.06995H58.3582V14.0401H52.2845V7.06995Z"></path>
<path fill="white" d="M86.7054 16.8595C87.5371 16.6448 88.3926 16.5363 89.2515 16.5368V12.265C86.9654 12.0947 85.3159 13.6097 84.3791 15.6761V12.5384H80.0625V26.2188H84.8049V18.0205C85.2895 17.4304 85.9592 17.0213 86.7054 16.8595Z"></path>
<path fill="white" d="M96.5629 16.8596C97.3945 16.6449 98.25 16.5364 99.1089 16.5369V12.2651C96.8228 12.0948 95.1733 13.6099 94.2365 15.6763V12.2696H89.9199V26.2189H94.6623V18.0206C95.1469 17.4305 95.8166 17.0214 96.5629 16.8596Z"></path>
<path fill="white" d="M104.375 12.274H99.9199V26.2233H104.375V12.274Z"></path>
<path fill="white" d="M117.276 23.8612C118.791 19.8674 115.882 18.563 112.404 17.6665C111.252 17.3079 110.279 17.2496 110.185 16.2949C110.178 16.1585 110.208 16.0228 110.273 15.9026C110.338 15.7825 110.434 15.6824 110.552 15.6135C112.153 14.9905 113.609 16.008 115.16 16.9269L116.922 14.1433C115.856 13.2539 114.583 12.6463 113.222 12.3761C111.86 12.106 110.452 12.1819 109.127 12.5969C106.774 13.2961 105.142 15.999 106.065 18.3299C107.043 20.0332 109.019 20.3873 110.969 21.0193C112.081 21.4093 112.991 21.4945 113.103 22.4223C113.103 22.7944 112.892 23.2426 111.884 23.2426C110.279 23.2426 108.661 22.4223 107.199 21.4721L105.617 24.2512C108.405 26.842 115.281 27.8057 117.276 23.8612Z"></path>
<path fill="white" d="M119.404 11.2789H124.546V26.2233H129.131V11.2789H134.246V7.06995H119.404V11.2789Z"></path>
<path fill="white" d="M160.003 14.4212C157.927 12.18 153.907 11.7317 151.154 12.8568C147.515 14.2419 146.022 18.7064 147.394 22.1937C148.492 25.0221 151.343 26.5371 154.404 26.4878C157.717 26.5237 160.545 24.9593 161.477 21.7723H157.201C156.139 23.9508 151.858 23.5922 151.948 20.7638H161.809C162.195 18.5226 161.621 16.0572 160.003 14.4212ZM151.831 18.0474C151.817 17.711 151.871 17.3751 151.99 17.06C152.109 16.7449 152.29 16.4572 152.523 16.214C152.756 15.9709 153.036 15.7774 153.346 15.6453C153.656 15.5131 153.989 15.445 154.326 15.445C154.662 15.445 154.996 15.5131 155.305 15.6453C155.615 15.7774 155.895 15.9709 156.128 16.214C156.361 16.4572 156.543 16.7449 156.661 17.06C156.78 17.3751 156.834 17.711 156.82 18.0474H151.831Z"></path>
<path fill="white" d="M183.846 14.4212C181.77 12.18 177.75 11.7317 174.998 12.8568C171.362 14.2419 169.87 18.7064 171.237 22.1937C172.335 25.0221 175.19 26.5371 178.252 26.4878C181.564 26.5237 184.388 24.9593 185.321 21.7723H181.044C179.982 23.9508 175.701 23.5922 175.795 20.7638H185.657C186.015 18.5226 185.468 16.0572 183.846 14.4212ZM175.674 18.0474C175.66 17.711 175.714 17.3751 175.833 17.06C175.952 16.7449 176.133 16.4572 176.366 16.214C176.599 15.9709 176.879 15.7774 177.189 15.6453C177.499 15.5131 177.832 15.445 178.169 15.445C178.506 15.445 178.839 15.5131 179.149 15.6453C179.458 15.7774 179.738 15.9709 179.971 16.214C180.204 16.4572 180.386 16.7449 180.505 17.06C180.624 17.3751 180.678 17.711 180.663 18.0474H175.674Z"></path>
<path fill="white" d="M144.215 14.4212C142.14 12.18 138.119 11.7317 135.367 12.8568C131.731 14.2419 130.239 18.7064 131.606 22.1937C132.704 25.0221 135.559 26.5371 138.621 26.4878C141.933 26.5237 144.757 24.9593 145.694 21.7723H141.413C140.351 23.9508 136.07 23.5922 136.165 20.7638H146.026C146.384 18.5226 145.838 16.0572 144.215 14.4212ZM136.048 18.0474C136.048 17.3865 136.311 16.7526 136.778 16.2852C137.245 15.8178 137.879 15.5552 138.54 15.5552C139.201 15.5552 139.835 15.8178 140.302 16.2852C140.77 16.7526 141.032 17.3865 141.032 18.0474H136.048Z"></path>
<path fill="white" d="M167.394 7.57202H162.643C162.773 8.71504 162.316 23.8656 162.961 24.4528C163.566 25.9768 165.153 26.5282 166.69 26.5147C167.564 26.5147 169.151 26.4027 170.075 25.6855C170.075 24.8204 169.98 22.6733 169.954 21.9785C168.846 22.4044 167.296 22.4268 167.385 20.8176V15.4387H170.128V11.9469H167.394V7.57202Z"></path>
<path fill="white" d="M193.049 13.0136C192.129 13.7136 191.408 14.6403 190.955 15.7031V12.3009H186.639V26.2502H191.381V18.0295C192.336 16.7878 194.214 16.5906 195.823 16.5413V12.2875C194.842 12.1968 193.86 12.4539 193.049 13.0136Z"></path>
<path fill="white" d="M72.471 12.8343C71.7233 12.4573 70.8995 12.2557 70.0622 12.2448C69.2249 12.234 68.3962 12.4141 67.6389 12.7716C64.3175 14.3718 63.3851 18.9484 64.564 22.2116C64.9768 23.4613 65.7775 24.5468 66.8497 25.3102C67.9219 26.0736 69.2096 26.4751 70.5256 26.4564C72.462 26.5102 73.6409 25.5599 74.4612 23.9238V26.1919H79.1767V12.5385H74.4343V15.0397C74.0336 14.1128 73.3452 13.3396 72.471 12.8343ZM74.4477 18.3612V18.4194V20.9699C72.8385 23.6594 68.8806 22.6374 68.9702 19.4325C68.9881 15.8286 73.0896 14.9321 74.4477 18.3612Z"></path>
<path fill="white" d="M104.125 9.10495C104.094 7.71989 102.942 6.99374 101.642 7.13269C101.136 7.15685 100.658 7.37494 100.308 7.74175C99.9588 8.10855 99.7637 8.59591 99.7637 9.10271C99.7637 9.60952 99.9588 10.0969 100.308 10.4637C100.658 10.8305 101.136 11.0486 101.642 11.0727C102.942 11.2207 104.094 10.4855 104.125 9.10495Z"></path>
<path fill="#FF5528" d="M43.0155 14.2463L42.9931 14.2194C41.1553 11.9423 36.3995 6.74273 31.8857 7.57198H31.8543C30.7875 7.81403 29.4248 8.53123 27.7215 9.75493C27.7439 9.38289 27.7529 9.02428 27.7439 8.67914C27.7036 6.9534 27.2957 5.6042 26.5112 4.64496C26.1837 4.24977 25.7132 4.00004 25.2024 3.95019C25.4022 3.39022 25.4861 2.79545 25.4489 2.20205C25.4086 1.61485 25.2113 0.902145 24.5031 0.857321C23.5346 0.777574 22.5684 1.03575 21.7688 1.58795L21.6254 1.39521C21.1054 0.686988 20.0879 -0.0167524 19.2901 0.0504839C19.0972 0.0598346 18.91 0.118262 18.746 0.220237C18.5821 0.322211 18.4469 0.464356 18.3532 0.6332C18.0439 1.20247 18.0171 2.37686 18.0574 3.36299C17.3438 3.01986 16.559 2.8507 15.7674 2.8694C14.9758 2.8881 14.1999 3.09412 13.5033 3.47057C12.4499 4.10259 10.8452 5.76556 11.4951 9.88491C10.3591 8.55373 8.97142 7.46002 7.41165 6.66653C5.43938 5.7073 3.54332 5.57282 1.93861 6.29001C1.58208 6.45947 1.27002 6.70978 1.02723 7.02105C0.78445 7.33231 0.617647 7.69592 0.540094 8.08298C-0.0515852 10.4094 1.18108 15.0711 6.40758 21.1941C8.39727 23.5306 10.6035 25.6738 12.9967 27.595C16.7351 30.5444 20.1328 32.0415 23.0912 32.0415H23.3287C24.8214 32.0012 25.9913 31.5305 26.6233 30.6968C27.968 28.9711 28.0666 26.8329 26.964 24.6231C28.4611 25.5196 30.0792 26.0754 31.7422 25.8558C34.3689 25.5599 37.0898 23.6684 39.833 20.2393C41.1314 18.6304 42.2637 16.8944 43.2127 15.0576L43.392 14.5287L43.0155 14.2463Z"></path>
<path fill="white" d="M19.2721 16.2903C18.9494 14.1746 17.775 11.7541 17.4792 11.0324C17.4141 10.9144 17.3881 10.7787 17.405 10.645C17.4219 10.5113 17.4808 10.3864 17.5733 10.2883C17.6757 10.2084 17.8019 10.1649 17.9319 10.1649C18.0618 10.1649 18.1881 10.2084 18.2905 10.2883C19.3394 10.9965 21.8764 13.0943 23.3825 14.4032L24.3193 13.5829C25.2158 11.5658 25.4444 9.12737 24.3955 7.55852C23.8397 6.72479 22.867 6.66204 21.9257 6.84582C20.1328 7.39268 19.4694 8.1009 19.4694 8.1009C19.4694 8.1009 16.0672 4.32222 14.1891 6.97581L14.086 7.1327C13.0819 10.5438 15.4262 16.5234 19.2721 16.2903Z"></path>
<path fill="white" d="M17.0487 23.6953C16.8686 23.651 16.7099 23.5446 16.6004 23.395C16.5236 23.3058 16.4763 23.1949 16.465 23.0777C16.4538 22.9605 16.4792 22.8427 16.5377 22.7405C17.1531 22.0844 17.711 21.3766 18.2051 20.6248L18.1603 20.6024C17.4386 20.2169 16.0222 19.5042 15.3005 19.1142C14.8209 19.1142 14.404 19.1411 14.0992 19.168C13.9055 19.1881 13.7102 19.1881 13.5165 19.168C13.3598 19.0348 13.2373 18.866 13.1594 18.6757C13.0814 18.4854 13.0501 18.2792 13.0683 18.0743C13.0683 18.0026 13.1445 17.7874 13.6331 17.7606C14.1399 17.7362 14.6478 17.7497 15.1526 17.8009C15.1526 17.3123 14.8344 17.003 14.2023 16.5279C13.2365 15.8024 12.2125 15.1578 11.1408 14.6005C11.0422 14.5467 10.594 14.3539 10.0651 14.1208C9.17212 14.0199 8.27165 14.0034 7.37561 14.0715C7.37574 13.9055 7.43812 13.7455 7.55042 13.6233C7.69992 13.4565 7.8833 13.3235 8.08831 13.2333C7.90453 13.1392 7.79247 13.0675 7.80144 13.0451C8.03901 12.2293 7.62214 11.3776 7.07977 10.7097C6.23865 9.68727 5.13552 8.9126 3.88829 8.46849C3.47445 8.28587 3.01504 8.23274 2.57045 8.31609C2.51558 8.3306 2.46169 8.34857 2.40909 8.36989C1.80844 9.17224 2.09532 10.6111 3.25178 12.6596C6.64049 18.6257 10.5536 23.1888 14.8747 26.2189C18.5592 28.8008 21.6207 29.6031 23.2344 29.8541C23.4828 29.8 23.7162 29.6916 23.9177 29.5366C24.1192 29.3816 24.2838 29.1839 24.3998 28.9576C24.6912 28.3122 24.8481 25.421 21.056 22.4223C19.8448 22.985 18.5721 23.4046 17.2638 23.6729C17.194 23.693 17.1212 23.7006 17.0487 23.6953Z"></path>
<path fill="white" d="M20.4509 6.76519C20.4912 6.82346 20.7243 6.76519 21.065 6.65313C22.1734 6.1986 23.1559 5.48364 23.9293 4.5688C24.4361 3.91899 24.6851 3.10491 24.6285 2.28277C24.6016 1.93762 24.5254 1.7135 24.4582 1.70902C20.4195 1.4849 20.3613 6.63071 20.4509 6.76519Z"></path>
<path fill="white" d="M32.0343 8.38337C30.5506 8.71955 28.4842 10.1539 26.6554 11.5973C26.6823 11.4538 26.7092 11.3104 26.7316 11.149C26.754 10.9876 26.7809 10.7815 26.8033 10.6022C26.8835 9.96896 26.918 9.3308 26.9064 8.69264C26.8705 7.05656 26.4582 5.90907 25.862 5.17395C25.7522 5.04759 25.6165 4.94626 25.4642 4.87683C25.3118 4.80739 25.1464 4.77146 24.979 4.77146C24.8115 4.77146 24.6461 4.80739 24.4937 4.87683C24.3414 4.94626 24.2057 5.04759 24.0959 5.17395L24.0421 5.22774C23.9975 5.27972 23.9654 5.34123 23.9483 5.40756C23.9311 5.47388 23.9294 5.54326 23.9433 5.61035C23.9571 5.67744 23.9861 5.74046 24.0282 5.79458C24.0702 5.84869 24.124 5.89246 24.1856 5.92251C24.4892 6.05508 24.7477 6.27313 24.9297 6.55006C26.1265 8.34302 25.6648 11.2656 24.4814 13.4171L24.3156 13.565L23.3787 14.3853C21.8547 13.0765 19.3446 10.9787 18.2867 10.2705C18.1843 10.1905 18.0581 10.1471 17.9281 10.1471C17.7982 10.1471 17.6719 10.1905 17.5695 10.2705C17.4771 10.3685 17.4181 10.4934 17.4012 10.6272C17.3843 10.7609 17.4103 10.8965 17.4754 11.0145C17.7802 11.7362 18.9546 14.1522 19.2684 16.2724C15.4224 16.5055 13.0781 10.526 14.0732 7.10588C14.1878 6.69406 14.3712 6.30457 14.6156 5.95389C16.032 3.95025 17.6457 5.416 19.1563 6.29007L19.2639 6.36179C19.3197 6.39795 19.3843 6.4181 19.4507 6.42004C19.5172 6.42199 19.5829 6.40565 19.6407 6.37282C19.6985 6.33999 19.7461 6.29193 19.7785 6.23387C19.8109 6.1758 19.8267 6.10996 19.8242 6.04354C19.8242 5.36221 19.9945 3.25548 20.9582 1.89282C20.4293 1.16667 19.3177 0.574988 19.0756 1.02323C18.7394 1.6418 18.8694 3.83819 19.0084 4.90052C16.1351 2.55173 10.9714 3.23307 12.4103 10.3556C12.6389 11.5287 13.036 12.6625 13.5891 13.7219C13.1857 13.5606 12.7464 13.4037 12.2444 13.2737L12.0786 13.2199V13.0585C12.0424 12.2475 11.7255 11.4742 11.1821 10.8711C8.97672 8.09201 5.22941 5.71184 2.21723 7.05208C1.97349 7.17185 1.76155 7.3476 1.59873 7.56495C1.43591 7.78231 1.32683 8.0351 1.2804 8.30268C0.827679 10.3242 2.00655 14.8067 7.03583 20.6831C9.18291 23.2022 16.7179 31.414 23.307 31.2347C24.5307 31.2034 25.5034 30.8358 25.9696 30.2262C27.5384 28.1957 26.8257 25.9948 25.9696 24.5066C25.2301 23.2999 24.2885 22.2294 23.186 21.342C23.3657 21.2241 23.5393 21.0969 23.706 20.961C25.5796 22.754 28.6366 25.4838 31.6667 25.0714C37.4491 24.4304 42.4245 14.9546 42.4559 14.8336C42.3528 14.7663 36.8619 7.49585 32.0343 8.38337ZM24.7548 25.3269C25.983 27.7071 25.862 29.4059 25.3824 29.8497C25.091 30.1186 23.6163 29.9259 23.4505 29.9035L23.2398 29.8721C21.6261 29.6211 18.5646 28.8187 14.8801 26.2368C10.559 23.2067 6.64586 18.6436 3.25715 12.6775C2.10068 10.6335 1.81381 9.1902 2.41446 8.38784L2.49514 8.28923C3.0151 7.711 4.01468 7.59895 5.30114 7.97547C7.62303 8.6568 10.2318 10.7053 10.3752 12.6641V12.9106H10.1108C9.41419 12.8619 8.71612 12.9818 8.07575 13.2602C7.87074 13.3505 7.68736 13.4834 7.53786 13.6502C7.42555 13.7725 7.36318 13.9324 7.36305 14.0985C8.25909 14.0303 9.15956 14.0468 10.0525 14.1478C11.8121 14.3134 13.513 14.8676 15.0325 15.7704C16.4579 17.2586 18.1164 17.8323 19.3401 17.5634C19.3067 18.0214 19.2148 18.4734 19.0666 18.9081C17.8164 18.3674 16.4933 18.014 15.14 17.8592C14.6352 17.808 14.1273 17.7945 13.6205 17.8189C13.1319 17.8458 13.0737 18.0609 13.0557 18.1326C13.0376 18.3375 13.0688 18.5437 13.1468 18.734C13.2248 18.9243 13.3473 19.0931 13.504 19.2263C13.6977 19.2464 13.893 19.2464 14.0867 19.2263C14.4004 19.1994 14.8083 19.1681 15.288 19.1725C16.4433 19.1805 17.5846 19.4261 18.6408 19.8942C18.4974 20.1721 18.3495 20.4321 18.1926 20.6831C17.6984 21.4349 17.1406 22.1427 16.5251 22.7988C16.4666 22.901 16.4412 23.0188 16.4525 23.136C16.4637 23.2532 16.511 23.3641 16.5879 23.4533C16.6973 23.6029 16.856 23.7093 17.0361 23.7536C17.1087 23.7668 17.1831 23.7668 17.2557 23.7536C18.5641 23.4854 19.8367 23.0657 21.0479 22.503C21.3616 22.364 21.6709 22.2206 21.9713 22.0548C23.0926 22.9649 24.0362 24.0742 24.7548 25.3269ZM31.6174 23.637C29.0176 23.9912 26.1758 21.8934 24.4456 20.2663L24.0466 19.8808L23.6566 19.4863L23.5984 19.5446L23.4505 19.6925C23.4011 19.7418 23.3474 19.7866 23.2891 19.8359C23.1619 19.9491 23.0287 20.0553 22.8902 20.1542L22.7064 20.2887L22.6257 20.3425L22.5181 20.4142L22.406 20.4859L22.3298 20.5307L22.1999 20.6114C21.8223 20.8297 21.4316 21.0243 21.0299 21.1941L20.9717 21.2165C20.7341 21.3196 19.6538 21.6917 19.5373 21.723C20.2231 20.3732 20.5328 18.8635 20.4338 17.3527C20.241 14.9053 18.8067 11.7945 18.7977 11.7631C19.9586 12.5655 21.7606 14.2912 22.6929 15.1025L22.8498 15.2415L22.9888 15.3715L23.1008 15.479C23.2413 15.6135 23.3713 15.748 23.4908 15.8825C23.576 15.7883 28.2422 10.2929 32.6484 9.91635C36.2343 9.60258 39.8203 14.6991 40.1251 15.0577C39.9323 15.5732 36.0416 23.1126 31.6174 23.637Z"></path>
<path fill="white" d="M34.3412 11.2207C30.4146 9.87593 26.4163 13.9863 23.9868 16.3844L23.4803 15.9003C23.3189 15.721 23.1352 15.5372 22.9559 15.3669C15.8557 9.79076 23.2607 16.1065 21.0239 21.194C21.9785 20.8151 22.8507 20.255 23.5924 19.5445C23.7377 19.4105 23.8754 19.2683 24.0048 19.1187C31.2394 26.555 36.3852 21.3285 38.8953 14.7035C38.1692 14.1925 36.4793 12.0768 34.3412 11.2207Z"></path>
<path fill="#FF5528" d="M33.6208 14.0446C34.0392 14.0446 34.3783 13.7054 34.3783 13.2871C34.3783 12.8687 34.0392 12.5295 33.6208 12.5295C33.2024 12.5295 32.8633 12.8687 32.8633 13.2871C32.8633 13.7054 33.2024 14.0446 33.6208 14.0446Z"></path>
<path fill="white" d="M192.822 25.2641C192.82 25.0578 192.878 24.8555 192.991 24.6827C193.104 24.5099 193.265 24.3745 193.455 24.2938C193.645 24.213 193.854 24.1905 194.057 24.2291C194.259 24.2677 194.446 24.3656 194.593 24.5105C194.74 24.6554 194.84 24.8406 194.881 25.0427C194.922 25.2448 194.903 25.4546 194.824 25.6454C194.746 25.8362 194.613 25.9994 194.441 26.1143C194.27 26.2292 194.069 26.2905 193.862 26.2905C193.726 26.2929 193.591 26.2681 193.465 26.2175C193.338 26.167 193.223 26.0917 193.126 25.996C193.03 25.9004 192.953 25.7864 192.901 25.6607C192.848 25.535 192.822 25.4002 192.822 25.2641ZM193.862 26.1202C194.032 26.1247 194.2 26.0783 194.344 25.9869C194.488 25.8956 194.601 25.7635 194.669 25.6075C194.737 25.4515 194.757 25.2787 194.727 25.1112C194.697 24.9437 194.617 24.789 194.498 24.667C194.379 24.5451 194.227 24.4613 194.06 24.4264C193.893 24.3915 193.72 24.4071 193.562 24.4712C193.405 24.5353 193.27 24.6449 193.175 24.7862C193.079 24.9274 193.029 25.0938 193.029 25.2641C193.024 25.3757 193.043 25.4871 193.083 25.5914C193.123 25.6958 193.184 25.7908 193.262 25.8709C193.34 25.951 193.433 26.0144 193.536 26.0572C193.64 26.1001 193.751 26.1215 193.862 26.1202ZM193.647 25.8557H193.468V24.6679H193.916C194.198 24.6679 194.337 24.771 194.337 25.0041C194.339 25.0458 194.333 25.0875 194.318 25.1266C194.303 25.1657 194.281 25.2014 194.252 25.2315C194.223 25.2617 194.188 25.2857 194.15 25.3021C194.111 25.3184 194.07 25.3268 194.028 25.3268L194.364 25.8468H194.163L193.853 25.3358H193.647V25.8557ZM193.862 25.1923C194.01 25.1923 194.149 25.1923 194.149 24.9996C194.149 24.8068 194.015 24.8293 193.889 24.8293H193.647V25.1923H193.862Z"></path>
</g>
<defs>
<clipPath id="clip0_8099_27527">
<rect transform="translate(0.40625 0.0639648)" fill="white" height="32" width="196.317"></rect>
</clipPath>
</defs>
</svg>
