<svg xmlns="http://www.w3.org/2000/svg" fill="none" viewBox="0 0 197 33" height="33" width="197">
<g clip-path="url(#clip0_4122_21450)">
<path fill="#9D2136" d="M194.067 27.611C193.776 27.6093 193.492 27.5213 193.25 27.3581C193.009 27.195 192.822 26.9641 192.711 26.6945C192.601 26.4249 192.573 26.1286 192.631 25.8432C192.689 25.5577 192.83 25.2957 193.037 25.0904C193.243 24.8851 193.506 24.7455 193.792 24.6893C194.078 24.6331 194.374 24.6628 194.643 24.7747C194.912 24.8866 195.141 25.0756 195.303 25.3179C195.465 25.5603 195.551 25.845 195.551 26.1363C195.552 26.3311 195.515 26.5241 195.44 26.7042C195.366 26.8842 195.257 27.0477 195.119 27.185C194.98 27.3223 194.816 27.4307 194.636 27.5038C194.455 27.577 194.262 27.6134 194.067 27.611Z"></path>
<path fill="#FF5528" d="M194.067 25.1142C194.27 25.1168 194.467 25.1794 194.634 25.294C194.802 25.4086 194.931 25.5701 195.006 25.7581C195.082 25.9462 195.1 26.1523 195.059 26.3507C195.017 26.549 194.918 26.7307 194.773 26.8727C194.629 27.0147 194.446 27.1108 194.247 27.1488C194.047 27.1869 193.842 27.1651 193.655 27.0864C193.468 27.0076 193.309 26.8753 193.197 26.7063C193.086 26.5372 193.027 26.3388 193.027 26.1362C193.027 26.0004 193.054 25.8661 193.107 25.7409C193.159 25.6157 193.236 25.5023 193.333 25.4071C193.43 25.312 193.545 25.2371 193.671 25.1868C193.797 25.1365 193.932 25.1118 194.067 25.1142ZM194.067 26.9923C194.238 26.9968 194.405 26.9504 194.549 26.8591C194.693 26.7677 194.806 26.6356 194.874 26.4796C194.942 26.3236 194.963 26.1509 194.932 25.9833C194.902 25.8158 194.822 25.6612 194.703 25.5392C194.584 25.4172 194.432 25.3334 194.265 25.2985C194.099 25.2636 193.925 25.2792 193.768 25.3433C193.61 25.4074 193.475 25.5171 193.38 25.6583C193.285 25.7995 193.234 25.9659 193.234 26.1362C193.229 26.2479 193.248 26.3592 193.288 26.4636C193.328 26.5679 193.389 26.663 193.467 26.743C193.545 26.8231 193.638 26.8865 193.742 26.9293C193.845 26.9722 193.956 26.9936 194.067 26.9923ZM194.121 25.549C194.404 25.549 194.542 25.6521 194.542 25.8852C194.544 25.9269 194.538 25.9686 194.523 26.0077C194.508 26.0468 194.486 26.0825 194.457 26.1126C194.428 26.1428 194.393 26.1668 194.355 26.1831C194.316 26.1995 194.275 26.2079 194.233 26.2079L194.569 26.7279H194.368L194.058 26.2169H193.852V26.7279H193.673V25.54H194.121M193.852 26.0555H194.067C194.215 26.0555 194.354 26.0555 194.354 25.8628C194.354 25.67 194.22 25.6924 194.094 25.6924H193.852V26.0555ZM194.067 24.2087C193.557 24.2075 193.066 24.4087 192.703 24.7683C192.34 25.1278 192.134 25.6164 192.131 26.1272C192.127 26.5109 192.238 26.8871 192.449 27.2079C192.659 27.5287 192.96 27.7796 193.314 27.929C193.667 28.0783 194.057 28.1192 194.434 28.0465C194.811 27.9738 195.158 27.7908 195.43 27.5208C195.703 27.2507 195.889 26.9057 195.965 26.5296C196.041 26.1535 196.004 25.7632 195.858 25.4083C195.712 25.0534 195.464 24.75 195.145 24.5364C194.826 24.3228 194.451 24.2088 194.067 24.2087Z"></path>
<path fill="#9D2136" d="M58.1155 27.5438V19.574H52.9383V27.5438H47.1694V7.4939H52.9383V14.4641H58.1155V7.4939H63.8889V27.5438H58.1155Z"></path>
<path fill="#FF5528" d="M63.4362 7.94214V27.091H58.5638V19.1213H52.4902V27.091H47.6133V7.94214H52.4902V14.9123H58.5638V7.94214H63.4362ZM64.3327 7.04565H57.6674V14.0158H53.3866V7.04565H46.7168V27.9875H53.3866V20.0178H57.6674V27.9875H64.3327V7.04565Z"></path>
<path fill="#9D2136" d="M79.8193 27.5392V12.9624H85.0324V14.8943C85.4841 14.2251 86.09 13.6742 86.7991 13.288C87.5082 12.9019 88.2997 12.6918 89.1069 12.6755H89.4879L89.9048 12.7069V17.8348H89.4565C88.6354 17.8346 87.8176 17.9385 87.0226 18.1441C86.4201 18.2751 85.8724 18.588 85.4537 19.0406V27.5258L79.8193 27.5392Z"></path>
<path fill="#FF5528" d="M89.1069 13.1238H89.4565V17.3955C88.5976 17.3951 87.7421 17.5035 86.9105 17.7183C86.1643 17.8801 85.4946 18.2892 85.01 18.8792V27.0776H80.2676V13.4107H84.5841V16.5484C85.4806 14.594 87.0046 13.1238 89.1069 13.1238ZM89.1069 12.2273C87.7515 12.2329 86.4513 12.7649 85.4806 13.711V12.5142H79.3711V27.9875H85.9065V19.2288C86.2591 18.9175 86.6846 18.7001 87.1436 18.5968C87.9025 18.4039 88.6825 18.306 89.4655 18.3055H90.362V12.3035L89.5327 12.2407H89.1159L89.1069 12.2273Z"></path>
<path fill="#9D2136" d="M89.6763 27.5392V12.6935H94.8893V14.8943C95.341 14.2251 95.9469 13.6742 96.656 13.288C97.3651 12.9019 98.1566 12.6918 98.9638 12.6755H99.3448L99.7617 12.7069V17.8348H99.3135C98.4923 17.8346 97.6745 17.9385 96.8795 18.1441C96.277 18.2751 95.7294 18.588 95.3107 19.0406V27.5258L89.6763 27.5392Z"></path>
<path fill="#FF5528" d="M98.9638 13.1238H99.3135V17.3955C98.4546 17.3951 97.5991 17.5035 96.7674 17.7183C96.0212 17.8801 95.3515 18.2892 94.8669 18.8792V27.0776H90.1245V13.1417H94.4411V16.5484C95.3376 14.594 96.8616 13.1238 98.9638 13.1238ZM98.9638 12.2273C97.6084 12.2329 96.3082 12.7649 95.3376 13.711V12.2452H89.228V27.9875H95.7634V19.2288C96.1161 18.9175 96.5416 18.7001 97.0005 18.5968C97.7594 18.4039 98.5394 18.306 99.3224 18.3055H100.219V12.3035L99.3897 12.2407H98.9728L98.9638 12.2273Z"></path>
<path fill="#9D2136" d="M105.029 12.698H99.6765V27.5438H105.029V12.698Z"></path>
<path fill="#FF5528" d="M104.576 13.1416V27.0909H100.125V13.1416H104.576ZM105.472 12.2451H99.2283V27.9874H105.472V12.2451Z"></path>
<path fill="#9D2136" d="M108.233 21.3849C107.253 21.0113 106.425 20.3221 105.88 19.4261V19.3947V19.3678C105.658 18.7864 105.56 18.1647 105.593 17.5432C105.627 16.9216 105.79 16.3139 106.073 15.7594C106.384 15.1169 106.823 14.5444 107.362 14.0767C107.902 13.609 108.531 13.2558 109.211 13.0386C110.085 12.7876 110.99 12.6594 111.9 12.6576C113.931 12.6327 115.901 13.35 117.44 14.6747L117.732 14.9257L115.535 18.4041L114.253 17.6421L114.195 17.5434C113.975 17.1057 113.644 16.7334 113.235 16.4636C112.826 16.1938 112.353 16.036 111.864 16.006C110.192 16.006 108.834 17.902 108.834 20.2284C108.835 20.4592 108.85 20.6897 108.879 20.9187L108.973 21.6986L108.233 21.3849Z"></path>
<path fill="#FF5528" d="M111.878 13.1058C113.801 13.0851 115.666 13.7636 117.127 15.0153L115.365 17.7989L114.558 17.3148C113.917 16.2435 112.94 15.5577 111.842 15.5577C109.919 15.5577 108.364 17.651 108.364 20.2284C108.364 20.4772 108.38 20.7258 108.413 20.9725C107.521 20.6373 106.767 20.0142 106.27 19.2019C105.347 16.871 106.978 14.1682 109.332 13.4689C110.159 13.2304 111.016 13.1083 111.878 13.1058ZM111.878 12.2093C110.933 12.2123 109.994 12.345 109.085 12.6038C108.34 12.8364 107.65 13.2187 107.058 13.7275C106.466 14.2362 105.985 14.8606 105.643 15.5622C105.332 16.1728 105.153 16.8418 105.118 17.526C105.082 18.2101 105.191 18.8941 105.436 19.5336L105.459 19.5919L105.495 19.6501C106.084 20.6305 106.985 21.3849 108.054 21.7928L109.507 22.4024L109.318 20.847C109.293 20.6357 109.279 20.4232 109.278 20.2105C109.278 18.1665 110.461 16.4363 111.86 16.4363C112.271 16.468 112.666 16.6062 113.007 16.8373C113.348 17.0684 113.623 17.3843 113.805 17.7541L113.922 17.9513L114.119 18.0679L114.567 18.3234L114.944 18.552L115.692 19.0002L116.14 18.2651L117.902 15.477L118.31 14.8271L117.709 14.334C116.09 12.9398 114.018 12.1843 111.882 12.2093H111.878Z"></path>
<path fill="#9D2136" d="M112.241 27.8305C109.753 27.8305 107.05 26.8847 105.517 25.4727L105.253 25.2307L107.265 21.7299L107.664 21.9899C108.253 22.3789 108.871 22.7235 109.511 23.0209L109.623 23.0747L109.695 23.1733C109.924 23.5458 110.24 23.8569 110.617 24.0795C110.993 24.3021 111.418 24.4295 111.855 24.4508C113.527 24.4508 114.885 22.5592 114.885 20.2283C114.884 19.9764 114.866 19.7248 114.832 19.4753L114.729 18.6819L115.459 19.0091C118.149 20.2193 118.955 22.1468 117.911 24.8945V24.9393C116.965 26.804 114.962 27.8305 112.272 27.8305H112.241Z"></path>
<path fill="#FF5528" d="M115.262 19.4171C117.351 20.3539 118.579 21.8376 117.503 24.7333C116.549 26.6204 114.473 27.3824 112.263 27.3824C109.861 27.3824 107.297 26.4859 105.845 25.1411L107.427 22.3621C108.037 22.7634 108.675 23.1199 109.336 23.4289C109.607 23.8608 109.978 24.2204 110.419 24.4765C110.859 24.7327 111.355 24.8777 111.864 24.8991C113.783 24.8991 115.343 22.8103 115.343 20.2284C115.342 19.957 115.322 19.6859 115.284 19.4171M114.191 17.9424L114.397 19.5337C114.428 19.764 114.444 19.996 114.446 20.2284C114.446 22.2769 113.263 24.0026 111.864 24.0026C111.499 23.9811 111.145 23.8706 110.833 23.6808C110.52 23.4909 110.259 23.2274 110.071 22.9134L109.928 22.7162L109.708 22.6131C109.087 22.3252 108.487 21.9911 107.915 21.6135L107.118 21.0935L106.647 21.9183L105.065 24.6974L104.71 25.3205L105.235 25.8046C106.871 27.3062 109.632 28.2788 112.263 28.2788C113.457 28.3026 114.641 28.0639 115.733 27.5796C116.842 27.083 117.748 26.2228 118.301 25.1411L118.324 25.0963V25.0515C119.449 22.0797 118.548 19.9057 115.634 18.6013L114.173 17.9424H114.191Z"></path>
<path fill="#9D2136" d="M124.303 27.5438V12.5994H119.162V7.4939H134.899V12.5994H129.785V27.5438H124.303Z"></path>
<path fill="#FF5528" d="M134.451 7.94214V12.1511H129.337V27.091H124.747V12.1511H119.605V7.94214H134.451ZM135.348 7.04565H118.709V13.0476H123.85V27.9875H130.233V13.0476H135.348V7.04565Z"></path>
<path fill="#9D2136" d="M154.456 27.8081C151.063 27.8081 148.275 26.0555 147.181 23.2271C146.417 21.2323 146.475 19.0158 147.343 17.0637C147.702 16.2127 148.229 15.4423 148.891 14.798C149.553 14.1536 150.337 13.6484 151.197 13.3119C152.266 12.8896 153.406 12.678 154.555 12.6889C156.957 12.6889 159.194 13.545 160.534 14.9884C162.153 16.6244 162.874 19.1391 162.448 21.712L162.386 22.084H158.719L158.862 21.5282C158.946 21.2016 158.99 20.8659 158.992 20.5286C158.974 19.7756 158.734 19.0448 158.302 18.4277C157.87 17.8106 157.265 17.3347 156.564 17.0595C155.863 16.7842 155.096 16.722 154.36 16.8805C153.624 17.039 152.95 17.4113 152.425 17.9506C151.899 18.49 151.544 19.1725 151.404 19.9127C151.264 20.6528 151.346 21.4178 151.639 22.1117C151.932 22.8056 152.423 23.3977 153.051 23.8138C153.679 24.2298 154.416 24.4514 155.169 24.4508C155.857 24.4461 156.53 24.2558 157.119 23.9C157.708 23.5442 158.189 23.036 158.513 22.4292L158.638 22.1961H162.282L162.112 22.7699C161.189 25.9075 158.428 27.8081 154.73 27.8081H154.456Z"></path>
<path fill="#FF5528" d="M154.555 13.1373C156.671 13.1373 158.854 13.841 160.207 15.2933C161.825 16.9294 162.377 19.3948 162 21.636H159.288C159.382 21.2743 159.43 20.9024 159.432 20.5288C159.413 19.6871 159.147 18.8696 158.665 18.1788C158.184 17.488 157.51 16.9546 156.727 16.6454C155.944 16.3363 155.087 16.2652 154.263 16.441C153.44 16.6169 152.687 17.0318 152.099 17.6339C151.51 18.2359 151.112 18.9983 150.955 19.8254C150.798 20.6526 150.889 21.5076 151.216 22.2835C151.543 23.0593 152.091 23.7214 152.793 24.1867C153.495 24.652 154.318 24.8998 155.16 24.8992C155.927 24.897 156.68 24.6876 157.338 24.2931C157.996 23.8986 158.535 23.3337 158.898 22.658H161.673C160.75 25.7956 157.979 27.3735 154.721 27.3735H154.447C151.444 27.3735 148.669 25.8584 147.589 23.0793C146.218 19.592 147.71 15.1275 151.35 13.7424C152.367 13.341 153.452 13.1401 154.546 13.1507M154.546 12.2542C153.339 12.2433 152.141 12.4655 151.018 12.9087C150.105 13.2677 149.272 13.805 148.569 14.4891C147.866 15.1733 147.306 15.9907 146.921 16.8936C146.005 18.9568 145.945 21.2993 146.755 23.4065C147.921 26.4053 150.866 28.2699 154.447 28.2699H154.721C158.629 28.2699 161.552 26.2663 162.534 22.891L162.641 22.528H162.758L162.883 21.7794C163.125 20.5168 163.067 19.2149 162.713 17.9791C162.358 16.7433 161.718 15.6082 160.844 14.6658C159.418 13.1418 157.065 12.2363 154.546 12.2363V12.2542ZM155.16 24.0161C154.468 24.0367 153.785 23.8501 153.2 23.4804C152.614 23.1107 152.152 22.5746 151.873 21.9408C151.594 21.3071 151.511 20.6044 151.634 19.9229C151.756 19.2414 152.08 18.612 152.562 18.1154C153.045 17.6187 153.665 17.2774 154.342 17.1351C155.02 16.9929 155.725 17.0561 156.366 17.3168C157.008 17.5774 157.557 18.0236 157.943 18.5983C158.33 19.1729 158.536 19.8498 158.535 20.5423C158.534 20.8448 158.495 21.1459 158.419 21.4387L158.307 21.887L158.109 22.2501C157.825 22.787 157.401 23.2371 156.882 23.5527C156.362 23.8683 155.768 24.0377 155.16 24.043V24.0161Z"></path>
<path fill="#9D2136" d="M178.298 27.8081C174.91 27.8081 172.121 26.0555 171.023 23.2271C170.259 21.2323 170.317 19.0158 171.185 17.0638C171.545 16.2126 172.072 15.4422 172.735 14.7979C173.398 14.1535 174.183 13.6483 175.044 13.312C176.111 12.8892 177.249 12.6776 178.397 12.6889C180.799 12.6889 183.036 13.5451 184.376 14.9884C185.999 16.62 186.716 19.1391 186.29 21.712L186.232 22.0841H183.139L183.296 21.5148C183.389 21.1942 183.437 20.8624 183.44 20.5287C183.44 18.3637 181.544 16.6021 179.217 16.6021C176.891 16.6021 174.995 18.3637 174.995 20.5287C174.995 22.6937 176.886 24.4508 179.217 24.4508C179.957 24.4596 180.686 24.2768 181.334 23.9202C181.982 23.5636 182.527 23.0453 182.915 22.4158L183.045 22.1961H186.125L185.954 22.7699C185.031 25.9076 182.27 27.8081 178.572 27.8081H178.298Z"></path>
<path fill="#FF5528" d="M178.397 13.1373C180.517 13.1373 182.695 13.841 184.049 15.2933C185.667 16.9294 186.219 19.3948 185.842 21.636H183.717C183.823 21.2764 183.878 20.9036 183.879 20.5288C183.879 18.1128 181.786 16.154 179.208 16.154C176.631 16.154 174.537 18.1128 174.537 20.5288C174.537 22.9448 176.626 24.8992 179.208 24.8992C180.024 24.9107 180.83 24.7102 181.546 24.3174C182.261 23.9246 182.863 23.3528 183.292 22.658H185.533C184.609 25.7956 181.844 27.3735 178.581 27.3735H178.307C175.304 27.3735 172.529 25.8629 171.449 23.0793C170.082 19.592 171.575 15.1275 175.21 13.7424C176.227 13.341 177.312 13.1401 178.406 13.1507M178.406 12.2542C177.2 12.2438 176.004 12.466 174.883 12.9087C173.969 13.2674 173.135 13.8045 172.431 14.4887C171.727 15.1729 171.166 15.9904 170.781 16.8936C169.865 18.9568 169.805 21.2993 170.615 23.4065C171.781 26.4053 174.726 28.2699 178.307 28.2699H178.581C182.489 28.2699 185.412 26.2663 186.393 22.891L186.501 22.528H186.604L186.73 21.7794C186.972 20.5168 186.914 19.2149 186.559 17.9791C186.205 16.7433 185.565 15.6082 184.69 14.6658C183.265 13.1418 180.911 12.2363 178.392 12.2363L178.406 12.2542ZM179.226 24.0161C177.142 24.0161 175.452 22.4562 175.452 20.5423C175.452 18.6283 177.142 17.0639 179.226 17.0639C181.31 17.0639 183 18.6238 183 20.5423C182.997 20.8349 182.955 21.1259 182.875 21.4074L182.754 21.8556L182.539 22.2187C182.19 22.7816 181.702 23.2447 181.122 23.5628C180.541 23.881 179.888 24.0433 179.226 24.0341V24.0161Z"></path>
<path fill="#9D2136" d="M138.669 27.8081C135.281 27.8081 132.492 26.0555 131.394 23.2315C130.629 21.2354 130.687 19.0171 131.556 17.0637C131.916 16.2126 132.443 15.4421 133.106 14.7978C133.769 14.1535 134.554 13.6483 135.415 13.3119C136.482 12.8896 137.621 12.678 138.768 12.6889C141.17 12.6889 143.407 13.545 144.747 14.9884C146.37 16.6244 147.087 19.1391 146.666 21.712L146.603 22.084H142.677L142.793 21.5417C142.865 21.2087 142.902 20.8692 142.905 20.5286C142.905 18.144 141.188 16.2076 139.077 16.2076C136.966 16.2076 135.254 18.144 135.254 20.5286C135.254 22.9133 136.97 24.8497 139.077 24.8497C139.818 24.8292 140.536 24.5919 141.143 24.1672C141.75 23.7426 142.22 23.1492 142.493 22.4606L142.614 22.1961H146.505L146.339 22.7698C145.411 25.9075 142.65 27.8081 138.952 27.8081H138.669Z"></path>
<path fill="#FF5528" d="M138.768 13.1371C140.888 13.1371 143.067 13.8408 144.42 15.2931C146.043 16.9292 146.59 19.3945 146.213 21.6357H143.214C143.294 21.272 143.334 20.9009 143.335 20.5286C143.335 17.8929 141.421 15.7593 139.059 15.7593C136.697 15.7593 134.787 17.8929 134.787 20.5286C134.787 23.1642 136.701 25.2979 139.059 25.2979C139.886 25.2751 140.688 25.0121 141.368 24.5408C142.048 24.0696 142.576 23.4106 142.887 22.6443H145.89C144.963 25.782 142.197 27.3598 138.934 27.3598H138.66C135.657 27.3598 132.882 25.8492 131.802 23.0656C130.435 19.5783 131.928 15.1138 135.563 13.7287C136.58 13.3282 137.666 13.1273 138.759 13.1371M138.759 12.2406C137.553 12.2301 136.357 12.4523 135.236 12.895C134.322 13.2532 133.489 13.7901 132.785 14.4744C132.082 15.1586 131.522 15.9765 131.139 16.8799C130.221 18.9425 130.16 21.2851 130.968 23.3928C132.134 26.3916 135.079 28.2563 138.66 28.2563H138.934C142.842 28.2563 145.765 26.2526 146.747 22.8774L146.854 22.5143H146.971L147.096 21.7657C147.338 20.5031 147.28 19.2012 146.926 17.9654C146.571 16.7296 145.931 15.5945 145.057 14.6521C143.631 13.1281 141.278 12.2227 138.759 12.2227V12.2406ZM139.059 24.4014C137.199 24.4014 135.684 22.6622 135.684 20.5286C135.684 18.3949 137.199 16.6558 139.059 16.6558C140.919 16.6558 142.439 18.3905 142.439 20.5286C142.437 20.8391 142.402 21.1486 142.336 21.452L142.242 21.9002L142.067 22.2947C141.828 22.9037 141.415 23.4293 140.881 23.8069C140.346 24.1844 139.713 24.3973 139.059 24.4193V24.4014Z"></path>
<path fill="#9D2136" d="M166.846 27.835C164.856 27.835 163.372 26.9924 162.771 25.5176C162.417 24.8632 162.323 22.3799 162.408 12.8279C162.431 10.6808 162.448 8.82958 162.408 8.49789L162.35 7.99585H168.043V12.3886H170.781V16.7769H168.047V21.7076C168.014 21.9537 168.078 22.2031 168.226 22.4023C168.429 22.5685 168.687 22.6504 168.948 22.631C169.311 22.6227 169.669 22.5499 170.006 22.4158L170.589 22.1917L170.615 22.8147C170.642 23.4647 170.732 25.6476 170.736 26.5396V26.7593L170.562 26.8937C169.584 27.6602 168.029 27.8216 166.9 27.8216L166.846 27.835Z"></path>
<path fill="#FF5528" d="M167.599 8.44408V12.8369H170.342V16.3287H167.599V21.7076C167.54 22.7565 168.186 23.1106 168.943 23.1106C169.361 23.1015 169.773 23.0196 170.163 22.8685C170.19 23.5633 170.279 25.7104 170.284 26.5755C169.365 27.2927 167.778 27.4047 166.9 27.4047H166.841C165.322 27.4047 163.771 26.8444 163.17 25.3428C162.525 24.7556 162.982 9.60504 162.852 8.46202H167.599M168.495 7.56553H161.852L161.964 8.56512C162 8.86992 161.964 10.8915 161.964 12.8414C161.857 23.4378 162.005 25.2128 162.413 25.809C163.112 27.3958 164.721 28.3012 166.859 28.3012H166.926C168.119 28.3012 169.777 28.1219 170.853 27.2792L171.203 27.0103V26.562C171.203 25.6656 171.108 23.4781 171.077 22.8237L171.028 21.5731L169.858 22.0213C169.572 22.1351 169.269 22.1974 168.961 22.2051C168.824 22.2221 168.684 22.1904 168.567 22.1155C168.506 22.0034 168.485 21.8735 168.509 21.7479V17.2252H171.252V11.9404H168.495V7.54761V7.56553Z"></path>
<path fill="#9D2136" d="M186.394 27.5481V12.7023H191.607V14.9076C191.984 14.3577 192.46 13.8821 193.01 13.5046C193.785 12.9687 194.707 12.6868 195.65 12.6978C195.789 12.6978 195.928 12.6978 196.067 12.6978L196.475 12.7337V17.8302H196.026C194.52 17.8795 192.889 18.0588 192.019 19.0315V27.5167L186.394 27.5481Z"></path>
<path fill="#FF5528" d="M195.65 13.1461C195.775 13.1461 195.905 13.1461 196.026 13.1461V17.3999C194.417 17.4492 192.539 17.6465 191.584 18.8881V27.0865H186.842V13.1506H191.158V16.5752C191.611 15.5124 192.333 14.5857 193.252 13.8857C193.956 13.3982 194.794 13.1413 195.65 13.1506M195.65 12.2541C194.613 12.2447 193.6 12.5581 192.75 13.1506C192.501 13.313 192.268 13.4992 192.055 13.7064V12.2631H185.945V28.0053H192.481V19.2646C193.256 18.525 194.722 18.3681 196.067 18.3323L196.936 18.3054V12.3393L196.12 12.2676C195.968 12.2676 195.816 12.2676 195.672 12.2676L195.65 12.2541Z"></path>
<path fill="#9D2136" d="M70.6261 27.7813C69.2335 27.781 67.8766 27.3404 66.7495 26.5225C65.6224 25.7045 64.7828 24.5511 64.3507 23.2272C63.1046 19.7757 64.1311 14.9347 67.6542 13.2404C68.4572 12.8563 69.3371 12.6601 70.2272 12.6666C71.1641 12.6529 72.0893 12.8765 72.9166 13.3166C73.4146 13.5794 73.855 13.939 74.212 14.3744V12.9625H79.8509V27.5124H74.2165V26.3021C73.8067 26.7848 73.293 27.1686 72.714 27.4247C72.1349 27.6809 71.5054 27.8028 70.8726 27.7813H70.6261ZM71.796 16.2077C71.0831 16.2271 70.3918 16.4563 69.8085 16.8665C69.2251 17.2768 68.7757 17.85 68.5165 18.5143C68.2572 19.1786 68.1996 19.9047 68.3508 20.6016C68.502 21.2985 68.8554 21.9354 69.3667 22.4325C69.878 22.9297 70.5245 23.265 71.2254 23.3967C71.9263 23.5283 72.6504 23.4503 73.3073 23.1725C73.9641 22.8947 74.5244 22.4294 74.9181 21.8348C75.3118 21.2402 75.5215 20.5427 75.5209 19.8295C75.5055 18.8558 75.1049 17.9279 74.4067 17.2491C73.7085 16.5702 72.7697 16.1957 71.796 16.2077Z"></path>
<path fill="#FF5528" d="M70.2225 13.1149C71.0765 13.1032 71.9197 13.3067 72.6744 13.7066C73.5486 14.2118 74.237 14.9851 74.6377 15.9119V13.4107H79.3801V27.0642H74.6646V24.7961C73.8622 26.4008 72.7237 27.3331 70.8724 27.3331H70.6259C69.3274 27.3277 68.0633 26.9146 67.0122 26.1521C65.961 25.3897 65.1758 24.3164 64.7674 23.0838C63.593 19.8206 64.5209 15.244 67.8423 13.6438C68.585 13.2884 69.3992 13.1075 70.2225 13.1149ZM71.7958 23.9041C72.597 23.8838 73.3744 23.6277 74.0307 23.1678C74.6871 22.708 75.1932 22.0648 75.4859 21.3187C75.7785 20.5726 75.8447 19.7568 75.676 18.9733C75.5073 18.1899 75.1114 17.4735 74.5376 16.914C73.9639 16.3544 73.2379 15.9765 72.4505 15.8274C71.663 15.6784 70.8491 15.7649 70.1106 16.076C69.3721 16.3872 68.7417 16.9093 68.2984 17.577C67.8551 18.2446 67.6185 19.0281 67.6182 19.8296C67.6246 20.3715 67.7378 20.9068 67.9513 21.405C68.1648 21.9032 68.4744 22.3544 68.8624 22.7328C69.2504 23.1112 69.7092 23.4094 70.2125 23.6104C70.7159 23.8114 71.2539 23.9112 71.7958 23.9041ZM70.2225 12.2184C69.2584 12.2081 68.3053 12.423 67.4389 12.8459C63.714 14.6389 62.6113 19.7444 63.9247 23.3886C64.3893 24.7986 65.2874 26.0258 66.4908 26.8951C67.6942 27.7644 69.1414 28.2315 70.6259 28.2296H70.8724C71.9099 28.2569 72.9275 27.9419 73.7681 27.3331V27.9562H80.2766V12.5142H73.7412V13.3256C73.5386 13.173 73.3242 13.0366 73.1002 12.9177C72.2158 12.4444 71.2255 12.2038 70.2225 12.2184ZM71.7958 23.0076C71.1718 22.9882 70.5674 22.7855 70.0579 22.4247C69.5484 22.0639 69.1564 21.5611 68.9309 20.979C68.7055 20.3968 68.6564 19.7611 68.79 19.1513C68.9235 18.5415 69.2337 17.9845 69.6818 17.5498C70.1299 17.1152 70.6962 16.8221 71.3098 16.7073C71.9234 16.5924 72.5573 16.6609 73.1323 16.904C73.7073 17.1472 74.1979 17.5543 74.543 18.0746C74.888 18.5949 75.0722 19.2053 75.0725 19.8296C75.0583 20.6852 74.7054 21.5002 74.0912 22.096C73.4769 22.6917 72.6515 23.0196 71.7958 23.0076Z"></path>
<path fill="#9D2136" d="M102.155 12.411C102.037 12.4176 101.919 12.4176 101.801 12.411C101.178 12.3804 100.59 12.1102 100.161 11.6568C99.7325 11.2034 99.4953 10.6018 99.4993 9.97767C99.5034 9.35355 99.7483 8.75512 100.183 8.30731C100.618 7.85951 101.209 7.59694 101.833 7.57444C101.94 7.56698 102.048 7.56698 102.155 7.57444C103.67 7.57444 104.746 8.57401 104.777 9.99942C104.777 10.3357 104.708 10.6683 104.573 10.9766C104.439 11.2849 104.243 11.5624 103.997 11.7918C103.751 12.0212 103.461 12.1978 103.144 12.3104C102.827 12.4231 102.491 12.4695 102.155 12.4468V12.411Z"></path>
<path fill="#FF5528" d="M102.155 7.98691C103.325 7.98691 104.302 8.7041 104.329 9.97711C104.356 11.2501 103.325 11.9628 102.155 11.9628C102.052 11.9694 101.949 11.9694 101.846 11.9628C101.34 11.9387 100.862 11.7206 100.513 11.3538C100.163 10.987 99.9677 10.4996 99.9677 9.9928C99.9677 9.486 100.163 8.99864 100.513 8.63184C100.862 8.26503 101.34 8.04693 101.846 8.02278C101.949 8.01634 102.052 8.01634 102.155 8.02278M102.155 7.12629C102.031 7.1197 101.907 7.1197 101.783 7.12629C101.043 7.15558 100.342 7.4704 99.8284 8.00477C99.3147 8.53914 99.0278 9.25159 99.0278 9.9928C99.0278 10.734 99.3147 11.4465 99.8284 11.9808C100.342 12.5152 101.043 12.83 101.783 12.8593C101.907 12.8659 102.031 12.8659 102.155 12.8593C102.547 12.8798 102.938 12.8213 103.306 12.6873C103.675 12.5532 104.012 12.3464 104.299 12.079C104.585 11.8117 104.815 11.4894 104.974 11.1314C105.133 10.7733 105.219 10.3869 105.226 9.99504V9.9547C105.219 9.56288 105.133 9.17642 104.974 8.81837C104.815 8.46032 104.585 8.13802 104.299 7.8707C104.012 7.60339 103.675 7.39653 103.306 7.26247C102.938 7.12842 102.547 7.06991 102.155 7.09043V7.12629Z"></path>
<path fill="#FF5528" d="M67.6183 19.8294C67.5969 20.6599 67.8236 21.4779 68.2695 22.1789C68.7153 22.8799 69.3601 23.4321 70.1213 23.7648C70.8825 24.0976 71.7257 24.1958 72.543 24.047C73.3603 23.8981 74.1147 23.509 74.7098 22.9292C75.3049 22.3495 75.7136 21.6055 75.8837 20.7923C76.0538 19.9792 75.9776 19.1337 75.6648 18.3641C75.352 17.5944 74.8168 16.9355 74.1277 16.4716C73.4386 16.0076 72.6267 15.7596 71.7959 15.7593C70.7026 15.7462 69.6486 16.1673 68.8654 16.9304C68.0822 17.6934 67.6337 18.736 67.6183 19.8294Z"></path>
<path fill="#FF5528" d="M111.842 24.899C113.76 24.899 115.32 22.8102 115.32 20.2283C115.319 19.9568 115.3 19.6858 115.262 19.417C115.171 18.676 114.932 17.961 114.558 17.3147C113.917 16.2434 112.94 15.5576 111.842 15.5576C109.919 15.5576 108.364 17.6509 108.364 20.2283C108.364 20.4771 108.38 20.7257 108.413 20.9724C108.505 21.8524 108.813 22.6962 109.309 23.4287C109.58 23.8613 109.952 24.2212 110.394 24.4774C110.835 24.7336 111.332 24.8783 111.842 24.899Z"></path>
<path fill="#FF5528" d="M139.091 15.7593C136.733 15.7593 134.819 17.8929 134.819 20.5286C134.819 23.1642 136.733 25.2979 139.091 25.2979C139.917 25.2751 140.72 25.0121 141.4 24.5408C142.079 24.0696 142.607 23.4106 142.919 22.6443C143.211 21.9772 143.364 21.2571 143.367 20.5286C143.344 17.8929 141.43 15.7593 139.091 15.7593Z"></path>
<path fill="#FF5528" d="M155.169 16.1538C154.033 16.1902 152.957 16.6668 152.166 17.4828C151.376 18.2989 150.934 19.3904 150.934 20.5264C150.934 21.6624 151.376 22.7539 152.166 23.57C152.957 24.386 154.033 24.8627 155.169 24.899C155.936 24.8969 156.689 24.6875 157.347 24.293C158.005 23.8985 158.544 23.3335 158.907 22.6578C159.079 22.3391 159.21 22.0003 159.297 21.6493C159.391 21.2876 159.439 20.9157 159.441 20.5421C159.449 19.9733 159.345 19.4085 159.135 18.8799C158.924 18.3513 158.612 17.8695 158.215 17.4618C157.818 17.0542 157.345 16.7289 156.822 16.5044C156.3 16.28 155.738 16.1608 155.169 16.1538Z"></path>
<path fill="#FF5528" d="M179.217 16.1538C176.635 16.1538 174.546 18.1126 174.546 20.5287C174.546 22.9447 176.635 24.899 179.217 24.899C180.033 24.9105 180.839 24.7101 181.555 24.3172C182.27 23.9244 182.872 23.3526 183.301 22.6578C183.487 22.3423 183.63 22.003 183.726 21.6493C183.832 21.2897 183.887 20.9169 183.888 20.5421C183.888 18.1126 181.794 16.1538 179.217 16.1538Z"></path>
<path fill="white" d="M52.4901 7.94214H47.6177V27.0955H52.4901V19.1258H58.5637V27.0955H63.4406V7.94214H58.5637V14.9123H52.4901V7.94214Z"></path>
<path fill="white" d="M86.9105 17.7316C87.7421 17.5168 88.5976 17.4084 89.4565 17.4088V13.1371C87.1705 12.9668 85.521 14.4818 84.5841 16.5482V13.4105H80.2676V27.0909H85.01V18.8925C85.4946 18.3025 86.1643 17.8934 86.9105 17.7316Z"></path>
<path fill="white" d="M96.7674 17.7316C97.5991 17.5168 98.4546 17.4084 99.3135 17.4088V13.1371C97.0274 12.9668 95.3779 14.4818 94.4411 16.5482V13.1416H90.1245V27.0909H94.8669V18.8925C95.3515 18.3025 96.0212 17.8934 96.7674 17.7316Z"></path>
<path fill="white" d="M104.58 13.1462H100.125V27.0955H104.58V13.1462Z"></path>
<path fill="white" d="M117.481 24.7333C118.996 20.7394 116.087 19.435 112.608 18.5386C111.456 18.18 110.484 18.1217 110.39 17.1669C110.382 17.0306 110.413 16.8949 110.478 16.7747C110.543 16.6545 110.639 16.5545 110.757 16.4856C112.357 15.8625 113.814 16.8801 115.365 17.799L117.127 15.0154C116.061 14.126 114.788 13.5184 113.426 13.2482C112.065 12.978 110.657 13.0539 109.332 13.4689C106.978 14.1682 105.347 16.8711 106.27 19.2019C107.247 20.9053 109.224 21.2594 111.174 21.8914C112.286 22.2814 113.196 22.3665 113.308 23.2944C113.308 23.6664 113.097 24.1147 112.088 24.1147C110.484 24.1147 108.866 23.2944 107.404 22.3441L105.822 25.1232C108.61 27.7141 115.486 28.6778 117.481 24.7333Z"></path>
<path fill="white" d="M119.61 12.1511H124.751V27.0955H129.337V12.1511H134.451V7.94214H119.61V12.1511Z"></path>
<path fill="white" d="M160.207 15.2931C158.132 13.0519 154.111 12.6037 151.359 13.7287C147.719 15.1138 146.227 19.5783 147.598 23.0656C148.696 25.894 151.547 27.4091 154.609 27.3598C157.921 27.3956 160.75 25.8313 161.682 22.6443H157.406C156.343 24.8227 152.063 24.4641 152.152 21.6357H162.014C162.399 19.3945 161.825 16.9292 160.207 15.2931ZM152.036 18.9194C152.021 18.5829 152.075 18.247 152.194 17.932C152.313 17.6169 152.495 17.3291 152.728 17.086C152.961 16.8428 153.241 16.6494 153.55 16.5172C153.86 16.385 154.193 16.3169 154.53 16.3169C154.867 16.3169 155.2 16.385 155.51 16.5172C155.82 16.6494 156.1 16.8428 156.333 17.086C156.566 17.3291 156.747 17.6169 156.866 17.932C156.985 18.247 157.039 18.5829 157.025 18.9194H152.036Z"></path>
<path fill="white" d="M184.049 15.2931C181.974 13.0519 177.953 12.6037 175.201 13.7287C171.566 15.1138 170.073 19.5783 171.44 23.0656C172.538 25.894 175.394 27.4091 178.455 27.3598C181.768 27.3956 184.592 25.8313 185.524 22.6443H181.248C180.185 24.8227 175.905 24.4641 175.999 21.6357H185.86C186.219 19.3945 185.672 16.9292 184.049 15.2931ZM175.878 18.9194C175.863 18.5829 175.917 18.247 176.036 17.932C176.155 17.6169 176.337 17.3291 176.57 17.086C176.803 16.8428 177.083 16.6494 177.392 16.5172C177.702 16.385 178.035 16.3169 178.372 16.3169C178.709 16.3169 179.042 16.385 179.352 16.5172C179.662 16.6494 179.942 16.8428 180.175 17.086C180.408 17.3291 180.589 17.6169 180.708 17.932C180.827 18.247 180.881 18.5829 180.867 18.9194H175.878Z"></path>
<path fill="white" d="M144.42 15.2931C142.345 13.0519 138.324 12.6037 135.572 13.7287C131.936 15.1138 130.444 19.5783 131.811 23.0656C132.909 25.894 135.764 27.4091 138.826 27.3598C142.138 27.3956 144.962 25.8313 145.899 22.6443H141.619C140.556 24.8227 136.275 24.4641 136.37 21.6357H146.231C146.59 19.3945 146.043 16.9292 144.42 15.2931ZM136.253 18.9194C136.253 18.2584 136.516 17.6245 136.983 17.1571C137.45 16.6897 138.084 16.4272 138.745 16.4272C139.406 16.4272 140.04 16.6897 140.508 17.1571C140.975 17.6245 141.238 18.2584 141.238 18.9194H136.253Z"></path>
<path fill="white" d="M167.599 8.44409H162.847C162.977 9.58711 162.52 24.7377 163.166 25.3249C163.771 26.8489 165.358 27.4003 166.895 27.3868C167.769 27.3868 169.356 27.2747 170.279 26.5576C170.279 25.6924 170.185 23.5454 170.158 22.8506C169.051 23.2764 167.5 23.2988 167.59 21.6897V16.3107H170.333V12.8189H167.599V8.44409Z"></path>
<path fill="white" d="M193.252 13.8858C192.333 14.5858 191.611 15.5125 191.158 16.5753V13.1731H186.842V27.1224H191.584V18.9016C192.539 17.66 194.417 17.4628 196.026 17.4135V13.1597C195.045 13.069 194.063 13.326 193.252 13.8858Z"></path>
<path fill="white" d="M72.6746 13.7064C71.9269 13.3294 71.1031 13.1278 70.2658 13.1169C69.4285 13.106 68.5998 13.2862 67.8425 13.6437C64.5211 15.2439 63.5887 19.8204 64.7676 23.0836C65.1804 24.3334 65.9811 25.4189 67.0533 26.1823C68.1255 26.9457 69.4132 27.3472 70.7292 27.3285C72.6656 27.3823 73.8445 26.432 74.6648 24.7959V27.064H79.3803V13.4106H74.6379V15.9118C74.2372 14.9849 73.5488 14.2117 72.6746 13.7064ZM74.6513 19.2332V19.2915V21.842C73.0421 24.5315 69.0842 23.5095 69.1738 20.3045C69.1917 16.7007 73.2932 15.8042 74.6513 19.2332Z"></path>
<path fill="white" d="M104.329 9.97715C104.298 8.59208 103.146 7.86593 101.846 8.00488C101.34 8.02904 100.862 8.24714 100.513 8.61394C100.163 8.98075 99.9678 9.4681 99.9678 9.9749C99.9678 10.4817 100.163 10.9691 100.513 11.3359C100.862 11.7027 101.34 11.9208 101.846 11.9449C103.146 12.0929 104.298 11.3577 104.329 9.97715Z"></path>
<path fill="#FF5528" d="M43.2206 15.1185L43.1982 15.0916C41.3604 12.8145 36.6045 7.61492 32.0907 8.44417H32.0594C30.9925 8.68622 29.6299 9.40342 27.9266 10.6271C27.949 10.2551 27.958 9.89648 27.949 9.55133C27.9086 7.8256 27.5007 6.4764 26.7163 5.51716C26.3888 5.12196 25.9183 4.87223 25.4075 4.82238C25.6073 4.26241 25.6912 3.66764 25.654 3.07424C25.6136 2.48704 25.4164 1.77434 24.7082 1.72951C23.7397 1.64977 22.7735 1.90794 21.9739 2.46014L21.8305 2.2674C21.3105 1.55918 20.293 0.85544 19.4951 0.922676C19.3023 0.932027 19.115 0.990455 18.9511 1.09243C18.7871 1.1944 18.652 1.33655 18.5583 1.50539C18.249 2.07466 18.2221 3.24905 18.2625 4.23518C17.5489 3.89205 16.7641 3.7229 15.9725 3.7416C15.1809 3.7603 14.405 3.96632 13.7083 4.34277C12.655 4.97479 11.0503 6.63776 11.7002 10.7571C10.5642 9.42593 9.1765 8.33221 7.61672 7.53873C5.64446 6.57949 3.7484 6.44502 2.14369 7.1622C1.78716 7.33166 1.4751 7.58198 1.23231 7.89324C0.989528 8.2045 0.822725 8.56812 0.745172 8.95517C0.153493 11.2816 1.38616 15.9433 6.61266 22.0663C8.60234 24.4028 10.8086 26.546 13.2018 28.4671C16.9402 31.4166 20.3378 32.9137 23.2962 32.9137H23.5338C25.0264 32.8734 26.1964 32.4027 26.8284 31.569C28.1731 29.8433 28.2717 27.7051 27.169 25.4953C28.6662 26.3918 30.2843 26.9476 31.9473 26.728C34.574 26.4321 37.2948 24.5405 40.0381 21.1115C41.3365 19.5026 42.4688 17.7666 43.4178 15.9298L43.5971 15.4009L43.2206 15.1185Z"></path>
<path fill="white" d="M19.4772 17.1624C19.1545 15.0466 17.9801 12.6261 17.6842 11.9045C17.6191 11.7865 17.5932 11.6508 17.6101 11.5171C17.627 11.3834 17.6859 11.2585 17.7784 11.1604C17.8808 11.0804 18.007 11.037 18.137 11.037C18.2669 11.037 18.3931 11.0804 18.4956 11.1604C19.5444 11.8686 22.0815 13.9664 23.5876 15.2753L24.5244 14.455C25.4209 12.4379 25.6495 9.99944 24.6006 8.43059C24.0448 7.59686 23.0721 7.53411 22.1308 7.71789C20.3378 8.26475 19.6744 8.97297 19.6744 8.97297C19.6744 8.97297 16.2723 5.19429 14.3941 7.84788L14.2911 8.00477C13.287 11.4159 15.6313 17.3954 19.4772 17.1624Z"></path>
<path fill="white" d="M17.2538 24.5675C17.0737 24.5232 16.915 24.4168 16.8055 24.2672C16.7287 24.178 16.6813 24.0671 16.6701 23.9499C16.6589 23.8327 16.6843 23.7149 16.7428 23.6127C17.3582 22.9566 17.9161 22.2488 18.4102 21.497L18.3654 21.4746C17.6437 21.0891 16.2273 20.3764 15.5056 19.9864C15.026 19.9864 14.6091 20.0133 14.3043 20.0402C14.1106 20.0603 13.9153 20.0603 13.7216 20.0402C13.5649 19.907 13.4424 19.7382 13.3644 19.5479C13.2864 19.3576 13.2552 19.1514 13.2734 18.9465C13.2734 18.8748 13.3496 18.6596 13.8381 18.6327C14.345 18.6084 14.8529 18.6219 15.3577 18.6731C15.3577 18.1845 15.0394 17.8752 14.4074 17.4001C13.4416 16.6746 12.4176 16.03 11.3459 15.4726C11.2473 15.4189 10.7991 15.2261 10.2701 14.993C9.3772 14.8921 8.47673 14.8756 7.58069 14.9437C7.58082 14.7777 7.64319 14.6177 7.7555 14.4955C7.90499 14.3287 8.08838 14.1957 8.29339 14.1055C8.10961 14.0114 7.99755 13.9397 8.00652 13.9172C8.24408 13.1014 7.82722 12.2498 7.28485 11.5819C6.44373 10.5595 5.3406 9.7848 4.09336 9.34068C3.67953 9.15806 3.22012 9.10493 2.77553 9.18828C2.72066 9.20279 2.66676 9.22077 2.61416 9.24208C2.01352 10.0444 2.3004 11.4833 3.45686 13.5317C6.84557 19.4979 10.7587 24.061 15.0798 27.0911C18.7643 29.6729 21.8258 30.4753 23.4395 30.7263C23.6879 30.6722 23.9212 30.5638 24.1227 30.4088C24.3243 30.2538 24.4889 30.0561 24.6049 29.8298C24.8963 29.1844 25.0532 26.2932 21.261 23.2945C20.0498 23.8571 18.7772 24.2768 17.4689 24.5451C17.3991 24.5652 17.3262 24.5728 17.2538 24.5675Z"></path>
<path fill="white" d="M20.656 7.63726C20.6963 7.69553 20.9294 7.63726 21.2701 7.5252C22.3784 7.07067 23.3609 6.35571 24.1343 5.44087C24.6412 4.79106 24.8902 3.97698 24.8336 3.15484C24.8067 2.80969 24.7305 2.58557 24.6633 2.58109C20.6246 2.35697 20.5663 7.50278 20.656 7.63726Z"></path>
<path fill="white" d="M32.2386 9.25544C30.755 9.59162 28.6886 11.026 26.8597 12.4693C26.8866 12.3259 26.9135 12.1825 26.9359 12.0211C26.9583 11.8597 26.9852 11.6535 27.0077 11.4742C27.0879 10.841 27.1223 10.2029 27.1107 9.56471C27.0749 7.92863 26.6625 6.78114 26.0663 6.04602C25.9565 5.91966 25.8209 5.81833 25.6685 5.7489C25.5162 5.67946 25.3507 5.64353 25.1833 5.64353C25.0159 5.64353 24.8504 5.67946 24.6981 5.7489C24.5457 5.81833 24.4101 5.91966 24.3003 6.04602L24.2465 6.09981C24.2019 6.15179 24.1697 6.2133 24.1526 6.27963C24.1355 6.34595 24.1337 6.41533 24.1476 6.48242C24.1614 6.54951 24.1905 6.61253 24.2325 6.66665C24.2745 6.72076 24.3284 6.76453 24.3899 6.79458C24.6936 6.92715 24.9521 7.1452 25.134 7.42213C26.3308 9.21509 25.8691 12.1376 24.6858 14.2892L24.5199 14.4371L23.5831 15.2574C22.0591 13.9485 19.5489 11.8508 18.4911 11.1425C18.3886 11.0626 18.2624 11.0191 18.1325 11.0191C18.0025 11.0191 17.8763 11.0626 17.7739 11.1425C17.6814 11.2406 17.6225 11.3655 17.6056 11.4992C17.5886 11.633 17.6146 11.7686 17.6797 11.8866C17.9845 12.6083 19.1589 15.0243 19.4727 17.1445C15.6268 17.3776 13.2825 11.398 14.2776 7.97795C14.3921 7.56613 14.5755 7.17664 14.82 6.82596C16.2364 4.82232 17.8501 6.28807 19.3606 7.16214L19.4682 7.23386C19.524 7.27002 19.5886 7.29017 19.6551 7.29211C19.7215 7.29406 19.7872 7.27772 19.845 7.24489C19.9028 7.21206 19.9505 7.164 19.9829 7.10594C20.0152 7.04787 20.031 6.98203 20.0285 6.91561C20.0285 6.23428 20.1989 4.12755 21.1626 2.76489C20.6337 2.03874 19.522 1.44706 19.28 1.8953C18.9438 2.51387 19.0738 4.71026 19.2127 5.77259C16.3395 3.4238 11.1757 4.10514 12.6146 11.2277C12.8433 12.4008 13.2403 13.5346 13.7935 14.594C13.3901 14.4326 12.9508 14.2757 12.4487 14.1457L12.2829 14.092V13.9306C12.2467 13.1196 11.9298 12.3463 11.3864 11.7432C9.18106 8.96408 5.43376 6.58391 2.42157 7.92415C2.17783 8.04392 1.96589 8.21967 1.80307 8.43702C1.64025 8.65438 1.53117 8.90717 1.48475 9.17475C1.03202 11.1963 2.2109 15.6787 7.24018 21.5552C9.38726 24.0743 16.9222 32.2861 23.5114 32.1068C24.7351 32.0754 25.7077 31.7079 26.1739 31.0983C27.7428 29.0677 27.0301 26.8669 26.1739 25.3787C25.4345 24.172 24.4929 23.1015 23.3903 22.2141C23.5701 22.0961 23.7437 21.969 23.9103 21.8331C25.784 23.6261 28.841 26.3559 31.8711 25.9435C37.6534 25.3025 42.6289 15.8267 42.6603 15.7056C42.5572 15.6384 37.0662 8.36792 32.2386 9.25544ZM24.9592 26.199C26.1874 28.5791 26.0663 30.278 25.5867 30.7217C25.2954 30.9907 23.8207 30.7979 23.6548 30.7755L23.4441 30.7442C21.8305 30.4931 18.769 29.6908 15.0844 27.1089C10.7634 24.0788 6.8502 19.5157 3.46149 13.5496C2.30503 11.5056 2.01816 10.0623 2.6188 9.25991L2.69948 9.1613C3.21945 8.58307 4.21903 8.47102 5.50548 8.84754C7.82737 9.52887 10.4361 11.5773 10.5796 13.5361V13.7827H10.3151C9.61853 13.7339 8.92047 13.8539 8.2801 14.1323C8.07509 14.2225 7.8917 14.3555 7.74221 14.5223C7.6299 14.6446 7.56752 14.8045 7.56739 14.9705C8.46344 14.9024 9.3639 14.9189 10.2568 15.0198C12.0165 15.1855 13.7174 15.7397 15.2368 16.6425C16.6622 18.1306 18.3207 18.7044 19.5444 18.4354C19.5111 18.8935 19.4192 19.3454 19.271 19.7802C18.0208 19.2395 16.6977 18.886 15.3444 18.7313C14.8396 18.6801 14.3317 18.6666 13.8249 18.6909C13.3363 18.7178 13.278 18.933 13.2601 19.0047C13.2419 19.2096 13.2731 19.4158 13.3511 19.6061C13.4291 19.7964 13.5516 19.9652 13.7083 20.0984C13.902 20.1185 14.0973 20.1185 14.291 20.0984C14.6048 20.0715 15.0127 20.0401 15.4923 20.0446C16.6476 20.0525 17.7889 20.2982 18.8452 20.7663C18.7017 21.0442 18.5538 21.3042 18.3969 21.5552C17.9028 22.3069 17.3449 23.0148 16.7295 23.6709C16.671 23.7731 16.6456 23.8909 16.6568 24.0081C16.6681 24.1253 16.7154 24.2361 16.7922 24.3253C16.9017 24.475 17.0604 24.5813 17.2405 24.6257C17.3131 24.6388 17.3875 24.6388 17.4601 24.6257C18.7684 24.3574 20.041 23.9377 21.2522 23.3751C21.566 23.2361 21.8753 23.0927 22.1756 22.9268C23.2969 23.837 24.2406 24.9463 24.9592 26.199ZM31.8218 24.5091C29.222 24.8632 26.3801 22.7654 24.6499 21.1383L24.251 20.7528L23.861 20.3584L23.8027 20.4167L23.6548 20.5646C23.6055 20.6139 23.5517 20.6587 23.4934 20.708C23.3662 20.8211 23.2331 20.9274 23.0945 21.0263L22.9107 21.1607L22.83 21.2145L22.7225 21.2863L22.6104 21.358L22.5342 21.4028L22.4042 21.4835C22.0267 21.7017 21.636 21.8964 21.2343 22.0662L21.176 22.0886C20.9385 22.1917 19.8582 22.5637 19.7416 22.5951C20.4275 21.2452 20.7371 19.7356 20.6381 18.2248C20.4454 15.7774 19.011 12.6666 19.002 12.6352C20.163 13.4375 21.9649 15.1633 22.8973 15.9746L23.0542 16.1135L23.1931 16.2435L23.3052 16.3511C23.4456 16.4856 23.5756 16.62 23.6951 16.7545C23.7803 16.6604 28.4465 11.1649 32.8527 10.7884C36.4387 10.4747 40.0246 15.5712 40.3294 15.9298C40.1367 16.4452 36.2459 23.9847 31.8218 24.5091Z"></path>
<path fill="white" d="M34.547 12.0928C30.6204 10.7481 26.6221 14.8585 24.1926 17.2566L23.6861 16.7725C23.5248 16.5932 23.341 16.4094 23.1617 16.2391C16.0615 10.663 23.4665 16.9787 21.2298 22.0662C22.1843 21.6873 23.0565 21.1272 23.7982 20.4167C23.9436 20.2826 24.0812 20.1405 24.2106 19.9909C31.4452 27.4272 36.591 22.2007 39.1012 15.5757C38.375 15.0647 36.6851 12.949 34.547 12.0928Z"></path>
<path fill="#FF5528" d="M33.8254 14.9167C34.2438 14.9167 34.5829 14.5775 34.5829 14.1591C34.5829 13.7408 34.2438 13.4016 33.8254 13.4016C33.407 13.4016 33.0679 13.7408 33.0679 14.1591C33.0679 14.5775 33.407 14.9167 33.8254 14.9167Z"></path>
<path fill="white" d="M193.027 26.1361C193.025 25.9299 193.083 25.7275 193.196 25.5548C193.309 25.382 193.47 25.2466 193.66 25.1658C193.85 25.0851 194.059 25.0625 194.262 25.1011C194.464 25.1397 194.651 25.2377 194.798 25.3826C194.945 25.5275 195.045 25.7127 195.086 25.9148C195.127 26.1169 195.108 26.3267 195.029 26.5175C194.951 26.7083 194.818 26.8715 194.646 26.9864C194.475 27.1012 194.274 27.1626 194.067 27.1626C193.931 27.165 193.796 27.1402 193.67 27.0896C193.543 27.039 193.428 26.9637 193.331 26.8681C193.235 26.7725 193.158 26.6585 193.106 26.5328C193.053 26.4071 193.027 26.2722 193.027 26.1361ZM194.067 26.9923C194.238 26.9967 194.405 26.9503 194.549 26.859C194.693 26.7677 194.806 26.6356 194.874 26.4796C194.942 26.3236 194.963 26.1508 194.932 25.9833C194.902 25.8157 194.822 25.6611 194.703 25.5391C194.584 25.4171 194.432 25.3333 194.265 25.2984C194.099 25.2636 193.925 25.2792 193.768 25.3432C193.61 25.4073 193.475 25.517 193.38 25.6582C193.285 25.7995 193.234 25.9658 193.234 26.1361C193.229 26.2478 193.248 26.3592 193.288 26.4635C193.328 26.5678 193.389 26.6629 193.467 26.743C193.545 26.823 193.638 26.8864 193.742 26.9293C193.845 26.9721 193.956 26.9936 194.067 26.9923ZM193.852 26.7278H193.673V25.54H194.121C194.404 25.54 194.542 25.6431 194.542 25.8761C194.544 25.9179 194.538 25.9596 194.523 25.9986C194.508 26.0377 194.486 26.0734 194.457 26.1036C194.428 26.1338 194.393 26.1577 194.355 26.1741C194.316 26.1905 194.275 26.1989 194.233 26.1989L194.569 26.7188H194.368L194.058 26.2078H193.852V26.7278ZM194.067 26.0644C194.215 26.0644 194.354 26.0644 194.354 25.8717C194.354 25.6789 194.22 25.7013 194.094 25.7013H193.852V26.0644H194.067Z"></path>
</g>
<defs>
<clipPath id="clip0_4122_21450">
<rect transform="translate(0.610596 0.936035)" fill="white" height="32" width="196.317"></rect>
</clipPath>
</defs>
</svg>
