<svg xmlns="http://www.w3.org/2000/svg" fill="none" viewBox="0 0 93 33" height="33" width="93">
<g clip-path="url(#clip0_4048_8702)">
<path fill="white" d="M72.0844 18.8749H69.8113V21.4246H72.1669C73.3884 21.4246 73.9898 21.0088 73.9898 20.1601C73.9898 19.3113 73.3266 18.8749 72.0844 18.8749ZM72.2596 13.5213H69.8113V16.2857H72.349C73.6754 16.2857 74.3265 15.8356 74.3265 14.9147C74.3265 13.9938 73.6084 13.5213 72.2596 13.5213ZM74.3265 14.9147C74.3265 13.9508 73.6084 13.5213 72.2596 13.5213H69.8113V16.2857H72.349C73.6754 16.2857 74.3265 15.8356 74.3265 14.9147ZM72.0844 18.8749H69.8113V21.4246H72.1669C73.3884 21.4246 73.9898 21.0088 73.9898 20.1601C73.9898 19.3113 73.3266 18.8749 72.0844 18.8749ZM76.5756 0.936035H16.4362C7.59987 0.936035 0.435303 8.09888 0.435303 16.9352C0.435303 25.7715 7.59987 32.936 16.4362 32.936H76.5756C85.4118 32.936 92.5747 25.7715 92.5747 16.9352C92.5747 8.09888 85.4118 0.936035 76.5756 0.936035ZM76.5756 30.864H16.4344C8.74414 30.864 2.50907 24.6306 2.50907 16.9386C2.50907 9.24659 8.74414 3.01324 16.4344 3.01324H76.5756C84.2659 3.01324 90.5009 9.2483 90.5009 16.9386C90.5009 24.6289 84.2659 30.864 76.5756 30.864ZM76.8814 5.07842L16.1235 5.08186C9.75439 5.08186 4.57769 10.3994 4.58285 16.9489C4.58285 23.4658 9.7647 28.7833 16.1235 28.7833L76.8814 28.7713C83.2556 28.7662 88.4186 23.464 88.4272 16.942C88.4186 10.3788 83.2556 5.07842 76.8814 5.07842ZM28.8084 23.6565H23.1953V18.8767H19.0958V23.6565H13.481L12.6821 10.2053H19.0958V16.2857H23.1953V10.2053H29.6073L28.8084 23.6565ZM35.7771 18.8767H31.9903L31.8374 16.2857H35.93L35.7771 18.8767ZM54.6953 13.5196H44.5738V16.2857H52.2727V18.8767H44.5738V21.4246H54.2262L54.0957 23.6565H38.959L38.1601 10.2053H54.8929L54.6953 13.5196ZM61.0128 18.8749H57.2261L57.0732 16.284H61.1657L61.0128 18.8749ZM79.7352 20.4264C79.7352 20.4264 80.0084 23.6565 75.1993 23.6565H64.1948L63.3941 10.2053H75.9862C78.4311 10.2053 80.3348 11.6794 80.3297 14.0539C80.3297 16.1294 79.1991 17.1207 77.4982 17.6052C78.8194 17.9162 79.7352 19.0588 79.7352 20.4264ZM72.2596 13.5213H69.8113V16.2857H72.349C73.6754 16.2857 74.3265 15.8356 74.3265 14.9147C74.3265 13.9938 73.6084 13.5213 72.2596 13.5213ZM72.0844 18.8749H69.8113V21.4246H72.1669C73.3884 21.4246 73.9898 21.0088 73.9898 20.1601C73.9898 19.3113 73.3266 18.8749 72.0844 18.8749Z"></path>
<path fill="white" d="M72.0843 18.8751H69.8112V21.4248H72.1668C73.3884 21.4248 73.9897 21.009 73.9897 20.1603C73.9897 19.3115 73.3265 18.8751 72.0843 18.8751ZM72.2596 13.5215H69.8112V16.2859H72.3489C73.6753 16.2859 74.3265 15.8358 74.3265 14.9149C74.3265 13.9939 73.6083 13.5215 72.2596 13.5215ZM74.3265 14.9149C74.3265 13.951 73.6083 13.5215 72.2596 13.5215H69.8112V16.2859H72.3489C73.6753 16.2859 74.3265 15.8358 74.3265 14.9149ZM72.0843 18.8751H69.8112V21.4248H72.1668C73.3884 21.4248 73.9897 21.009 73.9897 20.1603C73.9897 19.3115 73.3265 18.8751 72.0843 18.8751ZM76.8813 5.07861L16.1234 5.08205C9.75431 5.08205 4.57761 10.3996 4.58277 16.9491C4.58277 23.4659 9.76462 28.7835 16.1234 28.7835L76.8813 28.7715C83.2555 28.7663 88.4185 23.4642 88.4271 16.9422C88.4185 10.379 83.2555 5.07861 76.8813 5.07861ZM28.8083 23.6567H23.1952V18.8768H19.0957V23.6567H13.4809L12.682 10.2055H19.0957V16.2859H23.1952V10.2055H29.6072L28.8083 23.6567ZM35.777 18.8768H31.9902L31.8373 16.2859H35.9299L35.777 18.8768ZM54.6952 13.5197H44.5737V16.2859H52.2727V18.8768H44.5737V21.4248H54.2262L54.0956 23.6567H38.9589L38.16 10.2055H54.8928L54.6952 13.5197ZM61.0127 18.8751H57.226L57.0731 16.2842H61.1656L61.0127 18.8751ZM79.7351 20.4266C79.7351 20.4266 80.0083 23.6567 75.1993 23.6567H64.1947L63.3941 10.2055H75.9862C78.431 10.2055 80.3347 11.6796 80.3296 14.0541C80.3296 16.1296 79.199 17.1209 77.4981 17.6054C78.8193 17.9164 79.7351 19.059 79.7351 20.4266ZM72.2596 13.5215H69.8112V16.2859H72.3489C73.6753 16.2859 74.3265 15.8358 74.3265 14.9149C74.3265 13.9939 73.6083 13.5215 72.2596 13.5215ZM72.0843 18.8751H69.8112V21.4248H72.1668C73.3884 21.4248 73.9897 21.009 73.9897 20.1603C73.9897 19.3115 73.3265 18.8751 72.0843 18.8751Z"></path>
<path fill="white" d="M72.0843 18.8751H69.8112V21.4248H72.1668C73.3884 21.4248 73.9897 21.009 73.9897 20.1603C73.9897 19.3115 73.3265 18.8751 72.0843 18.8751ZM72.2596 13.5215H69.8112V16.2859H72.3489C73.6753 16.2859 74.3265 15.8358 74.3265 14.9149C74.3265 13.9939 73.6083 13.5215 72.2596 13.5215ZM74.3265 14.9149C74.3265 13.951 73.6083 13.5215 72.2596 13.5215H69.8112V16.2859H72.3489C73.6753 16.2859 74.3265 15.8358 74.3265 14.9149ZM72.0843 18.8751H69.8112V21.4248H72.1668C73.3884 21.4248 73.9897 21.009 73.9897 20.1603C73.9897 19.3115 73.3265 18.8751 72.0843 18.8751ZM76.8813 5.07861L16.1234 5.08205C9.75431 5.08205 4.57761 10.3996 4.58277 16.9491C4.58277 23.4659 9.76462 28.7835 16.1234 28.7835L76.8813 28.7715C83.2555 28.7663 88.4185 23.4642 88.4271 16.9422C88.4185 10.379 83.2555 5.07861 76.8813 5.07861ZM28.8083 23.6567H23.1952V18.8768H19.0957V23.6567H13.4809L12.682 10.2055H19.0957V16.2859H23.1952V10.2055H29.6072L28.8083 23.6567ZM35.777 18.8768H31.9902L31.8373 16.2859H35.9299L35.777 18.8768ZM54.6952 13.5197H44.5737V16.2859H52.2727V18.8768H44.5737V21.4248H54.2262L54.0956 23.6567H38.9589L38.16 10.2055H54.8928L54.6952 13.5197ZM61.0127 18.8751H57.226L57.0731 16.2842H61.1656L61.0127 18.8751ZM79.7351 20.4266C79.7351 20.4266 80.0083 23.6567 75.1993 23.6567H64.1947L63.3941 10.2055H75.9862C78.431 10.2055 80.3347 11.6796 80.3296 14.0541C80.3296 16.1296 79.199 17.1209 77.4981 17.6054C78.8193 17.9164 79.7351 19.059 79.7351 20.4266ZM72.2596 13.5215H69.8112V16.2859H72.3489C73.6753 16.2859 74.3265 15.8358 74.3265 14.9149C74.3265 13.9939 73.6083 13.5215 72.2596 13.5215ZM72.0843 18.8751H69.8112V21.4248H72.1668C73.3884 21.4248 73.9897 21.009 73.9897 20.1603C73.9897 19.3115 73.3265 18.8751 72.0843 18.8751Z"></path>
<path fill="white" d="M91.5543 30.6219C91.5543 30.1992 91.3034 30.0137 90.7983 30.0137H89.9839V32.151H90.3069V31.2249H90.6797L91.2433 32.151H91.6058L90.9976 31.2095C91.312 31.17 91.5525 31.0033 91.5525 30.6219H91.5543ZM90.3086 30.95V30.2869H90.7502C90.9752 30.2869 91.2158 30.3367 91.2158 30.6013C91.2158 30.9311 90.9701 30.95 90.6952 30.95H90.3069H90.3086Z"></path>
<path fill="white" d="M90.7002 29.2283C89.6814 29.2283 88.8171 30.0135 88.8171 31.077C88.8171 32.1405 89.6796 32.9343 90.7002 32.9343C91.7208 32.9343 92.573 32.1491 92.573 31.077C92.573 30.0049 91.7105 29.2283 90.7002 29.2283ZM90.7002 32.6267C89.8532 32.6267 89.19 31.9687 89.19 31.077C89.19 30.1853 89.8515 29.5375 90.7002 29.5375C91.549 29.5375 92.2001 30.199 92.2001 31.077C92.2001 31.9549 91.5386 32.6267 90.7002 32.6267Z"></path>
</g>
<defs>
<clipPath id="clip0_4048_8702">
<rect transform="translate(0.435303 0.936035)" fill="white" height="32" width="92.1394"></rect>
</clipPath>
</defs>
</svg>
