<svg viewBox="0 0 32 32" xmlns="http://www.w3.org/2000/svg" data-name="Layer 2" id="Layer_2">
  <defs>
    <style>
      .cls-1 {
        fill: none;
        stroke: #004600;
        stroke-miterlimit: 10;
        stroke-width: 2px;
      }

      .cls-2 {
        fill: #004600;
      }
    </style>
  </defs>
  <g data-name="Layer 1" id="Layer_1-2">
    <g>
      <g id="IMqw6i">
        <path d="M5.41,10.72h6.25s3.1,5.41,3.1,5.41l-3.03,5.34h-6.34c-.59-.96-1.17-1.99-1.72-2.99-.43-.78-.88-1.58-1.34-2.37l3.09-5.38M4.25,8.72L0,16.12c1.3,2.09,2.4,4.31,3.69,6.41.15.24.47.9.7.94l8.5-.02,4.17-7.34-4.25-7.4H4.25Z" class="cls-2"></path>
      </g>
      <line y2="12.9" x2="7.68" y1="16.53" x1="5.5" class="cls-1"></line>
      <g data-name="IMqw6i" id="IMqw6i-2">
        <path d="M20.35,19.24h6.25s3.1,5.41,3.1,5.41l-3.03,5.34h-6.34c-.59-.96-1.17-2-1.72-3-.43-.78-.88-1.58-1.34-2.37l3.09-5.38M19.19,17.24l-4.25,7.4c1.3,2.09,2.4,4.31,3.69,6.41.15.24.47.9.7.94l8.5-.02,4.17-7.34-4.25-7.4h-8.56Z" class="cls-2"></path>
      </g>
      <line y2="21.42" x2="22.62" y1="25.05" x1="20.44" class="cls-1"></line>
      <g data-name="IMqw6i" id="IMqw6i-3">
        <path d="M20.25,2h6.25s3.1,5.41,3.1,5.41l-3.03,5.34h-6.34c-.59-.96-1.17-2-1.72-2.99-.43-.78-.88-1.58-1.34-2.37l3.09-5.38M19.09,0l-4.25,7.4c1.3,2.09,2.4,4.31,3.69,6.41.15.24.47.9.7.94l8.5-.02,4.17-7.34L27.65,0h-8.56Z" class="cls-2"></path>
      </g>
      <line y2="4.18" x2="22.52" y1="7.81" x1="20.35" class="cls-1"></line>
    </g>
  </g>
</svg>