<svg xmlns="http://www.w3.org/2000/svg" fill="none" viewBox="0 0 90 81" height="81" width="90">
<g clip-path="url(#clip0_1_3592)">
<path fill="#00A94F" d="M12.2682 46.8061C11.5876 45.3244 10.9846 43.8055 10.5166 42.2406C10.129 40.9398 9.79876 39.596 9.71836 38.2378C9.70974 38.0885 9.704 37.9363 9.7442 37.7928C9.7643 37.7181 9.81886 37.6348 9.89638 37.6377C9.94233 37.6377 9.97965 37.6722 10.0141 37.7038C10.1778 37.8588 10.3242 38.034 10.4506 38.2206C10.3673 37.4568 10.2955 36.7304 10.2094 35.9666C10.1606 35.5186 10.1117 35.0707 10.0715 34.6227C10.0199 34.0025 9.9854 33.3823 9.97678 32.7592C9.97104 32.4261 9.97104 32.0902 10.0285 31.76C10.0457 31.6509 10.0715 31.5389 10.1405 31.4527C10.2094 31.3666 10.3242 31.3092 10.4305 31.3436C10.4821 31.3608 10.5252 31.3982 10.5654 31.4384C10.6659 31.536 10.7607 31.6394 10.8439 31.7542C11.1799 29.5203 10.864 27.2777 10.5424 25.0409C10.5281 24.9461 10.5166 24.8485 10.5338 24.7538C10.5511 24.659 10.6114 24.5671 10.7032 24.5355C10.8382 24.4896 10.9789 24.5872 11.0823 24.6848C11.2 24.794 11.312 24.9117 11.4154 25.0352C11.4958 24.5901 11.4929 24.145 11.4871 23.6942C11.4843 23.4473 11.4814 23.2003 11.4785 22.9534C11.4728 22.4911 11.467 22.0288 11.4326 21.5694C11.3694 20.7625 11.2172 19.9671 11.065 19.1718C11.0478 19.0885 11.0335 19.0023 11.0478 18.9191C11.0622 18.8358 11.111 18.7525 11.1885 18.7238C11.2861 18.6865 11.3953 18.7411 11.4699 18.8128C11.5446 18.8846 11.5991 18.9765 11.6738 19.0483C11.668 17.7361 11.4125 16.4468 11.0564 15.1834C11.0019 14.9881 10.9444 14.7958 10.8755 14.6062C10.7722 14.3191 10.6401 14.0377 10.574 13.7391C10.5511 13.6328 10.5396 13.5094 10.6056 13.4232C10.6688 13.34 10.7836 13.3141 10.887 13.3342C10.9904 13.3543 11.0794 13.4089 11.1684 13.4634C10.999 12.5417 10.7664 11.6229 10.3759 10.7729C9.9854 9.92299 9.43696 9.13336 8.71624 8.5361C8.56406 8.40976 8.40326 8.29204 8.25394 8.15995C8.17067 8.08817 8.09028 8.00777 8.0472 7.9044C8.00413 7.80103 8.00988 7.67181 8.08453 7.59429C8.19077 7.4823 8.38029 7.51102 8.52099 7.44784C8.1075 6.98555 7.55045 6.64098 7.00776 6.33949C6.63161 6.127 6.24684 5.926 5.86494 5.72214C5.69266 5.63025 5.52037 5.53837 5.33948 5.46371C4.94322 5.30004 4.51538 5.22251 4.12487 5.04161C4.08755 5.02439 4.05022 5.00716 4.02438 4.97557C3.86932 4.8119 4.05596 4.6109 4.19379 4.53338C4.40053 4.41278 4.63311 4.34674 4.86282 4.28644C6.31288 3.8988 7.79739 3.66047 9.28191 3.42789C9.16705 3.37333 9.03784 3.29293 8.95457 3.19531C9.04358 3.09481 9.19289 3.08332 9.32498 3.08045C10.9272 3.04025 12.5381 3.26135 14.0685 3.73226C13.9824 3.66334 13.925 3.60304 13.8589 3.51403C13.8474 3.49967 13.8388 3.48532 13.8388 3.46809C13.8388 3.43937 13.8675 3.42215 13.8962 3.41353C14.0168 3.37046 14.1518 3.39917 14.2753 3.43076C14.9644 3.60879 15.6421 3.83276 16.3053 4.09118C16.9428 4.34099 17.6118 4.59655 18.1976 4.95547C18.1603 4.87507 18.0885 4.66546 18.143 4.57932C18.2005 4.49031 18.3498 4.52763 18.4302 4.55635C19.4581 4.93824 20.4 5.50965 21.336 6.07819C21.5801 6.22463 21.8213 6.37394 22.0568 6.53761C22.0051 6.43998 21.985 6.35384 21.985 6.24186C21.985 6.18443 22.0022 6.11265 22.0568 6.09255C22.0826 6.08393 22.1084 6.08393 22.1343 6.08967C22.3037 6.11839 22.4473 6.2275 22.5822 6.33087C23.6102 7.13199 24.6439 7.93598 25.5656 8.86057C25.5484 8.74572 25.5398 8.62799 25.5599 8.51313C25.5656 8.48155 25.5742 8.44709 25.5972 8.42412C25.6489 8.38105 25.7264 8.42412 25.7781 8.46432C26.6912 9.18791 27.4808 10.0551 28.2676 10.9165C28.5059 11.1462 28.7155 11.4075 28.9366 11.6516C29.1434 11.8784 29.3558 12.1081 29.5712 12.3235C29.5712 12.2402 29.62 12.1081 29.6573 12.0363C29.6889 11.976 29.7464 11.9244 29.8124 11.9186C29.9043 11.91 29.9818 11.9875 30.0421 12.0564C31.1045 13.2653 31.9602 14.612 32.7211 16.0247C32.9193 16.3922 33.1116 16.7655 33.2954 17.1417C33.3299 17.0125 33.4074 16.912 33.4935 16.8057C33.5194 16.7713 33.551 16.7397 33.5912 16.7282C33.6802 16.6995 33.7663 16.7741 33.8266 16.8459C34.0477 17.1158 34.2028 17.4346 34.3463 17.7533C34.3607 17.7849 34.375 17.8136 34.3865 17.8452C34.7254 18.6032 35.0154 19.3814 35.2824 20.1653C35.4174 20.5586 35.5437 20.9549 35.6672 21.3512C35.7906 21.7474 35.8998 22.1465 36.0175 22.5457C36.072 22.293 36.1467 21.9943 36.3362 21.8106C36.3477 21.7991 36.3592 21.7876 36.3735 21.7819C36.4195 21.7589 36.4769 21.779 36.5171 21.8106C36.6234 21.8967 36.6722 22.1149 36.7181 22.2413C36.7842 22.4164 36.8387 22.5973 36.8875 22.7782C36.9823 23.1343 37.0541 23.4961 37.123 23.8579C37.2378 24.4551 37.3527 25.0553 37.4302 25.6582C37.5566 26.6374 37.591 27.6309 37.5278 28.6187C37.278 32.5611 34.3061 35.8201 32.121 39.1107C30.4585 41.6146 28.7299 44.0811 26.7515 46.3438C25.2038 48.1154 23.4006 49.8211 21.1236 50.4097C19.5184 50.826 17.8272 50.6451 16.1905 50.3839C15.5846 50.2862 14.9615 50.1714 14.4619 49.8153C13.9881 49.4765 13.678 48.9596 13.3823 48.4571C13.0635 47.9144 12.5352 47.3775 12.271 46.8061L12.2682 46.8061Z"></path>
<mask height="48" width="35" y="3" x="3" maskUnits="userSpaceOnUse" style="mask-type:luminance" id="mask0_1_3592">
<path fill="white" d="M12.2682 46.8061C11.5876 45.3244 10.9846 43.8055 10.5166 42.2406C10.129 40.9398 9.79876 39.596 9.71836 38.2378C9.70974 38.0885 9.704 37.9363 9.7442 37.7928C9.7643 37.7181 9.81886 37.6348 9.89638 37.6377C9.94233 37.6377 9.97965 37.6722 10.0141 37.7038C10.1778 37.8588 10.3242 38.034 10.4506 38.2206C10.3673 37.4568 10.2955 36.7304 10.2094 35.9666C10.1606 35.5186 10.1117 35.0707 10.0715 34.6227C10.0199 34.0025 9.9854 33.3823 9.97678 32.7592C9.97104 32.4261 9.97104 32.0902 10.0285 31.76C10.0457 31.6509 10.0715 31.5389 10.1405 31.4527C10.2094 31.3666 10.3242 31.3092 10.4305 31.3436C10.4821 31.3608 10.5252 31.3982 10.5654 31.4384C10.6659 31.536 10.7607 31.6394 10.8439 31.7542C11.1799 29.5203 10.864 27.2777 10.5424 25.0409C10.5281 24.9461 10.5166 24.8485 10.5338 24.7538C10.5511 24.659 10.6114 24.5671 10.7032 24.5355C10.8382 24.4896 10.9789 24.5872 11.0823 24.6848C11.2 24.794 11.312 24.9117 11.4154 25.0352C11.4958 24.5901 11.4929 24.145 11.4871 23.6942C11.4843 23.4473 11.4814 23.2003 11.4785 22.9534C11.4728 22.4911 11.467 22.0288 11.4326 21.5694C11.3694 20.7625 11.2172 19.9671 11.065 19.1718C11.0478 19.0885 11.0335 19.0023 11.0478 18.9191C11.0622 18.8358 11.111 18.7525 11.1885 18.7238C11.2861 18.6865 11.3953 18.7411 11.4699 18.8128C11.5446 18.8846 11.5991 18.9765 11.6738 19.0483C11.668 17.7361 11.4125 16.4468 11.0564 15.1834C11.0019 14.9881 10.9444 14.7958 10.8755 14.6062C10.7722 14.3191 10.6401 14.0377 10.574 13.7391C10.5511 13.6328 10.5396 13.5094 10.6056 13.4232C10.6688 13.34 10.7836 13.3141 10.887 13.3342C10.9904 13.3543 11.0794 13.4089 11.1684 13.4634C10.999 12.5417 10.7664 11.6229 10.3759 10.7729C9.9854 9.92299 9.43696 9.13336 8.71624 8.5361C8.56406 8.40976 8.40326 8.29204 8.25394 8.15995C8.17067 8.08817 8.09028 8.00777 8.0472 7.9044C8.00413 7.80103 8.00988 7.67181 8.08453 7.59429C8.19077 7.4823 8.38029 7.51102 8.52099 7.44784C8.1075 6.98555 7.55045 6.64098 7.00776 6.33949C6.63161 6.127 6.24684 5.926 5.86494 5.72214C5.69266 5.63025 5.52037 5.53837 5.33948 5.46371C4.94322 5.30004 4.51538 5.22251 4.12487 5.04161C4.08755 5.02439 4.05022 5.00716 4.02438 4.97557C3.86932 4.8119 4.05596 4.6109 4.19379 4.53338C4.40053 4.41278 4.63311 4.34674 4.86282 4.28644C6.31288 3.8988 7.79739 3.66047 9.28191 3.42789C9.16705 3.37333 9.03784 3.29293 8.95457 3.19531C9.04358 3.09481 9.19289 3.08332 9.32498 3.08045C10.9272 3.04025 12.5381 3.26135 14.0685 3.73226C13.9824 3.66334 13.925 3.60304 13.8589 3.51403C13.8474 3.49967 13.8388 3.48532 13.8388 3.46809C13.8388 3.43937 13.8675 3.42215 13.8962 3.41353C14.0168 3.37046 14.1518 3.39917 14.2753 3.43076C14.9644 3.60879 15.6421 3.83276 16.3053 4.09118C16.9428 4.34099 17.6118 4.59655 18.1976 4.95547C18.1603 4.87507 18.0885 4.66546 18.143 4.57932C18.2005 4.49031 18.3498 4.52763 18.4302 4.55635C19.4581 4.93824 20.4 5.50965 21.336 6.07819C21.5801 6.22463 21.8213 6.37394 22.0568 6.53761C22.0051 6.43998 21.985 6.35384 21.985 6.24186C21.985 6.18443 22.0022 6.11265 22.0568 6.09255C22.0826 6.08393 22.1084 6.08393 22.1343 6.08967C22.3037 6.11839 22.4473 6.2275 22.5822 6.33087C23.6102 7.13199 24.6439 7.93598 25.5656 8.86057C25.5484 8.74572 25.5398 8.62799 25.5599 8.51313C25.5656 8.48155 25.5742 8.44709 25.5972 8.42412C25.6489 8.38105 25.7264 8.42412 25.7781 8.46432C26.6912 9.18791 27.4808 10.0551 28.2676 10.9165C28.5059 11.1462 28.7155 11.4075 28.9366 11.6516C29.1434 11.8784 29.3558 12.1081 29.5712 12.3235C29.5712 12.2402 29.62 12.1081 29.6573 12.0363C29.6889 11.976 29.7464 11.9244 29.8124 11.9186C29.9043 11.91 29.9818 11.9875 30.0421 12.0564C31.1045 13.2653 31.9602 14.612 32.7211 16.0247C32.9193 16.3922 33.1116 16.7655 33.2954 17.1417C33.3299 17.0125 33.4074 16.912 33.4935 16.8057C33.5194 16.7713 33.551 16.7397 33.5912 16.7282C33.6802 16.6995 33.7663 16.7741 33.8266 16.8459C34.0477 17.1158 34.2028 17.4346 34.3463 17.7533C34.3607 17.7849 34.375 17.8136 34.3865 17.8452C34.7254 18.6032 35.0154 19.3814 35.2824 20.1653C35.4174 20.5586 35.5437 20.9549 35.6672 21.3512C35.7906 21.7474 35.8998 22.1465 36.0175 22.5457C36.072 22.293 36.1467 21.9943 36.3362 21.8106C36.3477 21.7991 36.3592 21.7876 36.3735 21.7819C36.4195 21.7589 36.4769 21.779 36.5171 21.8106C36.6234 21.8967 36.6722 22.1149 36.7181 22.2413C36.7842 22.4164 36.8387 22.5973 36.8875 22.7782C36.9823 23.1343 37.0541 23.4961 37.123 23.8579C37.2378 24.4551 37.3527 25.0553 37.4302 25.6582C37.5566 26.6374 37.591 27.6309 37.5278 28.6187C37.278 32.5611 34.3061 35.8201 32.121 39.1107C30.4585 41.6146 28.7299 44.0811 26.7515 46.3438C25.2038 48.1154 23.4006 49.8211 21.1236 50.4097C19.5184 50.826 17.8272 50.6451 16.1905 50.3839C15.5846 50.2862 14.9615 50.1714 14.4619 49.8153C13.9881 49.4765 13.678 48.9596 13.3823 48.4571C13.0635 47.9144 12.5352 47.3775 12.271 46.8061L12.2682 46.8061Z"></path>
</mask>
<g mask="url(#mask0_1_3592)">
<path fill="#00452B" d="M23.2858 40.9198C24.1501 38.7892 25.3676 36.8022 26.8722 35.0679C26.9268 35.0047 26.9871 34.9386 27.0646 34.9071C27.1881 34.8554 27.3173 34.9157 27.3115 35.0564C27.3058 35.1827 27.2857 35.309 27.2512 35.4325C27.3603 35.3004 27.4379 35.1368 27.5297 34.9903C27.6245 34.841 27.7221 34.6917 27.8226 34.5424C28.1528 34.0514 28.5032 33.5719 28.8707 33.1038C29.2382 32.6358 29.6144 32.1821 30.002 31.737C30.1772 31.536 30.3581 31.3322 30.582 31.1857C30.6624 31.134 30.7687 31.0881 30.8491 31.1398C30.9008 31.1742 30.9237 31.2403 30.9381 31.3006C30.9812 31.4729 31.0013 31.6509 30.9927 31.8289C31.9603 30.4277 33.0313 29.1528 34.2287 27.9439C34.4154 27.7573 34.6049 27.5706 34.826 27.4299C34.8777 27.3983 34.9408 27.3668 34.9983 27.384C35.0672 27.4041 35.0988 27.4787 35.1217 27.5477C35.1849 27.763 35.2021 27.9899 35.1677 28.211C35.963 27.3122 36.7383 26.4537 37.5366 25.5549C37.8323 25.2218 38.1281 24.8859 38.4411 24.5672C38.6334 24.3719 38.8316 24.1824 39.0383 24.0044C39.1331 23.924 39.245 23.8436 39.3685 23.8637C39.4891 23.8866 39.5695 24.0044 39.6011 24.125C39.6327 24.2456 39.6298 24.369 39.6614 24.4896C39.8911 24.3547 40.072 24.2111 40.2558 24.0158C41.077 23.1544 41.8437 22.2413 42.5472 21.2794C42.7395 21.0181 42.9262 20.7539 43.1387 20.5127C43.2162 20.4266 43.3109 20.3376 43.4258 20.3347C43.5435 20.3347 43.6469 20.4323 43.69 20.5415C43.733 20.6506 43.7273 20.774 43.7216 20.8946C44.7955 19.6571 45.743 18.3707 46.6245 16.9895C46.7222 16.8345 46.8801 16.6565 47.0524 16.7196C47.2017 16.7742 47.2333 16.9666 47.239 17.1216C47.9885 16.3061 48.5627 15.3414 49.0078 14.3306C49.1255 14.0636 49.2289 13.7908 49.3351 13.518C49.4356 13.2596 49.5247 12.9696 49.6768 12.7399C49.8089 12.5417 50.0271 12.5532 50.119 12.7829C50.165 12.8949 50.1707 13.0213 50.2167 13.1304C51.0867 11.4535 51.7787 9.68183 52.2525 7.85275C52.3587 7.44214 52.4334 7.02292 52.4592 6.59795C52.4851 6.16724 52.4363 5.74227 52.419 5.31443C52.4133 5.20245 52.419 5.06749 52.5138 5.00432C52.6229 4.93254 52.7636 5.00432 52.8698 5.08185C54.5238 6.2419 55.902 7.76661 57.0018 9.46073C57.0764 9.36598 57.0908 9.21092 57.2056 9.17646C57.3119 9.14488 57.4095 9.23963 57.4755 9.32578C57.6306 9.52964 57.7656 9.74787 57.8862 9.97184C58.1159 10.3968 58.2996 10.8419 58.4805 11.2898C58.8509 12.2029 59.2099 13.1218 59.5544 14.0464C59.6549 13.9459 59.7813 13.8511 59.9134 13.9057C59.9708 13.9286 60.0139 13.9803 60.0483 14.0291C60.1488 14.1727 60.212 14.3392 60.2665 14.5058C60.3986 14.9049 60.4848 15.3184 60.568 15.729C60.7662 16.6967 60.9528 17.6672 61.1107 18.6406C61.171 18.5516 61.2514 18.4482 61.3376 18.3793C61.3893 18.3362 61.4582 18.296 61.5214 18.3161C61.5874 18.3362 61.6218 18.408 61.6448 18.4712C61.7712 18.8129 61.8228 19.1775 61.8659 19.5393C62.0124 20.7539 62.0612 22.1236 62.0411 23.3497C62.1014 23.2578 62.1818 23.1889 62.2564 23.1114C62.2794 23.0884 62.3052 23.0654 62.3368 23.0568C62.3885 23.0424 62.4431 23.0683 62.4775 23.1114C62.512 23.1544 62.5263 23.2061 62.5407 23.2578C62.6584 23.7086 62.6584 24.1824 62.6441 24.6504C62.6441 24.6763 62.6441 24.6992 62.6441 24.7251C62.601 25.9454 62.4775 27.1973 62.2105 28.389C62.2708 28.3258 62.3311 28.2626 62.3971 28.2052C62.4287 28.1794 62.4574 28.1507 62.4948 28.1334C62.5321 28.1162 62.5752 28.1105 62.6125 28.1277C62.6785 28.1593 62.6958 28.2425 62.7044 28.3143C62.7331 28.6503 62.6756 28.9977 62.6268 29.3279C62.4402 30.5684 62.2162 31.8117 61.9032 33.0263C61.8659 33.1699 61.8286 33.3134 61.7913 33.4599C61.8975 33.3421 62.0325 33.2474 62.1789 33.19C62.2162 33.1756 62.2593 33.1612 62.2995 33.1756C62.377 33.2014 62.3914 33.2991 62.3885 33.3795C62.377 33.6724 62.2909 33.9566 62.2019 34.2351C61.8372 35.4038 61.4438 36.561 61.0275 37.7124C60.9385 37.9565 60.8466 38.2034 60.7461 38.4417C60.6599 38.6456 60.5652 38.8437 60.4618 39.039C60.4101 39.1366 60.4015 39.1854 60.3584 39.2888C60.4905 39.1538 60.6398 39.0476 60.8035 38.9557C60.9011 38.9012 61.0045 38.8524 61.1136 38.8495C61.1653 38.8495 61.2198 38.8552 61.2629 38.8897C61.3318 38.9442 61.3376 39.0447 61.3318 39.1338C61.3117 39.4266 61.2199 39.708 61.1107 39.9808C61.0016 40.2565 60.8868 40.5264 60.7461 40.7905C60.7317 40.8193 60.7145 40.8508 60.6973 40.8796C60.4819 41.2816 60.2522 41.6778 60.0253 42.0741C59.8703 42.344 59.7152 42.611 59.5602 42.8809C58.5954 44.5492 57.7426 46.1945 56.4907 47.6589C54.5151 49.9647 51.6926 51.4205 48.7637 52.213C45.8349 53.0055 42.7769 53.1864 39.7418 53.2926C36.3248 53.4132 32.6896 53.3931 29.7924 51.5755C28.5922 50.8203 27.5843 49.7924 26.6942 48.6869C24.8938 46.4529 22.2062 43.5729 23.283 40.914L23.2858 40.9198Z"></path>
</g>
<path fill="#00452B" d="M8.89126 5.36603C11.6966 6.43132 14.2005 8.17713 16.4287 10.1613C20.1385 13.5122 22.9468 17.7906 24.8189 22.4078C25.3157 23.5937 25.7464 24.8858 26.1283 26.1119C26.358 26.8929 26.5303 27.7112 26.6911 28.5066C27.7822 34.2867 27.7075 40.2679 26.5676 46.0394C26.4872 46.4615 26.0795 46.7371 25.6574 46.6567C25.2238 46.5735 24.9452 46.1427 25.0486 45.712C26.3781 39.6821 26.5331 33.3478 25.2869 27.2863C25.2065 26.9475 25.129 26.5742 25.0256 26.244C24.1728 23.2032 22.9726 20.2427 21.3818 17.512C20.6554 16.2687 19.8169 15.0197 18.9239 13.8912C16.3684 10.6494 13.1553 7.84692 9.40524 6.07814C9.18415 5.97477 8.95443 5.87714 8.73334 5.79674C8.61561 5.7508 8.55531 5.61872 8.59838 5.50099C8.64145 5.38326 8.77066 5.32583 8.88839 5.36603L8.89126 5.36603Z"></path>
<path fill="#00A94F" d="M25.6286 40.601C26.4929 38.4705 27.7104 36.4834 29.215 34.7491C29.2695 34.686 29.3298 34.6199 29.4074 34.5883C29.5308 34.5366 29.66 34.5969 29.6543 34.7376C29.6486 34.864 29.6285 34.9903 29.594 35.1138C29.7031 34.9817 29.7806 34.818 29.8725 34.6716C29.9673 34.5223 30.0649 34.373 30.1654 34.2237C30.4956 33.7327 30.8459 33.2531 31.2135 32.7851C31.5781 32.3199 31.9572 31.8634 32.3448 31.4183C32.5199 31.2173 32.7008 31.0134 32.9248 30.867C33.0052 30.8153 33.1115 30.7694 33.1919 30.8211C33.2435 30.8555 33.2665 30.9216 33.2809 30.9819C33.3239 31.1541 33.344 31.3322 33.3354 31.5102C34.3031 30.1089 35.3741 28.834 36.5715 27.6252C36.7581 27.4385 36.9476 27.2519 37.1687 27.1112C37.2204 27.0796 37.2836 27.048 37.341 27.0653C37.4099 27.0854 37.4415 27.16 37.4645 27.2289C37.5277 27.4443 37.5449 27.6711 37.5104 27.8922C38.3058 26.9935 39.0811 26.1349 39.8793 25.2362C40.1751 24.9031 40.4708 24.5672 40.7838 24.2484C40.9762 24.0532 41.1743 23.8637 41.3811 23.6856C41.4758 23.6052 41.5878 23.5248 41.7113 23.5449C41.8319 23.5679 41.9123 23.6856 41.9439 23.8062C41.9755 23.9268 41.9726 24.0503 42.0042 24.1709C42.2339 24.0359 42.4148 23.8924 42.5986 23.6971C43.4198 22.8357 44.1864 21.9226 44.8899 20.9607C45.0823 20.6994 45.269 20.4352 45.4814 20.194C45.559 20.1079 45.6537 20.0189 45.7686 20.016C45.8863 20.016 45.9897 20.1136 46.0327 20.2227C46.0758 20.3347 46.0701 20.4553 46.0643 20.5759C47.1382 19.3383 48.0858 18.052 48.9673 16.6708C49.0649 16.5158 49.2229 16.3377 49.3951 16.4009C49.5445 16.4555 49.576 16.6478 49.5818 16.8029C50.3312 15.9874 50.9055 15.0226 51.3506 14.0119C51.4683 13.7449 51.5717 13.4721 51.6779 13.1993C51.7784 12.9409 51.8674 12.6509 52.0196 12.4211C52.1517 12.223 52.3699 12.2345 52.4618 12.4642C52.5077 12.5762 52.5135 12.7025 52.5594 12.8117C53.4295 11.1348 54.1215 9.3631 54.5953 7.53402C54.7015 7.12341 54.7761 6.70419 54.802 6.27922C54.8278 5.85426 54.779 5.42355 54.7618 4.99571C54.756 4.88372 54.7618 4.74877 54.8565 4.6856C54.9657 4.61381 55.1064 4.6856 55.2126 4.76313C56.8665 5.92317 58.2448 7.44788 59.3445 9.14201C59.4192 9.04725 59.4336 8.89219 59.5484 8.85774C59.6547 8.82615 59.7523 8.92091 59.8183 9.00705C59.9734 9.21092 60.1083 9.42915 60.2289 9.65311C60.4586 10.0781 60.6424 10.5231 60.8233 10.9711C61.1937 11.8842 61.5526 12.803 61.8972 13.7276C61.9977 13.6271 62.1241 13.5324 62.2561 13.5869C62.3136 13.6099 62.3566 13.6616 62.3911 13.7104C62.4916 13.854 62.5548 14.0205 62.6093 14.187C62.7414 14.5862 62.8275 14.9997 62.9108 15.4103C63.1089 16.3779 63.2956 17.3485 63.4535 18.3219C63.5138 18.2328 63.5942 18.1295 63.6804 18.0606C63.732 18.0175 63.801 17.9773 63.8641 17.9974C63.9302 18.0175 63.9646 18.0893 63.9876 18.1524C64.1139 18.4941 64.1656 18.8588 64.2087 19.2206C64.3551 20.4352 64.4039 21.8049 64.3839 23.031C64.4441 22.9391 64.5245 22.8702 64.5992 22.7926C64.6222 22.7697 64.648 22.7467 64.6796 22.7381C64.7313 22.7237 64.7858 22.7496 64.8203 22.7926C64.8548 22.8357 64.8691 22.8874 64.8835 22.9391C65.0012 23.3899 65.0012 23.8637 64.9868 24.3317C64.9868 24.3575 64.9868 24.3805 64.9868 24.4064C64.9438 25.6267 64.8203 26.8786 64.5533 28.0703C64.6136 28.0071 64.6739 27.9439 64.7399 27.8865C64.7715 27.8606 64.8002 27.8319 64.8375 27.8147C64.8749 27.7975 64.9179 27.7917 64.9553 27.809C65.0213 27.8405 65.0385 27.9238 65.0471 27.9956C65.0759 28.3316 65.0184 28.679 64.9696 29.0092C64.783 30.2496 64.559 31.493 64.246 32.7076C64.2087 32.8511 64.1714 32.9947 64.134 33.1411C64.2403 33.0234 64.3752 32.9287 64.5217 32.8712C64.559 32.8569 64.6021 32.8425 64.6423 32.8569C64.7198 32.8827 64.7342 32.9803 64.7313 33.0607C64.7198 33.3536 64.6337 33.6379 64.5446 33.9164C64.18 35.0851 63.7866 36.2423 63.3702 37.3937C63.2812 37.6378 63.1893 37.8847 63.0888 38.123C63.0027 38.3269 62.908 38.525 62.8046 38.7203C62.7529 38.8179 62.7443 38.8667 62.7012 38.9701C62.8333 38.8351 62.9826 38.7289 63.1463 38.637C63.2439 38.5824 63.3473 38.5336 63.4564 38.5308C63.5081 38.5308 63.5626 38.5365 63.6057 38.571C63.6746 38.6255 63.6804 38.726 63.6746 38.815C63.6545 39.1079 63.5626 39.3893 63.4535 39.6621C63.3444 39.9349 63.2295 40.2077 63.0888 40.4718C63.0745 40.5005 63.0573 40.5321 63.04 40.5608C62.8247 40.9628 62.595 41.3591 62.3681 41.7553C62.2131 42.0252 62.058 42.2923 61.903 42.5622C60.9382 44.2305 60.0854 45.8758 58.8334 47.3402C56.8579 49.6459 54.0353 51.1017 51.1065 51.8942C48.1777 52.6867 45.1196 52.8676 42.0846 52.9739C38.6676 53.0945 35.0324 53.0744 32.1352 51.2568C30.9349 50.5016 29.9271 49.4737 29.0369 48.3682C27.2366 46.1342 24.5489 43.2542 25.6257 40.5953L25.6286 40.601Z"></path>
<path fill="white" d="M26.8317 15.9816C27.0212 16.3119 27.2136 16.6593 27.5237 16.8833C27.8338 17.1072 28.3018 17.1618 28.5804 16.9034C28.9307 16.576 28.7986 15.996 28.5919 15.5653C28.0176 14.3593 27.1016 13.3543 26.1971 12.3666C25.2007 11.2783 24.19 10.1814 22.9639 9.36307C22.7974 9.25109 22.6193 9.14484 22.4212 9.11613C22.2231 9.08742 21.9963 9.1592 21.8986 9.33436C21.534 9.98329 23.2913 11.2812 23.6645 11.686C24.4369 12.5245 25.1519 13.4175 25.798 14.3564C26.1627 14.8876 26.5072 15.4303 26.8259 15.9903L26.8317 15.9816Z"></path>
<path fill="#00452B" d="M36.6261 47.722C47.2244 41.3475 53.7655 29.8447 55.9908 17.8451C56.4904 15.0599 56.522 12.1971 56.0798 9.39748C56.0626 9.28837 56.1373 9.18787 56.2464 9.17064C56.3526 9.15342 56.4531 9.2252 56.4732 9.33144C56.8207 11.2208 56.9556 13.1475 56.8752 15.0714C56.8034 16.9923 56.4818 18.9047 56.0454 20.774C53.5961 32.2337 47.4398 42.5937 37.4617 49.0343C37.1028 49.2697 36.6204 49.1692 36.3849 48.8103C36.1437 48.4456 36.2557 47.9517 36.6261 47.722Z"></path>
<path fill="white" d="M29.6 18.5114C29.5167 18.6377 29.4851 18.7928 29.4765 18.9421C29.4478 19.4446 29.6373 19.9557 29.9876 20.3175C30.2087 20.5472 30.5533 20.7224 30.8433 20.5874C30.9983 20.5156 31.1074 20.3634 31.1563 20.1998C31.2051 20.0361 31.1993 19.861 31.1706 19.6915C31.0931 19.2379 30.8519 18.8129 30.4987 18.5171C30.2431 18.3018 29.8211 18.1812 29.6 18.5143L29.6 18.5114Z"></path>
<path fill="white" d="M57.9982 36.6815C57.5445 37.4654 57.0392 38.2694 56.9789 39.1739C56.9473 39.6219 57.088 40.1502 57.5015 40.3225C57.8145 40.4517 58.1849 40.3225 58.4318 40.0928C58.6787 39.8602 58.8223 39.5443 58.9458 39.2285C59.2875 38.3671 59.6148 37.5458 60.0484 36.7275C60.5767 35.7254 60.9529 34.7405 61.4295 33.6781C61.9062 32.6156 62.1072 31.9121 62.3225 30.7062C62.423 30.1491 62.4747 29.3623 62.4518 28.7996C62.4345 28.3918 62.5264 27.6366 62.09 27.4069C61.2171 26.9475 61.0074 29.3394 60.8725 29.8304C60.5595 30.9617 60.1805 32.0729 59.7325 33.1583C59.2329 34.3701 58.6529 35.5502 57.9954 36.6844L57.9982 36.6815Z"></path>
<path fill="white" d="M62.314 23.9727C62.1876 24.0416 62.1015 24.168 62.0354 24.2972C61.9149 24.5384 61.8459 24.8025 61.8373 25.0725C61.8345 25.2074 61.8459 25.3452 61.8976 25.4687C61.9522 25.5922 62.0498 25.7013 62.179 25.7415C62.3427 25.7903 62.5265 25.7214 62.6499 25.6037C62.7734 25.4859 62.8538 25.328 62.9285 25.173C63.029 24.9633 63.1237 24.7394 63.1094 24.5068C63.0864 24.1737 62.6413 23.7861 62.3111 23.9698L62.314 23.9727Z"></path>
<path fill="#00452B" d="M83.9931 59.1387C83.6514 58.9837 83.3126 58.8229 82.9824 58.6449C81.5496 57.8696 79.6458 57.637 78.0551 57.3929C72.5276 56.5487 66.647 56.5889 61.2086 57.9672C57.8031 58.8286 54.3976 59.8767 51.3597 61.6799C50.5701 62.148 49.8034 62.6706 49.1832 63.3425C48.5601 64.0144 48.0863 64.8528 47.9714 65.7602C47.802 67.081 46.8861 69.4298 48.3533 69.5361C48.9994 69.582 51.2822 68.6316 51.8995 68.4392C52.7064 68.1865 53.5161 67.9396 54.3287 67.6984C58.8655 66.3431 63.4483 65.1313 68.0626 64.0747C69.2112 63.8105 70.3971 63.555 71.5629 63.733C72.5047 63.8765 73.3747 64.2958 74.2562 64.6633C75.7723 65.3783 77.8196 65.8923 80.0995 66.0502C84.9292 66.3833 88.9606 64.9878 89.1013 62.9347C89.2076 61.3928 87.0942 59.9198 83.9931 59.1387Z"></path>
<path fill="#00452B" d="M55.7099 70.0184C55.7099 70.0184 59.2992 70.7334 59.9567 72.7318C60.9617 75.7928 47.9169 74.1589 48.474 75.5774C48.5343 75.7296 51.6986 76.8322 51.6153 78.4976C51.5349 80.1113 44.4253 80.4961 35.2483 80.4961C26.0713 80.4961 20.6501 79.8156 20.7506 77.372C20.8052 76.0598 22.9817 75.0347 24.1159 74.4001C25.1697 73.8086 13.7846 73.9493 12.6074 71.9393C10.8817 68.9875 18.1779 68.0974 18.1779 68.0974L55.7099 70.0155L55.7099 70.0184Z"></path>
<path fill="#FFDB00" d="M18.3987 67.8936C18.3987 67.8936 13.0435 68.7837 13.1641 70.4233C13.3594 73.042 27.8484 71.6063 27.969 72.8209C28.0868 74.0355 22.1458 74.1073 22.2435 76.011C22.3382 77.9148 29.2554 78.1301 36.0176 78.1301C42.7797 78.1301 49.2978 78.0353 49.3236 76.4389C49.3236 75.319 45.8521 75.3908 45.7085 74.202C45.565 73.0133 59.6348 73.9694 58.2824 71.3995C56.8122 68.6085 48.5857 70.0471 47.7846 68.3817C47.2907 67.3566 49.5189 65.5132 49.5189 65.5132L18.4015 67.8936L18.3987 67.8936Z"></path>
<path fill="#FFDB00" d="M79.1775 62.0617C84.0333 62.0617 87.9697 58.1253 87.9697 53.2695C87.9697 48.4137 84.0333 44.4773 79.1775 44.4773C74.3217 44.4773 70.3853 48.4137 70.3853 53.2695C70.3853 58.1253 74.3217 62.0617 79.1775 62.0617Z"></path>
<path fill="#00452B" d="M73.2715 58.7884C74.7463 58.7884 75.9419 56.4281 75.9419 53.5165C75.9419 50.6049 74.7463 48.2446 73.2715 48.2446C71.7967 48.2446 70.6011 50.6049 70.6011 53.5165C70.6011 56.4281 71.7967 58.7884 73.2715 58.7884Z"></path>
<path fill="white" d="M76.1283 46.72C76.0048 46.8119 75.8842 46.9095 75.8009 47.0358C75.7176 47.1622 75.6746 47.3258 75.7176 47.4723C75.8009 47.7479 76.1455 47.8542 76.4326 47.8398C76.9294 47.814 77.383 47.5785 77.8568 47.4263C78.3852 47.2512 78.9451 47.1909 79.4993 47.2225C79.7347 47.2368 79.9472 47.2167 80.1769 47.2713C80.4612 47.3402 80.7426 47.4149 81.0269 47.4838C81.2393 47.5383 81.4604 47.5929 81.6787 47.5642C81.8969 47.5383 82.118 47.412 82.1955 47.2081C82.2644 47.0215 82.2013 46.8061 82.0778 46.6511C81.9543 46.496 81.7763 46.3926 81.5983 46.3036C80.2688 45.6547 78.6752 45.5599 77.2912 46.0883C76.8806 46.2462 76.4872 46.4558 76.134 46.7171L76.1283 46.72Z"></path>
<path fill="#FFDB00" d="M54.205 49.8784C54.205 49.8784 64.4702 51.1217 71.8268 48.8849C71.8268 48.8849 74.3708 48.9308 74.3737 53.5739C74.3737 58.1222 72.5159 58.6448 72.5159 58.6448C72.5159 58.6448 63.6059 58.0102 53.5991 61.6971L54.205 49.8784Z"></path>
<path fill="#00452B" d="M55.6696 54.7742C55.8935 55.6069 56.1462 56.4942 56.798 57.0599C57.3149 57.5107 58.0155 57.6916 58.696 57.7892C60.1116 57.9902 61.5531 57.8868 62.983 57.8897C63.0548 57.8897 63.1295 57.8897 63.1898 57.927C63.2501 57.9643 63.2903 58.0476 63.2501 58.1079C63.2213 58.1539 63.161 58.1682 63.1065 58.1797C60.1949 58.7568 57.2862 59.3311 54.3746 59.9083C54.1879 59.9456 53.964 59.9714 53.8376 59.8279C53.7371 59.7159 53.7457 59.5436 53.7601 59.3914C53.8893 58.0677 54.0185 56.744 54.1477 55.4203C54.2109 54.7627 54.2769 54.1052 54.3401 53.4505C54.3573 53.2696 54.3114 52.7298 54.5124 52.6436C54.7249 52.5518 54.9201 52.925 55.0092 53.0657C55.3394 53.5826 55.5088 54.1856 55.6667 54.7713L55.6696 54.7742Z"></path>
<path fill="white" d="M56.7461 51.9085C56.6571 52.0033 56.6829 52.1641 56.7662 52.2646C56.8495 52.3651 56.9787 52.411 57.1022 52.4541C58.4632 52.9164 59.9305 52.9221 61.3662 52.8791C63.0201 52.8303 64.6712 52.724 66.3165 52.5632C66.773 52.5202 67.2411 52.4656 67.6431 52.2474C67.9015 52.1067 68.1427 51.854 68.1226 51.5582C68.0853 51.0529 67.465 50.8289 67.0401 50.8174C66.7242 50.8088 66.4112 50.8748 66.104 50.938C65.7192 51.0155 65.3316 51.0902 64.944 51.1562C63.5083 51.4089 62.0582 51.5898 60.6053 51.7018C59.8788 51.7592 59.1495 51.7966 58.4201 51.8167C58.0957 51.8253 57.7568 51.8597 57.4353 51.8052C57.2228 51.7678 56.9184 51.7305 56.749 51.9114L56.7461 51.9085Z"></path>
<path fill="white" d="M69.6186 50.8777C69.5583 51.0701 69.6186 51.2912 69.7536 51.4434C69.8885 51.5955 70.0866 51.6817 70.2876 51.7075C70.4886 51.7334 70.6954 51.7018 70.8906 51.6444C71.0141 51.6099 71.1433 51.5611 71.2323 51.4663C71.3414 51.3515 71.3788 51.1792 71.3472 51.0241C71.3156 50.8691 71.2208 50.7312 71.0974 50.6307C70.8763 50.447 70.5604 50.3809 70.2848 50.4527C70.0378 50.5159 69.7047 50.6049 69.6186 50.8777Z"></path>
<path fill="#FFDB00" d="M54.9001 54.3722C54.7565 50.0106 53.1945 46.2663 51.0094 44.3798C49.5679 43.0446 46.7137 42.0223 46.7137 42.0223L46.7023 43.2369C43.4231 44.1529 41.0427 49.0285 41.2322 54.8202C41.4045 60.0576 43.6241 64.4078 46.5099 65.7114L46.4898 68.1004C51.2218 65.6999 52.3704 63.8019 52.3704 63.8019C54.0186 61.6541 55.0264 58.217 54.9001 54.3751L54.9001 54.3722Z"></path>
<path fill="#00452B" d="M50.7281 54.3952C50.5242 48.1413 48.3305 42.8694 45.4189 40.8652C45.4189 40.8652 45.3988 40.8508 45.3901 40.8451C45.3528 40.8192 45.3155 40.7934 45.2753 40.7704C42.981 39.2658 40.4054 39.2687 40.4054 39.2687L40.4628 40.7532C37.4708 42.723 35.435 48.3394 35.6504 54.8891C35.8686 61.5507 38.3437 67.0954 41.5367 68.7665L41.597 70.363C44.5201 69.8692 46.4899 68.0975 46.4899 68.0975C49.166 65.8205 50.9291 60.5141 50.7281 54.3923L50.7281 54.3952Z"></path>
<path fill="#FFDB00" d="M39.4153 71.0078C43.988 70.8585 47.4599 63.5396 47.17 54.6605C46.8801 45.7814 42.9382 38.7045 38.3655 38.8538C33.7928 39.0031 30.3209 46.3221 30.6108 55.2012C30.9007 64.0802 34.8426 71.1571 39.4153 71.0078Z"></path>
<path fill="#00452B" d="M35.9651 72.5794C40.7597 72.4229 44.3964 64.6355 44.0878 55.1859C43.7793 45.7362 39.6424 38.2026 34.8479 38.3591C30.0533 38.5157 26.4166 46.3031 26.7251 55.7527C27.0337 65.2024 31.1705 72.736 35.9651 72.5794Z"></path>
<path fill="#FFDB00" d="M32.7406 72.699C37.5352 72.5424 41.1717 64.7512 40.863 55.2968C40.5543 45.8423 36.4173 38.3049 31.6228 38.4614C26.8282 38.618 23.1916 46.4092 23.5003 55.8636C23.809 65.3181 27.946 72.8555 32.7406 72.699Z"></path>
<path fill="#00452B" d="M28.8642 71.9288C33.1072 71.7903 36.3114 64.4672 36.021 55.5723C35.7306 46.6774 32.0555 39.5789 27.8125 39.7174C23.5695 39.856 20.3653 47.179 20.6557 56.074C20.9461 64.9689 24.6212 72.0674 28.8642 71.9288Z"></path>
<path fill="#FFDB00" d="M25.695 71.2019C29.9095 71.0643 33.1031 64.1262 32.8281 55.7051C32.5532 47.2841 28.9138 40.5691 24.6993 40.7067C20.4849 40.8443 17.2912 47.7824 17.5662 56.2034C17.8411 64.6244 21.4805 71.3395 25.695 71.2019Z"></path>
<path fill="#00452B" d="M22.7763 69.7111C26.3489 69.5944 29.0468 63.4301 28.8024 55.9426C28.5579 48.4551 25.4636 42.4799 21.891 42.5965C18.3185 42.7132 15.6205 48.8775 15.865 56.365C16.1095 63.8525 19.2038 69.8277 22.7763 69.7111Z"></path>
<path fill="#FFDB00" d="M25.4538 56.2759C25.227 49.3673 22.4762 43.8485 19.3062 43.9519C19.0535 43.9605 18.8065 44.0036 18.5654 44.0811C16.4664 44.5175 12.8369 48.592 12.8369 48.592L14.8153 65.6711C17.9882 69.3666 20.1245 68.9761 20.1245 68.9761C23.2945 68.8727 25.6807 63.1874 25.4538 56.2759Z"></path>
<path fill="#00452B" d="M16.7926 66.3237C19.2612 66.0393 20.7771 61.5943 20.1783 56.3955C19.5796 51.1966 17.0929 47.2126 14.6242 47.4969C12.1556 47.7812 10.6397 52.2262 11.2385 57.4251C11.8372 62.624 14.3239 66.608 16.7926 66.3237Z"></path>
<path fill="#FFDB00" d="M16.4471 65.9244C18.7519 65.6589 20.1549 61.4029 19.5808 56.4183C19.0068 51.4337 16.6729 47.608 14.3681 47.8735C12.0633 48.1389 10.6602 52.395 11.2343 57.3796C11.8084 62.3642 14.1422 66.1898 16.4471 65.9244Z"></path>
<path fill="white" d="M17.3967 45.8815C17.3336 46.0566 17.5231 46.2145 17.6839 46.3093C19.2804 47.2712 20.5179 48.8103 21.1181 50.5733C21.2214 50.8777 21.3507 51.2337 21.6608 51.3256C21.9709 51.4175 22.2982 51.1591 22.393 50.8518C22.4906 50.5446 22.4159 50.2115 22.3298 49.9014C22.0541 48.9309 21.6263 47.9919 20.9774 47.2195C20.4921 46.6395 19.8805 46.16 19.1856 45.8642C18.9243 45.7522 18.663 45.646 18.3759 45.6403C18.1318 45.6345 17.5059 45.5914 17.3996 45.8843L17.3967 45.8815Z"></path>
<path fill="white" d="M21.5372 52.8561C21.4109 53.1375 21.4368 53.462 21.4884 53.7663C21.52 53.9587 21.5602 54.1511 21.655 54.3234C21.7497 54.4957 21.9048 54.6392 22.0943 54.6794C22.3786 54.7397 22.6686 54.5531 22.8294 54.309C23.0332 54.0047 23.0935 53.6084 22.9873 53.2581C22.8035 52.6522 21.9077 52.0349 21.5344 52.8532L21.5372 52.8561Z"></path>
<path fill="white" d="M25.1895 42.1774C25.2671 42.209 25.3475 42.2319 25.4279 42.2578C26.0596 42.4731 26.6051 43.0646 26.9468 43.6217C27.2799 44.1615 27.5326 44.7473 27.8743 45.2785C28.015 45.4938 28.1758 45.7092 28.4026 45.8355C28.6295 45.9619 28.931 45.9791 29.132 45.8126C29.3071 45.669 29.3645 45.4249 29.3588 45.201C29.3473 44.7243 29.1004 44.285 28.8247 43.8916C28.4084 43.2943 27.9087 42.7488 27.3058 42.341C26.9669 42.1113 26.6281 41.8529 26.2548 41.6778C25.9505 41.5342 25.6088 41.4509 25.2757 41.5026C25.1091 41.5284 24.9254 41.6117 24.8938 41.7754C24.8679 41.9046 24.9541 42.0367 25.0632 42.1113C25.1034 42.14 25.1493 42.1601 25.1953 42.1802L25.1895 42.1774Z"></path>
<path fill="white" d="M52.7089 70.1218C52.7347 70.2797 52.907 70.363 53.0334 70.4405C53.1855 70.5324 53.3406 70.6042 53.5071 70.6702C53.8029 70.7908 54.1216 70.8654 54.4317 70.9372C54.7476 71.0119 55.0634 71.0636 55.3707 71.1669C55.3075 71.1468 55.3247 71.1468 55.3764 71.1698C55.4051 71.1842 55.4367 71.1985 55.4654 71.2129C55.5229 71.2416 55.5774 71.2818 55.632 71.3134C55.6004 71.2933 55.5774 71.2646 55.6205 71.3048C55.6435 71.3277 55.6693 71.3478 55.6894 71.3708C55.7325 71.4168 55.744 71.4081 55.6951 71.3708C55.721 71.3909 55.7411 71.4397 55.7612 71.4684C55.9162 71.6867 56.2149 71.8101 56.4618 71.6522C56.7116 71.4914 56.7662 71.2129 56.6456 70.9516C56.4877 70.6128 56.1172 70.3831 55.7813 70.2538C55.4224 70.116 55.0204 70.1074 54.6442 70.0873C54.2824 70.0701 53.9809 70.0155 53.622 69.9638C53.4325 69.938 53.2458 69.9179 53.0563 69.9035C52.9156 69.892 52.6744 69.9179 52.7089 70.1189L52.7089 70.1218Z"></path>
<path fill="white" d="M53.1224 71.8647C53.1109 72.0341 53.2286 72.1891 53.3693 72.2695C53.4353 72.3069 53.5043 72.3384 53.5732 72.3643C53.6105 72.3786 53.6507 72.3901 53.6909 72.3987C53.711 72.4045 53.7311 72.4102 53.7541 72.4131C53.8488 72.4303 53.9493 72.4447 54.0412 72.4131C54.1216 72.3901 54.1905 72.3499 54.2508 72.2925L54.3255 72.1978C54.3685 72.1231 54.3886 72.0456 54.3915 71.9594C54.3973 71.8187 54.3427 71.724 54.2336 71.6464C54.1245 71.5689 54.0039 71.5144 53.8747 71.4914C53.7598 71.4684 53.6392 71.4713 53.5215 71.4914C53.4267 71.5115 53.2975 71.5402 53.2343 71.6177C53.2142 71.6436 53.1941 71.6665 53.1769 71.6924C53.1453 71.7469 53.1281 71.8072 53.1281 71.8704L53.1224 71.8647Z"></path>
<path fill="white" d="M28.9968 73.5157C28.9078 73.5502 28.8131 73.5272 28.7183 73.5502C28.6264 73.5703 28.5403 73.6019 28.4513 73.6335C28.2675 73.6995 28.0809 73.7598 27.8885 73.8C27.4807 73.889 27.0845 73.9493 26.6882 74.0096C26.2776 74.0728 25.8871 74.1589 25.5081 74.3398C25.1118 74.5294 24.8161 74.8998 24.6811 75.3132C24.595 75.5717 24.7787 75.8933 25.0458 75.9536C25.3329 76.0196 25.5971 75.8674 25.6861 75.5889C25.6947 75.5631 25.7033 75.5401 25.7119 75.5142L25.6918 75.5659C25.6918 75.5401 25.7349 75.4884 25.7493 75.4626C25.7694 75.431 25.7895 75.3908 25.8153 75.3649C25.7263 75.4511 25.8153 75.3707 25.8354 75.3477C25.89 75.2903 25.9503 75.2357 26.0106 75.1869C26.0221 75.1783 26.1312 75.1008 26.0364 75.1668C26.0709 75.1438 26.1025 75.1209 26.1369 75.0979C26.3149 74.9888 26.3896 74.9658 26.582 74.8998C26.7629 74.8366 26.9495 74.7849 27.1333 74.7246C27.5037 74.5983 27.854 74.4288 28.1957 74.2365C28.3536 74.1475 28.5116 74.0613 28.6637 73.9666C28.7413 73.9177 28.8188 73.8632 28.8848 73.8C28.948 73.7397 28.9739 73.6593 29.0428 73.6048C29.083 73.5732 29.0399 73.5014 28.994 73.5186L28.9968 73.5157Z"></path>
<path fill="white" d="M17.4109 68.5655C17.2875 68.5166 17.1381 68.5568 17.0147 68.5769C16.8883 68.5999 16.762 68.6286 16.6328 68.6487C16.426 68.6803 16.1705 68.6861 15.9436 68.6774C15.6565 68.666 15.3866 68.709 15.1282 68.844C14.8927 68.9675 14.6199 69.1369 14.5022 69.3809C14.3902 69.6106 14.4304 69.9208 14.6774 70.05C14.9157 70.1763 15.2057 70.1074 15.3464 69.8748C15.3751 69.8289 15.3722 69.8317 15.332 69.8863C15.3464 69.8662 15.3636 69.849 15.3808 69.8317C15.3981 69.8145 15.4182 69.7973 15.4383 69.7829C15.3895 69.8203 15.3866 69.8231 15.4297 69.7915C15.5244 69.7255 15.6163 69.6537 15.7168 69.5934C15.7398 69.5791 15.7656 69.5647 15.7915 69.5503C15.8374 69.5274 15.8431 69.5245 15.8029 69.5446C15.846 69.5331 15.8862 69.5216 15.9293 69.5159C15.8891 69.5216 15.8948 69.5188 15.9465 69.5159C15.9982 69.5101 16.0499 69.5015 16.0987 69.4958C16.159 69.4872 16.2164 69.4786 16.2767 69.4699C16.5007 69.4297 16.7189 69.3723 16.9314 69.2948C17.1755 69.2058 17.4655 69.1024 17.5717 68.8469C17.6205 68.7263 17.5172 68.6114 17.4167 68.5712L17.4109 68.5655Z"></path>
<path fill="white" d="M44.7265 8.86627C39.5207 9.587 39.09 10.1728 38.5559 17.2335C38.0247 10.1728 37.594 9.587 32.3853 8.86627C37.5911 8.14555 38.0218 7.55979 38.5559 0.499023C39.0871 7.55979 39.5178 8.14555 44.7265 8.86627Z"></path>
<path fill="white" d="M77.5268 38.1201C72.321 38.8408 71.8903 39.4265 71.3562 46.4873C70.825 39.4265 70.3943 38.8408 65.1855 38.1201C70.3914 37.3993 70.8221 36.8136 71.3562 29.7528C71.8874 36.8136 72.3181 37.3993 77.5268 38.1201Z"></path>
<path fill="white" d="M12.8369 38.1201C7.63103 38.8408 7.20032 39.4265 6.66624 46.4873C6.13503 39.4265 5.70432 38.8408 0.495605 38.1201C5.70145 37.3993 6.13216 36.8136 6.66624 29.7528C7.19745 36.8136 7.62816 37.3993 12.8369 38.1201Z"></path>
</g>
<defs>
<clipPath id="clip0_1_3592">
<rect transform="translate(0.498535 0.499023)" fill="white" height="80" width="88.6085"></rect>
</clipPath>
</defs>
</svg>
