<svg xmlns="http://www.w3.org/2000/svg" fill="none" viewBox="0 0 90 81" height="81" width="90">
<g clip-path="url(#clip0_1_3528)">
<path fill="#00452B" d="M24.6863 68.0966C24.6863 68.0966 13.0882 69.9633 12.8397 72.7774C12.818 73.0166 12.9919 73.2092 13.1659 73.3459C13.5759 73.672 14.1132 73.8459 14.6071 74.0012C15.4022 74.2497 16.2222 74.4175 17.0423 74.5697C18.1232 74.7684 19.2134 74.9206 20.3036 75.0542C21.6082 75.2157 22.9127 75.3462 24.2235 75.4642C25.6927 75.5947 27.1618 75.7034 28.631 75.8028C30.2058 75.9084 31.7837 75.9953 33.3616 76.073C34.9891 76.1537 36.6167 76.2221 38.2474 76.2842C39.0643 76.3153 39.8781 76.3432 40.695 76.3681C41.1826 76.3836 41.6703 76.3929 42.158 76.424C42.5058 76.4457 43.6209 76.4053 43.6395 76.9241C43.6427 77.039 43.5774 77.1446 43.4905 77.216C43.4035 77.2875 43.2979 77.3341 43.1923 77.3775C42.8817 77.508 42.5711 77.6353 42.2605 77.7658C41.984 77.8807 41.6983 78.0019 41.487 78.2162C41.2448 78.4647 41.1485 78.8622 41.3597 79.1635C41.5802 79.4835 41.984 79.558 42.3412 79.6232C42.8382 79.7164 43.3445 79.7599 43.8477 79.8034C45.6989 79.9587 47.5501 80.0922 49.4044 80.1979C51.2401 80.3035 53.0758 80.3749 54.9146 80.4215C55.601 80.437 56.2875 80.4526 56.9739 80.4619C58.7817 80.4929 60.5894 80.5054 62.4002 80.5054C73.8678 80.5054 86.5593 80.6576 85.9101 77.6322C85.2609 74.6069 68.0409 74.1193 68.0409 74.1193L49.4634 67.522L24.6956 68.1028L24.6863 68.0966Z"></path>
<path fill="#F0533D" d="M14.9893 53.4235C14.9893 53.4235 5.47536 37.9335 20.0118 22.8318C36.7939 5.4005 73.9518 15.2033 73.4797 38.6013C73.0169 61.5521 55.949 70.5659 46.8234 72.8364C37.6977 75.107 21.7139 70.7181 16.2162 60.7352C16.2162 60.7352 15.1756 57.8621 14.9893 53.4235Z"></path>
<mask height="61" width="63" y="13" x="11" maskUnits="userSpaceOnUse" style="mask-type:luminance" id="mask0_1_3528">
<path fill="white" d="M14.9893 53.4235C14.9893 53.4235 5.47536 37.9335 20.0118 22.8318C36.7939 5.4005 73.9518 15.2033 73.4797 38.6013C73.0169 61.5521 55.949 70.5659 46.8234 72.8364C37.6977 75.107 21.7139 70.7181 16.2162 60.7352C16.2162 60.7352 15.1756 57.8621 14.9893 53.4235Z"></path>
</mask>
<g mask="url(#mask0_1_3528)">
<path fill="#00452B" d="M14.6753 54.3087C14.4828 54.3087 14.3306 54.1503 14.3306 53.9608C14.3306 53.9173 14.3772 49.6993 15.9053 44.2761C17.3155 39.266 20.316 32.1624 26.5996 26.7734C30.7058 23.1703 35.3369 20.8035 40.3657 19.7412C44.7483 18.8156 49.1745 18.9585 53.1627 20.1512C58.3436 21.7011 62.0429 24.8321 63.0617 28.5221C63.1114 28.7053 63.0027 28.8979 62.8195 28.9476C62.6362 28.9973 62.4436 28.8886 62.3939 28.7053C61.4404 25.2452 57.915 22.2944 52.9639 20.8128C46.2858 18.8125 35.9706 19.4648 27.053 27.2921C20.9061 32.5631 17.9647 39.5269 16.5763 44.4376C15.0698 49.7769 15.0232 53.9173 15.0232 53.9608C15.0232 54.1503 14.8679 54.3056 14.6753 54.3056L14.6753 54.3087Z"></path>
<path fill="#00452B" d="M50.6687 36.688C50.6687 36.688 41.3971 41.7354 42.0804 56.7501C42.7513 71.5071 52.5013 78.8343 58.1761 79.5766C58.3252 79.5953 55.7596 63.6425 55.7596 63.6425L50.6656 36.688L50.6687 36.688Z"></path>
<path fill="#00452B" d="M17.0734 25.3384C17.0734 25.3384 23.5278 26.4317 30.0257 24.4656C30.0257 24.4656 38.1388 19.1729 45.758 19.4928C45.758 19.4928 45.143 16.8775 52.7777 15.2002C52.7777 15.2002 47.0501 11.5878 47.0532 11.4512C47.0563 11.3145 18.5053 20.1451 18.5053 20.2134C18.5053 20.2817 17.0703 25.3384 17.0703 25.3384L17.0734 25.3384Z"></path>
</g>
<path fill="#62BB46" d="M8.2492 16.9179C8.2492 16.9179 13.1723 25.4906 33.1754 21.8255C45.6805 19.2692 46.9912 15.1691 52.4704 13.8584C52.4704 13.8584 44.0094 3.9966 29.0164 8.87314C16.8903 12.8178 16.3995 16.1445 8.24609 16.9179L8.2492 16.9179Z"></path>
<path fill="#FFF200" d="M19.2195 45.6335C19.0021 45.8105 18.881 46.0777 18.7847 46.3386C18.2939 47.6524 18.2101 49.1154 18.5424 50.479C18.6045 50.7368 18.6884 51.0039 18.8654 51.2027C19.0425 51.4015 19.3376 51.5226 19.5829 51.4232C19.8128 51.3331 19.9432 51.0784 19.9712 50.833C19.9992 50.5877 19.9432 50.3423 19.9029 50.0969C19.76 49.2303 19.8066 48.3358 20.0395 47.4878C20.1296 47.1586 20.2507 46.8386 20.2911 46.5001C20.3253 46.2205 20.3253 45.7267 20.0582 45.5434C19.8252 45.3819 19.4152 45.4689 19.2133 45.6335L19.2195 45.6335Z"></path>
<path fill="#FFF200" d="M19.4711 52.8116C19.3406 53.057 19.322 53.352 19.3592 53.6285C19.3996 53.9236 19.5083 54.2248 19.7413 54.4081C19.9742 54.5914 20.3563 54.6038 20.5458 54.377C20.6389 54.2683 20.6731 54.1192 20.6762 53.9764C20.6793 53.8335 20.6452 53.6906 20.611 53.5508C20.5458 53.2713 20.4805 52.9886 20.4153 52.7091C20.3967 52.6345 20.378 52.5569 20.3345 52.4917C20.1047 52.1562 19.5891 52.5786 19.468 52.8085L19.4711 52.8116Z"></path>
<path fill="#FFF200" d="M16.5174 50.9852C16.4739 51.0659 16.4336 51.1498 16.4025 51.2337C16.0484 52.1469 16.0826 53.2371 16.4833 54.1285C16.5609 54.3056 16.6572 54.4764 16.7939 54.6131C16.9305 54.7498 17.1169 54.846 17.3095 54.8367C17.5859 54.8274 17.8251 54.6038 17.9214 54.3429C18.0177 54.0819 17.999 53.7931 17.9493 53.5197C17.8996 53.2464 17.822 52.9762 17.8002 52.6997C17.7816 52.4264 17.8189 52.1531 17.8406 51.8828C17.8717 51.4884 17.8561 50.9075 17.471 50.6715C17.2753 50.5503 17.0144 50.5503 16.8187 50.6653C16.6883 50.7398 16.5951 50.8578 16.5205 50.9883L16.5174 50.9852Z"></path>
<path fill="#FFF200" d="M56.3687 25.09C56.4712 24.8819 56.4712 24.6179 56.3842 24.3973C56.2631 24.0898 56.0053 23.8538 55.7351 23.6643C55.3717 23.4096 54.9616 23.2108 54.5268 23.1332C54.0919 23.0555 53.6229 23.1052 53.2347 23.3195C52.8464 23.5338 52.542 23.919 52.4737 24.3569C52.3991 24.8322 52.5948 25.2546 52.9675 25.5404C53.3403 25.8261 53.9304 25.8541 54.3901 25.8075C54.8591 25.7609 55.3157 25.6273 55.7692 25.4938C55.9183 25.4503 56.0736 25.4037 56.1979 25.3043C56.2724 25.2453 56.3283 25.1738 56.3687 25.09Z"></path>
<path fill="#FFF200" d="M57.1641 26.6275C57.1796 26.8915 57.338 27.1245 57.5337 27.3015C57.7294 27.4786 57.9592 27.609 58.1735 27.7643C58.7544 28.1867 59.2048 28.7893 59.4408 29.4695C59.5247 29.7087 59.5837 29.9572 59.68 30.1933C59.7763 30.4293 59.916 30.653 60.1273 30.7958C60.3385 30.9387 60.6273 30.9822 60.8479 30.8549C61.1243 30.6964 61.2082 30.333 61.2051 30.0131C61.1957 29.4043 60.9628 28.8173 60.6398 28.3048C60.3167 27.7923 59.9005 27.3419 59.4874 26.8946C59.0308 26.4007 58.1797 25.4503 57.4436 26.0156C57.2603 26.1554 57.1516 26.3914 57.1672 26.6244L57.1641 26.6275Z"></path>
<path fill="#FFF200" d="M55.4619 28.2986C55.3718 28.5346 55.4091 28.808 55.5147 29.0347C55.6203 29.2615 55.7974 29.454 55.9868 29.6249C56.2881 29.8951 56.636 30.1156 57.0087 30.2771C57.192 30.3579 57.3908 30.4231 57.5896 30.4169C57.7915 30.4107 57.9996 30.3206 58.1021 30.1498C58.2201 29.9572 58.1828 29.7087 58.1145 29.4944C57.9716 29.0471 57.6859 28.6527 57.3256 28.3576C57.0212 28.1091 56.4745 27.7737 56.0583 27.8358C55.8005 27.8762 55.5551 28.0532 55.4619 28.2986Z"></path>
<path fill="white" d="M18.5801 26.3106C17.9993 26.4908 17.6266 27.0437 17.3129 27.5655C16.1357 29.5223 15.092 31.5785 14.4677 33.7776C14.4025 34.0044 14.3434 34.2373 14.3838 34.4703C14.4242 34.7001 14.595 34.9238 14.828 34.9517C15.0641 34.9766 15.2753 34.7995 15.4213 34.61C15.5579 34.433 15.6666 34.2342 15.7753 34.0385C16.8376 32.1097 17.8999 30.1808 18.9622 28.2519C19.1144 27.9724 19.2697 27.6897 19.3566 27.3822C19.5213 26.7859 19.3349 26.0777 18.5801 26.3106Z"></path>
<path fill="white" d="M13.778 36.5203C13.6755 36.6352 13.6165 36.7812 13.5637 36.9272C13.4487 37.2565 13.3618 37.6043 13.3773 37.9522C13.3897 38.2131 13.4953 38.5113 13.7469 38.5827C13.8836 38.62 14.0327 38.5827 14.1476 38.4989C14.2625 38.415 14.3495 38.3032 14.424 38.1821C14.6104 37.8746 14.7222 37.5236 14.744 37.1633C14.7781 36.6073 14.3246 35.9084 13.7749 36.5141L13.778 36.5203Z"></path>
<path fill="white" d="M20.9465 38.6169C20.7602 38.7256 20.6297 38.9088 20.5148 39.089C19.8563 40.1047 19.3718 41.2539 19.2506 42.456C19.2289 42.6858 19.2196 42.9219 19.291 43.1393C19.3314 43.2604 19.4059 43.3816 19.524 43.4344C19.67 43.4996 19.8501 43.4406 19.9712 43.3319C20.0924 43.2232 20.1638 43.0741 20.2322 42.9281C20.7105 41.9342 21.1857 40.9402 21.6641 39.9432C21.7697 39.7257 21.8753 39.499 21.8908 39.2567C21.9187 38.7691 21.4094 38.3466 20.9465 38.6138L20.9465 38.6169Z"></path>
<path fill="white" d="M21.7359 37.0484C21.6458 36.7906 21.6551 36.4955 21.7825 36.2532C21.9098 36.0109 22.1645 35.837 22.4378 35.8215C22.7112 35.8059 22.9907 35.9674 23.0963 36.219C23.1522 36.3526 23.1584 36.5048 23.1398 36.6508C23.1056 36.89 22.9969 37.1198 22.8199 37.2844C22.444 37.6385 21.916 37.564 21.7359 37.0484Z"></path>
<path fill="white" d="M27.4383 10.9635C26.842 11.125 26.2456 11.2928 25.6554 11.476C25.0653 11.6593 24.4254 11.8767 23.8198 12.1097C23.3383 12.296 22.5432 12.4544 22.4189 13.0446C22.3816 13.2216 22.4376 13.4235 22.5835 13.526C22.7575 13.6472 22.9935 13.6006 23.2017 13.5509C25.3293 13.057 27.5346 13.0259 29.6964 12.7184C30.2058 12.647 30.7183 12.5569 31.1905 12.355C31.6626 12.1531 32.1005 11.8332 32.3521 11.3828C32.5137 11.094 32.5944 10.743 32.4826 10.4324C32.2683 9.8329 31.4576 9.97889 30.9575 10.0845C30.4388 10.1932 29.9232 10.3237 29.4076 10.4541C28.7491 10.6218 28.0937 10.7865 27.4383 10.9635Z"></path>
<path fill="white" d="M35.4581 9.84528C35.3712 10.2025 35.5668 10.6094 35.8992 10.7678C36.0048 10.8175 36.1228 10.8454 36.2409 10.8548C36.48 10.8734 36.7378 10.8175 36.9056 10.6467C37.0702 10.4789 37.1261 10.2273 37.1044 9.99438C37.0826 9.78006 36.9956 9.56884 36.8434 9.41354C36.4148 8.97558 35.5979 9.27066 35.4581 9.84839L35.4581 9.84528Z"></path>
<path fill="white" d="M38.288 9.32039C38.0489 9.51607 37.9029 9.79872 37.9215 10.1373C37.9433 10.4727 38.1452 10.7927 38.4402 10.9573C38.9434 11.2306 39.6112 11.0753 40.1455 11.0008C40.804 10.9076 41.4593 10.7802 42.124 10.7865C42.4005 10.7865 42.6769 10.8144 42.9534 10.8424C43.5559 10.8983 44.1554 10.9573 44.758 11.0132C44.8698 11.0225 44.9847 11.0349 45.0934 11.007C45.2022 10.979 45.3078 10.9107 45.345 10.8051C45.3761 10.715 45.3543 10.6125 45.3109 10.5287C45.2146 10.3299 45.0282 10.1932 44.8418 10.0783C44.1368 9.65584 43.2422 9.49433 42.444 9.33592C41.5836 9.16819 40.7077 9.07501 39.8286 9.05948C39.3938 9.05016 38.9341 8.97561 38.5272 9.1713C38.4371 9.21478 38.3564 9.26448 38.2849 9.3266L38.288 9.32039Z"></path>
<path fill="#00452B" d="M60.695 14.6411L56.8528 11.9264C56.8528 11.9264 56.7099 12.1159 56.6975 12.1345C56.3558 12.5662 55.921 12.9359 55.4178 13.1688C54.8835 13.4111 54.253 13.4204 53.6908 13.2837C52.3832 12.9669 51.0941 12.6718 49.7492 12.5507C49.5069 12.529 49.2678 12.5134 49.0255 12.4886C47.7085 12.3954 46.376 12.383 45.059 12.4513C42.5245 12.5818 39.9868 12.9607 37.5175 13.5322C34.8121 14.1317 32.1595 15.0418 29.5473 15.9363C26.7022 16.8588 23.7669 17.5981 20.8037 18.0174C20.7944 18.0174 20.7851 18.0174 20.7758 18.0205C20.6453 18.0391 20.5118 18.0547 20.3813 18.0702C20.2508 18.0857 20.1142 18.1013 19.9806 18.1168C19.8471 18.1323 19.7104 18.1479 19.5737 18.1603C19.4371 18.1758 19.2973 18.1882 19.1606 18.2007C19.0208 18.2131 18.8811 18.2255 18.7444 18.2379C18.6077 18.2504 18.4617 18.2597 18.322 18.269C18.1822 18.2783 18.0393 18.2876 17.8964 18.2969C17.7536 18.3063 17.6107 18.3125 17.4678 18.3187C17.3249 18.3249 17.1789 18.3311 17.0361 18.3342C16.8932 18.3373 16.7472 18.3435 16.6012 18.3466C16.4552 18.3466 16.3092 18.3497 16.1664 18.3529C16.0235 18.356 15.8744 18.3529 15.7284 18.3529C15.5824 18.3529 15.4364 18.3497 15.2904 18.3466C15.1445 18.3435 14.9985 18.3373 14.8525 18.3311C14.7065 18.3249 14.5605 18.3187 14.4145 18.3094C14.2686 18.3001 14.1226 18.2907 13.9797 18.2814C13.8368 18.2721 13.6908 18.2566 13.5448 18.2441C13.3989 18.2317 13.256 18.2162 13.1131 18.1976C12.9702 18.1789 12.8273 18.1634 12.6845 18.1447C12.5416 18.1261 12.3987 18.1044 12.2589 18.0826C12.1191 18.0609 11.9763 18.036 11.8365 18.0112C11.6967 17.9863 11.557 17.9584 11.4172 17.9304C11.2774 17.9025 11.1407 17.8714 11.0041 17.8372C10.8674 17.8031 10.7307 17.772 10.5972 17.7347C10.4636 17.6975 10.3301 17.6602 10.1965 17.6229C10.0629 17.5857 9.93247 17.5422 9.80202 17.4987C9.67156 17.4552 9.54111 17.4117 9.41376 17.362C9.28641 17.3123 9.15906 17.2657 9.03171 17.216C8.90436 17.1663 8.78323 17.1135 8.65898 17.0576C8.62792 17.0452 8.59686 17.0297 8.5658 17.0172C8.53785 17.0048 8.50679 16.9862 8.47573 16.9769C8.40429 16.9551 8.33595 16.9147 8.2583 16.9147C8.28315 16.952 8.31421 16.9831 8.34527 17.011C8.37633 17.039 8.41671 17.0576 8.45709 17.0794C8.60618 17.157 8.75838 17.2316 8.91368 17.2968C10.5382 18.0019 12.2962 18.3435 14.0511 18.5299C20.108 19.1138 26.1865 17.7627 31.9173 15.9177C34.2996 15.1722 36.7223 14.5634 39.1793 14.1503C40.403 13.9484 41.633 13.79 42.8693 13.6875C44.1396 13.585 45.4162 13.5384 46.6897 13.5695C47.9601 13.6006 49.2274 13.7062 50.4822 13.9112C50.8891 13.9764 51.296 14.0541 51.6998 14.1441C52.6658 14.3553 54.1257 14.6007 54.2157 15.8494C54.2157 15.8866 54.2189 15.9239 54.2189 15.9612C54.2095 16.542 53.8554 17.07 53.492 17.4925C53.0541 17.9988 52.5323 18.4336 51.9949 18.8281C51.5725 19.1356 51.1345 19.4213 50.6841 19.6854C50.5847 19.7413 50.4885 19.8003 50.386 19.8531C53.3336 20.4029 57.328 22.3069 57.328 22.3069C56.9646 17.8155 60.7074 14.6411 60.7074 14.6411L60.695 14.6411Z"></path>
<path fill="#62BB46" d="M60.81 14.4622C61.0777 13.9987 60.3829 13.0966 59.2583 12.4473C58.1337 11.798 57.0051 11.6474 56.7375 12.1109C56.4699 12.5744 57.1646 13.4766 58.2892 14.1258C59.4138 14.7751 60.5424 14.9257 60.81 14.4622Z"></path>
<path fill="#F0533D" d="M51.8274 35.9146C51.8274 35.9146 50.8894 36.3463 50.2495 37.1197C49.6097 37.8931 41.04 49.0874 47.3764 63.2573C53.9737 78.0112 71.5261 78.4056 79.8317 74.5013C85.9507 71.6282 88.5039 66.9038 88.5039 66.9038C88.5039 66.9038 90.1501 64.4159 88.6716 63.0709L87.4509 61.8813L70.2495 65.9285L51.8243 35.9177L51.8274 35.9146Z"></path>
<path fill="#FFF200" d="M51.8273 35.9145C51.8273 35.9145 51.8179 35.9176 51.8117 35.9208C51.7465 35.9456 51.6875 35.9922 51.6316 36.0357C51.5167 36.1258 51.4204 36.2904 51.3241 36.4084C51.2433 36.5047 51.1657 36.601 51.088 36.7004C50.8209 37.042 50.5755 37.3961 50.3426 37.7627C50.0289 38.2565 49.7431 38.769 49.4853 39.2908C49.1592 39.9462 48.8734 40.6233 48.6218 41.3129C48.3174 42.1422 48.0658 42.9902 47.8577 43.8506C47.6123 44.8662 47.4291 45.8944 47.3017 46.9318C47.1526 48.1432 47.075 49.3607 47.0595 50.5783C46.9259 61.0893 52.582 66.7703 56.8001 69.4601C62.2575 72.9389 69.6686 74.7032 77.5331 71.7307C78.5146 71.361 79.462 70.9044 80.3628 70.3702C81.4654 69.7148 82.4935 68.9383 83.4253 68.0562C84.2081 67.3169 84.9225 66.5063 85.5592 65.6366C86.0531 64.9656 86.4973 64.2575 86.8917 63.5244C87.0346 63.2573 87.1682 62.9871 87.2955 62.7106C87.3452 62.605 87.3918 62.4963 87.4384 62.3876C87.5285 62.1795 87.5906 62.018 87.398 61.8285C87.3017 61.7322 87.1775 61.6701 87.0532 61.608C86.4755 61.3191 85.8108 61.1514 85.2051 60.9246C84.587 60.6917 83.972 60.4463 83.3663 60.1761C81.9127 59.53 80.5056 58.7442 79.3036 57.6943C78.6762 57.1445 78.0767 56.514 77.2877 56.2345C76.6479 56.0077 75.949 56.0357 75.2719 55.9767C74.5948 55.9177 73.8742 55.7375 73.4424 55.2126C73.0573 54.7436 72.9765 54.1006 72.6939 53.5632C72.3895 52.9855 71.8397 52.5414 71.2092 52.3674C70.6532 52.2152 70.0102 52.2463 69.5754 51.8673C69.1529 51.5008 69.0815 50.8765 68.7647 50.4168C68.4882 50.013 68.013 49.7521 67.5223 49.7335C66.929 49.7117 66.2581 50.0006 65.786 49.6403C65.1958 49.1899 65.5064 48.1525 65.0001 47.6089C64.5435 47.115 63.6397 47.2703 63.2017 46.7578C63.0309 46.5591 62.9625 46.295 62.8787 46.0466C62.6364 45.3539 62.2047 44.7296 61.6393 44.2637C58.5084 41.6763 55.6695 38.71 52.5137 36.1537C52.4019 36.0636 52.2777 35.9829 52.141 35.9332C52.0416 35.899 51.9298 35.8866 51.8273 35.9208L51.8273 35.9145Z"></path>
<path fill="white" d="M51.5263 39.5519C51.0853 39.819 50.8026 40.2818 50.5603 40.7384C49.8553 42.0616 49.3428 43.4904 49.0415 44.9595C48.9141 45.5776 48.8272 46.2206 48.9545 46.8418C49.0073 47.0965 49.1036 47.3512 49.2931 47.5252C49.4825 47.6991 49.7869 47.7705 50.0075 47.6339C50.1907 47.522 50.2746 47.3046 50.3305 47.0965C50.638 45.9939 50.5169 44.8042 50.8306 43.7016C51.0325 42.9841 51.4114 42.3318 51.8183 41.7075C52.0357 41.3689 52.2687 41.0304 52.3836 40.6452C52.4768 40.3315 52.4892 39.9681 52.3432 39.6699C52.1817 39.3375 51.8121 39.381 51.5294 39.5519L51.5263 39.5519Z"></path>
<path fill="white" d="M49.0165 49.6684C48.9171 49.8796 48.9109 50.125 48.9544 50.3548C48.9885 50.5443 49.0631 50.7338 49.1998 50.8705C49.3364 51.0071 49.5507 51.0755 49.7309 51.0102C49.7992 50.9854 49.8613 50.9388 49.9173 50.8891C50.1533 50.6748 50.2807 50.3486 50.2496 50.0318C50.2216 49.7585 50.0322 49.3485 49.7495 49.2522C49.4669 49.1559 49.1314 49.423 49.0165 49.6684Z"></path>
<path fill="#F0533D" d="M61.9317 46.236C62.0932 46.6212 62.1522 47.0623 62.4162 47.3853C62.9039 47.9817 63.9289 47.9817 64.3047 48.6526C64.5346 49.0626 64.4445 49.6092 64.7302 49.982C64.9632 50.2864 65.3794 50.3795 65.7615 50.3982C66.1435 50.4168 66.5411 50.3889 66.8983 50.5255C67.4667 50.7461 67.7897 51.3269 68.091 51.858C68.3923 52.3861 68.7806 52.9483 69.3769 53.0725C69.6813 53.1346 70.0012 53.0725 70.3056 53.1253C70.961 53.2433 71.3897 53.8677 71.6785 54.4702C71.9674 55.0697 72.219 55.7375 72.7657 56.1165C73.3558 56.5265 74.1354 56.4985 74.8188 56.719C75.7816 57.0296 76.611 57.7968 77.3223 58.4895C77.7074 58.8653 78.0801 59.2784 78.2479 59.7878C78.4156 60.2972 78.3286 60.9278 77.9062 61.2632C77.8348 61.3191 77.754 61.3688 77.6701 61.3968C77.3533 61.5086 77.0023 61.375 76.7104 61.2104C76.5116 61.0986 76.3252 60.9744 76.1451 60.8346C75.8717 60.6203 75.6201 60.3718 75.3095 60.2165C74.9989 60.0581 74.6076 60.0053 74.3156 60.1885C74.0174 60.3749 73.8062 60.7507 73.6136 61.0365C73.3278 61.462 73.0266 62.0863 72.5078 62.2634C72.2873 62.3379 72.1413 62.2292 72.0761 62.0118C71.955 61.6328 71.9612 61.2322 71.9332 60.8408C71.9115 60.5364 71.8804 60.1575 71.6413 59.9369C71.4922 59.8003 71.2996 59.8531 71.135 59.9245C70.9455 60.0084 70.7591 60.0953 70.5728 60.1885C70.3802 60.2848 70.1876 60.3811 69.995 60.4774C69.7621 60.5954 69.4981 60.7134 69.2496 60.6358C68.9949 60.555 68.852 60.2848 68.8209 60.0363C68.7868 59.7692 68.852 59.5021 68.9079 59.2412C68.9545 59.0237 69.0104 58.7815 68.9607 58.5609C68.9234 58.4056 68.8178 58.2845 68.6625 58.2441C68.529 58.2069 68.3892 58.2193 68.2525 58.2286C67.6406 58.2783 67.0163 58.359 66.3982 58.3497C66.0845 58.3466 65.7677 58.3218 65.4602 58.2565C65.2179 58.2068 64.8545 58.154 64.752 57.8869C64.7458 57.8714 64.7427 57.8559 64.7396 57.8434C64.7178 57.7503 64.7271 57.6509 64.7458 57.5577C64.8017 57.2843 64.9415 57.0359 65.1061 56.8091C65.2707 56.5824 65.4664 56.3898 65.5627 56.132C65.6496 55.9052 65.5254 55.635 65.3515 55.4828C65.1092 55.2685 64.8172 55.2499 64.5097 55.225C64.1494 55.194 63.7953 55.194 63.4381 55.1318C62.8076 55.0231 62.0249 54.8492 61.6055 54.318C61.4596 54.1348 61.3912 53.8863 61.5838 53.7093C61.7639 53.5415 62.0186 53.4732 62.2019 53.3086C62.3355 53.1905 62.4442 53.0042 62.4193 52.8209C62.3945 52.6252 62.2299 52.4792 62.0559 52.3985C61.9099 52.3302 61.7484 52.3022 61.5962 52.2556C61.3664 52.1842 61.1179 52.0009 61.1583 51.7245C61.1955 51.4636 61.5434 51.5071 61.6677 51.3145C61.9286 50.9138 61.0837 50.597 60.8259 50.4945C59.8164 50.0969 58.7293 49.7925 57.9155 49.075C57.7913 48.9663 57.6732 48.8451 57.6018 48.6961C57.5304 48.547 57.5086 48.3668 57.5801 48.2177C57.7167 47.932 58.0553 47.8885 58.3411 47.8978C58.7976 47.9133 59.248 48.0096 59.7046 48.0158C59.9531 48.0189 60.4563 47.9941 60.4687 47.6493C60.4687 47.581 60.4408 47.5157 60.4035 47.4598C60.1674 47.0809 59.7015 46.8604 59.335 46.6305C59.0648 46.4628 58.8039 46.2795 58.5802 46.0528C58.3442 45.8136 57.9248 45.2483 58.3348 44.9563C58.4094 44.9035 58.5026 44.8911 58.5895 44.8849C59.1983 44.8445 59.8102 45.006 60.3817 45.1986C60.8787 45.3663 61.4254 45.5154 61.7639 45.9503C61.8323 46.0404 61.8913 46.1367 61.9348 46.2423L61.9317 46.236Z"></path>
<path fill="#F0533D" d="M56.4214 45.8416C56.3717 45.8944 56.3376 45.9596 56.3158 46.0279C56.2289 46.2857 56.3252 46.5964 56.555 46.7423C56.7849 46.8883 57.1234 46.8355 57.2849 46.6181C57.3408 46.5404 57.3781 46.4504 57.3967 46.3572C57.4185 46.2547 57.4278 46.1491 57.3967 46.0497C57.2911 45.6738 56.673 45.5589 56.4214 45.8416Z"></path>
<path fill="#F0533D" d="M59.1235 52.6625C59.0428 52.8178 59.0397 53.0135 59.1142 53.1719C59.1888 53.3303 59.3379 53.4546 59.5087 53.495C59.6454 53.5291 59.7976 53.5074 59.9094 53.4204C60.015 53.3366 60.0709 53.203 60.1019 53.0725C60.1206 52.9949 60.133 52.9141 60.1268 52.8334C60.0771 52.3613 59.3347 52.2525 59.1266 52.6625L59.1235 52.6625Z"></path>
<path fill="#F0533D" d="M74.4552 62.5492C74.3247 62.6548 74.2626 62.8318 74.2719 62.9965C74.2812 63.1642 74.3527 63.3226 74.4552 63.4562C74.5204 63.54 74.6011 63.6177 74.7005 63.6518C74.8993 63.7171 75.1261 63.5773 75.2068 63.3816C75.2876 63.189 75.2503 62.9623 75.1696 62.7697C75.0515 62.4902 74.7254 62.3287 74.4552 62.5492Z"></path>
<path fill="white" d="M87.5225 46.1863C82.6211 46.8666 82.2173 47.4163 81.7141 54.0633C81.214 47.4163 80.8071 46.8666 75.9058 46.1863C80.8071 45.5061 81.2109 44.9563 81.7141 38.3093C82.2142 44.9563 82.6211 45.5061 87.5225 46.1863Z"></path>
<path fill="white" d="M71.7407 8.37614C66.8393 9.05637 66.4356 9.60615 65.9324 16.2531C65.4323 9.60615 65.0254 9.05637 60.124 8.37614C65.0254 7.69592 65.4292 7.14614 65.9324 0.499146C66.4325 7.14614 66.8393 7.69592 71.7407 8.37614Z"></path>
<path fill="white" d="M11.9302 27.7207C7.0288 28.401 6.62501 28.9508 6.12183 35.5977C5.62175 28.9508 5.21486 28.401 0.313477 27.7207C5.21486 27.0405 5.61865 26.4907 6.12183 19.8438C6.62191 26.4907 7.0288 27.0405 11.9302 27.7207Z"></path>
</g>
<defs>
<clipPath id="clip0_1_3528">
<rect transform="translate(0.316406 0.499146)" fill="white" height="80" width="88.9734"></rect>
</clipPath>
</defs>
</svg>
