<svg xmlns="http://www.w3.org/2000/svg" fill="none" viewBox="0 0 24 24" height="24" width="24">
<path fill="#004600" d="M18.0001 5.00049H16.8161C16.9345 4.68023 16.9968 4.34193 17.0001 4.00049C17.0001 3.20484 16.684 2.44178 16.1214 1.87917C15.5588 1.31656 14.7957 1.00049 14.0001 1.00049H7.00009C6.30235 1.00038 5.61231 1.14631 4.97435 1.42889C4.33639 1.71147 3.76464 2.12445 3.29586 2.64126C2.82709 3.15807 2.47167 3.76727 2.25247 4.42969C2.03326 5.0921 1.95513 5.79306 2.02309 6.48749C2.14909 7.69789 2.72298 8.81749 3.63209 9.62649C3.13385 9.88575 2.68341 10.228 2.30009 10.6385C1.83153 11.1561 1.47604 11.7657 1.25634 12.4285C1.03663 13.0912 0.957535 13.7925 1.02409 14.4875C1.17659 15.7413 1.78604 16.8949 2.73583 17.7276C3.68562 18.5602 4.90907 19.0134 6.17209 19.0005H8.00009C8.26531 19.0005 8.51966 19.1058 8.7072 19.2934C8.89473 19.4809 9.00009 19.7353 9.00009 20.0005V22.0005C9.00009 22.2657 9.10545 22.5201 9.29298 22.7076C9.48052 22.8951 9.73487 23.0005 10.0001 23.0005C10.2653 23.0005 10.5197 22.8951 10.7072 22.7076C10.8947 22.5201 11.0001 22.2657 11.0001 22.0005V20.0005C11.0001 19.2048 10.684 18.4418 10.1214 17.8792C9.5588 17.3166 8.79574 17.0005 8.00009 17.0005H6.17209C5.40588 17.0172 4.66036 16.7512 4.07785 16.2531C3.49534 15.7551 3.11665 15.06 3.01409 14.3005C2.97215 13.8832 3.01816 13.4618 3.14915 13.0635C3.28013 12.6651 3.49318 12.2986 3.77454 11.9876C4.05591 11.6767 4.39934 11.4282 4.78267 11.2581C5.16601 11.0881 5.58074 11.0003 6.00009 11.0005H18.0001C18.2653 11.0005 18.5197 10.8951 18.7072 10.7076C18.8947 10.5201 19.0001 10.2657 19.0001 10.0005C19.0001 9.73527 18.8947 9.48092 18.7072 9.29338C18.5197 9.10585 18.2653 9.00049 18.0001 9.00049H7.17209C6.40588 9.01721 5.66036 8.75116 5.07785 8.25313C4.49534 7.7551 4.11665 7.05998 4.01409 6.30049C3.97215 5.88324 4.01816 5.46183 4.14915 5.06345C4.28013 4.66508 4.49318 4.29859 4.77454 3.98764C5.05591 3.67669 5.39934 3.42818 5.78267 3.25815C6.16601 3.08812 6.58074 3.00034 7.00009 3.00049H14.0001C14.2653 3.00049 14.5197 3.10584 14.7072 3.29338C14.8947 3.48092 15.0001 3.73527 15.0001 4.00049C15.0001 4.2657 14.8947 4.52006 14.7072 4.70759C14.5197 4.89513 14.2653 5.00049 14.0001 5.00049H7.00009C6.73487 5.00049 6.48052 5.10585 6.29298 5.29338C6.10545 5.48092 6.00009 5.73527 6.00009 6.00049C6.00009 6.2657 6.10545 6.52006 6.29298 6.70759C6.48052 6.89513 6.73487 7.00049 7.00009 7.00049H18.0001C18.7957 7.00049 19.5588 7.31656 20.1214 7.87917C20.684 8.44178 21.0001 9.20484 21.0001 10.0005C21.0001 10.7961 20.684 11.5592 20.1214 12.1218C19.5588 12.6844 18.7957 13.0005 18.0001 13.0005H6.00009C5.73487 13.0005 5.48052 13.1058 5.29298 13.2934C5.10545 13.4809 5.00009 13.7353 5.00009 14.0005C5.00009 14.2657 5.10545 14.5201 5.29298 14.7076C5.48052 14.8951 5.73487 15.0005 6.00009 15.0005H10.0001C10.7957 15.0005 11.5588 15.3166 12.1214 15.8792C12.684 16.4418 13.0001 17.2048 13.0001 18.0005V22.0005C13.0001 22.2657 13.1054 22.5201 13.293 22.7076C13.4805 22.8951 13.7349 23.0005 14.0001 23.0005C14.2653 23.0005 14.5197 22.8951 14.7072 22.7076C14.8947 22.5201 15.0001 22.2657 15.0001 22.0005V18.0005C14.9964 16.915 14.6359 15.8609 13.9741 15.0005H18.0001C19.3262 15.0005 20.5979 14.4737 21.5356 13.536C22.4733 12.5983 23.0001 11.3266 23.0001 10.0005C23.0001 8.67441 22.4733 7.40264 21.5356 6.46495C20.5979 5.52727 19.3262 5.00049 18.0001 5.00049Z"></path>
</svg>
