<svg xmlns="http://www.w3.org/2000/svg" fill="none" viewBox="0 0 32 32" height="32" width="32">
<path fill="#004600" d="M24.0001 6.66732H22.4215C22.5794 6.24031 22.6624 5.78924 22.6668 5.33398C22.6668 4.27312 22.2454 3.2557 21.4952 2.50556C20.7451 1.75541 19.7277 1.33398 18.6668 1.33398H9.33345C8.40313 1.33384 7.48308 1.52841 6.63246 1.90519C5.78185 2.28196 5.01952 2.8326 4.39448 3.52168C3.76945 4.21076 3.29556 5.02303 3.00329 5.90625C2.71102 6.78947 2.60684 7.72409 2.69745 8.64998C2.86546 10.2639 3.63064 11.7567 4.84279 12.8353C4.17847 13.181 3.57788 13.6373 3.06679 14.1847C2.44204 14.8748 1.96806 15.6877 1.67512 16.5713C1.38218 17.4549 1.27671 18.39 1.36545 19.3167C1.56878 20.9884 2.38138 22.5266 3.64777 23.6368C4.91416 24.7469 6.54542 25.3512 8.22945 25.334H10.6668C11.0204 25.334 11.3595 25.4745 11.6096 25.7245C11.8596 25.9746 12.0001 26.3137 12.0001 26.6673V29.334C12.0001 29.6876 12.1406 30.0267 12.3906 30.2768C12.6407 30.5268 12.9798 30.6673 13.3335 30.6673C13.6871 30.6673 14.0262 30.5268 14.2763 30.2768C14.5263 30.0267 14.6668 29.6876 14.6668 29.334V26.6673C14.6668 25.6065 14.2454 24.589 13.4952 23.8389C12.7451 23.0887 11.7277 22.6673 10.6668 22.6673H8.22945C7.20784 22.6896 6.21381 22.3349 5.43713 21.6708C4.66045 21.0068 4.15553 20.08 4.01879 19.0673C3.96287 18.511 4.02422 17.9491 4.19886 17.4179C4.3735 16.8868 4.65757 16.3981 5.03272 15.9835C5.40787 15.5689 5.86578 15.2376 6.3769 15.0109C6.88801 14.7842 7.44098 14.6671 8.00012 14.6673H24.0001C24.3537 14.6673 24.6929 14.5268 24.9429 14.2768C25.193 14.0267 25.3335 13.6876 25.3335 13.334C25.3335 12.9804 25.193 12.6412 24.9429 12.3912C24.6929 12.1411 24.3537 12.0007 24.0001 12.0007H9.56279C8.54118 12.023 7.54714 11.6682 6.77046 11.0042C5.99378 10.3401 5.48887 9.41331 5.35212 8.40065C5.29621 7.84432 5.35755 7.28244 5.53219 6.75127C5.70684 6.22011 5.9909 5.73146 6.36605 5.31686C6.74121 4.90225 7.19912 4.57091 7.71023 4.3442C8.22135 4.11749 8.77431 4.00046 9.33345 4.00065H18.6668C19.0204 4.00065 19.3595 4.14113 19.6096 4.39118C19.8596 4.64122 20.0001 4.98036 20.0001 5.33398C20.0001 5.68761 19.8596 6.02674 19.6096 6.27679C19.3595 6.52684 19.0204 6.66732 18.6668 6.66732H9.33345C8.97983 6.66732 8.64069 6.80779 8.39064 7.05784C8.1406 7.30789 8.00012 7.64703 8.00012 8.00065C8.00012 8.35427 8.1406 8.69341 8.39064 8.94346C8.64069 9.19351 8.97983 9.33398 9.33345 9.33398H24.0001C25.061 9.33398 26.0784 9.75541 26.8285 10.5056C27.5787 11.2557 28.0001 12.2731 28.0001 13.334C28.0001 14.3949 27.5787 15.4123 26.8285 16.1624C26.0784 16.9126 25.061 17.334 24.0001 17.334H8.00012C7.6465 17.334 7.30736 17.4745 7.05731 17.7245C6.80726 17.9746 6.66679 18.3137 6.66679 18.6673C6.66679 19.0209 6.80726 19.3601 7.05731 19.6101C7.30736 19.8602 7.6465 20.0007 8.00012 20.0007H13.3335C14.3943 20.0007 15.4117 20.4221 16.1619 21.1722C16.912 21.9224 17.3335 22.9398 17.3335 24.0007V29.334C17.3335 29.6876 17.4739 30.0267 17.724 30.2768C17.974 30.5268 18.3132 30.6673 18.6668 30.6673C19.0204 30.6673 19.3595 30.5268 19.6096 30.2768C19.8596 30.0267 20.0001 29.6876 20.0001 29.334V24.0007C19.9952 22.5534 19.5145 21.1478 18.6321 20.0007H24.0001C25.7682 20.0007 27.4639 19.2983 28.7142 18.048C29.9644 16.7978 30.6668 15.1021 30.6668 13.334C30.6668 11.5659 29.9644 9.87018 28.7142 8.61994C27.4639 7.3697 25.7682 6.66732 24.0001 6.66732Z"></path>
</svg>
