<svg xmlns="http://www.w3.org/2000/svg" fill="none" viewBox="0 0 130 49" height="49" width="130">
<g clip-path="url(#clip0_8099_27591)">
<path fill="white" d="M66.5387 20.1301V17.8717H62.4258V31.7589H66.6362V24.0643C67.3594 22.457 68.5786 21.6527 70.2935 21.6512C70.7918 21.6488 71.2889 21.6985 71.7768 21.7995V17.8103C71.3522 17.6688 70.9062 17.6021 70.4588 17.6133C69.0306 17.6133 67.7218 18.4543 66.5323 20.1365"></path>
<path fill="white" d="M77.982 27.1999C76.8237 25.8187 76.8237 23.8057 77.982 22.4246C78.5549 21.7984 79.3645 21.4418 80.2133 21.4418C81.0621 21.4418 81.8718 21.7984 82.4446 22.4246C83.6089 23.8011 83.6089 25.817 82.4446 27.1935C81.8708 27.8179 81.0614 28.1733 80.2133 28.1733C79.3652 28.1733 78.5559 27.8179 77.982 27.1935M87.3076 24.7974C87.3519 22.8877 86.6158 21.0424 85.2692 19.6874C82.4686 16.9096 77.9501 16.9144 75.1553 19.698C72.443 22.5584 72.443 27.0406 75.1553 29.901C77.9466 32.6882 82.4651 32.6986 85.2692 29.9243C86.6296 28.5416 87.309 26.8326 87.3076 24.7974Z"></path>
<path fill="white" d="M109.034 23.486C109.189 22.7973 109.555 22.1739 110.08 21.7022C110.557 21.2857 111.17 21.0594 111.803 21.0666C112.443 21.0724 113.054 21.335 113.498 21.7954C113.981 22.2389 114.3 22.8324 114.403 23.4797L109.034 23.486ZM111.89 17.6134C110.02 17.574 108.217 18.3147 106.915 19.6578C105.56 21.0193 104.883 22.7347 104.885 24.8038C104.885 26.9223 105.533 28.6518 106.83 29.9921C108.127 31.3325 109.822 32.0034 111.916 32.0048C113.328 32.0048 114.535 31.7414 115.537 31.2146C116.577 30.6547 117.51 29.9144 118.291 29.0282L115.238 27.3206C114.461 28.0353 113.441 28.3926 112.178 28.3926C110.362 28.3926 109.294 27.5883 108.977 25.9796H118.531C118.533 25.8669 118.584 25.3673 118.592 25.2487C118.601 25.13 118.605 25.0368 118.605 24.9457C118.605 22.9119 117.977 21.1803 116.721 19.751C115.465 18.3217 113.852 17.6077 111.882 17.6091"></path>
<path fill="white" d="M128.418 17.6132C126.99 17.6132 125.681 18.4543 124.49 20.1364V17.8717H120.377V31.7589H124.589V24.0643C125.31 22.457 126.528 21.6526 128.245 21.6512C128.743 21.6487 129.24 21.6984 129.728 21.7995V17.8102C129.304 17.6689 128.859 17.6023 128.412 17.6132"></path>
<path fill="white" d="M58.3658 15.2575C58.4302 14.7798 58.4677 14.2988 58.4781 13.8169C58.4041 10.2486 60.2658 6.9193 63.3448 5.11347C66.4238 3.30764 70.2389 3.30764 73.3179 5.11347C76.3969 6.9193 78.2586 10.2486 78.1846 13.8169H82.164C82.1614 6.23156 76.045 0.0656323 68.4585 0.000519819C60.872 -0.0645927 54.6506 5.99545 54.5178 13.5796C54.5148 13.9707 54.4872 14.3613 54.4351 14.749C54.2529 16.16 53.7253 18.1938 52.2505 19.8717C51.0956 21.1852 49.5149 22.0729 47.5358 22.5348V13.3042H43.0859V31.759H47.5358V26.5876C48.8449 26.3681 50.1186 25.9733 51.3224 25.4139L55.3484 31.759H60.6797L54.7869 22.9585C54.9352 22.8059 55.0835 22.6513 55.2255 22.4903C57.3636 20.0582 58.1137 17.2129 58.3658 15.2533"></path>
<path fill="white" d="M98.2634 26.9604C97.674 27.5645 96.8656 27.9052 96.0215 27.9052C95.1774 27.9052 94.369 27.5645 93.7796 26.9604C92.6244 25.6078 92.6244 23.6161 93.7796 22.2635C94.3677 21.6592 95.1751 21.3183 96.0183 21.3183C96.8616 21.3183 97.669 21.6592 98.257 22.2635C99.4 23.6206 99.4 25.6033 98.257 26.9604M103.099 35.8181V17.8717H99.094V19.0539C98.1529 18.095 96.8539 17.5727 95.5108 17.6133C93.7281 17.6133 92.1848 18.2835 90.8809 19.6238C89.577 20.9641 88.9244 22.6251 88.923 24.6067C88.923 26.584 89.5918 28.228 90.9296 29.5387C92.2674 30.8494 93.7945 31.5068 95.5108 31.5111C96.8146 31.5321 98.0897 31.1274 99.1427 30.3586V35.8181C99.1427 38.8457 97.5273 41.6433 94.9048 43.157C92.2824 44.6708 89.0514 44.6708 86.4289 43.157C83.8065 41.6433 82.191 38.8457 82.191 35.8181H78.2285C78.2981 42.5653 83.7358 48.0265 90.4839 48.1265C97.232 48.2266 102.829 42.9289 103.099 36.1867V35.9982C103.099 35.9389 103.099 35.8795 103.099 35.8181Z"></path>
<path fill="white" d="M104.584 40.8033C105.415 40.8033 106.088 41.4767 106.088 42.3073C106.088 43.138 105.415 43.8113 104.584 43.8113C103.753 43.8113 103.08 43.138 103.08 42.3073C103.08 41.4767 103.753 40.8033 104.584 40.8033ZM104.584 41.1041C103.92 41.1041 103.381 41.6428 103.381 42.3073C103.381 42.9719 103.92 43.5105 104.584 43.5105C105.249 43.5105 105.787 42.9719 105.787 42.3073C105.787 41.6428 105.249 41.1041 104.584 41.1041Z"></path>
<path fill="white" d="M105.102 41.5707C105.206 41.662 105.26 41.796 105.248 41.9323C105.259 42.0545 105.211 42.1748 105.119 42.2581C105.028 42.3284 104.918 42.3714 104.802 42.3821L105.287 43.1095H105.032L104.571 42.401H104.271V43.1095H104.033L104.035 41.4572H104.655C104.812 41.4452 104.97 41.4851 105.102 41.5707ZM104.788 41.6556H104.284V42.2071H104.747C104.798 42.206 104.849 42.1945 104.896 42.1733C104.938 42.1564 104.974 42.1265 104.999 42.0878C105.025 42.0377 105.038 41.9807 105.035 41.9235C105.038 41.8725 105.027 41.8219 105.003 41.7772C104.981 41.7413 104.95 41.7124 104.914 41.6939C104.874 41.6735 104.832 41.6605 104.788 41.6556Z" clip-rule="evenodd" fill-rule="evenodd"></path>
<path fill="white" d="M31.0528 27.2811C32.3569 27.2811 33.4068 28.3442 33.4068 29.6647C33.4068 30.9852 32.3569 32.0483 31.0528 32.0483C29.7487 32.0483 28.6989 30.9852 28.6989 29.6647C28.6989 28.3442 29.7487 27.2811 31.0528 27.2811ZM11.5464 27.2811C12.8505 27.2811 13.9004 28.3442 13.9004 29.6647C13.9004 30.9852 12.8505 32.0483 11.5464 32.0483C10.2423 32.0483 9.19246 30.9852 9.19246 29.6647C9.19246 28.3442 10.2423 27.2811 11.5464 27.2811ZM0.144531 3.99353C5.51924 4.26024 9.17931 7.95841 9.69793 13.6485C10.2695 19.9504 15.7945 24.6012 22.0032 24.0211C27.5939 23.4983 31.8742 18.9089 32.251 13.4051L36.1608 13.3987C35.7798 20.9242 29.9838 27.2409 22.3631 27.9521C21.8889 27.9959 21.4197 28.0178 20.9554 28.0178C13.1865 28.0178 6.53745 21.9995 5.81137 14.0126C5.47692 10.3399 3.4659 8.20185 0.144531 7.95841V3.99353ZM21.1946 13.951C21.3879 13.951 21.566 14.0556 21.6603 14.2243L25.3415 20.685C25.4147 20.8135 25.433 20.9661 25.3923 21.1083C25.3491 21.2518 25.2488 21.3712 25.115 21.4386C24.0683 21.9645 22.9325 22.2905 21.7662 22.3996C20.1988 22.5475 18.6194 22.297 17.1747 21.6714C17.0318 21.6106 16.9222 21.491 16.8741 21.3433C16.8257 21.1955 16.8418 21.0341 16.9185 20.8988L20.7289 14.2243C20.8232 14.0556 21.0013 13.951 21.1946 13.951ZM18.3559 13.4072C18.5491 13.4072 18.7273 13.5116 18.8216 13.6803C18.9171 13.8491 18.9171 14.0555 18.8216 14.2243L15.5341 19.9949C15.4555 20.1345 15.3184 20.2316 15.1606 20.2594C15.0028 20.2873 14.8408 20.243 14.7191 20.1388C12.9719 18.6359 11.8201 16.5575 11.4719 14.2794C11.4634 14.2158 11.4528 14.1206 11.4401 14.0147C11.422 13.8614 11.4697 13.7076 11.5714 13.5914C11.6725 13.4747 11.8192 13.4075 11.9736 13.4072H18.3559ZM29.8166 13.4051C29.9716 13.4053 30.119 13.4725 30.2209 13.5893C30.3211 13.7063 30.3686 13.8594 30.3522 14.0126C30.1241 15.8275 29.3865 17.5406 28.2247 18.9534C27.9917 19.238 27.7422 19.5088 27.4774 19.7641C27.3617 19.8809 27.1982 19.9373 27.035 19.9166C26.8709 19.8928 26.7271 19.7942 26.6455 19.6498L23.5528 14.2222C23.4556 14.0539 23.4556 13.8465 23.5528 13.6782C23.6471 13.5095 23.8253 13.4051 24.0185 13.4051H29.8166Z"></path>
</g>
<defs>
<clipPath id="clip0_8099_27591">
<rect transform="translate(0.109375)" fill="white" height="48.128" width="129.617"></rect>
</clipPath>
</defs>
</svg>
