<svg xmlns="http://www.w3.org/2000/svg" fill="none" viewBox="0 0 130 49" height="49" width="130">
<g clip-path="url(#clip0_4048_8658)">
<path fill="white" d="M66.3224 21.0128V18.7604H62.2205V32.6107H66.4197V24.9365C67.141 23.3335 68.3569 22.5313 70.0673 22.5299C70.5642 22.5275 71.06 22.5771 71.5466 22.6778V18.6992C71.1231 18.5581 70.6784 18.4916 70.2321 18.5027C68.8077 18.5027 67.5024 19.3415 66.3161 21.0192"></path>
<path fill="white" d="M77.7345 28.0637C76.5793 26.6863 76.5793 24.6786 77.7345 23.3012C78.3058 22.6767 79.1133 22.321 79.9598 22.321C80.8063 22.321 81.6139 22.6767 82.1852 23.3012C83.3464 24.6741 83.3464 26.6846 82.1852 28.0574C81.6129 28.6802 80.8057 29.0346 79.9598 29.0346C79.114 29.0346 78.3068 28.6802 77.7345 28.0574M87.0353 25.6677C87.0795 23.7631 86.3453 21.9227 85.0023 20.5713C82.2091 17.8009 77.7026 17.8056 74.9153 20.5819C72.2102 23.4347 72.2102 27.9049 74.9153 30.7577C77.6991 33.5375 82.2056 33.5479 85.0023 30.781C86.359 29.4019 87.0367 27.6975 87.0353 25.6677Z"></path>
<path fill="white" d="M108.703 24.3598C108.858 23.6729 109.223 23.0512 109.747 22.5807C110.223 22.1653 110.834 21.9396 111.465 21.9468C112.104 21.9526 112.713 22.2145 113.156 22.6737C113.638 23.116 113.956 23.7079 114.059 24.3535L108.703 24.3598ZM111.552 18.5028C109.687 18.4635 107.889 19.2022 106.59 20.5417C105.239 21.8997 104.564 23.6104 104.565 25.6741C104.565 27.787 105.212 29.5118 106.505 30.8486C107.799 32.1854 109.49 32.8545 111.577 32.8559C112.986 32.8559 114.19 32.5932 115.189 32.0678C116.227 31.5094 117.157 30.7711 117.937 29.8872L114.891 28.1842C114.116 28.897 113.099 29.2534 111.84 29.2534C110.028 29.2534 108.963 28.4512 108.646 26.8467H118.175C118.178 26.7344 118.228 26.2361 118.237 26.1178C118.245 25.9994 118.249 25.9065 118.249 25.8156C118.249 23.7872 117.623 22.0602 116.371 20.6347C115.118 19.2092 113.509 18.4971 111.544 18.4985"></path>
<path fill="white" d="M128.038 18.5026C126.614 18.5026 125.308 19.3415 124.12 21.0191V18.7604H120.018V32.6107H124.219V24.9365C124.938 23.3335 126.153 22.5313 127.865 22.5299C128.362 22.5274 128.858 22.5769 129.344 22.6778V18.6991C128.921 18.5582 128.477 18.4917 128.032 18.5026"></path>
<path fill="white" d="M58.1714 16.1532C58.2356 15.6767 58.273 15.1971 58.2834 14.7164C58.2096 11.1577 60.0663 7.83718 63.1371 6.03615C66.208 4.23513 70.0128 4.23513 73.0837 6.03615C76.1545 7.83718 78.0112 11.1577 77.9374 14.7164H81.9063C81.9037 7.15127 75.8035 1.00174 68.2372 0.936798C60.6709 0.871858 54.466 6.91578 54.3336 14.4798C54.3306 14.8699 54.303 15.2594 54.2512 15.6461C54.0694 17.0533 53.5432 19.0817 52.0723 20.7552C50.9205 22.0652 49.344 22.9505 47.3701 23.4111V14.2051H42.9321V32.6108H47.3701V27.4532C48.6758 27.2342 49.9461 26.8405 51.1467 26.2826L55.162 32.6108H60.4792L54.602 23.8337C54.7499 23.6816 54.8978 23.5273 55.0394 23.3668C57.1718 20.9411 57.9199 18.1034 58.1714 16.149"></path>
<path fill="white" d="M97.9633 27.8249C97.3754 28.4274 96.5692 28.7672 95.7274 28.7672C94.8855 28.7672 94.0793 28.4274 93.4915 27.8249C92.3393 26.4759 92.3393 24.4896 93.4915 23.1406C94.0779 22.5379 94.8832 22.1979 95.7242 22.1979C96.5652 22.1979 97.3705 22.5379 97.9569 23.1406C99.0968 24.4941 99.0968 26.4714 97.9569 27.8249M102.786 36.6591V18.7605H98.7917V19.9395C97.8531 18.9831 96.5576 18.4622 95.2181 18.5027C93.44 18.5027 91.9008 19.1711 90.6004 20.5079C89.3 21.8446 88.6491 23.5012 88.6477 25.4775C88.6477 27.4495 89.3148 29.0892 90.649 30.3964C91.9832 31.7036 93.5063 32.3593 95.2181 32.3635C96.5184 32.3845 97.7901 31.9809 98.8403 31.2141V36.6591C98.8403 39.6786 97.2291 42.4688 94.6136 43.9785C91.9982 45.4883 88.7758 45.4883 86.1603 43.9785C83.5448 42.4688 81.9336 39.6786 81.9336 36.6591H77.9817C78.0511 43.3884 83.4743 48.835 90.2045 48.9348C96.9347 49.0346 102.517 43.751 102.786 37.0268V36.8387C102.786 36.7795 102.786 36.7204 102.786 36.6591Z"></path>
<path fill="white" d="M104.267 41.6309C105.096 41.6309 105.767 42.3024 105.767 43.1309C105.767 43.9593 105.096 44.6309 104.267 44.6309C103.439 44.6309 102.767 43.9593 102.767 43.1309C102.767 42.3024 103.439 41.6309 104.267 41.6309ZM104.267 41.9309C103.604 41.9309 103.067 42.4681 103.067 43.1309C103.067 43.7936 103.604 44.3309 104.267 44.3309C104.93 44.3309 105.467 43.7936 105.467 43.1309C105.467 42.4681 104.93 41.9309 104.267 41.9309Z"></path>
<path fill="white" d="M104.783 42.3965C104.887 42.4877 104.941 42.6212 104.929 42.7572C104.939 42.8791 104.892 42.999 104.8 43.0821C104.709 43.1522 104.599 43.1952 104.484 43.2058L104.967 43.9313H104.713L104.253 43.2247H103.954V43.9313H103.717L103.719 42.2833H104.337C104.494 42.2714 104.651 42.3112 104.783 42.3965ZM104.47 42.4813H103.967V43.0312H104.429C104.48 43.0301 104.531 43.0187 104.578 42.9976C104.62 42.9807 104.655 42.9509 104.68 42.9123C104.707 42.8623 104.719 42.8055 104.717 42.7484C104.719 42.6976 104.708 42.6471 104.684 42.6025C104.663 42.5667 104.632 42.5379 104.595 42.5194C104.556 42.4991 104.513 42.4861 104.47 42.4813Z" clip-rule="evenodd" fill-rule="evenodd"></path>
<path fill="white" d="M30.9304 28.1446C32.231 28.1446 33.278 29.2049 33.278 30.5218C33.278 31.8388 32.231 32.8991 30.9304 32.8991C29.6297 32.8991 28.5827 31.8388 28.5827 30.5218C28.5827 29.2049 29.6297 28.1446 30.9304 28.1446ZM11.4758 28.1446C12.7764 28.1446 13.8235 29.2049 13.8235 30.5218C13.8235 31.8388 12.7764 32.8991 11.4758 32.8991C10.1752 32.8991 9.12812 31.8388 9.12812 30.5218C9.12812 29.2049 10.1752 28.1446 11.4758 28.1446ZM0.104248 4.91895C5.46467 5.18495 9.115 8.87328 9.63224 14.5483C10.2023 20.8334 15.7126 25.4718 21.9048 24.8933C27.4806 24.3718 31.7495 19.7947 32.1253 14.3055L36.0248 14.2991C35.6447 21.8046 29.8642 28.1045 22.2638 28.8139C21.7908 28.8575 21.3228 28.8793 20.8598 28.8793C13.1115 28.8793 6.48017 22.8771 5.75602 14.9114C5.42246 11.2484 3.41679 9.11608 0.104248 8.87328V4.91895ZM21.0984 14.85C21.2911 14.85 21.4688 14.9542 21.5628 15.1225L25.2343 21.566C25.3072 21.6942 25.3255 21.8464 25.2849 21.9883C25.2418 22.1313 25.1418 22.2504 25.0084 22.3176C23.9644 22.8422 22.8317 23.1673 21.6684 23.2761C20.1052 23.4236 18.53 23.1738 17.0891 22.5498C16.9466 22.4892 16.8373 22.3699 16.7893 22.2226C16.741 22.0752 16.7571 21.9142 16.8337 21.7792L20.6339 15.1225C20.7279 14.9542 20.9056 14.85 21.0984 14.85ZM18.2672 14.3076C18.4599 14.3076 18.6376 14.4117 18.7317 14.5799C18.8269 14.7483 18.8269 14.9542 18.7317 15.1225L15.4529 20.8777C15.3745 21.017 15.2378 21.1138 15.0804 21.1416C14.923 21.1694 14.7615 21.1253 14.6401 21.0213C12.8975 19.5224 11.7488 17.4495 11.4015 15.1774C11.393 15.1141 11.3825 15.0191 11.3698 14.9135C11.3518 14.7606 11.3993 14.6072 11.5007 14.4913C11.6015 14.3749 11.7478 14.3079 11.9018 14.3076H18.2672ZM29.6974 14.3055C29.852 14.3057 29.999 14.3727 30.1006 14.4892C30.2006 14.6058 30.248 14.7586 30.2316 14.9114C30.0041 16.7214 29.2685 18.43 28.1098 19.839C27.8774 20.1229 27.6285 20.3929 27.3645 20.6476C27.249 20.7641 27.086 20.8203 26.9232 20.7996C26.7596 20.7759 26.6161 20.6776 26.5348 20.5336L23.4503 15.1204C23.3533 14.9525 23.3533 14.7457 23.4503 14.5778C23.5443 14.4096 23.722 14.3055 23.9147 14.3055H29.6974Z"></path>
</g>
<defs>
<clipPath id="clip0_4048_8658">
<rect transform="translate(0.0686035 0.936035)" fill="white" height="48" width="129.273"></rect>
</clipPath>
</defs>
</svg>
