<svg width="153" height="24" viewBox="0 0 153 24" fill="none" xmlns="http://www.w3.org/2000/svg">
<path d="M149.443 0.239014V15.4116L142.168 0.239014H138.69V23.7611H142.168V8.19034L149.416 23.7213L149.443 23.7611H152.921V0.239014H149.443Z" fill="white"/>
<path d="M23.0842 1.69894C22.2744 2.45558 21.3054 3.87593 21.3054 6.30514V23.7874H24.7833V13.6724H27.1329C31.4603 13.6724 32.3762 15.6237 32.7346 17.7211C32.947 18.9556 32.9072 22.5529 32.8806 23.7609H36.3452C36.3585 23.283 36.4514 18.9158 36.1461 17.137C35.7744 14.9733 34.9116 13.4467 33.77 12.3981C34.0753 12.1857 34.3674 11.9467 34.6329 11.6945C36.4382 9.87593 36.4913 7.55292 36.4913 7.30071V0.132568H27.5045C27.0134 0.132568 24.7833 0.132568 23.0842 1.69894ZM33.0134 7.30071C33.0001 7.9777 32.6815 10.2078 29.2302 10.2078H24.77V6.30514C24.77 5.36266 24.9957 4.67239 25.4337 4.24761C26.0311 3.67682 27.0134 3.59717 27.332 3.61044H33.0134V7.30071Z" fill="white"/>
<path d="M81.8363 20.2568C80.7478 20.1108 79.1681 19.7656 78.3584 18.9957C77.7743 18.4382 77.2301 17.2833 77.2301 16.3143V5.04439H73.7522V16.3143C73.7522 17.2833 73.1549 18.4515 72.5708 18.9957C71.7478 19.7656 70.2345 20.1108 69.146 20.2568V0.265625H65.6814V23.8807L67.3009 23.9869C67.3938 23.9869 67.6062 24.0001 67.9115 24.0001C69.292 24.0001 73.0752 23.7612 75.2522 21.7302C75.3318 21.6506 75.4115 21.5577 75.4911 21.478C75.5708 21.5577 75.6504 21.6506 75.7301 21.7302C77.9071 23.7745 81.6902 24.0001 83.0708 24.0001C84.4513 24.0001 83.5885 23.9869 83.6814 23.9869L85.3009 23.8807V0.265625H81.823V20.2568H81.8363Z" fill="white"/>
<path d="M123.518 0C118.726 0 115.367 3.17257 115.367 7.72567V16.2611C115.367 20.8142 118.712 23.9867 123.518 23.9867C128.323 23.9867 131.668 20.8009 131.668 16.2611V7.72567C131.668 3.17257 128.31 0 123.518 0ZM128.19 16.2611C128.19 18.9292 126.438 20.5221 123.518 20.5221C120.597 20.5221 118.845 18.9292 118.845 16.2611V7.72567C118.845 5.05752 120.597 3.4646 123.518 3.4646C126.438 3.4646 128.19 5.05752 128.19 7.72567V16.2611Z" fill="white"/>
<path d="M104.655 10.2479H96.6769V0.265625H93.199V23.7878H96.6769V13.7258H104.655V23.7878H108.119V0.265625H104.655V10.2479Z" fill="white"/>
<path d="M0 23.8008H14.031V20.3495H3.4646V13.5397H10.115V10.0619H3.4646V3.70346H14.031V0.225586H0V23.8008Z" fill="white"/>
<path d="M44.2964 23.8008H58.3274V20.3495H47.761V13.5397H54.4114V10.0619H47.761V3.70346H58.3274V0.225586H44.2964V23.8008Z" fill="white"/>
</svg>
