<svg xmlns="http://www.w3.org/2000/svg" fill="none" viewBox="0 0 64 64" height="64" width="64">
<circle fill="#FFE700" r="32" cy="32" cx="32"></circle>
<g clip-path="url(#clip0_2072_8401)">
<path fill="#00452B" d="M18.0761 44.205C18.0761 44.205 14.1719 45.2267 14.0608 46.5612C14.0506 46.6928 14.1441 46.7995 14.2406 46.8755C14.4672 47.0553 14.7639 47.1517 15.0358 47.2365C15.4743 47.3725 15.9274 47.4675 16.3791 47.5493C16.9754 47.6589 17.5762 47.7437 18.1784 47.8168C18.8975 47.906 19.6196 47.9791 20.3417 48.0434C21.1514 48.115 21.9627 48.1764 22.7754 48.2305C23.6451 48.2875 24.5162 48.3372 25.3859 48.3796C26.2849 48.4249 27.1838 48.4629 28.0827 48.495C28.5329 48.5111 28.9831 48.5272 29.4333 48.5418C29.7023 48.5506 29.9712 48.555 30.2402 48.5725C30.4331 48.5857 31.0485 48.5608 31.0573 48.8488C31.0587 48.9116 31.0222 48.9701 30.9739 49.011C30.9257 49.0519 30.8672 49.0753 30.8088 49.1002C30.6378 49.1718 30.4653 49.2434 30.2943 49.3136C30.1408 49.3779 29.9844 49.4437 29.8674 49.5621C29.7344 49.6995 29.6818 49.9172 29.7973 50.0853C29.9201 50.2622 30.1422 50.3031 30.3396 50.3397C30.6144 50.3908 30.8935 50.4157 31.1713 50.4391C32.193 50.5253 33.2147 50.5984 34.2393 50.6569C35.2537 50.7153 36.2667 50.7548 37.2811 50.7796C37.6597 50.7884 38.0397 50.7957 38.4183 50.803C39.4166 50.8191 40.4149 50.8264 41.4133 50.8264C47.7438 50.8264 52.1976 50.7153 51.838 49.0446C51.4784 47.3739 44.5266 47.3008 44.5266 47.3008L34.2715 43.6598L18.0761 44.2065L18.0761 44.205Z"></path>
<path fill="#FFDB00" d="M36.9188 17.8699C36.9188 17.8699 39.1888 19.5523 39.4548 20.8269C39.7135 22.0635 39.1084 22.6452 39.2575 23.721C39.4066 24.7968 43.0549 29.9068 39.715 37.9783C36.3751 46.0497 29.3108 47.0027 24.5486 46.57C21.0157 46.2484 20.5524 46.0994 19.0439 46.2543C17.7503 46.3873 16.5766 46.2543 16.502 44.3059C16.4275 42.3575 14.9863 40.3623 14.4981 39.0731C14.0625 37.9227 11.9007 32.1403 16.9844 24.7486C20.3273 19.8885 24.8526 17.6974 29.5095 17.9386C29.5095 17.9386 31.3279 18.1052 32.237 17.066C32.8699 16.3439 34.5684 16.4842 36.9188 17.8699Z"></path>
<mask height="31" width="29" y="16" x="13" maskUnits="userSpaceOnUse" style="mask-type:luminance" id="mask0_2072_8401">
<path fill="white" d="M36.9188 17.8699C36.9188 17.8699 39.1888 19.5523 39.4548 20.8269C39.7135 22.0635 39.1084 22.6452 39.2575 23.721C39.4066 24.7968 43.0549 29.9068 39.715 37.9783C36.3751 46.0497 29.3108 47.0027 24.5486 46.57C21.0157 46.2484 20.5524 46.0994 19.0439 46.2543C17.7503 46.3873 16.5766 46.2543 16.502 44.3059C16.4275 42.3575 14.9863 40.3623 14.4981 39.0731C14.0625 37.9227 11.9007 32.1403 16.9844 24.7486C20.3273 19.8885 24.8526 17.6974 29.5095 17.9386C29.5095 17.9386 31.3279 18.1052 32.237 17.066C32.8699 16.3439 34.5684 16.4842 36.9188 17.8699Z"></path>
</mask>
<g mask="url(#mask0_2072_8401)">
<path fill="#00452B" d="M17.2986 24.0046C17.2986 24.0046 25.3524 28.5139 33.6782 18.7338L18.9503 20.7567L17.2986 24.0046Z"></path>
<path fill="#00452B" d="M33.5173 27.308C33.5173 27.308 27.0318 31.1668 28.7858 39.9661C30.6071 49.1046 40.2249 48.7026 40.2249 48.7026L33.5173 27.308Z"></path>
</g>
<path fill="#FFDB00" d="M52.4711 41.8429C52.4711 41.8429 52.5646 42.4949 51.8323 43.8776C51.1 45.2604 49.6018 46.2221 48.4281 46.9676C47.361 47.6444 39.1786 50.5209 32.9606 44.2123C26.4312 37.5865 31.1612 29.3675 33.5189 27.308C33.5189 27.308 34.0787 26.4938 35.3402 27.5272L52.4725 41.8429L52.4711 41.8429Z"></path>
<path fill="#62BB46" d="M35.5301 15.5897C35.5301 15.5897 34.0451 20.5536 28.0244 22.3529C22.0037 24.1522 17.6611 21.4072 16.5107 20.0435C16.5107 20.0435 18.1873 20.3183 20.0275 18.1418C22.0593 15.7388 24.8511 12.7234 29.6381 13.2335C33.915 13.7802 35.5301 15.5897 35.5301 15.5897Z"></path>
<path fill="white" d="M15.923 29.7402C15.7082 29.8718 15.5415 30.0706 15.3983 30.2781C14.7478 31.2209 14.514 32.4063 14.5681 33.5523C14.6207 34.6968 14.9423 35.8121 15.3194 36.8952C15.6965 37.9768 16.1335 39.0409 16.4332 40.1459C16.4726 40.2892 16.5253 40.4529 16.6656 40.5055C16.7737 40.545 16.8994 40.4982 16.9769 40.4134C17.0544 40.3287 17.0938 40.2161 17.1187 40.1036C17.2897 39.3099 16.8366 38.5352 16.5603 37.7722C16.154 36.6496 16.1204 35.4233 16.2548 34.2364C16.3893 33.051 16.6875 31.8904 16.9331 30.7225C16.974 30.5281 17.0135 30.3278 16.9871 30.1305C16.9126 29.5707 16.3499 29.4786 15.923 29.7402Z"></path>
<path fill="white" d="M16.8118 41.2934C16.7285 41.4688 16.7343 41.6793 16.8118 41.8576C16.8571 41.9628 16.9302 42.0608 17.031 42.1163C17.2079 42.2128 17.4461 42.1514 17.5762 41.9979C17.7063 41.8444 17.7356 41.6208 17.6756 41.4279C17.6274 41.2685 17.4754 41.0011 17.2941 40.9674C17.1027 40.9309 16.8863 41.1384 16.8118 41.2934Z"></path>
<path fill="white" d="M24.7854 14.6104C24.6655 14.6922 24.5486 14.7902 24.4858 14.9217C24.4229 15.0533 24.4258 15.2243 24.5252 15.331C24.6217 15.4348 24.7825 15.4523 24.9199 15.4172C25.0573 15.3821 25.1771 15.3032 25.3014 15.236C25.7077 15.0138 26.1638 14.9056 26.6067 14.7756C26.7353 14.7375 26.8727 14.6908 26.9531 14.5841C27.0189 14.4949 27.0349 14.3707 26.9911 14.2683C26.8347 13.8942 26.2763 14.0886 25.9898 14.1456C25.5659 14.2303 25.1464 14.3663 24.7869 14.6118L24.7854 14.6104Z"></path>
<path fill="white" d="M29.3605 14.0666C29.3255 14.1441 29.3094 14.2318 29.3328 14.3136C29.3737 14.4525 29.5316 14.5402 29.6733 14.5139C29.8151 14.4876 29.9291 14.3619 29.9525 14.2186C30.0285 13.7801 29.5272 13.7041 29.3591 14.0666L29.3605 14.0666Z"></path>
<path fill="white" d="M31.746 14.2318C31.7007 14.2186 31.6569 14.2055 31.6116 14.1938C31.4318 14.1441 31.2505 14.1017 31.0663 14.0754C30.8997 14.0505 30.7112 14.0169 30.5475 14.0754C30.4276 14.1192 30.3428 14.2274 30.3735 14.359C30.3998 14.4715 30.4934 14.5578 30.5986 14.6031C30.7039 14.6484 30.8208 14.6601 30.9348 14.6703C31.2388 14.6951 31.5472 14.7098 31.8352 14.8092C31.9872 14.8618 32.1334 14.9378 32.2927 14.9509C32.3936 14.9597 32.512 14.9319 32.5558 14.8399C32.5836 14.7799 32.5719 14.7068 32.5383 14.6498C32.5046 14.5928 32.452 14.549 32.3979 14.511C32.2021 14.375 31.9726 14.2961 31.7431 14.2289L31.746 14.2318Z"></path>
<path fill="#00452B" d="M40.0175 14.6966L38.8335 13.8649C38.8335 13.8649 38.7751 14.0067 38.6552 14.242C38.3453 14.7931 37.6656 15.0299 37.0766 15.1176C36.8383 15.1527 36.6001 15.1527 36.3618 15.1717C36.1046 15.1921 35.8488 15.217 35.593 15.2433C32.4664 15.635 29.4466 16.6874 26.668 18.1477C26.0555 18.4707 25.3831 18.8551 24.7678 19.1591C24.1276 19.469 23.4654 19.7453 22.7916 19.9704C22.7799 19.9748 22.7667 19.9777 22.755 19.9821C22.6805 20.0069 22.6045 20.0303 22.5299 20.0537C22.4554 20.0771 22.3779 20.099 22.3019 20.1209C22.2259 20.1428 22.147 20.1648 22.0695 20.1852C21.992 20.2057 21.9131 20.2262 21.8342 20.2466C21.7553 20.2671 21.6763 20.2846 21.5974 20.3036C21.5185 20.3226 21.4381 20.3387 21.3577 20.3563C21.2773 20.3738 21.1969 20.3884 21.1165 20.4045C21.0361 20.4206 20.9542 20.4337 20.8739 20.4469C20.7935 20.46 20.7116 20.4732 20.6298 20.4849C20.5479 20.4966 20.466 20.5068 20.3842 20.517C20.3023 20.5273 20.2205 20.536 20.1372 20.5434C20.0553 20.5507 19.972 20.558 19.8901 20.5638C19.8083 20.5697 19.725 20.574 19.6431 20.5784C19.5613 20.5828 19.478 20.5843 19.3961 20.5857C19.3142 20.5872 19.2324 20.5857 19.1491 20.5857C19.0658 20.5857 18.9854 20.5828 18.9035 20.5784C18.8217 20.574 18.7398 20.5697 18.6594 20.5638C18.5776 20.558 18.4972 20.5507 18.4168 20.5419C18.3364 20.5331 18.256 20.5229 18.1756 20.5112C18.0952 20.4995 18.0163 20.4863 17.9359 20.4717C17.8555 20.4571 17.778 20.441 17.6991 20.4235C17.6202 20.406 17.5427 20.387 17.4638 20.3665C17.3848 20.346 17.3088 20.3241 17.2313 20.3007C17.1539 20.2773 17.0779 20.2525 17.0033 20.2247C16.9288 20.1969 16.8528 20.1692 16.7782 20.1399C16.7417 20.1253 16.7037 20.1092 16.6671 20.0932C16.6423 20.0829 16.6189 20.0683 16.5926 20.061C16.5648 20.0537 16.537 20.0464 16.5093 20.0391C16.5297 20.061 16.5546 20.0815 16.5809 20.0961C16.6598 20.1428 16.7446 20.1823 16.8279 20.2189C17.3804 20.4659 17.9753 20.6077 18.5732 20.6866C20.7511 20.9599 22.9451 20.3621 24.9169 19.4646C25.7588 19.0787 26.6504 18.5613 27.4894 18.1696C27.6107 18.114 28.1881 17.8422 28.2992 17.7925C28.4044 17.7486 28.6836 17.6317 28.7932 17.5864C29.5372 17.2663 30.3675 16.9695 31.1378 16.7225C33.054 16.1174 35.0609 15.673 37.0722 15.6102C37.1804 15.6029 37.2885 15.597 37.3967 15.5897C37.5809 15.578 37.692 15.7885 37.578 15.9347C37.5531 15.9668 37.5283 15.9975 37.5034 16.0297C36.6001 17.1552 36.3969 17.2239 35.8824 17.3964C35.5038 17.5235 35.3942 17.6375 35.3313 17.7311C35.3153 17.7486 35.3021 17.7676 35.2904 17.7881C35.2846 17.7998 35.2787 17.81 35.2729 17.8217C35.115 18.1798 35.5448 18.7849 36.2624 19.1986C37.002 19.6254 37.768 19.6868 37.9711 19.3345C37.996 19.2922 38.0106 19.2468 38.0165 19.1971C38.0384 19.0393 38.0296 18.8741 37.9989 18.7177C37.9463 18.4517 37.9054 18.174 37.9463 17.9036C37.9872 17.6331 38.1071 17.4007 38.2225 17.1683C38.5339 16.5413 38.9534 15.9668 39.3934 15.4231C39.5951 15.1731 39.8056 14.9305 40.0204 14.6908L40.0175 14.6966Z"></path>
<path fill="white" d="M35.0756 27.3972L52.2401 41.3665C52.2401 41.3665 52.5397 41.5916 52.4564 41.9014C52.3716 42.2157 52.0486 42.4729 51.7767 42.6717C51.5049 42.8691 42.9262 50.2886 34.5201 43.4976C34.5201 43.4976 32.1434 41.5872 31.4711 37.9037C30.7855 34.1457 32.196 29.255 34.7218 27.3884C34.8271 27.3095 34.9732 27.3153 35.0756 27.3986L35.0756 27.3972Z"></path>
<path fill="white" d="M30.2857 34.3474C30.1117 35.2961 30.0109 36.2681 30.1234 37.2255C30.1527 37.4681 30.1951 37.7108 30.2988 37.9329C30.369 38.0864 30.5122 38.2443 30.6759 38.2048C30.8323 38.1668 30.8893 37.9768 30.9084 37.816C30.9961 37.0852 30.8937 36.3324 30.8572 35.6016C30.8206 34.8649 30.8733 34.1238 31.018 33.4003C31.0589 33.1898 31.1086 32.9822 31.1656 32.7761C31.2168 32.5905 31.2738 32.4034 31.2708 32.2105C31.2708 32.1564 31.2621 32.0979 31.2241 32.0599C31.0501 31.8874 30.7519 32.687 30.7066 32.7966C30.5035 33.2936 30.3821 33.8212 30.2857 34.3474Z"></path>
<path fill="white" d="M30.6599 39.1739C30.6175 39.3099 30.6409 39.459 30.6775 39.5964C30.7125 39.7279 30.7637 39.8639 30.8689 39.9516C30.9742 40.0393 31.1452 40.0583 31.2417 39.9618C31.2724 39.9311 31.2928 39.8916 31.3089 39.8507C31.3761 39.6899 31.382 39.5043 31.3294 39.3391C31.23 39.0336 30.809 38.6916 30.6599 39.1739Z"></path>
<path fill="#FFDB00" d="M44.4552 36.1687C44.4552 36.1687 48.9981 39.6811 50.3093 41.2173C51.6204 42.7536 46.9693 44.398 46.9693 44.398C46.9693 44.398 45.0808 45.234 44.8718 43.9624C44.6248 42.4481 43.9656 38.5439 43.9539 36.559C43.9539 36.559 43.8896 35.7053 44.4552 36.1687Z"></path>
<path fill="#FFDB00" d="M43.2858 36.214L43.6848 43.8776C43.6848 43.8776 43.8339 45.0089 43.0914 45.2969C42.3489 45.5848 39.6287 45.3714 37.6247 44.2386C37.6247 44.2386 36.5767 43.7285 37.4201 42.5591C38.2649 41.3898 42.1442 36.1204 42.1442 36.1204C42.1442 36.1204 42.6631 35.4086 42.9788 35.4524C43.2449 35.489 43.2843 36.2125 43.2843 36.2125L43.2858 36.214Z"></path>
<path fill="#FFDB00" d="M35.8956 29.1351L41.3418 33.5041C41.5493 33.6707 41.4485 34.0069 41.1839 34.0303L33.7147 34.7231C33.7147 34.7231 32.1127 34.7976 32.3481 33.1825C32.5834 31.5688 33.4779 30.0253 34.0319 29.2681C34.83 28.1777 35.8956 29.1336 35.8956 29.1336L35.8956 29.1351Z"></path>
<path fill="#FFDB00" d="M33.8419 35.6118L41.659 34.5331C41.9894 34.4877 42.2057 34.8692 41.9967 35.1294C40.4751 37.0106 36.5124 41.9058 36.5051 41.8838C36.4964 41.8561 35.3826 43.3967 34.0188 41.6061C32.6551 39.8156 32.4197 37.9256 32.4139 37.0048C32.4051 35.8544 33.3464 35.6819 33.8419 35.6132L33.8419 35.6118Z"></path>
<path fill="#00452B" d="M38.306 27.2451C38.2519 27.2919 38.2241 27.3679 38.2358 27.438C38.2416 27.4731 38.2592 27.5082 38.2913 27.5243C38.341 27.5477 38.3995 27.5126 38.4346 27.4687C38.477 27.4146 38.5281 27.3065 38.4901 27.2392C38.4521 27.172 38.3571 27.2027 38.3074 27.2466L38.306 27.2451Z"></path>
<path fill="#00452B" d="M38.7723 27.9847C38.7563 28.03 38.7577 28.0856 38.7884 28.1236C38.8235 28.166 38.8922 28.1747 38.9419 28.1484C39.0281 28.1046 39.0837 27.9467 39.0004 27.8736C38.917 27.8005 38.8016 27.8999 38.7723 27.9847Z"></path>
<path fill="#00452B" d="M38.974 27.1764C39.0807 27.305 39.2283 27.1077 39.1436 26.9879C39.0369 26.8373 38.8922 27.0785 38.974 27.1764Z"></path>
<path fill="#00452B" d="M17.7459 36.0664C17.6962 36.1132 17.6772 36.1833 17.6728 36.252C17.6699 36.2988 17.6728 36.3485 17.6962 36.3894C17.7196 36.4304 17.7634 36.4625 17.8102 36.4596C17.8658 36.4552 17.9081 36.4055 17.9315 36.3543C17.9651 36.2798 17.9915 36.1482 17.9476 36.0722C17.9067 36.0006 17.7985 36.0167 17.7459 36.0664Z"></path>
<path fill="#00452B" d="M18.0778 36.5546C18.0749 36.5911 18.0778 36.6306 18.1027 36.6584C18.1334 36.692 18.1904 36.6905 18.2255 36.6628C18.2912 36.6116 18.2942 36.483 18.2284 36.4304C18.1407 36.3587 18.0822 36.4815 18.0778 36.5546Z"></path>
<path fill="#00452B" d="M17.7269 37.0136C17.6875 37.0516 17.6714 37.1071 17.6699 37.1612C17.6699 37.189 17.6728 37.2168 17.6845 37.2416C17.6962 37.2665 17.7182 37.2884 17.7445 37.2942C17.7795 37.303 17.8176 37.2855 17.8453 37.2606C17.9053 37.2065 17.9359 37.1071 17.9067 37.0311C17.8775 36.9551 17.781 36.9639 17.7284 37.0136L17.7269 37.0136Z"></path>
<path fill="white" d="M45.0748 46.608C45.2122 46.7542 45.43 46.5393 45.3087 46.3931C45.1873 46.247 44.933 46.4574 45.0748 46.608Z"></path>
<path fill="white" d="M45.3992 47.2058C45.5717 47.292 45.7193 47.0231 45.5512 46.9281C45.3715 46.8258 45.2107 47.1122 45.3992 47.2058Z"></path>
<path fill="white" d="M46.2499 46.7556C46.2748 46.7746 46.3055 46.7848 46.3377 46.7878C46.5262 46.8009 46.5847 46.5583 46.4049 46.494C46.2383 46.4326 46.095 46.6431 46.2499 46.7571L46.2499 46.7556Z"></path>
<path fill="white" d="M46.9311 46.4092C46.9091 46.4721 46.934 46.5466 46.9866 46.5846C47.0407 46.6226 47.1196 46.6212 47.1722 46.5817C47.3857 46.4238 47.0232 46.149 46.9311 46.4092Z"></path>
<path fill="white" d="M47.6357 46.6533C47.6065 46.7176 47.6343 46.8009 47.6942 46.8404C47.7687 46.8886 47.8813 46.8579 47.9222 46.779C48.0216 46.5817 47.7205 46.4706 47.6372 46.6533L47.6357 46.6533Z"></path>
<path fill="#62BB46" d="M40.0495 14.6516C40.1657 14.4502 39.9772 14.1237 39.6283 13.9223C39.2795 13.7209 38.9024 13.7208 38.7862 13.9222C38.6699 14.1235 38.8585 14.45 39.2073 14.6514C39.5562 14.8528 39.9332 14.8529 40.0495 14.6516Z"></path>
<path fill="white" d="M45.7808 39.8536C45.7662 39.8989 45.7662 39.9486 45.7691 39.9968C45.7837 40.2848 45.8875 40.5683 46.06 40.7978C46.1243 40.8826 46.2105 40.9674 46.3172 40.9689C46.4444 40.9718 46.5467 40.849 46.5628 40.7218C46.5789 40.5947 46.5277 40.4719 46.4692 40.3593C46.3772 40.1869 46.2617 40.0275 46.1258 39.8887C46.0264 39.7864 45.851 39.6416 45.7823 39.8536L45.7808 39.8536Z"></path>
<path fill="white" d="M34.9249 36.8323C34.8986 36.8147 34.8665 36.8045 34.8358 36.7972C34.6472 36.7519 34.4455 36.7636 34.2642 36.8308C34.197 36.8557 34.1268 36.8951 34.1049 36.9638C34.0786 37.0457 34.1385 37.1348 34.216 37.1685C34.2935 37.2021 34.3841 37.1948 34.4674 37.1772C34.596 37.1509 34.7203 37.1071 34.8372 37.0471C34.922 37.0033 35.0492 36.917 34.9249 36.8323Z"></path>
<path fill="white" d="M41.8213 40.7233C41.7058 40.7993 41.6488 40.9382 41.6093 41.0697C41.5888 41.1369 41.5698 41.2056 41.5567 41.2758C41.5377 41.3664 41.526 41.46 41.5494 41.5491C41.5728 41.6383 41.6371 41.7216 41.7262 41.7421C41.8286 41.7669 41.9367 41.7041 41.9952 41.6164C42.0537 41.5287 42.0727 41.4205 42.0844 41.3153C42.0917 41.2509 42.0975 41.1852 42.1004 41.1209C42.1077 40.9732 42.0697 40.561 41.8213 40.7247L41.8213 40.7233Z"></path>
<path fill="white" d="M37.5823 32.6022C37.5296 32.4736 37.4039 32.3932 37.2812 32.3274C37.2183 32.2938 37.154 32.2631 37.0897 32.2368C37.0049 32.2017 36.9143 32.1725 36.8237 32.1783C36.733 32.1841 36.638 32.2324 36.6 32.3157C36.5562 32.4122 36.5971 32.5306 36.6731 32.6036C36.7491 32.6767 36.8514 32.7162 36.9523 32.7484C37.0151 32.7674 37.078 32.7849 37.1408 32.801C37.2841 32.8361 37.6963 32.877 37.5837 32.6022L37.5823 32.6022Z"></path>
<path fill="white" d="M41.5522 37.7897C41.4937 37.8087 41.4455 37.8511 41.4031 37.8964C41.273 38.0323 41.1736 38.1946 41.1108 38.3715C41.0932 38.4212 41.0786 38.4738 41.0786 38.5264C41.0786 38.579 41.0991 38.6346 41.14 38.6667C41.1941 38.712 41.2774 38.7091 41.3403 38.6769C41.4031 38.6448 41.4513 38.5892 41.4923 38.5322C41.5931 38.3934 41.6691 38.2355 41.7174 38.0704C41.7349 38.009 41.7671 37.8993 41.732 37.8379C41.6984 37.7809 41.6092 37.7707 41.5522 37.7882L41.5522 37.7897Z"></path>
<path fill="white" d="M37.5648 37.4374C37.4449 37.4681 37.3222 37.5164 37.2418 37.6114C37.1614 37.7064 37.138 37.8569 37.2155 37.9534C37.2856 38.0411 37.4113 38.0587 37.5239 38.0572C37.8104 38.0514 38.0939 37.952 38.3234 37.7795C38.3848 37.7342 38.4447 37.6757 38.4579 37.6012C38.4886 37.4287 38.2445 37.4199 38.1319 37.4053C37.9434 37.3804 37.749 37.3907 37.5633 37.4374L37.5648 37.4374Z"></path>
<path fill="white" d="M48.2381 30.2197C45.5325 30.5938 45.3089 30.8979 45.0326 34.5682C44.7564 30.8993 44.5327 30.5953 41.8271 30.2197C44.5327 29.8455 44.7564 29.5414 45.0326 25.8712C45.3089 29.54 45.5325 29.844 48.2381 30.2197Z"></path>
<path fill="white" d="M18.1756 18.0614C15.47 18.4356 15.2464 18.7396 14.9701 22.4099C14.6939 18.7411 14.4702 18.437 11.7646 18.0614C14.4702 17.6872 14.6939 17.3832 14.9701 13.7129C15.2464 17.3817 15.47 17.6857 18.1756 18.0614Z"></path>
<path fill="white" d="M26.0203 38.7003C23.3147 39.0745 23.0911 39.3785 22.8148 43.0488C22.5386 39.38 22.3149 39.076 19.6094 38.7003C22.3149 38.3261 22.5386 38.0221 22.8148 34.3518C23.0911 38.0206 23.3147 38.3247 26.0203 38.7003Z"></path>
</g>
<defs>
<clipPath id="clip0_2072_8401">
<rect transform="translate(11.7646 13.1765)" fill="white" height="37.6471" width="40.7093"></rect>
</clipPath>
</defs>
</svg>
