<svg xmlns="http://www.w3.org/2000/svg" fill="none" viewBox="0 0 24 24" height="24" width="24">
<path stroke-linejoin="round" stroke-linecap="round" stroke-width="2" stroke="#004600" d="M4.5 22.5H19.5"></path>
<path stroke-linejoin="round" stroke-linecap="round" stroke-width="2" stroke="#004600" d="M10.5 8.47498V11.25C10.5 11.25 10.5 18 8.25 22.125M13.5 10.8525V11.25C13.5 11.25 13.5 18 15.75 22.125"></path>
<path stroke-linejoin="round" stroke-linecap="round" stroke-width="2" stroke="#004600" d="M9.75 18.75H12.15"></path>
<path stroke-linejoin="round" stroke-linecap="round" stroke-width="2" stroke="#004600" d="M10.6499 12.75H11.3999"></path>
<path stroke-linejoin="round" stroke-linecap="round" stroke-width="2" stroke="#004600" d="M10.5 15.75H11.625"></path>
<path stroke-linejoin="round" stroke-linecap="round" stroke-width="2" stroke="#004600" d="M13.7998 6.47249C14.9323 6.07499 16.4773 5.93999 18.1348 7.01999C21.3973 9.14249 20.1673 12.8175 20.1673 12.8175L12.9973 8.15249C12.3898 7.75499 11.6098 7.75499 11.0023 8.15249L3.83228 12.8175C3.83228 12.8175 2.60228 9.14249 5.86478 7.01999C7.52228 5.93999 9.06728 6.07499 10.1998 6.47249"></path>
<path stroke-linejoin="round" stroke-linecap="round" stroke-width="2" stroke="#004600" d="M8.18264 6.015L3.57764 4.2075C3.57764 4.2075 5.85764 1.0725 9.48764 2.4975C10.7626 3 11.5426 3.81 12.0001 4.6425C12.4576 3.81 13.2301 3 14.5126 2.4975C18.1426 1.0725 20.4226 4.2075 20.4226 4.2075L15.8176 6.015"></path>
</svg>
