<svg xmlns="http://www.w3.org/2000/svg" fill="none" viewBox="0 0 65 64" height="64" width="65">
<circle fill="#FF7832" r="32" cy="32" cx="32.3335"></circle>
<g clip-path="url(#clip0_2072_9312)">
<path fill="#00452B" d="M22.4697 44.8131C22.4697 44.8131 17.0114 45.6916 16.8944 47.016C16.8842 47.1286 16.9661 47.2192 17.0479 47.2835C17.2409 47.437 17.4938 47.5189 17.7262 47.592C18.1004 47.7089 18.4863 47.7878 18.8722 47.8595C19.3809 47.953 19.894 48.0247 20.4071 48.0875C21.0211 48.1635 21.635 48.2249 22.2519 48.2805C22.9433 48.3419 23.6348 48.393 24.3262 48.4398C25.0673 48.4895 25.8099 48.5304 26.5525 48.567C27.3185 48.605 28.0845 48.6372 28.8519 48.6664C29.2364 48.681 29.6194 48.6942 30.0038 48.7059C30.2333 48.7132 30.4628 48.7176 30.6923 48.7322C30.856 48.7424 31.3808 48.7234 31.3896 48.9675C31.391 49.0216 31.3603 49.0713 31.3194 49.1049C31.2785 49.1385 31.2288 49.1605 31.1791 49.1809C31.0329 49.2423 30.8867 49.3023 30.7405 49.3637C30.6104 49.4178 30.476 49.4748 30.3766 49.5756C30.2625 49.6926 30.2172 49.8797 30.3166 50.0215C30.4204 50.172 30.6104 50.2071 30.7786 50.2378C31.0124 50.2817 31.2507 50.3021 31.4875 50.3226C32.3588 50.3957 33.23 50.4585 34.1027 50.5083C34.9666 50.558 35.8305 50.5916 36.6959 50.6135C37.019 50.6208 37.342 50.6281 37.6651 50.6325C38.5158 50.6471 39.3666 50.653 40.2188 50.653C45.6158 50.653 51.5887 50.7246 51.2832 49.3008C50.9776 47.877 42.8734 47.6475 42.8734 47.6475L34.1305 44.5427L22.4741 44.816L22.4697 44.8131Z"></path>
<path fill="#F0533D" d="M17.9058 37.9076C17.9058 37.9076 13.4283 30.6176 20.2695 23.5104C28.1676 15.3068 45.655 19.9202 45.4329 30.9319C45.215 41.7331 37.1825 45.9752 32.8877 47.0438C28.593 48.1124 21.0706 46.0469 18.4832 41.3486C18.4832 41.3486 17.9935 39.9965 17.9058 37.9076Z"></path>
<mask height="29" width="30" y="19" x="16" maskUnits="userSpaceOnUse" style="mask-type:luminance" id="mask0_2072_9312">
<path fill="white" d="M17.9058 37.9076C17.9058 37.9076 13.4283 30.6176 20.2695 23.5104C28.1676 15.3068 45.655 19.9202 45.4329 30.9319C45.215 41.7331 37.1825 45.9752 32.8877 47.0438C28.593 48.1124 21.0706 46.0469 18.4832 41.3486C18.4832 41.3486 17.9935 39.9965 17.9058 37.9076Z"></path>
</mask>
<g mask="url(#mask0_2072_9312)">
<path fill="#00452B" d="M17.758 38.3242C17.6673 38.3242 17.5957 38.2496 17.5957 38.1604C17.5957 38.14 17.6176 36.1549 18.3368 33.6026C19.0005 31.2447 20.4126 27.9016 23.3698 25.3653C25.3023 23.6697 27.4818 22.5558 29.8485 22.0558C31.9111 21.6202 33.9941 21.6875 35.8711 22.2488C38.3093 22.9782 40.0503 24.4517 40.5298 26.1883C40.5532 26.2746 40.502 26.3652 40.4158 26.3886C40.3295 26.412 40.2389 26.3608 40.2155 26.2746C39.7668 24.6461 38.1076 23.2574 35.7775 22.5602C32.6347 21.6188 27.78 21.9257 23.5832 25.6095C20.6903 28.0901 19.306 31.3675 18.6526 33.6786C17.9436 36.1914 17.9217 38.14 17.9217 38.1604C17.9217 38.2496 17.8486 38.3227 17.758 38.3227V38.3242Z"></path>
<path fill="#00452B" d="M34.6975 30.0314C34.6975 30.0314 30.334 32.4068 30.6556 39.4731C30.9714 46.4181 35.5599 49.8665 38.2306 50.2158C38.3008 50.2246 37.0934 42.7168 37.0934 42.7168L34.696 30.0314H34.6975Z"></path>
<path fill="#00452B" d="M18.8862 24.69C18.8862 24.69 21.9238 25.2045 24.9819 24.2792C24.9819 24.2792 28.8001 21.7883 32.3859 21.9389C32.3859 21.9389 32.0965 20.7081 35.6896 19.9187C35.6896 19.9187 32.994 18.2186 32.9955 18.1543C32.9969 18.09 19.5601 22.2459 19.5601 22.278C19.5601 22.3102 18.8848 24.69 18.8848 24.69H18.8862Z"></path>
</g>
<path fill="#62BB46" d="M14.7339 20.7271C14.7339 20.7271 17.0508 24.7616 26.4648 23.0367C32.35 21.8337 32.9669 19.9041 35.5455 19.2872C35.5455 19.2872 31.5635 14.646 24.5074 16.941C18.8006 18.7975 18.5696 20.3631 14.7324 20.7271H14.7339Z"></path>
<path fill="#FFF200" d="M19.897 34.2414C19.7947 34.3247 19.7377 34.4504 19.6923 34.5732C19.4614 35.1915 19.4219 35.8801 19.5783 36.5218C19.6076 36.6431 19.647 36.7688 19.7304 36.8624C19.8137 36.9559 19.9525 37.0129 20.068 36.9662C20.1762 36.9238 20.2376 36.8039 20.2508 36.6884C20.2639 36.5729 20.2376 36.4575 20.2186 36.342C20.1514 35.9341 20.1733 35.5131 20.2829 35.1141C20.3253 34.9591 20.3823 34.8086 20.4013 34.6492C20.4174 34.5177 20.4174 34.2852 20.2917 34.199C20.182 34.123 19.9891 34.1639 19.8941 34.2414H19.897Z"></path>
<path fill="#FFF200" d="M20.0157 37.6196C19.9543 37.7351 19.9455 37.8739 19.9631 38.004C19.9821 38.1429 20.0332 38.2847 20.1429 38.371C20.2525 38.4572 20.4323 38.4631 20.5215 38.3563C20.5653 38.3052 20.5814 38.235 20.5829 38.1678C20.5843 38.1005 20.5682 38.0333 20.5522 37.9675C20.5215 37.8359 20.4908 37.7029 20.4601 37.5714C20.4513 37.5363 20.4425 37.4997 20.4221 37.469C20.3139 37.3112 20.0712 37.51 20.0142 37.6181L20.0157 37.6196Z"></path>
<path fill="#FFF200" d="M18.6251 36.76C18.6047 36.7981 18.5856 36.8375 18.571 36.877C18.4044 37.3068 18.4205 37.8198 18.609 38.2394C18.6456 38.3227 18.6909 38.4031 18.7552 38.4674C18.8195 38.5317 18.9072 38.5771 18.9979 38.5727C19.128 38.5683 19.2405 38.463 19.2858 38.3402C19.3312 38.2175 19.3224 38.0815 19.299 37.9529C19.2756 37.8242 19.2391 37.6971 19.2288 37.567C19.2201 37.4383 19.2376 37.3097 19.2478 37.1825C19.2625 36.9969 19.2551 36.7235 19.0739 36.6124C18.9818 36.5554 18.859 36.5554 18.7669 36.6095C18.7055 36.6446 18.6617 36.7001 18.6266 36.7615L18.6251 36.76Z"></path>
<path fill="#FFF200" d="M37.3795 24.573C37.4278 24.4751 37.4278 24.3508 37.3868 24.2471C37.3298 24.1023 37.2085 23.9912 37.0813 23.9021C36.9103 23.7822 36.7173 23.6887 36.5127 23.6521C36.308 23.6156 36.0873 23.639 35.9046 23.7398C35.7219 23.8407 35.5786 24.0219 35.5464 24.2281C35.5114 24.4517 35.6034 24.6505 35.7789 24.785C35.9543 24.9195 36.232 24.9326 36.4484 24.9107C36.6691 24.8888 36.884 24.8259 37.0974 24.7631C37.1676 24.7426 37.2407 24.7207 37.2991 24.6739C37.3342 24.6461 37.3605 24.6125 37.3795 24.573Z"></path>
<path fill="#FFF200" d="M37.7539 25.2966C37.7612 25.4209 37.8358 25.5305 37.9279 25.6138C38.02 25.6972 38.1281 25.7586 38.229 25.8317C38.5023 26.0305 38.7143 26.314 38.8254 26.6342C38.8649 26.7467 38.8926 26.8637 38.938 26.9748C38.9833 27.0859 39.0491 27.1911 39.1485 27.2584C39.2479 27.3256 39.3838 27.3461 39.4876 27.2861C39.6177 27.2116 39.6572 27.0406 39.6557 26.89C39.6513 26.6035 39.5417 26.3272 39.3897 26.086C39.2376 25.8448 39.0417 25.6329 38.8473 25.4224C38.6324 25.1899 38.2319 24.7426 37.8855 25.0087C37.7992 25.0744 37.7481 25.1855 37.7554 25.2952L37.7539 25.2966Z"></path>
<path fill="#FFF200" d="M36.9526 26.0831C36.9102 26.1942 36.9278 26.3228 36.9775 26.4296C37.0272 26.5363 37.1105 26.6269 37.1997 26.7073C37.3414 26.8345 37.5052 26.9383 37.6806 27.0143C37.7668 27.0523 37.8604 27.083 37.9539 27.0801C38.049 27.0771 38.1469 27.0347 38.1951 26.9543C38.2507 26.8637 38.2331 26.7468 38.201 26.6459C38.1337 26.4354 37.9993 26.2498 37.8297 26.1109C37.6864 25.9939 37.4292 25.8361 37.2333 25.8653C37.1119 25.8843 36.9965 25.9676 36.9526 26.0831Z"></path>
<path fill="white" d="M19.5954 25.1476C19.322 25.2323 19.1466 25.4925 18.999 25.7381C18.4449 26.6591 17.9538 27.6268 17.6599 28.6617C17.6293 28.7684 17.6015 28.8781 17.6205 28.9877C17.6395 29.0959 17.7199 29.2011 17.8295 29.2143C17.9406 29.226 18.04 29.1427 18.1087 29.0535C18.173 28.9702 18.2242 28.8766 18.2754 28.7845C18.7753 27.8767 19.2752 26.969 19.7752 26.0612C19.8468 25.9296 19.9199 25.7966 19.9608 25.6519C20.0383 25.3712 19.9506 25.0379 19.5954 25.1476Z"></path>
<path fill="white" d="M17.3359 29.9525C17.2877 30.0066 17.2599 30.0753 17.235 30.144C17.181 30.299 17.14 30.4627 17.1473 30.6264C17.1532 30.7492 17.2029 30.8895 17.3213 30.9231C17.3856 30.9407 17.4558 30.9231 17.5099 30.8837C17.5639 30.8442 17.6049 30.7916 17.64 30.7346C17.7277 30.5898 17.7803 30.4247 17.7905 30.2551C17.8066 29.9934 17.5932 29.6645 17.3344 29.9496L17.3359 29.9525Z"></path>
<path fill="white" d="M20.7099 30.9392C20.6222 30.9904 20.5608 31.0766 20.5067 31.1614C20.1968 31.6394 19.9687 32.1803 19.9117 32.746C19.9015 32.8542 19.8971 32.9653 19.9307 33.0676C19.9497 33.1246 19.9848 33.1816 20.0404 33.2065C20.1091 33.2371 20.1938 33.2094 20.2509 33.1582C20.3079 33.107 20.3415 33.0369 20.3736 32.9682C20.5988 32.5004 20.8224 32.0326 21.0475 31.5634C21.0972 31.4611 21.1469 31.3544 21.1542 31.2403C21.1674 31.0108 20.9277 30.812 20.7099 30.9377V30.9392Z"></path>
<path fill="white" d="M21.0808 30.201C21.0384 30.0797 21.0428 29.9408 21.1027 29.8268C21.1626 29.7128 21.2825 29.6309 21.4111 29.6236C21.5398 29.6163 21.6713 29.6923 21.721 29.8107C21.7474 29.8736 21.7503 29.9452 21.7415 30.0139C21.7254 30.1264 21.6743 30.2346 21.5909 30.3121C21.4141 30.4787 21.1656 30.4437 21.0808 30.201Z"></path>
<path fill="white" d="M23.765 17.9248C23.4843 18.0008 23.2037 18.0797 22.9259 18.166C22.6482 18.2522 22.3471 18.3546 22.062 18.4642C21.8354 18.5519 21.4612 18.6265 21.4027 18.9042C21.3852 18.9875 21.4115 19.0825 21.4802 19.1308C21.5621 19.1878 21.6732 19.1659 21.7711 19.1425C22.7724 18.91 23.8103 18.8954 24.8277 18.7507C25.0675 18.7171 25.3087 18.6747 25.5308 18.5797C25.753 18.4847 25.9592 18.3341 26.0776 18.1221C26.1536 17.9862 26.1916 17.821 26.139 17.6748C26.0381 17.3927 25.6566 17.4614 25.4212 17.5111C25.1771 17.5623 24.9344 17.6237 24.6918 17.6851C24.3819 17.764 24.0734 17.8415 23.765 17.9248Z"></path>
<path fill="white" d="M27.539 17.3986C27.4981 17.5667 27.5902 17.7582 27.7466 17.8327C27.7963 17.8561 27.8518 17.8693 27.9074 17.8737C28.0199 17.8824 28.1413 17.8561 28.2202 17.7757C28.2977 17.6968 28.324 17.5784 28.3138 17.4688C28.3035 17.3679 28.2626 17.2685 28.191 17.1954C27.9892 16.9893 27.6048 17.1282 27.539 17.4001V17.3986Z"></path>
<path fill="white" d="M28.8715 17.1515C28.7589 17.2436 28.6902 17.3766 28.699 17.536C28.7092 17.6939 28.8042 17.8444 28.9431 17.9219C29.1799 18.0505 29.4942 17.9774 29.7456 17.9424C30.0555 17.8985 30.364 17.8386 30.6768 17.8415C30.8069 17.8415 30.937 17.8547 31.0671 17.8678C31.3507 17.8941 31.6328 17.9219 31.9164 17.9482C31.969 17.9526 32.0231 17.9584 32.0743 17.9453C32.1254 17.9321 32.1751 17.9 32.1927 17.8503C32.2073 17.8079 32.1971 17.7596 32.1766 17.7202C32.1313 17.6266 32.0436 17.5623 31.9559 17.5082C31.624 17.3094 31.203 17.2334 30.8274 17.1588C30.4225 17.0799 30.0102 17.036 29.5965 17.0287C29.3919 17.0244 29.1755 16.9893 28.984 17.0814C28.9417 17.1018 28.9036 17.1252 28.87 17.1545L28.8715 17.1515Z"></path>
<path fill="#00452B" d="M39.4163 19.6556L37.6081 18.378C37.6081 18.378 37.5408 18.4672 37.535 18.4759C37.3742 18.6791 37.1695 18.8531 36.9327 18.9627C36.6813 19.0767 36.3845 19.0811 36.12 19.0168C35.5045 18.8677 34.8979 18.7288 34.2649 18.6718C34.1509 18.6616 34.0384 18.6543 33.9243 18.6426C33.3045 18.5987 32.6774 18.5929 32.0576 18.625C30.8648 18.6864 29.6705 18.8648 28.5084 19.1337C27.2352 19.4159 25.9868 19.8442 24.7574 20.2652C23.4184 20.6993 22.037 21.0472 20.6425 21.2446C20.6381 21.2446 20.6337 21.2446 20.6293 21.246C20.5679 21.2548 20.5051 21.2621 20.4437 21.2694C20.3823 21.2767 20.318 21.284 20.2551 21.2913C20.1922 21.2987 20.1279 21.306 20.0636 21.3118C19.9993 21.3191 19.9335 21.325 19.8692 21.3308C19.8034 21.3367 19.7376 21.3425 19.6733 21.3484C19.609 21.3542 19.5403 21.3586 19.4745 21.363C19.4087 21.3674 19.3415 21.3717 19.2742 21.3761C19.207 21.3805 19.1397 21.3834 19.0725 21.3864C19.0053 21.3893 18.9366 21.3922 18.8693 21.3937C18.8021 21.3951 18.7334 21.3981 18.6647 21.3995C18.596 21.3995 18.5273 21.401 18.46 21.4024C18.3928 21.4039 18.3226 21.4024 18.2539 21.4024C18.1852 21.4024 18.1165 21.401 18.0478 21.3995C17.9791 21.3981 17.9104 21.3951 17.8417 21.3922C17.773 21.3893 17.7043 21.3864 17.6356 21.382C17.5669 21.3776 17.4982 21.3732 17.4309 21.3688C17.3637 21.3644 17.295 21.3571 17.2263 21.3513C17.1576 21.3454 17.0903 21.3381 17.0231 21.3294C16.9558 21.3206 16.8886 21.3133 16.8213 21.3045C16.7541 21.2957 16.6869 21.2855 16.6211 21.2753C16.5553 21.265 16.4881 21.2533 16.4223 21.2416C16.3565 21.23 16.2907 21.2168 16.2249 21.2036C16.1591 21.1905 16.0948 21.1759 16.0305 21.1598C15.9662 21.1437 15.9019 21.1291 15.839 21.1115C15.7762 21.094 15.7133 21.0765 15.6504 21.0589C15.5876 21.0414 15.5262 21.0209 15.4648 21.0005C15.4034 20.98 15.342 20.9595 15.2821 20.9361C15.2221 20.9127 15.1622 20.8908 15.1023 20.8674C15.0423 20.844 14.9853 20.8192 14.9269 20.7929C14.9122 20.787 14.8976 20.7797 14.883 20.7739C14.8698 20.768 14.8552 20.7593 14.8406 20.7549C14.807 20.7446 14.7748 20.7256 14.7383 20.7256C14.75 20.7432 14.7646 20.7578 14.7792 20.7709C14.7938 20.7841 14.8128 20.7929 14.8318 20.8031C14.902 20.8397 14.9736 20.8747 15.0467 20.9054C15.8112 21.2373 16.6386 21.3981 17.4645 21.4858C20.315 21.7606 23.1758 21.1247 25.8728 20.2564C26.994 19.9056 28.1342 19.6191 29.2905 19.4246C29.8664 19.3296 30.4453 19.2551 31.0271 19.2068C31.6249 19.1586 32.2257 19.1367 32.8251 19.1513C33.4229 19.1659 34.0194 19.2156 34.6099 19.3121C34.8014 19.3428 34.9929 19.3793 35.1829 19.4217C35.6376 19.5211 36.3246 19.6366 36.367 20.2242C36.367 20.2418 36.3685 20.2593 36.3685 20.2769C36.3641 20.5502 36.1974 20.7987 36.0264 20.9975C35.8203 21.2358 35.5747 21.4405 35.3218 21.6261C35.123 21.7708 34.9169 21.9053 34.7049 22.0296C34.6582 22.0559 34.6129 22.0836 34.5646 22.1085C35.9519 22.3672 37.8317 23.2633 37.8317 23.2633C37.6607 21.1496 39.4222 19.6556 39.4222 19.6556H39.4163Z"></path>
<path fill="#62BB46" d="M39.4709 19.5714C39.5968 19.3533 39.2698 18.9287 38.7406 18.6231C38.2113 18.3176 37.6802 18.2467 37.5542 18.4648C37.4283 18.683 37.7552 19.1075 38.2845 19.4131C38.8138 19.7187 39.3449 19.7895 39.4709 19.5714Z"></path>
<path fill="#F0533D" d="M35.2433 29.6674C35.2433 29.6674 34.8018 29.8706 34.5007 30.2346C34.1996 30.5986 30.1665 35.8669 33.1485 42.5356C36.2534 49.4791 44.514 49.6648 48.4228 47.8273C51.3026 46.4751 52.5042 44.2517 52.5042 44.2517C52.5042 44.2517 53.2789 43.0809 52.5831 42.4479L52.0086 41.888L43.9132 43.7927L35.2418 29.6689L35.2433 29.6674Z"></path>
<path fill="#FFF200" d="M35.243 29.6674C35.243 29.6674 35.2386 29.6689 35.2357 29.6704C35.205 29.682 35.1772 29.704 35.1509 29.7244C35.0968 29.7668 35.0515 29.8443 35.0062 29.8999C34.9682 29.9452 34.9316 29.9905 34.8951 30.0373C34.7694 30.1981 34.6539 30.3647 34.5443 30.5372C34.3966 30.7696 34.2621 31.0108 34.1408 31.2564C33.9873 31.5648 33.8528 31.8835 33.7344 32.208C33.5912 32.5983 33.4728 32.9974 33.3748 33.4023C33.2593 33.8803 33.1731 34.3642 33.1132 34.8524C33.043 35.4225 33.0064 35.9955 32.9991 36.5686C32.9363 41.5153 35.5982 44.1889 37.5833 45.4548C40.1517 47.092 43.6395 47.9223 47.3408 46.5234C47.8027 46.3494 48.2486 46.1346 48.6725 45.8831C49.1914 45.5747 49.6753 45.2092 50.1138 44.7941C50.4822 44.4462 50.8184 44.0647 51.1181 43.6554C51.3505 43.3396 51.5596 43.0063 51.7452 42.6613C51.8124 42.5356 51.8753 42.4084 51.9352 42.2783C51.9586 42.2286 51.9805 42.1775 52.0025 42.1263C52.0449 42.0284 52.0741 41.9524 51.9835 41.8632C51.9382 41.8179 51.8797 41.7886 51.8212 41.7594C51.5493 41.6235 51.2365 41.5445 50.9514 41.4378C50.6605 41.3282 50.3711 41.2127 50.0861 41.0855C49.4019 40.7815 48.7398 40.4116 48.174 39.9175C47.8788 39.6588 47.5966 39.3621 47.2253 39.2305C46.9242 39.1238 46.5953 39.1369 46.2766 39.1092C45.958 39.0814 45.6188 38.9966 45.4156 38.7496C45.2344 38.5288 45.1964 38.2262 45.0633 37.9734C44.9201 37.7015 44.6613 37.4924 44.3646 37.4106C44.1029 37.3389 43.8003 37.3536 43.5957 37.1752C43.3969 37.0027 43.3633 36.7089 43.2142 36.4926C43.0841 36.3025 42.8604 36.1797 42.6294 36.171C42.3502 36.1607 42.0345 36.2967 41.8123 36.1271C41.5346 35.9151 41.6807 35.4269 41.4425 35.1711C41.2276 34.9387 40.8022 35.0118 40.5961 34.7706C40.5157 34.677 40.4835 34.5528 40.4441 34.4358C40.33 34.1098 40.1269 33.816 39.8608 33.5967C38.3873 32.3791 37.0512 30.983 35.5661 29.78C35.5134 29.7376 35.455 29.6996 35.3906 29.6762C35.3439 29.6601 35.2912 29.6543 35.243 29.6704V29.6674Z"></path>
<path fill="white" d="M35.1011 31.3792C34.8935 31.5049 34.7605 31.7227 34.6465 31.9376C34.3146 32.5603 34.0734 33.2328 33.9316 33.9242C33.8717 34.2151 33.8308 34.5177 33.8907 34.81C33.9156 34.9299 33.9609 35.0498 34.05 35.1316C34.1392 35.2135 34.2825 35.2471 34.3863 35.1828C34.4725 35.1302 34.512 35.0279 34.5383 34.9299C34.683 34.411 34.626 33.8511 34.7736 33.3322C34.8686 32.9945 35.047 32.6875 35.2385 32.3937C35.3408 32.2344 35.4504 32.075 35.5045 31.8938C35.5484 31.7461 35.5542 31.5751 35.4855 31.4348C35.4095 31.2783 35.2356 31.2988 35.1025 31.3792H35.1011Z"></path>
<path fill="white" d="M33.9202 36.1403C33.8734 36.2397 33.8705 36.3552 33.891 36.4634C33.9071 36.5525 33.9421 36.6417 34.0065 36.706C34.0708 36.7703 34.1716 36.8025 34.2564 36.7718C34.2886 36.7601 34.3178 36.7382 34.3441 36.7148C34.4552 36.6139 34.5152 36.4604 34.5006 36.3113C34.4874 36.1827 34.3982 35.9897 34.2652 35.9444C34.1322 35.8991 33.9743 36.0248 33.9202 36.1403Z"></path>
<path fill="#F0533D" d="M39.9974 34.525C40.0734 34.7063 40.1011 34.9138 40.2254 35.0659C40.4549 35.3465 40.9373 35.3465 41.1142 35.6623C41.2223 35.8552 41.18 36.1125 41.3144 36.2879C41.4241 36.4312 41.62 36.475 41.7998 36.4838C41.9796 36.4926 42.1667 36.4794 42.3348 36.5437C42.6023 36.6475 42.7543 36.9209 42.8961 37.1708C43.0379 37.4193 43.2206 37.6839 43.5013 37.7424C43.6445 37.7716 43.7951 37.7424 43.9384 37.7672C44.2468 37.8228 44.4485 38.1166 44.5845 38.4002C44.7204 38.6823 44.8388 38.9966 45.0961 39.175C45.3738 39.3679 45.7408 39.3548 46.0624 39.4585C46.5155 39.6047 46.9058 39.9658 47.2406 40.2918C47.4218 40.4686 47.5972 40.6631 47.6762 40.9028C47.7551 41.1425 47.7142 41.4393 47.5154 41.5972C47.4818 41.6235 47.4437 41.6469 47.4043 41.66C47.2552 41.7126 47.09 41.6498 46.9526 41.5723C46.859 41.5197 46.7713 41.4612 46.6865 41.3954C46.5579 41.2946 46.4395 41.1776 46.2933 41.1045C46.1471 41.03 45.9629 41.0051 45.8255 41.0914C45.6852 41.1791 45.5858 41.356 45.4952 41.4904C45.3607 41.6907 45.2189 41.9845 44.9748 42.0679C44.871 42.1029 44.8023 42.0518 44.7716 41.9494C44.7146 41.7711 44.7175 41.5825 44.7043 41.3983C44.6941 41.2551 44.6795 41.0768 44.5669 40.973C44.4968 40.9086 44.4061 40.9335 44.3287 40.9671C44.2395 41.0066 44.1518 41.0475 44.0641 41.0914C43.9734 41.1367 43.8828 41.182 43.7922 41.2273C43.6825 41.2829 43.5583 41.3384 43.4413 41.3019C43.3215 41.2639 43.2542 41.1367 43.2396 41.0197C43.2235 40.894 43.2542 40.7683 43.2806 40.6455C43.3025 40.5432 43.3288 40.4292 43.3054 40.3254C43.2879 40.2523 43.2382 40.1953 43.1651 40.1763C43.1022 40.1587 43.0364 40.1646 42.9721 40.169C42.6841 40.1924 42.3903 40.2304 42.0994 40.226C41.9518 40.2245 41.8027 40.2128 41.658 40.1821C41.5439 40.1587 41.3729 40.1339 41.3247 40.0082C41.3217 40.0009 41.3203 39.9936 41.3188 39.9877C41.3086 39.9439 41.313 39.8971 41.3217 39.8532C41.3481 39.7246 41.4138 39.6076 41.4913 39.5009C41.5688 39.3942 41.6609 39.3036 41.7062 39.1823C41.7471 39.0756 41.6887 38.9484 41.6068 38.8768C41.4928 38.7759 41.3554 38.7671 41.2107 38.7554C41.0411 38.7408 40.8744 38.7408 40.7063 38.7116C40.4096 38.6604 40.0412 38.5785 39.8439 38.3286C39.7752 38.2423 39.743 38.1254 39.8336 38.0421C39.9184 37.9631 40.0383 37.931 40.1245 37.8535C40.1874 37.7979 40.2386 37.7102 40.2269 37.624C40.2152 37.5319 40.1377 37.4632 40.0558 37.4252C39.9871 37.393 39.9111 37.3799 39.8395 37.3579C39.7313 37.3243 39.6144 37.2381 39.6334 37.108C39.6509 36.9852 39.8146 37.0057 39.8731 36.915C39.9959 36.7265 39.5983 36.5773 39.477 36.5291C39.0019 36.342 38.4903 36.1987 38.1073 35.8611C38.0488 35.8099 37.9932 35.7529 37.9596 35.6827C37.926 35.6126 37.9158 35.5278 37.9494 35.4576C38.0137 35.3231 38.173 35.3027 38.3075 35.307C38.5224 35.3144 38.7344 35.3597 38.9493 35.3626C39.0662 35.3641 39.303 35.3524 39.3089 35.1901C39.3089 35.1579 39.2957 35.1272 39.2782 35.1009C39.1671 34.9226 38.9478 34.8188 38.7753 34.7106C38.6481 34.6317 38.5253 34.5455 38.4201 34.4387C38.309 34.3262 38.1116 34.0601 38.3046 33.9227C38.3397 33.8979 38.3835 33.892 38.4245 33.8891C38.711 33.8701 38.999 33.9461 39.2679 34.0367C39.5018 34.1157 39.7591 34.1859 39.9184 34.3905C39.9506 34.4329 39.9784 34.4782 39.9988 34.5279L39.9974 34.525Z"></path>
<path fill="#F0533D" d="M37.4044 34.3393C37.3811 34.3642 37.365 34.3949 37.3547 34.427C37.3138 34.5484 37.3591 34.6945 37.4673 34.7632C37.5755 34.8319 37.7348 34.8071 37.8108 34.7048C37.8371 34.6682 37.8547 34.6258 37.8634 34.582C37.8737 34.5337 37.8781 34.484 37.8634 34.4373C37.8137 34.2604 37.5228 34.2063 37.4044 34.3393Z"></path>
<path fill="#F0533D" d="M38.6761 37.5495C38.6381 37.6226 38.6367 37.7147 38.6717 37.7892C38.7068 37.8638 38.777 37.9222 38.8574 37.9412C38.9217 37.9573 38.9933 37.9471 39.046 37.9061C39.0957 37.8667 39.122 37.8038 39.1366 37.7424C39.1454 37.7059 39.1512 37.6679 39.1483 37.6299C39.1249 37.4077 38.7755 37.3565 38.6776 37.5495H38.6761Z"></path>
<path fill="#F0533D" d="M45.8914 42.2023C45.83 42.252 45.8007 42.3353 45.8051 42.4128C45.8095 42.4917 45.8431 42.5663 45.8914 42.6291C45.9221 42.6686 45.9601 42.7052 46.0068 42.7212C46.1004 42.7519 46.2071 42.6861 46.2451 42.5941C46.2831 42.5034 46.2656 42.3967 46.2276 42.3061C46.172 42.1745 46.0185 42.0985 45.8914 42.2023Z"></path>
<path fill="white" d="M52.0413 34.5015C49.7346 34.8217 49.5446 35.0804 49.3078 38.2087C49.0724 35.0804 48.8809 34.8217 46.5742 34.5015C48.8809 34.1814 49.071 33.9227 49.3078 30.7944C49.5431 33.9227 49.7346 34.1814 52.0413 34.5015Z"></path>
<path fill="white" d="M44.6136 16.7071C42.3069 17.0272 42.1169 17.286 41.88 20.4142C41.6447 17.286 41.4532 17.0272 39.1465 16.7071C41.4532 16.387 41.6432 16.1282 41.88 13C42.1154 16.1282 42.3069 16.387 44.6136 16.7071Z"></path>
<path fill="white" d="M16.4661 25.8112C14.1594 26.1313 13.9694 26.39 13.7326 29.5183C13.4972 26.39 13.3057 26.1313 10.999 25.8112C13.3057 25.491 13.4958 25.2323 13.7326 22.1041C13.9679 25.2323 14.1594 25.491 16.4661 25.8112Z"></path>
</g>
<defs>
<clipPath id="clip0_2072_9312">
<rect transform="translate(11 13)" fill="white" height="37.65" width="41.8731"></rect>
</clipPath>
</defs>
</svg>
