<svg xmlns="http://www.w3.org/2000/svg" fill="none" viewBox="0 0 32 32" height="32" width="32">
<g clip-path="url(#clip0_8038_9996)">
<path fill="#004600" d="M15.8278 25.2322C13.71 25.2322 11.9211 24.4 10.7022 23.1011C8.4911 20.7466 8.79221 17.2122 8.82443 16.5411V8.56885H13.0278V16.67L13.0244 16.7211C12.99 17.3911 12.9122 19.2411 13.86 20.2411C14.4478 20.8611 15.3289 21.0733 15.8655 21.0733C17.2211 21.0733 18.0689 20.7533 18.6178 19.4944C19.1122 18.36 18.9367 16.8444 18.9378 16.7533V16.7366V8.56996H23.1711V16.7277C23.1744 17.1911 23.6255 20.7633 21.2844 23.13C20.0189 24.41 18.3622 25.2333 15.8289 25.2333L15.8278 25.2322Z"></path>
<path fill="#004600" d="M16 32C13.8411 32 11.7456 31.5767 9.77111 30.7422C7.86556 29.9367 6.15444 28.7833 4.68556 27.3144C3.21667 25.8456 2.06333 24.1344 1.25778 22.2289C0.423333 20.2544 0 18.1589 0 16C0 13.8411 0.423333 11.7456 1.25778 9.77111C2.06333 7.86556 3.21667 6.15444 4.68556 4.68556C6.15444 3.21667 7.86556 2.06333 9.77111 1.25778C11.7456 0.423333 13.8411 0 16 0C18.1589 0 20.2544 0.423333 22.2289 1.25778C24.1344 2.06333 25.8456 3.21667 27.3144 4.68556C28.7833 6.15444 29.9367 7.86556 30.7422 9.77111C31.5767 11.7444 32 13.84 32 16C32 18.16 31.5767 20.2544 30.7422 22.2289C29.9367 24.1344 28.7833 25.8456 27.3144 27.3144C25.8456 28.7833 24.1344 29.9367 22.2289 30.7422C20.2556 31.5767 18.16 32 16 32ZM16 3.79556C12.74 3.79556 9.67556 5.06556 7.37 7.37C5.06444 9.67556 3.79556 12.74 3.79556 16C3.79556 19.26 5.06556 22.3244 7.37 24.63C9.67556 26.9356 12.74 28.2044 16 28.2044C19.26 28.2044 22.3244 26.9344 24.63 24.63C26.9356 22.3244 28.2044 19.26 28.2044 16C28.2044 12.74 26.9344 9.67556 24.63 7.37C22.3244 5.06444 19.26 3.79556 16 3.79556Z"></path>
</g>
<defs>
<clipPath id="clip0_8038_9996">
<rect fill="white" height="32" width="32"></rect>
</clipPath>
</defs>
</svg>
