<svg xmlns="http://www.w3.org/2000/svg" fill="none" viewBox="0 0 57 40" height="40" width="57">
<path fill="white" d="M16.8257 11.3501C15.3967 11.3501 15.1109 10.2496 15.1109 9.09321V4.42509H14.0137V4.27397H15.1733L16.4676 2.21094H16.737V4.27397H18.7245V4.42509H16.737V9.27388C16.737 9.92105 16.7665 10.7029 17.624 10.7029C17.9689 10.7029 18.3171 10.5682 18.5865 10.3711L18.7081 10.4598C18.0149 11.1365 17.4729 11.3468 16.8257 11.3468V11.3501Z"></path>
<path fill="white" d="M25.0745 6.53429V11.186H23.4648V6.76095C23.4648 5.54218 23.1198 4.92458 22.1409 4.92458C21.7335 4.92458 21.2375 5.0297 20.7874 5.33193V11.2024H19.1777V0.949613L20.7874 0.512695V5.19398C21.6448 4.39567 22.4267 4.09345 23.2118 4.09345C24.4897 4.09345 25.0777 5.05598 25.0777 6.531L25.0745 6.53429Z"></path>
<path fill="white" d="M31.5034 7.19786H27.2294C27.3181 9.12622 28.2971 10.4041 29.8477 10.4041C30.4784 10.4041 30.9022 10.2234 31.234 9.9212L31.3555 9.99674C30.5868 11.0512 29.7162 11.3666 28.8424 11.3666C26.96 11.3666 25.6953 9.90807 25.6953 7.75304C25.6953 5.59802 27.006 4.10986 28.826 4.10986C30.6459 4.10986 31.5789 5.4633 31.5066 7.19458L31.5034 7.19786ZM29.9363 7.03361C29.9199 5.28591 29.5454 4.29383 28.7176 4.29383C27.8437 4.29383 27.2261 5.28591 27.2261 6.91207V7.03361H29.9363Z"></path>
<path fill="white" d="M19.3548 25.0031C18.7011 26.4913 17.5481 27.2271 15.9811 27.2271C13.6585 27.2271 11.0403 25.3612 9.15136 23.5149C8.675 23.6332 8.17895 23.6923 7.64351 23.6923C3.87221 23.6923 1.35254 20.7752 1.35254 16.567C1.35254 12.3588 3.91163 9.36279 7.64351 9.36279C11.3754 9.36279 13.9542 12.2602 13.9542 16.4881C13.9542 19.6451 12.5054 22.1057 10.2223 23.1569C12.3872 24.507 14.7492 25.578 16.8122 25.578C17.7846 25.578 18.6781 25.3809 19.1939 24.9045L19.3516 25.0031H19.3548ZM7.70264 23.4558C10.0055 23.4558 11.2571 20.9756 11.2571 16.5276C11.2571 12.0796 9.96608 9.59931 7.58439 9.59931C5.20267 9.59931 4.02989 12.0598 4.02989 16.5276C4.02989 20.9953 5.34064 23.4558 7.70264 23.4558Z"></path>
<path fill="white" d="M23.6615 14.3432V23.4724H21.7562L21.5394 22.2405C20.3896 23.272 19.3745 23.6892 18.3627 23.6892C16.6939 23.6892 15.9219 22.4179 15.9219 20.4534V14.3398H18.044V20.1545C18.044 21.7806 18.5006 22.5953 19.7523 22.5953C20.2877 22.5953 20.9218 22.4573 21.5394 22.0402V14.3398H23.6615V14.3432Z"></path>
<path fill="white" d="M32.3939 17.5787V23.4755H30.5083L30.2717 22.2239C29.3387 23.2751 28.386 23.6923 27.3743 23.6923C25.9847 23.6923 24.9531 22.7396 24.9531 21.4091C24.9531 19.0866 27.5549 18.2719 30.2717 18.3343V16.8067C30.2717 15.0197 29.7559 14.3462 28.9412 14.3462C27.9886 14.3462 26.796 15.2989 26.2212 17.4834H26.0635L25.6857 14.9441C26.4807 14.5269 27.8112 14.1294 29.0201 14.1294C31.1028 14.1294 32.3939 15.1806 32.3939 17.582V17.5787ZM30.2717 18.5511C28.1463 18.63 27.1345 19.5826 27.1345 20.8343C27.1345 21.9052 27.7488 22.6411 28.7014 22.6411C29.3157 22.6411 29.8512 22.4012 30.2684 22.0662V18.5544L30.2717 18.5511Z"></path>
<path fill="white" d="M36.3227 9.38281V23.4759H34.1973V9.95774L36.3227 9.38281Z"></path>
<path fill="white" d="M37.8301 11.3469C37.8301 10.5716 38.3656 10.0952 39.2 10.0952C40.0344 10.0952 40.5304 10.5716 40.5304 11.3469C40.5304 12.1221 39.995 12.6379 39.2 12.6379C38.3656 12.6379 37.8301 12.1221 37.8301 11.3469ZM38.1487 14.6418L40.2742 14.0669V23.4754H38.1487V14.6418Z"></path>
<path fill="white" d="M45.2347 23.6729C43.349 23.6729 42.9712 22.2242 42.9712 20.6966V14.5436H41.5225V14.3465H43.0501L44.7583 11.6265H45.1164V14.3465H47.7379V14.5436H45.1164V20.9364C45.1164 21.7905 45.1558 22.8221 46.2891 22.8221C46.7458 22.8221 47.2024 22.6447 47.5605 22.3851L47.7182 22.5034C46.8049 23.3969 46.0921 23.6729 45.2379 23.6729H45.2347Z"></path>
<path fill="white" d="M46.2266 30.3053V39.139H48.352V29.7305L46.2266 30.3053Z"></path>
<path fill="white" d="M55.3992 14.3232L51.983 23.4755C51.4574 25.2166 50.5737 26.4781 49.194 27.526C48.8326 27.7987 47.8799 28.3013 47.282 28.3013C46.4476 28.3013 45.9121 27.7856 45.9121 27.0103C45.9121 26.235 46.4476 25.7586 47.282 25.7586C47.4035 25.7586 47.5185 25.7685 47.6269 25.7915C48.6683 26.0018 49.759 25.8145 50.554 25.1082C51.0467 24.6713 51.4804 24.1161 51.7662 23.4755H50.5737L47.3806 14.3429H49.8214L52.3413 21.9249L55.0218 14.3232H55.3992Z"></path>
<path fill="white" d="M35.1401 39.024V39.2869H26.7139V25.1084H35.1204V25.3515H29.2073V31.8527H34.0068V32.1155H29.2073V39.0208H35.1401V39.024Z"></path>
<path fill="white" d="M43.9079 24.9868V39.2868H41.9632L41.7398 38.0516V38.0319C40.9711 39.0043 40.0184 39.4905 38.9442 39.4905C37.0421 39.4905 35.5605 37.6279 35.5605 34.6089C35.5605 31.5898 37.0782 29.7469 39.6505 29.7469C40.5408 29.7469 41.3324 30.0097 41.7365 30.3547V25.5749L43.9047 24.9868H43.9079ZM41.7398 30.5551C41.4967 30.3744 40.9514 30.1707 40.4225 30.1707C38.8029 30.1707 37.8502 31.6884 37.8502 34.2015C37.8502 36.7146 38.8227 38.413 40.3207 38.413C40.889 38.413 41.4145 38.1699 41.7398 37.825V30.5551Z"></path>
<path fill="white" d="M46.1748 30.2726L48.343 29.6846V39.2836H46.1748V30.2693V30.2726Z"></path>
<path fill="white" d="M53.405 39.487C51.4799 39.487 51.0955 38.0087 51.0955 36.4483V30.1705H49.6172V29.9668H51.1776L52.9189 27.1909H53.2835V29.9668H55.9573V30.1705H53.2835V36.6914C53.2835 37.5619 53.323 38.6165 54.4789 38.6165C54.9455 38.6165 55.4122 38.4325 55.7768 38.1697L55.9379 38.2912C55.0045 39.2012 54.2753 39.487 53.405 39.487Z"></path>
<path fill="white" d="M35.1626 38.7184V39.2834H26.7363V25.105H35.1429V25.6503H29.2297V31.8493H34.0293V32.4143H29.2297V38.7151H35.1626V38.7184Z"></path>
</svg>
