<svg xmlns="http://www.w3.org/2000/svg" fill="none" viewBox="0 0 64 64" height="64" width="64">
<circle fill="#E6BCFF" r="32" cy="32" cx="32"></circle>
<g clip-path="url(#clip0_8241_13886)">
<path fill="#00452B" d="M44.6484 46.9683C44.6484 46.9683 52.3512 47.8353 52.2009 49.3461C52.043 50.9435 40.9374 50.8205 40.9374 50.8205C40.9374 50.8205 29.261 50.901 29.469 49.8396C29.4113 49.3097 31.3032 49.1654 31.3108 48.7418C31.326 47.9932 11.4578 48.9574 12.5784 46.2835C13.5896 43.8738 28.6643 43.7615 28.6643 43.7615L44.6469 46.9698L44.6484 46.9683Z"></path>
<path fill="#D21774" d="M19.9608 18.8568C19.9608 18.8568 20.468 17.7727 22.325 17.715L24.6086 17.185C24.6086 17.185 26.9272 15.4784 29.0135 17.185C29.0135 17.185 30.1902 16.4926 31.4703 17.185C32.4223 17.6421 32.8368 18.5394 32.8368 18.5394C32.8368 18.5394 34.2838 18.3253 35.2176 19.5143C35.2176 19.5143 35.9389 20.2871 35.91 21.4578C35.91 21.4578 38.3668 22.674 38.1466 25.6152L28.599 44.2504C28.599 44.2504 27.3311 44.1806 26.3502 43.4897C26.3502 43.4897 24.6314 43.5018 23.8251 42.4405C23.8251 42.4405 21.5187 42.6364 20.2387 40.746C20.2387 40.746 16.5824 40.6078 16.4442 36.9287C16.4442 36.9287 14.2243 35.7945 14.525 33.5123C14.525 33.5123 12.6741 32.2278 13.1645 29.3671C13.5684 27.0151 15.269 26.4472 15.269 26.4472C15.269 26.4472 14.9425 25.1217 16.1891 23.046C17.4357 20.9704 19.2244 21.2558 19.2244 21.2558L19.9608 18.8598V18.8568Z"></path>
<mask height="29" width="26" y="16" x="13" maskUnits="userSpaceOnUse" style="mask-type:luminance" id="mask0_8241_13886">
<path fill="white" d="M19.9608 18.8568C19.9608 18.8568 20.468 17.7727 22.325 17.715L24.6086 17.185C24.6086 17.185 26.9272 15.4784 29.0135 17.185C29.0135 17.185 30.1902 16.4926 31.4703 17.185C32.4223 17.6421 32.8368 18.5394 32.8368 18.5394C32.8368 18.5394 34.2838 18.3253 35.2176 19.5143C35.2176 19.5143 35.9389 20.2871 35.91 21.4578C35.91 21.4578 38.3668 22.674 38.1466 25.6152L28.599 44.2504C28.599 44.2504 27.3311 44.1806 26.3502 43.4897C26.3502 43.4897 24.6314 43.5018 23.8251 42.4405C23.8251 42.4405 21.5187 42.6364 20.2387 40.746C20.2387 40.746 16.5824 40.6078 16.4442 36.9287C16.4442 36.9287 14.2243 35.7945 14.525 33.5123C14.525 33.5123 12.6741 32.2278 13.1645 29.3671C13.5684 27.0151 15.269 26.4472 15.269 26.4472C15.269 26.4472 14.9425 25.1217 16.1891 23.046C17.4357 20.9704 19.2244 21.2558 19.2244 21.2558L19.9608 18.8598V18.8568Z"></path>
</mask>
<g mask="url(#mask0_8241_13886)">
<path fill="#00452B" d="M15.3417 25.2477C15.4586 25.0169 15.656 24.8362 15.8701 24.6905C16.189 24.4733 16.5549 24.323 16.9345 24.2547C17.1395 24.2182 17.3627 24.2076 17.5403 24.3169C18.1128 24.6692 17.639 25.4436 17.3444 25.8035C17.2533 25.9143 17.1486 26.0145 17.0377 26.1071C16.8328 26.2802 16.608 26.4321 16.3575 26.5262C16.1206 26.6158 15.8792 26.6279 15.6317 26.6036C15.5011 26.5915 15.3766 26.5292 15.2885 26.4321C15.2005 26.3349 15.1504 26.2043 15.1519 26.0737C15.1519 25.9416 15.1944 25.8156 15.2187 25.685C15.2445 25.5347 15.2734 25.3844 15.3432 25.2477H15.3417Z"></path>
<path fill="#00452B" d="M20.7929 17.9306C21.2575 18.5456 21.4822 19.3078 21.6174 20.0655C21.669 20.354 21.7085 20.647 21.7039 20.9401C21.7024 21.0388 21.6948 21.139 21.6508 21.227C21.6067 21.3151 21.5171 21.3865 21.4184 21.3819C21.3182 21.3774 21.2362 21.2999 21.177 21.2179C21.0631 21.0615 20.9933 20.8793 20.9143 20.7032C20.7245 20.2841 20.4725 19.8939 20.2872 19.4718C20.1035 19.0497 19.9866 18.5759 20.0899 18.1265C20.1141 18.0187 20.1551 17.9093 20.2417 17.8425C20.3662 17.7469 20.5697 17.7818 20.6547 17.9139"></path>
<path fill="#00452B" d="M25.6744 16.5808C25.7306 16.7068 25.7579 16.8434 25.7792 16.9786C25.8657 17.5313 25.8779 18.0961 25.8141 18.6519C25.7959 18.8083 25.7685 18.9722 25.6713 19.0967C25.5894 19.2 25.4679 19.2653 25.3434 19.3093C25.2401 19.3473 25.1202 19.3716 25.0215 19.323C24.9364 19.282 24.8833 19.197 24.8438 19.1119C24.6965 18.7991 24.6647 18.4454 24.6464 18.1007C24.6312 17.797 24.6252 17.4903 24.6905 17.1942C24.7482 16.9346 24.8651 16.684 25.0473 16.4912C25.1278 16.4062 25.2249 16.3302 25.3403 16.3105C25.4557 16.2908 25.5894 16.3454 25.6288 16.4547"></path>
<path fill="#00452B" d="M24.528 27.501C25.4694 27.6043 26.4518 27.6392 27.334 27.2899C27.835 27.091 28.2829 26.7752 28.7749 26.555C29.6981 26.142 30.7352 26.0798 31.7464 26.0251C31.2286 25.4922 30.6516 24.982 29.9486 24.739C28.6884 24.3033 27.3157 24.8043 25.9826 24.8195C25.3555 24.8271 24.7284 24.7239 24.1362 24.5174C23.6898 24.3625 23.1948 24.1484 22.7697 24.3519C22.4295 24.5143 22.2519 24.9091 22.2367 25.2841C22.2215 25.6592 22.3369 26.0282 22.4417 26.3895C22.753 27.4509 22.9913 28.5472 22.9443 29.6526C22.9245 30.1339 22.8501 30.6228 22.9579 31.092C23.0749 31.6007 23.4089 32.0562 23.8614 32.3189C24.0891 32.451 24.3154 32.6408 24.5219 32.8048C24.2425 32.5132 24.203 32.0744 24.1651 31.672C24.1423 31.4321 24.1195 31.1922 24.1332 30.9508C24.1529 30.5818 24.2531 30.222 24.3488 29.8651C24.5523 29.1014 24.7011 28.2739 24.5295 27.501H24.528Z"></path>
<path fill="#00452B" d="M14.906 33.2801C14.906 33.2801 15.3357 32.782 16.1146 32.5315C16.8936 32.281 19.0391 31.373 19.5234 29.0119C19.5234 29.0119 20.4056 26.2788 20.3191 26.2362C20.2325 26.1937 19.6449 26.0723 19.6009 26.1239C19.5568 26.1755 17.1972 28.9435 17.1365 29.065C17.0758 29.1865 15.1125 32.0745 15.0776 32.1185C15.0426 32.1625 14.8787 32.8367 14.8528 32.8792C14.827 32.9217 14.906 33.2816 14.906 33.2816V33.2801Z"></path>
<path fill="#00452B" d="M27.0518 40.5273C26.6267 40.3466 26.2212 40.0597 25.8796 39.6952C25.5623 39.3566 25.2905 38.9482 25.0749 38.4821C25.0399 38.4061 24.9488 38.3727 24.8714 38.4077C24.794 38.4426 24.7621 38.5337 24.797 38.6111C24.8608 38.7508 24.9352 38.892 25.0156 39.0256C25.0961 39.1593 25.1948 39.2822 25.2555 39.4265C25.3087 39.5556 25.3224 39.6907 25.2844 39.8258C25.2449 39.964 25.1736 40.0946 25.0764 40.2009C24.9746 40.3132 24.8319 40.3876 24.6907 40.4408C24.4812 40.5213 24.2519 40.5456 24.0287 40.5243C23.9224 40.5137 23.8131 40.497 23.7129 40.4605C23.6339 40.4317 23.5458 40.4742 23.5185 40.5531C23.4897 40.6321 23.5306 40.7202 23.6111 40.749C23.6172 40.7505 23.851 40.8325 24.179 40.8325C24.258 40.8325 24.3506 40.8325 24.4235 40.8735C24.513 40.9251 24.5434 41.039 24.551 41.1362C24.5692 41.3898 24.4554 41.6388 24.3157 41.8453C24.2686 41.9151 24.2868 42.0108 24.3567 42.0579C24.3825 42.0761 24.4128 42.0837 24.4417 42.0837C24.4903 42.0837 24.5389 42.0594 24.5692 42.0169C24.6406 41.9106 24.7013 41.7967 24.7514 41.6768C24.7757 41.6175 24.797 41.5583 24.8152 41.4976C24.8319 41.446 24.8668 41.3989 24.9169 41.3761C24.9746 41.3518 25.0475 41.3655 25.0733 41.4232C25.1052 41.4915 25.1477 41.5583 25.1887 41.6221C25.2738 41.7496 25.3725 41.8681 25.4833 41.9728C25.5106 41.9987 25.538 42.0229 25.5653 42.0457C25.5941 42.07 25.6291 42.0822 25.664 42.0822C25.708 42.0822 25.7505 42.0639 25.7809 42.0275C25.8356 41.9637 25.828 41.8666 25.7627 41.8119C25.541 41.6236 25.3694 41.3776 25.2647 41.1058C25.1523 40.8143 25.1872 40.4241 25.4955 40.2646C25.6169 40.2009 25.7642 40.1857 25.8948 40.2282C25.9236 40.2373 25.951 40.2479 25.9783 40.2616C26.1301 40.3299 26.2562 40.4347 26.3943 40.5243C26.5325 40.6139 26.6783 40.6944 26.8271 40.7642C26.8605 40.7794 26.8954 40.7946 26.9288 40.8098C26.9486 40.8173 26.9683 40.8219 26.988 40.8219C27.0472 40.8219 27.1034 40.787 27.1292 40.7293C27.1626 40.6518 27.1262 40.5623 27.0488 40.5288L27.0518 40.5273Z"></path>
<path fill="#00452B" d="M24.3126 37.3297C24.2959 37.2461 24.2154 37.193 24.1334 37.2097C23.7098 37.2932 23.2224 37.2401 22.7244 37.0563C22.3767 36.9273 22.0836 36.7587 21.8528 36.5538C21.619 36.3473 21.4322 36.0846 21.3092 35.7976C21.2758 35.7202 21.1862 35.6837 21.1088 35.7171C21.0314 35.7505 20.9949 35.8401 21.0283 35.9176C21.0784 36.0345 21.1376 36.1468 21.2045 36.2546C21.2667 36.3548 21.3366 36.4611 21.3669 36.5796C21.4018 36.7132 21.3836 36.8559 21.3502 36.988C21.3123 37.1399 21.2515 37.2856 21.168 37.4192C20.9797 37.7244 20.7186 37.9158 20.3557 37.9583C20.2448 37.9704 20.134 37.9689 20.0247 37.9492C19.9412 37.934 19.8622 37.9886 19.847 38.0722C19.8318 38.1557 19.8865 38.2346 19.97 38.2498C20.052 38.265 20.134 38.2726 20.219 38.2726C20.4574 38.2726 20.6821 38.224 20.8613 38.4214C20.9721 38.5444 21.0314 38.6856 21.0921 38.8374C21.1559 38.9969 21.2075 39.1745 21.291 39.3248C21.3609 39.4509 21.4383 39.5738 21.5248 39.6892C21.701 39.9246 21.9135 40.1296 22.155 40.2966C22.1793 40.3133 22.2036 40.33 22.2279 40.3452C22.2537 40.3619 22.2825 40.3695 22.3114 40.3695C22.3615 40.3695 22.4101 40.3452 22.4404 40.2996C22.486 40.2283 22.4662 40.1341 22.3949 40.0886C22.0229 39.8472 21.7237 39.5101 21.5309 39.1107C21.4034 38.8465 21.3077 38.552 21.3214 38.2559C21.3305 38.0387 21.4003 37.8262 21.5157 37.6424C21.6205 37.4724 21.7845 37.2674 21.9864 37.2158C22.2704 37.1429 22.5604 37.3312 22.8231 37.4116C23.1161 37.5012 23.4213 37.5544 23.7295 37.5544C23.8905 37.5544 24.0469 37.5392 24.1972 37.5103C24.2807 37.4936 24.3339 37.4132 24.3172 37.3312L24.3126 37.3297Z"></path>
<path fill="#00452B" d="M18.8342 37.6759C18.8342 37.6759 18.8296 37.6729 18.8281 37.6698C18.4394 37.2857 18.157 36.8134 18.0203 36.2835C18.0021 36.2106 17.9322 36.1605 17.8548 36.1696C17.7713 36.1788 17.7105 36.2547 17.7197 36.3382C17.7379 36.5007 17.7743 36.6601 17.829 36.8134C17.8548 36.8878 17.8897 36.9592 17.9201 37.0336C17.9444 37.0928 17.9231 37.1657 17.876 37.2082C17.7622 37.316 17.5496 37.2553 17.419 37.2143C17.3385 37.1885 17.2535 37.234 17.2277 37.3145C17.2019 37.395 17.2474 37.4815 17.3279 37.5058C17.4752 37.5514 17.6255 37.5742 17.7743 37.5742C17.876 37.5742 17.9763 37.5514 18.078 37.5514C18.1311 37.5514 18.1843 37.5514 18.2329 37.5726C18.3149 37.606 18.368 37.682 18.4318 37.7412C18.4986 37.8034 18.57 37.8596 18.6444 37.9128C18.8007 38.0221 18.9769 37.805 18.8357 37.6744L18.8342 37.6759Z"></path>
<path fill="#00452B" d="M20.1659 41.0558C20.1477 41.0558 20.1295 41.0558 20.1113 41.0558C20.0262 41.0527 19.9609 40.9814 19.964 40.8978C19.967 40.8128 20.0384 40.749 20.1219 40.7506C20.4984 40.7657 20.8735 40.5881 21.1028 40.2905C21.1544 40.2237 21.25 40.21 21.3169 40.2616C21.3837 40.3133 21.3973 40.4089 21.3457 40.4757C21.0694 40.8371 20.6214 41.0573 20.1659 41.0573V41.0558Z"></path>
<path fill="#00452B" d="M25.9281 43.7555C25.8537 43.7555 25.7884 43.7008 25.7777 43.6249C25.7656 43.5414 25.8233 43.464 25.9068 43.4518C26.0617 43.429 26.2196 43.3334 26.3395 43.1891C26.4428 43.0631 26.5263 42.8991 26.5931 42.6835C26.6189 42.603 26.704 42.5575 26.7844 42.5833C26.8649 42.6091 26.9105 42.6941 26.8846 42.7746C26.8057 43.0282 26.704 43.2286 26.5734 43.385C26.4033 43.59 26.1816 43.7221 25.9493 43.754C25.9417 43.754 25.9341 43.7555 25.9281 43.7555Z"></path>
<path fill="#00452B" d="M18.0278 33.5762C17.545 33.4957 17.0758 33.1905 16.7903 32.7623C16.7448 32.6925 16.6506 32.6712 16.5793 32.7183C16.5079 32.7654 16.4943 32.858 16.5337 32.9309C16.678 33.192 16.8769 33.4213 17.1122 33.6066C17.2109 33.684 17.3157 33.7539 17.4265 33.8161C17.5571 33.8875 17.6148 34.0423 17.5693 34.1836C17.4721 34.4842 17.4265 34.8 17.4357 35.1174C17.4448 35.295 17.4493 35.456 17.5192 35.6306C17.5981 35.8067 17.8608 35.7095 17.8061 35.5243C17.7682 35.4059 17.7758 35.2495 17.7788 35.1204C17.7864 34.9762 17.8077 34.8334 17.8395 34.6937C17.9033 34.4144 18.0202 34.1502 18.1736 33.9148C18.2632 33.7873 18.1827 33.599 18.0278 33.5762Z"></path>
<path fill="#00452B" d="M14.4627 33.4789C14.8757 33.7781 15.4072 33.9269 15.9265 33.8798C16.01 33.8722 16.0859 33.9345 16.0935 34.018C16.1011 34.1 16.0434 34.1713 15.9629 34.1835C15.3722 34.2685 14.7512 34.1349 14.2395 33.8054C14.0194 33.6536 14.241 33.3286 14.4627 33.4789Z"></path>
<path fill="#00452B" d="M22.0108 32.3767C21.9561 32.363 21.8969 32.3752 21.8529 32.4086C21.5401 32.524 21.1908 32.5558 20.8629 32.4981C20.5136 32.4359 20.1765 32.2689 19.9154 32.0274C19.8 31.9212 19.6937 31.7951 19.5904 31.6737C19.5373 31.6099 19.4416 31.5947 19.3764 31.6433C19.3065 31.6964 19.2959 31.7966 19.3521 31.8635C19.4037 31.9242 19.4523 31.9864 19.5039 32.0457C19.551 32.1003 19.6087 32.1459 19.6527 32.2021C19.7332 32.3023 19.7666 32.4298 19.7544 32.5574C19.7423 32.6849 19.677 32.7927 19.5768 32.8656C19.3262 33.0478 19.062 33.1921 18.7644 33.2847C18.6855 33.309 18.6323 33.3879 18.6506 33.4669C18.6673 33.5382 18.731 33.5853 18.7994 33.5853C18.8145 33.5853 18.8297 33.5838 18.8449 33.5777C19.1289 33.4912 19.4006 33.3636 19.6436 33.1936C19.7317 33.1313 19.8167 33.0645 19.8956 32.9931C19.9746 32.9218 20.046 32.8367 20.1629 32.8322C20.2312 32.8292 20.2995 32.858 20.3436 32.9081C20.4468 33.0281 20.3998 33.2133 20.3967 33.356C20.3937 33.5231 20.3998 33.6901 20.4149 33.8571C20.4347 34.0666 20.4696 34.2747 20.5258 34.4781C20.544 34.5449 20.6063 34.589 20.6731 34.589C20.6943 34.589 20.7171 34.5844 20.7384 34.5753C20.8082 34.5434 20.8386 34.4614 20.8188 34.3885C20.8036 34.3354 20.7915 34.2823 20.7794 34.2276C20.7065 33.8951 20.67 33.5443 20.7626 33.2118C20.7733 33.1753 20.7839 33.1404 20.7991 33.107C20.8553 32.9856 20.9843 32.8717 21.118 32.8443C21.1377 32.8398 21.1574 32.8383 21.1772 32.8367C21.2531 32.8307 21.329 32.8276 21.4034 32.82C21.5704 32.8033 21.7359 32.7684 21.8954 32.7153C21.9394 32.7001 21.9834 32.6834 22.0275 32.6652C22.1019 32.6348 22.1414 32.5513 22.1125 32.4708C22.0958 32.4237 22.0548 32.3873 22.0062 32.3767H22.0108Z"></path>
<path fill="#00452B" d="M23.9345 32.0791C23.8525 32.0791 23.7841 32.0138 23.7811 31.9303C23.7781 31.8452 23.8449 31.7754 23.9299 31.7724C24.2822 31.7617 24.6344 31.622 24.8971 31.3882C24.9594 31.332 25.0566 31.3381 25.1127 31.4004C25.1689 31.4641 25.1628 31.5598 25.1006 31.616C24.7848 31.8969 24.3611 32.0654 23.939 32.0776C23.9375 32.0776 23.936 32.0776 23.9345 32.0776V32.0791Z"></path>
<path fill="#00452B" d="M28.3348 28.0903C28.2893 28.0189 28.1951 27.9976 28.1238 28.0432C28.0539 28.0872 27.981 28.1282 27.9066 28.1662C27.7153 28.2618 27.5118 28.3317 27.3023 28.3757C26.9895 28.441 26.6251 28.3757 26.3897 28.1449C26.2728 28.0295 26.1984 27.8747 26.1073 27.738C26.0314 27.6256 25.9479 27.5178 25.8553 27.4176C25.7976 27.3554 25.7019 27.3523 25.6397 27.4085C25.5774 27.4662 25.5744 27.5619 25.6306 27.6241C26.0572 28.0842 26.3093 28.7523 26.3245 29.4568C26.3305 29.7301 26.3002 29.9549 26.2303 30.1446C26.1559 30.3466 26.0284 30.5334 25.9054 30.7156C25.8583 30.7854 25.8765 30.8811 25.9464 30.9281C25.9722 30.9464 26.0026 30.954 26.0314 30.954C26.08 30.954 26.1286 30.9312 26.1574 30.8871C26.1863 30.8446 26.2151 30.8021 26.244 30.7581C26.285 30.6958 26.3199 30.6305 26.367 30.5744C26.414 30.5167 26.4717 30.462 26.5355 30.424C26.6205 30.3739 26.7192 30.3542 26.8164 30.3572C26.9925 30.3618 27.1793 30.4195 27.3312 30.5075C27.4116 30.5531 27.4891 30.6047 27.565 30.6594C27.6424 30.7156 27.7199 30.7702 27.7958 30.8264C27.8504 30.8659 27.9112 30.9342 27.9871 30.9145C28.0448 30.8993 28.0812 30.837 28.0873 30.7809C28.0934 30.7201 28.0661 30.6639 28.019 30.626C27.8231 30.465 27.609 30.301 27.3646 30.1796C27.2932 30.1447 27.2203 30.1097 27.1459 30.0809C27.0624 30.049 26.9713 30.0353 26.8893 30.0004C26.8195 29.97 26.7602 29.923 26.7162 29.8607C26.5917 29.68 26.619 29.428 26.6798 29.2291C26.7238 29.0833 26.8179 28.9557 26.9394 28.8616C27.1095 28.7295 27.3099 28.6931 27.5118 28.6399C27.7199 28.5837 27.9218 28.5063 28.1116 28.4046C28.1708 28.3727 28.2285 28.3393 28.2847 28.3044C28.3561 28.2588 28.3773 28.1647 28.3318 28.0933L28.3348 28.0903Z"></path>
<path fill="#00452B" d="M30.242 32.2962C29.914 32.117 29.5299 32.1003 29.2641 31.8118C29.1579 31.6964 29.1002 31.5552 29.0197 31.4216C28.9756 31.3502 28.8815 31.3274 28.8101 31.3715C28.7388 31.4155 28.716 31.5096 28.76 31.581C28.7646 31.5886 28.9255 31.8574 29.0622 32.2506C29.0637 32.2597 29.0668 32.2688 29.0713 32.2764C29.2884 32.9202 29.4296 33.8799 28.7266 34.5874C28.0768 35.2737 27.275 35.4651 26.3412 35.1553C25.6246 34.9169 25.0946 34.4614 25.0901 34.4568C25.0263 34.4022 24.9306 34.4083 24.8745 34.472C24.8183 34.5358 24.8259 34.6315 24.8896 34.6876C25.005 34.7894 25.1356 34.8683 25.2586 34.9594C25.4272 35.0839 25.5456 35.2889 25.5957 35.4909C25.6124 35.5562 25.6154 35.6169 25.6154 35.6822C25.6185 36.0041 25.4454 36.2713 25.2313 36.4976C25.1736 36.5583 25.1751 36.6555 25.2374 36.7132C25.2662 36.742 25.3042 36.7557 25.3421 36.7557C25.3831 36.7557 25.4226 36.7405 25.453 36.7086C25.5638 36.5917 25.6655 36.4672 25.7551 36.3321C25.8447 36.1969 25.9055 36.0633 26.0117 35.9449C26.0345 35.9191 26.0588 35.8948 26.0846 35.872C26.1408 35.8219 26.2031 35.7763 26.2684 35.7414C26.3336 35.7065 26.405 35.6867 26.4779 35.667C26.6388 35.623 26.8059 35.6093 26.9714 35.6063C27.0367 35.6047 27.1019 35.6047 27.1657 35.6047C27.8369 35.6047 28.4412 35.3345 28.9453 34.8015C29.3279 34.3976 29.539 33.8981 29.5557 33.3393C29.5587 33.2452 29.5557 33.151 29.5496 33.0569C29.542 32.9567 29.5238 32.8656 29.545 32.7623C29.5587 32.694 29.5906 32.6272 29.6422 32.5801C29.668 32.5573 29.6969 32.5406 29.7273 32.5239C29.87 32.4495 29.9626 32.489 30.0947 32.5619C30.1175 32.574 30.1433 32.5801 30.1676 32.5801C30.2222 32.5801 30.2739 32.5513 30.3012 32.5011C30.3422 32.4267 30.3149 32.3341 30.2405 32.2931L30.242 32.2962Z"></path>
<path fill="#00452B" d="M32.9765 29.803C32.896 29.803 32.8292 29.7407 32.8246 29.6587C32.7867 29.0392 32.5133 28.4334 32.0745 27.9961C32.0153 27.9369 32.0138 27.8397 32.0745 27.7805C32.1337 27.7212 32.2309 27.7197 32.2901 27.7805C32.7821 28.2709 33.0873 28.9481 33.1298 29.642C33.1344 29.7255 33.0706 29.7984 32.9871 29.803C32.984 29.803 32.981 29.803 32.978 29.803H32.9765Z"></path>
<path fill="#00452B" d="M29.5298 23.819C29.504 23.819 29.4782 23.8129 29.4539 23.7992C29.381 23.7567 29.3552 23.6641 29.3977 23.5912C29.6786 23.1023 30.1463 22.7136 30.6793 22.5283C30.7582 22.501 30.8463 22.542 30.8736 22.6225C30.9009 22.7014 30.8599 22.7895 30.7795 22.8168C30.3148 22.9793 29.9079 23.3179 29.6619 23.7446C29.6331 23.7932 29.583 23.8205 29.5298 23.8205V23.819Z"></path>
<path fill="#00452B" d="M33.6583 20.3555C33.5611 20.187 33.4488 20.0276 33.3212 19.8803C33.1937 19.733 33.1178 19.5933 33.0935 19.402C33.0479 19.0512 33.1512 18.705 33.0829 18.3543C33.0662 18.2708 32.9872 18.2176 32.9037 18.2328C32.8202 18.248 32.767 18.3285 32.7822 18.412C32.8065 18.5426 32.8095 18.6671 32.7701 18.7946C32.761 18.8219 32.7518 18.8493 32.7382 18.8751C32.7002 18.9465 32.6349 19.0026 32.5605 19.036C32.5545 19.0391 32.5484 19.0406 32.5423 19.0436C32.3388 19.1226 32.146 19.0102 31.9592 18.9434C31.7512 18.8675 31.5341 18.8144 31.3139 18.7855C31.2304 18.7749 31.153 18.8341 31.1423 18.9176C31.1317 19.0011 31.1909 19.0786 31.2744 19.0892C32.143 19.2015 32.9553 19.7466 33.3911 20.5104C33.4199 20.559 33.4716 20.5878 33.5232 20.5878C33.549 20.5878 33.5748 20.5818 33.5991 20.5681C33.672 20.5256 33.6978 20.433 33.6553 20.3601L33.6583 20.3555Z"></path>
<path fill="#00452B" d="M35.8903 22.2779C35.8691 22.2779 35.8493 22.2733 35.8281 22.2642C35.7506 22.2308 35.7157 22.1397 35.7506 22.0622C35.8599 21.8147 35.9161 21.5414 35.9116 21.2727C35.9116 21.1876 35.9784 21.1193 36.0619 21.1178C36.0619 21.1178 36.0619 21.1178 36.0634 21.1178C36.1469 21.1178 36.2152 21.1846 36.2168 21.2681C36.2213 21.5824 36.156 21.8998 36.03 22.1867C36.0042 22.2444 35.9495 22.2779 35.8903 22.2779Z"></path>
<path fill="#00452B" d="M27.1018 17.8851C27.0517 17.8851 27.0016 17.8608 26.9727 17.8152C26.9272 17.7439 26.9484 17.6497 27.0198 17.6042C27.3113 17.4174 27.6135 17.2246 27.9384 17.0758C28.3104 16.9042 28.6673 16.8146 28.9998 16.807C29.0833 16.8055 29.1547 16.8723 29.1562 16.9558C29.1577 17.0409 29.0909 17.1107 29.0074 17.1122C28.7174 17.1183 28.4015 17.2003 28.0675 17.3537C27.7623 17.4949 27.4692 17.6816 27.1853 17.8623C27.1595 17.879 27.1306 17.8866 27.1033 17.8866L27.1018 17.8851Z"></path>
<path fill="#00452B" d="M30.9996 27.0911C30.8204 27.0091 30.6322 26.9529 30.4408 26.9073C30.3027 26.8739 30.1827 26.8041 30.128 26.6659C30.0795 26.5444 30.0962 26.4093 30.1159 26.2833C30.1265 26.2104 30.1402 26.139 30.1478 26.0662C30.1554 25.9826 30.0931 25.9082 30.0096 25.9007C29.9261 25.8931 29.8517 25.9553 29.8441 26.0388C29.8168 26.3455 29.7029 26.6416 29.5237 26.8891C29.5161 26.8967 29.5101 26.9058 29.5055 26.9149C29.3962 27.0607 29.2641 27.1898 29.1122 27.293C29.0424 27.3401 29.0257 27.4357 29.0728 27.5056C29.1016 27.5481 29.1502 27.5724 29.1988 27.5724C29.2292 27.5724 29.2595 27.5633 29.2853 27.5451C29.3567 27.4965 29.4235 27.4433 29.4964 27.3963C29.5693 27.3492 29.6528 27.3112 29.7393 27.2869C29.9003 27.2414 30.0703 27.2399 30.2358 27.2459C30.4014 27.252 30.5684 27.2718 30.7293 27.3158C30.7794 27.3295 30.8265 27.3462 30.8736 27.3674C30.8948 27.3765 30.9161 27.3811 30.9373 27.3811C30.995 27.3811 31.0512 27.3477 31.077 27.2915C31.112 27.2141 31.077 27.1245 31.0011 27.0896L30.9996 27.0911Z"></path>
<path fill="#00452B" d="M34.996 25.1369C34.8928 24.9669 34.8335 24.7679 34.8168 24.5736C34.8001 24.3959 34.8275 24.2092 34.9125 24.0497C34.952 23.9753 34.9793 23.9116 35.0385 23.8493C35.1023 23.7825 35.1752 23.7248 35.242 23.661C35.4075 23.5001 35.5533 23.3148 35.6368 23.0977C35.6671 23.0188 35.6277 22.9307 35.5487 22.9003C35.4697 22.87 35.3817 22.9094 35.3513 22.9884C35.2587 23.2298 35.0689 23.4515 34.832 23.5623C34.7698 23.5912 34.7014 23.6124 34.6346 23.6064C34.5572 23.6003 34.4965 23.5593 34.4539 23.497C34.4023 23.4226 34.3598 23.3422 34.3082 23.2663C34.2626 23.2025 34.2155 23.1402 34.1639 23.0795C34.1062 23.0112 34.0379 22.9535 33.9878 22.8775C33.9377 22.8031 33.8997 22.7211 33.8769 22.6361C33.8253 22.4418 33.8663 22.2474 33.9012 22.0531C33.9301 21.8982 33.9271 21.7296 33.9104 21.5748C33.9012 21.4913 33.8253 21.4305 33.7418 21.4396C33.6583 21.4487 33.5976 21.5247 33.6067 21.6082C33.6279 21.8025 33.6203 22.0439 33.5034 22.211C33.4321 22.3127 33.3136 22.3765 33.1891 22.3856C33.1238 22.3917 33.0646 22.378 33.0008 22.3613C32.9234 22.3416 32.8399 22.3309 32.7594 22.3233C32.6607 22.3142 32.559 22.3142 32.4618 22.3309C32.3783 22.3446 32.3236 22.4251 32.3373 22.5071C32.3525 22.5906 32.4314 22.6467 32.5134 22.6316C32.5256 22.63 33.6507 22.4524 34.3203 23.9025C34.9869 25.348 34.2808 26.051 34.2505 26.0798C34.1882 26.1375 34.1852 26.2347 34.2429 26.2954C34.2732 26.3273 34.3142 26.344 34.3537 26.344C34.3917 26.344 34.4281 26.3304 34.4585 26.303C34.5739 26.1952 34.6377 26.051 34.747 25.9386C34.8077 25.8749 34.8867 25.8247 34.9747 25.8126C35.0309 25.805 35.0886 25.8141 35.1433 25.8308C35.3771 25.9037 35.488 26.1163 35.5851 26.3258C35.6929 26.5551 35.7567 26.8056 35.7613 27.0607L36.0665 27.0546C36.0817 27.0546 36.0224 26.6705 36.0148 26.6356C35.983 26.4959 35.9374 26.3607 35.8797 26.2302C35.7992 26.0495 35.6945 25.8794 35.5684 25.7276C35.5092 25.6562 35.4454 25.5864 35.3786 25.5226C35.3118 25.4588 35.2314 25.4117 35.1645 25.3495C35.0993 25.2888 35.0416 25.2174 34.9945 25.14L34.996 25.1369Z"></path>
<path fill="#D5ADD1" d="M15.7246 34.964C15.6927 35.0172 15.6836 35.0825 15.6836 35.1447C15.6836 35.3892 15.802 35.6215 15.9615 35.8067C15.9903 35.8401 16.0207 35.872 16.0586 35.8918C16.1118 35.9191 16.1771 35.9221 16.2317 35.8994C16.2864 35.8766 16.3289 35.8265 16.3441 35.7688C16.3547 35.7263 16.3517 35.6822 16.3471 35.6397C16.3213 35.4211 16.2363 35.2085 16.1057 35.0308C16.0192 34.9139 15.8278 34.797 15.7246 34.9671V34.964Z"></path>
<path fill="#D5ADD1" d="M20.052 30.9464C20.0034 30.998 19.9806 31.0694 19.9791 31.1392C19.9776 31.2091 19.9943 31.2789 20.0155 31.3457C20.0611 31.4854 20.134 31.6221 20.2539 31.7071C20.3192 31.7526 20.4012 31.78 20.4802 31.7678C20.5591 31.7557 20.632 31.6934 20.6457 31.6145C20.6533 31.5628 20.6366 31.5097 20.6183 31.4611C20.5773 31.3442 20.5303 31.2273 20.4574 31.1271C20.386 31.0284 20.1704 30.8219 20.0505 30.9464H20.052Z"></path>
<path fill="#D5ADD1" d="M19.1622 36.4495C19.4242 36.3876 19.5319 35.8948 19.4027 35.3488C19.2735 34.8029 18.9565 34.4105 18.6945 34.4725C18.4326 34.5345 18.3249 35.0273 18.4541 35.5732C18.5832 36.1192 18.9003 36.5115 19.1622 36.4495Z"></path>
<path fill="#D5ADD1" d="M22.8063 36.0095C23.0118 35.8703 22.9534 35.4254 22.6759 35.0158C22.3983 34.6062 22.0068 34.387 21.8013 34.5262C21.5958 34.6654 21.6542 35.1104 21.9317 35.52C22.2092 35.9296 22.6008 36.1487 22.8063 36.0095Z"></path>
<path fill="#D5ADD1" d="M23.4073 39.5558C23.5108 39.3961 23.3387 39.1005 23.0228 38.8957C22.7068 38.6908 22.3668 38.6542 22.2632 38.8139C22.1596 38.9737 22.3318 39.2692 22.6477 39.4741C22.9636 39.6789 23.3037 39.7155 23.4073 39.5558Z"></path>
<path fill="#D5ADD1" d="M27.8206 42.0678C27.8649 41.9296 27.6788 41.7464 27.405 41.6585C27.1311 41.5706 26.8731 41.6114 26.8288 41.7495C26.7845 41.8876 26.9706 42.0709 27.2444 42.1588C27.5183 42.2466 27.7763 42.2059 27.8206 42.0678Z"></path>
<path fill="#D5ADD1" d="M18.7359 39.57C18.819 39.4419 18.6975 39.2157 18.4646 39.0647C18.2317 38.9137 17.9756 38.8951 17.8925 39.0231C17.8095 39.1512 17.931 39.3774 18.1639 39.5284C18.3968 39.6795 18.6529 39.6981 18.7359 39.57Z"></path>
<path fill="#D5ADD1" d="M22.8743 41.8224C22.9189 41.7111 22.7917 41.5553 22.5901 41.4745C22.3885 41.3937 22.1889 41.4184 22.1443 41.5297C22.0997 41.641 22.2269 41.7967 22.4285 41.8776C22.6301 41.9584 22.8297 41.9337 22.8743 41.8224Z"></path>
<path fill="#D5ADD1" d="M25.7696 42.93C25.7999 42.8545 25.7134 42.7488 25.5764 42.6939C25.4394 42.6389 25.3038 42.6556 25.2736 42.7311C25.2433 42.8066 25.3298 42.9123 25.4668 42.9673C25.6038 43.0222 25.7394 43.0055 25.7696 42.93Z"></path>
<path fill="#D5ADD1" d="M27.9535 40.0369C28.0998 39.8364 27.8944 39.4374 27.4947 39.1457C27.0951 38.8541 26.6525 38.7802 26.5061 38.9807C26.3598 39.1812 26.5652 39.5802 26.9649 39.8718C27.3645 40.1635 27.8071 40.2374 27.9535 40.0369Z"></path>
<path fill="#D5ADD1" d="M28.2232 32.3637C28.3737 32.1663 28.1768 31.7631 27.7833 31.4632C27.3898 31.1632 26.9488 31.0801 26.7984 31.2775C26.6479 31.4749 26.8448 31.8781 27.2383 32.178C27.6318 32.478 28.0727 32.5611 28.2232 32.3637Z"></path>
<path fill="#D5ADD1" d="M32.3206 21.2729C32.5545 21.107 32.5122 20.6453 32.226 20.2417C31.9398 19.8381 31.5181 19.6454 31.2842 19.8113C31.0503 19.9772 31.0926 20.4389 31.3788 20.8425C31.665 21.2461 32.0866 21.4388 32.3206 21.2729Z"></path>
<path fill="#D5ADD1" d="M18.0822 32.7318C18.1613 32.6234 18.0985 32.443 17.9421 32.3288C17.7856 32.2146 17.5946 32.2099 17.5155 32.3183C17.4364 32.4267 17.4992 32.6071 17.6556 32.7213C17.8121 32.8355 18.0031 32.8402 18.0822 32.7318Z"></path>
<path fill="#D5ADD1" d="M25.2984 29.1668C25.4867 29.1115 25.5706 28.8326 25.4858 28.5437C25.401 28.2548 25.1796 28.0655 24.9913 28.1207C24.803 28.176 24.7191 28.455 24.8039 28.7439C24.8887 29.0327 25.1101 29.2221 25.2984 29.1668Z"></path>
<path fill="#D5ADD1" d="M31.5313 29.0425C31.6884 28.8854 31.5894 28.5316 31.3101 28.2523C31.0308 27.973 30.677 27.874 30.5199 28.0312C30.3627 28.1883 30.4618 28.5421 30.741 28.8214C31.0203 29.1007 31.3741 29.1997 31.5313 29.0425Z"></path>
<path fill="#D5ADD1" d="M32.6411 23.5594C32.6077 23.6915 32.6472 23.8312 32.7094 23.9512C32.7717 24.0711 32.8552 24.1804 32.9189 24.2989C32.9812 24.4173 33.0252 24.5448 33.0829 24.6648C33.1406 24.7848 33.2181 24.9017 33.3304 24.973C33.3745 25.0019 33.4261 25.0231 33.4792 25.0247C33.543 25.0247 33.6037 24.9973 33.6538 24.9563C33.7161 24.9062 33.7632 24.8379 33.7844 24.762C33.8026 24.6952 33.7996 24.6253 33.792 24.557C33.7541 24.1728 33.5855 23.8039 33.3213 23.5214C33.2181 23.4121 33.092 23.3165 32.9356 23.3225C32.7944 23.3271 32.676 23.4182 32.6396 23.5594H32.6411Z"></path>
<path fill="#D5ADD1" d="M36.4096 23.2269C36.3838 23.3301 36.4156 23.441 36.4642 23.5351C36.5128 23.6292 36.5796 23.7158 36.6297 23.8099C36.6798 23.9026 36.7133 24.0028 36.7588 24.0984C36.8044 24.1941 36.8651 24.2852 36.9547 24.3414C36.9896 24.3642 37.0306 24.3809 37.0716 24.3809C37.1217 24.3809 37.1703 24.3581 37.2082 24.3277C37.2568 24.2882 37.2948 24.2351 37.3115 24.1744C37.3252 24.1227 37.3236 24.0665 37.3176 24.0134C37.2872 23.7112 37.1551 23.4197 36.9471 23.198C36.8666 23.1115 36.7664 23.0356 36.6419 23.0401C36.5295 23.0447 36.4369 23.116 36.4096 23.2269Z"></path>
<path fill="#D5ADD1" d="M34.5315 20.1658C34.5528 20.2675 34.6302 20.3449 34.691 20.4285C34.7502 20.5074 34.7972 20.594 34.8322 20.6851C34.8701 20.7853 34.9081 20.9068 35.0098 20.9402C35.1024 20.9705 35.2042 20.9037 35.2452 20.8156C35.2862 20.7276 35.2786 20.6243 35.2604 20.5302C35.2224 20.3191 35.1343 20.1081 34.9734 19.9669C34.8899 19.894 34.7593 19.8181 34.653 19.8818C34.5589 19.938 34.5072 20.0595 34.53 20.1658H34.5315Z"></path>
<path fill="#D5ADD1" d="M30.4819 17.5085C30.4713 17.5708 30.4849 17.6361 30.5122 17.6938C30.5836 17.8456 30.7324 17.9443 30.8858 18.0111C30.9693 18.0476 31.0558 18.0764 31.1409 18.1083C31.2213 18.1387 31.2957 18.1842 31.3808 18.21C31.44 18.2283 31.5022 18.2389 31.5645 18.2298C31.6267 18.2207 31.686 18.1873 31.7148 18.1326C31.7528 18.0628 31.7346 17.9747 31.7027 17.9003C31.5736 17.5981 31.2745 17.4858 30.9845 17.384C30.8038 17.3203 30.5305 17.2413 30.4834 17.507L30.4819 17.5085Z"></path>
<path fill="#D5ADD1" d="M27.0048 16.9559C26.9821 16.9179 26.9441 16.8815 26.9046 16.8617C26.8682 16.842 26.8257 16.8359 26.7832 16.8314C26.7088 16.8207 26.6328 16.8116 26.5569 16.8192C26.5296 16.8222 26.5023 16.8268 26.4764 16.8329C26.4218 16.845 26.3671 16.8617 26.3246 16.8966C26.273 16.9392 26.2183 17.0424 26.2548 17.1077C26.2912 17.173 26.3808 17.2049 26.4537 17.2094C26.5311 17.214 26.6101 17.1988 26.6875 17.2003C26.7406 17.2003 26.7938 17.211 26.8454 17.2094C26.897 17.2079 26.9532 17.1927 26.9897 17.1548C27.0382 17.1031 27.0398 17.0181 27.0048 16.9574V16.9559Z"></path>
</g>
<path fill="#00452B" d="M27.7836 22.6559C28.2042 22.4995 28.523 22.1487 28.7872 21.7858C29.2974 21.0843 29.674 20.2796 29.8501 19.4293C30.0263 18.579 29.9989 17.6831 29.7362 16.8556C29.5206 17.6907 29.1744 18.4605 28.7402 19.2045C28.438 19.7223 28.0782 20.2204 27.5923 20.5696C27.1838 20.8642 26.7025 21.0403 26.2667 21.2939C25.8309 21.5474 25.4195 21.9134 25.301 22.4023C25.2813 22.4858 25.2706 22.5799 25.3192 22.6513C25.3693 22.7257 25.465 22.7515 25.5516 22.7713C25.916 22.8548 26.2971 22.9383 26.6569 22.8396C26.8224 22.7955 26.9788 22.7136 27.1489 22.7029C27.3296 22.6923 27.6135 22.7166 27.7821 22.6543L27.7836 22.6559Z"></path>
<path fill="#62BB46" d="M21.3472 21.1101C21.3654 21.101 21.376 21.0797 21.373 21.06C21.3381 20.8186 21.1634 19.3594 21.8164 17.9579C22.4586 16.5807 22.8868 14.7131 22.3751 13.4604C22.3053 13.2904 22.4753 13.1218 22.6454 13.1932C23.2467 13.4483 24.2655 14.1771 24.8501 16.2391C25.2191 17.7271 25.0915 19.0421 25.0915 19.0421C25.0915 19.0421 25.3572 18.6959 27.2021 18.2236C28.347 17.9306 28.9407 16.9133 29.2276 16.1844C29.3111 15.9703 29.6239 16.0053 29.6604 16.233C29.7955 17.0742 29.8471 18.4514 29.1988 19.8848C28.2619 21.9528 26.2987 22.3233 25.8856 22.378C25.8431 22.384 25.8143 22.422 25.8219 22.4645C25.8295 22.5116 25.8796 22.5404 25.9236 22.5222C26.4353 22.3157 29.1517 21.4882 31.9091 25.8232C32.0139 25.9887 31.8347 26.1861 31.6586 26.1011C31.1135 25.8369 30.2525 25.5803 29.132 25.7518C27.5194 25.9993 24.7347 28.0234 22.9597 25.0883C22.9384 25.0534 22.8929 25.0397 22.8565 25.0579C22.8109 25.0807 22.7988 25.1384 22.8291 25.1779C23.0842 25.4998 24.012 26.8648 23.7948 29.4021C23.6187 31.4671 24.0302 32.3872 24.5145 32.8655C24.68 33.028 24.5616 33.3089 24.3293 33.2998C23.3484 33.2588 21.6888 32.9931 20.673 31.7556C19.188 29.9487 19.0772 27.9155 19.8986 26.7616C19.926 26.7236 19.9199 26.6735 19.885 26.6431C19.8516 26.6143 19.8014 26.6158 19.7696 26.6447C19.6542 26.7525 19.39 27.1154 19.0301 28.3301C18.5366 29.9912 16.7555 31.2621 16.0024 31.8937C15.3935 32.4039 14.9714 32.7 14.9198 33.2345C14.9077 33.359 14.7482 33.4015 14.6799 33.2967C14.2836 32.6879 13.6049 31.3319 13.7962 29.3854C14.0604 26.7206 15.9994 25.6319 17.5375 25.1369C17.577 25.1247 17.5967 25.0807 17.58 25.0427C17.5649 25.0063 17.5223 24.9911 17.4859 25.0078C17.1534 25.1673 15.5591 25.8338 13.5715 25.0974C12.208 24.5918 11.7312 23.5699 11.5687 22.8471C11.5292 22.6756 11.7327 22.5511 11.8678 22.6649C12.1381 22.8912 12.5845 23.0248 13.3118 22.7181C14.8515 22.0697 16.4261 21.2817 18.5609 22.2246C18.5609 22.2246 16.502 18.7217 16.502 18.6959C16.502 18.67 16.8132 17.2336 16.8299 17.2261C16.8466 17.2185 19.762 17.2519 20.6958 19.1377C21.0663 19.8711 21.2333 20.8216 21.2743 21.0782C21.2788 21.1116 21.3153 21.1283 21.3441 21.1147L21.3472 21.1101Z"></path>
<path fill="#00452B" d="M13.2678 16.1647C13.2678 16.1647 13.8964 19.1575 19.2123 23.3543L21.4262 22.4205C21.4262 22.4205 20.8355 22.6695 18.1403 17.923C17.284 16.4168 17.0911 15.0517 16.4762 13.9797L13.2678 16.1647Z"></path>
<path fill="white" d="M16.865 16.0068C17.3326 17.1061 17.8398 18.1872 18.4001 19.244C18.5853 19.5963 18.7736 19.947 18.9619 20.2993C19.0226 20.4102 18.9801 20.5498 18.8692 20.6106C18.766 20.6668 18.6369 20.6334 18.5716 20.5377C18.3424 20.2021 18.1283 19.8559 17.9263 19.5037C17.3281 18.4423 16.8224 17.3248 16.4368 16.1693C16.3517 15.8914 16.7435 15.7426 16.865 16.0068Z"></path>
<path fill="white" d="M19.2458 20.9324C19.2215 20.9734 19.2184 21.0251 19.2306 21.0706C19.2427 21.1162 19.2716 21.1572 19.3065 21.1891C19.349 21.2285 19.4037 21.2559 19.4614 21.2528C19.5191 21.2498 19.5752 21.2088 19.5844 21.1526C19.5919 21.1071 19.5707 21.0615 19.5479 21.0205C19.5236 20.9765 19.4963 20.9324 19.4568 20.9021C19.3961 20.8565 19.2883 20.8611 19.2473 20.9324H19.2458Z"></path>
<path fill="#00452B" d="M31.6403 25.7215C31.364 25.4619 31.0755 25.2174 30.7687 24.9927C30.462 24.768 30.1401 24.5645 29.8076 24.3808C29.4751 24.197 29.1304 24.0346 28.7766 23.8949C28.4228 23.7537 28.0615 23.6352 27.694 23.5381C27.3266 23.4409 26.9515 23.3665 26.5749 23.3149C26.1984 23.2632 25.8173 23.2344 25.4362 23.2298C24.967 23.2237 24.4993 23.2572 24.0347 23.3209C23.9527 23.3316 23.8692 23.3437 23.7872 23.3574C23.6915 23.3726 23.5989 23.3923 23.5048 23.3589C23.3317 23.2966 23.2451 23.1099 23.239 22.9353C23.2314 22.75 23.3043 22.5678 23.3969 22.4114C23.4592 22.3066 23.5321 22.2095 23.6156 22.1214C23.6824 22.05 23.7568 21.9878 23.8373 21.9316C24.0726 21.7661 24.3399 21.6416 24.6026 21.5292C24.8258 21.4336 25.0535 21.3485 25.2813 21.262C27.4966 20.4284 29.4766 18.8796 29.507 16.3226C29.507 16.309 29.4963 16.2968 29.4827 16.2968C29.469 16.2968 29.4569 16.3075 29.4569 16.3211C29.4204 17.5677 28.8176 18.7475 27.8777 19.5492C27.2203 20.1247 26.4398 20.5423 25.629 20.8642C25.2312 21.0221 24.8212 21.1466 24.4234 21.306C24.0286 21.4639 23.6338 21.6583 23.3165 21.9437C23.2664 21.9893 23.2193 22.05 23.154 22.0774C23.0933 22.1032 23.0098 22.0956 22.9824 22.0273C22.9597 21.9711 22.9688 21.8997 22.9915 21.8466C23.0568 21.6841 23.1115 21.5156 23.1646 21.3485C23.2117 21.2043 23.2557 21.06 23.2967 20.9158C23.3514 20.7199 23.4015 20.524 23.4455 20.3251C23.7598 18.9555 23.8312 17.5328 23.6627 16.1389C23.5351 15.158 23.3271 14.1149 22.6453 13.3557C22.6362 13.3451 22.621 13.3451 22.6104 13.3542C22.5998 13.3633 22.5983 13.38 22.6074 13.3906C22.864 13.6913 23.0508 14.0451 23.1844 14.4155C23.3863 14.9728 23.4713 15.5665 23.5321 16.1556C23.6611 17.5313 23.5549 18.9312 23.2087 20.2705C23.1236 20.6076 23.0234 20.9386 22.9065 21.265C22.8033 21.5581 22.7122 21.8557 22.5041 22.0941C22.4358 22.1715 22.3584 22.2413 22.2733 22.3006C22.1382 22.3962 21.9818 22.4646 21.8148 22.4721C21.4003 22.4919 21.1998 22.2171 21.13 22.0925C20.7458 21.2058 20.1931 20.3935 19.5023 19.7193C19.2001 19.4293 18.8843 19.1302 18.4865 18.9783C18.4743 18.9738 18.4607 18.9783 18.4546 18.992C18.4485 19.0041 18.4546 19.0193 18.4667 19.0254C18.8402 19.2015 19.1227 19.5158 19.3945 19.8195C20.0033 20.5134 20.474 21.3258 20.7762 22.1958L18.9389 23.1357C18.9389 23.1357 19.2365 23.3695 19.1819 23.5396C19.1515 23.6322 19.0574 23.6671 18.9678 23.6747C18.8129 23.6869 18.6656 23.6459 18.5138 23.6201C18.4288 23.6049 18.3422 23.5912 18.2572 23.5806C18.0856 23.5578 17.9125 23.5426 17.7409 23.5335C17.3947 23.5168 17.0485 23.5289 16.7039 23.5699C16.5353 23.5897 16.3668 23.617 16.2013 23.6519C15.6881 23.7567 15.184 23.9389 14.6677 23.9905C13.6337 24.0953 12.5693 23.6732 11.8784 22.8912C11.8693 22.8806 11.8541 22.8791 11.8435 22.8882C11.8329 22.8973 11.8313 22.9125 11.8405 22.9246C12.5192 23.7476 13.6109 24.2168 14.6814 24.1409C15.0397 24.1166 15.3874 24.0331 15.7291 23.9541C16.4047 23.7871 17.0926 23.7203 17.7834 23.784C18.1205 23.8144 18.4531 23.8751 18.7795 23.9617C18.9314 24.0027 19.0802 24.0482 19.229 24.1014C19.3018 24.1272 19.3747 24.1545 19.4461 24.1834C19.5311 24.2168 19.604 24.2912 19.6207 24.3838C19.6374 24.4871 19.5812 24.5964 19.5114 24.6693C19.3641 24.8241 19.1409 24.8682 18.9511 24.9456C18.6535 25.0686 18.365 25.2113 18.0886 25.3723C17.8396 25.518 17.5982 25.6775 17.3689 25.8521C15.4983 27.2733 14.5963 29.4097 14.5827 31.7252C14.572 32.1701 14.5781 32.6287 14.7254 33.0538C14.73 33.0675 14.7436 33.0736 14.7573 33.069C14.771 33.0645 14.7785 33.0508 14.774 33.0371C14.6404 32.6165 14.6464 32.1671 14.6662 31.7268C14.6859 31.2849 14.7315 30.8431 14.8104 30.4088C15.1065 28.6778 16.0889 27.0698 17.5162 26.048C17.791 25.8491 18.0795 25.6714 18.3817 25.518C18.5214 25.4467 18.6641 25.3799 18.8084 25.3161C19.109 25.184 19.4324 25.1476 19.7589 25.1916C19.853 25.2053 19.9472 25.225 20.0383 25.2523C20.1339 25.2812 20.2265 25.3176 20.3131 25.3647C20.5257 25.4801 20.6805 25.6729 20.7792 25.8916C20.8612 26.0723 20.9068 26.2651 20.9098 26.4625C20.9129 26.7479 20.9341 27.0319 20.966 27.3158C20.9979 27.5967 21.0434 27.8761 21.1027 28.1525C21.1619 28.4288 21.2332 28.7021 21.3198 28.9709C21.4063 29.2396 21.505 29.5023 21.6174 29.7604C21.7298 30.0186 21.8573 30.2676 21.997 30.5105C22.1367 30.7535 22.2916 30.9873 22.4586 31.212C22.6271 31.4367 22.8078 31.6524 23.0037 31.8543C23.2011 32.0593 23.4106 32.2506 23.6323 32.4283C23.6323 32.4283 23.6338 32.4298 23.6353 32.4313C23.646 32.4404 23.6611 32.4389 23.6703 32.4283C23.6794 32.4176 23.6779 32.4009 23.6672 32.3918C23.1646 31.9576 22.7334 31.4474 22.3796 30.8886C22.2096 30.6229 22.0592 30.345 21.9256 30.058C21.792 29.7711 21.6796 29.4795 21.584 29.1804C21.4883 28.8813 21.4109 28.5761 21.3517 28.2663C21.2925 27.9566 21.2499 27.6453 21.2241 27.331C21.2105 27.1534 21.1998 26.9757 21.1953 26.798C21.1922 26.6644 21.1846 26.5308 21.1953 26.3972C21.2059 26.2636 21.2363 26.13 21.2773 26.0024C21.379 25.6911 21.5369 25.389 21.7343 25.1278C21.7723 25.0777 21.8102 25.0291 21.8512 24.9836C21.871 24.9608 21.8922 24.938 21.912 24.9168C21.9879 24.8363 22.0684 24.7604 22.1549 24.6905C22.4616 24.443 22.8033 24.2411 23.1586 24.071C23.5731 23.8736 23.9982 23.7127 24.4568 23.6595C24.4856 23.6565 24.516 23.6474 24.5449 23.6474C24.7347 23.6216 24.926 23.6033 25.1173 23.5897C25.4999 23.5639 25.8841 23.5639 26.2667 23.5882C26.6493 23.6125 27.0305 23.661 27.4085 23.7324C27.7866 23.8038 28.1586 23.901 28.523 24.0194C28.889 24.1378 29.2458 24.2806 29.5935 24.4445C29.9412 24.6085 30.2783 24.7953 30.6017 25.0048C30.9267 25.2144 31.2364 25.4436 31.5295 25.6942C31.5553 25.717 31.5826 25.7397 31.6084 25.7625C31.619 25.7716 31.6342 25.7701 31.6433 25.761C31.6525 25.7504 31.6525 25.7352 31.6433 25.7245L31.6403 25.7215Z"></path>
<path fill="white" d="M24.1912 16.5094C24.2003 16.5838 24.2292 16.6612 24.2444 16.7295C24.2717 16.8525 24.2945 16.9755 24.3127 17.0985C24.3491 17.3506 24.3658 17.6057 24.3567 17.8607C24.34 18.3163 24.2398 18.7718 24.0348 19.1787C23.9832 19.2835 23.924 19.3852 23.8875 19.4961C23.8511 19.6069 23.8435 19.7314 23.8921 19.8392C23.9407 19.947 24.0561 20.026 24.1715 20.0078C24.2322 19.9986 24.2869 19.9637 24.3339 19.9242C24.4918 19.7952 24.6012 19.5735 24.6452 19.3776C24.8396 18.5076 24.8183 17.592 24.586 16.7311C24.5587 16.6324 24.4205 16.1753 24.2489 16.3089C24.217 16.3332 24.2018 16.3727 24.1942 16.4122C24.1882 16.4441 24.1882 16.476 24.1942 16.5079L24.1912 16.5094Z"></path>
<path fill="white" d="M23.7068 20.2264C23.6384 20.2871 23.6081 20.3783 23.5853 20.4678C23.5671 20.5422 23.5534 20.6182 23.5671 20.6941C23.5807 20.77 23.6293 20.8414 23.7022 20.8657C23.7766 20.8899 23.8616 20.8581 23.9163 20.8019C23.971 20.7457 24.0029 20.6713 24.0256 20.5954C24.0484 20.524 24.0651 20.4481 24.056 20.3737C24.0363 20.2006 23.8495 20.0989 23.7068 20.2264Z"></path>
<path fill="white" d="M14.5948 27.9004C14.5887 27.8078 14.6176 27.7167 14.6525 27.6301C14.8347 27.1761 15.1794 26.8102 15.5408 26.4807C15.6379 26.3926 15.7366 26.3061 15.8475 26.2362C15.8991 26.2028 15.9553 26.174 16.0175 26.1664C16.0798 26.1588 16.1512 26.1801 16.1785 26.2362C16.2119 26.3091 16.1588 26.3896 16.1056 26.4503C15.8854 26.7069 15.6531 26.9575 15.4876 27.2536C15.392 27.4236 15.3191 27.6058 15.2128 27.7698C15.1293 27.8989 15.02 28.0173 14.8803 28.0857C14.8256 28.113 14.7558 28.1494 14.6996 28.113C14.6343 28.072 14.6009 27.9733 14.5963 27.9004H14.5948Z"></path>
<path fill="white" d="M14.32 28.5138C14.235 28.5761 14.1879 28.6778 14.1606 28.7796C14.1408 28.854 14.1317 28.9314 14.1332 29.0088C14.1332 29.1136 14.1636 29.232 14.2577 29.2791C14.3336 29.3171 14.4278 29.2928 14.4931 29.2396C14.5584 29.1865 14.5994 29.1091 14.6328 29.0331C14.6707 28.9451 14.7026 28.8509 14.7057 28.7553C14.7117 28.5381 14.5234 28.3681 14.3215 28.5169L14.32 28.5138Z"></path>
<path fill="#62BB46" d="M15.3475 15.7487C16.2238 15.1273 16.7293 14.3347 16.4766 13.9783C16.2239 13.6219 15.3086 13.8367 14.4324 14.4581C13.5561 15.0794 13.0506 15.872 13.3033 16.2284C13.556 16.5848 14.4712 16.37 15.3475 15.7487Z"></path>
<path fill="#00452B" d="M28.7948 45.1174C28.7781 45.0476 26.8573 43.3364 27.8777 41.2607C27.8777 41.2607 27.3417 39.8076 28.0341 38.6142C28.0341 38.6142 26.9864 35.7322 29.4128 34.0468C29.4128 34.0468 29.3171 32.5968 30.8279 31.8482C30.8279 31.8482 30.8887 29.7118 33.2407 29.1925C33.2407 29.1925 33.8176 27.3826 36.1818 26.7646C36.1818 26.7646 36.862 25.3935 38.3091 25.2948L38.7843 26.385C38.7843 26.385 31.2698 46.9699 31.2349 46.9C31.1999 46.8302 28.7963 45.119 28.7963 45.119L28.7948 45.1174Z"></path>
<path fill="#D21774" d="M28.6308 38.1981C28.6308 38.1981 27.4115 35.594 29.7028 34.0635C29.7028 34.0635 29.6678 32.5588 31.0526 31.9013C31.0526 31.9013 31.1483 29.7254 33.3788 29.3792C33.3788 29.3792 34.0621 27.4251 36.285 26.9073C36.285 26.9073 37.3114 24.774 39.9231 25.5696C39.9231 25.5696 41.3367 25.1718 42.521 25.7685C42.521 25.7685 44.7789 25.5271 45.8676 27.463C45.8676 27.463 48.4974 27.8092 48.877 29.9714C48.877 29.9714 50.1829 30.4907 50.0705 32.246C50.0705 32.246 51.6618 33.1889 51.0225 35.1689C51.0225 35.1689 52.6837 36.5187 51.7665 38.5853C51.7665 38.5853 52.4756 40.5577 50.6946 42.1398C50.6946 42.1398 50.9284 44.1547 48.5749 45.1326C48.5749 45.1326 48.1512 47.0868 45.1676 47.0442C45.1676 47.0442 44.3811 47.8657 42.3996 47.6577C42.3996 47.6577 40.6443 49.2489 37.4086 48.0813C37.4086 48.0813 34.3384 48.8162 33.1617 46.3169C33.1617 46.3169 30.9479 46.2911 30.2555 44.3187C30.2555 44.3187 28.482 43.5656 28.8631 41.4991C28.8631 41.4991 27.4191 39.7954 28.6293 38.195L28.6308 38.1981Z"></path>
<mask height="24" width="25" y="25" x="28" maskUnits="userSpaceOnUse" style="mask-type:luminance" id="mask1_8241_13886">
<path fill="white" d="M28.6308 38.1981C28.6308 38.1981 27.4115 35.594 29.7028 34.0635C29.7028 34.0635 29.6678 32.5588 31.0526 31.9013C31.0526 31.9013 31.1483 29.7254 33.3788 29.3792C33.3788 29.3792 34.0621 27.4251 36.285 26.9073C36.285 26.9073 37.3114 24.774 39.9231 25.5696C39.9231 25.5696 41.3367 25.1718 42.521 25.7685C42.521 25.7685 44.7789 25.5271 45.8676 27.463C45.8676 27.463 48.4974 27.8092 48.877 29.9714C48.877 29.9714 50.1829 30.4907 50.0705 32.246C50.0705 32.246 51.6618 33.1889 51.0225 35.1689C51.0225 35.1689 52.6837 36.5187 51.7665 38.5853C51.7665 38.5853 52.4756 40.5577 50.6946 42.1398C50.6946 42.1398 50.9284 44.1547 48.5749 45.1326C48.5749 45.1326 48.1512 47.0868 45.1676 47.0442C45.1676 47.0442 44.3811 47.8657 42.3996 47.6577C42.3996 47.6577 40.6443 49.2489 37.4086 48.0813C37.4086 48.0813 34.3384 48.8162 33.1617 46.3169C33.1617 46.3169 30.9479 46.2911 30.2555 44.3187C30.2555 44.3187 28.482 43.5656 28.8631 41.4991C28.8631 41.4991 27.4191 39.7954 28.6293 38.195L28.6308 38.1981Z"></path>
</mask>
<g mask="url(#mask1_8241_13886)">
<path fill="#00452B" d="M48.5883 30.5637C48.558 30.5637 48.5291 30.5561 48.5018 30.5378C48.4319 30.4938 48.4077 30.4042 48.4471 30.3313C48.4562 30.3162 48.4654 30.304 48.4745 30.2934C48.6005 30.0125 48.6369 29.6891 48.6719 29.3763C48.681 29.2928 48.7569 29.232 48.8404 29.2411C48.9239 29.2502 48.9846 29.3262 48.9755 29.4097C48.9391 29.7422 48.8966 30.1173 48.7371 30.4528C48.7371 30.4528 48.7371 30.4559 48.7356 30.4574C48.7311 30.4726 48.7235 30.4877 48.7128 30.4999C48.6825 30.5409 48.6354 30.5621 48.5868 30.5621L48.5883 30.5637Z"></path>
<path fill="#00452B" d="M49.9916 32.8412C49.9582 32.8412 49.9232 32.8306 49.8944 32.8063C49.8291 32.7531 49.82 32.6559 49.8731 32.5906C49.9779 32.4616 50.0295 32.287 50.0781 32.1154C50.1009 32.0349 50.1859 31.9878 50.2679 32.0106C50.3484 32.0334 50.3955 32.1184 50.3727 32.2004C50.318 32.3902 50.2543 32.6058 50.11 32.7835C50.0796 32.8199 50.0356 32.8397 49.9916 32.8397V32.8412Z"></path>
<path fill="#00452B" d="M51.2472 35.1856C51.2244 35.1856 51.2031 35.1811 51.1819 35.1704C51.0088 35.0869 50.8159 35.0474 50.6231 35.055C50.5411 35.0565 50.4682 34.9928 50.4652 34.9077C50.4622 34.8227 50.5274 34.7529 50.6125 34.7498C50.8539 34.7407 51.0968 34.7908 51.3155 34.8956C51.3914 34.932 51.4233 35.0231 51.3869 35.0991C51.361 35.1537 51.3064 35.1856 51.2487 35.1856H51.2472Z"></path>
<path fill="#00452B" d="M37.41 36.4535C37.3918 36.4535 37.3721 36.4504 37.3538 36.4428C37.2749 36.4125 37.2369 36.3229 37.2673 36.2454C37.5588 35.5029 38.1814 34.9017 38.9345 34.6375C39.0134 34.6086 39.1015 34.6511 39.1288 34.7316C39.1562 34.8106 39.1152 34.8986 39.0347 34.926C38.3651 35.1613 37.8093 35.6958 37.5512 36.3578C37.5269 36.4185 37.4692 36.455 37.4085 36.455L37.41 36.4535Z"></path>
<path fill="#00452B" d="M38.5261 35.134C38.2315 35.134 37.9294 35.0171 37.6743 34.8045C37.4678 34.633 37.2932 34.4037 37.1383 34.1045C37.1003 34.0301 37.1292 33.9375 37.2036 33.898C37.278 33.8601 37.3706 33.8889 37.4101 33.9633C37.5452 34.226 37.6955 34.4234 37.8701 34.5692C38.0706 34.7362 38.3029 34.8273 38.5261 34.8273C38.6111 34.8273 38.6795 34.8956 38.6795 34.9791C38.6795 35.0642 38.6111 35.1325 38.5276 35.1325L38.5261 35.134Z"></path>
<path fill="#00452B" d="M38.0144 39.0013C37.6014 38.523 37.3903 37.8868 37.4359 37.2582C37.4389 37.2142 37.4222 37.1717 37.3919 37.1398C37.1489 36.8953 36.7754 36.7025 36.4155 36.6372C36.332 36.622 36.2531 36.6767 36.2379 36.7602C36.2227 36.8437 36.2774 36.9226 36.3609 36.9378C36.5142 36.9667 36.6691 37.0107 36.8058 37.0866C36.9424 37.1625 37.0381 37.2855 37.0943 37.4283C37.1383 37.5376 37.1595 37.656 37.1808 37.7714C37.193 37.8367 37.2036 37.9035 37.2081 37.9688C37.2248 38.2239 37.1155 38.4699 36.9758 38.6779C36.8878 38.8085 36.7754 38.9178 36.6964 39.0545C36.6904 39.0636 36.6858 39.0727 36.6813 39.0818C36.6403 39.1562 36.6691 39.2488 36.742 39.2883C36.7648 39.3004 36.7906 39.3065 36.8149 39.3065C36.8695 39.3065 36.9212 39.2777 36.95 39.226C37.0366 39.0681 37.158 38.9284 37.3493 38.9072C37.4359 38.8981 37.5255 38.9193 37.5953 38.9709C37.6333 38.9983 37.6515 39.0332 37.6788 39.0712C37.7122 39.1152 37.7472 39.1577 37.7821 39.2002C37.8125 39.2351 37.855 39.2534 37.8975 39.2534C37.9324 39.2534 37.9689 39.2412 37.9977 39.2169C38.0615 39.1623 38.0691 39.0651 38.0144 39.0013Z"></path>
<path fill="#00452B" d="M37.7744 43.3622C37.6483 43.3653 37.5162 43.3379 37.4024 43.3121C37.0546 43.2347 36.6614 43.1208 36.3805 42.8612C36.2545 42.7443 36.1482 42.5939 36.0464 42.4497C35.9978 42.3814 35.9022 42.3647 35.8339 42.4132C35.7655 42.4618 35.7488 42.5575 35.7974 42.6258C35.8506 42.7017 35.9052 42.7777 35.9614 42.8505C36.0237 42.9295 36.0965 43.0009 36.1436 43.0889C36.2347 43.2605 36.2089 43.4776 36.1208 43.6447C36.0981 43.6872 36.0647 43.7221 36.0343 43.7601C35.9781 43.8329 35.9174 43.9028 35.8521 43.9681C35.7686 44.0501 35.6775 44.1245 35.5833 44.1867C35.1567 44.4676 34.5918 44.542 34.1074 44.3811C34.027 44.3538 33.9404 44.3978 33.9146 44.4783C33.8873 44.5587 33.9313 44.6453 34.0118 44.6711C34.2122 44.7379 34.4233 44.7713 34.6358 44.7713C34.7512 44.7713 34.8666 44.7622 34.9805 44.7425C35.0747 44.7273 35.1642 44.7075 35.2462 44.7713C35.3237 44.8305 35.3343 44.9125 35.3298 45.0036C35.3237 45.1099 35.3282 45.2177 35.3404 45.324C35.3632 45.5366 35.4209 45.7446 35.5104 45.939C35.5363 45.9951 35.5909 46.027 35.6486 46.027C35.6699 46.027 35.6926 46.0225 35.7124 46.0134C35.7883 45.9784 35.8217 45.8873 35.7868 45.8099C35.7002 45.6231 35.6501 45.4212 35.6365 45.2177C35.6137 44.8822 35.7488 44.5633 35.9538 44.3021C36.0358 44.1974 36.1284 44.1002 36.2256 44.0091C36.3638 43.877 36.4974 43.7525 36.675 43.675C36.839 43.6021 37.0243 43.5672 37.205 43.5854C37.3932 43.6037 37.5694 43.672 37.7622 43.672C37.7683 43.672 37.7744 43.672 37.7804 43.672C37.8655 43.672 37.9323 43.6006 37.9308 43.5171C37.9308 43.4321 37.8624 43.3653 37.7759 43.3668L37.7744 43.3622Z"></path>
<path fill="#00452B" d="M40.9493 39.5404C40.9174 39.463 40.8279 39.425 40.7504 39.4569C40.348 39.6224 39.9487 39.7059 39.5676 39.7014C39.1485 39.6983 38.7552 39.592 38.4318 39.3916C38.3605 39.3476 38.2663 39.3704 38.2223 39.4417C38.1783 39.5131 38.1995 39.6072 38.2724 39.6513C38.3969 39.7272 38.5275 39.7925 38.6641 39.8441C38.8008 39.8957 38.9496 39.917 39.0863 39.9747C39.1273 39.9914 39.1682 40.0096 39.2062 40.0339C39.3322 40.1144 39.4082 40.2556 39.44 40.4013C39.4871 40.6139 39.4583 40.8356 39.4643 41.0497C39.4704 41.2638 39.5008 41.4855 39.5494 41.698C39.5691 41.7876 39.5919 41.8757 39.6177 41.9638C39.6602 42.1111 39.6891 42.2583 39.683 42.4117C39.6784 42.5149 39.6602 42.6197 39.6207 42.7154C39.5888 42.7958 39.5144 42.8718 39.4583 42.9371C39.3292 43.0828 39.1728 43.2043 38.9982 43.2908C38.9223 43.3288 38.8919 43.4199 38.9299 43.4958C38.9572 43.549 39.0103 43.5809 39.0665 43.5809C39.0893 43.5809 39.1136 43.5763 39.1348 43.5642C39.3049 43.4791 39.4613 43.3668 39.5964 43.2331C39.7316 43.0995 39.8789 42.8399 40.1081 42.9204C40.1476 42.934 40.1841 42.9553 40.219 42.9765C40.3359 43.0494 40.4437 43.1344 40.5667 43.1982C40.5895 43.2104 40.6122 43.2149 40.6365 43.2149C40.6927 43.2149 40.7459 43.1846 40.7732 43.1314C40.8111 43.057 40.7823 42.9644 40.7064 42.9264C40.4452 42.7928 40.2235 42.5757 40.0838 42.3176C40.0201 42.1991 39.9654 42.0594 39.9107 41.8787C39.847 41.6631 39.8014 41.4414 39.7802 41.2167C39.7711 41.115 39.765 41.0117 39.7695 40.9085C39.7741 40.8052 39.8029 40.6974 39.8318 40.5987C39.8515 40.5304 39.8743 40.4651 39.9047 40.4013C39.9836 40.2358 40.1066 40.0931 40.2569 39.9883C40.43 39.8684 40.6396 39.8304 40.8339 39.753C40.8446 39.7484 40.8552 39.7439 40.8673 39.7393C40.9448 39.7074 40.9827 39.6178 40.9508 39.5404H40.9493Z"></path>
<path fill="#00452B" d="M40.1949 46.5994C39.8472 46.5204 39.5222 46.3352 39.2793 46.0786C39.006 45.7886 38.8344 45.412 38.7949 45.0157C38.7873 44.9322 38.7114 44.8699 38.6279 44.8791C38.5444 44.8867 38.4821 44.9626 38.4912 45.0461C38.5079 45.2146 38.5459 45.3801 38.6021 45.5396C38.6309 45.6216 38.6674 45.7005 38.6871 45.7855C38.7144 45.9025 38.7144 46.0315 38.6886 46.1484C38.6643 46.2638 38.6082 46.3975 38.511 46.4688C38.4639 46.5037 38.4108 46.528 38.3576 46.5493C38.268 46.5857 38.1724 46.6085 38.0752 46.6161C37.9917 46.6222 37.9279 46.6951 37.934 46.7801C37.9401 46.8606 38.0069 46.9213 38.0858 46.9213C38.0904 46.9213 38.0934 46.9213 38.098 46.9213C38.2483 46.9092 38.3941 46.8697 38.5307 46.8059C38.6461 46.7512 38.7448 46.6677 38.8541 46.6024C38.9695 46.5326 39.0895 46.5007 39.2246 46.5204C39.2565 46.525 39.2884 46.5326 39.3173 46.5432C39.378 46.5645 39.4296 46.6009 39.4843 46.6343C39.63 46.7239 39.7864 46.7968 39.9489 46.8499C40.0081 46.8697 40.0689 46.8864 40.1296 46.9C40.1417 46.9031 40.1524 46.9046 40.163 46.9046C40.2328 46.9046 40.2951 46.856 40.3118 46.7862C40.33 46.7042 40.2784 46.6222 40.1964 46.604L40.1949 46.5994Z"></path>
<path fill="#00452B" d="M37.6789 48.2271C37.5012 48.095 37.3524 47.8961 37.2492 47.6531C37.2203 47.5863 37.1991 47.518 37.1763 47.4497C37.152 47.3783 37.1247 47.3145 37.1322 47.2356C37.1398 47.1566 37.1793 47.0883 37.2446 47.0534C37.3236 47.0108 37.4223 47.0199 37.5088 47.0078C37.5923 46.9957 37.65 46.9167 37.6364 46.8332C37.6242 46.7497 37.5453 46.692 37.4617 46.7056C37.1049 46.7603 36.7268 46.6525 36.4505 46.4202C36.3867 46.3655 36.2895 46.3731 36.2349 46.4384C36.1802 46.5022 36.1878 46.5994 36.2531 46.654C36.329 46.7178 36.411 46.7755 36.4991 46.8226C36.5386 46.8438 36.5811 46.859 36.6175 46.8863C36.654 46.9137 36.6843 46.9486 36.7086 46.9865C36.7375 47.0321 36.7602 47.0822 36.78 47.1338C36.7997 47.1855 36.8058 47.2401 36.8179 47.2933C36.8407 47.395 36.8665 47.4967 36.8999 47.5954C36.9197 47.6562 36.9425 47.7154 36.9667 47.7731C37.0913 48.0661 37.275 48.3075 37.4951 48.4731C37.5225 48.4928 37.5544 48.5034 37.5862 48.5034C37.6333 48.5034 37.6789 48.4822 37.7092 48.4427C37.7593 48.3744 37.7457 48.2787 37.6774 48.2286L37.6789 48.2271Z"></path>
<path fill="#00452B" d="M33.942 46.1894C33.6399 46.0679 33.3772 45.8508 33.2026 45.576C33.0279 45.3027 32.9399 44.9732 32.9566 44.6482C32.9611 44.5647 32.8958 44.4918 32.8123 44.4873C32.7288 44.4827 32.6559 44.548 32.6514 44.6315C32.6468 44.7075 32.6559 44.7864 32.6392 44.8608C32.6225 44.9291 32.5891 44.9929 32.539 45.0415C32.5329 45.0476 32.5269 45.0536 32.5193 45.0597C32.4054 45.1584 32.2505 45.1706 32.1078 45.1508C31.9468 45.1296 31.7905 45.0779 31.6477 44.999C31.5612 44.9504 31.4792 44.8927 31.4063 44.8244C31.344 44.7667 31.2484 44.7697 31.1907 44.832C31.133 44.8942 31.136 44.9899 31.1983 45.0476C31.4898 45.3209 31.8907 45.4666 32.29 45.4666C32.4297 45.4666 32.5861 45.415 32.7182 45.4803C32.7865 45.5137 32.8381 45.5699 32.8807 45.6337C32.9293 45.705 32.9702 45.7688 32.99 45.8538C33.0128 45.9571 32.9763 46.0482 32.9627 46.1499C32.949 46.2517 32.952 46.361 32.9702 46.4658C32.9839 46.5402 33.0477 46.5918 33.1206 46.5918C33.1297 46.5918 33.1388 46.5918 33.1479 46.5887C33.2314 46.5736 33.2861 46.4946 33.2709 46.4111C33.2633 46.3701 33.2542 46.3261 33.2709 46.2866C33.2754 46.2729 33.2846 46.2592 33.2952 46.2486C33.3149 46.2304 33.3453 46.2243 33.3726 46.2274C33.4349 46.235 33.4819 46.2851 33.5336 46.3185C33.6277 46.3777 33.7264 46.4293 33.8312 46.4718C33.8494 46.4794 33.8691 46.4825 33.8889 46.4825C33.9496 46.4825 34.0073 46.446 34.0301 46.3868C34.062 46.3078 34.024 46.2198 33.9451 46.1879L33.942 46.1894Z"></path>
<path fill="#00452B" d="M30.2492 44.4615C30.19 44.4615 30.1353 44.4281 30.1095 44.3704C30.0746 44.293 30.1095 44.2034 30.1869 44.1685C30.2629 44.1351 30.3282 44.0774 30.3722 44.006C30.4162 43.9346 30.5104 43.9118 30.5817 43.9544C30.6531 43.9984 30.6759 44.0925 30.6334 44.1639C30.5574 44.2869 30.4436 44.3886 30.3115 44.4463C30.2917 44.4554 30.2705 44.46 30.2492 44.46V44.4615Z"></path>
<path fill="#00452B" d="M29.0771 41.7663C28.9025 41.7663 28.7324 41.6798 28.6292 41.5386C28.5791 41.4703 28.5943 41.3746 28.6626 41.3245C28.7309 41.2744 28.8266 41.2896 28.8767 41.3579C28.9237 41.4217 29.0042 41.4627 29.0847 41.4596C29.1682 41.4566 29.2396 41.5234 29.2426 41.6069C29.2456 41.6919 29.1788 41.7618 29.0953 41.7648C29.0893 41.7648 29.0847 41.7648 29.0786 41.7648L29.0771 41.7663Z"></path>
<path fill="#00452B" d="M35.4908 36.6646C35.4787 36.581 35.4013 36.5233 35.3177 36.534C34.9078 36.5902 34.51 36.7298 34.1592 36.95C33.9876 37.0578 33.8282 37.1869 33.687 37.3311C33.5458 37.4754 33.4167 37.6546 33.2952 37.8292C33.2755 37.858 33.2558 37.8869 33.2345 37.9157C33.1525 38.0326 33.0629 38.1495 32.9415 38.227C32.6196 38.4304 32.1382 38.3257 31.8649 38.0858C31.8285 38.0539 31.7936 38.019 31.7632 37.981C31.6417 37.8337 31.5612 37.6348 31.5233 37.3934C31.4884 37.1671 31.4944 36.9288 31.5005 36.698C31.502 36.6129 31.4367 36.5431 31.3517 36.5416C31.2667 36.537 31.1968 36.6053 31.1953 36.6904C31.1908 36.8726 31.1862 37.0548 31.1983 37.2355C31.209 37.3782 31.2348 37.5179 31.2682 37.6561C31.3016 37.7942 31.332 37.9248 31.2879 38.06C31.2469 38.189 31.1573 38.3029 31.0404 38.3712C30.9235 38.4396 30.7823 38.4897 30.6456 38.5261C30.5637 38.5474 30.5151 38.6309 30.5378 38.7129C30.5561 38.7812 30.6183 38.8267 30.6851 38.8267C30.6988 38.8267 30.7109 38.8252 30.7246 38.8222C30.9645 38.7584 31.1467 38.6779 31.2986 38.5686C31.3684 38.5185 31.4398 38.4654 31.5218 38.438C31.6311 38.4031 31.7343 38.4198 31.8376 38.4608C31.9302 38.4988 32.0198 38.5443 32.1124 38.5793C32.205 38.6142 32.3007 38.6445 32.3933 38.681C32.5512 38.7448 32.6879 38.8404 32.7972 38.9725C32.987 39.2048 33.0629 39.4918 33.151 39.7712C33.2421 40.0597 33.3636 40.4241 33.2451 40.7202C33.1874 40.8644 33.0887 40.9889 32.9855 41.1013C32.9278 41.1636 32.9308 41.2592 32.9931 41.3169C33.0219 41.3442 33.0599 41.3579 33.0963 41.3579C33.1373 41.3579 33.1783 41.3412 33.2087 41.3093C33.2892 41.2228 33.3469 41.1195 33.4213 41.0284C33.4775 40.9586 33.5488 40.8918 33.6354 40.8629C33.7356 40.828 33.8328 40.8599 33.9239 40.907C34.1319 41.0163 34.3186 41.156 34.5358 41.2516C34.5555 41.2607 34.5768 41.2653 34.598 41.2653C34.6572 41.2653 34.7119 41.2319 34.7377 41.1742C34.7726 41.0967 34.7377 41.0072 34.6603 40.9722C34.1759 40.7566 33.7796 40.3892 33.5443 39.9352C33.3044 39.4705 33.2436 38.9254 33.3803 38.4396C33.4972 38.022 33.7599 37.6348 34.1213 37.3509C34.4659 37.0791 34.8941 36.9014 35.3587 36.8377C35.4423 36.8255 35.5 36.7481 35.4893 36.6646H35.4908Z"></path>
<path fill="#00452B" d="M32.6378 43.3835C32.3994 42.9523 32.3721 42.4026 32.5634 41.9486C32.5968 41.8712 32.5603 41.7816 32.4829 41.7482C32.3781 41.7041 32.2946 41.7846 32.2597 41.8757C32.2187 41.982 32.1716 42.0944 32.0775 42.1642C32.0168 42.2082 31.9378 42.2386 31.8619 42.2341C31.5612 42.2143 31.2682 42.0898 31.0419 41.8924C30.9888 41.8453 30.9402 41.7952 30.8931 41.7406C30.8871 41.7299 30.878 41.7208 30.8689 41.7117C30.6548 41.449 30.5227 41.1089 30.4984 40.746C30.4923 40.6625 30.4194 40.5972 30.3359 40.6033C30.2524 40.6094 30.1886 40.6823 30.1932 40.7658C30.2038 40.9252 30.2326 41.0846 30.2797 41.2365C30.3055 41.3215 30.3389 41.4005 30.3739 41.4809C30.3814 41.4976 30.3875 41.5143 30.3906 41.5326C30.4012 41.5857 30.3875 41.6464 30.3556 41.6905C30.2828 41.7922 30.1279 41.7527 30.0277 41.7299C29.9062 41.7026 29.7878 41.6555 29.6815 41.5903C29.6101 41.5462 29.516 41.569 29.4719 41.6404C29.4279 41.7117 29.4507 41.8059 29.522 41.8499C29.645 41.9258 29.7802 41.982 29.9199 42.0169C29.9897 42.0336 30.0595 42.0473 30.1309 42.0549C30.1932 42.061 30.2569 42.061 30.2949 42.1202C30.3192 42.1596 30.3253 42.2082 30.3177 42.2538C30.307 42.3206 30.2752 42.3874 30.2524 42.4512C30.2266 42.5241 30.2053 42.6 30.1901 42.6759C30.1598 42.8262 30.1522 42.9811 30.1689 43.1329C30.178 43.2119 30.2433 43.2696 30.3207 43.2696C30.3268 43.2696 30.3313 43.2696 30.3374 43.2696C30.4209 43.2605 30.4817 43.1846 30.4726 43.1011C30.4558 42.9401 30.4726 42.7776 30.5196 42.6228C30.5606 42.4891 30.6122 42.3312 30.7443 42.2629C30.7641 42.2538 30.7838 42.2447 30.8051 42.2401C30.8279 42.2341 30.8491 42.231 30.8719 42.231C30.9508 42.231 31.0298 42.2659 31.0951 42.3054C31.1634 42.3464 31.2378 42.3829 31.3107 42.4132C31.4428 42.4679 31.581 42.5058 31.7222 42.5256C31.7844 42.5347 31.8437 42.5332 31.9029 42.5575C32.0183 42.6045 32.0972 42.6911 32.1352 42.808C32.164 42.8961 32.1716 42.9902 32.1944 43.0798C32.2339 43.2362 32.2931 43.388 32.3705 43.5292C32.3979 43.5793 32.451 43.6082 32.5042 43.6082C32.5285 43.6082 32.5543 43.6021 32.5786 43.5885C32.653 43.5475 32.6788 43.4548 32.6393 43.3804L32.6378 43.3835Z"></path>
<path fill="#00452B" d="M29.9016 38.1161C29.5661 37.5695 29.437 36.8938 29.5478 36.2637C29.563 36.1802 29.5068 36.1012 29.4233 36.0875C29.3398 36.0739 29.2609 36.1285 29.2472 36.212C29.2183 36.376 29.2047 36.5415 29.2047 36.7086C29.2047 36.8999 29.2138 37.0973 29.1348 37.2764C29.0832 37.3934 28.9936 37.4602 28.9055 37.5452C28.8175 37.6302 28.7309 37.735 28.6672 37.8474C28.6246 37.9202 28.6489 38.0144 28.7218 38.0569C28.7461 38.0706 28.7719 38.0782 28.7993 38.0782C28.8524 38.0782 28.9025 38.0508 28.9314 38.0022C28.9951 37.8929 29.1151 37.7183 29.2639 37.732C29.3155 37.7365 29.3611 37.7684 29.393 37.8094C29.4446 37.8747 29.4734 37.9597 29.5099 38.0341C29.5509 38.1176 29.5949 38.1996 29.6435 38.2786C29.6723 38.3257 29.7224 38.3515 29.7741 38.3515C29.8014 38.3515 29.8287 38.3439 29.8545 38.3287C29.9259 38.2847 29.9487 38.1905 29.9047 38.1192L29.9016 38.1161Z"></path>
<path fill="#00452B" d="M30.7154 33.7902C30.6623 33.7249 30.5651 33.7143 30.4998 33.7689C30.3829 33.8631 30.2781 33.9709 30.184 34.0878C30.14 34.144 30.099 34.2017 30.058 34.2594C30.0246 34.3065 30.0003 34.3566 29.9578 34.3976C29.9532 34.4021 29.9486 34.4067 29.9426 34.4097C29.9183 34.4264 29.8803 34.4355 29.8515 34.431C29.8302 34.4264 29.812 34.4127 29.7983 34.396C29.7163 34.3065 29.7103 34.1379 29.7011 34.021C29.6905 33.8843 29.6996 33.7462 29.7285 33.6125C29.7467 33.5306 29.6936 33.4486 29.6116 33.4303C29.5296 33.4121 29.4476 33.4653 29.4294 33.5473C29.3231 34.0438 29.44 34.5737 29.7421 34.9806C29.7148 35.0899 29.6966 35.2023 29.6875 35.3147C29.6814 35.3982 29.7437 35.4726 29.8272 35.4787C29.8439 35.4787 29.8591 35.4787 29.8742 35.4756C29.938 35.4604 29.9866 35.4073 29.9927 35.339C30.0337 34.8273 30.2948 34.3292 30.6927 34.0058C30.758 33.9527 30.7686 33.857 30.7139 33.7902H30.7154Z"></path>
<path fill="#00452B" d="M35.0703 30.4877C35.0324 30.4118 34.9413 30.3814 34.8653 30.4179C34.7484 30.4756 34.633 30.5393 34.5207 30.6061C34.4083 30.673 34.3066 30.7428 34.1866 30.7929C34.1077 30.8263 34.0166 30.8536 33.9376 30.8202C33.8328 30.7762 33.7979 30.6669 33.763 30.5682C33.725 30.4604 33.7007 30.348 33.6901 30.2341C33.6825 30.1506 33.6081 30.0884 33.5231 30.096C33.4396 30.1036 33.3773 30.178 33.3849 30.263C33.3986 30.3996 33.4274 30.5363 33.473 30.6669C33.5185 30.7975 33.5853 30.9129 33.6081 31.048C33.6187 31.1148 33.6157 31.1847 33.5899 31.2454C33.5747 31.2818 33.5504 31.3152 33.5246 31.3456C33.479 31.3987 33.4229 31.4443 33.3576 31.4701C33.2649 31.5066 33.186 31.4868 33.0979 31.4534C33.0099 31.42 32.9218 31.3942 32.8307 31.376C32.647 31.3395 32.4556 31.3365 32.2704 31.3699C32.1869 31.3851 32.1322 31.464 32.1459 31.5475C32.1611 31.6311 32.24 31.6857 32.3235 31.6721C32.4344 31.6523 32.5483 31.6493 32.6606 31.6614C32.7563 31.6721 32.8899 31.6812 32.9643 31.748C32.9962 31.7768 33.0144 31.8178 33.0235 31.8603C33.0478 31.9773 32.9977 32.0714 32.937 32.1686C32.8702 32.2749 32.8079 32.3842 32.7517 32.4965C32.7138 32.5709 32.7426 32.6636 32.8185 32.7015C32.8413 32.7137 32.8641 32.7182 32.8884 32.7182C32.9446 32.7182 32.9977 32.6879 33.025 32.6347C33.4547 31.7981 34.1562 31.1087 35.0005 30.6927C35.0764 30.6547 35.1068 30.5636 35.0703 30.4877Z"></path>
<path fill="#00452B" d="M35.6275 33.3909C35.5819 33.3195 35.4878 33.2983 35.4164 33.3438C35.257 33.4456 35.1082 33.5549 34.9609 33.6748C34.8045 33.8024 34.6451 33.9314 34.4401 33.9573C34.2229 33.9831 34.0089 33.9299 33.7917 33.9223C33.6505 33.9178 33.5078 33.9208 33.3666 33.9299C33.2512 33.9375 33.1054 33.9831 32.993 33.9542C32.9581 33.9451 32.9232 33.9314 32.8974 33.9071C32.867 33.8798 32.8473 33.8403 32.8397 33.7993C32.8124 33.6764 32.8093 33.5549 32.7698 33.4319C32.744 33.3514 32.6575 33.3074 32.577 33.3332C32.4965 33.359 32.4525 33.4456 32.4783 33.526C32.5497 33.7432 32.5436 33.9922 32.4616 34.2048C32.3811 34.4188 32.2217 34.6086 32.0243 34.724C31.9514 34.7666 31.9271 34.8607 31.9697 34.9336C31.9985 34.9822 32.0486 35.0095 32.1018 35.0095C32.1276 35.0095 32.1549 35.0034 32.1792 34.9882C32.3098 34.9108 32.4054 34.803 32.5223 34.7119C32.6393 34.6208 32.7456 34.5267 32.8746 34.4538C33.1327 34.3095 33.4273 34.2321 33.7219 34.2321C33.8175 34.2321 33.9253 34.2245 34.018 34.2473C34.0483 34.2549 34.0787 34.2655 34.106 34.2822C34.1744 34.3247 34.2138 34.4052 34.2229 34.4857C34.2366 34.6162 34.185 34.7332 34.1349 34.8486C34.0848 34.964 34.0377 35.09 34.0013 35.213C33.9542 35.3694 33.9253 35.5075 33.9132 35.6381C33.9056 35.7216 33.9663 35.796 34.0514 35.8051C34.0559 35.8051 34.0605 35.8051 34.0666 35.8051C34.144 35.8051 34.2108 35.7459 34.2184 35.667C34.229 35.5576 34.2533 35.4377 34.2943 35.301C34.5023 34.6086 34.97 33.9876 35.5804 33.5989C35.6518 33.5534 35.673 33.4592 35.6275 33.3879V33.3909Z"></path>
<path fill="#00452B" d="M43.1178 46.3109C43.18 46.2533 43.1846 46.1576 43.1269 46.0953C43.0692 46.0331 42.9735 46.0285 42.9113 46.0862C42.6182 46.355 42.2659 46.5645 41.8894 46.6905C41.7831 46.727 41.695 46.7482 41.6145 46.7604C41.4263 46.7877 41.2243 46.7634 41.0284 46.7391C40.9449 46.73 40.869 46.7892 40.8584 46.8728C40.8478 46.9563 40.9085 47.0322 40.992 47.0428C41.0725 47.0519 41.1621 47.0504 41.238 47.0732C41.3139 47.096 41.3913 47.1385 41.4597 47.1855C41.5933 47.2797 41.6981 47.4027 41.815 47.5135C41.9243 47.6168 42.0443 47.7079 42.1764 47.7823C42.2811 47.8415 42.3935 47.8901 42.5104 47.9235C42.5241 47.928 42.5377 47.9296 42.5529 47.9296C42.6197 47.9296 42.6805 47.8855 42.7002 47.8187C42.723 47.7382 42.6759 47.6532 42.5954 47.6304C42.4679 47.594 42.3479 47.5363 42.2371 47.4619C42.1262 47.3875 41.9941 47.3085 41.979 47.1734C41.9714 47.1142 41.9881 47.0534 42.0275 47.0079C42.0731 46.9563 42.146 46.9244 42.2082 46.8986C42.2811 46.8682 42.3525 46.8348 42.4223 46.7984C42.562 46.727 42.6972 46.645 42.8247 46.5524C42.928 46.478 43.0267 46.3975 43.1208 46.3125L43.1178 46.3109Z"></path>
<path fill="#00452B" d="M47.8687 45.0507C47.723 45.0309 47.5818 44.9899 47.4481 44.9292C47.3418 44.8821 47.2386 44.829 47.2052 44.709C47.1566 44.5374 47.2902 44.3962 47.3768 44.2641C47.4648 44.129 47.5408 43.9863 47.6015 43.8375C47.6106 43.8147 47.6197 43.7904 47.6288 43.7661C47.6577 43.6871 47.6182 43.5991 47.5392 43.5702C47.4603 43.5414 47.3722 43.5808 47.3434 43.6598C47.1657 44.1381 46.8043 44.5693 46.323 44.873C46.2031 44.9489 46.1013 44.999 46.0057 45.0324C45.9237 45.0598 45.8371 45.078 45.7612 45.0916C45.4636 45.1463 45.1599 45.1736 44.8562 45.1721C44.7727 45.1721 44.7044 45.2405 44.7029 45.324C44.7029 45.409 44.7697 45.4773 44.8547 45.4773C44.8669 45.4773 44.8775 45.4773 44.8896 45.4773C45.0233 45.4773 45.1554 45.4728 45.2875 45.4621C45.4059 45.453 45.541 45.4196 45.6549 45.4773C45.6747 45.4879 45.6944 45.5001 45.7096 45.5168C45.7232 45.532 45.7324 45.5487 45.7399 45.5669C45.8007 45.7036 45.7733 45.8463 45.7172 45.9814C45.661 46.1166 45.5942 46.2456 45.5076 46.3641C45.4575 46.4324 45.4727 46.528 45.541 46.5782C45.5684 46.5979 45.6003 46.607 45.6306 46.607C45.6777 46.607 45.7248 46.5857 45.7536 46.5448C45.8447 46.4187 45.9206 46.2836 45.9814 46.1393C46.0968 45.866 46.1256 45.5669 46.3033 45.3209C46.3944 45.1949 46.5158 45.0734 46.6722 45.037C46.7436 45.0203 46.8195 45.0218 46.8909 45.037C47.0534 45.0689 47.193 45.1539 47.3434 45.2192C47.4937 45.2845 47.6501 45.3285 47.811 45.3528C47.8156 45.3528 47.8201 45.3528 47.8262 45.3543C47.8338 45.3543 47.8399 45.3543 47.8475 45.3543C47.9219 45.3543 47.9887 45.2997 47.9993 45.2222C48.0115 45.1387 47.9522 45.0613 47.8687 45.0491V45.0507Z"></path>
<path fill="#00452B" d="M43.9742 42.5119C44.0182 42.439 43.9939 42.3464 43.9225 42.3023C43.8496 42.2583 43.757 42.2826 43.713 42.354C43.3455 42.9628 42.5955 43.3379 41.8879 43.268C41.8044 43.2604 41.7284 43.3212 41.7209 43.4047C41.7133 43.4882 41.774 43.5641 41.8575 43.5717C41.9258 43.5793 41.9957 43.5823 42.064 43.5823C42.1688 43.5823 42.272 43.5747 42.3753 43.5596C42.4785 43.5444 42.5681 43.514 42.6638 43.4943C42.8156 43.4639 42.9933 43.5307 43.0813 43.6583C43.1345 43.7357 43.1588 43.8329 43.1785 43.9225C43.2013 44.0242 43.221 44.1244 43.2514 44.2246C43.3106 44.4174 43.3926 44.6042 43.4974 44.7773C43.5262 44.8244 43.5763 44.8517 43.628 44.8517C43.6553 44.8517 43.6826 44.8441 43.7069 44.8305C43.7798 44.7864 43.8026 44.6938 43.7585 44.6209C43.6492 44.4387 43.5672 44.2398 43.5141 44.0348C43.464 43.8405 43.4275 43.6279 43.4533 43.4259C43.4761 43.2559 43.5414 43.0904 43.6416 42.9507C43.7494 42.8019 43.877 42.6713 43.9726 42.5119H43.9742Z"></path>
<path fill="#00452B" d="M50.8174 42.4587C50.8174 42.4587 50.8128 42.4587 50.8098 42.4587C50.7247 42.4542 50.661 42.3828 50.664 42.2993C50.6837 41.8984 50.585 41.4854 50.3876 41.1362C50.3466 41.0633 50.3725 40.9692 50.4453 40.9282C50.5182 40.8872 50.6124 40.913 50.6534 40.9859C50.8781 41.3852 50.9904 41.8559 50.9692 42.3145C50.9646 42.3965 50.8978 42.4602 50.8174 42.4602V42.4587Z"></path>
<path fill="#00452B" d="M51.891 38.8267C51.8272 38.8267 51.768 38.7873 51.7467 38.7235C51.6526 38.4487 51.4476 38.1875 51.1211 37.9233C51.0558 37.8701 51.0452 37.7745 51.0984 37.7077C51.1515 37.6424 51.2472 37.6318 51.314 37.6849C51.6875 37.9855 51.9244 38.2938 52.0367 38.6248C52.0641 38.7053 52.0215 38.7918 51.9411 38.8191C51.9244 38.8252 51.9077 38.8267 51.891 38.8267Z"></path>
<path fill="#00452B" d="M39.3506 30.6077C39.3415 30.5242 39.2671 30.4635 39.1836 30.471C38.9817 30.4923 38.7797 30.5287 38.5839 30.5834C38.391 30.6381 38.2179 30.6927 38.016 30.6502C37.8611 30.6168 37.7305 30.5333 37.5984 30.4498C37.4557 30.3602 37.3099 30.2721 37.1535 30.2099C37.0275 30.1583 36.8954 30.1248 36.7648 30.0823C36.6418 30.0429 36.534 29.9943 36.4551 29.888C36.3048 29.6876 36.3549 29.4583 36.4141 29.232C36.4353 29.15 36.3867 29.0665 36.3048 29.0453C36.2228 29.024 36.1392 29.0726 36.118 29.1546C36.0299 29.4917 36.0026 29.8379 36.036 30.1856C36.0406 30.2281 36.0618 30.2676 36.0967 30.2934C36.1651 30.345 36.2729 30.3116 36.3533 30.3162C36.4839 30.3238 36.6069 30.3587 36.7314 30.3921C36.8559 30.4255 36.9804 30.4619 37.1004 30.5136C37.2583 30.5804 37.4845 30.6897 37.5028 30.884C37.521 31.0921 37.3934 31.2576 37.2735 31.4124C37.1596 31.5582 37.07 31.7161 36.982 31.8695C36.8954 32.0213 36.8058 32.1777 36.7466 32.3523C36.7193 32.4328 36.7618 32.5194 36.8423 32.5467C36.859 32.5528 36.8757 32.5543 36.8909 32.5543C36.9546 32.5543 37.0138 32.5148 37.0351 32.451C37.0852 32.3037 37.1672 32.161 37.2462 32.0213C37.3281 31.8771 37.4132 31.7298 37.5134 31.5992C37.9917 30.9827 38.7843 30.8157 39.214 30.7717C39.2975 30.7626 39.3598 30.6882 39.3506 30.6047V30.6077Z"></path>
<path fill="#00452B" d="M43.9559 27.9535C43.8891 27.9535 43.8269 27.9095 43.8087 27.8412C43.7054 27.4646 43.5581 27.1002 43.3698 26.7585C43.3045 26.6416 43.2256 26.5065 43.1208 26.3926C43.0555 26.3212 42.9796 26.2575 42.8991 26.1891L42.4269 25.7883C42.3631 25.7336 42.354 25.638 42.4087 25.5727C42.4634 25.5074 42.559 25.4998 42.6243 25.5545L43.0965 25.9553C43.18 26.0267 43.2666 26.0996 43.3455 26.1861C43.4716 26.3228 43.5627 26.4776 43.6371 26.6097C43.8375 26.9726 43.9954 27.3598 44.1032 27.7607C44.126 27.8427 44.0774 27.9262 43.9954 27.949C43.9818 27.952 43.9681 27.955 43.9544 27.955L43.9559 27.9535Z"></path>
<path fill="#00452B" d="M46.121 28.4318C46.121 28.4318 46.118 28.4318 46.1165 28.4318C46.0314 28.4288 45.9661 28.3589 45.9676 28.2739C45.9768 27.9717 45.9312 27.6726 45.8325 27.3856C45.8052 27.3052 45.8477 27.2186 45.9266 27.1913C46.0056 27.1639 46.0937 27.2065 46.121 27.2854C46.2318 27.6073 46.2835 27.9414 46.2728 28.2815C46.2698 28.365 46.203 28.4303 46.1195 28.4303L46.121 28.4318Z"></path>
<path fill="#00452B" d="M41.1499 28.3179C41.1378 28.2845 40.8159 27.4919 39.2277 27.1852C39.1305 27.167 39.0242 27.1655 38.9346 27.1215C38.9179 27.1139 38.9012 27.1032 38.886 27.0911C38.8663 27.0729 38.8511 27.0471 38.842 27.0212C38.7463 26.7692 39.0667 26.4959 39.2398 26.3607C39.3066 26.3091 39.3172 26.2119 39.2656 26.1466C39.214 26.0814 39.1168 26.0692 39.0515 26.1208C38.801 26.3182 38.64 26.5718 38.4578 26.8254C38.4199 26.877 38.3728 26.9271 38.3121 26.9468C38.2847 26.9559 38.2559 26.959 38.227 26.959C38.0114 26.959 37.8717 26.7616 37.691 26.669C37.4982 26.5703 37.2796 26.5217 37.0639 26.5354C36.9804 26.5399 36.9151 26.6128 36.9212 26.6978C36.9258 26.7813 36.9987 26.8466 37.0837 26.8406C37.2856 26.8284 37.5605 26.8922 37.7047 27.041C37.7169 27.0531 37.729 27.0668 37.7366 27.082C37.7427 27.0956 37.7442 27.1108 37.7457 27.126C37.7487 27.1685 37.7442 27.211 37.726 27.249C37.6728 27.3614 37.4936 27.3993 37.3919 27.4525C37.2811 27.5102 37.1733 27.5755 37.07 27.6483C36.9668 27.7212 36.8681 27.7971 36.7815 27.8867C36.7223 27.9475 36.7253 28.0431 36.7861 28.1023C36.8468 28.1616 36.944 28.16 37.0017 28.0993C37.0366 28.0644 37.8611 27.2338 39.173 27.4859C40.5775 27.7561 40.866 28.4227 40.8675 28.4273C40.8903 28.488 40.948 28.526 41.0102 28.526C41.0285 28.526 41.0467 28.5229 41.0649 28.5153C41.1439 28.485 41.1833 28.3969 41.153 28.3179H41.1499Z"></path>
<path fill="#00452B" d="M49.4707 39.7059C49.2597 39.4766 49.0304 39.2625 48.7859 39.0666C48.5415 38.8708 48.2848 38.6946 48.0161 38.5367C47.7549 38.3849 47.4831 38.2452 47.3146 37.981C47.2083 37.814 47.1643 37.5953 47.2448 37.4146C47.3161 37.2582 47.4664 37.1535 47.6198 37.0745C47.7868 36.988 47.9417 36.9849 48.1239 36.9758C48.3061 36.9667 48.4989 36.9728 48.6842 36.9955C48.7677 37.0062 48.8451 36.947 48.8558 36.8635C48.8664 36.7799 48.8072 36.7025 48.7237 36.6919C48.5141 36.6645 48.3016 36.6585 48.0905 36.6706C47.8794 36.6828 47.6866 36.7101 47.4831 36.6554C47.3738 36.6266 47.2569 36.5674 47.2265 36.4596C47.2083 36.3973 47.2235 36.329 47.2478 36.2682C47.269 36.2151 47.2964 36.1635 47.3298 36.1164C47.4877 35.8947 47.7747 35.7398 48.0115 35.6153C48.2833 35.4726 48.5764 35.3709 48.8785 35.3238C48.9621 35.3101 49.0182 35.2327 49.0061 35.1492C48.9924 35.0657 48.915 35.0095 48.8315 35.0216C48.8254 35.0216 48.8193 35.0232 48.8133 35.0247C48.5035 35.0748 48.2013 35.175 47.9204 35.3132C47.7868 35.3785 47.6532 35.462 47.5272 35.547C47.4011 35.632 47.2827 35.7414 47.1461 35.8066C47.0231 35.8643 46.8925 35.834 46.8621 35.6867C46.8333 35.5485 46.9016 35.3845 46.9563 35.2585C47.0109 35.1325 47.0853 35.0125 47.1688 34.9017C47.3404 34.6785 47.556 34.4932 47.7914 34.3414C47.8597 34.2974 47.9311 34.2548 48.0039 34.2169C48.2044 34.1091 48.4185 34.0347 48.6219 33.9329C48.8254 33.8312 49.0365 33.7082 49.2323 33.5776C49.3022 33.5306 49.3219 33.4364 49.2748 33.3651C49.2278 33.2952 49.1336 33.2755 49.0623 33.3226C48.8679 33.4531 48.6644 33.5701 48.4534 33.6748C48.2439 33.7781 48.0389 33.8722 47.802 33.8798C47.5606 33.8874 47.184 33.8327 47.0717 33.5852C47.0018 33.4304 47.0231 33.2421 47.0944 33.0918C47.1931 32.8853 47.3753 32.7425 47.5257 32.5755C47.676 32.4085 47.8096 32.2339 47.9417 32.0547C47.9918 31.9864 47.9766 31.8907 47.9083 31.8406C47.84 31.7905 47.7443 31.8057 47.6942 31.874C47.509 32.1261 47.3267 32.3796 47.0671 32.5618C46.8272 32.7304 46.5478 32.8427 46.2578 32.8837C45.8418 32.943 45.2951 32.9293 44.9732 32.6104C44.7865 32.4252 44.7242 32.1276 44.8168 31.8801C44.9186 31.6113 45.1539 31.4261 45.3179 31.1983C45.3209 31.1938 45.324 31.1892 45.327 31.1847C45.617 30.7717 45.8099 30.3769 45.9177 29.9806C45.9405 29.8986 45.8919 29.8151 45.8099 29.7923C45.7279 29.7695 45.6444 29.8181 45.6216 29.9001C45.5988 29.9821 45.573 30.0626 45.5442 30.1415C45.4697 30.3404 45.3802 30.5591 45.2557 30.7322C45.1236 30.9174 44.955 31.1072 44.7622 31.2317C44.6331 31.3152 44.4266 31.3608 44.3613 31.174C44.3203 31.0586 44.3856 30.9402 44.4145 30.8294C44.5283 30.4012 44.5375 29.9472 44.4722 29.5114C44.46 29.4279 44.3826 29.3702 44.2975 29.3838C44.214 29.396 44.1563 29.4749 44.17 29.5585C44.1822 29.6359 44.1913 29.7133 44.1973 29.7908C44.2156 30.014 44.2156 30.2448 44.1776 30.4665C44.1396 30.6881 44.044 30.8779 43.9483 31.0677C43.9073 31.1482 43.8648 31.2302 43.8132 31.3046C43.6264 31.5718 43.3106 31.7465 42.9841 31.7556C42.849 31.7586 42.7048 31.7328 42.6045 31.6417C42.4633 31.5157 42.4466 31.3168 42.4481 31.1391C42.4497 30.9417 42.4557 30.7474 42.4269 30.5515C42.395 30.3389 42.3312 30.1294 42.2371 29.9365C42.2006 29.8606 42.1095 29.8287 42.0336 29.8652C41.9577 29.9016 41.9258 29.9927 41.9623 30.0686C42.0124 30.1719 42.0518 30.2782 42.0807 30.3875C42.1232 30.5424 42.1445 30.7033 42.1475 30.8628C42.1475 30.9432 42.1445 31.0237 42.1354 31.1027C42.1232 31.212 42.0989 31.338 41.9623 31.3471C41.8787 31.3532 41.8332 31.294 41.7755 31.2469C41.6981 31.1801 41.6085 31.1239 41.5219 31.0708C41.3458 30.9645 41.1545 30.8825 40.9556 30.8324C40.8736 30.8126 40.7901 30.8612 40.7703 30.9432C40.7506 31.0252 40.7992 31.1087 40.8812 31.1285C41.4597 31.2727 41.9334 31.7389 42.2416 32.2323C42.3829 32.4586 42.4967 32.6985 42.562 32.9581C42.6243 33.2132 42.6106 33.4789 42.5195 33.7264C42.4269 33.9755 42.2492 34.1911 42.0002 34.2928C41.7132 34.4097 41.4126 34.3733 41.115 34.3414C40.7901 34.308 40.4621 34.3232 40.1371 34.3414C40.0536 34.346 39.9883 34.4173 39.9929 34.5023C39.9975 34.5859 40.0688 34.6511 40.1539 34.6466C40.371 34.636 40.5866 34.6253 40.8037 34.6405C41.2668 34.6754 41.7011 34.8789 42.0594 35.1689C42.4178 35.4589 42.7139 35.8036 42.8718 36.2348C43.1436 36.9773 42.9492 37.7168 42.4648 38.3196C42.3555 38.4547 42.2128 38.5671 42.0777 38.6764C41.9273 38.7994 41.7694 38.9133 41.61 39.0241C41.5401 39.0712 41.5219 39.1669 41.5705 39.2367C41.5994 39.2792 41.6479 39.3035 41.6965 39.3035C41.7269 39.3035 41.7558 39.2944 41.7831 39.2762C42.0518 39.0925 42.3176 38.8951 42.5544 38.6688C42.6926 38.5367 42.8369 38.3894 43.0206 38.3196C43.2225 38.2422 43.4564 38.2437 43.6644 38.3014C43.9468 38.3803 44.1533 38.5686 44.296 38.8207C44.4054 39.0135 44.46 39.2397 44.5025 39.4569C44.5602 39.7545 44.583 40.0673 44.542 40.3679C44.501 40.6685 44.4038 40.9586 44.2778 41.2319C44.2429 41.3093 44.2778 41.3989 44.3537 41.4338C44.375 41.4429 44.3962 41.4475 44.4175 41.4475C44.4752 41.4475 44.5314 41.4141 44.5572 41.3579C44.6893 41.0709 44.7819 40.7672 44.8442 40.459C44.9064 40.1538 44.9095 39.8349 45.037 39.5449C45.0613 39.4903 45.0886 39.4386 45.119 39.387C45.2784 39.1319 45.5654 38.9376 45.866 38.9619C46.0164 38.974 46.1591 39.0393 46.2836 39.1243C46.4081 39.2094 46.5159 39.3172 46.6222 39.425C46.7604 39.5632 46.897 39.7028 47.017 39.8577C47.3844 40.3345 47.5864 40.9267 47.6395 41.5234C47.6471 41.6024 47.7124 41.6631 47.7914 41.6631C47.7959 41.6631 47.8005 41.6631 47.805 41.6631C47.8886 41.6555 47.9508 41.5811 47.9447 41.4976C47.9159 41.1711 47.8445 40.8492 47.7322 40.541C47.682 40.4028 47.6289 40.2571 47.5667 40.1234C47.4968 39.9746 47.4103 39.8441 47.3936 39.6755C47.3905 39.6376 47.389 39.5996 47.3936 39.5616C47.4118 39.3855 47.5257 39.2215 47.6851 39.1426C47.8521 39.0606 48.051 39.0727 48.2272 39.1334C48.6341 39.2747 48.9575 39.6026 49.243 39.9124C49.2733 39.9443 49.3143 39.961 49.3553 39.961C49.3918 39.961 49.4297 39.9473 49.4586 39.92C49.5208 39.8623 49.5239 39.7666 49.4677 39.7044L49.4707 39.7059Z"></path>
<path fill="#D5ADD1" d="M40.4681 36.5079C41.0256 36.3324 41.3919 35.9179 41.2861 35.5819C41.1804 35.2459 40.6427 35.1158 40.0852 35.2913C39.5277 35.4668 39.1614 35.8814 39.2671 36.2173C39.3729 36.5533 39.9106 36.6834 40.4681 36.5079Z"></path>
<path fill="#D5ADD1" d="M39.4438 32.2783C39.9116 32.2082 40.258 31.9329 40.2176 31.6634C40.1773 31.3938 39.7653 31.2321 39.2976 31.3022C38.8299 31.3723 38.4834 31.6476 38.5238 31.9171C38.5642 32.1866 38.9761 32.3483 39.4438 32.2783Z"></path>
<path fill="#D5ADD1" d="M46.8393 43.3086C47.0758 42.899 47.0762 42.4565 46.8401 42.3202C46.6041 42.1839 46.2211 42.4055 45.9846 42.8151C45.7481 43.2247 45.7477 43.6672 45.9838 43.8035C46.2198 43.9398 46.6028 43.7182 46.8393 43.3086Z"></path>
<path fill="#D5ADD1" d="M31.2456 35.1593C31.4923 34.9739 31.6056 34.7084 31.4988 34.5663C31.3919 34.4242 31.1054 34.4593 30.8587 34.6448C30.6121 34.8302 30.4987 35.0958 30.6056 35.2379C30.7124 35.38 30.999 35.3448 31.2456 35.1593Z"></path>
<path fill="#D5ADD1" d="M31.2478 41.0729C31.3707 41.0307 31.4109 40.8229 31.3375 40.6087C31.2641 40.3945 31.1049 40.2551 30.9819 40.2972C30.859 40.3394 30.8188 40.5472 30.8922 40.7614C30.9656 40.9755 31.1248 41.115 31.2478 41.0729Z"></path>
<path fill="#D5ADD1" d="M37.9584 42.8438C38.2204 42.7984 38.4147 42.6578 38.3925 42.5297C38.3703 42.4016 38.14 42.3346 37.8781 42.38C37.6161 42.4254 37.4218 42.566 37.444 42.6941C37.4662 42.8221 37.6965 42.8892 37.9584 42.8438Z"></path>
<path fill="#D5ADD1" d="M42.7589 42.4753C43.0615 42.2701 43.2099 41.9608 43.0903 41.7845C42.9707 41.6083 42.6285 41.6317 42.3259 41.837C42.0234 42.0422 41.875 42.3515 41.9946 42.5278C42.1141 42.7041 42.4564 42.6806 42.7589 42.4753Z"></path>
<path fill="#D5ADD1" d="M49.5811 41.3116C49.7182 41.2428 49.734 40.9968 49.6163 40.7622C49.4986 40.5276 49.292 40.3931 49.1549 40.462C49.0177 40.5308 49.0019 40.7767 49.1196 41.0114C49.2373 41.246 49.4439 41.3804 49.5811 41.3116Z"></path>
<path fill="#D5ADD1" d="M46.2436 31.7277C46.2949 31.5453 46.25 31.3731 46.1435 31.3432C46.0369 31.3132 45.9089 31.4369 45.8577 31.6193C45.8064 31.8018 45.8513 31.974 45.9579 32.0039C46.0644 32.0338 46.1924 31.9102 46.2436 31.7277Z"></path>
<path fill="#D5ADD1" d="M42.0208 45.9943C42.359 45.8555 42.5677 45.5832 42.4868 45.3862C42.406 45.1891 42.0662 45.1419 41.7279 45.2807C41.3897 45.4195 41.181 45.6917 41.2619 45.8888C41.3427 46.0858 41.6825 46.1331 42.0208 45.9943Z"></path>
<path fill="#D5ADD1" d="M34.0554 43.7629C34.1685 43.6345 34.0918 43.3822 33.8841 43.1993C33.6764 43.0164 33.4164 42.9722 33.3034 43.1006C33.1903 43.2289 33.267 43.4813 33.4747 43.6642C33.6823 43.8471 33.9424 43.8913 34.0554 43.7629Z"></path>
<path fill="#D5ADD1" d="M37.1541 45.8552C37.2118 45.6942 37.0475 45.4879 36.787 45.3945C36.5265 45.3011 36.2685 45.3559 36.2108 45.5169C36.153 45.6779 36.3174 45.8842 36.5779 45.9776C36.8383 46.071 37.0963 46.0162 37.1541 45.8552Z"></path>
<path fill="#D5ADD1" d="M35.0553 38.3721C35.3547 38.0201 35.4389 37.6 35.2434 37.4337C35.0479 37.2675 34.6468 37.418 34.3474 37.77C34.0481 38.122 33.9639 38.5421 34.1594 38.7084C34.3548 38.8746 34.756 38.724 35.0553 38.3721Z"></path>
<path fill="#D5ADD1" d="M35.7941 31.7383C36.1588 31.6235 36.4011 31.3606 36.3351 31.151C36.2691 30.9414 35.92 30.8646 35.5552 30.9794C35.1905 31.0942 34.9482 31.3572 35.0142 31.5667C35.0802 31.7763 35.4293 31.8531 35.7941 31.7383Z"></path>
<path fill="#D5ADD1" d="M31.1985 32.82C31.3841 32.6804 31.4693 32.4803 31.3886 32.3731C31.308 32.2658 31.0921 32.2921 30.9065 32.4317C30.7208 32.5713 30.6357 32.7714 30.7163 32.8786C30.797 32.9859 31.0128 32.9596 31.1985 32.82Z"></path>
<path fill="#D5ADD1" d="M39.3979 28.3137C39.446 28.1425 39.2552 27.9392 38.9719 27.8596C38.6885 27.78 38.4198 27.8543 38.3717 28.0254C38.3236 28.1966 38.5144 28.3999 38.7978 28.4795C39.0811 28.5591 39.3498 28.4848 39.3979 28.3137Z"></path>
<path fill="#D5ADD1" d="M42.4115 26.8627C42.5491 26.699 42.4305 26.373 42.1468 26.1345C41.863 25.8961 41.5214 25.8355 41.3839 25.9992C41.2463 26.1629 41.3648 26.489 41.6486 26.7274C41.9324 26.9659 42.2739 27.0264 42.4115 26.8627Z"></path>
<path fill="#D5ADD1" d="M34.6721 29.0784C34.7885 28.9246 34.7956 28.7338 34.6879 28.6524C34.5802 28.5709 34.3986 28.6296 34.2822 28.7834C34.1659 28.9372 34.1588 29.1279 34.2665 29.2094C34.3742 29.2908 34.5558 29.2322 34.6721 29.0784Z"></path>
<path fill="#D5ADD1" d="M45.3786 27.3098C45.3862 27.3599 45.3878 27.413 45.3635 27.457C45.324 27.5299 45.2268 27.5542 45.1478 27.5314C45.0689 27.5087 45.0082 27.4449 44.9611 27.3781C44.914 27.3113 44.8776 27.2369 44.8259 27.1716C44.7728 27.1033 44.7045 27.0456 44.665 26.9681C44.5405 26.7161 44.8366 26.6827 45.0051 26.7555C45.2086 26.8436 45.3483 27.1002 45.3771 27.3098H45.3786Z"></path>
</g>
<path fill="white" d="M13.1266 19.8711C10.5666 20.2264 10.354 20.5134 10.0928 23.9859C9.83167 20.5134 9.61909 20.2264 7.05908 19.8711C9.61909 19.5158 9.83167 19.2288 10.0928 15.7562C10.354 19.2288 10.5666 19.5158 13.1266 19.8711Z"></path>
<path fill="white" d="M43.9969 19.8711C41.4369 20.2264 41.2244 20.5134 40.9632 23.9859C40.702 20.5134 40.4895 20.2264 37.9294 19.8711C40.4895 19.5158 40.702 19.2288 40.9632 15.7562C41.2244 19.2288 41.4369 19.5158 43.9969 19.8711Z"></path>
<path fill="white" d="M57.1676 44.4448C54.6076 44.8001 54.395 45.0871 54.1339 48.5596C53.8727 45.0871 53.6601 44.8001 51.1001 44.4448C53.6601 44.0895 53.8727 43.8025 54.1339 40.33C54.395 43.8025 54.6076 44.0895 57.1676 44.4448Z"></path>
</g>
<defs>
<clipPath id="clip0_8241_13886">
<rect transform="translate(7.05908 13.1765)" fill="white" height="37.6471" width="50.1085"></rect>
</clipPath>
</defs>
</svg>
