<svg xmlns="http://www.w3.org/2000/svg" fill="none" viewBox="0 0 32 32" height="32" width="32">
<path fill="#004600" d="M29.8316 3.945C29.2148 3.01937 26.9348 0 23.4998 0C20.8966 0 18.8585 0.97875 17.4435 2.90875C16.8541 3.7125 16.3741 4.67375 15.9998 5.8C15.6254 4.67375 15.1454 3.7125 14.556 2.90875C13.141 0.97875 11.1029 0 8.49976 0C5.06476 0 2.78476 3.02 2.16789 3.945C1.96351 4.25187 1.94414 4.64625 2.11851 4.97125C2.29226 5.29625 2.63164 5.49937 3.00039 5.49937C3.94914 5.49937 4.73351 6.3775 6.03851 7.92875C7.22914 9.345 8.69851 11.0925 10.9541 12.4994H9.50039C8.94789 12.4994 8.50039 12.9469 8.50039 13.4994C8.50039 14.0519 8.94789 14.4994 9.50039 14.4994H10.1248L11.0091 21.1313C11.0754 21.6281 11.4991 21.9994 12.0004 21.9994V22.9994C12.0004 23.9056 11.7704 24.3587 11.4529 24.9856C11.0285 25.8225 10.5004 26.8638 10.5004 28.9994C10.5004 29.5519 10.9479 29.9994 11.5004 29.9994C12.0529 29.9994 12.5004 29.5519 12.5004 28.9994C12.5004 27.3419 12.8579 26.6362 13.2366 25.89C13.5948 25.1838 14.0004 24.3837 14.0004 22.9994V21.9994H15.0004V30.9994C15.0004 31.5519 15.4479 31.9994 16.0004 31.9994C16.5529 31.9994 17.0004 31.5519 17.0004 30.9994V21.9994H18.0004V22.9994C18.0004 24.3837 18.406 25.1838 18.7641 25.89C19.1429 26.6362 19.5004 27.3419 19.5004 28.9994C19.5004 29.5519 19.9479 29.9994 20.5004 29.9994C21.0529 29.9994 21.5004 29.5519 21.5004 28.9994C21.5004 26.8638 20.9723 25.8225 20.5479 24.9856C20.2298 24.3587 20.0004 23.9056 20.0004 22.9994V21.9994C20.5016 21.9994 20.9254 21.6281 20.9916 21.1313L21.876 14.4994H22.5004C23.0529 14.4994 23.5004 14.0519 23.5004 13.4994C23.5004 12.9469 23.0529 12.4994 22.5004 12.4994H21.0466C23.3023 11.0925 24.7716 9.345 25.9623 7.92875C27.2666 6.37687 28.051 5.49937 29.0004 5.49937C29.3691 5.49937 29.7079 5.29625 29.8823 4.97125C30.056 4.64625 30.0373 4.25125 29.8329 3.945H29.8316ZM7.56851 6.6425C6.62164 5.51625 5.76101 4.4925 4.71976 3.93688C5.71476 2.87813 7.05226 2 8.49976 2C10.4579 2 11.9116 2.68437 12.9435 4.09125C13.5616 4.93375 14.041 6.045 14.3816 7.415C12.471 5.17562 10.1879 3.74938 10.0241 3.64875C9.55414 3.35938 8.93914 3.50625 8.64914 3.97563C8.35976 4.44562 8.50539 5.06125 8.97539 5.35125C9.02914 5.38438 13.7898 8.36625 14.8091 12.1194C11.1229 10.8669 9.17039 8.5475 7.56914 6.6425H7.56851ZM19.1241 20H12.8754L12.1423 14.5H19.8579L19.1248 20H19.1241ZM24.431 6.6425C22.8291 8.5475 20.8773 10.8669 17.191 12.1194C18.2104 8.36563 22.971 5.38438 23.0241 5.35125C23.4948 5.06188 23.641 4.44562 23.3516 3.97563C23.0623 3.505 22.446 3.35875 21.976 3.64812C21.8123 3.74875 19.5291 5.17562 17.6185 7.41437C17.9585 6.04437 18.4385 4.93375 19.0566 4.09062C20.0885 2.68312 21.5423 1.99937 23.5004 1.99937C24.9479 1.99937 26.2854 2.8775 27.2804 3.93625C26.2391 4.49188 25.3785 5.51562 24.4316 6.64187L24.431 6.6425Z"></path>
</svg>
