<svg xmlns="http://www.w3.org/2000/svg" fill="none" viewBox="0 0 146 29" height="29" width="146">
<g clip-path="url(#clip0_8099_27609)">
<path fill="white" d="M10.1327 12.6917L8.78649 11.926C7.17479 10.975 6.31645 10.2834 6.31645 9.14718C6.31645 7.91216 7.34151 7.14027 8.98409 7.14027C10.0833 7.14027 11.4541 7.61575 13.2573 8.5976L13.4796 8.7458V5.53475L13.4425 5.49769C11.9854 4.72857 10.3599 4.33387 8.71239 4.34913C5.27903 4.34913 2.93867 6.33751 2.93867 9.28921C2.93867 11.7592 4.50714 13.161 6.92161 14.5874L8.311 15.4643C10.2809 16.6314 10.9786 17.4712 10.9786 18.7124C10.9786 20.1759 9.66335 21.1824 7.79847 21.1824C6.29792 21.1824 4.71092 20.5649 2.68549 19.3299L2.64844 19.2558V22.9609L2.90162 23.1029C4.49091 23.8419 6.22492 24.2174 7.97755 24.2021C11.8864 24.2021 14.4861 21.9729 14.4861 18.6136C14.4861 16.1621 13.2758 14.5195 10.1327 12.6917ZM33.9562 23.7266H37.3154V15.4643H44.7688V12.4756H37.3154V7.75778H45.1331V4.76286H33.9562V23.7266ZM50.629 15.2852H57.7921V12.3274H50.6475V7.75778H58.3972V4.76286H47.3253V23.7266H58.5393V20.6946H50.6475L50.629 15.2852ZM107.15 4.78756C107.15 4.78756 105.297 7.67751 102.87 11.5122C102.72 11.7454 102.585 11.9889 102.469 12.2409H102.432C102.32 11.9864 102.186 11.7425 102.031 11.5122C99.3999 7.3811 97.7079 4.78756 97.7079 4.78756H93.6571L100.765 15.1062V23.7513H104.198V15.1062L111.219 4.76286L107.15 4.78756ZM88.9146 4.17005L80.0224 23.7266H83.6781L85.0613 20.4353H93.1384L94.5895 23.7266H98.2019L89.2666 4.14535L88.9146 4.17005ZM91.9527 17.7553H86.2161C86.2161 17.7553 87.7845 13.9514 88.8096 11.6172C88.9294 11.3235 89.0144 11.0168 89.0628 10.7033H89.0998C89.168 11.0122 89.2526 11.3173 89.353 11.6172C90.4337 14.007 91.9713 17.6997 91.9713 17.6997L91.9527 17.7553ZM80.1151 4.78756C80.1151 4.78756 77.5586 12.8152 76.7496 15.347C76.6817 15.6372 76.5335 16.1497 76.4965 16.2979H76.4594C76.4026 15.9743 76.3179 15.6561 76.2062 15.347C75.5887 13.6674 71.8837 4.09595 71.8837 4.09595H71.5873C71.5873 4.09595 68.0798 13.303 67.2647 15.347C67.1546 15.6566 67.0699 15.9746 67.0115 16.2979H66.9745C66.9179 15.9736 66.8311 15.6552 66.7151 15.347C65.8753 12.7164 63.3558 4.78756 63.3558 4.78756H59.7743L66.5669 24.4059H66.8942C66.8942 24.4059 70.6919 14.9456 71.4267 13.0807C71.5425 12.7729 71.6273 12.4544 71.6799 12.1298H71.7416C71.7985 12.4534 71.8832 12.7716 71.9948 13.0807C72.6123 14.6554 76.5273 24.4059 76.5273 24.4059H76.8546L83.6472 4.78756H80.1151ZM23.4894 4.17005L14.554 23.7266H18.2097L19.6361 20.4353H27.707L29.1334 23.7266H32.7521L23.8352 4.14535L23.4894 4.17005ZM26.5214 17.7553H20.7662C20.7662 17.7553 22.3347 13.9514 23.3597 11.6172C23.4859 11.3227 23.5831 11.0166 23.65 10.7033H23.687C23.7555 11.0128 23.8421 11.3179 23.9464 11.6172C24.9652 14.007 26.5399 17.6997 26.5399 17.6997L26.5214 17.7553Z"></path>
<path fill="white" d="M133.578 0.878798C133.234 0.840775 132.887 0.828391 132.541 0.841747C132.362 0.841747 132.164 0.878798 131.979 0.915849C131.686 0.969121 131.4 1.05615 131.127 1.1752C129.935 1.71244 128.582 2.88571 128.582 5.49777C128.582 10.7528 136.394 11.2283 136.394 18.7125C136.394 24.0848 132.232 26.7401 128.07 27.1847H127.811H127.854H130.528C138.95 27.1971 143.989 23.0968 143.989 15.1062V12.7844C143.989 5.81888 140.161 1.79271 133.578 0.878798Z"></path>
<path fill="white" d="M125.248 27.0179C125.594 27.0403 125.94 27.0403 126.286 27.0179C126.475 27.005 126.662 26.9802 126.848 26.9438C127.142 26.8936 127.428 26.8065 127.7 26.6844C128.892 26.1472 130.244 24.9739 130.244 22.3619C130.244 17.1069 122.433 16.6314 122.433 9.14716C122.433 3.77483 126.595 1.11953 130.757 0.674927H131.016C131.016 0.674927 131.016 0.674927 130.973 0.674927H128.299C119.851 0.674927 114.812 4.79372 114.812 12.7843V15.1061C114.837 22.0716 118.672 26.0978 125.248 27.0179Z"></path>
</g>
<defs>
<clipPath id="clip0_8099_27609">
<rect transform="translate(0.726562 0.0266113)" fill="white" height="28.0747" width="144.806"></rect>
</clipPath>
</defs>
</svg>
