<svg xmlns="http://www.w3.org/2000/svg" fill="none" viewBox="0 0 166 33" height="33" width="166">
<path fill="white" d="M11.2777 15.372L9.74333 14.4993C7.90629 13.4153 6.92794 12.627 6.92794 11.3319C6.92794 9.92425 8.09632 9.04444 9.96856 9.04444C11.2214 9.04444 12.784 9.5864 14.8392 10.7055L15.0926 10.8744V7.21443L15.0504 7.1722C13.3895 6.29553 11.5368 5.84565 9.65887 5.86304C5.74547 5.86304 3.07788 8.12944 3.07788 11.4938C3.07788 14.3092 4.86566 15.907 7.61771 17.5329L9.20137 18.5323C11.4466 19.8626 12.242 20.8198 12.242 22.2346C12.242 23.9027 10.7428 25.05 8.61717 25.05C6.90682 25.05 5.09793 24.3461 2.7893 22.9384L2.74707 22.854V27.0771L3.03565 27.2389C4.84715 28.0813 6.82361 28.5092 8.82129 28.4918C13.2767 28.4918 16.2399 25.9509 16.2399 22.122C16.2399 19.3277 14.8603 17.4554 11.2777 15.372ZM38.4322 27.9498H42.2612V18.5323H50.7566V15.1257H42.2612V9.74829H51.1719V6.33462H38.4322V27.9498ZM57.4361 18.3282H65.6008V14.9568H57.4573V9.74829H66.2906V6.33462H53.6706V27.9498H66.4525V24.4939H57.4573L57.4361 18.3282ZM121.859 6.36277C121.859 6.36277 119.748 9.65679 116.982 14.0277C116.81 14.2935 116.657 14.571 116.524 14.8582H116.482C116.355 14.5682 116.202 14.2902 116.025 14.0277C113.026 9.31894 111.098 6.36277 111.098 6.36277H106.48L114.582 18.1241V27.978H118.495V18.1241L126.498 6.33462L121.859 6.36277ZM101.075 5.65892L90.9394 27.9498H95.1062L96.6828 24.1983H105.889L107.543 27.9498H111.661L101.476 5.63077L101.075 5.65892ZM104.538 21.1436H97.999C97.999 21.1436 99.7868 16.8079 100.955 14.1473C101.092 13.8126 101.189 13.463 101.244 13.1056H101.286C101.364 13.4577 101.46 13.8055 101.575 14.1473C102.806 16.8712 104.559 21.0803 104.559 21.0803L104.538 21.1436ZM91.045 6.36277C91.045 6.36277 88.131 15.5128 87.209 18.3986C87.1316 18.7294 86.9626 19.3136 86.9204 19.4825H86.8782C86.8134 19.1136 86.7168 18.7509 86.5896 18.3986C85.8857 16.4841 81.6626 5.57446 81.6626 5.57446H81.3248C81.3248 5.57446 77.3269 16.0689 76.3979 18.3986C76.2723 18.7515 76.1758 19.114 76.1093 19.4825H76.067C76.0026 19.1128 75.9036 18.7499 75.7714 18.3986C74.8142 15.4002 71.9425 6.36277 71.9425 6.36277H67.8602L75.6025 28.7241H75.9755C75.9755 28.7241 80.3042 17.9411 81.1418 15.8155C81.2738 15.4647 81.3705 15.1016 81.4304 14.7315H81.5008C81.5656 15.1005 81.6621 15.4631 81.7893 15.8155C82.4932 17.6103 86.9556 28.7241 86.9556 28.7241H87.3286L95.071 6.36277H91.045ZM26.502 5.65892L16.3173 27.9498H20.4841L22.11 24.1983H31.3093L32.9352 27.9498H37.0597L26.8961 5.63077L26.502 5.65892ZM29.9579 21.1436H23.398C23.398 21.1436 25.1858 16.8079 26.3542 14.1473C26.498 13.8117 26.6088 13.4628 26.685 13.1056H26.7272C26.8053 13.4584 26.904 13.8062 27.0228 14.1473C28.1842 16.8712 29.979 21.0803 29.979 21.0803L29.9579 21.1436Z"></path>
<path fill="white" d="M151.984 1.90729C151.592 1.86395 151.197 1.84983 150.802 1.86506C150.598 1.86506 150.373 1.90729 150.161 1.94952C149.827 2.01024 149.501 2.10944 149.19 2.24514C147.832 2.85748 146.29 4.1948 146.29 7.17208C146.29 13.1618 155.194 13.7038 155.194 22.2345C155.194 28.3579 150.45 31.3845 145.706 31.8913H145.41H145.46H148.507C158.108 31.9053 163.851 27.2318 163.851 18.124V15.4775C163.851 7.53808 159.487 2.94899 151.984 1.90729Z"></path>
<path fill="white" d="M142.489 31.7015C142.883 31.727 143.278 31.727 143.672 31.7015C143.887 31.6868 144.101 31.6585 144.312 31.617C144.647 31.5598 144.974 31.4605 145.284 31.3214C146.642 30.7091 148.183 29.3718 148.183 26.3945C148.183 20.4047 139.28 19.8628 139.28 11.3321C139.28 5.20862 144.024 2.18206 148.768 1.67529H149.063C149.063 1.67529 149.063 1.67529 149.014 1.67529H145.966C136.338 1.67529 130.594 6.36997 130.594 15.4778V18.1242C130.622 26.0637 134.993 30.6528 142.489 31.7015Z"></path>
</svg>
