<svg xmlns="http://www.w3.org/2000/svg" fill="none" viewBox="0 0 24 24" height="24" width="24">
<path fill="#004600" d="M7.30272 13.51L10.1322 12.0953C10.9813 11.6707 11.6697 10.9823 12.0942 10.1332L13.5095 7.30321C13.5551 7.21212 13.6251 7.13552 13.7117 7.08197C13.7984 7.02843 13.8982 7.00007 14 7.00007C14.1019 7.00007 14.2017 7.02843 14.2883 7.08197C14.375 7.13552 14.445 7.21212 14.4905 7.30321L15.9053 10.1327C16.3299 10.9818 17.0183 11.6702 17.8673 12.0948L20.6963 13.51C20.7874 13.5555 20.8641 13.6255 20.9177 13.7122C20.9712 13.7988 20.9996 13.8987 20.9996 14.0005C20.9996 14.1024 20.9712 14.2022 20.9177 14.2889C20.8641 14.3755 20.7874 14.4455 20.6963 14.491L17.8668 15.9058C17.0178 16.3303 16.3293 17.0188 15.9048 17.8678L14.49 20.6973C14.4445 20.7884 14.3745 20.865 14.2878 20.9186C14.2012 20.9721 14.1014 21.0005 13.9995 21.0005C13.8977 21.0005 13.7979 20.9721 13.7112 20.9186C13.6246 20.865 13.5546 20.7884 13.509 20.6973L12.0942 17.8678C11.6697 17.0188 10.9813 16.3303 10.1322 15.9058L7.30272 14.4905C7.21174 14.4449 7.13522 14.3749 7.08175 14.2884C7.02828 14.2018 6.99996 14.102 6.99996 14.0003C6.99996 13.8985 7.02828 13.7987 7.08175 13.7122C7.13522 13.6256 7.21174 13.5556 7.30272 13.51ZM7.65693 6.81711L8.86952 6.21001C8.90846 6.19046 8.94119 6.16046 8.96406 6.12338C8.98694 6.0863 8.99905 6.04358 8.99905 6.00001C8.99905 5.95644 8.98694 5.91373 8.96406 5.87665C8.94119 5.83956 8.90846 5.80957 8.86952 5.79001L7.65693 5.18351C7.29302 5.00159 6.99795 4.70652 6.81603 4.34261L6.20952 3.13001C6.18997 3.09108 6.15997 3.05835 6.12289 3.03547C6.08581 3.0126 6.04309 3.00049 5.99952 3.00049C5.95595 3.00049 5.91324 3.0126 5.87616 3.03547C5.83908 3.05835 5.80908 3.09108 5.78952 3.13001L5.18302 4.34261C5.0011 4.70652 4.70603 5.00159 4.34212 5.18351L3.12952 5.79001C3.09059 5.80957 3.05786 5.83956 3.03499 5.87665C3.01211 5.91373 3 5.95644 3 6.00001C3 6.04358 3.01211 6.0863 3.03499 6.12338C3.05786 6.16046 3.09059 6.19046 3.12952 6.21001L4.34222 6.81641C4.70611 6.99831 5.00118 7.29335 5.18312 7.65721L5.78952 8.87001C5.80908 8.90895 5.83908 8.94168 5.87616 8.96455C5.91324 8.98743 5.95595 8.99954 5.99952 8.99954C6.04309 8.99954 6.08581 8.98743 6.12289 8.96455C6.15997 8.94168 6.18997 8.90895 6.20952 8.87001L6.81582 7.65731C6.99784 7.29345 7.29298 6.99895 7.65693 6.81711Z"></path>
</svg>
