<svg xmlns="http://www.w3.org/2000/svg" fill="none" viewBox="0 0 126 33" height="33" width="126">
<g clip-path="url(#clip0_4048_8676)">
<path fill="white" d="M68.09 7.11377C67.5954 5.91896 66.891 4.85091 65.9705 3.93247C65.0396 3.00364 63.9466 2.28883 62.7331 1.76935C61.5466 1.26234 60.2895 1.01922 59.0053 0.977664C64.4141 2.68364 67.5144 8.46442 65.4219 13.8483C63.9154 17.7112 59.4749 19.6374 55.6432 17.9397C55.5248 17.8878 55.4063 17.8296 55.2921 17.7735C54.6417 17.2062 54.1554 16.479 53.9019 15.5896C53.318 13.5449 54.0058 11.014 56.2271 9.42442C52.2853 10.7584 51.7824 16.2691 54.5004 18.5881C53.8521 18.1309 53.2869 17.6281 52.8006 17.0961C51.2193 15.1283 50.6458 12.6888 51.0469 10.4031C57.7232 8.30234 53.9788 4.49559 57.4905 0.940261C50.2593 0.840521 49.4718 5.60727 49.877 8.54753C50.0557 6.93299 52.4287 3.51065 54.8287 2.32831C50.8058 6.0852 47.7991 11.4171 50.8328 16.4187C50.3466 15.9034 49.9227 15.3507 49.5715 14.7896C53.1206 23.0784 65.2474 22.9953 68.1814 14.6068C68.6282 13.4431 68.8422 12.2255 68.8422 10.9766C68.8422 9.6426 68.5991 8.34598 68.09 7.11377ZM53.8084 18.561C53.8375 18.5527 53.8666 18.5444 53.8957 18.5382L53.8084 18.561Z" clip-rule="evenodd" fill-rule="evenodd"></path>
<path fill="white" d="M11.2566 6.46525C10.6706 4.70941 9.63995 2.64811 7.35424 2.64811C5.79372 2.64811 4.65086 3.81798 4.65086 5.40759C4.65086 6.9411 5.6545 7.83252 8.10644 9.0585C11.0322 10.4798 13.0394 12.0403 13.0394 14.7998C13.0394 17.9769 10.3361 20.458 6.26748 20.458C5.26385 20.458 4.2893 20.3188 3.4519 20.0673C2.6706 19.845 2.14281 19.6206 1.75216 19.4543C1.50073 18.7582 1.13917 16.4164 0.943848 14.7167L1.91839 14.4091C2.47528 16.192 4.12099 19.313 6.79528 19.313C8.49502 19.313 9.58177 18.1432 9.58177 16.3873C9.58177 14.7437 8.3558 13.711 6.26541 12.5972C3.39787 11.1468 1.41969 9.64239 1.41969 6.96603C1.41969 3.9011 3.84463 1.50317 7.80099 1.50317C9.58385 1.50317 11.1735 2.06006 11.6742 2.25538C11.7864 3.28603 11.9818 4.512 12.2041 6.24084L11.2566 6.46525Z"></path>
<path fill="white" d="M22.4608 1.92114C24.6634 1.92114 26.251 2.22867 27.3377 3.0079C28.6468 3.89932 29.4011 5.29361 29.4011 7.10556C29.4011 10.8396 26.6416 12.5393 23.7159 12.903C23.2982 12.9591 22.8515 12.9591 22.546 12.9591L20.651 12.5123V16.3295C20.651 18.6983 20.9024 18.8936 23.2982 19.0889V20.0365H14.6292V19.0889C16.7195 18.8936 16.971 18.6983 16.971 16.3295V5.65725C16.971 3.28842 16.7195 3.1201 14.7975 2.89777V1.92322H22.4608V1.92114ZM20.6489 11.3985C20.9834 11.5378 21.5694 11.677 22.1533 11.677C23.184 11.677 25.4136 10.9518 25.4136 7.19075C25.4136 4.04062 23.6307 3.00997 21.931 3.00997C21.4011 3.00997 21.0666 3.14919 20.9003 3.28841C20.7341 3.45465 20.6489 3.73517 20.6489 4.15283V11.3985Z"></path>
<path fill="white" d="M48.3787 20.288C48.2125 20.288 47.8779 20.261 47.5434 20.261C44.0317 20.0948 42.9449 19.3135 41.8312 17.5576C41.106 16.4148 40.3538 14.9104 39.5455 13.46C39.0987 12.5955 38.5979 12.261 37.7065 12.234H37.1766V16.3026C37.1766 18.5883 37.4551 18.8667 39.5455 19.062V20.0366H31.1299V19.062C33.2203 18.8667 33.5257 18.5883 33.5257 16.3026V5.60126C33.5257 3.37165 33.2743 3.09321 31.24 2.89789V1.92334H39.0717C41.4966 1.92334 42.9179 2.20178 44.0317 2.98308C45.1475 3.70827 45.9268 4.96126 45.9268 6.69009C45.9268 9.14204 44.3101 10.4532 42.4421 11.2324C42.8327 12.0407 43.8904 13.9088 44.6987 15.1888C45.7024 16.7223 46.2862 17.6137 46.8452 18.1997C47.4582 18.8397 47.9049 19.1743 48.5449 19.3987L48.3787 20.288ZM37.8998 11.1472C39.0696 11.1472 40.0172 10.9519 40.6301 10.395C41.5777 9.61373 41.9683 8.49996 41.9683 7.07866C41.9683 4.12386 40.2395 3.03711 38.679 3.03711C37.9829 3.03711 37.5922 3.14931 37.4239 3.31555C37.2286 3.48178 37.1725 3.7623 37.1725 4.3462V11.1452H37.8998V11.1472Z"></path>
<path fill="white" d="M89.5113 2.89777C87.9778 2.98088 87.2817 3.56686 87.1424 4.5414C87.0032 5.40582 86.891 6.43647 86.891 8.41465V11.4526C86.891 14.4074 86.4442 16.7471 84.8837 18.4198C83.6016 19.758 81.7066 20.4541 79.7284 20.4541C77.8894 20.4541 76.1336 20.0635 74.7954 19.0058C73.2079 17.7798 72.4827 15.7165 72.4827 12.4562V5.9066C72.4827 3.28634 72.2042 3.09101 70.1409 2.89569V1.92114H78.5294V2.89569C76.4952 3.09101 76.2167 3.28634 76.2167 5.9066V11.9534C76.2167 16.1341 77.7211 18.5591 80.732 18.5591C84.0484 18.5591 85.4967 16.051 85.4967 11.3965V8.41465C85.4967 6.43647 85.3575 5.37673 85.2183 4.5414C85.0791 3.56686 84.41 3.0079 82.5149 2.89777V1.92322H89.5092V2.89777H89.5113Z"></path>
<path fill="white" d="M106.205 6.68783C105.871 5.23952 105.48 4.319 104.979 3.81822C104.506 3.31744 103.78 3.14913 102.164 3.14913H100.882V16.3315C100.882 18.7003 101.16 18.8686 103.612 19.0619V20.0364H94.5274V19.0619C96.8693 18.8665 97.1477 18.7003 97.1477 16.3315V3.14913H96.2002C93.9145 3.14913 93.4137 3.45666 92.996 3.90134C92.5493 4.3751 92.1877 5.32264 91.8261 6.71692H90.8225C90.9347 4.68264 91.1009 2.64835 91.1571 1.22705H91.8261C92.2729 1.86705 92.6345 1.92315 93.4137 1.92315H104.618C105.37 1.92315 105.761 1.75692 106.234 1.22705H106.904C106.931 2.39692 107.07 4.85095 107.211 6.6338L106.205 6.68783Z"></path>
<path fill="white" d="M119.525 6.46562C118.939 4.70977 117.908 2.64847 115.622 2.64847C114.062 2.64847 112.919 3.81834 112.919 5.40795C112.919 6.94146 113.923 7.83289 116.375 9.05886C119.3 10.4802 121.308 12.0407 121.308 14.8002C121.308 17.9773 118.604 20.4583 114.536 20.4583C113.532 20.4583 112.557 20.3191 111.72 20.0677C110.939 19.8454 110.411 19.6209 110.02 19.4547C109.769 18.7586 109.407 16.4168 109.212 14.717L110.186 14.4095C110.743 16.1924 112.389 19.3134 115.063 19.3134C116.763 19.3134 117.85 18.1435 117.85 16.3877C117.85 14.7441 116.624 13.7113 114.533 12.5976C111.664 11.1493 109.684 9.64276 109.684 6.96847C109.684 3.90354 112.109 1.50562 116.065 1.50562C117.848 1.50562 119.437 2.0625 119.938 2.25782C120.05 3.28847 120.246 4.51445 120.468 6.24328L119.525 6.46562Z"></path>
<path fill="white" d="M11.7801 26.5152C11.6534 26.0227 11.5287 25.7068 11.3251 25.4554C11.0861 25.152 10.7703 25.0648 9.96194 25.0648H9.21805C8.80246 25.0648 8.75052 25.0897 8.75052 25.4928V28.3437H9.88506C11.0071 28.3437 11.109 28.2294 11.2606 27.4232H11.6762V29.9084H11.2606C11.1214 29.0502 11.0092 28.9235 9.88506 28.9235H8.75052V31.0305C8.75052 32.1775 8.8648 32.2544 9.97441 32.3416V32.7448H6.21753V32.3416C7.17545 32.2544 7.28974 32.1775 7.28974 31.0305V26.2367C7.28974 25.1146 7.17545 25.0378 6.24246 24.9629V24.5474H12.0565C12.069 24.8507 12.1313 25.7588 12.1957 26.4528L11.7801 26.5152Z"></path>
<path fill="white" d="M16.8524 32.7471V32.344C17.6088 32.2297 17.6857 32.0925 17.5091 31.5627C17.3698 31.1471 17.1558 30.5528 16.9293 29.9481H14.4171C14.253 30.4157 14.0763 30.8936 13.9246 31.3985C13.7106 32.0801 13.773 32.2318 14.6935 32.344V32.7471H11.907V32.344C12.7278 32.2297 12.8919 32.1175 13.32 31.0328L15.9049 24.5123L16.4597 24.3606C17.268 26.5549 18.0618 28.8261 18.8826 30.9954C19.2982 32.105 19.4623 32.2442 20.2706 32.344V32.7471H16.8524ZM15.7158 26.4281H15.6784C15.3127 27.4006 14.9719 28.3835 14.6187 29.3289H16.7132L15.7158 26.4281Z"></path>
<path fill="white" d="M28.6197 32.8611C28.5179 32.8611 28.3683 32.8487 28.229 32.8487C26.8659 32.7863 26.3631 32.458 25.8332 31.6497C25.4675 31.0949 25.0768 30.3759 24.7111 29.7318C24.5096 29.3536 24.2831 29.2019 23.7906 29.2019H23.4997V31.1074C23.4997 32.1422 23.614 32.2544 24.5844 32.3437V32.7468H20.9521V32.3437C21.9225 32.2565 22.0618 32.1546 22.0618 31.1074V26.1744C22.0618 25.1396 21.9475 25.0398 21.002 24.9629V24.5474H24.3953C25.4301 24.5474 26.0597 24.6741 26.5646 25.0024C27.0696 25.3432 27.4103 25.898 27.4103 26.6793C27.4103 27.7765 26.6914 28.3957 25.8207 28.7614C26.0223 29.152 26.5023 29.9978 26.8805 30.565C27.3355 31.2591 27.5994 31.6372 27.8779 31.9157C28.1688 32.244 28.4077 32.3957 28.6986 32.4829L28.6197 32.8611ZM23.9153 28.7365C24.495 28.7365 24.9127 28.6346 25.2015 28.3957C25.642 28.03 25.8332 27.525 25.8332 26.8705C25.8332 25.5198 25.0249 25.017 24.2186 25.017C23.8903 25.017 23.7012 25.0793 23.614 25.1437C23.5267 25.2185 23.4997 25.3578 23.4997 25.6487V28.7385H23.9153V28.7365Z"></path>
<path fill="white" d="M35.9112 32.747V32.3439C36.8961 32.242 36.946 32.1548 36.946 30.9309L36.9086 25.9729H36.8587L33.9704 32.6576H33.6421L30.9803 26.1101H30.9429L30.7787 29.5158C30.7288 30.5631 30.7288 31.1303 30.7662 31.5709C30.8036 32.1506 31.0696 32.2524 31.9132 32.3272V32.7428H28.9106V32.3272C29.6296 32.2649 29.8686 32.0613 29.9454 31.5958C30.0203 31.1802 30.1096 30.561 30.2093 29.2374L30.3984 26.7023C30.5127 25.1896 30.4234 25.0628 29.3138 24.961V24.5454H31.7366L34.3216 30.347L36.9584 24.5454H39.3543V24.961C38.307 25.0628 38.2447 25.1252 38.2696 26.2722L38.3964 30.9267C38.4213 32.1506 38.4712 32.2379 39.506 32.3397V32.7428H35.9112V32.747Z"></path>
<path fill="white" d="M46.9492 30.6897C46.8744 31.1946 46.6209 32.3666 46.5086 32.7448H40.2021V32.3416C41.2993 32.2544 41.4136 32.165 41.4136 31.1053V26.1993C41.4136 25.0897 41.2993 25.0378 40.3788 24.9629V24.5474H46.1928C46.2053 24.7988 46.2676 25.6819 46.3196 26.4133L45.8915 26.4757C45.7772 25.9957 45.6276 25.63 45.424 25.391C45.2224 25.152 44.8816 25.0627 44.1003 25.0627H43.3689C42.9284 25.0627 42.8889 25.0876 42.8889 25.4907V28.2274H43.8593C44.944 28.2274 45.0707 28.1526 45.2349 27.2819H45.6629V29.7796H45.2349C45.0707 28.8715 44.944 28.8216 43.8593 28.8216H42.8889V31.0679C42.8889 31.6726 42.9512 31.9635 43.1923 32.1027C43.4188 32.2294 43.8614 32.2419 44.3788 32.2419C45.1476 32.2419 45.5653 32.1526 45.8541 31.8263C46.0931 31.5603 46.3216 31.1448 46.5357 30.6149L46.9492 30.6897Z"></path>
<path fill="white" d="M55.2481 32.8611C55.1463 32.8611 54.9967 32.8487 54.8574 32.8487C53.4943 32.7863 52.9915 32.458 52.4616 31.6497C52.0959 31.0949 51.7052 30.3759 51.3395 29.7318C51.138 29.3536 50.9115 29.2019 50.419 29.2019H50.1281V31.1074C50.1281 32.1422 50.2424 32.2544 51.2128 32.3437V32.7468H47.5806V32.3437C48.551 32.2565 48.6902 32.1546 48.6902 31.1074V26.1744C48.6902 25.1396 48.5759 25.0398 47.6304 24.9629V24.5474H51.0237C52.0585 24.5474 52.6881 24.6741 53.193 25.0024C53.698 25.3432 54.0388 25.898 54.0388 26.6793C54.0388 27.7765 53.3198 28.3957 52.4491 28.7614C52.6507 29.152 53.1307 29.9978 53.5089 30.565C53.9639 31.2591 54.2278 31.6372 54.5063 31.9157C54.7972 32.244 55.0362 32.3957 55.3271 32.4829L55.2481 32.8611ZM50.5437 28.7365C51.1234 28.7365 51.5411 28.6346 51.8299 28.3957C52.2704 28.03 52.4616 27.525 52.4616 26.8705C52.4616 25.5198 51.6533 25.017 50.8471 25.017C50.5187 25.017 50.3297 25.0793 50.2424 25.1437C50.1551 25.2185 50.1281 25.3578 50.1281 25.6487V28.7385H50.5437V28.7365Z"></path>
<path fill="white" d="M60.2935 26.5527C60.0421 25.7589 59.612 24.8488 58.5647 24.8488C57.7709 24.8488 57.2785 25.4285 57.2785 26.135C57.2785 26.9163 57.7959 27.334 58.8681 27.8639C60.067 28.4685 61.0748 29.1252 61.0748 30.4363C61.0748 31.8368 59.8884 32.934 58.0972 32.934C57.6172 32.934 57.1891 32.8592 56.8483 32.7449C56.5076 32.6431 56.2811 32.5558 56.1294 32.4789C56.0151 32.1755 55.8509 31.1158 55.7637 30.4093L56.1917 30.2826C56.4182 31.0763 57.0998 32.4394 58.3361 32.4394C59.1819 32.4394 59.6993 31.8846 59.6993 31.0389C59.6993 30.2306 59.0946 29.7652 58.147 29.2727C57.025 28.6929 55.9902 28.0239 55.9902 26.7376C55.9902 25.4265 57.0374 24.3542 58.7663 24.3542C59.4977 24.3542 60.1419 24.5683 60.4681 24.6701C60.518 25.1376 60.5948 25.6675 60.6946 26.4613L60.2935 26.5527Z"></path>
<path fill="white" d="M71.5579 32.7468V32.3437C72.5428 32.2419 72.5927 32.1546 72.5927 30.9307L72.5553 25.9728H72.5054L69.6171 32.6575H69.2888L66.627 26.112H66.5896L66.4254 29.5178C66.3756 30.565 66.3756 31.1323 66.413 31.5728C66.4504 32.1526 66.7163 32.2544 67.56 32.3292V32.7448H64.5574V32.3292C65.2763 32.2668 65.5153 32.0632 65.5922 31.5978C65.667 31.1822 65.7563 30.5629 65.8581 29.2393L66.0472 26.7042C66.1615 25.1915 66.0722 25.0648 64.9626 24.9629V24.5474H67.3854L69.9704 30.3489L72.6072 24.5474H75.0031V24.9629C73.9558 25.0648 73.8935 25.1271 73.9184 26.2741L74.0452 30.9287C74.0701 32.1526 74.12 32.2398 75.1548 32.3417V32.7448H71.5579V32.7468Z"></path>
<path fill="white" d="M80.6903 32.7471V32.344C81.4467 32.2297 81.5236 32.0925 81.347 31.5627C81.2077 31.1471 80.9937 30.5528 80.7672 29.9481H78.2571C78.0929 30.4157 77.9163 30.8936 77.7646 31.3985C77.5506 32.0801 77.6129 32.2318 78.5334 32.344V32.7471H75.7449V32.344C76.5657 32.2297 76.7298 32.1175 77.1579 31.0328L79.7428 24.5123L80.2976 24.3606C81.1059 26.5549 81.8997 28.8261 82.7205 30.9954C83.136 32.105 83.3002 32.2442 84.1085 32.344V32.7471H80.6903ZM79.5558 26.4281H79.5184C79.1527 27.4006 78.8119 28.3835 78.4586 29.3289H80.5532L79.5558 26.4281Z"></path>
<path fill="white" d="M92.4598 32.8611C92.358 32.8611 92.2083 32.8487 92.0691 32.8487C90.706 32.7863 90.2031 32.458 89.6733 31.6497C89.3076 31.0949 88.9169 30.3759 88.5512 29.7318C88.3496 29.3536 88.1231 29.2019 87.6307 29.2019H87.3398V31.1074C87.3398 32.1422 87.4541 32.2544 88.4244 32.3437V32.7468H84.7922V32.3437C85.7647 32.2565 85.9018 32.1546 85.9018 31.1074V26.1744C85.9018 25.1396 85.7876 25.0398 84.8421 24.9629V24.5474H88.2353C89.2702 24.5474 89.8998 24.6741 90.4047 25.0024C90.9096 25.3432 91.2504 25.898 91.2504 26.6793C91.2504 27.7765 90.5315 28.3957 89.6608 28.7614C89.8624 29.152 90.3424 29.9978 90.7205 30.565C91.1756 31.2591 91.4395 31.6372 91.7179 31.9157C92.0089 32.244 92.2478 32.3957 92.5387 32.4829L92.4598 32.8611ZM87.7553 28.7365C88.3351 28.7365 88.7528 28.6346 89.0416 28.3957C89.4821 28.03 89.6733 27.525 89.6733 26.8705C89.6733 25.5198 88.865 25.017 88.0587 25.017C87.7304 25.017 87.5413 25.0793 87.4541 25.1437C87.3668 25.2185 87.3398 25.3578 87.3398 25.6487V28.7385H87.7553V28.7365Z"></path>
<path fill="white" d="M98.843 32.7468C98.1366 31.8762 97.1017 30.4881 96.1189 29.1645C95.8404 28.7988 95.6784 28.7365 95.4747 28.7614V31.0824C95.4747 32.1671 95.6015 32.2565 96.5843 32.3437V32.7468H93.002V32.3437C93.9225 32.2565 94.0493 32.1671 94.0493 31.0824V26.2263C94.0493 25.1167 93.935 25.0398 92.9646 24.965V24.5494H96.5095V24.965C95.589 25.0398 95.4747 25.1292 95.4747 26.2263V28.3832C95.7532 28.3084 96.042 28.1193 96.4077 27.7515C97.2015 26.9702 97.8332 26.2513 98.3007 25.6445C98.629 25.2289 98.6165 25.0648 98.0223 24.9879L97.7833 24.9629V24.5474H100.963V24.9629C100.129 25.0378 99.6888 25.177 98.9449 25.8585C98.3007 26.4632 97.6337 27.1697 96.9771 27.8513C97.8228 29.0627 98.9324 30.4362 99.7262 31.4087C100.306 32.0902 100.622 32.2668 101.164 32.3417V32.7448H98.843V32.7468Z"></path>
<path fill="white" d="M108.304 30.6897C108.229 31.1946 107.976 32.3666 107.863 32.7448H101.557V32.3416C102.654 32.2544 102.768 32.165 102.768 31.1053V26.1993C102.768 25.0897 102.654 25.0378 101.734 24.9629V24.5474H107.548C107.56 24.7988 107.622 25.6819 107.674 26.4133L107.246 26.4757C107.132 25.9957 106.982 25.63 106.779 25.391C106.577 25.152 106.236 25.0627 105.455 25.0627H104.724C104.283 25.0627 104.244 25.0876 104.244 25.4907V28.2274H105.214C106.299 28.2274 106.425 28.1526 106.59 27.2819H107.018V29.7796H106.59C106.425 28.8715 106.299 28.8216 105.214 28.8216H104.244V31.0679C104.244 31.6726 104.306 31.9635 104.547 32.1027C104.774 32.2294 105.216 32.2419 105.734 32.2419C106.502 32.2419 106.92 32.1526 107.209 31.8263C107.448 31.5603 107.676 31.1448 107.89 30.6149L108.304 30.6897Z"></path>
<path fill="white" d="M115.658 26.6297C115.506 25.998 115.354 25.6074 115.165 25.3934C114.939 25.1419 114.66 25.0651 113.842 25.0651H113.16V31.1077C113.16 32.1549 113.274 32.2547 114.421 32.344V32.7471H110.486V32.344C111.57 32.2567 111.697 32.1549 111.697 31.1077V25.0651H111.13C110.095 25.0651 109.856 25.1793 109.68 25.4183C109.49 25.6323 109.351 26.0354 109.2 26.6422H108.771C108.821 25.784 108.898 24.8884 108.923 24.2339H109.214C109.403 24.5248 109.567 24.5497 109.921 24.5497H114.966C115.294 24.5497 115.446 24.4749 115.66 24.2339H115.951C115.951 24.7762 116.013 25.8235 116.077 26.6048L115.658 26.6297Z"></path>
<path fill="white" d="M124.393 2.8559C124.393 3.62265 123.791 4.22525 123.007 4.22525C122.232 4.22525 121.613 3.62265 121.613 2.8559C121.613 2.10577 122.232 1.50317 123.007 1.50317C123.791 1.50317 124.393 2.10577 124.393 2.8559ZM121.96 2.8559C121.96 3.4585 122.407 3.93642 123.016 3.93642C123.61 3.93642 124.046 3.4585 124.046 2.86421C124.046 2.26162 123.61 1.77538 123.007 1.77538C122.407 1.77538 121.96 2.26162 121.96 2.8559ZM122.793 3.56655H122.48V2.21382C122.602 2.18889 122.777 2.17226 122.999 2.17226C123.255 2.17226 123.369 2.21382 123.469 2.27201C123.543 2.33019 123.6 2.43616 123.6 2.56915C123.6 2.71668 123.483 2.83304 123.319 2.88291V2.89954C123.45 2.94941 123.525 3.04707 123.566 3.22993C123.608 3.43564 123.633 3.51876 123.666 3.56863H123.327C123.286 3.51876 123.261 3.39616 123.219 3.23824C123.194 3.09071 123.113 3.02421 122.939 3.02421H122.791V3.56655H122.793ZM122.802 2.7998H122.949C123.122 2.7998 123.263 2.74162 123.263 2.60239C123.263 2.47772 123.171 2.39668 122.974 2.39668C122.891 2.39668 122.833 2.40499 122.802 2.4133V2.7998Z"></path>
</g>
<defs>
<clipPath id="clip0_4048_8676">
<rect transform="translate(0.341309 0.936035)" fill="white" height="32" width="124.675"></rect>
</clipPath>
</defs>
</svg>
