<svg xmlns="http://www.w3.org/2000/svg" fill="none" viewBox="0 0 126 33" height="33" width="126">
<g clip-path="url(#clip0_8099_27614)">
<path fill="white" d="M68.4604 6.21556C67.9645 5.01757 67.2582 3.94667 66.3353 3.02578C65.4019 2.09447 64.306 1.37776 63.0892 0.856893C61.8996 0.348529 60.6391 0.104764 59.3515 0.0630948C64.7748 1.77362 67.8833 7.56981 65.7852 12.9681C64.2747 16.8412 59.8224 18.7726 55.9805 17.0704C55.8617 17.0183 55.7429 16.96 55.6284 16.9037C54.9762 16.3349 54.4887 15.6057 54.2345 14.714C53.6491 12.6639 54.3387 10.1262 56.5659 8.53237C52.6136 9.86995 52.1094 15.3953 54.8346 17.7204C54.1845 17.2621 53.6178 16.7579 53.1303 16.2245C51.5448 14.2515 50.9697 11.8055 51.3718 9.51368C58.066 7.4073 54.3116 3.5904 57.8327 0.0255924C50.5822 -0.0744138 49.7926 4.70505 50.1988 7.65315C50.378 6.0343 52.7573 2.60283 55.1637 1.41735C51.1302 5.18424 48.1154 10.5304 51.1572 15.5453C50.6697 15.0286 50.2447 14.4744 49.8926 13.9119C53.4511 22.2228 65.6102 22.1395 68.5521 13.7285C69 12.5618 69.2146 11.3409 69.2146 10.0887C69.2146 8.75113 68.9708 7.45105 68.4604 6.21556ZM54.1408 17.6934C54.1699 17.685 54.1991 17.6767 54.2283 17.6704L54.1408 17.6934Z" clip-rule="evenodd" fill-rule="evenodd"></path>
<path fill="white" d="M11.475 5.5654C10.8875 3.80487 9.85405 1.73808 7.56225 1.73808C5.99757 1.73808 4.85166 2.91106 4.85166 4.50491C4.85166 6.04251 5.85797 6.93631 8.31646 8.16556C11.25 9.59064 13.2626 11.1553 13.2626 13.9222C13.2626 17.1078 10.552 19.5954 6.4726 19.5954C5.46628 19.5954 4.48914 19.4558 3.6495 19.2037C2.86612 18.9808 2.33692 18.7558 1.94523 18.5891C1.69313 17.8912 1.33061 15.5431 1.13477 13.8388L2.11191 13.5305C2.67028 15.3181 4.32038 18.4474 7.00179 18.4474C8.70607 18.4474 9.79572 17.2745 9.79572 15.5139C9.79572 13.8659 8.56647 12.8304 6.47051 11.7137C3.59533 10.2594 1.61188 8.75101 1.61188 6.06751C1.61188 2.9944 4.04328 0.590088 8.01019 0.590088C9.7978 0.590088 11.3916 1.14846 11.8938 1.3443C12.0063 2.3777 12.2021 3.60694 12.425 5.34038L11.475 5.5654Z"></path>
<path fill="white" d="M22.71 1.00903C24.9185 1.00903 26.5102 1.31739 27.5999 2.09868C28.9125 2.99249 29.6688 4.39049 29.6688 6.20727C29.6688 9.95125 26.9019 11.6555 23.9684 12.0201C23.5496 12.0764 23.1017 12.0764 22.7954 12.0764L20.8953 11.6284V15.4558C20.8953 17.8309 21.1474 18.0267 23.5496 18.2226V19.1727H14.8574V18.2226C16.9534 18.0267 17.2055 17.8309 17.2055 15.4558V4.7551C17.2055 2.37995 16.9534 2.21119 15.0262 1.98826V1.01112H22.71V1.00903ZM20.8932 10.5117C21.2286 10.6513 21.8162 10.7909 22.4016 10.7909C23.435 10.7909 25.6706 10.0638 25.6706 6.29269C25.6706 3.13416 23.883 2.10077 22.1787 2.10077C21.6474 2.10077 21.312 2.24036 21.1453 2.37995C20.9786 2.54663 20.8932 2.82789 20.8932 3.24667V10.5117Z"></path>
<path fill="white" d="M48.6972 19.4249C48.5305 19.4249 48.195 19.3978 47.8596 19.3978C44.3386 19.2311 43.2489 18.4477 42.1322 16.6872C41.405 15.5413 40.6508 14.0329 39.8404 12.5786C39.3924 11.7119 38.8903 11.3765 37.9965 11.3494H37.4652V15.4288C37.4652 17.7206 37.7444 17.9998 39.8404 18.1956V19.1728H31.4023V18.1956C33.4983 17.9998 33.8046 17.7206 33.8046 15.4288V4.69896C33.8046 2.4634 33.5525 2.18422 31.5128 1.98837V1.01123H39.3653C41.7967 1.01123 43.2218 1.29041 44.3386 2.0738C45.4574 2.80092 46.2387 4.05725 46.2387 5.79069C46.2387 8.24918 44.6177 9.56384 42.7447 10.3451C43.1364 11.1556 44.1969 13.0286 45.0074 14.3121C46.0137 15.8496 46.5991 16.7435 47.1596 17.331C47.7742 17.9727 48.2221 18.3081 48.8638 18.5331L48.6972 19.4249ZM38.1903 10.2597C39.3633 10.2597 40.3133 10.0639 40.9279 9.5055C41.878 8.72212 42.2697 7.60539 42.2697 6.1803C42.2697 3.21762 40.5362 2.12797 38.9716 2.12797C38.2736 2.12797 37.8819 2.24047 37.7132 2.40715C37.5173 2.57383 37.4611 2.8551 37.4611 3.44055V10.2576H38.1903V10.2597Z"></path>
<path fill="white" d="M89.9396 1.98826C88.402 2.0716 87.7041 2.65913 87.5645 3.63628C87.4249 4.503 87.3124 5.5364 87.3124 7.51985V10.5659C87.3124 13.5286 86.8644 15.8745 85.2997 17.5517C84.0142 18.8935 82.1141 19.5914 80.1307 19.5914C78.2868 19.5914 76.5263 19.1997 75.1845 18.1393C73.5928 16.91 72.8656 14.8411 72.8656 11.5722V5.00511C72.8656 2.37787 72.5865 2.18202 70.5176 1.98618V1.00903H78.9285V1.98618C76.8888 2.18202 76.6096 2.37787 76.6096 5.00511V11.068C76.6096 15.2599 78.118 17.6913 81.137 17.6913C84.4622 17.6913 85.9144 15.1766 85.9144 10.5096V7.51985C85.9144 5.5364 85.7748 4.47383 85.6352 3.63628C85.4956 2.65913 84.8247 2.09868 82.9246 1.98826V1.01112H89.9375V1.98826H89.9396Z"></path>
<path fill="white" d="M106.678 5.78845C106.342 4.33628 105.951 3.4133 105.449 2.91119C104.974 2.40907 104.246 2.24031 102.625 2.24031H101.34V15.4578C101.34 17.8329 101.619 18.0017 104.078 18.1955V19.1726H94.9687V18.1955C97.3168 17.9996 97.596 17.8329 97.596 15.4578V2.24031H96.6459C94.3541 2.24031 93.852 2.54867 93.4332 2.99453C92.9853 3.46956 92.6227 4.41961 92.2602 5.81762H91.2539C91.3664 3.77791 91.5331 1.7382 91.5893 0.31311H92.2602C92.7082 0.954817 93.0707 1.01107 93.852 1.01107H105.086C105.84 1.01107 106.232 0.844393 106.707 0.31311H107.378C107.405 1.4861 107.544 3.94667 107.686 5.73428L106.678 5.78845Z"></path>
<path fill="white" d="M120.032 5.56551C119.444 3.80498 118.411 1.73819 116.119 1.73819C114.554 1.73819 113.408 2.91118 113.408 4.50503C113.408 6.04262 114.415 6.93643 116.873 8.16567C119.807 9.59076 121.819 11.1554 121.819 13.9223C121.819 17.1079 119.109 19.5955 115.029 19.5955C114.023 19.5955 113.046 19.456 112.206 19.2039C111.423 18.9809 110.894 18.7559 110.502 18.5892C110.25 17.8913 109.887 15.5432 109.691 13.8389L110.669 13.5306C111.227 15.3182 112.877 18.4476 115.558 18.4476C117.263 18.4476 118.352 17.2746 118.352 15.514C118.352 13.866 117.123 12.8305 115.027 11.7138C112.15 10.2616 110.164 8.75112 110.164 6.06971C110.164 2.9966 112.596 0.592285 116.563 0.592285C118.35 0.592285 119.944 1.15065 120.446 1.3465C120.559 2.3799 120.755 3.60914 120.978 5.34258L120.032 5.56551Z"></path>
<path fill="white" d="M12.0013 25.6687C11.8742 25.1749 11.7492 24.8582 11.545 24.6062C11.3054 24.302 10.9887 24.2145 10.1782 24.2145H9.43235C9.01566 24.2145 8.96357 24.2395 8.96357 24.6437V27.5022H10.1011C11.2262 27.5022 11.3283 27.3876 11.4804 26.5792H11.8971V29.071H11.4804C11.3408 28.2105 11.2283 28.0834 10.1011 28.0834H8.96357V30.1961C8.96357 31.3461 9.07816 31.4232 10.1907 31.5107V31.9149H6.42383V31.5107C7.3843 31.4232 7.49889 31.3461 7.49889 30.1961V25.3895C7.49889 24.2645 7.3843 24.1874 6.44883 24.1124V23.6957H12.2784C12.2909 23.9999 12.3534 24.9103 12.4179 25.6062L12.0013 25.6687Z"></path>
<path fill="white" d="M17.0856 31.9172V31.513C17.844 31.3984 17.9211 31.2609 17.744 30.7296C17.6044 30.3129 17.3898 29.717 17.1627 29.1107H14.6438C14.4792 29.5795 14.3021 30.0587 14.15 30.565C13.9354 31.2484 13.9979 31.4005 14.9209 31.513V31.9172H12.127V31.513C12.9499 31.3984 13.1145 31.2859 13.5437 30.1983L16.1355 23.6604L16.6918 23.5083C17.5023 25.7084 18.2982 27.9857 19.1211 30.1608C19.5378 31.2734 19.7024 31.413 20.5129 31.513V31.9172H17.0856ZM15.9459 25.5813H15.9084C15.5417 26.5564 15.2001 27.5419 14.8459 28.4899H16.946L15.9459 25.5813Z"></path>
<path fill="white" d="M28.8852 32.0316C28.7832 32.0316 28.6331 32.0191 28.4936 32.0191C27.1268 31.9566 26.6226 31.6274 26.0913 30.817C25.7246 30.2607 25.3329 29.5398 24.9662 28.8939C24.7642 28.5147 24.5371 28.3626 24.0433 28.3626H23.7516V30.2732C23.7516 31.3107 23.8662 31.4232 24.8392 31.5128V31.917H21.1973V31.5128C22.1702 31.4253 22.3098 31.3232 22.3098 30.2732V25.327C22.3098 24.2895 22.1952 24.1895 21.2473 24.1124V23.6957H24.6496C25.6871 23.6957 26.3184 23.8228 26.8247 24.152C27.331 24.4936 27.6727 25.0499 27.6727 25.8333C27.6727 26.9334 26.9518 27.5543 26.0788 27.9209C26.2809 28.3126 26.7622 29.1606 27.1414 29.7294C27.5977 30.4253 27.8623 30.8045 28.1414 31.0836C28.4331 31.4128 28.6727 31.5649 28.9644 31.6524L28.8852 32.0316ZM24.1683 27.8959C24.7496 27.8959 25.1683 27.7938 25.4579 27.5542C25.8996 27.1876 26.0913 26.6813 26.0913 26.025C26.0913 24.6707 25.2809 24.1665 24.4725 24.1665C24.1433 24.1665 23.9537 24.229 23.8662 24.2936C23.7787 24.3686 23.7516 24.5082 23.7516 24.7999V27.898H24.1683V27.8959Z"></path>
<path fill="white" d="M36.1969 31.9168V31.5126C37.1845 31.4105 37.2345 31.323 37.2345 30.0958L37.197 25.1247H37.147L34.251 31.8272H33.9218L31.2529 25.2622H31.2154L31.0508 28.677C31.0008 29.7271 31.0008 30.2959 31.0383 30.7375C31.0758 31.3188 31.3425 31.4209 32.1883 31.4959V31.9126H29.1777V31.4959C29.8986 31.4334 30.1382 31.2292 30.2153 30.7625C30.2903 30.3459 30.3799 29.725 30.4799 28.3978L30.6695 25.856C30.7841 24.3392 30.6945 24.2121 29.5819 24.1101V23.6934H32.0112L34.6031 29.5104L37.247 23.6934H39.6492V24.1101C38.5991 24.2121 38.5366 24.2746 38.5616 25.4247L38.6887 30.0917C38.7137 31.3188 38.7637 31.4063 39.8013 31.5084V31.9126H36.1969V31.9168Z"></path>
<path fill="white" d="M47.263 29.8544C47.188 30.3607 46.9339 31.5357 46.8214 31.9149H40.498V31.5107C41.5981 31.4232 41.7127 31.3336 41.7127 30.2711V25.352C41.7127 24.2395 41.5981 24.1874 40.6751 24.1124V23.6957H46.5047C46.5172 23.9478 46.5797 24.8332 46.6318 25.5666L46.2026 25.6291C46.088 25.1479 45.938 24.7812 45.7338 24.5416C45.5317 24.302 45.19 24.2124 44.4066 24.2124H43.6732C43.2316 24.2124 43.192 24.2374 43.192 24.6416V27.3855H44.1649C45.2525 27.3855 45.3796 27.3105 45.5442 26.4375H45.9734V28.9418H45.5442C45.3796 28.0314 45.2525 27.9814 44.1649 27.9814H43.192V30.2336C43.192 30.8399 43.2545 31.1316 43.4961 31.2711C43.7232 31.3982 44.167 31.4107 44.6858 31.4107C45.4567 31.4107 45.8755 31.3211 46.1651 30.994C46.4047 30.7274 46.6338 30.3107 46.8484 29.7794L47.263 29.8544Z"></path>
<path fill="white" d="M55.5845 32.0316C55.4824 32.0316 55.3324 32.0191 55.1928 32.0191C53.826 31.9566 53.3218 31.6274 52.7905 30.817C52.4238 30.2607 52.0322 29.5398 51.6655 28.8939C51.4634 28.5147 51.2363 28.3626 50.7425 28.3626H50.4508V30.2732C50.4508 31.3107 50.5654 31.4232 51.5384 31.5128V31.917H47.8965V31.5128C48.8695 31.4253 49.0091 31.3232 49.0091 30.2732V25.327C49.0091 24.2895 48.8945 24.1895 47.9465 24.1124V23.6957H51.3488C52.3863 23.6957 53.0176 23.8228 53.5239 24.152C54.0302 24.4936 54.3719 25.0499 54.3719 25.8333C54.3719 26.9334 53.651 27.5543 52.778 27.9209C52.9801 28.3126 53.4614 29.1606 53.8406 29.7294C54.2969 30.4253 54.5615 30.8045 54.8407 31.0836C55.1324 31.4128 55.3719 31.5649 55.6636 31.6524L55.5845 32.0316ZM50.8675 27.8959C51.4488 27.8959 51.8676 27.7938 52.1572 27.5542C52.5989 27.1876 52.7905 26.6813 52.7905 26.025C52.7905 24.6707 51.9801 24.1665 51.1717 24.1665C50.8425 24.1665 50.6529 24.229 50.5654 24.2936C50.4779 24.3686 50.4508 24.5082 50.4508 24.7999V27.898H50.8675V27.8959Z"></path>
<path fill="white" d="M60.6435 25.7061C60.3914 24.9103 59.9601 23.9977 58.9101 23.9977C58.1142 23.9977 57.6204 24.579 57.6204 25.2874C57.6204 26.0707 58.1392 26.4895 59.2143 27.0208C60.4164 27.6271 61.4269 28.2855 61.4269 29.6001C61.4269 31.0044 60.2372 32.1044 58.4413 32.1044C57.96 32.1044 57.5308 32.0294 57.1891 31.9149C56.8474 31.8128 56.6203 31.7253 56.4683 31.6482C56.3537 31.344 56.1891 30.2814 56.1016 29.573L56.5308 29.4459C56.7579 30.2418 57.4412 31.6086 58.6809 31.6086C59.5289 31.6086 60.0476 31.0523 60.0476 30.2043C60.0476 29.3939 59.4414 28.9272 58.4913 28.4334C57.3662 27.8521 56.3287 27.1812 56.3287 25.8916C56.3287 24.5769 57.3787 23.5018 59.1122 23.5018C59.8455 23.5018 60.4914 23.7164 60.8185 23.8185C60.8685 24.2873 60.9456 24.8186 61.0456 25.6145L60.6435 25.7061Z"></path>
<path fill="white" d="M71.9391 31.917V31.5128C72.9267 31.4107 72.9767 31.3232 72.9767 30.0961L72.9392 25.1249H72.8892L69.9932 31.8274H69.664L66.995 25.2645H66.9575L66.793 28.6793C66.7429 29.7294 66.7429 30.2982 66.7805 30.7399C66.818 31.3212 67.0846 31.4232 67.9305 31.4982V31.9149H64.9199V31.4982C65.6408 31.4357 65.8804 31.2316 65.9575 30.7649C66.0325 30.3482 66.1221 29.7273 66.2242 28.4001L66.4138 25.8583C66.5284 24.3415 66.4388 24.2145 65.3262 24.1124V23.6957H67.7555L70.3473 29.5127L72.9913 23.6957H75.3935V24.1124C74.3434 24.2145 74.2809 24.277 74.3059 25.427L74.433 30.094C74.458 31.3211 74.508 31.4087 75.5456 31.5107V31.9149H71.9391V31.917Z"></path>
<path fill="white" d="M81.0954 31.9172V31.513C81.8537 31.3984 81.9308 31.2609 81.7537 30.7296C81.6141 30.3129 81.3995 29.717 81.1724 29.1107H78.6556C78.491 29.5795 78.3139 30.0587 78.1618 30.565C77.9472 31.2484 78.0097 31.4005 78.9327 31.513V31.9172H76.1367V31.513C76.9597 31.3984 77.1243 31.2859 77.5535 30.1983L80.1453 23.6604L80.7016 23.5083C81.5121 25.7084 82.3079 27.9857 83.1309 30.1608C83.5476 31.2734 83.7122 31.413 84.5227 31.513V31.9172H81.0954ZM79.9578 25.5813H79.9203C79.5536 26.5564 79.2119 27.5419 78.8577 28.4899H80.9578L79.9578 25.5813Z"></path>
<path fill="white" d="M92.895 32.0316C92.7929 32.0316 92.6429 32.0191 92.5033 32.0191C91.1366 31.9566 90.6324 31.6274 90.1011 30.817C89.7344 30.2607 89.3427 29.5398 88.976 28.8939C88.7739 28.5147 88.5468 28.3626 88.053 28.3626H87.7614V30.2732C87.7614 31.3107 87.8759 31.4232 88.8489 31.5128V31.917H85.207V31.5128C86.1821 31.4253 86.3196 31.3232 86.3196 30.2732V25.327C86.3196 24.2895 86.205 24.1895 85.257 24.1124V23.6957H88.6593C89.6969 23.6957 90.3282 23.8228 90.8345 24.152C91.3407 24.4936 91.6824 25.0499 91.6824 25.8333C91.6824 26.9334 90.9616 27.5543 90.0886 27.9209C90.2907 28.3126 90.772 29.1606 91.1511 29.7294C91.6074 30.4253 91.872 30.8045 92.1512 31.0836C92.4429 31.4128 92.6825 31.5649 92.9742 31.6524L92.895 32.0316ZM88.178 27.8959C88.7593 27.8959 89.1781 27.7938 89.4677 27.5542C89.9094 27.1876 90.1011 26.6813 90.1011 26.025C90.1011 24.6707 89.2906 24.1665 88.4822 24.1665C88.153 24.1665 87.9635 24.229 87.8759 24.2936C87.7884 24.3686 87.7614 24.5082 87.7614 24.7999V27.898H88.178V27.8959Z"></path>
<path fill="white" d="M99.2945 31.917C98.5861 31.044 97.5486 29.6523 96.5631 28.3251C96.2839 27.9584 96.1214 27.8959 95.9172 27.9209V30.2482C95.9172 31.3357 96.0443 31.4253 97.0298 31.5128V31.917H93.4379V31.5128C94.3609 31.4253 94.488 31.3357 94.488 30.2482V25.3791C94.488 24.2665 94.3734 24.1895 93.4004 24.1145V23.6978H96.9548V24.1145C96.0318 24.1895 95.9172 24.279 95.9172 25.3791V27.5417C96.1964 27.4667 96.486 27.2772 96.8527 26.9084C97.6486 26.125 98.2819 25.4041 98.7507 24.7957C99.0799 24.3791 99.0674 24.2145 98.4715 24.1374L98.2319 24.1124V23.6957H101.42V24.1124C100.584 24.1874 100.142 24.327 99.3966 25.0103C98.7507 25.6166 98.0819 26.325 97.4236 27.0084C98.2715 28.223 99.3841 29.6002 100.18 30.5753C100.761 31.2586 101.078 31.4357 101.622 31.5107V31.9149H99.2945V31.917Z"></path>
<path fill="white" d="M108.783 29.8543C108.708 30.3606 108.453 31.5356 108.341 31.9148H102.018V31.5106C103.118 31.4231 103.232 31.3335 103.232 30.271V25.3519C103.232 24.2393 103.118 24.1873 102.195 24.1122V23.6956H108.024C108.037 23.9477 108.099 24.8331 108.151 25.5665L107.722 25.629C107.608 25.1477 107.457 24.781 107.253 24.5414C107.051 24.3018 106.71 24.2123 105.926 24.2123H105.193C104.751 24.2123 104.711 24.2373 104.711 24.6414V27.3854H105.684C106.772 27.3854 106.899 27.3104 107.064 26.4374H107.493V28.9417H107.064C106.899 28.0312 106.772 27.9812 105.684 27.9812H104.711V30.2335C104.711 30.8397 104.774 31.1314 105.016 31.271C105.243 31.3981 105.687 31.4106 106.205 31.4106C106.976 31.4106 107.395 31.321 107.685 30.9939C107.924 30.7272 108.153 30.3105 108.368 29.7793L108.783 29.8543Z"></path>
<path fill="white" d="M116.155 25.7836C116.003 25.1502 115.85 24.7585 115.661 24.5439C115.434 24.2918 115.155 24.2147 114.334 24.2147H113.65V30.2734C113.65 31.3235 113.765 31.4235 114.915 31.5131V31.9173H110.969V31.5131C112.056 31.4256 112.184 31.3235 112.184 30.2734V24.2147H111.615C110.577 24.2147 110.338 24.3293 110.16 24.5689C109.971 24.7835 109.831 25.1877 109.679 25.7961H109.25C109.3 24.9356 109.377 24.0376 109.402 23.3813H109.694C109.883 23.673 110.048 23.698 110.402 23.698H115.461C115.79 23.698 115.942 23.623 116.157 23.3813H116.448C116.448 23.9251 116.511 24.9752 116.575 25.7586L116.155 25.7836Z"></path>
<path fill="white" d="M124.915 1.94642C124.915 2.71522 124.31 3.31942 123.525 3.31942C122.748 3.31942 122.127 2.71522 122.127 1.94642C122.127 1.19429 122.748 0.590088 123.525 0.590088C124.31 0.590088 124.915 1.19429 124.915 1.94642ZM122.475 1.94642C122.475 2.55063 122.923 3.02982 123.533 3.02982C124.129 3.02982 124.567 2.55063 124.567 1.95476C124.567 1.35055 124.129 0.863022 123.525 0.863022C122.923 0.863022 122.475 1.35055 122.475 1.94642ZM123.31 2.65897H122.996V1.30263C123.119 1.27763 123.294 1.26096 123.517 1.26096C123.773 1.26096 123.887 1.30263 123.987 1.36097C124.062 1.41931 124.119 1.52556 124.119 1.6589C124.119 1.80683 124.002 1.9235 123.837 1.97351V1.99017C123.969 2.04018 124.044 2.1381 124.085 2.32144C124.127 2.52771 124.152 2.61105 124.185 2.66105H123.846C123.804 2.61105 123.779 2.48812 123.737 2.32978C123.712 2.18185 123.631 2.11518 123.456 2.11518H123.308V2.65897H123.31ZM123.319 1.89017H123.467C123.64 1.89017 123.781 1.83183 123.781 1.69224C123.781 1.56723 123.69 1.48598 123.492 1.48598C123.408 1.48598 123.35 1.49431 123.319 1.50264V1.89017Z"></path>
</g>
<defs>
<clipPath id="clip0_8099_27614">
<rect transform="translate(0.53125 0.0213623)" fill="white" height="32.0853" width="125.008"></rect>
</clipPath>
</defs>
</svg>
