<svg xmlns="http://www.w3.org/2000/svg" fill="none" viewBox="0 0 138 33" height="33" width="138">
<g clip-path="url(#clip0_4048_19283)">
<path stroke-width="0.703791" stroke="white" fill="white" d="M14.3264 10.3122C14.3264 11.9476 13.6768 13.5159 12.5204 14.6723C11.3641 15.8286 9.79571 16.4782 8.16039 16.4782C6.52506 16.4782 4.95671 15.8286 3.80036 14.6723C2.64402 13.5159 1.99438 11.9476 1.99438 10.3122C1.99438 8.67692 2.64402 7.10857 3.80036 5.95222C4.95671 4.79587 6.52506 4.14624 8.16039 4.14624C9.79571 4.14624 11.3641 4.79587 12.5204 5.95222C13.6768 7.10857 14.3264 8.67692 14.3264 10.3122Z"></path>
<path stroke-width="0.703791" stroke="white" fill="white" d="M14.3264 24.2573C14.3264 25.8926 13.6768 27.461 12.5204 28.6173C11.3641 29.7737 9.79571 30.4233 8.16039 30.4233C6.52506 30.4233 4.95671 29.7737 3.80036 28.6173C2.64402 27.461 1.99438 25.8926 1.99438 24.2573C1.99438 22.622 2.64402 21.0536 3.80036 19.8973C4.95671 18.7409 6.52506 18.0913 8.16039 18.0913C9.79571 18.0913 11.3641 18.7409 12.5204 19.8973C13.6768 21.0536 14.3264 22.622 14.3264 24.2573Z"></path>
<path stroke-width="0.703791" stroke="white" fill="white" d="M17.2114 21.8433L19.2294 19.4333C20.5374 20.4603 21.9564 21.0023 23.4704 21.0023C24.4604 21.0023 24.9834 20.6663 24.9834 20.1053V20.0683C24.9834 19.5083 24.5564 19.2273 22.7604 18.7983C19.9764 18.1633 17.8284 17.3783 17.8284 14.7073V14.6703C17.8284 12.2413 19.7484 10.4843 22.8904 10.4843C25.1144 10.4843 26.8524 11.0823 28.2714 12.2223L26.4584 14.7823C25.2624 13.9223 23.9554 13.4923 22.7964 13.4923C21.9184 13.4923 21.4884 13.8473 21.4884 14.3333V14.3773C21.4884 14.9753 21.9364 15.2373 23.7674 15.6473C26.7544 16.3013 28.6244 17.2733 28.6244 19.7203V19.7573C28.6244 22.4293 26.5134 24.0163 23.3384 24.0163C21.0224 24.0133 18.8374 23.2843 17.2114 21.8433ZM33.9314 13.8873H29.7274V10.7103H41.7804V13.8873H37.5554V23.7883H33.9284L33.9314 13.8873ZM42.5574 17.2883V17.2563C42.5574 13.5003 45.5834 10.4553 49.6184 10.4553C53.6534 10.4553 56.6424 13.4633 56.6424 17.2183V17.2563C56.6424 21.0113 53.6164 24.0563 49.5814 24.0563C45.5464 24.0563 42.5574 21.0433 42.5574 17.2883ZM52.9254 17.2883V17.2563C52.9254 15.3503 51.5804 13.7243 49.5814 13.7243C47.5824 13.7243 46.2604 15.3253 46.2604 17.2123V17.2563C46.2604 19.1423 47.6244 20.7863 49.6224 20.7863C51.5994 20.7763 52.9254 19.1763 52.9254 17.2883ZM58.4984 10.7113H64.1214C67.4104 10.7113 69.5394 12.4113 69.5394 15.2883V15.3253C69.5394 18.4273 67.1674 20.0523 63.9354 20.0523H62.1224V23.7853H58.4954L58.4984 10.7113ZM63.8604 17.2183C65.1304 17.2183 65.9344 16.5273 65.9344 15.5003V15.4633C65.9344 14.3423 65.1314 13.7633 63.8414 13.7633H62.1234V17.2193L63.8604 17.2183ZM83.4324 21.8433L85.4504 19.4333C86.7584 20.4603 88.1774 21.0023 89.6914 21.0023C90.6814 21.0023 91.2044 20.6663 91.2044 20.1053V20.0683C91.2044 19.5083 90.7774 19.2273 88.9814 18.7983C86.1974 18.1633 84.0494 17.3783 84.0494 14.7073V14.6703C84.0494 12.2413 85.9694 10.4843 89.1114 10.4843C91.3354 10.4843 93.0734 11.0823 94.4924 12.2223L92.6794 14.7823C91.4834 13.9223 90.1764 13.4923 89.0174 13.4923C88.1394 13.4923 87.7094 13.8473 87.7094 14.3333V14.3773C87.7094 14.9753 88.1574 15.2373 89.9884 15.6473C92.9754 16.3013 94.8454 17.2733 94.8454 19.7203V19.7573C94.8454 22.4293 92.7344 24.0163 89.5594 24.0163C87.2434 24.0133 85.0584 23.2843 83.4324 21.8433ZM96.8814 10.7113H100.508V15.6063H104.714V10.7113H108.341V23.7883H104.714V18.8193H100.511V23.7883H96.8844L96.8814 10.7113ZM110.283 17.2883V17.2563C110.283 13.5003 113.309 10.4553 117.344 10.4553C121.379 10.4553 124.369 13.4633 124.369 17.2183V17.2563C124.369 21.0113 121.342 24.0563 117.308 24.0563C113.274 24.0563 110.283 21.0433 110.283 17.2883ZM120.651 17.2883V17.2563C120.651 15.3503 119.306 13.7243 117.308 13.7243C115.31 13.7243 113.982 15.3303 113.982 17.2173V17.2553C113.982 19.1413 115.345 20.7853 117.344 20.7853C119.327 20.7753 120.651 19.1763 120.651 17.2883ZM126.225 10.7113H131.847C135.136 10.7113 137.265 12.4113 137.265 15.2883V15.3253C137.265 18.4273 134.893 20.0523 131.661 20.0523H129.848V23.7853H126.221L126.225 10.7113ZM131.586 17.2183C132.856 17.2183 133.66 16.5273 133.66 15.5003V15.4633C133.66 14.3423 132.857 13.7633 131.568 13.7633H129.849V17.2193L131.586 17.2183ZM79.3534 23.7883L78.3674 22.8023C78.0101 23.1825 77.5844 23.4919 77.1124 23.7143L77.0874 23.7253C76.4774 24.0042 75.8142 24.1475 75.1434 24.1453L75.0704 24.1443H75.0744H75.0624C74.5235 24.1447 73.9869 24.0741 73.4664 23.9343L73.5094 23.9443C73.0086 23.7992 72.5385 23.5637 72.1224 23.2493L72.1334 23.2573C71.7497 22.9609 71.4316 22.588 71.1994 22.1623L71.1904 22.1443C70.9535 21.713 70.8299 21.2285 70.8314 20.7363L70.8324 20.6573V20.6613V20.6303C70.8324 20.2533 70.9064 19.8933 71.0404 19.5633L71.0334 19.5823C71.1694 19.2463 71.3514 18.9573 71.5764 18.7073L71.5744 18.7103C71.8034 18.4563 72.0634 18.2353 72.3494 18.0523L72.3644 18.0433C72.6234 17.8723 72.9234 17.7043 73.2364 17.5573L73.2814 17.5383C72.9482 17.212 72.6687 16.835 72.4534 16.4213L72.4424 16.3973C72.2305 15.9815 72.1208 15.5211 72.1224 15.0543V15.0083V15.0103C72.1224 14.4773 72.2034 14.0163 72.4224 13.6363C72.6384 13.2613 72.9214 12.9493 73.2574 12.7063L73.2664 12.7003C73.5984 12.4633 73.9864 12.2803 74.4044 12.1723L74.4284 12.1673C74.8433 12.0579 75.2704 12.0022 75.6994 12.0013C76.1594 12.0013 76.6064 12.0653 77.0284 12.1853L76.9944 12.1773C77.4294 12.2953 77.8094 12.4823 78.1434 12.7273L78.1334 12.7203C78.4634 12.9783 78.7314 13.2983 78.9234 13.6643L78.9314 13.6803C79.1244 14.0483 79.2384 14.4853 79.2384 14.9483L79.2374 15.0203V15.0163L79.2384 15.0983C79.2384 15.4393 79.1774 15.7663 79.0654 16.0683L79.0714 16.0493C78.9547 16.3486 78.7853 16.6246 78.5714 16.8643L78.5734 16.8613C78.3494 17.1283 78.1034 17.3633 77.8324 17.5693L77.8214 17.5773C77.5834 17.7592 77.3302 17.9201 77.0644 18.0583L77.0354 18.0723L78.3204 19.3523L79.4024 17.7633H82.4204L79.9884 21.0293L82.8474 23.7883H79.3534ZM74.7524 19.0853C74.4616 19.2039 74.1972 19.3789 73.9744 19.6003C73.8459 19.7229 73.7457 19.872 73.6808 20.0373C73.6158 20.2026 73.5877 20.3801 73.5984 20.5573V20.5543C73.5871 20.7415 73.6291 20.928 73.7194 21.0923L73.7164 21.0873C73.8094 21.2673 73.9314 21.4203 74.0774 21.5453L74.0794 21.5473C74.2248 21.6708 74.3911 21.7673 74.5704 21.8323L74.5814 21.8353C74.7254 21.8863 74.8914 21.9163 75.0644 21.9163L75.1174 21.9153H75.1144C75.4341 21.9255 75.7506 21.8481 76.0294 21.6913L76.0204 21.6963C76.2934 21.5553 76.5214 21.3623 76.6984 21.1283L76.7024 21.1233L74.7524 19.0853ZM76.7864 15.1133V15.0873C76.7864 14.9498 76.7582 14.8137 76.7036 14.6875C76.649 14.5612 76.5691 14.4475 76.4688 14.3533C76.3686 14.2592 76.2501 14.1866 76.1207 14.1399C75.9913 14.0933 75.8537 14.0737 75.7164 14.0823H75.7194H75.6944C75.4074 14.0823 75.1464 14.1943 74.9534 14.3773C74.7717 14.5621 74.671 14.8111 74.6714 15.0703L74.6734 15.1273V15.1243C74.6764 15.3923 74.7554 15.6413 74.8904 15.8513L74.8874 15.8453C75.0494 16.1303 75.2514 16.3723 75.4884 16.5743L75.4924 16.5773C75.8484 16.4333 76.1534 16.2353 76.4134 15.9893L76.4124 15.9903C76.6444 15.7763 76.7894 15.4713 76.7894 15.1323V15.1133V15.1143L76.7864 15.1133Z"></path>
</g>
<defs>
<clipPath id="clip0_4048_19283">
<rect transform="translate(0.927246 0.936035)" fill="white" height="32" width="137"></rect>
</clipPath>
</defs>
</svg>
