<svg xmlns="http://www.w3.org/2000/svg" fill="none" viewBox="0 0 32 32" height="32" width="32">
<path fill="#004600" d="M15.9999 23.9999C17.5822 23.9999 19.1289 23.5307 20.4445 22.6517C21.7601 21.7726 22.7855 20.5232 23.391 19.0614C23.9965 17.5996 24.1549 15.991 23.8462 14.4392C23.5375 12.8873 22.7756 11.4619 21.6568 10.3431C20.538 9.22424 19.1125 8.46232 17.5606 8.15364C16.0088 7.84495 14.4003 8.00338 12.9385 8.60888C11.4766 9.21438 10.2272 10.2398 9.34816 11.5554C8.46911 12.8709 7.99992 14.4177 7.99992 15.9999C8.00204 18.121 8.84557 20.1546 10.3454 21.6544C11.8452 23.1543 13.8788 23.9978 15.9999 23.9999ZM15.9999 10.6666C17.0548 10.6666 18.0859 10.9794 18.963 11.5654C19.84 12.1514 20.5236 12.9844 20.9273 13.9589C21.3309 14.9335 21.4366 16.0058 21.2308 17.0404C21.025 18.075 20.517 19.0253 19.7712 19.7712C19.0253 20.517 18.075 21.025 17.0404 21.2308C16.0058 21.4366 14.9335 21.3309 13.9589 20.9273C12.9844 20.5236 12.1514 19.84 11.5654 18.963C10.9794 18.0859 10.6666 17.0548 10.6666 15.9999C10.6666 14.5854 11.2285 13.2289 12.2287 12.2287C13.2289 11.2285 14.5854 10.6666 15.9999 10.6666ZM15.9999 5.33325C16.3535 5.33325 16.6927 5.19278 16.9427 4.94273C17.1928 4.69268 17.3333 4.35354 17.3333 3.99992V2.66659C17.3333 2.31296 17.1928 1.97382 16.9427 1.72378C16.6927 1.47373 16.3535 1.33325 15.9999 1.33325C15.6463 1.33325 15.3072 1.47373 15.0571 1.72378C14.8071 1.97382 14.6666 2.31296 14.6666 2.66659V3.99992C14.6666 4.35354 14.8071 4.69268 15.0571 4.94273C15.3072 5.19278 15.6463 5.33325 15.9999 5.33325ZM14.6666 27.9999V29.3333C14.6666 29.6869 14.8071 30.026 15.0571 30.2761C15.3072 30.5261 15.6463 30.6666 15.9999 30.6666C16.3535 30.6666 16.6927 30.5261 16.9427 30.2761C17.1928 30.026 17.3333 29.6869 17.3333 29.3333V27.9999C17.3333 27.6463 17.1928 27.3072 16.9427 27.0571C16.6927 26.8071 16.3535 26.6666 15.9999 26.6666C15.6463 26.6666 15.3072 26.8071 15.0571 27.0571C14.8071 27.3072 14.6666 27.6463 14.6666 27.9999ZM24.4853 8.84792C24.8388 8.84784 25.1779 8.70732 25.4279 8.45725L26.3706 7.51459C26.6135 7.26312 26.7479 6.92631 26.7448 6.57672C26.7418 6.22712 26.6016 5.8927 26.3543 5.64549C26.1071 5.39828 25.7727 5.25806 25.4231 5.25502C25.0735 5.25198 24.7367 5.38637 24.4853 5.62925L23.5426 6.57192C23.3562 6.75839 23.2292 6.99594 23.1778 7.25454C23.1264 7.51315 23.1528 7.78119 23.2537 8.02479C23.3546 8.26839 23.5254 8.47661 23.7446 8.62312C23.9639 8.76963 24.2216 8.84786 24.4853 8.84792ZM6.57192 23.5426L5.62925 24.4853C5.50191 24.6082 5.40033 24.7554 5.33045 24.918C5.26057 25.0807 5.22379 25.2557 5.22225 25.4327C5.22071 25.6098 5.25445 25.7853 5.32149 25.9492C5.38853 26.1131 5.48754 26.2619 5.61273 26.3871C5.73792 26.5123 5.88679 26.6113 6.05065 26.6783C6.21451 26.7454 6.39008 26.7791 6.56712 26.7776C6.74416 26.776 6.91912 26.7393 7.08179 26.6694C7.24446 26.5995 7.39159 26.4979 7.51459 26.3706L8.45725 25.4279C8.70013 25.1764 8.83452 24.8396 8.83148 24.4901C8.82845 24.1405 8.68822 23.806 8.44101 23.5588C8.1938 23.3116 7.85938 23.1714 7.50979 23.1684C7.16019 23.1653 6.82339 23.2997 6.57192 23.5426ZM29.3333 14.6666H27.9999C27.6463 14.6666 27.3072 14.8071 27.0571 15.0571C26.8071 15.3072 26.6666 15.6463 26.6666 15.9999C26.6666 16.3535 26.8071 16.6927 27.0571 16.9427C27.3072 17.1928 27.6463 17.3333 27.9999 17.3333H29.3333C29.6869 17.3333 30.026 17.1928 30.2761 16.9427C30.5261 16.6927 30.6666 16.3535 30.6666 15.9999C30.6666 15.6463 30.5261 15.3072 30.2761 15.0571C30.026 14.8071 29.6869 14.6666 29.3333 14.6666ZM2.66659 17.3333H3.99992C4.35354 17.3333 4.69268 17.1928 4.94273 16.9427C5.19278 16.6927 5.33325 16.3535 5.33325 15.9999C5.33325 15.6463 5.19278 15.3072 4.94273 15.0571C4.69268 14.8071 4.35354 14.6666 3.99992 14.6666H2.66659C2.31296 14.6666 1.97382 14.8071 1.72378 15.0571C1.47373 15.3072 1.33325 15.6463 1.33325 15.9999C1.33325 16.3535 1.47373 16.6927 1.72378 16.9427C1.97382 17.1928 2.31296 17.3333 2.66659 17.3333ZM23.5426 23.5426C23.2926 23.7926 23.1522 24.1317 23.1522 24.4853C23.1522 24.8388 23.2926 25.1779 23.5426 25.4279L24.4853 26.3706C24.7367 26.6135 25.0735 26.7479 25.4231 26.7448C25.7727 26.7418 26.1071 26.6016 26.3543 26.3543C26.6016 26.1071 26.7418 25.7727 26.7448 25.4231C26.7479 25.0735 26.6135 24.7367 26.3706 24.4853L25.4279 23.5426C25.1779 23.2926 24.8388 23.1522 24.4853 23.1522C24.1317 23.1522 23.7926 23.2926 23.5426 23.5426ZM6.57192 8.45725C6.82339 8.70013 7.16019 8.83452 7.50979 8.83148C7.85938 8.82845 8.1938 8.68822 8.44101 8.44101C8.68822 8.1938 8.82845 7.85938 8.83148 7.50979C8.83452 7.16019 8.70013 6.82339 8.45725 6.57192L7.51459 5.62925C7.26312 5.38637 6.92631 5.25198 6.57672 5.25502C6.22712 5.25806 5.8927 5.39828 5.64549 5.64549C5.39828 5.8927 5.25806 6.22712 5.25502 6.57672C5.25198 6.92631 5.38637 7.26312 5.62925 7.51459L6.57192 8.45725Z"></path>
</svg>
