<svg xmlns="http://www.w3.org/2000/svg" fill="none" viewBox="0 0 125 41" height="41" width="125">
<g clip-path="url(#clip0_8099_27524)">
<path fill="white" d="M86.6199 9.9339V21.676C86.6199 24.7151 85.622 26.5234 83.2784 26.5234C80.9463 26.5234 79.9371 24.7151 79.9371 21.676V9.9339H73.288V22.1226C73.288 28.5057 77.2797 31.1418 83.2673 31.1418C88.2121 31.1418 93.2465 28.5057 93.2465 22.1226V9.9339C93.2577 9.9339 86.6199 9.9339 86.6199 9.9339ZM36.0062 9.46551C29.1442 9.46551 24.5917 13.7681 24.5917 20.4561C24.5917 27.166 29.4132 31.1418 35.6138 31.1418C41.3321 31.1418 46.8825 27.6778 46.8825 20.0967C46.8825 13.8443 42.5431 9.46551 36.0062 9.46551ZM35.8045 26.5559C32.9676 26.5559 31.4426 23.8765 31.4426 20.3145C31.4426 17.2319 32.6536 14.0731 35.8267 14.0731C38.8317 14.0731 40.0427 17.2319 40.0427 20.2928C40.0539 24.0398 38.4057 26.5559 35.8045 26.5559ZM19.8601 8.47429C17.6288 9.95569 17.0457 12.2213 17.0457 12.2213C15.8348 10.74 13.3344 9.56356 10.4079 9.56356C5.51919 9.56356 0.40625 13.8008 0.40625 20.4888C0.40625 26.4252 4.72309 30.9892 10.4079 30.9892C12.7625 30.9892 14.3547 30.4228 15.6217 29.2028V29.6494C15.6217 33.4184 13.2222 35.1067 10.0715 35.1067C6.98804 35.1067 4.81279 34.1155 3.45608 33.364L2.1442 38.2655C3.91579 39.1587 7.42532 40.0301 10.2397 40.0301C13.3904 40.0301 16.5636 39.4418 18.8846 37.4921C21.3065 35.4226 22.1363 32.1439 22.1363 28.1681V18.9856C22.1811 15.805 23.3473 13.572 24.7823 11.9926C24.7823 11.9817 19.8601 8.47429 19.8601 8.47429ZM11.6301 26.6213C8.79327 26.6213 7.26835 23.9418 7.26835 20.3799C7.26835 17.2973 8.47932 14.1384 11.6525 14.1384C14.635 14.1602 15.846 17.2973 15.846 20.3581C15.846 24.1051 14.2202 26.6213 11.6301 26.6213ZM60.0908 9.46551C52.9709 9.46551 49.0914 14.0513 49.0914 20.8374V39.5726H55.7292V29.3119C56.9177 30.5101 58.8126 31.1744 61.3466 31.1744C66.1008 31.1744 71.068 27.6234 71.068 20.064C71.068 13.4195 66.5605 9.46551 60.0908 9.46551ZM60.0683 26.5559C57.2317 26.5559 55.7067 23.8765 55.7067 20.3145C55.7067 17.2319 56.9177 14.0731 60.0908 14.0731C63.0958 14.0731 64.3068 17.2319 64.3068 20.2928C64.2732 24.0398 62.6585 26.5559 60.0683 26.5559ZM124.384 5.51151V0.566282C123.464 0.30486 122.321 0.119686 120.874 0.119686C118.934 0.119686 116.636 0.664316 114.965 2.18928C113.07 3.91031 112.274 6.66612 112.274 9.12785V9.90122H105.412V8.85554C105.311 3.84495 110.357 5.30456 110.94 5.48974V0.544496C110.009 0.283074 108.866 0.0979004 107.419 0.0979004C105.479 0.0979004 103.181 0.642529 101.51 2.16749C99.6153 3.88852 98.8192 6.63346 98.8192 9.10606V9.87944H95.9823V14.6395H98.8192V30.6734C98.8192 35.0739 95.6683 34.4421 94.2669 34.2244L93.5605 38.9845C94.2333 39.2458 95.3095 39.5072 96.3972 39.5072C99.4022 39.5291 101.533 38.6358 102.968 37.2744C104.762 35.5533 105.446 33.0806 105.446 30.6299L105.491 14.6504H112.297V30.6843C112.398 35.3244 108.664 34.3768 107.744 34.2353L107.038 38.9952C107.711 39.2567 108.787 39.5181 109.875 39.5181C112.88 39.54 115.01 38.6468 116.445 37.2851C118.239 35.5642 118.912 33.0916 118.912 30.6408L118.957 14.6613H124.406V9.9339H118.878V8.87733C118.946 3.81227 123.801 5.34812 124.384 5.51151Z"></path>
</g>
<defs>
<clipPath id="clip0_8099_27524">
<rect transform="translate(0.40625 0.0639648)" fill="white" height="40" width="124"></rect>
</clipPath>
</defs>
</svg>
