<svg xmlns="http://www.w3.org/2000/svg" fill="none" viewBox="0 0 138 33" height="33" width="138">
<g clip-path="url(#clip0_8099_27638)">
<path stroke="#FF5528" fill="white" d="M13.9394 9.43993C13.9394 11.0753 13.2898 12.6436 12.1334 13.7999C10.9771 14.9563 9.40875 15.6059 7.77342 15.6059C6.1381 15.6059 4.56975 14.9563 3.4134 13.7999C2.25705 12.6436 1.60742 11.0753 1.60742 9.43993C1.60742 7.8046 2.25705 6.23625 3.4134 5.07991C4.56975 3.92356 6.1381 3.27393 7.77342 3.27393C9.40875 3.27393 10.9771 3.92356 12.1334 5.07991C13.2898 6.23625 13.9394 7.8046 13.9394 9.43993Z"></path>
<path stroke="#FF5528" fill="white" d="M13.9394 23.385C13.9394 25.0203 13.2898 26.5887 12.1334 27.745C10.9771 28.9014 9.40875 29.551 7.77342 29.551C6.1381 29.551 4.56975 28.9014 3.4134 27.745C2.25705 26.5887 1.60742 25.0203 1.60742 23.385C1.60742 21.7497 2.25705 20.1813 3.4134 19.025C4.56975 17.8686 6.1381 17.219 7.77342 17.219C9.40875 17.219 10.9771 17.8686 12.1334 19.025C13.2898 20.1813 13.9394 21.7497 13.9394 23.385Z"></path>
<path stroke="#FF5528" fill="white" d="M16.8242 20.971L18.8422 18.561C20.1502 19.588 21.5692 20.13 23.0832 20.13C24.0732 20.13 24.5962 19.794 24.5962 19.233V19.196C24.5962 18.636 24.1692 18.355 22.3732 17.926C19.5892 17.291 17.4412 16.506 17.4412 13.835V13.798C17.4412 11.369 19.3612 9.61201 22.5032 9.61201C24.7272 9.61201 26.4652 10.21 27.8842 11.35L26.0712 13.91C24.8752 13.05 23.5682 12.62 22.4092 12.62C21.5312 12.62 21.1012 12.975 21.1012 13.461V13.505C21.1012 14.103 21.5492 14.365 23.3802 14.775C26.3672 15.429 28.2372 16.401 28.2372 18.848V18.885C28.2372 21.557 26.1262 23.144 22.9512 23.144C20.6352 23.141 18.4502 22.412 16.8242 20.971ZM33.5442 13.015H29.3402V9.83801H41.3932V13.015H37.1682V22.916H33.5412L33.5442 13.015ZM42.1702 16.416V16.384C42.1702 12.628 45.1962 9.58301 49.2312 9.58301C53.2662 9.58301 56.2552 12.591 56.2552 16.346V16.384C56.2552 20.139 53.2292 23.184 49.1942 23.184C45.1592 23.184 42.1702 20.171 42.1702 16.416ZM52.5382 16.416V16.384C52.5382 14.478 51.1932 12.852 49.1942 12.852C47.1952 12.852 45.8732 14.453 45.8732 16.34V16.384C45.8732 18.27 47.2372 19.914 49.2352 19.914C51.2122 19.904 52.5382 18.304 52.5382 16.416ZM58.1112 9.83901H63.7342C67.0232 9.83901 69.1522 11.539 69.1522 14.416V14.453C69.1522 17.555 66.7802 19.18 63.5482 19.18H61.7352V22.913H58.1082L58.1112 9.83901ZM63.4732 16.346C64.7432 16.346 65.5472 15.655 65.5472 14.628V14.591C65.5472 13.47 64.7442 12.891 63.4542 12.891H61.7362V16.347L63.4732 16.346ZM83.0452 20.971L85.0632 18.561C86.3712 19.588 87.7902 20.13 89.3042 20.13C90.2942 20.13 90.8172 19.794 90.8172 19.233V19.196C90.8172 18.636 90.3902 18.355 88.5942 17.926C85.8102 17.291 83.6622 16.506 83.6622 13.835V13.798C83.6622 11.369 85.5822 9.61201 88.7242 9.61201C90.9482 9.61201 92.6862 10.21 94.1052 11.35L92.2922 13.91C91.0962 13.05 89.7892 12.62 88.6302 12.62C87.7522 12.62 87.3222 12.975 87.3222 13.461V13.505C87.3222 14.103 87.7702 14.365 89.6012 14.775C92.5882 15.429 94.4582 16.401 94.4582 18.848V18.885C94.4582 21.557 92.3472 23.144 89.1722 23.144C86.8562 23.141 84.6712 22.412 83.0452 20.971ZM96.4942 9.83901H100.121V14.734H104.327V9.83901H107.954V22.916H104.327V17.947H100.124V22.916H96.4972L96.4942 9.83901ZM109.896 16.416V16.384C109.896 12.628 112.922 9.58301 116.957 9.58301C120.992 9.58301 123.982 12.591 123.982 16.346V16.384C123.982 20.139 120.955 23.184 116.921 23.184C112.887 23.184 109.896 20.171 109.896 16.416ZM120.264 16.416V16.384C120.264 14.478 118.919 12.852 116.921 12.852C114.923 12.852 113.595 14.458 113.595 16.345V16.383C113.595 18.269 114.958 19.913 116.957 19.913C118.94 19.903 120.264 18.304 120.264 16.416ZM125.838 9.83901H131.46C134.749 9.83901 136.878 11.539 136.878 14.416V14.453C136.878 17.555 134.506 19.18 131.274 19.18H129.461V22.913H125.834L125.838 9.83901ZM131.199 16.346C132.469 16.346 133.273 15.655 133.273 14.628V14.591C133.273 13.47 132.47 12.891 131.181 12.891H129.462V16.347L131.199 16.346ZM78.9662 22.916L77.9802 21.93C77.6229 22.3102 77.1971 22.6196 76.7252 22.842L76.7002 22.853C76.0902 23.1319 75.427 23.2752 74.7562 23.273L74.6832 23.272H74.6872H74.6752C74.1363 23.2724 73.5997 23.2018 73.0792 23.062L73.1222 23.072C72.6214 22.9269 72.1513 22.6913 71.7352 22.377L71.7462 22.385C71.3625 22.0886 71.0444 21.7157 70.8122 21.29L70.8032 21.272C70.5663 20.8406 70.4427 20.3562 70.4442 19.864L70.4452 19.785V19.789V19.758C70.4452 19.381 70.5192 19.021 70.6532 18.691L70.6462 18.71C70.7822 18.374 70.9642 18.085 71.1892 17.835L71.1872 17.838C71.4162 17.584 71.6762 17.363 71.9622 17.18L71.9772 17.171C72.2362 17 72.5362 16.832 72.8492 16.685L72.8942 16.666C72.561 16.3397 72.2815 15.9627 72.0662 15.549L72.0552 15.525C71.8432 15.1092 71.7335 14.6488 71.7352 14.182V14.136V14.138C71.7352 13.605 71.8162 13.144 72.0352 12.764C72.2512 12.389 72.5342 12.077 72.8702 11.834L72.8792 11.828C73.2112 11.591 73.5992 11.408 74.0172 11.3L74.0412 11.295C74.4561 11.1856 74.8832 11.1298 75.3122 11.129C75.7722 11.129 76.2192 11.193 76.6412 11.313L76.6072 11.305C77.0422 11.423 77.4222 11.61 77.7562 11.855L77.7462 11.848C78.0762 12.106 78.3442 12.426 78.5362 12.792L78.5442 12.808C78.7372 13.176 78.8512 13.613 78.8512 14.076L78.8502 14.148V14.144L78.8512 14.226C78.8512 14.567 78.7902 14.894 78.6782 15.196L78.6842 15.177C78.5675 15.4763 78.3981 15.7523 78.1842 15.992L78.1862 15.989C77.9622 16.256 77.7162 16.491 77.4452 16.697L77.4342 16.705C77.1962 16.8869 76.943 17.0478 76.6772 17.186L76.6482 17.2L77.9332 18.48L79.0152 16.891H82.0332L79.6012 20.157L82.4602 22.916H78.9662ZM74.3652 18.213C74.0744 18.3315 73.8099 18.5066 73.5872 18.728C73.4587 18.8506 73.3585 18.9997 73.2936 19.165C73.2286 19.3303 73.2005 19.5077 73.2112 19.685V19.682C73.1999 19.8692 73.2418 20.0557 73.3322 20.22L73.3292 20.215C73.4222 20.395 73.5442 20.548 73.6902 20.673L73.6922 20.675C73.8376 20.7985 74.0039 20.895 74.1832 20.96L74.1942 20.963C74.3382 21.014 74.5042 21.044 74.6772 21.044L74.7302 21.043H74.7272C75.0469 21.0532 75.3634 20.9758 75.6422 20.819L75.6332 20.824C75.9062 20.683 76.1342 20.49 76.3112 20.256L76.3152 20.251L74.3652 18.213ZM76.3992 14.241V14.215C76.3992 14.0775 76.371 13.9414 76.3164 13.8151C76.2618 13.6889 76.1819 13.5752 76.0816 13.481C75.9814 13.3869 75.8629 13.3142 75.7335 13.2676C75.6041 13.221 75.4665 13.2014 75.3292 13.21H75.3322H75.3072C75.0202 13.21 74.7592 13.322 74.5662 13.505C74.3845 13.6898 74.2838 13.9388 74.2842 14.198L74.2862 14.255V14.252C74.2892 14.52 74.3682 14.769 74.5032 14.979L74.5002 14.973C74.6622 15.258 74.8642 15.5 75.1012 15.702L75.1052 15.705C75.4612 15.561 75.7662 15.363 76.0262 15.117L76.0252 15.118C76.2572 14.904 76.4022 14.599 76.4022 14.26V14.241V14.242L76.3992 14.241Z"></path>
</g>
<defs>
<clipPath id="clip0_8099_27638">
<rect transform="translate(0.539062 0.0639648)" fill="white" height="32" width="137"></rect>
</clipPath>
</defs>
</svg>
