<svg xmlns="http://www.w3.org/2000/svg" fill="none" viewBox="0 0 117 41" height="41" width="117">
<g clip-path="url(#clip0_8099_27647)">
<path fill="white" d="M7.83288 19.1256C6.67631 21.7251 5.84993 24.2882 6.15959 25.8663C6.33867 27.1843 7.19956 28.0778 9.41569 27.6795C11.3119 27.2346 14.2602 25.4811 15.2666 24.5148C15.2703 25.5921 15.5837 26.5668 16.3038 27.2104C17.1376 27.867 18.2503 27.9584 19.4936 27.6823C26.3621 26.1508 33.6923 18.2713 35.6109 10.6557C36.3412 7.75678 36.5147 3.23965 33.9264 1.07296C32.1953 -0.376473 29.6434 -0.466013 27.4478 1.5729L27.4348 1.58502C27.8825 1.50388 28.7741 1.45071 29.635 2.03645C30.6013 2.69402 31.2206 3.95131 31.4818 5.7785C31.8875 11.4158 29.0101 17.7704 25.255 21.5078C24.1451 22.5739 23.1247 23.2837 22.442 23.6026C21.5839 24.0037 21.0102 23.9338 20.6754 23.5905C19.8378 22.7296 20.5653 21.0181 20.9907 20.2094L27.2426 8.33133H22.9951L16.703 20.0602C16.2254 20.8185 15.5054 21.49 13.902 22.7222C13.5308 23.0355 13.1304 23.3125 12.7063 23.5495C10.9621 24.4141 10.9836 23.1298 11.422 21.6626C12.0627 19.5164 16.2105 11.4447 17.8819 8.96838L18.2252 8.33133H13.944L13.931 8.35465C13.4002 9.10548 12.8966 9.84886 12.4181 10.5913L12.0823 11.1575C11.4378 12.2403 10.7187 13.4333 9.62275 14.5665C6.95892 17.3199 4.26059 17.9168 0.54839 18.0987L0.539062 18.0996C0.581035 18.1463 0.63793 18.2041 0.710682 18.2703C2.25525 19.6806 5.98051 19.7552 7.59317 19.2077L7.83288 19.1256ZM84.6324 17.3889C84.7263 17.3708 84.8214 17.3599 84.9169 17.3563C85.5726 17.3115 85.9821 17.9691 85.9196 18.5632L85.9214 18.5735L84.7845 20.7L84.735 20.7933C83.9609 22.2483 83.0328 23.279 81.7214 24.0261C81.5843 24.1194 81.3819 24.2126 81.1693 24.263C80.3923 24.3525 80.008 23.8647 80.1424 23.0803C80.5285 20.8232 83.1392 17.4962 84.6324 17.3889ZM89.2512 22.4713L87.4977 23.7239C87.3065 22.4797 91.4459 15.4209 91.4459 15.4209H87.5425C87.5425 15.4209 87.2384 16.0113 87.2403 15.96C87.2403 15.9255 85.7246 14.6281 83.0151 15.8387C82.3212 16.0383 81.2504 16.6959 80.1573 17.6426C76.7809 20.5648 78.5353 19.3952 75.1831 21.9704C74.2803 22.6643 73.5518 23.2072 73.5518 23.2072C74.0107 22.2344 74.422 21.3837 74.7793 20.6534L74.8343 20.5433C75.6318 18.9335 76.3201 17.2788 76.2334 16.3023C76.0636 15.1737 74.8828 14.2382 69.7473 17.3563C69.6941 17.3889 69.2651 17.6902 68.9022 17.9439C69.1121 17.305 69.2268 16.736 69.1886 16.3023C69.0198 15.1737 67.838 14.2382 62.7025 17.3563C62.6661 17.3777 62.4544 17.526 62.2082 17.6986L63.4076 15.4591C63.4124 15.4477 63.4177 15.4365 63.4235 15.4255H59.5807L53.4733 26.8392H57.3096L57.3459 26.7711L60.962 20.0238C61.7119 19.4371 62.2772 19.0585 63.0784 18.5371C63.7173 18.1407 64.3049 17.8804 64.5521 18.0521C64.6658 18.1304 64.7069 18.3925 64.677 18.5035C64.5856 18.843 64.2769 19.4595 64.1874 19.6321C64.095 19.8046 60.3875 26.8392 60.3875 26.8392H64.4635L64.4989 26.7627L66.8904 22.2773C67.2747 21.5591 67.6897 20.7644 68.0628 19.98C68.7856 19.4185 69.3415 19.0454 70.1241 18.5371C70.7621 18.1407 71.3506 17.8804 71.5968 18.0521C71.7106 18.1304 71.7517 18.3925 71.7228 18.5035C71.6304 18.843 71.3217 19.4595 71.2321 19.6321C71.2135 19.6657 71.0559 19.9641 70.486 21.047H70.4878C69.8629 22.2092 69.0981 23.6754 68.6691 24.8114C68.2941 25.8094 68.2643 27.0462 69.5514 27.1563C70.7984 27.2346 72.4326 26.0314 73.0649 25.5492C73.8913 24.9215 75.6075 23.3769 76.4926 22.6084C76.0748 23.7631 75.9573 24.9607 76.3332 26.1098C76.3639 26.2002 76.4003 26.2879 76.4413 26.3719C77.2425 28.006 79.398 27.6273 80.9743 26.6983C82.0591 26.0491 82.9955 25.1528 82.9955 25.1528C82.9955 25.1528 82.8668 27.3447 84.6091 27.3661C86.0651 27.382 89.5376 24.4617 90.6904 23.4553L88.88 26.8392H92.7163L92.7517 26.7711L96.3688 20.0238C97.1196 19.4371 97.6839 19.0585 98.4851 18.5371C99.124 18.1407 99.7107 17.8804 99.9588 18.0521C100.073 18.1304 100.114 18.3925 100.084 18.5035C99.9923 18.843 99.6836 19.4595 99.5931 19.6321L98.8059 21.1263H98.7994C98.181 22.2754 97.4414 23.7006 97.0226 24.8105C96.6728 25.7414 96.6234 26.8811 97.6624 27.119C99.1333 27.4697 101.032 26.1629 102.092 25.2657C102.555 24.9291 103.007 24.5789 103.449 24.2154C103.529 24.7751 103.751 25.3142 104.078 25.7945C105.937 28.5367 110.14 27.7318 111.658 27.0751C113.924 26.0976 115.983 23.7705 112.628 18.5576C112.226 17.9327 112.015 17.3068 112.236 16.8246C112.429 16.404 112.802 15.9796 113.616 16.1102C114.387 16.2762 114.029 17.8114 113.616 18.4764C115.542 18.4737 116.79 17.5158 115.904 16.0215C115.582 15.474 113.444 13.9603 110.885 16.1754C109.499 17.374 109.062 19.7477 110.082 22.2735C110.474 23.2435 110.627 23.9645 110.625 24.5027C110.622 25.5231 109.98 26.0883 108.978 26.0883C107.512 26.0883 106.41 24.6613 106.637 23.2342C106.786 22.3034 107.42 21.2606 108.759 20.298C107.285 19.9212 106.143 20.1889 105.284 20.7495C104.494 21.2615 103.983 21.8547 103.699 22.475C103.456 22.6653 103.171 22.8854 102.835 23.1437C101.933 23.8368 101.205 24.3805 101.205 24.3805C101.492 23.7705 102.461 22.0375 102.709 21.5236C103.194 20.5191 105.017 17.3012 104.537 16.0486C104.22 15.0543 102.849 14.4779 98.1092 17.3563C98.0728 17.3777 97.8611 17.526 97.6149 17.6986L98.8143 15.4591L98.8302 15.4255H94.9874L94.0267 17.222C93.0175 18.9838 92.8179 19.9212 89.2512 22.4713ZM50.7433 17.3889C50.8384 17.3703 50.9335 17.36 51.0287 17.3563C51.6834 17.3115 52.2533 17.9691 52.1899 18.5632L52.1918 18.5735L51.0557 20.7C51.0386 20.731 51.0219 20.7621 51.0053 20.7933C50.2312 22.2483 49.3041 23.279 47.9917 24.0261C47.8565 24.1184 47.6084 24.2098 47.3556 24.2593C46.5069 24.3525 46.089 23.7258 46.3101 22.8042C46.8464 20.5629 49.3106 17.4924 50.7433 17.3889ZM35.0252 21.0797L35.0326 21.061C35.2714 19.9539 35.749 18.7908 37.0296 17.9187C38.354 17.0168 39.0825 17.2872 39.3194 17.7937C39.7307 18.6779 38.368 19.6713 37.786 20.049C36.7647 20.7103 35.7406 20.9836 35.2584 21.0265L35.0252 21.0797ZM53.3782 16.3536C53.2771 16.2341 53.1703 16.1196 53.0582 16.0104C52.3279 15.3034 51.2376 15.1551 50.2928 15.3146C48.4562 15.585 46.81 16.8629 45.6357 18.0157C44.759 18.8784 43.7479 20.0322 43.1193 20.715C42.9234 20.9043 42.7229 21.0974 42.5205 21.2895C41.4889 22.2679 38.2393 24.5475 36.2237 24.4104C35.5167 24.3628 35.0047 24.0447 34.8489 23.3657L34.8452 23.3508C34.8582 23.3505 34.8713 23.3505 34.8843 23.3508C35.4831 23.3322 36.6565 23.0533 37.5901 22.6774C39.1963 22.1122 41.0962 21.1365 42.2472 19.4959C42.5899 19.0101 42.8543 18.4734 43.0307 17.9056C43.3422 16.9039 43.4196 15.1336 40.6933 15.2101C39.242 15.2502 37.786 15.7305 36.4457 16.4935C34.1568 17.706 31.8586 20.1124 31.1246 22.6177C30.5435 24.6025 30.7813 26.8709 33.4237 27.3857C33.8024 27.4603 34.196 27.4818 34.5821 27.4603C37.1891 27.326 40.5123 25.0707 42.5037 23.1298C42.2005 24.291 42.2173 25.4494 42.7853 26.4194C42.9924 26.7729 43.289 27.0686 43.6938 27.285C44.9847 27.9024 46.7652 27.1358 47.8752 26.232C48.002 26.1294 48.1298 26.0268 48.2594 25.9307L46.422 29.3677C45.285 31.4943 42.8749 35.4033 39.782 36.5991C37.7207 37.3956 36.0092 36.4386 36.2508 34.3605C36.3067 33.8065 36.4354 33.3439 36.4727 33.204L36.4149 33.2385C35.0364 34.0947 34.3089 35.7447 34.5215 36.9721C34.6372 38.1996 35.3516 39.5511 37.5799 40.0389C43.5017 40.9735 48.1391 33.3308 49.9682 29.918C50.6864 28.5749 57.7461 15.3976 57.7461 15.3976C56.1931 15.3976 54.0945 15.4013 53.8874 15.4013L53.3782 16.3536Z"></path>
</g>
<defs>
<clipPath id="clip0_8099_27647">
<rect transform="translate(0.539062 0.0107422)" fill="white" height="40.1066" width="115.656"></rect>
</clipPath>
</defs>
</svg>
