<svg xmlns="http://www.w3.org/2000/svg" fill="none" viewBox="0 0 94 33" height="33" width="94">
<g clip-path="url(#clip0_8099_27584)">
<path fill="white" d="M72.5647 18.0081H70.2856V20.5646H72.6474C73.8722 20.5646 74.4752 20.1477 74.4752 19.2967C74.4752 18.4457 73.8102 18.0081 72.5647 18.0081ZM72.7404 12.6402H70.2856V15.412H72.83C74.1599 15.412 74.8128 14.9606 74.8128 14.0373C74.8128 13.1139 74.0927 12.6402 72.7404 12.6402ZM74.8128 14.0373C74.8128 13.0708 74.0927 12.6402 72.7404 12.6402H70.2856V15.412H72.83C74.1599 15.412 74.8128 14.9606 74.8128 14.0373ZM72.5647 18.0081H70.2856V20.5646H72.6474C73.8722 20.5646 74.4752 20.1477 74.4752 19.2967C74.4752 18.4457 73.8102 18.0081 72.5647 18.0081ZM77.0678 0.0213623H16.7681C7.90827 0.0213623 0.724609 7.20331 0.724609 16.0632C0.724609 24.923 7.90827 32.1067 16.7681 32.1067H77.0678C85.9277 32.1067 93.1096 24.923 93.1096 16.0632C93.1096 7.20331 85.9277 0.0213623 77.0678 0.0213623ZM77.0678 30.0291H16.7664C9.05559 30.0291 2.80391 23.7791 2.80391 16.0666C2.80391 8.35407 9.05559 2.10411 16.7664 2.10411H77.0678C84.7787 2.10411 91.0303 8.35579 91.0303 16.0666C91.0303 23.7774 84.7787 30.0291 77.0678 30.0291ZM77.3745 4.1748L16.4546 4.17824C10.0685 4.17824 4.87804 9.51 4.88321 16.0769C4.88321 22.6111 10.0789 27.9429 16.4546 27.9429L77.3745 27.9308C83.7657 27.9257 88.9424 22.6094 88.951 16.07C88.9424 9.48933 83.7657 4.1748 77.3745 4.1748ZM29.1733 22.8024H23.5452V18.0098H19.4349V22.8024H13.8051L13.004 9.31534H19.4349V15.412H23.5452V9.31534H29.9744L29.1733 22.8024ZM36.1606 18.0098H32.3637L32.2104 15.412H36.3139L36.1606 18.0098ZM55.1292 12.6384H44.9808V15.412H52.7002V18.0098H44.9808V20.5646H54.6589L54.528 22.8024H39.351L38.55 9.31534H55.3274L55.1292 12.6384ZM61.4636 18.0081H57.6668L57.5135 15.4103H61.6169L61.4636 18.0081ZM80.2359 19.5637C80.2359 19.5637 80.5098 22.8024 75.688 22.8024H64.6541L63.8513 9.31534H76.477C78.9284 9.31534 80.8371 10.7934 80.832 13.1742C80.832 15.2552 79.6984 16.2492 77.9929 16.735C79.3177 17.0468 80.2359 18.1924 80.2359 19.5637ZM72.7404 12.6402H70.2856V15.412H72.83C74.1599 15.412 74.8128 14.9606 74.8128 14.0373C74.8128 13.1139 74.0927 12.6402 72.7404 12.6402ZM72.5647 18.0081H70.2856V20.5646H72.6474C73.8722 20.5646 74.4752 20.1477 74.4752 19.2967C74.4752 18.4457 73.8102 18.0081 72.5647 18.0081Z"></path>
<path fill="white" d="M72.5643 18.0082H70.2852V20.5647H72.647C73.8718 20.5647 74.4748 20.1478 74.4748 19.2968C74.4748 18.4458 73.8098 18.0082 72.5643 18.0082ZM72.74 12.6403H70.2852V15.4121H72.8296C74.1595 15.4121 74.8124 14.9608 74.8124 14.0374C74.8124 13.114 74.0924 12.6403 72.74 12.6403ZM74.8124 14.0374C74.8124 13.071 74.0924 12.6403 72.74 12.6403H70.2852V15.4121H72.8296C74.1595 15.4121 74.8124 14.9608 74.8124 14.0374ZM72.5643 18.0082H70.2852V20.5647H72.647C73.8718 20.5647 74.4748 20.1478 74.4748 19.2968C74.4748 18.4458 73.8098 18.0082 72.5643 18.0082ZM77.3741 4.17493L16.4542 4.17837C10.0681 4.17837 4.87765 9.51013 4.88282 16.0771C4.88282 22.6113 10.0785 27.943 16.4542 27.943L77.3741 27.931C83.7653 27.9258 88.942 22.6096 88.9507 16.0702C88.942 9.48946 83.7653 4.17493 77.3741 4.17493ZM29.1729 22.8025H23.5448V18.0099H19.4345V22.8025H13.8047L13.0036 9.31547H19.4345V15.4121H23.5448V9.31547H29.974L29.1729 22.8025ZM36.1602 18.0099H32.3634L32.21 15.4121H36.3135L36.1602 18.0099ZM55.1289 12.6386H44.9804V15.4121H52.6998V18.0099H44.9804V20.5647H54.6586L54.5276 22.8025H39.3506L38.5496 9.31547H55.327L55.1289 12.6386ZM61.4632 18.0082H57.6664L57.5131 15.4104H61.6165L61.4632 18.0082ZM80.2355 19.5638C80.2355 19.5638 80.5094 22.8025 75.6876 22.8025H64.6537L63.8509 9.31547H76.4766C78.928 9.31547 80.8367 10.7935 80.8316 13.1743C80.8316 15.2553 79.698 16.2493 77.9925 16.7351C79.3173 17.047 80.2355 18.1926 80.2355 19.5638ZM72.74 12.6403H70.2852V15.4121H72.8296C74.1595 15.4121 74.8124 14.9608 74.8124 14.0374C74.8124 13.114 74.0924 12.6403 72.74 12.6403ZM72.5643 18.0082H70.2852V20.5647H72.647C73.8718 20.5647 74.4748 20.1478 74.4748 19.2968C74.4748 18.4458 73.8098 18.0082 72.5643 18.0082Z"></path>
<path fill="white" d="M72.5643 18.0082H70.2852V20.5647H72.647C73.8718 20.5647 74.4748 20.1478 74.4748 19.2968C74.4748 18.4458 73.8098 18.0082 72.5643 18.0082ZM72.74 12.6403H70.2852V15.4121H72.8296C74.1595 15.4121 74.8124 14.9608 74.8124 14.0374C74.8124 13.114 74.0924 12.6403 72.74 12.6403ZM74.8124 14.0374C74.8124 13.071 74.0924 12.6403 72.74 12.6403H70.2852V15.4121H72.8296C74.1595 15.4121 74.8124 14.9608 74.8124 14.0374ZM72.5643 18.0082H70.2852V20.5647H72.647C73.8718 20.5647 74.4748 20.1478 74.4748 19.2968C74.4748 18.4458 73.8098 18.0082 72.5643 18.0082ZM77.3741 4.17493L16.4542 4.17837C10.0681 4.17837 4.87765 9.51013 4.88282 16.0771C4.88282 22.6113 10.0785 27.943 16.4542 27.943L77.3741 27.931C83.7653 27.9258 88.942 22.6096 88.9507 16.0702C88.942 9.48946 83.7653 4.17493 77.3741 4.17493ZM29.1729 22.8025H23.5448V18.0099H19.4345V22.8025H13.8047L13.0036 9.31547H19.4345V15.4121H23.5448V9.31547H29.974L29.1729 22.8025ZM36.1602 18.0099H32.3634L32.21 15.4121H36.3135L36.1602 18.0099ZM55.1289 12.6386H44.9804V15.4121H52.6998V18.0099H44.9804V20.5647H54.6586L54.5276 22.8025H39.3506L38.5496 9.31547H55.327L55.1289 12.6386ZM61.4632 18.0082H57.6664L57.5131 15.4104H61.6165L61.4632 18.0082ZM80.2355 19.5638C80.2355 19.5638 80.5094 22.8025 75.6876 22.8025H64.6537L63.8509 9.31547H76.4766C78.928 9.31547 80.8367 10.7935 80.8316 13.1743C80.8316 15.2553 79.698 16.2493 77.9925 16.7351C79.3173 17.047 80.2355 18.1926 80.2355 19.5638ZM72.74 12.6403H70.2852V15.4121H72.8296C74.1595 15.4121 74.8124 14.9608 74.8124 14.0374C74.8124 13.114 74.0924 12.6403 72.74 12.6403ZM72.5643 18.0082H70.2852V20.5647H72.647C73.8718 20.5647 74.4748 20.1478 74.4748 19.2968C74.4748 18.4458 73.8098 18.0082 72.5643 18.0082Z"></path>
<path fill="white" d="M92.0863 29.7862C92.0863 29.3624 91.8348 29.1764 91.3283 29.1764H90.5117V31.3194H90.8356V30.3909H91.2094L91.7745 31.3194H92.1379L91.5281 30.3754C91.8434 30.3358 92.0845 30.1687 92.0845 29.7862H92.0863ZM90.8373 30.1153V29.4503H91.28C91.5057 29.4503 91.7469 29.5003 91.7469 29.7656C91.7469 30.0963 91.5006 30.1153 91.2249 30.1153H90.8356H90.8373Z"></path>
<path fill="white" d="M91.2299 28.3892C90.2083 28.3892 89.3418 29.1764 89.3418 30.2428C89.3418 31.3091 90.2066 32.105 91.2299 32.105C92.2532 32.105 93.1076 31.3178 93.1076 30.2428C93.1076 29.1678 92.2428 28.3892 91.2299 28.3892ZM91.2299 31.7967C90.3806 31.7967 89.7156 31.1369 89.7156 30.2428C89.7156 29.3487 90.3789 28.6992 91.2299 28.6992C92.0809 28.6992 92.7338 29.3625 92.7338 30.2428C92.7338 31.1231 92.0706 31.7967 91.2299 31.7967Z"></path>
</g>
<defs>
<clipPath id="clip0_8099_27584">
<rect transform="translate(0.724609 0.0213623)" fill="white" height="32.0853" width="92.385"></rect>
</clipPath>
</defs>
</svg>
