<svg xmlns="http://www.w3.org/2000/svg" fill="none" viewBox="0 0 211 24" height="24" width="211">
<g clip-path="url(#clip0_10520_34648)">
<path fill="white" d="M101.246 0.873535H104.859C104.936 0.891114 105.008 0.923659 105.072 0.969301C105.136 1.01494 105.191 1.07278 105.232 1.13949C107.235 3.97856 109.232 6.8187 111.223 9.65993C111.405 9.9194 111.593 10.1756 111.846 10.5292V0.899482H116.711V20.1491C115.738 20.1491 114.788 20.107 113.834 20.1491C113.554 20.1843 113.27 20.1344 113.019 20.006C112.768 19.8776 112.562 19.6765 112.426 19.4291C110.458 16.5522 108.437 13.7109 106.432 10.86C106.361 10.7594 106.283 10.6654 106.15 10.4935V20.1134H101.246V0.873535ZM12.3606 20.1394H0V0.892996H12.205V5.45323H4.9462V8.1485H11.5173V12.6893H4.93323V15.524H12.3606V20.1394ZM57.7878 0.886509H62.3286V7.6328C62.4 7.61334 62.4421 7.61334 62.4583 7.59388C63.8692 6.00136 65.6661 5.71594 67.6056 6.19597C69.5452 6.67599 70.5604 8.02525 70.995 9.874C71.1437 10.5121 71.2209 11.1648 71.2253 11.82C71.2512 14.4894 71.2253 17.1587 71.2253 19.8248V20.1134H66.6845V19.6658V12.7866C66.6938 12.4893 66.6754 12.1918 66.6294 11.8979C66.5737 11.4888 66.3789 11.1113 66.0777 10.8289C65.7764 10.5466 65.3871 10.3766 64.9752 10.3475C63.8271 10.2308 62.9611 10.6232 62.6237 11.5119C62.4607 11.9734 62.3774 12.4593 62.3773 12.9487C62.3513 15.1899 62.3773 17.4311 62.3773 19.6723V20.1134H57.8365L57.7878 0.886509ZM161.051 0.889752H165.592V7.66848C165.648 7.63778 165.702 7.60195 165.751 7.56144C166.338 6.92375 167.083 6.45134 167.91 6.19144C168.737 5.93153 169.617 5.89324 170.464 6.08039C171.31 6.26753 172.093 6.67356 172.733 7.25789C173.373 7.84222 173.849 8.58438 174.113 9.41019C174.326 10.0489 174.444 10.7156 174.463 11.3887C174.505 14.2364 174.489 17.0873 174.489 19.9351C174.488 20.0045 174.482 20.0738 174.473 20.1426H169.932V19.6626V12.7833C169.941 12.486 169.923 12.1885 169.877 11.8946C169.82 11.4856 169.625 11.1085 169.323 10.8267C169.021 10.5449 168.631 10.3757 168.219 10.3475C167.071 10.2308 166.205 10.6232 165.871 11.5152C165.708 11.9776 165.625 12.4648 165.628 12.9552C165.602 15.1932 165.628 17.4344 165.628 19.6756V20.1134H161.087L161.051 0.889752ZM23.8293 7.46414V6.41652H28.3701V20.1134H23.8293V18.9588C23.7735 18.9837 23.7202 19.0141 23.6704 19.0496C22.4606 20.321 20.9297 20.6908 19.2626 20.4929C16.4311 20.1686 14.3618 18.2517 13.6807 15.3035C13.0645 12.6341 13.4829 10.1432 15.3381 8.0285C16.155 7.10008 17.2375 6.44529 18.4391 6.15288C19.6406 5.86047 20.903 5.94459 22.0552 6.39382C22.674 6.70299 23.2673 7.06089 23.8293 7.46414ZM18.0107 13.2698C18.0522 13.6148 18.114 13.957 18.1955 14.2948C18.588 15.6408 19.8172 16.416 21.2897 16.2408C21.9743 16.1792 22.6118 15.8665 23.0795 15.3628C23.5472 14.8592 23.812 14.2003 23.8228 13.5131C23.9169 11.8914 23.0671 10.6459 21.6789 10.3378C19.6583 9.90319 18.0496 11.1908 18.0107 13.2698ZM186 7.46414V6.41976H190.56V20.1329H186.019V18.962C185.964 18.9847 185.91 19.0129 185.86 19.0464C184.654 20.321 183.123 20.6908 181.453 20.4962C178.621 20.1718 176.548 18.255 175.867 15.3067C175.251 12.6374 175.666 10.1464 177.522 8.03174C178.337 7.10525 179.417 6.45115 180.616 6.15768C181.815 5.86421 183.074 5.9455 184.226 6.39057C184.844 6.7026 185.437 7.06151 186 7.46414ZM180.184 13.2569C180.225 13.6015 180.285 13.9436 180.363 14.2818C180.57 14.925 180.997 15.475 181.568 15.8361C182.139 16.1971 182.819 16.3462 183.489 16.2575C184.159 16.1687 184.777 15.8477 185.234 15.3503C185.692 14.853 185.961 14.2108 185.993 13.5358C186.091 12.0406 185.374 10.847 184.125 10.4286C182.082 9.73453 180.23 11.0805 180.184 13.2569ZM118.264 13.2634C118.248 11.8043 118.667 10.3734 119.466 9.15267C120.265 7.93193 121.41 6.97648 122.753 6.40784C124.097 5.83919 125.58 5.68303 127.012 5.95922C128.445 6.23541 129.763 6.93148 130.8 7.95889C131.836 8.98631 132.543 10.2987 132.831 11.729C133.119 13.1594 132.976 14.6433 132.418 15.9918C131.861 17.3403 130.915 18.4927 129.701 19.3022C128.487 20.1118 127.06 20.5421 125.601 20.5383C124.639 20.5517 123.684 20.3731 122.792 20.013C121.9 19.6529 121.088 19.1186 120.405 18.4412C119.722 17.7638 119.181 16.9569 118.813 16.0679C118.446 15.1788 118.259 14.2254 118.264 13.2634ZM125.633 10.4124C124.012 10.4124 122.87 11.5768 122.87 13.2634C122.87 14.9499 123.986 16.1111 125.588 16.124C127.19 16.137 128.403 14.9532 128.407 13.2731C128.41 11.593 127.258 10.4189 125.633 10.4124ZM51.9367 5.61216V20.1134H47.0294V5.64459H42.2681V0.896239H56.6721V5.61216H51.9367ZM159.939 0.896239V5.6154H155.213V20.1134H150.287V5.64135H145.532V0.896239H159.939ZM78.6429 17.2592L82.6226 15.2483C82.908 15.9716 83.3394 16.5457 84.1178 16.6657C84.576 16.7224 85.0399 16.7159 85.4963 16.6462C85.6344 16.6308 85.7624 16.5664 85.857 16.4646C85.9516 16.3628 86.0066 16.2305 86.012 16.0916C86.0251 15.9602 85.9904 15.8284 85.9141 15.7205C85.8378 15.6126 85.7252 15.5359 85.5968 15.5046C85.1006 15.3197 84.5914 15.1802 84.0854 15.0116C83.3135 14.7618 82.5188 14.5575 81.7696 14.2429C80.3847 13.6623 79.4635 12.6633 79.3241 11.1065C79.1716 9.41992 79.7262 8.01228 81.1598 7.03926C82.5934 6.06623 84.1503 5.87163 85.8076 6.05002C87.8186 6.26408 89.3948 7.16251 90.3971 8.96908C90.4263 9.02422 90.4522 9.08585 90.5041 9.18964L86.6769 10.9151C86.5763 10.7627 86.4888 10.6232 86.3882 10.4902C86.1807 10.1887 85.8837 9.96012 85.5391 9.83672C85.1945 9.71332 84.8198 9.7014 84.4681 9.80264C84.332 9.82204 84.2059 9.88551 84.1093 9.98333C84.0127 10.0811 83.9507 10.2079 83.9329 10.3443C83.9206 10.4768 83.9573 10.6091 84.0363 10.7162C84.1153 10.8233 84.2309 10.8976 84.3611 10.9249C85.0487 11.1422 85.7557 11.3076 86.4466 11.5216C87.1374 11.7357 87.8088 11.9336 88.4607 12.2093C91.5452 13.5293 91.3798 17.9339 88.9505 19.4453C87.9534 20.0567 86.8224 20.4163 85.6552 20.4929C84.1922 20.6565 82.7115 20.4559 81.3447 19.9091C80.1392 19.4026 79.1727 18.4547 78.6429 17.2592ZM30.1345 6.38733H32.1454V3.91261L36.7413 2.52767V6.37436H39.5696V10.7432H36.7284V14.6159C36.7284 15.5662 37.0949 15.9684 38.0452 16.0267C38.5479 16.0559 39.0506 16.0267 39.5761 16.0267V20.2107C38.6031 20.2334 37.6527 20.2724 36.6894 20.2691C36.3044 20.2583 35.9216 20.2061 35.5478 20.1134C33.6731 19.7048 32.6287 18.5988 32.3238 16.6949C32.2232 15.964 32.1712 15.2272 32.1681 14.4894C32.1454 13.2601 32.1681 12.0309 32.1681 10.7627H30.1345V6.38733Z"></path>
<path fill="white" d="M140.008 2.52783V6.37776H142.85V10.7466H140.005V14.6193C140.005 15.5663 140.372 15.9718 141.325 16.0269C141.825 16.0561 142.327 16.0269 142.853 16.0269V20.2109C141.88 20.2336 140.923 20.2725 139.96 20.2693C139.575 20.2571 139.192 20.205 138.818 20.1136C136.943 19.7049 135.883 18.5957 135.594 16.6918C135.495 15.9607 135.443 15.224 135.438 14.4863C135.416 13.2603 135.438 12.031 135.438 10.7596H133.411V6.39722H135.425V3.91277L140.008 2.52783ZM192.01 6.38749H194.018V3.91277L198.617 2.52783V6.37452H201.458V10.7434H198.617V14.616C198.617 15.5663 198.983 15.9685 199.934 16.0269C200.436 16.0561 200.939 16.0269 201.464 16.0269V20.2109C200.491 20.2336 199.541 20.2725 198.578 20.2693C198.189 20.2605 197.801 20.2094 197.423 20.1168C195.548 19.7082 194.504 18.6022 194.199 16.6983C194.097 15.9675 194.045 15.2306 194.044 14.4928C194.018 13.2635 194.044 12.0343 194.044 10.7661H192.01V6.38749ZM77.5597 20.1363H73.0352V6.41019H77.5597V20.1363Z"></path>
<path fill="white" d="M210.996 4.15595C210.996 5.02333 210.706 5.86579 210.173 6.54958C209.738 7.14637 209.264 7.71397 208.81 8.29454C208.023 9.2637 207.489 10.4125 207.253 11.6385C207.237 11.739 207.137 11.8266 207.075 11.9174C207.009 11.8372 206.957 11.7461 206.923 11.6482C206.657 10.2828 206.041 9.00983 205.135 7.95398C204.72 7.43828 204.308 6.92257 203.939 6.37444C203.606 5.89313 203.38 5.34678 203.274 4.77147C203.168 4.19616 203.186 3.60498 203.326 3.03697C203.481 2.24128 203.906 1.52366 204.53 1.00581C205.153 0.487961 205.937 0.20176 206.747 0.195743C207.379 0.171019 208.011 0.252142 208.616 0.435755C210.127 0.912536 210.996 2.27477 210.996 4.15595Z"></path>
<path fill="white" d="M97.1663 15.3522C96.3847 18.2713 95.6192 21.132 94.8538 23.9959H91.166C91.2503 23.2337 91.3249 22.4942 91.4093 21.7515C91.6298 19.7568 91.8601 17.7653 92.058 15.7674C92.0904 15.4723 92.1553 15.3425 92.4893 15.3458C94.03 15.3652 95.5576 15.3522 97.1663 15.3522Z"></path>
<path fill="white" d="M207.062 20.535C206.426 20.5369 205.803 20.35 205.272 19.9977C204.742 19.6455 204.328 19.1439 204.083 18.5563C203.838 17.9688 203.773 17.3217 203.895 16.697C204.018 16.0724 204.323 15.4981 204.773 15.0471C205.222 14.596 205.795 14.2883 206.419 14.163C207.043 14.0377 207.691 14.1004 208.279 14.3432C208.868 14.5859 209.371 14.9978 209.725 15.5267C210.08 16.0555 210.269 16.6777 210.27 17.3143C210.271 17.7364 210.188 18.1545 210.028 18.5448C209.867 18.9351 209.631 19.2899 209.333 19.589C209.035 19.8881 208.681 20.1255 208.292 20.2879C207.902 20.4502 207.484 20.5342 207.062 20.535Z"></path>
<path fill="white" d="M77.9297 2.59907C77.934 3.29927 77.66 3.97251 77.1679 4.47067C76.6758 4.96884 76.006 5.25112 75.3058 5.25542C74.6056 5.25972 73.9324 4.98569 73.4342 4.49361C72.936 4.00153 72.6538 3.33171 72.6495 2.6315C72.6452 1.93129 72.9192 1.25805 73.4113 0.759892C73.9034 0.26173 74.5732 -0.0205514 75.2734 -0.0248525C75.9736 -0.0291535 76.6468 0.244878 77.145 0.736958C77.6432 1.22904 77.9254 1.89886 77.9297 2.59907Z"></path>
</g>
<defs>
<clipPath id="clip0_10520_34648">
<rect transform="translate(0 0.00439453)" fill="white" height="23.9915" width="211"></rect>
</clipPath>
</defs>
</svg>
