<svg xmlns="http://www.w3.org/2000/svg" fill="none" viewBox="0 0 89 26" height="26" width="89">
<path fill="white" d="M50.4188 9.084C50.4188 6.503 50.4633 4.1 50.5968 1.875L43.7883 3.1655V3.7885L44.4558 3.8775C44.9453 3.922 45.2568 4.1 45.4348 4.367C45.6128 4.6785 45.7463 5.1235 45.8353 5.791C45.9243 7.0815 46.0133 10.0185 45.9688 14.6465C45.9688 19.23 45.9243 22.1225 45.8353 23.235C48.2828 23.769 50.1963 23.9915 51.6203 23.9915C54.2903 23.9915 56.3818 23.235 57.8948 21.6775C59.4078 20.1645 60.2088 18.0285 60.2088 15.403C60.2088 13.3115 59.6303 11.576 58.4733 10.1965C57.3163 8.817 55.8478 8.1495 54.1123 8.1495C52.9553 8.1495 51.7538 8.461 50.4188 9.084ZM50.5523 22.79C50.4633 21.366 50.3743 17.094 50.3743 10.1075C50.7748 9.974 51.3088 9.885 51.9763 9.885C53.0443 9.885 53.8898 10.419 54.5128 11.5315C55.1358 12.644 55.4473 13.979 55.4473 15.67C55.4473 17.7615 55.0913 19.4525 54.3793 20.8765C53.6673 22.256 52.7773 22.968 51.6648 22.968C51.3088 22.879 50.9528 22.8345 50.5523 22.79ZM18.2453 2.32H0.445312V3.21L1.37981 3.299C2.09181 3.4325 2.58131 3.6995 2.89281 4.1C3.20431 4.545 3.38231 5.257 3.42681 6.236C3.78281 11.042 3.78281 15.5365 3.42681 19.675C3.33781 20.654 3.15981 21.366 2.89281 21.811C2.58131 22.256 2.09181 22.523 1.37981 22.612L0.445312 22.7455V23.6355H11.9263V22.7455L10.7248 22.6565C10.0128 22.5675 9.52331 22.256 9.21181 21.8555C8.90031 21.4105 8.72231 20.6985 8.67781 19.7195C8.54431 17.9395 8.45531 15.8925 8.45531 13.623L10.8583 13.6675C12.1488 13.712 13.0388 14.691 13.4838 16.649H14.3738V9.3955H13.4838C13.0388 11.309 12.1933 12.288 10.8583 12.3325L8.45531 12.377C8.45531 8.372 8.54431 5.524 8.67781 3.7885H12.1933C14.6853 3.7885 16.3763 5.3905 17.3553 8.5945L18.4233 8.283L18.2453 2.32ZM16.1538 16.026C16.1538 18.34 16.8213 20.2535 18.1118 21.7665C19.4023 23.2795 21.3158 23.9915 23.7188 23.9915C26.1218 23.9915 28.0798 23.235 29.5038 21.6775C30.9278 20.1645 31.5953 18.251 31.5953 15.937C31.5953 13.623 30.9278 11.7095 29.6373 10.1965C28.3468 8.6835 26.4333 7.9715 24.0303 7.9715C21.6273 7.9715 19.6693 8.728 18.2453 10.2855C16.8213 11.7985 16.1538 13.712 16.1538 16.026ZM26.0773 10.953C26.6113 12.2435 26.8338 13.9345 26.8338 15.9815C26.8338 20.6985 25.8548 23.0125 23.9413 23.0125C22.9623 23.0125 22.2058 22.345 21.6718 21.01C21.1378 19.675 20.9153 17.984 20.9153 15.9815C20.9153 11.309 21.8943 8.995 23.8078 8.995C24.7868 8.9505 25.5433 9.618 26.0773 10.953ZM63.6798 21.7665C65.1483 23.235 67.0173 23.9915 69.2423 23.9915C70.6218 23.9915 71.8233 23.7245 72.8913 23.146C73.9593 22.612 74.8048 21.9445 75.3833 21.1435L74.9383 20.6095C73.9593 21.366 72.8468 21.722 71.5563 21.722C69.7763 21.722 68.3968 21.1435 67.4623 19.942C66.4833 18.7405 66.0383 17.2275 66.1273 15.2695H75.6503C75.6503 13.1335 75.1163 11.398 74.0038 10.0185C72.8913 8.6835 71.3338 8.016 69.3313 8.016C66.8393 8.016 64.9258 8.817 63.5463 10.3745C62.1668 11.932 61.4993 13.8455 61.4993 16.115C61.4993 18.429 62.2113 20.298 63.6798 21.7665ZM66.9728 10.597C67.4623 9.529 68.0853 8.995 68.9308 8.995C70.2658 8.995 70.9333 10.686 70.9333 14.1125L66.2163 14.2015C66.2608 12.8665 66.4833 11.665 66.9728 10.597ZM87.6208 8.817C86.4193 8.283 84.9063 7.9715 83.0818 7.9715C81.2128 7.9715 79.7443 8.461 78.6318 9.3955C77.5193 10.33 76.9408 11.487 76.9408 12.8665C76.9408 14.068 77.2968 15.0025 77.9643 15.67C78.6318 16.3375 79.6998 16.916 81.0793 17.4055C82.3253 17.8505 83.2153 18.2955 83.6603 18.696C84.1053 19.141 84.3723 19.6305 84.3723 20.298C84.3723 20.921 84.1498 21.4995 83.6603 21.9445C83.2153 22.434 82.5923 22.6565 81.7913 22.6565C79.8333 22.6565 78.3648 21.2325 77.3413 18.3845L76.5848 18.607L76.7628 23.057C78.3648 23.68 80.1448 23.9915 82.1028 23.9915C84.1498 23.9915 85.7073 23.5465 86.8643 22.612C88.0213 21.722 88.5998 20.4315 88.5998 18.8295C88.5998 17.7615 88.3328 16.8715 87.7543 16.204C87.1758 15.5365 86.2413 14.958 84.9063 14.424C83.4378 13.89 82.4143 13.4005 81.8803 12.9555C81.3463 12.5105 81.0793 11.9765 81.0793 11.309C81.0793 10.6415 81.2573 10.1075 81.6578 9.6625C82.0583 9.2175 82.5478 9.0395 83.1708 9.0395C84.9508 9.0395 86.2413 10.33 87.0423 12.8665L87.7988 12.644L87.6208 8.817ZM44.8118 8.4165C44.1888 8.105 43.5213 7.9715 42.7648 7.9715C42.0083 7.9715 41.2518 8.283 40.4063 8.906C39.5608 9.529 38.9378 10.3745 38.4483 11.5315L38.4928 7.9715L31.7288 9.3065V9.9295L32.3963 9.974C33.2418 10.063 33.7313 10.7305 33.8203 11.932C34.0873 14.691 34.0873 17.628 33.8203 20.743C33.7313 21.9445 33.2418 22.5675 32.3963 22.701L31.7288 22.79V23.6355H41.1628V22.79L39.9613 22.701C39.1158 22.612 38.6263 21.9445 38.5373 20.743C38.2703 18.162 38.2258 15.403 38.4483 12.555C38.7153 12.11 39.2938 11.843 40.1838 11.754C41.0738 11.665 42.0973 11.932 43.1653 12.555L44.8118 8.4165Z"></path>
</svg>
