<svg xmlns="http://www.w3.org/2000/svg" fill="none" viewBox="0 0 41 24" height="24" width="41">
<g clip-path="url(#clip0_70_2153)">
<path fill="white" d="M40.34 15.4555C40.34 10.127 35.18 7.62904 34.2447 7.13254C33.5576 6.76904 33.1719 6.34347 33.3603 5.92456C33.5221 5.56327 34.0053 5.60095 34.3489 5.75832C34.9229 6.02208 37.3345 7.09486 38.1391 7.43177C38.343 7.516 38.5668 7.36971 38.5668 7.15028V0.992862C38.5668 0.844357 38.4605 0.718017 38.3142 0.691419C37.2414 0.500801 32.9148 -0.19961 28.6613 0.108482C26.0171 0.2991 23.9114 0.950749 22.1449 2.44245C20.4648 3.861 19.6358 5.70734 19.5449 7.79527C19.5449 12.7469 24.8756 15.0343 26.272 15.6948C26.9923 16.0362 27.1719 16.4462 27.0256 16.8097C26.9236 17.0646 26.549 17.242 25.9417 16.9804C25.0463 16.5947 22.2601 15.0787 21.1807 14.5866C20.9768 14.4935 20.7463 14.642 20.7463 14.8659V22.433C20.7463 22.5615 20.8261 22.6768 20.948 22.7211C21.7282 23.0048 24.8002 23.9734 30.5963 23.9734C33.2473 23.9734 36.2595 23.0292 38.026 21.5397C39.7061 20.1167 40.34 17.7451 40.34 15.4555Z"></path>
<path fill="white" d="M8.94593 0.429688H0.370329C0.201876 0.429688 0.0644531 0.56711 0.0644531 0.73778V23.295C0.0644531 23.4635 0.201876 23.6009 0.370329 23.6009H8.64006C8.80851 23.6009 8.94593 23.4635 8.94593 23.295V18.9596H10.3778C18.2242 18.9596 20.4983 15.5439 20.4983 9.69462C20.5005 4.47257 17.3642 0.429688 8.94593 0.429688ZM10.2958 12.4253C10.2958 13.6067 9.75495 14.0301 9.3981 14.0301C9.04346 14.0301 8.94593 13.507 8.94593 13.1191V7.15009C8.94593 6.7622 9.04346 6.23911 9.3981 6.23911C9.75274 6.23911 10.2958 6.52504 10.2958 7.84385V12.4253Z"></path>
</g>
<defs>
<clipPath id="clip0_70_2153">
<rect transform="translate(0.0644531)" fill="white" height="24" width="40.2759"></rect>
</clipPath>
</defs>
</svg>
