<svg xmlns="http://www.w3.org/2000/svg" fill="none" viewBox="0 0 129 49" height="49" width="129">
<g clip-path="url(#clip0_8099_27645)">
<path fill="white" d="M117.506 43.984V41.5886H127.303V43.984H117.506ZM109.805 23.7083L115.745 7.15658L128.54 11.728L127.223 15.3929L118.646 12.3278L117.636 15.1419L125.409 17.9191L124.195 21.3006L116.423 18.5234L115.338 21.5497L123.939 24.6235L122.624 28.2885L109.805 23.7083ZM34.4133 37.5072H37.0721V48.064H34.7763V41.1415H34.7457L31.0886 48.064H30.1519L26.4938 41.1415H26.4646V48.064H24.1519V37.5072H26.8271L30.5898 44.8672H30.6204L34.4133 37.5072ZM46.5907 37.5072H48.7516L53.5265 48.064H51.0177L50.3228 46.4357H45.0186L44.3242 48.064H41.8309L46.5907 37.5072ZM47.6641 40.2075L45.8812 44.4142H49.4771L47.6938 40.2075H47.6641ZM64.9349 44.1582L67.5187 48.0635H64.8897L62.4412 44.2487H60.5674V48.064H58.2556V37.5077H63.8314C66.1441 37.5077 67.6092 38.8197 67.6092 40.8709C67.6092 42.5751 66.6127 43.7664 64.9349 44.128V44.1582ZM63.6047 42.2126C64.6625 42.2126 65.2975 41.7303 65.2975 40.8402C65.2975 39.9506 64.7535 39.5282 63.575 39.5282H60.5674V42.2126H63.6047ZM79.4858 37.5077H82.6447L78.262 42.0315L82.6885 48.064H79.8785L76.7503 43.5552H76.7201L75.1178 45.275V48.064H72.806V37.5077H75.1178V42.1522H75.1475L79.4849 37.5077H79.4858ZM87.4323 37.5077H95.4273V39.5282H89.745V41.7454H94.8824V43.6608H89.745V46.0439H95.4122V48.064H87.4323V37.5077ZM100.156 37.5077H109.993V39.5438H106.23V48.064H103.918V39.5438H100.156V37.5077ZM3.73449 43.9831V41.5886H13.5315V43.9831H3.73449ZM0.539062 14.2121L16.1779 8.05532L17.6097 11.6773L11.8497 13.9447L16.8833 26.6784L12.7155 28.3186L7.68329 15.5849L1.96992 17.8331L0.539062 14.2126V14.2121ZM25.0474 5.37646L29.4259 4.4256L30.828 10.8581L38.1093 9.27726L36.7073 2.84526L41.0858 1.8944L44.8321 19.0784L40.4536 20.0293L38.9816 13.2782L31.7007 14.859L33.1722 21.6101L28.7937 22.5614L25.0474 5.37646ZM75.6815 17.7509L76.9409 0.209833L81.4118 0.529375L80.1514 18.0713L75.6815 17.7509ZM88.8335 1.02675L93.6472 1.97532L96.4801 15.0267L96.529 15.0368L104.118 4.03795L108.933 4.98606L97.6687 20.6889L93.2737 19.8231L88.8335 1.02675ZM68.3685 17.291L63.3916 17.552L59.3898 11.9264L56.4732 12.0795L56.7809 17.8999L52.3059 18.1349L51.3802 0.574633L60.8312 0.0781754C64.7274 -0.126625 67.5055 1.89075 67.7007 5.57852C67.8479 8.38858 66.3681 10.4283 63.9196 11.3111L63.921 11.3362L68.3685 17.291ZM60.8723 8.02469C62.3809 7.94606 63.2979 7.168 63.2266 5.81395C63.1525 4.40869 62.2648 3.82675 60.6556 3.91086L56.0559 4.15223L56.273 8.26652L60.8723 8.02515V8.02469Z"></path>
</g>
<defs>
<clipPath id="clip0_8099_27645">
<rect transform="translate(0.539062 0.0639648)" fill="white" height="48" width="128"></rect>
</clipPath>
</defs>
</svg>
