<svg xmlns="http://www.w3.org/2000/svg" fill="none" viewBox="0 0 64 64" height="64" width="64">
<circle fill="#44D5E2" r="32" cy="32" cx="32"></circle>
<g clip-path="url(#clip0_8241_14147)">
<path fill="#00452B" d="M22.0825 44.9637C22.0825 44.9637 17.5703 45.0923 17.5703 46.9267C17.5703 48.7611 27.5974 48.9058 29.1878 48.9292C30.7781 48.9526 37.5851 48.4586 37.5851 49.0973C37.5851 49.3414 36.4655 49.5724 36.4888 50.0518C36.5312 50.9127 41.8708 50.9025 45.1902 50.7329C48.5112 50.5648 54.6312 49.6908 48.9789 47.795C48.9789 47.795 37.588 44.9344 37.5149 44.8146C37.4433 44.6947 22.0825 44.9637 22.0825 44.9637Z"></path>
<path fill="white" d="M40.9525 29.5605C40.3913 26.9806 39.2336 26.7964 38.5715 25.8229C38.4765 25.6709 38.3361 25.4473 38.2952 25.1915C38.2689 25.0249 38.285 24.8436 38.3815 24.6594C38.4633 24.6448 38.4048 24.6551 39.048 24.56C39.3944 24.5089 39.6619 24.2619 39.7584 23.9491C39.7613 23.9388 39.7642 23.9271 39.7671 23.9169C39.77 23.9067 39.773 23.895 39.7744 23.8847C39.7803 23.8614 39.7832 23.838 39.7861 23.8146C39.7861 23.8146 39.7861 23.8131 39.7861 23.8117C39.7891 23.7868 39.792 23.7605 39.7934 23.7357C39.7934 23.7137 39.7934 23.6918 39.7934 23.6684C39.7934 23.6363 39.7891 23.6041 39.7847 23.5719C39.7204 23.132 39.3374 22.8192 38.9047 22.8265C38.9047 22.8265 38.8945 22.8265 38.8784 22.8221C38.8068 22.8089 38.6168 22.7505 38.589 22.502C38.5832 22.4494 38.5832 22.4026 38.5861 22.3617C38.6036 22.1337 38.7323 22.0664 38.7323 22.0664C38.741 22.0664 38.7498 22.0635 38.7586 22.062C38.9705 22.0313 39.1342 21.8749 39.1854 21.6791C39.1898 21.6645 39.1927 21.6498 39.1956 21.6352C39.1956 21.6279 39.1985 21.6206 39.1985 21.6133C39.2015 21.5987 39.2015 21.5826 39.2029 21.568C39.2029 21.549 39.2029 21.53 39.2029 21.511C39.2029 21.4978 39.2 21.4861 39.1985 21.473C39.1576 21.1982 38.9106 21.0067 38.6372 21.0315C38.6343 21.0315 38.6314 21.0301 38.627 21.0286C38.5846 21.0125 38.4882 20.9599 38.4765 20.8152C38.4604 20.6281 38.4765 20.1355 38.4765 20.1355C38.4765 19.5216 34.9041 19.0232 30.4986 19.0232C26.0931 19.0232 22.5208 19.5216 22.5208 20.1355C22.5208 20.1355 22.5368 20.6281 22.5208 20.8152C22.5091 20.9599 22.4126 21.0111 22.3702 21.0272C22.3658 21.0272 22.3629 21.0301 22.3614 21.0301C22.1042 21.0067 21.863 21.1762 21.806 21.435C21.8045 21.4437 21.8016 21.454 21.8001 21.4627C21.7987 21.4715 21.7972 21.4817 21.7958 21.4905C21.7958 21.4993 21.7958 21.5095 21.7943 21.5183C21.7943 21.5417 21.7943 21.5636 21.7943 21.587C21.8118 21.8092 21.9712 22.0021 22.1992 22.0533C22.2065 22.0533 22.2299 22.0606 22.2693 22.0679C22.3015 22.0898 22.4389 22.198 22.4067 22.5005C22.4067 22.5078 22.4067 22.5137 22.4038 22.521C22.3702 22.7519 22.1904 22.8075 22.1188 22.8206C22.1013 22.825 22.0896 22.825 22.0896 22.825C21.6774 22.8177 21.3061 23.1042 21.2199 23.5222C21.2169 23.5339 21.2155 23.5442 21.2125 23.5559C21.2125 23.5573 21.2125 23.5603 21.2125 23.5632C21.2111 23.5719 21.2096 23.5807 21.2082 23.5895C21.2082 23.6012 21.2052 23.6114 21.2052 23.6231C21.2052 23.6333 21.2038 23.645 21.2023 23.6567C21.2009 23.6962 21.2023 23.7371 21.2052 23.7751C21.2052 23.7868 21.2082 23.7985 21.2096 23.8102C21.2096 23.819 21.2125 23.8277 21.214 23.8365C21.2681 24.1859 21.5327 24.4811 21.8995 24.5571C21.9258 24.563 22.1685 24.6112 22.6055 24.6814C22.7269 24.7851 22.7795 24.9167 22.7912 25.0512C22.7941 25.0731 22.7941 25.095 22.7941 25.1184C22.7941 25.3508 22.6903 25.5861 22.626 25.7118C22.4257 26.048 22.1451 26.3535 21.5984 26.6254C20.7404 26.5187 19.0142 26.4851 17.5101 27.5726C16.1654 28.5446 15.3936 30.113 15.2153 32.2353C14.9025 35.9378 14.8981 39.6285 16.9634 41.5521C17.7791 42.3107 18.8256 42.7127 20.0856 42.7536C20.1601 43.1395 20.2347 43.499 20.3092 43.8294C20.7726 45.8977 21.9902 46.82 22.7049 47.1942C22.7181 47.2029 22.7312 47.2117 22.7459 47.219C22.7605 47.2263 22.7751 47.2351 22.7912 47.2439C22.7912 47.2439 22.7912 47.2439 22.7941 47.2439C22.8087 47.2512 22.8248 47.2599 22.8409 47.2673C22.8409 47.2673 22.8438 47.2673 22.8452 47.2702C22.8613 47.2775 22.8774 47.2848 22.8935 47.2921C22.8964 47.2921 22.8993 47.295 22.9023 47.2965C22.9183 47.3038 22.9344 47.3096 22.9519 47.317C22.9563 47.3184 22.9607 47.3213 22.9651 47.3228C22.9812 47.3301 22.9973 47.336 23.0148 47.3418C23.0206 47.3433 23.0265 47.3462 23.0323 47.3491C23.0484 47.355 23.0645 47.3608 23.0806 47.3667C23.0879 47.3696 23.0937 47.371 23.101 47.374C23.1186 47.3798 23.1347 47.3857 23.1522 47.3915C23.2151 47.4134 23.2501 47.4222 23.2501 47.4222C23.3685 47.4587 23.5001 47.4924 23.6433 47.526C23.7383 47.5479 23.8377 47.5698 23.943 47.5903C23.9444 47.5903 23.9474 47.5903 23.9488 47.5903C24.0526 47.6108 24.1622 47.6312 24.2762 47.6517C24.2792 47.6517 24.2835 47.6517 24.2865 47.6531C24.4005 47.6721 24.5189 47.6911 24.6402 47.7101C24.6446 47.7101 24.649 47.7101 24.6533 47.7116C24.7761 47.7306 24.9018 47.7482 25.0334 47.7657C25.0392 47.7657 25.0451 47.7657 25.0509 47.7672C25.1152 47.7759 25.1796 47.7832 25.2453 47.792C25.2453 47.792 25.2468 47.792 25.2482 47.792C25.3169 47.8008 25.3856 47.8081 25.4558 47.8169C25.4617 47.8169 25.466 47.8168 25.4719 47.8183C25.5377 47.8256 25.6034 47.8329 25.6692 47.8402C25.6751 47.8402 25.6809 47.8402 25.6868 47.8417C25.7584 47.849 25.83 47.8563 25.9031 47.8636C25.9075 47.8636 25.9133 47.8636 25.9177 47.8636C25.9849 47.8709 26.0522 47.8768 26.1209 47.8826C26.1311 47.8826 26.1413 47.8841 26.1516 47.8855C26.2247 47.8929 26.2992 47.8987 26.3752 47.9046C26.3752 47.9046 26.3781 47.9046 26.3796 47.9046C26.4512 47.9104 26.5243 47.9162 26.5974 47.9221C26.6105 47.9221 26.6237 47.925 26.6368 47.925C26.7874 47.9367 26.9409 47.9484 27.0973 47.9586C27.1134 47.9586 27.1294 47.9601 27.144 47.9616C27.2215 47.9674 27.299 47.9718 27.3779 47.9762C27.4568 47.9806 27.5387 47.9849 27.6191 47.9893C27.6366 47.9893 27.6527 47.9893 27.6703 47.9923C27.7419 47.9966 27.8135 47.9996 27.8866 48.0025C27.8968 48.0025 27.907 48.0025 27.9173 48.0039C27.9977 48.0083 28.0795 48.0113 28.1614 48.0142C28.1789 48.0142 28.1979 48.0142 28.2155 48.0171C28.2856 48.02 28.3558 48.0229 28.4274 48.0244C28.442 48.0244 28.4581 48.0244 28.4727 48.0259C28.556 48.0288 28.6379 48.0317 28.7227 48.0346C28.7402 48.0346 28.7577 48.0346 28.7753 48.0346C28.8454 48.0376 28.9156 48.039 28.9872 48.0405C29.0062 48.0405 29.0267 48.0405 29.0457 48.0405C29.1305 48.0434 29.2153 48.0449 29.3 48.0463C29.3161 48.0463 29.3307 48.0463 29.3453 48.0463C29.4184 48.0463 29.4915 48.0493 29.5646 48.0507C29.5865 48.0507 29.6084 48.0507 29.6318 48.0507C29.7181 48.0507 29.8043 48.0536 29.8905 48.0536C29.9008 48.0536 29.911 48.0536 29.9212 48.0536C30.0002 48.0536 30.0791 48.0536 30.158 48.0551C30.1814 48.0551 30.2048 48.0551 30.2267 48.0551C30.3159 48.0551 30.4051 48.0551 30.4942 48.0551C30.5834 48.0551 30.6725 48.0551 30.7617 48.0551C30.7851 48.0551 30.8085 48.0551 30.8304 48.0551C30.9093 48.0551 30.9883 48.0551 31.0672 48.0536C31.0774 48.0536 31.0877 48.0536 31.0979 48.0536C31.1841 48.0536 31.2718 48.0522 31.3581 48.0507C31.38 48.0507 31.4019 48.0507 31.4253 48.0507C31.4984 48.0507 31.5715 48.0478 31.6446 48.0463C31.6592 48.0463 31.6753 48.0463 31.6899 48.0463C31.7747 48.0449 31.8594 48.0419 31.9442 48.0405C31.9632 48.0405 31.9837 48.0405 32.0027 48.0405C32.0728 48.039 32.1445 48.0361 32.2146 48.0346C32.2322 48.0346 32.2497 48.0346 32.2672 48.0346C32.3506 48.0317 32.4339 48.0288 32.5172 48.0259C32.5318 48.0259 32.5479 48.0259 32.5625 48.0244C32.6327 48.0215 32.7043 48.0186 32.7744 48.0171C32.792 48.0171 32.8095 48.0156 32.8285 48.0142C32.9104 48.0098 32.9922 48.0069 33.0726 48.0039C33.0829 48.0039 33.0931 48.0039 33.1033 48.0025C33.1764 47.9996 33.248 47.9952 33.3197 47.9923C33.3372 47.9923 33.3533 47.9923 33.3708 47.9893C33.4527 47.9849 33.5331 47.9806 33.612 47.9762C33.6909 47.9718 33.7684 47.9674 33.8459 47.9616C33.8619 47.9616 33.878 47.9601 33.8926 47.9586C34.049 47.9484 34.2025 47.9367 34.3531 47.925C34.3662 47.925 34.3794 47.9236 34.3925 47.9221C34.4656 47.9162 34.5387 47.9104 34.6103 47.9046C34.6103 47.9046 34.6132 47.9046 34.6162 47.9046C34.6922 47.8987 34.7667 47.8914 34.8398 47.8855C34.85 47.8855 34.8603 47.8841 34.8705 47.8826C34.9392 47.8753 35.0064 47.8695 35.0737 47.8636C35.0781 47.8636 35.0839 47.8636 35.0883 47.8636C35.1614 47.8563 35.233 47.849 35.3046 47.8417C35.3105 47.8417 35.3163 47.8417 35.3222 47.8402C35.3894 47.8329 35.4552 47.8256 35.5195 47.8183C35.5253 47.8183 35.5297 47.8183 35.5356 47.8169C35.6057 47.8095 35.6744 47.8008 35.7431 47.792C35.7431 47.792 35.7446 47.792 35.746 47.792C35.8118 47.7847 35.8776 47.7759 35.9404 47.7672C35.9463 47.7672 35.9521 47.7672 35.958 47.7657C36.0895 47.7482 36.2152 47.7306 36.338 47.7116C36.3424 47.7116 36.3468 47.7116 36.3512 47.7101C36.474 47.6911 36.5924 47.6721 36.7049 47.6531C36.7078 47.6531 36.7122 47.6531 36.7151 47.6517C36.8291 47.6312 36.9388 47.6122 37.0426 47.5903C37.044 47.5903 37.0469 47.5903 37.0484 47.5903C37.1536 47.5698 37.2545 47.5479 37.348 47.526C37.4913 47.4924 37.6228 47.4573 37.7412 47.4222C37.7412 47.4222 37.7763 47.4134 37.8392 47.3915C37.8567 47.3857 37.8742 47.3798 37.8903 47.374C37.8976 47.3725 37.9035 47.3696 37.9108 47.3667C37.9269 47.3608 37.9429 47.355 37.959 47.3491C37.9649 47.3462 37.9707 47.3447 37.9766 47.3418C37.9941 47.3345 38.0102 47.3286 38.0263 47.3228C38.0306 47.3228 38.035 47.3199 38.0394 47.317C38.057 47.3096 38.073 47.3038 38.0891 47.2965C38.092 47.2965 38.095 47.2936 38.0979 47.2921C38.114 47.2848 38.13 47.2775 38.1461 47.2702C38.1476 47.2702 38.149 47.2702 38.152 47.2673C38.168 47.2599 38.1841 47.2512 38.1987 47.2439C38.1987 47.2439 38.2002 47.2439 38.2017 47.2439C38.2177 47.2366 38.2324 47.2278 38.247 47.219C38.2616 47.2117 38.2762 47.2029 38.2894 47.1942C39.0041 46.82 40.2217 45.8977 40.6851 43.8294C41.3589 40.8227 42.1526 35.432 40.9496 29.5619L40.9525 29.5605ZM20.0476 29.5605C19.2627 33.3901 19.3284 37.0136 19.6544 39.9062C19.1794 39.8039 18.963 39.6022 18.8651 39.5116C17.6475 38.3773 17.7849 34.9482 17.9954 32.4692C18.1021 31.2005 18.4851 30.3161 19.1326 29.8396C19.4264 29.6233 19.7567 29.5005 20.0754 29.4347C20.0666 29.4757 20.0564 29.5181 20.0476 29.5605ZM21.6364 24.4504C21.6613 24.465 21.6876 24.4782 21.7139 24.4899C21.6847 24.4767 21.6554 24.4606 21.6277 24.4446C21.6306 24.446 21.6335 24.4475 21.6364 24.4504ZM21.5809 24.4139C21.5736 24.408 21.5663 24.4036 21.559 24.3978C21.5663 24.4036 21.5736 24.4095 21.5809 24.4139ZM21.5283 24.3744C21.518 24.3656 21.5093 24.3583 21.499 24.3496C21.5093 24.3583 21.518 24.3671 21.5283 24.3744ZM21.2316 23.9081C21.2316 23.9081 21.2345 23.9198 21.2359 23.9257C21.2345 23.9198 21.233 23.914 21.2316 23.9081ZM21.2506 23.9681C21.2506 23.9681 21.2549 23.9812 21.2579 23.9885C21.2549 23.9812 21.2535 23.9754 21.2506 23.9681ZM21.2754 24.0382C21.2754 24.0382 21.2769 24.0426 21.2783 24.0455C21.2783 24.0426 21.2769 24.0411 21.2754 24.0382ZM21.2988 24.0865C21.3076 24.104 21.3178 24.123 21.328 24.1405C21.3178 24.123 21.3076 24.1055 21.2988 24.0865ZM21.4493 24.2999C21.4566 24.3072 21.464 24.3145 21.4713 24.3218C21.4742 24.3247 21.4771 24.3276 21.48 24.3306C21.4698 24.3203 21.4596 24.3101 21.4493 24.2999ZM21.8279 24.5337C21.8279 24.5337 21.8323 24.5337 21.8338 24.5352C21.8323 24.5352 21.8294 24.5352 21.8279 24.5337Z"></path>
<path fill="#F57E25" d="M39.6241 27.9409C37.7181 27.4819 34.7669 27.0347 30.5003 27.0347C25.4911 27.0347 22.6452 27.7655 21.1236 28.394C20.957 28.7448 20.8108 29.1673 20.6953 29.6979C19.5625 35.2303 20.213 40.3564 20.9584 43.6847C21.3662 45.5045 22.4216 46.2982 23.015 46.608L23.0399 46.6212L23.0852 46.649L23.1013 46.6577C23.11 46.6621 23.1188 46.6665 23.1276 46.6709L23.1188 46.6665L23.1363 46.6753L23.1305 46.6724C23.1407 46.6767 23.1509 46.6826 23.1597 46.6855L23.1685 46.6899C23.1802 46.6943 23.1919 46.7001 23.205 46.706L23.2123 46.7089C23.224 46.7133 23.2372 46.7191 23.2518 46.7235L23.265 46.7279C23.2781 46.7323 23.2898 46.7367 23.3059 46.7425C23.3059 46.7425 23.3804 46.7674 23.3863 46.7703L23.4447 46.7878C23.5456 46.8185 23.6611 46.8492 23.7882 46.8785H23.7955L23.8058 46.8828C23.8906 46.9033 23.9826 46.9223 24.0791 46.9413H24.085C24.1829 46.9618 24.2881 46.9822 24.3992 47.0012H24.4065C24.5147 47.0217 24.6287 47.0392 24.75 47.0582L24.7676 47.0612H24.7603C24.8801 47.0772 25.0029 47.0948 25.1286 47.1123H25.1447C25.2046 47.1226 25.2645 47.1299 25.3303 47.1372H25.342C25.4063 47.1459 25.4721 47.1547 25.5379 47.162H25.554C25.6168 47.1708 25.6811 47.1781 25.7513 47.1854H25.7644C25.8346 47.1942 25.9048 47.2015 25.9735 47.2088H25.9895C26.0553 47.2161 26.1211 47.2234 26.1883 47.2293L26.219 47.2322C26.2906 47.238 26.3623 47.2453 26.4339 47.2512C26.4368 47.2512 26.4412 47.2512 26.4427 47.2512C26.5128 47.257 26.5844 47.2629 26.6575 47.2687L26.6955 47.2716C26.8432 47.2833 26.9952 47.2936 27.1472 47.3038L27.194 47.3067C27.27 47.3111 27.346 47.317 27.4234 47.3213H27.4483C27.5185 47.3272 27.5901 47.3316 27.6617 47.3345L27.7114 47.3374C27.7816 47.3418 27.8532 47.3447 27.9277 47.3477H27.9555C28.0344 47.3535 28.1148 47.3564 28.1952 47.3593L28.2493 47.3623C28.318 47.3652 28.3882 47.3681 28.4568 47.371H28.5036C28.5855 47.3754 28.6673 47.3783 28.7506 47.3813H28.8018C28.8705 47.3857 29.0693 47.39 29.0693 47.39C29.1526 47.3915 29.2359 47.3944 29.3207 47.3959H29.366C29.4376 47.3988 29.5093 47.3988 29.5823 47.4003H29.6467C29.7314 47.4032 29.8177 47.4032 29.9025 47.4047H29.9346C30.0121 47.4047 30.0895 47.4061 30.1685 47.4061H30.2372C30.3249 47.4061 30.4126 47.4061 30.5017 47.4061C30.5909 47.4061 30.6786 47.4061 30.7663 47.4061H30.835C30.9125 47.4061 30.9914 47.4061 31.0659 47.4047H31.0981C31.1843 47.4047 31.2691 47.4017 31.3554 47.4017H31.4211C31.4928 47.3988 31.5658 47.3988 31.6375 47.3973H31.6828C31.7676 47.3944 31.8509 47.393 31.9342 47.39H31.9927C32.0628 47.3871 32.2528 47.3813 32.2528 47.3813C32.3347 47.3783 32.4165 47.3754 32.4999 47.3725H32.5452C32.6153 47.3681 32.6855 47.3652 32.7542 47.3623H32.8068C32.8872 47.3564 32.9676 47.3535 33.0494 47.3491H33.0772C33.1488 47.3447 33.2205 47.3403 33.2921 47.3374L33.3418 47.3345C33.4119 47.3301 33.4821 47.3272 33.5508 47.3228H33.58C33.6575 47.317 33.7335 47.3111 33.8081 47.3067L33.8563 47.3038C34.0098 47.2936 34.1618 47.2833 34.308 47.2716L34.3489 47.2687C34.4205 47.2629 34.4921 47.257 34.5608 47.2512H34.5784C34.6485 47.2439 34.7187 47.238 34.7889 47.2307L34.8181 47.2278C34.8853 47.2219 34.9511 47.2146 35.0198 47.2088H35.033C35.1046 47.2 35.1747 47.1927 35.242 47.1869H35.261C35.3267 47.1781 35.3911 47.1708 35.4539 47.1635H35.4685C35.5358 47.1547 35.603 47.1459 35.6673 47.1386H35.6761C35.7389 47.1299 35.8018 47.1226 35.8617 47.1138H35.8793C36.0035 47.0948 36.1277 47.0772 36.2476 47.0597H36.2418L36.2608 47.0582C36.3777 47.0407 36.4917 47.0217 36.6043 47.0027H36.6101C36.7183 46.9822 36.8235 46.9632 36.9214 46.9442H36.9302H36.9273C37.0194 46.9252 37.1085 46.9062 37.1904 46.8872L37.2006 46.8843L37.2182 46.8814C37.319 46.858 37.414 46.8331 37.5003 46.8083L37.6333 46.7674L37.74 46.7323L37.7561 46.7264C37.7692 46.7221 37.7809 46.7162 37.7926 46.7118L37.8014 46.7089C37.8131 46.7045 37.8248 46.6987 37.8365 46.6943L37.8452 46.6899C37.8555 46.6855 37.8657 46.6811 37.8745 46.6767L37.8686 46.6797L37.8862 46.6709L37.8774 46.6753C37.8862 46.6709 37.8949 46.6665 37.9037 46.6621C37.9037 46.6621 37.9154 46.6563 37.9183 46.6548L37.9592 46.63H37.9607L37.9651 46.6256L37.9899 46.6124C38.5834 46.3025 39.6387 45.5089 40.0465 43.6891C40.792 40.3623 41.4424 35.2347 40.3096 29.7022C40.1357 28.9056 39.8974 28.3604 39.627 27.9453L39.6241 27.9409Z"></path>
<path fill="#5CCBF2" d="M32.5831 37.9418C32.2454 38.2502 32.0642 38.7106 31.6973 38.9825C31.4912 39.1359 31.2325 39.2222 31.06 39.4137C30.851 39.6461 30.8115 39.9881 30.8598 40.2965C30.9095 40.6049 31.0352 40.8943 31.1214 41.194C31.3041 41.8284 31.31 42.5007 31.3056 43.1614C31.3027 43.6043 31.3012 44.0677 31.4971 44.4652C31.6418 44.762 31.9312 44.9549 32.2557 45.0017C32.4808 45.0338 32.7103 45.0119 32.9383 45.0002C33.235 44.9856 33.5317 45.0265 33.8255 45.0514C34.1676 45.0791 34.5081 45.1361 34.8414 45.2238C35.2682 45.3349 35.733 45.4899 36.1306 45.3013C36.4829 45.1347 36.6656 44.7517 36.898 44.4389C37.2926 43.9069 37.9051 43.4991 38.0673 42.8574C38.1813 42.4086 38.0469 41.9409 37.9358 41.4922C37.7355 40.6912 37.6025 39.8726 37.5367 39.0482C37.5206 38.8421 37.5075 38.6331 37.4403 38.4373C37.373 38.2414 37.2429 38.0572 37.0529 37.9768C36.8702 37.8994 36.6626 37.9257 36.4653 37.9447C36.0809 37.9827 35.6935 37.9885 35.3091 37.9637C34.9876 37.9432 34.5476 37.9505 34.2772 37.7678C33.7787 37.4287 33.0157 37.5471 32.5846 37.9432L32.5831 37.9418Z"></path>
<path fill="white" d="M37.2474 38.6302C37.3029 38.8216 37.3 39.0234 37.2971 39.2221C37.2839 39.839 37.2634 40.4792 37.5075 41.0463C37.5251 41.0872 37.5441 41.1296 37.5426 41.1749C37.5412 41.2203 37.5061 41.2656 37.4622 41.2656C37.4169 41.2656 37.3862 41.2217 37.3658 41.1823C37.0676 40.6414 37.0106 40.0056 36.939 39.3917C36.9126 39.1666 36.879 38.9225 36.7475 38.7325C36.5984 38.5176 36.3119 38.5015 36.0707 38.4825C35.7038 38.4533 35.3355 38.4401 34.9686 38.4197C34.6427 38.4007 34.2261 38.4299 33.9294 38.2808C33.8972 38.2647 33.865 38.2472 33.8431 38.2209C33.8212 38.1946 33.8095 38.1537 33.8241 38.123C33.8577 38.0513 34.0828 38.0835 34.1457 38.0879C34.2889 38.0966 34.4293 38.123 34.571 38.1463C35.0768 38.2282 35.5913 38.2618 36.1029 38.2501C36.233 38.2472 36.3616 38.2414 36.4917 38.2311C36.613 38.2224 36.7606 38.1814 36.8805 38.1946C37.069 38.215 37.2021 38.4694 37.2503 38.6331L37.2474 38.6302Z"></path>
<path fill="white" d="M37.4944 43.16C37.4564 43.2681 37.3775 43.3558 37.3029 43.4421C37.0194 43.7709 36.768 44.1276 36.5516 44.5032C36.4976 44.5968 36.4303 44.7035 36.3222 44.7166C36.2228 44.7283 36.1277 44.6436 36.1073 44.5442C36.0868 44.4448 36.1234 44.3424 36.1833 44.2606C36.2432 44.1787 36.3251 44.1174 36.4025 44.053C36.6525 43.8469 36.8805 43.616 37.0837 43.3631C37.1845 43.2374 37.2796 43.1044 37.3673 42.9685C37.5003 42.7624 37.5427 43.0342 37.4973 43.16H37.4944Z"></path>
<path fill="white" d="M32.4238 44.1217C32.323 44.243 32.2104 44.3819 32.2338 44.5368C32.2514 44.6552 32.3493 44.7488 32.4604 44.7941C32.5715 44.8394 32.6943 44.8423 32.8141 44.8394C33.219 44.8306 33.6239 44.7605 34.0259 44.7985C34.4264 44.8365 34.8166 44.9812 35.2186 44.9622C35.2727 44.9592 35.3399 44.9446 35.356 44.892C35.3721 44.8394 35.3253 44.7911 35.2785 44.7605C35.0724 44.6274 34.8152 44.6143 34.5696 44.5924C34.1077 44.5529 33.6487 44.4696 33.2015 44.3468C33.0948 44.3176 32.9778 44.2766 32.9311 44.1758C32.8974 44.1042 32.9106 44.0194 32.9442 43.9478C32.9778 43.8761 33.0261 43.8147 33.0699 43.749C33.1766 43.5867 33.2453 43.3996 33.2672 43.2067C33.276 43.1248 33.2658 42.853 33.1371 42.983C33.0436 43.0781 32.9954 43.2637 32.9311 43.3806C32.7863 43.6423 32.6168 43.8908 32.4253 44.1217H32.4238Z"></path>
<path fill="white" d="M32.9324 38.4723C32.9047 38.3758 32.8652 38.2706 32.7746 38.2282C32.6942 38.1917 32.5948 38.2194 32.5246 38.275C32.4545 38.3305 32.4092 38.4095 32.3638 38.4869C32.1607 38.8363 31.956 39.1871 31.7529 39.5364C31.5541 39.877 31.3553 40.2205 31.2252 40.5917C31.2135 40.6239 31.2033 40.659 31.212 40.6911C31.2208 40.7233 31.2588 40.7511 31.2895 40.7364C31.3085 40.7277 31.3187 40.7058 31.3275 40.6867C31.6082 40.0509 32.0247 39.4852 32.4384 38.9269C32.4822 38.867 32.5436 38.8012 32.6153 38.8173C32.6913 38.8348 32.7161 38.9283 32.7322 39.0044C32.7556 39.1111 32.7921 39.2148 32.8418 39.3113C32.8754 39.3771 32.9704 39.5072 33.0611 39.4516C33.1254 39.4122 33.0932 39.304 33.083 39.2441C33.0377 38.9839 33.0041 38.7252 32.9324 38.4694V38.4723Z"></path>
<path fill="white" d="M32.9428 40.2424C32.9647 40.2818 32.9983 40.3213 33.0436 40.3242C33.0787 40.3271 33.1123 40.3052 33.1313 40.2774C33.1503 40.2497 33.1606 40.2131 33.1649 40.1795C33.1766 40.0903 33.1459 39.7542 32.9852 39.8155C32.8478 39.8696 32.8931 40.1488 32.9428 40.2424Z"></path>
<path fill="white" d="M33.4631 41.8839C33.4777 41.9716 33.5712 42.0403 33.6589 42.0256C33.7466 42.011 33.8139 41.9131 33.7919 41.8268C33.7452 41.6398 33.4236 41.6588 33.4616 41.8839H33.4631Z"></path>
<path fill="white" d="M34.3444 41.7056C34.3064 41.7056 34.2669 41.7056 34.2304 41.7216C34.1939 41.7377 34.1646 41.7684 34.1632 41.8079C34.1602 41.8751 34.2406 41.9117 34.3064 41.9263C34.5929 41.9906 34.8882 41.992 35.1805 41.9935C35.5415 41.995 35.9026 41.9979 36.2636 41.9994C36.325 41.9994 36.5866 41.9614 36.4726 41.8853C36.4185 41.8503 36.2841 41.8532 36.2197 41.843C36.135 41.8298 36.0502 41.8181 35.9669 41.8064C35.6248 41.7611 35.2813 41.7304 34.9364 41.7158C34.7391 41.707 34.5417 41.7041 34.3459 41.7056H34.3444Z"></path>
<path fill="white" d="M36.9243 41.7874C36.8863 41.7918 36.8482 41.7962 36.8146 41.8137C36.781 41.8313 36.7547 41.8663 36.7562 41.9029C36.7591 41.9511 36.8059 41.9833 36.8526 41.995C36.8979 42.0067 36.9491 42.0023 36.9886 41.976C37.028 41.9496 37.0514 41.9 37.0397 41.8532C37.028 41.8064 36.9754 41.7742 36.9316 41.7903"></path>
<path fill="#00452B" d="M30.5004 20.9556C34.7022 20.9556 38.1084 20.5891 38.1084 20.137C38.1084 19.685 34.7022 19.3185 30.5004 19.3185C26.2986 19.3185 22.8923 19.685 22.8923 20.137C22.8923 20.5891 26.2986 20.9556 30.5004 20.9556Z"></path>
<path fill="#00452B" d="M29.2169 23.3733C29.5618 23.2929 29.9214 23.3002 30.2678 23.3733C30.3175 23.3864 30.3482 23.4361 30.3365 23.4873C30.3278 23.5224 30.3 23.5487 30.2664 23.556C30.1787 23.5764 30.091 23.5867 30.0033 23.594C29.7387 23.6115 29.4727 23.6086 29.214 23.5399C29.1686 23.5267 29.1423 23.48 29.1555 23.4347C29.1643 23.404 29.1876 23.3835 29.2169 23.3762V23.3733Z"></path>
<path fill="white" d="M27.5828 42.7917C28.8442 42.3181 30.0252 41.6355 31.0659 40.7804L32.6285 35.3883C31.5878 36.2536 30.4023 36.9465 29.1365 37.4274C28.6191 39.215 28.1002 41.0041 27.5828 42.7917Z"></path>
<path fill="#FFF200" d="M29.1365 37.4273C30.4023 36.9464 31.5877 36.2536 32.6284 35.3883L34.2524 29.7812C33.2131 30.5998 32.0408 31.2502 30.7969 31.6961C30.243 33.6065 29.6905 35.5154 29.1365 37.4258V37.4273Z"></path>
<path fill="#FFF200" d="M26.8621 45.2765C26.8051 45.4709 26.8767 45.6814 27.0419 45.7998C27.2626 45.9562 27.5608 46.1272 27.9365 46.2471C28.3881 46.3918 28.7959 46.4137 29.1029 46.3976C29.3075 46.3874 29.4829 46.2485 29.5399 46.0512L31.0674 40.7804C30.0267 41.6355 28.8442 42.3181 27.5842 42.7917C27.3445 43.6204 27.1048 44.4478 26.865 45.2765H26.8621Z"></path>
<path fill="white" d="M37.9417 14.7377L37.2766 14.9555C36.1482 15.3253 35.2771 16.2271 34.9467 17.3672C34.5974 18.5702 34.2495 19.7746 33.9001 20.9776C35.2127 20.4207 36.4274 19.6328 37.4725 18.6623L37.623 18.1419C37.6976 17.8861 37.892 17.6859 38.1434 17.6026C38.7368 17.4082 39.3288 17.2138 39.9223 17.0194C39.7366 16.5969 39.5159 16.1891 39.2367 15.8222C38.8918 15.3691 38.4533 14.9788 37.9402 14.7362L37.9417 14.7377Z"></path>
<path fill="#FFF200" d="M42.9333 14.6149C42.8076 14.21 42.6088 13.9001 42.429 13.6823C42.2668 13.485 42.0007 13.4075 41.7581 13.4879L37.9402 14.7391C38.4532 14.9817 38.8917 15.372 39.2367 15.8251C39.5159 16.192 39.7366 16.5984 39.9222 17.0223C40.8241 16.727 41.7245 16.4317 42.6263 16.1365C42.8675 16.0575 43.0371 15.8398 43.0517 15.5869C43.0663 15.3223 43.0473 14.9861 42.9333 14.6163V14.6149Z"></path>
<path fill="white" d="M30.7969 31.6975C32.0422 31.2517 33.213 30.5998 34.2523 29.7827L35.9712 23.8497C34.9305 24.696 33.7509 25.3728 32.4939 25.8405C31.9282 27.7933 31.3625 29.7462 30.7969 31.699V31.6975Z"></path>
<path fill="#FFF200" d="M32.4939 25.8391C33.7509 25.3713 34.9305 24.6946 35.9712 23.8483L37.4738 18.6637C36.4302 19.6357 35.2141 20.4221 33.9015 20.979C33.4323 22.5985 32.9631 24.2195 32.4939 25.8391Z"></path>
<path fill="#00452B" d="M26.8665 21.6776C25.9734 21.6718 25.0818 21.5885 24.2048 21.4218C24.0834 21.3955 24.1054 21.2172 24.2296 21.223C25.1168 21.28 25.9968 21.3575 26.8796 21.4628C27.0112 21.4818 26.9995 21.6747 26.8665 21.6776Z"></path>
<path fill="#00452B" d="M38.8787 22.8236C38.851 22.825 38.8232 22.828 38.794 22.8324C36.4407 23.1773 34.2569 23.3527 32.326 23.4229C32.2749 23.4243 32.231 23.3863 32.2252 23.3352C32.2193 23.2796 32.2602 23.2299 32.3173 23.2255C36.3033 22.9712 38.0617 22.5225 38.5879 22.3617C38.5835 22.4026 38.5849 22.4494 38.5908 22.502C38.6171 22.7505 38.8071 22.809 38.8802 22.8221L38.8787 22.8236Z"></path>
<path fill="#00452B" d="M38.3831 24.6594C38.2851 24.8436 38.2691 25.0248 38.2968 25.1915C36.9609 25.3376 33.998 25.3289 33.4148 25.326C33.3593 25.326 33.314 25.2806 33.314 25.2251C33.314 25.171 33.3564 25.1272 33.4104 25.1242C35.0066 25.0395 36.5267 24.9196 38.3831 24.6609V24.6594Z"></path>
<path fill="#00452B" d="M26.7584 25.1111C27.2042 25.1374 27.6924 25.1623 28.2186 25.1798C28.261 25.1798 28.2917 25.2208 28.2814 25.2617C28.2741 25.2909 28.2478 25.3114 28.2186 25.3128C25.8229 25.3859 23.5719 25.1462 22.7972 25.0512C22.7855 24.9167 22.7329 24.7866 22.6116 24.6814"></path>
<path fill="#00452B" d="M25.8872 22.619C25.8872 22.6672 25.8477 22.7052 25.8009 22.7038C24.4021 22.6555 22.9141 22.5591 22.4098 22.5254C22.4098 22.5181 22.4113 22.5123 22.4127 22.505C22.4449 22.2039 22.3075 22.0942 22.2753 22.0723C22.2373 22.065 22.2125 22.0592 22.2052 22.0577C21.9772 22.0065 21.8164 21.8136 21.8003 21.5914C21.8193 21.8121 21.9786 22.0036 22.2052 22.0533C22.2651 22.0665 23.5441 22.3457 25.8111 22.5357C25.855 22.5386 25.8886 22.5751 25.8886 22.619H25.8872Z"></path>
<path fill="#FFF200" d="M24.2603 13.1765C21.2156 13.1765 18.7483 15.6453 18.7483 18.6885C18.7483 20.6384 19.7612 22.3515 21.2887 23.3323C21.4334 23.0224 21.7491 22.8221 22.0941 22.828C22.0941 22.828 22.1043 22.828 22.1233 22.8236C22.1949 22.8105 22.3747 22.7549 22.4083 22.524C22.4083 22.5167 22.4098 22.5108 22.4113 22.5035C22.4434 22.2024 22.306 22.0928 22.2739 22.0708C22.2359 22.0635 22.211 22.0577 22.2037 22.0562C21.9757 22.0051 21.8149 21.8121 21.7988 21.59C21.7974 21.5666 21.7959 21.5446 21.7988 21.5213C21.7988 21.5125 21.7988 21.5022 21.8003 21.4935C21.8003 21.4847 21.8017 21.4745 21.8047 21.4657C21.8076 21.4569 21.8091 21.4467 21.8105 21.4379C21.8675 21.1792 22.1087 21.0097 22.366 21.033C22.3689 21.033 22.3718 21.0316 22.3747 21.0301C22.4171 21.014 22.5121 20.9614 22.5253 20.8182C22.5414 20.6311 22.5253 20.1385 22.5253 20.1385C22.5253 20.0216 22.6539 19.909 22.8936 19.8038C22.8834 20.0888 23.316 20.1385 23.316 20.1385C24.7894 20.5975 28.3252 20.6472 29.4156 20.6516C29.648 20.042 29.7752 19.3814 29.7752 18.69C29.7737 15.6453 27.305 13.1765 24.2603 13.1765Z"></path>
<path fill="white" d="M23.9212 13.7217C21.3121 13.7217 19.197 15.8908 19.197 18.5672C19.197 20.4498 20.2436 22.0825 21.7725 22.885C21.8734 22.847 21.9815 22.8265 22.0941 22.8294C22.0941 22.8294 22.1043 22.8294 22.1233 22.825C22.1949 22.8119 22.3747 22.7563 22.4083 22.5254C22.4083 22.5181 22.4098 22.5122 22.4113 22.5049C22.4434 22.2038 22.306 22.0942 22.2739 22.0723C22.2359 22.065 22.211 22.0591 22.2037 22.0576C21.9757 22.0065 21.8149 21.8135 21.7988 21.5914C21.7974 21.568 21.7959 21.5461 21.7988 21.5227C21.7988 21.5139 21.7988 21.5037 21.8003 21.4949C21.8003 21.4861 21.8017 21.4759 21.8047 21.4671C21.8076 21.4584 21.809 21.4481 21.8105 21.4394C21.8675 21.1806 22.1087 21.0111 22.3659 21.0345C22.3689 21.0345 22.3718 21.033 22.3747 21.0315C22.4171 21.0155 22.5121 20.9628 22.5253 20.8196C22.5413 20.6325 22.5253 20.1399 22.5253 20.1399C22.5253 20.023 22.6539 19.9104 22.8936 19.8052C22.8834 20.0902 23.316 20.1399 23.316 20.1399C24.4181 20.4834 26.6735 20.5974 28.1966 20.6354C28.4845 20.0084 28.6468 19.3082 28.6468 18.5701C28.6468 15.8937 26.5317 13.7246 23.9226 13.7246L23.9212 13.7217Z"></path>
<mask height="10" width="10" y="13" x="19" maskUnits="userSpaceOnUse" style="mask-type:luminance" id="mask0_8241_14147">
<path fill="white" d="M23.9212 13.7217C21.3121 13.7217 19.197 15.8908 19.197 18.5672C19.197 20.4498 20.2436 22.0825 21.7725 22.885C21.8734 22.847 21.9815 22.8265 22.0941 22.8294C22.0941 22.8294 22.1043 22.8294 22.1233 22.825C22.1949 22.8119 22.3747 22.7563 22.4083 22.5254C22.4083 22.5181 22.4098 22.5122 22.4113 22.5049C22.4434 22.2038 22.306 22.0942 22.2739 22.0723C22.2359 22.065 22.211 22.0591 22.2037 22.0576C21.9757 22.0065 21.8149 21.8135 21.7988 21.5914C21.7974 21.568 21.7959 21.5461 21.7988 21.5227C21.7988 21.5139 21.7988 21.5037 21.8003 21.4949C21.8003 21.4861 21.8017 21.4759 21.8047 21.4671C21.8076 21.4584 21.809 21.4481 21.8105 21.4394C21.8675 21.1806 22.1087 21.0111 22.3659 21.0345C22.3689 21.0345 22.3718 21.033 22.3747 21.0315C22.4171 21.0155 22.5121 20.9628 22.5253 20.8196C22.5413 20.6325 22.5253 20.1399 22.5253 20.1399C22.5253 20.023 22.6539 19.9104 22.8936 19.8052C22.8834 20.0902 23.316 20.1399 23.316 20.1399C24.4181 20.4834 26.6735 20.5974 28.1966 20.6354C28.4845 20.0084 28.6468 19.3082 28.6468 18.5701C28.6468 15.8937 26.5317 13.7246 23.9226 13.7246L23.9212 13.7217Z"></path>
</mask>
<g mask="url(#mask0_8241_14147)">
<path fill="#FFF200" d="M23.6626 18.1491C23.6626 18.1491 23.4375 18.133 23.3527 17.7208C23.2665 17.3086 22.8177 14.8121 23.2563 14.3999C23.6948 13.9877 24.7048 14.1865 25.0263 14.2391C25.3465 14.2932 26.1124 14.6031 26.1548 15.0094C26.1972 15.4157 24.1552 17.8217 24.1552 17.8217C24.1552 17.8217 23.8789 18.2003 23.6626 18.1476V18.1491Z"></path>
<path fill="#FFF200" d="M23.186 18.2543C23.186 18.2543 23.1056 18.437 22.5663 18.2762C22.0459 18.1213 20.973 17.6287 20.4863 17.234C19.9996 16.8379 20.289 16.1173 20.6412 15.7694C20.9935 15.4215 22.0372 14.3472 22.4435 15.4332C22.8498 16.5193 23.4594 18.0745 23.186 18.2557V18.2543Z"></path>
<path fill="#FFF200" d="M24.6111 18.8975C24.6111 18.8975 24.0366 18.7645 24.0162 18.5072C23.9957 18.25 24.0922 18.1389 26.1561 16.5296C28.2185 14.9203 28.0913 18.4122 28.0913 18.4122C28.0913 18.4122 28.0533 19.1986 27.8019 19.5143C27.5505 19.83 24.6125 18.899 24.6125 18.899L24.6111 18.8975Z"></path>
<path fill="#FFF200" d="M19.6575 19.4047C19.6575 19.4047 19.8285 20.9716 20.609 20.8006C21.3896 20.6296 23.1378 19.127 23.1056 18.839C23.0734 18.5496 22.3411 18.4371 20.3942 18.1549C19.3885 18.0263 19.656 19.4061 19.656 19.4061L19.6575 19.4047Z"></path>
<path fill="#FFF200" d="M21.8282 22.2989C21.8282 22.2989 23.094 23.2373 23.4989 22.5488C23.9038 21.8603 23.9885 19.5567 23.7547 19.3828C23.5208 19.2103 22.9405 19.6707 21.4101 20.9073C20.634 21.5578 21.8267 22.2989 21.8267 22.2989H21.8282Z"></path>
<path fill="#FFF200" d="M24.0499 19.4777C24.2531 20.3313 24.4562 21.1835 24.6594 22.0371C24.6886 22.1614 24.7223 22.2929 24.8114 22.3835C24.9211 22.4961 25.0935 22.5224 25.2499 22.5122C25.5583 22.4917 25.8507 22.3543 26.0962 22.1658C26.3418 21.9787 26.5464 21.7433 26.7423 21.5036C26.8856 21.3282 27.0303 21.1353 27.0522 20.9102C27.0756 20.6617 26.9396 20.4205 26.7613 20.2466C26.5567 20.0478 26.298 19.9148 26.0407 19.7934C25.5057 19.542 24.9547 19.3228 24.3919 19.1386C24.1186 19.0494 23.987 19.2161 24.0499 19.4792V19.4777Z"></path>
</g>
<path fill="white" d="M20.9614 18.9589C20.9161 18.9735 20.8723 18.9954 20.8416 19.032C20.8109 19.0685 20.7992 19.1226 20.8211 19.165C20.8489 19.2205 20.922 19.2351 20.9834 19.2322C21.0944 19.2264 21.2026 19.1767 21.2815 19.0992C21.3093 19.0714 21.3605 19.0232 21.3283 18.9823C21.2991 18.9443 21.2099 18.9384 21.1661 18.9355C21.0974 18.9296 21.0272 18.9384 20.9614 18.9589Z"></path>
<path fill="white" d="M24.2488 15.7257C24.2546 15.6789 24.2532 15.6292 24.2312 15.5853C24.2093 15.5415 24.1669 15.5079 24.1187 15.5108C24.0573 15.5137 24.012 15.5722 23.9901 15.6307C23.9491 15.7344 23.9491 15.8528 23.9871 15.9581C24.0003 15.9946 24.0222 16.0619 24.0734 16.0502C24.1216 16.0399 24.1625 15.961 24.1845 15.9215C24.2181 15.8616 24.24 15.7944 24.2488 15.7257Z"></path>
<path fill="white" d="M26.4397 18.6491C26.4865 18.6433 26.5347 18.6286 26.5712 18.5979C26.6078 18.5673 26.6297 18.5161 26.6165 18.4708C26.599 18.4109 26.5303 18.3831 26.4689 18.3758C26.3578 18.3612 26.2438 18.3904 26.1517 18.4532C26.1196 18.4752 26.0596 18.5132 26.0845 18.5599C26.1064 18.6038 26.1927 18.6243 26.2365 18.636C26.3037 18.6535 26.3739 18.6593 26.4426 18.6491H26.4397Z"></path>
<path fill="white" d="M24.8903 20.0698C24.9225 20.1049 24.9605 20.137 25.0072 20.1487C25.054 20.1604 25.1081 20.1487 25.1373 20.1122C25.1753 20.0639 25.1607 19.9908 25.1315 19.9368C25.0803 19.8374 24.9912 19.7599 24.8874 19.719C24.8508 19.7044 24.7865 19.678 24.7617 19.7234C24.7383 19.7672 24.7705 19.8491 24.7851 19.8915C24.8085 19.9572 24.845 20.0172 24.8918 20.0683L24.8903 20.0698Z"></path>
<path fill="white" d="M21.5856 15.7826C21.5534 15.7476 21.5154 15.7154 21.4686 15.7037C21.4218 15.692 21.3678 15.7037 21.3385 15.7402C21.3005 15.7885 21.3151 15.8616 21.3444 15.9156C21.3955 16.015 21.4847 16.0925 21.5885 16.1334C21.625 16.1481 21.6893 16.1744 21.7142 16.1291C21.7376 16.0852 21.7054 16.0033 21.6908 15.961C21.6674 15.8952 21.6309 15.8353 21.5841 15.7841L21.5856 15.7826Z"></path>
<path fill="#5CCBF2" d="M23.4506 29.7958C23.1437 29.9025 22.863 30.1481 22.8119 30.4696C22.7549 30.8234 22.9785 31.1523 23.1013 31.4884C23.3278 32.1126 23.2124 32.801 23.246 33.4646C23.2577 33.6941 23.2913 33.9338 23.4302 34.1165C23.5617 34.2905 23.7693 34.3884 23.9768 34.4571C24.1844 34.5258 24.4007 34.5726 24.5937 34.6749C24.8071 34.7875 24.981 34.9585 25.1915 35.0769C25.4093 35.1996 25.6066 35.2216 25.8507 35.1938C26.3594 35.1339 26.8359 34.9292 27.3051 34.7363C27.6763 34.5828 28.052 34.4308 28.4466 34.3519C28.8545 34.27 29.3237 34.2452 29.5897 33.9251C29.7826 33.6941 29.8089 33.3623 29.7461 33.0685C29.6832 32.7747 29.5429 32.5043 29.4304 32.2251C29.2389 31.7559 29.1234 31.2575 29.0869 30.7532C29.0649 30.4506 29.0664 30.1276 28.9027 29.8733C28.7317 29.6073 28.416 29.4713 28.1075 29.4026C27.7991 29.3354 27.4776 29.3208 27.1764 29.2243C26.8636 29.1234 26.5728 28.9334 26.2454 28.9173C25.8098 28.8954 25.44 29.1775 25.0877 29.3924C24.9021 29.5049 24.7106 29.6087 24.4986 29.6643C24.2487 29.73 23.9885 29.692 23.7327 29.7315C23.6377 29.7461 23.5456 29.768 23.455 29.7987L23.4506 29.7958Z"></path>
<path fill="white" d="M23.9505 30.8862C23.8 30.7927 23.6509 30.6889 23.4784 30.6494C23.379 30.6275 23.2606 30.6334 23.1919 30.7094C23.1466 30.7605 23.132 30.8307 23.1305 30.8994C23.1232 31.123 23.2182 31.335 23.2869 31.5469C23.4316 32.0044 23.4492 32.4912 23.4521 32.9706C23.4521 33.1138 23.4594 33.2746 23.5632 33.3725C23.5851 33.393 23.6202 33.4105 23.645 33.3915C23.667 33.374 23.6626 33.3404 23.6567 33.3141C23.5851 32.9896 23.5632 32.6549 23.5427 32.3231C23.5208 31.9839 23.4989 31.6448 23.4769 31.3043C23.4726 31.2341 23.4696 31.1581 23.5135 31.1026C23.5763 31.0222 23.7006 31.0309 23.7941 31.0689C23.8891 31.1084 23.9725 31.1698 24.0602 31.2195C24.1479 31.2692 24.2502 31.3101 24.351 31.2984C24.411 31.2926 24.4738 31.2633 24.5001 31.2093C24.5206 31.1698 24.5118 31.1128 24.4782 31.0821C24.4373 31.0455 24.3642 31.0587 24.3145 31.0485C24.1829 31.0207 24.0631 30.9549 23.9491 30.8833L23.9505 30.8862Z"></path>
<path fill="white" d="M24.7559 31.5542C24.7822 31.5819 24.8202 31.5995 24.8582 31.5936C24.8962 31.5878 24.9269 31.5556 24.9372 31.5191C24.9591 31.446 24.8948 31.2896 24.7998 31.3071C24.6858 31.3291 24.6916 31.4884 24.7559 31.5542Z"></path>
<path fill="white" d="M24.8379 30.4988C24.7502 30.4111 24.775 30.2694 24.8598 30.189C24.9329 30.1188 25.0352 30.0896 25.1331 30.0618C25.6067 29.9259 26.0876 29.768 26.4691 29.4567C26.491 29.4391 26.513 29.4201 26.5261 29.3938C26.5393 29.3675 26.5393 29.3354 26.5203 29.3134C26.4998 29.2915 26.4662 29.29 26.437 29.29C26.3069 29.2959 26.1899 29.3354 26.0657 29.366C25.9502 29.3953 25.8406 29.4654 25.7295 29.5151C25.4723 29.6291 25.2062 29.7212 24.9344 29.7914C24.6654 29.8616 24.3833 29.9127 24.1056 29.9346C23.9857 29.9449 23.8381 29.9697 23.7372 30.0428C23.6758 30.0881 23.632 30.1685 23.6539 30.2416C23.6773 30.322 23.7679 30.3746 23.8454 30.3878C23.9492 30.4038 24.053 30.4214 24.1553 30.4418C24.3555 30.4842 24.5543 30.5456 24.7312 30.6523C24.8233 30.7079 24.908 30.7766 25.0031 30.8277C25.2545 30.9666 25.5658 30.895 25.8318 30.8336C26.1695 30.7546 26.5027 30.6523 26.8272 30.5252C26.8623 30.512 26.9018 30.493 26.9135 30.4565C26.9252 30.4155 26.8915 30.3717 26.8506 30.3585C26.8097 30.3454 26.7658 30.3527 26.7235 30.36C26.3215 30.436 25.9195 30.512 25.5176 30.588C25.4006 30.6099 25.2837 30.6319 25.1653 30.626C25.0469 30.6187 24.927 30.5807 24.8423 30.4974L24.8379 30.4988Z"></path>
<path fill="white" d="M27.1896 30.1671C27.1647 30.1817 27.1413 30.1992 27.1282 30.2241C27.115 30.2489 27.1121 30.2811 27.1282 30.3045C27.1501 30.3352 27.1925 30.341 27.2305 30.3366C27.289 30.3308 27.4921 30.2694 27.4614 30.1788C27.4307 30.0881 27.2437 30.1349 27.1881 30.1671H27.1896Z"></path>
<path fill="white" d="M27.9628 29.9493C27.9263 29.9595 27.8883 29.9726 27.8605 29.9975C27.8327 30.0223 27.8123 30.0618 27.8225 30.0998C27.8327 30.1378 27.8737 30.1627 27.9131 30.1671C27.9526 30.1714 27.9921 30.1597 28.0301 30.148C28.2069 30.0925 28.3809 30.0267 28.5519 29.9551C28.5811 29.9434 28.6995 29.8747 28.6118 29.8455C28.5782 29.8352 28.5314 29.8484 28.4978 29.8528C28.4539 29.8572 28.4116 29.863 28.3677 29.8674C28.2303 29.8849 28.0944 29.9098 27.9614 29.9478L27.9628 29.9493Z"></path>
<path fill="white" d="M28.7243 31.0718C28.7594 31.6813 28.9289 32.2733 29.04 32.8726C29.0707 33.0392 29.0941 33.2205 29.0108 33.3666C28.9363 33.4982 28.7901 33.5713 28.6483 33.6239C28.1455 33.811 27.5871 33.8373 27.1106 34.0829C26.9747 34.153 26.8417 34.2466 26.7832 34.3869C26.754 34.4556 26.7496 34.5418 26.7993 34.5959C26.8431 34.6427 26.9162 34.6515 26.9776 34.6339C27.039 34.6164 27.0916 34.5784 27.1442 34.5433C27.5944 34.2349 28.1177 34.0317 28.6585 33.9572C28.9202 33.9206 29.2169 33.8972 29.3806 33.6911C29.4917 33.5523 29.5107 33.3579 29.4771 33.1839C29.4449 33.01 29.3675 32.8463 29.3002 32.6826C29.0795 32.1418 28.967 31.5571 28.9728 30.9724C28.9728 30.8891 28.9757 30.8043 28.9684 30.721C28.964 30.6684 28.9655 30.5821 28.9056 30.5588C28.7711 30.5076 28.7389 30.7327 28.7287 30.8131C28.7185 30.8993 28.7199 30.9856 28.7243 31.0718Z"></path>
<path fill="white" d="M26.2584 34.5389C26.2131 34.5798 26.197 34.65 26.2131 34.7099C26.2233 34.745 26.2453 34.7786 26.2774 34.7962C26.3081 34.8122 26.3461 34.8137 26.3797 34.8035C26.4353 34.7874 26.4806 34.7391 26.4952 34.6836C26.5318 34.5404 26.3724 34.4351 26.2584 34.5374V34.5389Z"></path>
<path fill="#5CCBF2" d="M40.9265 48.7889C40.9265 48.7889 40.9265 48.7889 40.925 48.7889C40.6444 48.7757 40.3623 48.7567 40.0904 48.6793C39.7834 48.5916 39.4882 48.4396 39.2952 48.1779C38.9459 47.7073 39.0321 47.0553 39.1447 46.4794C39.3026 45.6741 39.4823 44.8657 39.478 44.0443C39.475 43.4596 39.4195 42.872 39.4429 42.2873C39.4589 41.8795 39.5437 41.46 39.7834 41.1282C40.0597 40.7467 40.507 40.5275 40.9542 40.3813C41.4015 40.2351 41.8707 40.1489 42.3005 39.9574C42.5811 39.8317 42.8413 39.6636 43.1175 39.5292C43.3938 39.3947 43.6978 39.2938 44.0048 39.3157C45.1215 39.3961 46.1125 40.0641 47.2322 40.0773C47.5581 40.0802 47.8826 40.0232 48.21 40.0203C48.5374 40.0174 48.8795 40.0787 49.1309 40.2878C49.3823 40.4968 49.5051 40.8271 49.5372 41.1531C49.5694 41.479 49.5197 41.805 49.4832 42.1295C49.3677 43.1527 49.375 44.189 49.5022 45.2092C49.5562 45.6404 49.5723 46.0994 49.6556 46.5233C49.7287 46.8916 49.5445 47.2527 49.2917 47.5202C49.049 47.7789 48.7377 47.9645 48.4249 48.1341C48.1121 48.3036 47.792 48.4629 47.5128 48.6837C47.3053 48.8474 47.1255 49.0432 46.9238 49.2113C46.7571 49.3516 46.5335 49.4642 46.3303 49.5475C45.8728 49.7375 45.3612 49.7741 44.873 49.7185C44.2196 49.644 43.594 49.416 42.9714 49.2055C42.7653 49.1353 42.5577 49.0681 42.3487 49.0082C42.1397 48.9482 41.9365 48.8985 41.7275 48.8605C41.4585 48.8108 41.1984 48.8006 40.9265 48.7889Z"></path>
<mask height="11" width="11" y="39" x="39" maskUnits="userSpaceOnUse" style="mask-type:luminance" id="mask1_8241_14147">
<path fill="white" d="M40.9265 48.7889C40.9265 48.7889 40.9265 48.7889 40.925 48.7889C40.6444 48.7757 40.3623 48.7567 40.0904 48.6793C39.7834 48.5916 39.4882 48.4396 39.2952 48.1779C38.9459 47.7073 39.0321 47.0553 39.1447 46.4794C39.3026 45.6741 39.4823 44.8657 39.478 44.0443C39.475 43.4596 39.4195 42.872 39.4429 42.2873C39.4589 41.8795 39.5437 41.46 39.7834 41.1282C40.0597 40.7467 40.507 40.5275 40.9542 40.3813C41.4015 40.2351 41.8707 40.1489 42.3005 39.9574C42.5811 39.8317 42.8413 39.6636 43.1175 39.5292C43.3938 39.3947 43.6978 39.2938 44.0048 39.3157C45.1215 39.3961 46.1125 40.0641 47.2322 40.0773C47.5581 40.0802 47.8826 40.0232 48.21 40.0203C48.5374 40.0174 48.8795 40.0787 49.1309 40.2878C49.3823 40.4968 49.5051 40.8271 49.5372 41.1531C49.5694 41.479 49.5197 41.805 49.4832 42.1295C49.3677 43.1527 49.375 44.189 49.5022 45.2092C49.5562 45.6404 49.5723 46.0994 49.6556 46.5233C49.7287 46.8916 49.5445 47.2527 49.2917 47.5202C49.049 47.7789 48.7377 47.9645 48.4249 48.1341C48.1121 48.3036 47.792 48.4629 47.5128 48.6837C47.3053 48.8474 47.1255 49.0432 46.9238 49.2113C46.7571 49.3516 46.5335 49.4642 46.3303 49.5475C45.8728 49.7375 45.3612 49.7741 44.873 49.7185C44.2196 49.644 43.594 49.416 42.9714 49.2055C42.7653 49.1353 42.5577 49.0681 42.3487 49.0082C42.1397 48.9482 41.9365 48.8985 41.7275 48.8605C41.4585 48.8108 41.1984 48.8006 40.9265 48.7889Z"></path>
</mask>
<g mask="url(#mask1_8241_14147)">
<path fill="white" d="M48.9877 47.9996C49.3414 47.6721 49.4686 47.1591 49.4525 46.6767C49.4364 46.1944 49.299 45.7266 49.2011 45.2545C49.0739 44.6362 49.0155 44.0062 49.0374 43.3777C49.0593 42.7331 49.2713 42.1134 49.3078 41.4688C49.321 41.2378 49.3078 40.9937 49.1909 40.7935C49.0783 40.6005 48.8868 40.4851 48.6822 40.4105C48.4439 40.3243 48.2174 40.374 47.966 40.3769C47.4193 40.3842 46.8697 40.3111 46.345 40.1576C45.6448 39.953 44.9725 39.608 44.2445 39.5759C43.8455 39.5584 43.445 39.6373 43.0679 39.7703C42.8238 39.8565 42.5797 39.9676 42.3195 39.9705C42.0593 39.9735 41.7743 39.8273 41.7202 39.573C42.7522 39.2748 43.8265 38.9898 44.8935 38.8655C45.9606 38.7413 47.067 38.7997 48.0654 39.1973C48.8269 39.5013 49.5285 40.0246 49.8998 40.7555C50.2974 41.5389 50.2784 42.4598 50.2491 43.3383C50.2184 44.2796 50.1877 45.2224 50.157 46.1637C50.1439 46.5744 50.1278 46.9983 49.9539 47.371C49.7799 47.7438 49.4013 48.0244 48.9906 47.9952L48.9877 47.9996Z"></path>
</g>
<path fill="#00B14C" d="M47.4397 42.5636C47.3988 42.5344 47.3549 42.5081 47.3111 42.4861C46.9091 42.2903 46.4414 42.2493 46.0058 42.3312C45.905 42.3502 45.8056 42.375 45.7076 42.4072C45.6141 42.4379 45.5147 42.4613 45.4328 42.5183C45.4285 42.5212 45.4241 42.5241 45.4226 42.5285C45.4211 42.5344 45.4226 42.5402 45.4255 42.5446C45.4372 42.5665 45.4591 42.5811 45.4825 42.5914C45.5059 42.6016 45.5293 42.6074 45.5512 42.6206C45.3554 42.6878 45.1653 42.7799 44.9783 42.8691C44.9359 42.8896 44.8935 42.91 44.8511 42.9305C44.7152 42.9963 44.5763 43.062 44.4608 43.1614C44.4389 43.1804 44.4155 43.2097 44.4272 43.236C44.436 43.255 44.4564 43.2623 44.4769 43.2667C44.5207 43.2769 44.5675 43.2813 44.6128 43.2784C44.3848 43.4318 44.1509 43.6102 43.9346 43.7812C43.8805 43.8236 43.8265 43.8674 43.7768 43.9142C43.7241 43.9653 43.7344 44.0428 43.8177 44.0297C43.6452 44.1817 43.464 44.3527 43.2959 44.5076C43.2096 44.5866 43.1234 44.667 43.0605 44.7663C43.0474 44.7868 43.0518 44.8058 43.0766 44.8102C43.1044 44.816 43.1322 44.819 43.1599 44.819C43.0561 44.9052 42.9597 45.0002 42.853 45.0835C42.7463 45.1668 42.6337 45.2458 42.5197 45.3174C42.451 45.3598 42.3808 45.4022 42.3238 45.4577C42.318 45.4636 42.3121 45.4694 42.3121 45.4767C42.3107 45.4913 42.3253 45.5016 42.3385 45.506C42.3589 45.5147 42.3794 45.5191 42.3998 45.5235C42.4174 45.5279 42.4232 45.5264 42.4086 45.5425C42.4028 45.5498 42.3955 45.5571 42.3896 45.5644C42.3633 45.5937 42.3341 45.6214 42.3034 45.6463C42.2581 45.6828 42.2142 45.7208 42.1674 45.7544C42.0637 45.829 41.9526 45.8918 41.8386 45.9445C41.7231 45.9971 41.6047 46.0424 41.4848 46.0789C41.4454 46.0906 41.4001 46.1111 41.3942 46.152C41.3884 46.1959 41.4337 46.2251 41.4702 46.2353C41.403 46.2865 41.3197 46.3435 41.2422 46.3786C41.0054 46.4853 40.7394 46.5014 40.4807 46.535C40.4485 46.5394 40.4163 46.5438 40.3886 46.5598C40.2906 46.6139 40.3389 46.7016 40.4017 46.7586C40.5421 46.8843 40.7014 46.9735 40.8563 47.0758C41.0683 47.2161 41.2948 47.3491 41.5375 47.4281C41.498 47.4441 41.4556 47.4719 41.4556 47.5143C41.4556 47.5596 41.5068 47.5845 41.5506 47.5991C41.7114 47.6532 41.8722 47.7058 42.0344 47.7511C42.1864 47.7935 42.3458 47.814 42.4949 47.8593C42.4642 47.8724 42.4305 47.8783 42.4057 47.9002C42.3882 47.9148 42.3765 47.944 42.3911 47.9616C42.3955 47.9689 42.4028 47.9733 42.4115 47.9762C42.4276 47.9835 42.4452 47.9894 42.4627 47.9937C42.7317 48.061 43.0152 48.0683 43.2871 48.0171C43.2681 48.0449 43.2666 48.0727 43.2564 48.1048C43.252 48.118 43.2491 48.1326 43.2564 48.1443C43.2608 48.1545 43.2725 48.1604 43.2827 48.1648C43.3134 48.1779 43.3485 48.1779 43.3806 48.1765C43.5268 48.1735 43.673 48.1589 43.8177 48.1326C43.9624 48.1063 44.1012 48.0537 44.2445 48.0201C44.2445 48.0464 44.2401 48.0668 44.2416 48.0917C44.2416 48.1121 44.2445 48.1355 44.2606 48.1487C44.2708 48.156 44.284 48.1589 44.2956 48.1589C44.3907 48.1677 44.4857 48.1472 44.5778 48.1224C44.7882 48.0654 44.9929 47.985 45.1858 47.8812C45.2048 47.871 45.2077 47.8651 45.2253 47.8549C45.2224 47.8929 45.2267 47.9338 45.2399 47.9689C45.2428 47.9762 45.2472 47.985 45.2545 47.9894C45.2618 47.9937 45.2721 47.9937 45.2808 47.9937C45.4007 47.9835 45.5045 47.9104 45.6024 47.8403C45.7676 47.7204 45.9313 47.602 46.0964 47.4822C46.1037 47.5114 46.0979 47.5392 46.1111 47.5655C46.1169 47.5772 46.1242 47.5903 46.1359 47.5947C46.1491 47.5991 46.1622 47.5947 46.1754 47.5889C46.228 47.5655 46.2762 47.5348 46.3245 47.5026C46.5905 47.3228 46.8492 47.0992 46.9925 46.8069C46.9968 46.839 47.01 46.8639 47.0275 46.8916C47.0334 46.9019 47.0421 46.9121 47.0538 46.915C47.0699 46.9179 47.0845 46.9063 47.0962 46.896C47.3389 46.6695 47.5099 46.3669 47.5771 46.0409C47.5961 46.0672 47.6181 46.0877 47.6473 46.1023C47.6561 46.1067 47.6663 46.1096 47.6765 46.1082C47.6999 46.1052 47.7131 46.0804 47.7204 46.0585C47.7861 45.8845 47.8373 45.7062 47.8753 45.525C47.9133 45.3437 47.9235 45.1698 47.9542 44.9929C47.9542 44.99 47.9542 44.9871 47.9528 44.9856C47.9513 44.9841 47.9499 44.99 47.9528 44.9885C47.9849 45.0046 48.0186 45.0178 48.0507 45.0338C48.0595 45.0382 48.0712 45.0426 48.0799 45.0382C48.0887 45.0338 48.0916 45.0236 48.0931 45.0134C48.1603 44.6538 48.1603 44.2431 48.0478 43.8908C48.0712 43.8864 48.0902 43.9157 48.115 43.92C48.2334 43.9463 48.1633 43.6599 48.1501 43.6102C48.0887 43.3778 47.982 43.1585 47.8402 42.9656C47.735 42.8223 47.5976 42.6674 47.4456 42.5577L47.4397 42.5636Z"></path>
<path fill="#00452B" d="M48.1049 41.9292C47.1095 44.3117 45.066 46.494 42.4102 46.8492C42.0433 46.9077 41.672 46.915 41.3037 46.9121C41.2905 46.9121 41.2803 46.9018 41.2803 46.8887C41.2803 46.8755 41.2905 46.8653 41.3037 46.8653C41.8533 46.8492 42.397 46.7761 42.9247 46.6256C44.8643 46.076 46.3465 44.5134 47.2337 42.7536C47.393 42.4364 47.5436 42.1046 47.6576 41.7713C47.7672 41.4731 48.2072 41.6237 48.1034 41.9306L48.1049 41.9292Z"></path>
<path fill="white" d="M45.9708 46.6856C45.9386 46.1813 45.9547 45.6726 45.8875 45.1713C45.8597 44.9666 45.81 44.7474 45.6536 44.6115C45.5951 44.7898 45.5878 44.9798 45.582 45.1669C45.5484 46.1959 45.5133 47.2235 45.4797 48.2525C45.4738 48.4352 45.468 48.6208 45.5162 48.7962C45.5645 48.9716 45.677 49.1397 45.8451 49.2099C46.0585 49.2991 46.3099 49.2099 46.4897 49.0637C46.6695 48.9176 46.7966 48.7202 46.9487 48.5448C47.1869 48.2715 47.4851 48.0522 47.8184 47.909C48.2437 47.7248 48.7495 47.643 49.0374 47.2805C49.0739 47.2337 49.1076 47.1811 49.1134 47.1226C49.1193 47.0642 49.09 46.9984 49.0345 46.9779C48.9658 46.9516 48.8927 47.0028 48.8342 47.0466C48.5945 47.2264 48.3139 47.3506 48.0201 47.4062C47.8286 47.4427 47.6283 47.4515 47.45 47.5304C47.2454 47.6211 47.0904 47.7935 46.9121 47.928C46.7835 48.0259 46.5906 48.1385 46.421 48.1136C46.2748 48.0917 46.2339 47.9543 46.1871 47.8301C46.0497 47.4647 45.9956 47.0729 45.9708 46.6856Z"></path>
<path fill="white" d="M39.6723 46.573C39.6314 46.6592 39.6285 46.7571 39.627 46.8536C39.6212 47.1006 39.6168 47.3521 39.7001 47.5845C39.7834 47.8169 39.9735 48.0259 40.219 48.058C40.3038 48.0697 40.3959 48.058 40.466 48.0083C40.5362 47.9601 40.5815 47.8695 40.5625 47.7862C40.5347 47.6605 40.393 47.6049 40.2936 47.5216C40.1459 47.3988 40.0845 47.2015 40.0495 47.0129C40.0202 46.8551 40.0115 46.6709 39.9369 46.5247C39.8624 46.3786 39.7367 46.4385 39.6738 46.573H39.6723Z"></path>
<path fill="white" d="M39.7309 46.0439C39.709 45.9811 39.7075 45.9138 39.7075 45.848C39.7075 45.7969 39.7075 45.7443 39.7265 45.6975C39.7455 45.6507 39.7894 45.6098 39.8405 45.6112C39.9078 45.6112 39.9531 45.6799 39.9721 45.7443C40.0232 45.9167 39.8522 46.3786 39.7294 46.0439H39.7309Z"></path>
<path fill="white" d="M40.0495 42.1032C40.1358 42.1588 40.2439 42.1588 40.3463 42.1588C41.7451 42.1675 43.1059 42.5797 44.4843 42.8195C44.8497 42.8823 45.2268 42.9335 45.5908 42.8589C46.1506 42.7434 46.6139 42.3985 47.0963 42.093C47.5933 41.7787 48.0902 41.463 48.5594 41.1078C48.6354 41.0494 48.7188 40.9529 48.6691 40.871C48.6194 40.7921 48.4995 40.8199 48.4162 40.8579C47.8651 41.1107 47.355 41.444 46.8157 41.7217C46.3932 41.9395 45.9343 42.1252 45.4694 42.2231C44.9696 42.3283 44.4507 42.1412 43.9683 42.0301C42.7843 41.7583 41.5521 41.827 40.3389 41.8957C40.2542 41.9001 39.8449 41.9717 40.051 42.1032H40.0495Z"></path>
<path fill="white" d="M42.3487 40.3843C42.3268 40.393 42.3034 40.4033 42.2888 40.4223C42.2449 40.4793 42.3078 40.5582 42.3721 40.5904C42.5139 40.6591 42.682 40.6518 42.8354 40.6152C42.9889 40.5787 43.1351 40.5158 43.2871 40.4734C43.9522 40.2893 44.6669 40.5261 45.3481 40.4179C45.3905 40.4106 45.4343 40.4018 45.4679 40.3755C45.5015 40.3492 45.522 40.301 45.503 40.2615C45.484 40.2235 45.4387 40.2103 45.3978 40.2001C45.1171 40.1343 44.835 40.0671 44.5544 40.0013C44.2372 39.9268 43.7797 39.7441 43.4757 39.9092C43.1205 40.1022 42.7229 40.2323 42.3472 40.3843H42.3487Z"></path>
<path fill="white" d="M46.003 40.3199C45.9518 40.3492 45.9503 40.4266 45.9825 40.4763C46.0234 40.5407 46.1155 40.5699 46.1842 40.5363C46.2529 40.5027 46.2851 40.4062 46.2427 40.3419C46.2003 40.2776 46.0936 40.2688 46.0468 40.3302"></path>
<path fill="white" d="M49.1294 41.6954C49.1485 41.8357 49.1236 41.9775 49.09 42.1149C49.0637 42.2187 49.033 42.321 48.9979 42.4219C48.9891 42.4453 48.9804 42.4686 48.9584 42.4803C48.9248 42.4964 48.8853 42.4686 48.8663 42.438C48.8313 42.3853 48.821 42.3196 48.824 42.2567C48.8269 42.1939 48.8415 42.1325 48.8547 42.0711C48.8824 41.9366 48.9 41.7963 48.8707 41.6633C48.859 41.6077 48.8386 41.5522 48.8342 41.4952C48.8313 41.4513 48.84 41.3753 48.8897 41.3578C48.935 41.3417 48.9789 41.3885 49.0052 41.4177C49.0754 41.4952 49.1148 41.596 49.1294 41.6983V41.6954Z"></path>
<path fill="white" d="M22.597 28.2479C22.3398 28.4043 22.0503 28.853 21.9846 28.986C21.6981 29.5692 21.5695 30.2299 21.4788 30.8687C21.1383 33.2907 20.4878 41.0376 22.6087 41.0376C22.6087 41.0376 23.3995 40.9747 22.8704 39.9077C22.3412 38.8407 21.9086 35.7039 22.293 31.0967C22.3836 30.1963 22.5195 29.3968 22.8894 28.5621C22.9288 28.473 22.9668 28.3648 22.9127 28.2844C22.8323 28.1646 22.7169 28.1733 22.5956 28.2479H22.597Z"></path>
<path fill="white" d="M22.3412 41.6398C22.2374 41.8225 22.2447 42.0534 22.3207 42.2493C22.3836 42.4115 22.4946 42.5562 22.6423 42.6483C22.7899 42.7389 22.977 42.7711 23.1422 42.7199C23.4404 42.6264 23.6084 42.2668 23.5295 41.9643C23.4067 41.4892 22.6452 41.1048 22.3397 41.6412L22.3412 41.6398Z"></path>
<path fill="white" d="M38.6127 29.4845C39.1389 32.6768 38.6346 35.9422 38.7588 39.174C38.7647 39.3348 38.8085 39.5409 38.9679 39.5672C39.0629 39.5832 39.1535 39.5219 39.2193 39.4517C39.5014 39.1506 39.5116 38.6931 39.5043 38.2809C39.4721 36.3866 39.44 34.4937 39.4078 32.5993C39.3961 31.9182 39.3844 31.237 39.3128 30.5588C39.2763 30.2168 39.2251 29.8748 39.152 29.5386C39.1067 29.3296 39.0863 28.9247 38.8261 28.8633C38.4811 28.7829 38.5805 29.2916 38.6127 29.4816V29.4845Z"></path>
<path fill="white" d="M38.8656 28.3853C38.8626 28.4466 38.8539 28.5343 38.7925 28.565C38.7574 28.5826 38.7165 28.584 38.6799 28.5738C38.5308 28.5358 38.4227 28.3604 38.4183 28.2113C38.4154 28.0988 38.487 27.9687 38.5995 27.9672C38.7179 27.9643 38.7896 28.0944 38.829 28.2069C38.8495 28.2639 38.8685 28.3239 38.8656 28.3853Z"></path>
<path fill="white" d="M18.247 20.7538C15.9084 21.0783 15.7154 21.34 15.4757 24.5118C15.2374 21.34 15.043 21.0769 12.7043 20.7538C15.043 20.4293 15.236 20.1677 15.4757 16.9958C15.7139 20.1677 15.9084 20.4308 18.247 20.7538Z"></path>
<path fill="white" d="M48.2466 31.6872C45.9079 32.0117 45.7149 32.2733 45.4752 35.4452C45.237 32.2733 45.0425 32.0102 42.7039 31.6872C45.0425 31.3627 45.2355 31.101 45.4752 27.9292C45.7135 31.101 45.9079 31.3641 48.2466 31.6872Z"></path>
<path fill="white" d="M27.8986 39.9078C25.88 40.187 25.7134 40.4135 25.5073 43.1512C25.3012 40.4135 25.1345 40.187 23.116 39.9078C25.1345 39.6286 25.3012 39.402 25.5073 36.6643C25.7134 39.402 25.88 39.6286 27.8986 39.9078Z"></path>
<path fill="#00452B" d="M35.7711 21.5228C35.7316 21.5885 35.6834 21.6002 35.6191 21.6017L35.4598 21.6148C34.7216 21.6733 33.9762 21.7186 33.2365 21.7435C32.3888 21.7712 31.5395 21.7756 30.6918 21.7493C30.6435 21.7479 30.607 21.7069 30.6084 21.6602C30.6099 21.6148 30.6464 21.5798 30.6903 21.5768C31.1127 21.552 31.5337 21.5315 31.9546 21.5008C33.105 21.4277 34.2743 21.3298 35.4218 21.21C35.4685 21.207 35.6103 21.1822 35.6585 21.191C35.7901 21.2231 35.8456 21.4161 35.7711 21.5242V21.5228Z"></path>
</g>
<defs>
<clipPath id="clip0_8241_14147">
<rect transform="translate(12.7058 13.1765)" fill="white" height="37.6471" width="38.5767"></rect>
</clipPath>
</defs>
</svg>
