<svg xmlns="http://www.w3.org/2000/svg" fill="none" viewBox="0 0 24 24" height="24" width="24">
<path fill="#004600" d="M22 17.667C21.7348 17.667 21.4804 17.7724 21.2929 17.9599C21.1054 18.1474 21 18.4018 21 18.667C20.9874 19.2775 20.736 19.8588 20.2997 20.2861C19.8635 20.7134 19.2771 20.9527 18.6665 20.9527C18.0559 20.9527 17.4695 20.7134 17.0333 20.2861C16.597 19.8588 16.3456 19.2775 16.333 18.667C16.333 18.4018 16.2276 18.1474 16.0401 17.9599C15.8526 17.7724 15.5982 17.667 15.333 17.667C15.0678 17.667 14.8134 17.7724 14.6259 17.9599C14.4384 18.1474 14.333 18.4018 14.333 18.667C14.333 19.2857 14.0872 19.8792 13.6497 20.3167C13.2122 20.7542 12.6187 21 12 21C11.3813 21 10.7878 20.7542 10.3503 20.3167C9.9128 19.8792 9.667 19.2857 9.667 18.667C9.667 18.4018 9.56164 18.1474 9.37411 17.9599C9.18657 17.7724 8.93222 17.667 8.667 17.667C8.40178 17.667 8.14743 17.7724 7.95989 17.9599C7.77236 18.1474 7.667 18.4018 7.667 18.667C7.65436 19.2775 7.40296 19.8588 6.96672 20.2861C6.53048 20.7134 5.94415 20.9527 5.3335 20.9527C4.72285 20.9527 4.13652 20.7134 3.70028 20.2861C3.26404 19.8588 3.01264 19.2775 3 18.667C3 18.4018 2.89464 18.1474 2.70711 17.9599C2.51957 17.7724 2.26522 17.667 2 17.667C1.73478 17.667 1.48043 17.7724 1.29289 17.9599C1.10536 18.1474 1 18.4018 1 18.667C0.999749 19.5583 1.27444 20.428 1.7866 21.1575C2.29877 21.8869 3.02348 22.4407 3.8619 22.7431C4.70032 23.0456 5.61163 23.0821 6.47156 22.8477C7.33148 22.6132 8.09814 22.1192 8.667 21.433C9.07311 21.9233 9.58238 22.3179 10.1585 22.5888C10.7346 22.8596 11.3634 23.0001 12 23.0001C12.6366 23.0001 13.2654 22.8596 13.8415 22.5888C14.4176 22.3179 14.9269 21.9233 15.333 21.433C15.9019 22.1192 16.6685 22.6132 17.5284 22.8477C18.3884 23.0821 19.2997 23.0456 20.1381 22.7431C20.9765 22.4407 21.7012 21.8869 22.2134 21.1575C22.7256 20.428 23.0003 19.5583 23 18.667C23 18.4018 22.8946 18.1474 22.7071 17.9599C22.5196 17.7724 22.2652 17.667 22 17.667ZM17 16C17.2652 16 17.5196 15.8946 17.7071 15.7071C17.8946 15.5196 18 15.2652 18 15V6C18 5.20435 18.3161 4.44129 18.8787 3.87868C19.4413 3.31607 20.2044 3 21 3C21.2652 3 21.5196 2.89464 21.7071 2.70711C21.8946 2.51957 22 2.26522 22 2C22 1.73478 21.8946 1.48043 21.7071 1.29289C21.5196 1.10536 21.2652 1 21 1C19.6744 1.00159 18.4036 1.52888 17.4662 2.46622C16.5289 3.40356 16.0016 4.67441 16 6H8C8 5.20435 8.31607 4.44129 8.87868 3.87868C9.44129 3.31607 10.2044 3 11 3C11.2652 3 11.5196 2.89464 11.7071 2.70711C11.8946 2.51957 12 2.26522 12 2C12 1.73478 11.8946 1.48043 11.7071 1.29289C11.5196 1.10536 11.2652 1 11 1C9.67441 1.00159 8.40356 1.52888 7.46622 2.46622C6.52888 3.40356 6.00159 4.67441 6 6V15C6 15.2652 6.10536 15.5196 6.29289 15.7071C6.48043 15.8946 6.73478 16 7 16C7.26522 16 7.51957 15.8946 7.70711 15.7071C7.89464 15.5196 8 15.2652 8 15V13H16V15C16 15.2652 16.1054 15.5196 16.2929 15.7071C16.4804 15.8946 16.7348 16 17 16ZM8 11V8H16V11H8Z"></path>
</svg>
