<svg xmlns="http://www.w3.org/2000/svg" fill="none" viewBox="0 0 24 24" height="24" width="24">
<path fill="#004600" d="M20.553 3.105L14.553 6.105C11.225 7.77 9.27397 9.953 8.75497 12.6C8.01697 16.351 10.747 20.558 11.616 20.921C11.7374 20.9728 11.868 20.9997 12 21C18.682 21 23 17.468 23 12C23 5.309 22.1 3.682 21.707 3.293C21.5587 3.14455 21.3674 3.04651 21.1603 3.01277C20.9532 2.97903 20.7407 3.01129 20.553 3.105ZM12.953 18.965C12.9426 17.2317 13.4565 15.5358 14.4274 14.0998C15.3982 12.6639 16.7806 11.5551 18.393 10.919C18.5155 10.8685 18.6268 10.7942 18.7203 10.7003C18.8139 10.6065 18.8878 10.495 18.9379 10.3723C18.988 10.2496 19.0132 10.1181 19.012 9.98562C19.0109 9.85311 18.9834 9.72214 18.9312 9.60034C18.8789 9.47854 18.803 9.36834 18.7079 9.27613C18.6127 9.18393 18.5001 9.11156 18.3767 9.06324C18.2533 9.01491 18.1215 8.9916 17.9891 8.99465C17.8566 8.9977 17.726 9.02705 17.605 9.081C15.98 9.71731 14.542 10.7537 13.4244 12.094C12.3069 13.4343 11.5458 15.0351 11.212 16.748C10.6791 15.5651 10.5073 14.2512 10.718 12.971C11.118 10.971 12.707 9.265 15.446 7.895L20.476 5.38C20.9018 7.55956 21.0776 9.78058 21 12C21 16.063 17.94 18.67 12.954 18.965H12.953Z"></path>
<path fill="#004600" d="M8.55301 7.9C8.79038 8.01855 9.06512 8.03796 9.3168 7.95394C9.56847 7.86992 9.77646 7.68937 9.89501 7.452C10.0136 7.21463 10.033 6.93989 9.94895 6.68822C9.86493 6.43654 9.68438 6.22855 9.44701 6.11L3.44701 3.11C3.25926 3.0163 3.04678 2.98403 2.83967 3.01777C2.63257 3.05151 2.44132 3.14955 2.29301 3.298C1.90001 3.682 1.00001 5.309 1.00001 12C0.966806 13.7681 1.49397 15.5013 2.506 16.9514C3.51803 18.4016 4.96302 19.4943 6.63401 20.073C6.75664 20.1233 6.88805 20.1488 7.0206 20.1478C7.15315 20.1469 7.28419 20.1196 7.40611 20.0676C7.52803 20.0156 7.63838 19.9398 7.73076 19.8448C7.82314 19.7497 7.8957 19.6372 7.94422 19.5139C7.99274 19.3905 8.01625 19.2588 8.01339 19.1262C8.01052 18.9937 7.98134 18.8631 7.92754 18.742C7.87373 18.6208 7.79639 18.5116 7.69999 18.4206C7.60359 18.3296 7.49006 18.2587 7.36601 18.212C6.06932 17.7801 4.94542 16.9435 4.15952 15.8253C3.37363 14.7072 2.96721 13.3663 3.00001 12C2.92204 9.78063 3.09751 7.5596 3.52301 5.38L8.55301 7.9Z"></path>
</svg>
