<svg xmlns="http://www.w3.org/2000/svg" fill="none" viewBox="0 0 88 81" height="81" width="88">
<g clip-path="url(#clip0_2033_6576)">
<path fill="#00452B" d="M13.9613 66.4352C13.9613 66.4352 5.66494 68.6063 5.42888 71.4422C5.40714 71.7217 5.60593 71.9485 5.81093 72.11C6.29237 72.492 6.9229 72.697 7.50063 72.8772C8.43245 73.166 9.39533 73.3679 10.3551 73.5419C11.6224 73.7748 12.899 73.955 14.1787 74.1103C15.7069 74.2998 17.2413 74.4551 18.7757 74.5917C20.4964 74.7439 22.2203 74.8744 23.9473 74.9893C25.7954 75.1104 27.6466 75.216 29.4947 75.3061C31.405 75.4024 33.3152 75.4832 35.2254 75.5515C36.1821 75.5857 37.1388 75.6198 38.0954 75.6509C38.667 75.6695 39.2385 75.6788 39.81 75.7161C40.22 75.7441 41.5277 75.6913 41.5463 76.3032C41.5494 76.4367 41.4717 76.561 41.3692 76.6479C41.2667 76.7349 41.1425 76.7846 41.0183 76.8374C40.6548 76.9896 40.2883 77.1418 39.9249 77.2909C39.5988 77.4276 39.2664 77.5673 39.0179 77.8189C38.7353 78.1109 38.6235 78.5737 38.8689 78.9309C39.1298 79.3067 39.6019 79.3937 40.0212 79.4714C40.6052 79.5801 41.1984 79.6329 41.7886 79.6826C43.9597 79.8658 46.1308 80.0211 48.3082 80.1454C50.4638 80.2696 52.6163 80.3535 54.7719 80.4063C55.5764 80.4249 56.384 80.4405 57.1885 80.456C59.3099 80.4902 61.4314 80.5057 63.5528 80.5057C77.0052 80.5057 86.4694 80.2696 85.7053 76.7194C84.9412 73.1691 70.1687 73.0138 70.1687 73.0138L48.3765 65.2766L13.9613 66.4383L13.9613 66.4352Z"></path>
<path fill="#FFDB00" d="M54.0018 10.473C54.0018 10.473 58.8255 14.0481 59.3908 16.7566C59.9406 19.3843 58.6547 20.6205 58.9715 22.9066C59.2883 25.1927 67.0411 36.0515 59.9437 53.2032C52.8463 70.355 37.8347 72.3801 27.7151 71.4607C20.2077 70.7774 19.2231 70.4606 16.0176 70.7898C13.2688 71.0725 10.7746 70.7898 10.6162 66.6494C10.4578 62.509 7.39519 58.2692 6.35776 55.5297C5.43215 53.0852 0.838269 40.7976 11.6412 25.0902C18.7448 14.7625 28.3612 10.1065 38.2571 10.619C38.2571 10.619 42.1211 10.9731 44.0531 8.76465C45.398 7.23025 49.0072 7.52843 54.0018 10.473Z"></path>
<mask height="65" width="59" y="7" x="4" maskUnits="userSpaceOnUse" style="mask-type:luminance" id="mask0_2033_6576">
<path fill="white" d="M54.0018 10.473C54.0018 10.473 58.8255 14.0481 59.3908 16.7566C59.9406 19.3843 58.6547 20.6205 58.9715 22.9066C59.2883 25.1927 67.0411 36.0515 59.9437 53.2032C52.8463 70.355 37.8347 72.3801 27.7151 71.4607C20.2077 70.7774 19.2231 70.4606 16.0176 70.7898C13.2688 71.0725 10.7746 70.7898 10.6162 66.6494C10.4578 62.509 7.39519 58.2692 6.35776 55.5297C5.43215 53.0852 0.838269 40.7976 11.6412 25.0902C18.7448 14.7625 28.3612 10.1065 38.2571 10.619C38.2571 10.619 42.1211 10.9731 44.0531 8.76465C45.398 7.23025 49.0072 7.52843 54.0018 10.473Z"></path>
</mask>
<g mask="url(#mask0_2033_6576)">
<path fill="#00452B" d="M12.3091 23.5091C12.3091 23.5091 29.4235 33.0913 47.1157 12.3086L15.8189 16.6074L12.3091 23.5091Z"></path>
<path fill="#00452B" d="M46.774 30.5288C46.774 30.5288 32.9923 38.7288 36.7196 57.4274C40.5898 76.8466 61.0277 75.9924 61.0277 75.9924L46.774 30.5288Z"></path>
</g>
<path fill="#FFDB00" d="M87.0504 61.4158C87.0504 61.4158 87.2492 62.8011 85.693 65.7395C84.1369 68.6778 80.9532 70.7216 78.459 72.3057C76.1916 73.7438 58.8038 79.8566 45.5905 66.4508C31.7157 52.371 41.767 34.9055 46.7771 30.5291C46.7771 30.5291 47.9667 28.799 50.6472 30.995L87.0535 61.4158L87.0504 61.4158Z"></path>
<path fill="#62BB46" d="M51.051 5.6277C51.051 5.6277 47.8952 16.1759 35.1013 19.9995C22.3074 23.8231 13.0792 17.9899 10.6348 15.0919C10.6348 15.0919 14.1974 15.6758 18.108 11.0509C22.4254 5.94452 28.358 -0.463308 38.5304 0.620711C47.6188 1.78238 51.051 5.6277 51.051 5.6277Z"></path>
<path fill="white" d="M9.38602 35.6976C8.92943 35.9771 8.57534 36.3995 8.27094 36.8406C6.88874 38.844 6.39177 41.363 6.50669 43.7982C6.61851 46.2302 7.30185 48.6002 8.10321 50.9018C8.90458 53.2003 9.8333 55.4615 10.47 57.8097C10.5539 58.1141 10.6657 58.462 10.9639 58.5738C11.1938 58.6576 11.4609 58.5582 11.6255 58.3781C11.7901 58.1979 11.874 57.9588 11.9268 57.7196C12.2902 56.033 11.3273 54.3868 10.7403 52.7654C9.87678 50.38 9.80534 47.774 10.0911 45.2518C10.3769 42.7328 11.0105 40.2666 11.5323 37.7848C11.6193 37.3717 11.7032 36.9462 11.6472 36.5269C11.4888 35.3372 10.293 35.1416 9.38602 35.6976Z"></path>
<path fill="white" d="M11.2744 60.248C11.0974 60.6208 11.1098 61.068 11.2744 61.447C11.3707 61.6706 11.526 61.8787 11.7403 61.9968C12.1162 62.2018 12.6224 62.0713 12.8989 61.7452C13.1753 61.419 13.2374 60.9438 13.1101 60.5338C13.0076 60.1952 12.6846 59.6268 12.2994 59.5554C11.8925 59.4777 11.4328 59.9188 11.2744 60.248Z"></path>
<path fill="white" d="M28.2183 3.54642C27.9636 3.72036 27.7151 3.92847 27.5815 4.20801C27.448 4.48756 27.4542 4.85097 27.6654 5.07771C27.8704 5.29824 28.2121 5.33552 28.504 5.26097C28.796 5.18643 29.0507 5.0187 29.3147 4.87582C30.1782 4.4037 31.1473 4.17385 32.0884 3.89741C32.3618 3.81665 32.6537 3.71725 32.8246 3.49051C32.9644 3.30104 32.9985 3.03702 32.9053 2.8196C32.573 2.02444 31.3865 2.43755 30.7777 2.55869C29.8769 2.73884 28.9855 3.02771 28.2214 3.54953L28.2183 3.54642Z"></path>
<path fill="white" d="M37.9403 2.39102C37.8658 2.55565 37.8316 2.74201 37.8813 2.91595C37.9683 3.21103 38.3037 3.39739 38.605 3.34148C38.9063 3.28557 39.1486 3.01845 39.1983 2.71405C39.3598 1.78223 38.2944 1.62072 37.9372 2.39102L37.9403 2.39102Z"></path>
<path fill="white" d="M43.0094 2.74208C42.9131 2.71412 42.8199 2.68617 42.7236 2.66132C42.3416 2.55571 41.9564 2.46564 41.5651 2.40973C41.211 2.35692 40.8103 2.28548 40.4624 2.40973C40.2077 2.50291 40.0276 2.73276 40.0928 3.01231C40.1487 3.25147 40.3475 3.43473 40.5711 3.53102C40.7948 3.62731 41.0432 3.65216 41.2855 3.6739C41.9316 3.7267 42.587 3.75776 43.1989 3.96898C43.5219 4.08079 43.8325 4.24231 44.1711 4.27027C44.3854 4.2889 44.637 4.22989 44.7302 4.0342C44.7892 3.90685 44.7643 3.75155 44.6929 3.63041C44.6214 3.50928 44.5096 3.4161 44.3947 3.33534C43.9785 3.04647 43.4908 2.87874 43.0032 2.73587L43.0094 2.74208Z"></path>
<path fill="#00452B" d="M60.5866 3.72976L58.0706 1.9624C58.0706 1.9624 57.9464 2.26369 57.6917 2.76377C57.0332 3.93476 55.5889 4.43794 54.3371 4.62431C53.8308 4.69885 53.3246 4.69885 52.8183 4.73923C52.2716 4.78272 51.728 4.83552 51.1845 4.89143C44.5406 5.72386 38.1234 7.96023 32.2188 11.0632C30.9174 11.7496 29.4886 12.5665 28.1809 13.2126C26.8204 13.8711 25.4134 14.4581 23.9815 14.9365C23.9566 14.9458 23.9287 14.952 23.9038 14.9613C23.7454 15.0141 23.5839 15.0638 23.4255 15.1135C23.2671 15.1632 23.1025 15.2098 22.941 15.2564C22.7794 15.303 22.6117 15.3496 22.4471 15.3931C22.2825 15.4365 22.1147 15.48 21.947 15.5235C21.7793 15.567 21.6116 15.6043 21.4438 15.6447C21.2761 15.685 21.1053 15.7192 20.9344 15.7565C20.7636 15.7937 20.5928 15.8248 20.4219 15.859C20.2511 15.8931 20.0772 15.9211 19.9063 15.949C19.7355 15.977 19.5616 16.005 19.3876 16.0298C19.2137 16.0547 19.0397 16.0764 18.8658 16.0981C18.6919 16.1199 18.5179 16.1385 18.3409 16.154C18.1669 16.1696 17.9899 16.1851 17.8159 16.1975C17.642 16.21 17.465 16.2193 17.291 16.2286C17.1171 16.2379 16.94 16.241 16.7661 16.2441C16.5921 16.2472 16.4182 16.2441 16.2412 16.2441C16.0641 16.2441 15.8933 16.2379 15.7193 16.2286C15.5454 16.2193 15.3715 16.21 15.2006 16.1975C15.0267 16.1851 14.8559 16.1696 14.685 16.1509C14.5142 16.1323 14.3433 16.1106 14.1725 16.0857C14.0017 16.0609 13.834 16.0329 13.6631 16.0019C13.4923 15.9708 13.3277 15.9366 13.1599 15.8994C12.9922 15.8621 12.8276 15.8217 12.6599 15.7782C12.4921 15.7347 12.3306 15.6881 12.166 15.6384C12.0014 15.5887 11.8399 15.5359 11.6814 15.4769C11.523 15.4179 11.3615 15.3589 11.2031 15.2968C11.1255 15.2657 11.0447 15.2315 10.967 15.1974C10.9142 15.1756 10.8645 15.1446 10.8086 15.129C10.7496 15.1135 10.6906 15.098 10.6316 15.0825C10.6751 15.129 10.7279 15.1725 10.7838 15.2036C10.9515 15.303 11.1317 15.3868 11.3087 15.4645C12.4828 15.9894 13.747 16.2907 15.0174 16.4584C19.6454 17.0393 24.3076 15.7689 28.4977 13.8618C30.2868 13.0418 32.1815 11.9422 33.9644 11.1098C34.2222 10.9918 35.4491 10.414 35.6852 10.3084C35.9088 10.2152 36.5021 9.96675 36.735 9.87046C38.316 9.19023 40.0803 8.5597 41.7172 8.03477C45.7892 6.74886 50.0539 5.80461 54.3278 5.67105C54.5577 5.65552 54.7875 5.6431 55.0174 5.62757C55.4087 5.60272 55.6448 6.04999 55.4025 6.3606C55.3497 6.42894 55.2969 6.49416 55.2441 6.5625C53.3246 8.95417 52.8928 9.10016 51.7995 9.46667C50.995 9.7369 50.762 9.97918 50.6285 10.178C50.5943 10.2152 50.5664 10.2556 50.5415 10.2991C50.5291 10.3239 50.5167 10.3457 50.5042 10.3705C50.1688 11.1315 51.082 12.4174 52.6071 13.2965C54.1787 14.2034 55.8063 14.3339 56.2381 13.5853C56.2909 13.4953 56.3219 13.399 56.3343 13.2934C56.3809 12.9579 56.3623 12.6069 56.2971 12.2746C56.1852 11.7093 56.0983 11.1191 56.1853 10.5445C56.2722 9.96986 56.5269 9.47599 56.7723 8.98213C57.4339 7.64962 58.3253 6.42893 59.2603 5.27348C59.6889 4.74234 60.1362 4.22673 60.5928 3.71733L60.5866 3.72976Z"></path>
<path fill="white" d="M50.0849 30.7184L86.5595 60.4032C86.5595 60.4032 87.1963 60.8815 87.0192 61.54C86.8391 62.2078 86.1526 62.7545 85.5749 63.1769C84.9972 63.5962 66.7676 79.3626 48.9046 64.9318C48.9046 64.9318 43.8542 60.8722 42.4254 53.0449C40.9686 45.0592 43.966 34.6662 49.3333 30.6998C49.5569 30.5321 49.8675 30.5445 50.0849 30.7215L50.0849 30.7184Z"></path>
<path fill="white" d="M39.9064 45.4878C39.5368 47.5036 39.3225 49.5692 39.5616 51.6036C39.6238 52.1192 39.7138 52.6348 39.9344 53.107C40.0835 53.4331 40.3878 53.7686 40.7357 53.6847C41.0681 53.6039 41.1892 53.2002 41.2296 52.8585C41.416 51.3055 41.1985 49.7058 41.1209 48.1528C41.0432 46.5873 41.155 45.0125 41.4625 43.475C41.5495 43.0278 41.6551 42.5867 41.7763 42.1487C41.885 41.7543 42.0061 41.3567 41.9999 40.9467C41.9999 40.8318 41.9813 40.7075 41.9005 40.6268C41.5309 40.2603 40.8972 41.9593 40.801 42.1922C40.3692 43.2483 40.1114 44.3696 39.9064 45.4878Z"></path>
<path fill="white" d="M40.7016 55.7439C40.6115 56.0328 40.6612 56.3496 40.7389 56.6416C40.8134 56.9211 40.9221 57.21 41.1458 57.3963C41.3694 57.5827 41.7328 57.6231 41.9378 57.4181C42.003 57.3529 42.0465 57.269 42.0807 57.182C42.2236 56.8404 42.236 56.4459 42.1242 56.0949C41.913 55.4457 41.0184 54.7189 40.7016 55.7439Z"></path>
<path fill="#FFDB00" d="M70.0166 49.358C70.0166 49.358 79.6703 56.8219 82.4564 60.0864C85.2426 63.3509 75.3591 66.8452 75.3591 66.8452C75.3591 66.8452 71.346 68.6219 70.9018 65.9196C70.3769 62.7017 68.9761 54.4054 68.9512 50.1874C68.9512 50.1874 68.8146 48.3734 70.0166 49.358Z"></path>
<path fill="#FFDB00" d="M67.5316 49.4542L68.3796 65.7393C68.3796 65.7393 68.6964 68.1434 67.1185 68.7553C65.5406 69.3672 59.7602 68.9137 55.5018 66.5065C55.5018 66.5065 53.2747 65.4225 55.0669 62.9376C56.8623 60.4528 65.1058 49.2554 65.1058 49.2554C65.1058 49.2554 66.2084 47.7427 66.8793 47.8359C67.4446 47.9136 67.5285 49.4511 67.5285 49.4511L67.5316 49.4542Z"></path>
<path fill="#FFDB00" d="M51.8274 34.4116L63.4006 43.6956C63.8416 44.0497 63.6273 44.7641 63.0651 44.8138L47.1931 46.2861C47.1931 46.2861 43.7888 46.4445 44.2889 43.0123C44.789 39.5832 46.6899 36.3032 47.8671 34.6942C49.563 32.3771 51.8274 34.4085 51.8274 34.4085L51.8274 34.4116Z"></path>
<path fill="#FFDB00" d="M47.4632 48.1746L64.0745 45.8824C64.7765 45.7861 65.2362 46.5968 64.792 47.1496C61.5586 51.1472 53.138 61.5494 53.1225 61.5028C53.1039 61.4438 50.737 64.7176 47.8391 60.9126C44.9411 57.1077 44.441 53.0916 44.4286 51.1347C44.41 48.6903 46.4103 48.3237 47.4632 48.1777L47.4632 48.1746Z"></path>
<path fill="#00452B" d="M56.9494 30.3955C56.8345 30.4949 56.7754 30.6564 56.8003 30.8055C56.8127 30.88 56.85 30.9546 56.9183 30.9887C57.0239 31.0384 57.1482 30.9639 57.2227 30.8707C57.3128 30.7558 57.4215 30.5259 57.3407 30.383C57.26 30.2402 57.0581 30.3054 56.9525 30.3986L56.9494 30.3955Z"></path>
<path fill="#00452B" d="M57.9402 31.9671C57.9061 32.0633 57.9092 32.1814 57.9744 32.2621C58.0489 32.3522 58.1949 32.3708 58.3005 32.3149C58.4838 32.2218 58.6018 31.8863 58.4248 31.731C58.2477 31.5757 58.0023 31.7869 57.9402 31.9671Z"></path>
<path fill="#00452B" d="M58.3687 30.2495C58.5955 30.5228 58.9092 30.1035 58.7291 29.8488C58.5023 29.5289 58.1948 30.0414 58.3687 30.2495Z"></path>
<path fill="#00452B" d="M13.2593 49.1407C13.1537 49.2401 13.1134 49.3892 13.104 49.5352C13.0978 49.6345 13.104 49.7402 13.1537 49.8271C13.2034 49.9141 13.2966 49.9824 13.396 49.9762C13.514 49.9669 13.6041 49.8613 13.6538 49.7526C13.7253 49.5942 13.7812 49.3146 13.688 49.1531C13.601 49.0009 13.3712 49.0351 13.2593 49.1407Z"></path>
<path fill="#00452B" d="M13.9646 50.1782C13.9584 50.2559 13.9646 50.3397 14.0174 50.3988C14.0826 50.4702 14.2038 50.4671 14.2783 50.4081C14.4181 50.2994 14.4243 50.026 14.2845 49.9142C14.0982 49.762 13.9739 50.0229 13.9646 50.1782Z"></path>
<path fill="#00452B" d="M13.219 51.1534C13.1352 51.2342 13.101 51.3522 13.0979 51.4671C13.0979 51.5262 13.1041 51.5852 13.129 51.638C13.1538 51.6908 13.2004 51.7374 13.2563 51.7498C13.3309 51.7684 13.4116 51.7312 13.4706 51.6784C13.598 51.5634 13.6632 51.3522 13.6011 51.1907C13.539 51.0292 13.334 51.0478 13.2221 51.1534L13.219 51.1534Z"></path>
<path fill="white" d="M71.3335 71.5417C71.6255 71.8523 72.0883 71.3958 71.8305 71.0851C71.5727 70.7745 71.0322 71.2218 71.3335 71.5417Z"></path>
<path fill="white" d="M72.0231 72.8119C72.3896 72.9952 72.7034 72.4237 72.3462 72.2218C71.9641 72.0044 71.6224 72.6132 72.0231 72.8119Z"></path>
<path fill="white" d="M73.8307 71.8552C73.8835 71.8956 73.9487 71.9174 74.0171 71.9236C74.4178 71.9515 74.542 71.4359 74.16 71.2993C73.8059 71.1688 73.5015 71.6161 73.8307 71.8583L73.8307 71.8552Z"></path>
<path fill="white" d="M75.2782 71.1192C75.2316 71.2528 75.2844 71.4112 75.3962 71.4919C75.5111 71.5727 75.6789 71.5696 75.7907 71.4857C76.2442 71.1502 75.4739 70.5663 75.2782 71.1192Z"></path>
<path fill="white" d="M76.7754 71.6379C76.7132 71.7745 76.7722 71.9516 76.8996 72.0354C77.058 72.1379 77.2972 72.0727 77.3841 71.905C77.5954 71.4857 76.9555 71.2496 76.7785 71.6379L76.7754 71.6379Z"></path>
<path fill="#62BB46" d="M60.6543 3.63411C60.9013 3.20626 60.5006 2.51245 59.7593 2.08445C59.018 1.65644 58.2168 1.65633 57.9697 2.08418C57.7227 2.51204 58.1234 3.20585 58.8647 3.63385C59.6061 4.06185 60.4073 4.06197 60.6543 3.63411Z"></path>
<path fill="white" d="M72.834 57.1885C72.8029 57.2847 72.8029 57.3904 72.8092 57.4929C72.8402 58.1047 73.0607 58.7073 73.4273 59.195C73.5639 59.3751 73.7472 59.5553 73.9739 59.5584C74.2442 59.5646 74.4616 59.3037 74.4958 59.0335C74.5299 58.7632 74.4212 58.5023 74.297 58.2632C74.1013 57.8966 73.8559 57.5581 73.567 57.263C73.3558 57.0456 72.9831 56.7381 72.8371 57.1885L72.834 57.1885Z"></path>
<path fill="white" d="M49.7651 50.7684C49.7092 50.7311 49.6409 50.7094 49.5757 50.6938C49.175 50.5975 48.7464 50.6224 48.3612 50.7653C48.2183 50.8181 48.0692 50.9019 48.0226 51.0479C47.9667 51.2219 48.0941 51.4113 48.2587 51.4828C48.4233 51.5542 48.6159 51.5387 48.793 51.5014C49.0663 51.4455 49.3303 51.3523 49.5788 51.225C49.7589 51.1318 50.0292 50.9485 49.7651 50.7684Z"></path>
<path fill="white" d="M64.4196 59.0367C64.1742 59.1982 64.0531 59.4933 63.9692 59.7728C63.9257 59.9157 63.8853 60.0617 63.8574 60.2108C63.817 60.4034 63.7921 60.6021 63.8418 60.7916C63.8915 60.9811 64.0282 61.1581 64.2177 61.2016C64.4351 61.2544 64.665 61.1209 64.7892 60.9345C64.9134 60.7481 64.9538 60.5183 64.9787 60.2946C64.9942 60.158 65.0066 60.0182 65.0128 59.8815C65.0284 59.5678 64.9476 58.6919 64.4196 59.0398L64.4196 59.0367Z"></path>
<path fill="white" d="M55.4119 41.7793C55.3001 41.506 55.0329 41.3351 54.772 41.1954C54.6385 41.1239 54.5018 41.0587 54.3651 41.0028C54.185 40.9282 53.9924 40.8661 53.7998 40.8785C53.6073 40.891 53.4054 40.9935 53.3246 41.1705C53.2314 41.3755 53.3184 41.6271 53.4799 41.7824C53.6414 41.9377 53.8588 42.0216 54.0732 42.0899C54.2067 42.1303 54.3403 42.1676 54.4738 42.2017C54.7782 42.2763 55.6542 42.3632 55.415 41.7793L55.4119 41.7793Z"></path>
<path fill="white" d="M63.8482 52.8029C63.7239 52.8432 63.6214 52.9333 63.5313 53.0296C63.2549 53.3185 63.0437 53.6632 62.9101 54.0391C62.8729 54.1447 62.8418 54.2565 62.8418 54.3683C62.8418 54.4801 62.8853 54.5982 62.9723 54.6665C63.0872 54.7628 63.2642 54.7566 63.3978 54.6883C63.5313 54.6199 63.6338 54.5019 63.7208 54.3807C63.9351 54.0857 64.0966 53.7502 64.1991 53.3992C64.2364 53.2688 64.3048 53.0358 64.2302 52.9054C64.1588 52.7842 63.9693 52.7625 63.8482 52.7998L63.8482 52.8029Z"></path>
<path fill="white" d="M55.3748 52.0543C55.1201 52.1195 54.8592 52.222 54.6883 52.4239C54.5175 52.6258 54.4678 52.9457 54.6324 53.1507C54.7815 53.3371 55.0486 53.3743 55.2878 53.3712C55.8966 53.3588 56.4992 53.1476 56.9868 52.7811C57.1173 52.6848 57.2446 52.5605 57.2726 52.4021C57.3378 52.0356 56.8191 52.017 56.5799 51.9859C56.1792 51.9331 55.7661 51.9549 55.3717 52.0543L55.3748 52.0543Z"></path>
<path fill="white" d="M78.0551 36.7164C72.3058 37.5115 71.8306 38.1576 71.2435 45.957C70.6565 38.1607 70.1812 37.5147 64.4319 36.7164C70.1812 35.9212 70.6565 35.2752 71.2435 27.4758C71.8306 35.2721 72.3058 35.9181 78.0551 36.7164Z"></path>
<path fill="white" d="M14.1726 10.88C8.42321 11.6751 7.94798 12.3212 7.36093 20.1205C6.77389 12.3243 6.29866 11.6782 0.549316 10.88C6.29866 10.0848 6.77389 9.43875 7.36093 1.6394C7.94798 9.43565 8.42321 10.0817 14.1726 10.88Z"></path>
<path fill="white" d="M30.843 54.7376C25.0936 55.5328 24.6184 56.1789 24.0313 63.9782C23.4443 56.182 22.9691 55.5359 17.2197 54.7376C22.9691 53.9425 23.4443 53.2964 24.0313 45.4971C24.6184 53.2933 25.0936 53.9394 30.843 54.7376Z"></path>
</g>
<defs>
<clipPath id="clip0_2033_6576">
<rect transform="translate(0.549316 0.499512)" fill="white" height="80" width="86.5072"></rect>
</clipPath>
</defs>
</svg>
