<svg xmlns="http://www.w3.org/2000/svg" fill="none" viewBox="0 0 24 24" height="24" width="24">
<path fill="#004600" d="M3.99992 17H10.9999V21H7.99992C7.73471 21 7.48035 21.1054 7.29282 21.2929C7.10528 21.4804 6.99992 21.7348 6.99992 22C6.99992 22.2652 7.10528 22.5196 7.29282 22.7071C7.48035 22.8946 7.73471 23 7.99992 23H15.9999C16.2651 23 16.5195 22.8946 16.707 22.7071C16.8946 22.5196 16.9999 22.2652 16.9999 22C16.9999 21.7348 16.8946 21.4804 16.707 21.2929C16.5195 21.1054 16.2651 21 15.9999 21H12.9999V17H19.9999C20.1912 17 20.3784 16.9451 20.5395 16.8419C20.7005 16.7387 20.8285 16.5915 20.9084 16.4177C20.9883 16.2439 21.0167 16.0509 20.9902 15.8615C20.9637 15.672 20.8834 15.4942 20.7589 15.349L16.1739 10H17.9999C18.1912 9.99999 18.3784 9.94512 18.5395 9.84191C18.7005 9.7387 18.8285 9.59148 18.9084 9.4177C18.9883 9.24392 19.0167 9.05087 18.9902 8.86145C18.9637 8.67204 18.8834 8.49419 18.7589 8.349L12.7589 1.349C12.6622 1.24423 12.5448 1.16062 12.4142 1.10343C12.2836 1.04625 12.1425 1.01672 11.9999 1.01672C11.8573 1.01672 11.7163 1.04625 11.5856 1.10343C11.455 1.16062 11.3377 1.24423 11.2409 1.349L5.24092 8.349C5.11641 8.49419 5.03614 8.67204 5.00964 8.86145C4.98315 9.05087 5.01152 9.24392 5.09141 9.4177C5.1713 9.59148 5.29936 9.7387 5.46038 9.84191C5.62141 9.94512 5.80866 9.99999 5.99992 10H7.82592L3.24092 15.349C3.11641 15.4942 3.03614 15.672 3.00965 15.8615C2.98315 16.0509 3.01152 16.2439 3.09141 16.4177C3.1713 16.5915 3.29936 16.7387 3.46038 16.8419C3.62141 16.9451 3.80866 17 3.99992 17ZM10.7589 9.651C10.8834 9.50582 10.9637 9.32797 10.9902 9.13855C11.0167 8.94913 10.9883 8.75609 10.9084 8.58231C10.8285 8.40853 10.7005 8.2613 10.5395 8.15809C10.3784 8.05488 10.1912 8.00002 9.99992 8H8.17392L11.9999 3.537L15.8259 8H13.9999C13.8087 8.00002 13.6214 8.05488 13.4604 8.15809C13.2994 8.2613 13.1713 8.40853 13.0914 8.58231C13.0115 8.75609 12.9831 8.94913 13.0096 9.13855C13.0361 9.32797 13.1164 9.50582 13.2409 9.651L17.8259 15H6.17392L10.7589 9.651Z"></path>
</svg>
