<svg xmlns="http://www.w3.org/2000/svg" fill="none" viewBox="0 0 64 64" height="64" width="64">
<circle fill="#00CE9D" r="32" cy="32" cx="32"></circle>
<g clip-path="url(#clip0_8241_14015)">
<path fill="#00452B" d="M23.8582 45.196C23.8582 45.196 18.6605 45.8933 18.5391 47.2278C18.4178 48.5623 28.7694 48.0098 28.7694 48.8356C28.7694 49.1996 27.1631 49.5182 27.1528 49.9465C27.1382 50.5531 27.5738 50.8761 36.0676 50.8147C39.3272 50.7373 43.9797 50.8221 43.9797 50.2184C43.9797 49.6147 42.2681 49.6512 42.2681 49.2712C42.2681 48.8839 50.759 49.4101 50.9271 48.4395C51.0937 47.469 45.4414 46.6665 45.4414 46.6665L23.8597 45.1946L23.8582 45.196Z"></path>
<path fill="#EE4794" d="M25.7147 28.1749C25.5203 28.3225 25.3318 28.4789 25.1535 28.6441C24.9298 28.8502 24.6711 29.0051 24.4358 29.201C24.1507 29.4363 23.8716 29.6775 23.5924 29.9201C23.5456 29.961 23.4988 30.002 23.4521 30.0414C23.0633 30.3805 22.6379 30.7109 22.331 31.1275C22.0488 31.509 21.8398 31.9387 21.5475 32.3129C21.3049 32.6228 21.0286 32.8946 20.8225 33.2323C20.6895 33.4501 20.6149 33.7132 20.5302 33.9529C20.4366 34.2145 20.3489 34.4776 20.2598 34.7393C20.0843 35.2626 19.9089 35.7873 19.7043 36.3004C19.5961 36.5722 19.4792 36.8426 19.4149 37.1291C19.2717 37.7781 19.4134 38.4534 19.5552 39.1024C19.8841 40.6138 20.042 42.1646 20.7392 43.5459C21.0841 44.2314 21.6352 44.7971 22.2564 45.2473C22.8776 45.6975 23.5719 46.0366 24.2735 46.3465C25.0994 46.7119 25.9486 47.0422 26.8388 47.1943C27.7289 47.3463 28.6688 47.3112 29.502 46.9633C31.2194 46.2486 32.9281 45.2678 34.2086 43.9186C35.489 42.5695 36.4698 40.9617 37.2942 39.2939C37.7108 38.4519 38.0923 37.5837 38.2911 36.6643C38.6068 35.1997 38.4314 33.6342 37.8014 32.2763C37.5281 31.6873 37.3994 31.0032 37.2167 30.3805C37.0106 29.6775 36.7972 28.9569 36.3616 28.3678C35.8705 27.7042 35.1309 27.2569 34.3518 26.9821C33.7321 26.7629 33.1035 26.6591 32.4589 26.5875C32.1184 26.5495 31.7924 26.4574 31.446 26.4413C31.0923 26.4252 30.7385 26.4442 30.3892 26.4983C30.2065 26.5276 30.0238 26.5539 29.8425 26.5889C29.7168 26.6138 29.6087 26.6752 29.4815 26.6927C29.1658 26.7351 28.853 26.776 28.5416 26.8491C27.9219 26.9938 27.3226 27.2175 26.7584 27.5127C26.3944 27.7027 26.0451 27.9235 25.7177 28.1719L25.7147 28.1749Z"></path>
<path fill="#FFDB00" d="M26.0697 31.4621C25.8797 31.2063 25.868 30.8409 25.8709 30.5354C25.8753 29.9274 25.9177 29.3164 26.0756 28.7302C26.2349 28.1441 26.517 27.5814 26.9497 27.156C27.5387 26.5772 28.35 26.2951 29.1349 26.0378C29.3176 25.9779 29.5412 25.9267 29.6859 26.0539C29.8014 26.1562 29.8102 26.3316 29.8146 26.4851C29.8438 27.8503 30.0528 29.2111 30.4329 30.5237C30.4811 30.6889 30.5323 30.857 30.541 31.0295C30.5498 31.1815 30.5103 31.332 30.427 31.4607C30.3539 31.5732 30.2195 31.6288 30.0967 31.6668C29.7225 31.7793 29.3293 31.8071 28.9405 31.8188C28.2433 31.8392 27.5446 31.8246 26.8474 31.7764C26.7114 31.7661 26.5726 31.7559 26.4425 31.7165C26.2934 31.6726 26.1647 31.5893 26.0712 31.4636L26.0697 31.4621Z"></path>
<path fill="#FFDB00" d="M35.087 36.7139C35.413 36.6846 35.7111 36.5195 35.9918 36.3499C36.5121 36.0357 37.015 35.6863 37.4374 35.2493C37.8598 34.8122 38.1989 34.2831 38.3436 33.6926C38.5395 32.8901 38.367 32.0497 38.1858 31.2443C38.1434 31.0557 38.0732 30.8379 37.8905 30.7795C37.7429 30.7327 37.5879 30.8145 37.4535 30.8905C36.2651 31.5644 34.9891 32.0818 33.6677 32.4253C33.5011 32.4692 33.3315 32.5101 33.178 32.5905C33.0246 32.6709 32.8886 32.7951 32.8316 32.9588C32.76 33.162 32.8243 33.3871 32.893 33.5917C33.0757 34.1369 33.2964 34.6705 33.5522 35.1864C33.7744 35.6366 33.9937 36.1365 34.3722 36.4727C34.5725 36.651 34.8195 36.7373 35.0885 36.7124L35.087 36.7139Z"></path>
<path fill="#FFDB00" d="M30.446 27.3109C30.4636 27.5521 30.4855 27.7933 30.5118 28.033C30.5367 28.2522 30.5791 28.4613 30.6185 28.6776C30.753 29.4274 30.9123 30.1743 31.0994 30.914C31.136 31.0572 31.1783 31.2107 31.2646 31.3335C31.307 31.3934 31.3625 31.4475 31.4312 31.4767C31.516 31.5132 31.6095 31.4942 31.6958 31.5279C31.8127 31.5732 31.9238 31.6492 31.9998 31.7486C32.0714 31.8421 32.1241 31.9605 32.2366 32.0131C32.3798 32.0789 32.5436 32.0365 32.6897 32.0131C33.0186 31.9605 33.346 31.9064 33.6691 31.8246C33.9935 31.7413 34.3122 31.6316 34.6323 31.5308C35.0021 31.4139 35.3719 31.2984 35.7417 31.1814C35.7739 31.1712 35.9902 31.1259 35.9975 31.1011C36.1218 30.6772 36.208 30.1948 36.2489 29.7563C36.2898 29.3163 36.2416 28.8588 36.0355 28.4686C35.8484 28.1148 35.5385 27.8342 35.1921 27.6325C34.8457 27.4308 34.4613 27.3036 34.0725 27.2013C33.2145 26.9747 32.3243 26.8651 31.4356 26.8783C31.2617 26.8812 31.0848 26.8885 30.9182 26.9396C30.7515 26.9908 30.5337 27.1604 30.446 27.3124V27.3109Z"></path>
<path fill="#FFDB00" d="M22.1628 31.7223C22.1687 31.6536 22.1848 31.5864 22.2008 31.5177C22.2345 31.3803 22.2798 31.2458 22.3382 31.1158C22.9989 29.6321 24.1273 28.3619 25.5218 27.5302C25.6592 27.4484 25.8419 27.3724 25.9691 27.4689C26.0407 27.5229 26.0699 27.6179 26.067 27.7071C26.0641 27.7963 26.0334 27.8811 26.0056 27.9658C25.9223 28.2114 25.8492 28.4613 25.7878 28.7142C25.6563 29.2506 25.5759 29.8002 25.5481 30.3513C25.5335 30.6275 25.5379 30.9038 25.5437 31.1801C25.5481 31.3789 25.5627 31.5937 25.3464 31.6931C25.2631 31.7311 25.1681 31.7355 25.076 31.7399C24.332 31.7706 23.55 31.7311 22.8469 32.0132C22.7285 32.0615 22.6087 32.117 22.4815 32.1155C22.2652 32.1155 22.1482 31.9226 22.1628 31.7223Z"></path>
<path fill="#FFDB00" d="M36.4844 40.2659C36.5443 40.2322 36.5969 40.1884 36.6525 40.1445C36.7636 40.0568 36.8659 39.9574 36.958 39.8507C37.2781 39.4809 37.5631 39.079 37.8101 38.6565C38.1507 38.0704 38.4255 37.4434 38.6097 36.79C38.7032 36.4596 38.7719 36.1235 38.8128 35.7829C38.8435 35.5271 38.9342 35.1003 38.7471 34.8825C38.6404 34.7568 38.465 34.7539 38.3407 34.8576C38.2706 34.9161 38.2179 34.995 38.1653 35.0696C37.4798 36.0445 36.4318 36.6307 35.3428 37.0545C35.2083 37.1072 35.0563 37.1744 35.0183 37.3133C34.9818 37.4463 35.0695 37.5778 35.1469 37.6918C35.3998 38.0631 35.5884 38.4782 35.7053 38.9123C35.7652 39.1316 35.8062 39.3567 35.8281 39.5833C35.8354 39.6563 35.8471 39.7338 35.8442 39.8084C35.8412 39.8697 35.831 39.9224 35.8442 39.9838C35.8676 40.1021 35.9406 40.2118 36.0444 40.2732C36.1263 40.3214 36.2227 40.3375 36.3163 40.3258C36.3791 40.317 36.4347 40.2966 36.4858 40.2673L36.4844 40.2659Z"></path>
<path fill="#FFDB00" d="M31.9516 32.6899L33.748 36.4698C33.748 36.4698 33.9965 36.9171 33.8679 37.1743C33.7378 37.4301 33.2818 37.5807 33.2861 37.5675C33.2891 37.5573 30.1801 38.1785 28.7345 38.4679C28.2974 38.5556 27.8604 38.3232 27.6864 37.9125C27.3298 37.0662 26.7481 35.4656 26.3008 33.1591C26.2277 32.782 26.5054 32.4268 26.8884 32.4063C28.1176 32.3391 30.5353 32.209 30.9972 32.1959C30.9972 32.1959 31.7061 32.0862 31.9516 32.6914V32.6899Z"></path>
<path fill="#FFDB00" d="M19.0436 36.6979C18.9925 36.5094 18.9779 36.3106 18.9852 36.1147C18.9983 35.7507 19.0612 35.3634 19.1679 35.017C19.333 34.482 19.621 33.9953 19.9309 33.529C20.2846 32.9955 20.6968 32.4605 21.2858 32.212C21.4174 32.1565 21.5913 32.1258 21.6834 32.2354C21.7755 32.345 21.7156 32.5102 21.6557 32.6418C21.014 34.0435 20.8839 35.6704 21.2932 37.1569C21.3253 37.2767 21.3619 37.4024 21.3297 37.5208C21.2464 37.8307 20.8956 37.8 20.6456 37.7766C20.0463 37.7211 19.3944 37.5121 19.1255 36.9259C19.0919 36.8529 19.0656 36.7783 19.0451 36.7008L19.0436 36.6979Z"></path>
<path fill="#FFDB00" d="M23.2532 43.5078C23.0749 43.5926 22.7562 43.4815 22.6013 43.4406C22.2738 43.3529 21.9596 43.2228 21.6468 43.0913C21.2346 42.9188 20.8195 42.7448 20.438 42.5124C20.0857 42.2976 19.7583 42.0272 19.5186 41.6866C19.2745 41.3387 19.121 40.8856 19.0201 40.4749C18.8594 39.8186 18.8374 39.136 18.8725 38.4607C18.8827 38.2677 18.9193 38.0412 19.0932 37.9578C19.2087 37.9023 19.3461 37.9315 19.4703 37.9637C19.7831 38.0426 20.0945 38.1201 20.4073 38.199C20.7142 38.2765 21.0343 38.3598 21.2682 38.5732C21.5737 38.8495 21.6673 39.2821 21.7696 39.6826C21.8412 39.9677 21.9245 40.2498 22.0195 40.5289C22.1891 41.0288 22.3922 41.5214 22.6276 41.995C22.7124 42.166 22.7957 42.3546 22.9024 42.511C23.0252 42.6922 23.1523 42.872 23.2766 43.0518C23.335 43.1366 23.3964 43.2331 23.3803 43.3354C23.3657 43.426 23.319 43.4801 23.2561 43.5108L23.2532 43.5078Z"></path>
<path fill="#FFDB00" d="M23.11 38.3393C22.7007 38.1639 22.347 37.9008 22.1248 37.4974C21.8793 37.053 21.7989 36.5385 21.7258 36.0372C21.6074 35.2259 21.489 34.3782 21.7112 33.5772C21.7872 33.3024 21.9085 33.0363 22.1 32.8258C22.1877 32.7279 22.2915 32.6446 22.4069 32.5788C22.5356 32.5057 22.6642 32.4911 22.8001 32.4443C23.0895 32.345 23.3848 32.3011 23.6888 32.2602C24.0586 32.2119 24.4314 32.1812 24.8041 32.171C25.0833 32.1637 25.3625 32.209 25.5525 32.4341C25.7323 32.6475 25.7688 32.9428 25.8039 33.2205C25.8419 33.5158 25.8872 33.8096 25.9427 34.1034C26.0758 34.8167 26.257 35.5226 26.4865 36.2111C26.6677 36.7563 26.8534 37.3454 27.1355 37.8482C27.1939 37.9534 27.2626 38.0557 27.2904 38.1727C27.3854 38.5805 26.887 38.6872 26.5903 38.6974C25.9822 38.7193 25.3727 38.7398 24.7646 38.6872C24.234 38.6419 23.6289 38.56 23.1115 38.3378L23.11 38.3393Z"></path>
<path fill="#FFDB00" d="M26.4279 44.2957C26.2423 44.2855 26.0567 44.2723 25.871 44.2533C25.3931 44.2066 24.9107 44.0779 24.5219 43.7871C24.1477 43.5079 23.889 43.1045 23.6551 42.701C23.0924 41.7305 22.6247 40.7058 22.2607 39.6447C22.1701 39.3816 22.1028 39.0454 22.3119 38.8612C22.4931 38.7019 22.7708 38.7589 23.0032 38.8188C24.4825 39.2018 26.0245 39.3392 27.5476 39.2266C27.8999 39.2003 28.2872 39.1696 28.5737 39.3786C28.8353 39.5701 28.9347 39.9078 29.0195 40.2206C29.23 41.0084 29.439 41.7948 29.6495 42.5826C29.7255 42.8677 29.8015 43.1629 29.7474 43.4523C29.7401 43.4903 29.7313 43.5283 29.7211 43.5663C29.6144 43.9332 29.3177 44.1422 28.9537 44.2168C28.4641 44.3177 27.9306 44.3074 27.4336 44.3147C27.0974 44.3191 26.7627 44.3147 26.4279 44.2957Z"></path>
<path fill="#FFDB00" d="M20.248 43.1467C20.1647 43.3368 20.2963 43.5472 20.4263 43.708C21.0607 44.5017 21.7959 45.2267 22.6247 45.8158C23.4199 46.3814 24.2998 46.8287 25.228 47.1342C26.0012 47.39 26.7642 47.6268 27.59 47.637C27.6354 47.637 27.6792 47.637 27.7245 47.637C27.7976 47.637 27.8736 47.6326 27.9408 47.6034C28.0081 47.5742 28.068 47.5142 28.0753 47.4412C28.0841 47.3491 28.0125 47.2701 27.9438 47.2088C27.7538 47.0421 27.5418 46.9369 27.3313 46.8053C27.1121 46.6679 26.8972 46.5218 26.6896 46.3668C26.2731 46.0584 25.8799 45.7178 25.5159 45.348C25.4355 45.2662 25.3566 45.1843 25.2791 45.101C25.0745 44.8788 24.8772 44.6479 24.6448 44.4535C24.3875 44.2386 24.1273 44.1319 23.7955 44.0881C23.4973 44.0486 23.2079 44.0062 22.917 43.9287C22.6145 43.8483 22.3192 43.749 22.0254 43.6437C21.6103 43.4946 21.2069 43.3105 20.8225 43.0927C20.6368 42.9874 20.3664 42.8836 20.2524 43.1467H20.248Z"></path>
<path fill="#FFDB00" d="M26.6296 44.6377C26.5258 44.6377 26.4235 44.6348 26.3197 44.6333C26.197 44.6319 26.0537 44.6406 25.985 44.7415C25.9339 44.8175 25.9441 44.9213 25.9879 45.0017C26.0333 45.0864 26.1122 45.1522 26.1707 45.2282C26.2408 45.3218 26.3314 45.4007 26.4162 45.4811C26.5989 45.658 26.7846 45.8319 26.9746 46C27.3517 46.3347 27.7434 46.6504 28.1483 46.9486C28.4363 47.1606 28.7418 47.3667 29.0911 47.4456C29.5764 47.5538 30.0777 47.4003 30.5513 47.2497C30.8173 47.1649 31.1009 47.067 31.2661 46.8405C31.4196 46.63 31.4342 46.3406 31.3523 46.095C31.2705 45.8494 31.1024 45.6389 30.9138 45.4592C30.6273 45.1873 30.2663 44.93 29.8804 44.8321C29.6582 44.7751 29.4507 44.7137 29.2212 44.6918C28.9946 44.6699 28.7681 44.6655 28.54 44.6625C27.9042 44.6538 27.2669 44.645 26.6311 44.6362L26.6296 44.6377Z"></path>
<path fill="#62BB46" d="M38.4255 31.2312C38.3962 31.1435 42.6629 27.4805 46.6299 30.6524C46.6299 30.6524 46.7644 26.1504 40.5215 26.9382C40.5215 26.9382 37.4257 29.6979 37.3877 29.6701C37.3497 29.6423 38.4445 31.2867 38.4255 31.2312Z"></path>
<path fill="#62BB46" d="M38.4912 18.4342C38.4912 18.4342 39.9134 14.8794 43.4858 13.1765C43.4858 13.1765 43.018 16.8059 42.3442 18.9385L38.6111 22.3339L38.4897 18.4327L38.4912 18.4342Z"></path>
<path fill="#00452B" d="M37.0601 18.8639C37.0688 18.7981 37.5366 16.4317 37.0601 15.0372C37.0601 15.0372 39.2117 16.7766 38.893 20.4908C38.893 20.4908 37.3071 21.8691 37.2764 21.7463C37.2457 21.6236 37.0586 18.8639 37.0586 18.8639H37.0601Z"></path>
<path fill="#62BB46" d="M34.533 21.0155C34.5242 20.9687 35.5138 17.4519 34.533 15.7213C34.533 15.7213 38.0133 17.2093 37.6683 21.1471C37.6683 21.1471 35.8529 23.9345 35.8251 23.9725C35.7974 24.0105 34.533 21.017 34.533 21.017V21.0155Z"></path>
<path fill="#62BB46" d="M31.1754 25.7777C31.1754 25.7777 30.3803 21.2027 26.3958 20.6794C26.3958 20.6794 29.8848 18.9488 32.776 22.1674C32.776 22.1674 32.8973 26.4516 32.8608 26.4793C32.8242 26.5071 31.1769 25.7777 31.1769 25.7777H31.1754Z"></path>
<mask height="7" width="7" y="20" x="26" maskUnits="userSpaceOnUse" style="mask-type:luminance" id="mask0_8241_14015">
<path fill="white" d="M31.1754 25.7777C31.1754 25.7777 30.3803 21.2027 26.3958 20.6794C26.3958 20.6794 29.8848 18.9488 32.776 22.1674C32.776 22.1674 32.8973 26.4516 32.8608 26.4793C32.8242 26.5071 31.1769 25.7777 31.1769 25.7777H31.1754Z"></path>
</mask>
<g mask="url(#mask0_8241_14015)">
<path fill="#00452B" d="M32.6503 25.7865C32.5246 24.3205 31.823 22.8807 30.6536 21.9657C29.4653 21.02 27.8954 20.6882 26.3972 20.6882V20.6692C27.1588 20.6356 27.9291 20.6853 28.6789 20.8577C30.6376 21.2685 32.1957 22.6936 32.8111 24.6011C32.9222 24.9271 33.0055 25.2647 33.0581 25.6067C33.0654 25.6579 33.0713 25.7047 33.0771 25.7617L32.6532 25.7865H32.6503Z"></path>
</g>
<path fill="white" d="M29.6888 20.7421C29.68 20.8006 29.7166 20.8576 29.7648 20.8912C29.813 20.9249 29.8715 20.9409 29.9271 20.9599C30.3407 21.0988 30.6696 21.4131 31.0628 21.6031C31.1096 21.625 31.1578 21.6469 31.209 21.6513C31.2601 21.6557 31.3157 21.6425 31.3507 21.606C31.4004 21.5534 31.3975 21.4686 31.3727 21.3999C31.3171 21.2523 31.1797 21.1529 31.0438 21.0725C30.6988 20.8708 30.3173 20.7334 29.9227 20.672C29.8452 20.6603 29.7063 20.6296 29.6903 20.7436L29.6888 20.7421Z"></path>
<path fill="white" d="M31.6664 21.7551C31.6386 21.7858 31.6254 21.8268 31.624 21.8677C31.621 21.9379 31.6532 22.0095 31.7102 22.0504C31.7672 22.0913 31.8476 22.0972 31.9075 22.0621C31.9572 22.0329 31.9894 21.9759 31.9908 21.9174C31.9923 21.8589 31.966 21.8019 31.9236 21.7639C31.8564 21.704 31.7351 21.6835 31.6664 21.7551Z"></path>
<path fill="#00452B" d="M32.6913 25.5628C32.6913 25.5628 33.0933 21.7273 31.1755 18.7616C31.1755 18.7616 34.6646 19.07 35.7316 23.1773L33.8606 27.0128L32.6913 25.5628Z"></path>
<path fill="#00452B" d="M42.6277 21.0243C42.6774 20.9556 44.37 18.3567 46.0597 17.5001C46.0597 17.5001 41.9422 16.8716 39.697 21.3064C39.697 21.3064 39.7029 23.5705 39.8417 23.4843C39.9806 23.398 42.6277 21.0243 42.6277 21.0243Z"></path>
<path fill="#62BB46" d="M39.0159 21.9686C39.0452 21.9408 42.103 18.5088 45.9195 20.5756C45.9195 20.5756 43.113 21.1457 41.4379 25.0381C41.4379 25.0381 37.1348 26.4793 37.1815 26.3668C37.2283 26.2542 39.0159 21.9686 39.0159 21.9686Z"></path>
<path fill="#00452B" d="M38.4416 25.3465C38.4416 25.3465 41.0609 23.0911 45.0922 25.4576C45.0922 25.4576 41.0316 25.9911 38.1141 29.6482C38.1141 29.6482 36.3397 28.5724 36.3806 28.6104C36.4215 28.6484 37.5909 26.4778 37.6274 26.4676C37.6639 26.4574 38.4416 25.345 38.4416 25.345V25.3465Z"></path>
<path fill="#00452B" d="M30.2941 27.8591C30.2941 27.8591 29.4302 28.4145 28.8953 29.8952C28.8953 29.8952 30.3189 29.0621 32.6664 28.9495C35.0124 28.837 34.9305 28.4145 34.8487 28.014L34.2567 26.7701L30.2941 27.8606V27.8591Z"></path>
<path fill="#00452B" d="M34.4729 29.692C34.5211 30.2183 34.7126 30.7225 34.9509 31.1932C35.1906 31.6639 35.4785 32.1082 35.7372 32.5686C35.8717 32.8098 36.0106 33.0583 36.0851 33.3243C36.1597 33.5904 36.2664 33.8198 36.2108 34.1122C36.1933 34.2086 36.1714 34.3329 36.2547 34.3855C36.3073 34.4191 36.376 34.403 36.433 34.3811C36.8306 34.232 37.0981 33.8564 37.2735 33.4705C37.5775 32.8054 37.6769 32.0512 37.5643 31.3306C37.4591 30.6553 37.3188 29.98 37.0294 29.3529C36.7721 28.7975 36.4155 28.2801 35.9492 27.8796C35.6437 27.6179 35.1292 27.6574 34.8675 27.9614C34.8105 28.0287 34.8149 28.0754 34.8062 28.1544C34.7988 28.2231 34.7901 28.2479 34.7506 28.3151C34.6688 28.4525 34.6059 28.6002 34.5591 28.7522C34.467 29.0533 34.4422 29.3749 34.47 29.6877L34.4729 29.692Z"></path>
<path fill="#00452B" d="M37.7122 29.6671C40.1371 28.1733 43.7401 27.213 45.9063 29.6291C46.1884 29.9405 46.4296 30.2854 46.6386 30.6465L46.6211 30.6567C46.3989 30.3044 46.1446 29.9726 45.8552 29.6774C44.2985 28.0725 42.084 28.1338 40.1254 28.891C39.3639 29.1833 38.6257 29.5575 37.9519 30.0165L37.7122 29.6657V29.6671Z"></path>
<path fill="#00452B" d="M35.5342 24.2619C36.2065 22.4976 36.4769 20.4849 36.0677 18.6271C35.9127 17.9474 35.654 17.2941 35.2959 16.6918L35.3354 16.667C35.7958 17.3584 36.1188 18.1433 36.303 18.956C36.629 20.4308 36.5427 21.9744 36.208 23.4404C36.1305 23.7722 36.0443 24.0953 35.9303 24.4183L35.5356 24.2619H35.5342Z"></path>
<path fill="#00452B" d="M37.1743 26.6342C37.1685 26.5801 37.1919 26.5202 37.2152 26.4807C37.2269 26.4588 37.2664 26.3901 37.2795 26.3667C38.8333 23.8453 41.5725 20.7363 44.7064 20.498C44.9256 20.4834 45.1463 20.4819 45.367 20.4951V20.5258C44.9285 20.5156 44.4929 20.5623 44.0691 20.6661C41.3255 21.3487 39.095 24.0835 37.7224 26.4339C37.6947 26.4865 37.6172 26.621 37.5909 26.6766L37.5836 26.6912V26.6956C37.5836 26.6956 37.5777 26.7072 37.5894 26.6736C37.5967 26.6488 37.5982 26.6225 37.5953 26.5991L37.1714 26.6371L37.1743 26.6342Z"></path>
<path fill="#00452B" d="M38.1594 22.8309C38.7426 20.9834 39.5173 19.1987 40.444 17.4987C41.1705 16.1861 42.0066 14.9247 43.0049 13.8021L43.04 13.8328C42.7696 14.1632 42.5079 14.5008 42.2638 14.8501C41.7742 15.5459 41.3283 16.2797 40.9278 17.0295C40.026 18.7192 39.3039 20.5039 38.7426 22.334C38.6812 22.5357 38.6213 22.7418 38.5687 22.942L38.1594 22.8295V22.8309Z"></path>
<path fill="#62BB46" d="M30.5543 28.1938C31.4167 28.1339 32.2791 28.283 33.1298 28.4364C33.3593 28.4774 33.6004 28.5198 33.8197 28.4452C34.0316 28.3736 34.2027 28.1938 34.2743 27.9804C34.3459 27.767 34.3181 27.5258 34.2114 27.3285C34.0901 27.1049 33.8796 26.9455 33.7232 26.7467C33.4747 26.4296 33.3636 26.0159 33.0845 25.725C32.8345 25.4648 32.4706 25.3333 32.111 25.3114C31.7514 25.2894 31.3918 25.3728 31.0498 25.4897C29.7343 25.9399 28.6234 26.9221 27.9423 28.1339C27.7493 28.4788 27.5856 28.8472 27.5155 29.2345C27.5008 29.3135 27.5929 29.3675 27.6558 29.3164C27.7596 29.2301 27.8619 29.1454 27.9774 29.0694C28.1645 28.9466 28.3589 28.834 28.5591 28.7361C28.9596 28.5373 29.3864 28.3897 29.8235 28.2961C30.0661 28.245 30.3117 28.2084 30.5587 28.1923L30.5543 28.1938Z"></path>
<mask height="5" width="8" y="25" x="27" maskUnits="userSpaceOnUse" style="mask-type:luminance" id="mask1_8241_14015">
<path fill="white" d="M30.5543 28.1938C31.4167 28.1339 32.2791 28.283 33.1298 28.4364C33.3593 28.4774 33.6004 28.5198 33.8197 28.4452C34.0316 28.3736 34.2027 28.1938 34.2743 27.9804C34.3459 27.767 34.3181 27.5258 34.2114 27.3285C34.0901 27.1049 33.8796 26.9455 33.7232 26.7467C33.4747 26.4296 33.3636 26.0159 33.0845 25.725C32.8345 25.4648 32.4706 25.3333 32.111 25.3114C31.7514 25.2894 31.3918 25.3728 31.0498 25.4897C29.7343 25.9399 28.6234 26.9221 27.9423 28.1339C27.7493 28.4788 27.5856 28.8472 27.5155 29.2345C27.5008 29.3135 27.5929 29.3675 27.6558 29.3164C27.7596 29.2301 27.8619 29.1454 27.9774 29.0694C28.1645 28.9466 28.3589 28.834 28.5591 28.7361C28.9596 28.5373 29.3864 28.3897 29.8235 28.2961C30.0661 28.245 30.3117 28.2084 30.5587 28.1923L30.5543 28.1938Z"></path>
</mask>
<g mask="url(#mask1_8241_14015)">
<path fill="#00452B" d="M33.8269 26.814C32.6795 26.2717 31.2967 26.3638 30.1669 26.9177C29.4623 27.2627 28.8426 27.7567 28.3047 28.3297C29.2986 27.0771 30.7574 26.1167 32.4018 26.1065C32.9353 26.1007 33.479 26.1781 33.9804 26.3696C33.995 26.3755 34.0228 26.3872 34.0359 26.393L33.8269 26.814Z"></path>
</g>
<path fill="#62BB46" d="M33.6633 27.0683C33.6633 27.0683 33.6911 23.3732 39.1359 19.9397C39.1359 19.9397 39.7907 26.5348 36.7314 28.9948C36.7314 28.9948 35.8807 28.0973 35.0198 28.2377C35.0198 28.2377 34.8049 27.5083 33.6633 27.0683Z"></path>
<mask height="10" width="7" y="19" x="33" maskUnits="userSpaceOnUse" style="mask-type:luminance" id="mask2_8241_14015">
<path fill="white" d="M33.6633 27.0683C33.6633 27.0683 33.6911 23.3732 39.1359 19.9397C39.1359 19.9397 39.7907 26.5348 36.7314 28.9948C36.7314 28.9948 35.8807 28.0973 35.0198 28.2377C35.0198 28.2377 34.8049 27.5083 33.6633 27.0683Z"></path>
</mask>
<g mask="url(#mask2_8241_14015)">
<path fill="#00452B" d="M34.8284 28.1485C35.8442 26.105 36.8718 24.066 37.9754 22.0679C38.1902 21.6849 38.4066 21.3019 38.6419 20.9321L38.7837 20.71L38.8188 20.7319L38.6872 20.9584C38.0485 22.1029 37.4989 23.3059 36.9405 24.4913C36.3529 25.7645 35.7755 27.0434 35.2128 28.3253L34.8269 28.1455L34.8284 28.1485Z"></path>
</g>
<path fill="white" d="M41.5445 27.1736C41.4992 27.2306 41.4758 27.3066 41.4919 27.3768C41.5109 27.4645 41.5825 27.5317 41.6658 27.5668C41.7477 27.6004 41.8398 27.6048 41.9289 27.6018C42.1116 27.5945 42.2914 27.558 42.4741 27.5492C42.6568 27.5405 42.8381 27.5595 43.0208 27.5785C43.3219 27.6106 43.6274 27.6442 43.908 27.7568C43.9651 27.7802 44.0264 27.8065 44.0849 27.786C44.1712 27.7568 44.1916 27.6355 44.1478 27.5565C44.1039 27.4776 44.0177 27.4323 43.9358 27.3958C43.3818 27.1502 42.765 27.0961 42.1613 27.0566C41.9742 27.0449 41.6804 27.0084 41.5474 27.1736H41.5445Z"></path>
<path fill="white" d="M44.497 27.8635C44.5072 27.9263 44.5628 27.9775 44.6242 27.9892C44.668 27.9979 44.7177 27.9892 44.7484 27.9556C44.7864 27.9132 44.7806 27.843 44.7484 27.7977C44.7192 27.7568 44.6446 27.6998 44.5905 27.7144C44.5306 27.7305 44.4882 27.8035 44.497 27.8635Z"></path>
<path fill="white" d="M39.8885 16.5544C39.7423 16.7517 39.5976 16.9593 39.545 17.199C39.5304 17.2692 39.523 17.3422 39.5391 17.4109C39.5552 17.4796 39.5976 17.5469 39.6619 17.579C39.7481 17.6229 39.8548 17.5966 39.9338 17.5396C40.0127 17.4826 40.0653 17.4007 40.118 17.3203C40.2524 17.1157 40.3854 16.9096 40.5199 16.7049C40.7041 16.4214 40.8897 16.1378 41.0739 15.8557C41.2551 15.578 41.4583 15.3061 41.6206 15.0167C41.6703 14.9275 41.6483 14.8018 41.5226 14.7945C41.3969 14.7872 41.2727 14.9641 41.1952 15.0416C40.9716 15.2652 40.7567 15.4961 40.5491 15.7329C40.3182 15.9975 40.099 16.2708 39.8885 16.5529V16.5544Z"></path>
<path fill="white" d="M41.9917 14.28C41.9581 14.2888 41.9304 14.3122 41.907 14.3385C41.8807 14.3692 41.8602 14.4072 41.8573 14.4467C41.8543 14.4861 41.8704 14.53 41.9026 14.5534C41.9304 14.5724 41.9654 14.5753 41.9976 14.5694C42.0561 14.5577 42.1072 14.5139 42.1277 14.4569C42.1438 14.4116 42.1423 14.3429 42.1101 14.3034C42.0853 14.2742 42.0239 14.2698 41.9917 14.2786V14.28Z"></path>
<path fill="white" d="M46.4046 34.6939C44.3582 34.9775 44.1901 35.207 43.9811 37.9813C43.7721 35.207 43.6025 34.976 41.5576 34.6939C43.604 34.4104 43.7721 34.1809 43.9811 31.4066C44.1901 34.1809 44.3597 34.4118 46.4046 34.6939Z"></path>
<path fill="white" d="M26.5391 23.3469C24.4927 23.6305 24.3246 23.8599 24.1156 26.6342C23.9066 23.8599 23.737 23.629 21.6921 23.3469C23.7385 23.0633 23.9066 22.8338 24.1156 20.0596C24.3246 22.8338 24.4942 23.0648 26.5391 23.3469Z"></path>
<path fill="white" d="M18.0247 42.8925C15.9783 43.1761 15.8102 43.4056 15.6012 46.1799C15.3922 43.4056 15.2226 43.1747 13.1777 42.8925C15.2241 42.609 15.3922 42.3795 15.6012 39.6052C15.8102 42.3795 15.9798 42.6104 18.0247 42.8925Z"></path>
<path fill="white" d="M20.625 32.9793C20.5022 33.0436 20.4189 33.162 20.3414 33.2761C19.9804 33.8037 19.612 34.3504 19.479 34.976C19.4483 35.1192 19.4454 35.2976 19.5682 35.3765C19.6632 35.4379 19.7962 35.4028 19.8795 35.3268C19.9628 35.2508 20.0081 35.1426 20.0491 35.0359C20.2025 34.6369 20.3326 34.2188 20.5957 33.8812C20.6937 33.7555 20.8091 33.6429 20.8983 33.5099C20.9699 33.4032 21.0854 33.1884 21.0182 33.0553C20.9509 32.9223 20.739 32.9179 20.625 32.9779V32.9793Z"></path>
<path fill="white" d="M22.531 31.2093C22.4404 31.3116 22.4302 31.4885 22.5296 31.5835C22.6027 31.6537 22.7196 31.6668 22.8117 31.6259C22.9038 31.585 22.9695 31.4944 22.9915 31.395C23.066 31.0661 22.7254 30.9901 22.531 31.2093Z"></path>
<path fill="white" d="M23.1274 30.5603C23.1274 30.4214 23.1961 30.2914 23.2648 30.17C23.6376 29.5123 24.1009 28.9013 24.6739 28.4073C24.8464 28.2582 25.0496 28.1135 25.2776 28.1164C25.3828 28.1178 25.4968 28.1588 25.5509 28.2509C25.6284 28.3795 25.5611 28.5446 25.4778 28.6704C25.0612 29.3033 24.2997 29.6351 23.8612 30.2519C23.734 30.4302 23.639 30.6407 23.4826 30.7971C23.3116 30.9681 23.1274 30.7518 23.1289 30.5588L23.1274 30.5603Z"></path>
<path fill="#00452B" d="M24.6359 37.4244C24.6943 37.4054 24.7513 37.382 24.8025 37.3513C24.8229 37.3381 24.8434 37.325 24.8639 37.3104C24.8843 37.2958 24.9019 37.2826 24.918 37.2651C24.9223 37.2607 24.9267 37.2563 24.9311 37.2519C24.9326 37.2504 24.9355 37.2475 24.937 37.2461C24.9501 37.2329 24.9603 37.2183 24.9662 37.2007C24.9706 37.1949 24.9735 37.1876 24.9735 37.1803C24.9808 37.1554 24.9808 37.1306 24.9735 37.1072C24.9691 37.0897 24.9603 37.0736 24.9487 37.0604C24.9238 37.0283 24.8814 37.002 24.839 37.0063C24.8127 37.0093 24.7879 37.0107 24.7645 37.0253C24.7528 37.0326 24.7411 37.0429 24.7309 37.0517C24.725 37.056 24.7192 37.0619 24.7119 37.0663L24.7411 37.0443C24.7148 37.0648 24.6885 37.0853 24.6622 37.1057L24.6914 37.0838C24.6417 37.1218 24.5876 37.1569 24.5306 37.1847C24.5028 37.1978 24.4765 37.2344 24.4692 37.2636C24.4619 37.2928 24.4634 37.3221 24.4765 37.3498C24.4868 37.3747 24.5058 37.3995 24.5306 37.4141C24.5613 37.4302 24.5993 37.439 24.6329 37.4273L24.6359 37.4244Z"></path>
<path fill="#00452B" d="M24.8009 37.8044C24.8404 37.8453 24.9193 37.8453 24.969 37.8293C25.0129 37.8146 25.0538 37.7956 25.0932 37.7708C25.1327 37.7459 25.1693 37.7182 25.2043 37.6875C25.2175 37.6758 25.2306 37.6641 25.2453 37.6509C25.2526 37.6436 25.2599 37.6378 25.2672 37.6305C25.2964 37.6027 25.3081 37.5676 25.311 37.5282C25.314 37.4975 25.295 37.4565 25.273 37.4361C25.2482 37.4127 25.216 37.3981 25.1809 37.3981C25.14 37.3981 25.1064 37.4141 25.0772 37.4419C25.0684 37.4492 25.0611 37.4565 25.0523 37.4638C25.0362 37.4785 25.0216 37.4916 25.0055 37.5062C24.9734 37.534 24.9427 37.5618 24.9105 37.5881L24.9368 37.5676C24.9149 37.5852 24.8915 37.6012 24.8696 37.6188L24.8945 37.5998C24.8696 37.6188 24.8433 37.6363 24.8214 37.6597C24.8126 37.6685 24.8068 37.6787 24.7994 37.6875C24.7951 37.6933 24.798 37.6904 24.8068 37.6773C24.8038 37.6816 24.7994 37.686 24.7965 37.6904C24.7702 37.724 24.7717 37.7723 24.8009 37.803V37.8044Z"></path>
<path fill="#00452B" d="M25.0875 38.2444C25.108 38.259 25.1402 38.2604 25.165 38.2604C25.1957 38.2604 25.2235 38.2458 25.2513 38.2327C25.2761 38.221 25.301 38.2064 25.3258 38.1917C25.3565 38.1727 25.3843 38.1479 25.412 38.1245C25.434 38.1055 25.453 38.0865 25.4734 38.066C25.4954 38.0427 25.51 38.012 25.51 37.9783C25.51 37.9476 25.4968 37.9126 25.4734 37.8906C25.45 37.8687 25.4193 37.8526 25.3857 37.8541C25.3521 37.8556 25.3214 37.8658 25.298 37.8906C25.2659 37.9243 25.2323 37.955 25.1957 37.9842L25.2206 37.9652C25.1928 37.9856 25.1679 38.0076 25.1402 38.0295L25.165 38.0105C25.1431 38.0266 25.1197 38.0412 25.0992 38.0587C25.0817 38.0719 25.07 38.0909 25.0569 38.1099C25.0466 38.1274 25.0408 38.145 25.0408 38.164C25.0408 38.1815 25.0452 38.1976 25.0539 38.2122C25.0627 38.2268 25.0729 38.2371 25.0875 38.2458V38.2444Z"></path>
<path fill="#00452B" d="M35.0313 33.0319C34.9918 33.0275 34.9626 33.0568 34.9421 33.086C34.9363 33.0948 34.9304 33.105 34.9246 33.1138C34.9144 33.1313 34.9027 33.1489 34.8924 33.1664C34.8778 33.1913 34.8676 33.222 34.8574 33.2497C34.8486 33.2702 34.8384 33.2921 34.8325 33.3126C34.8237 33.3462 34.8281 33.3842 34.8457 33.4149C34.8617 33.4427 34.8924 33.469 34.9246 33.4748C34.9582 33.4821 34.9962 33.4807 35.0269 33.4617L35.0532 33.4412C35.0693 33.4251 35.081 33.4047 35.0868 33.3827C35.0941 33.3623 35.0971 33.3389 35.1029 33.317C35.1102 33.2863 35.1175 33.2556 35.119 33.2234C35.119 33.2015 35.1219 33.181 35.1219 33.1591C35.1219 33.1489 35.1234 33.1372 35.1219 33.1269C35.1205 33.1021 35.1132 33.0787 35.0942 33.0597C35.0751 33.0407 35.0547 33.0349 35.0284 33.0319H35.0313Z"></path>
<path fill="#00452B" d="M34.533 32.9311C34.533 32.9311 34.5228 32.937 34.5184 32.9413L34.5388 32.9326C34.5184 32.9413 34.5038 32.9486 34.4877 32.9633L34.5067 32.9486C34.4833 32.9603 34.4628 32.9823 34.4453 33.0027C34.4234 33.0247 34.4044 33.0495 34.3883 33.0758C34.3766 33.0948 34.3649 33.1138 34.3547 33.1328C34.3371 33.1708 34.3079 33.2147 34.3137 33.2571C34.3137 33.2834 34.3211 33.3068 34.3328 33.3287C34.3459 33.3506 34.362 33.3667 34.3839 33.3798C34.4248 33.4032 34.4877 33.4091 34.5286 33.3798C34.552 33.3638 34.5695 33.3477 34.5842 33.3243C34.5915 33.3126 34.5973 33.2936 34.6032 33.279L34.6149 33.2483C34.6236 33.2264 34.6295 33.2044 34.6353 33.1825C34.6441 33.1518 34.647 33.1211 34.6485 33.0904C34.6499 33.0627 34.6529 33.0334 34.6441 33.0057L34.647 33.0305C34.647 33.013 34.6426 32.9925 34.6382 32.975C34.628 32.9282 34.5695 32.9077 34.5301 32.9311H34.533Z"></path>
<path fill="#00452B" d="M34.1368 32.7981C34.1018 32.7981 34.0681 32.8171 34.0375 32.8332C34.0111 32.8478 33.9892 32.8712 33.9688 32.8916C33.9483 32.9121 33.9278 32.937 33.9103 32.9618C33.9044 32.9691 33.8986 32.9779 33.8927 32.9852C33.8796 33.0042 33.8708 33.0203 33.8635 33.0437L33.8577 33.0831C33.8577 33.1036 33.8606 33.1226 33.8708 33.1401C33.8737 33.1533 33.8811 33.1635 33.8898 33.1723C33.9001 33.1884 33.9147 33.2015 33.9308 33.2103C33.9541 33.222 33.979 33.2293 34.0053 33.2308C34.0433 33.2322 34.0828 33.2132 34.1105 33.1869C34.1325 33.1664 34.1471 33.1372 34.1646 33.1109C34.1763 33.0948 34.1851 33.0787 34.1939 33.0612C34.2085 33.0349 34.2231 33.01 34.2319 32.9808C34.2348 32.9735 34.2362 32.9647 34.2392 32.9574C34.2392 32.953 34.2421 32.9486 34.2435 32.9443C34.2509 32.9194 34.2479 32.9033 34.2435 32.8785L34.2319 32.8522C34.2245 32.839 34.2158 32.8288 34.2026 32.8215C34.1836 32.8069 34.1602 32.7981 34.1354 32.7981H34.1368Z"></path>
<path fill="#00452B" d="M29.5296 47.6371C29.5296 47.6371 25.7804 43.3266 28.4684 38.4417L29.4551 44.2942C29.4551 44.2942 31.8873 47.5333 31.9151 47.5757C31.9429 47.6181 29.5296 47.6371 29.5296 47.6371Z"></path>
<path fill="#00452B" d="M34.3371 40.3477C34.3371 40.3477 34.0112 37.4916 35.3516 34.3884L36.154 40.4062L34.3371 40.3477Z"></path>
<path fill="#62BB46" d="M49.1935 45.123C49.1935 45.123 37.1638 32.8668 37.1594 32.8624C37.1404 32.8434 36.9256 32.9428 36.9051 32.9501C36.6961 33.0334 36.4944 33.1343 36.3029 33.2541C35.6086 33.6882 35.1146 34.4571 35.1599 35.2976C35.1657 35.3955 35.1774 35.4934 35.1949 35.5884C35.2534 35.9042 35.3937 36.1994 35.5063 36.4991C35.6276 36.8177 35.7358 37.1437 35.7869 37.4828C35.9667 38.6697 35.5501 42.413 38.3595 45.5001C41.1674 48.5872 45.0613 49.7974 49.1935 45.1244V45.123Z"></path>
<mask height="17" width="15" y="32" x="35" maskUnits="userSpaceOnUse" style="mask-type:luminance" id="mask3_8241_14015">
<path fill="white" d="M49.1935 45.123C49.1935 45.123 37.1638 32.8668 37.1594 32.8624C37.1404 32.8434 36.9256 32.9428 36.9051 32.9501C36.6961 33.0334 36.4944 33.1343 36.3029 33.2541C35.6086 33.6882 35.1146 34.4571 35.1599 35.2976C35.1657 35.3955 35.1774 35.4934 35.1949 35.5884C35.2534 35.9042 35.3937 36.1994 35.5063 36.4991C35.6276 36.8177 35.7358 37.1437 35.7869 37.4828C35.9667 38.6697 35.5501 42.413 38.3595 45.5001C41.1674 48.5872 45.0613 49.7974 49.1935 45.1244V45.123Z"></path>
</mask>
<g mask="url(#mask3_8241_14015)">
<path fill="white" d="M49.0854 45.0134C49.0854 45.0134 46.2541 48.0931 43.0019 47.5582C39.7497 47.0232 37.3627 43.9902 36.5646 40.7029C36.0326 38.5104 36.7941 38.4007 35.7929 36.1439C34.7916 33.8856 37.1581 32.8624 37.1581 32.8624L49.0854 45.0134Z"></path>
<path fill="#EE4794" d="M49.0051 44.6757C49.0051 44.6757 44.794 48.6281 41.2173 46.459C37.6406 44.2898 36.822 40.8359 36.8396 38.9372C36.8615 36.6409 35.4802 35.3151 36.2841 34.0595C37.0895 32.8039 37.8481 32.9296 37.8481 32.9296L49.0037 44.6772L49.0051 44.6757Z"></path>
</g>
<path fill="white" d="M41.2887 41.9686C41.2449 41.9906 41.2142 42.03 41.1879 42.0724C41.1338 42.1587 41.0972 42.2581 41.0812 42.3589C41.0724 42.4159 41.0709 42.4773 41.0899 42.5314C41.1089 42.5855 41.1513 42.6352 41.2083 42.6512C41.258 42.6644 41.3136 42.6498 41.356 42.6191C41.3983 42.5884 41.429 42.5445 41.4524 42.4978C41.5051 42.3911 41.5211 42.2668 41.4992 42.1484C41.4802 42.0432 41.4261 41.8999 41.2887 41.9686Z"></path>
<path fill="white" d="M42.4669 43.8952C42.3953 43.9888 42.3573 44.1086 42.3617 44.2256C42.3631 44.2709 42.3719 44.3176 42.3953 44.3556C42.4187 44.3936 42.4581 44.4258 42.5035 44.4302C42.5619 44.436 42.6145 44.3966 42.654 44.3527C42.7286 44.2694 42.7695 44.1598 42.7753 44.0501C42.7812 43.9508 42.768 43.806 42.6438 43.8002C42.5678 43.7973 42.5122 43.8367 42.4669 43.8937V43.8952Z"></path>
<path fill="white" d="M43.0589 41.6062C43.0531 41.6662 43.0545 41.7305 43.0823 41.7846C43.1101 41.8386 43.1656 41.881 43.227 41.8781C43.306 41.8737 43.3615 41.7977 43.3893 41.7232C43.4404 41.5902 43.439 41.4381 43.3893 41.3051C43.3717 41.2584 43.3425 41.1736 43.2782 41.1882C43.2168 41.2028 43.1656 41.3037 43.1379 41.3534C43.0955 41.4308 43.0677 41.5171 43.0589 41.6048V41.6062Z"></path>
<path fill="white" d="M39.5669 39.1682C39.5157 39.1872 39.466 39.2149 39.4339 39.2588C39.4017 39.3026 39.39 39.3655 39.4163 39.4123C39.4514 39.4737 39.5347 39.4883 39.6049 39.481C39.7321 39.4678 39.8534 39.4064 39.9396 39.3129C39.9703 39.2807 40.0273 39.2222 39.9879 39.1769C39.9513 39.1345 39.8505 39.1331 39.7993 39.1316C39.7204 39.1287 39.64 39.1419 39.5654 39.1696L39.5669 39.1682Z"></path>
<path fill="white" d="M41.188 39.0995C41.1368 39.117 41.0857 39.1418 41.0506 39.1842C41.0155 39.2266 41.0024 39.288 41.0272 39.3363C41.0594 39.3991 41.1427 39.4166 41.2129 39.4123C41.34 39.405 41.4643 39.3479 41.5549 39.2588C41.587 39.2281 41.6455 39.1725 41.609 39.1243C41.5754 39.0805 41.473 39.0746 41.4219 39.0702C41.3429 39.0644 41.2626 39.0731 41.1865 39.098L41.188 39.0995Z"></path>
<path fill="white" d="M42.2067 40.7189C42.1862 40.7701 42.1716 40.8242 42.1818 40.8782C42.192 40.9323 42.2301 40.9835 42.2827 40.9952C42.3514 41.0112 42.4186 40.9601 42.461 40.9031C42.5385 40.8008 42.575 40.6707 42.5662 40.5435C42.5633 40.4997 42.5589 40.4178 42.499 40.4149C42.4435 40.412 42.3733 40.485 42.3368 40.5216C42.2812 40.5771 42.2359 40.6444 42.2052 40.7189H42.2067Z"></path>
<path fill="white" d="M43.5777 42.8603C43.5646 42.9129 43.5602 42.9699 43.5777 43.0211C43.5953 43.0722 43.6406 43.1175 43.6947 43.1219C43.7648 43.1278 43.8233 43.0664 43.8569 43.0035C43.9183 42.891 43.9344 42.7565 43.9066 42.6323C43.8964 42.5884 43.8803 42.5095 43.8204 42.5153C43.7648 42.5212 43.7064 42.6045 43.6771 42.6454C43.6304 42.7097 43.5953 42.7828 43.5777 42.8603Z"></path>
<path fill="white" d="M40.2613 38.2487C40.2131 38.2429 40.1634 38.2443 40.1195 38.2648C40.0757 38.2853 40.042 38.3291 40.0435 38.3773C40.0464 38.4402 40.1049 38.4855 40.1634 38.5089C40.2686 38.5513 40.387 38.5527 40.4937 38.5162C40.5302 38.503 40.5989 38.4811 40.5872 38.43C40.577 38.3817 40.4981 38.3393 40.4586 38.3174C40.3972 38.2823 40.33 38.2604 40.2613 38.2516V38.2487Z"></path>
<path fill="white" d="M41.3619 40.6064C41.3195 40.6166 41.283 40.6444 41.2508 40.6736C41.1675 40.7482 41.1003 40.8417 41.0535 40.9426C41.0287 40.9981 41.0097 41.0581 41.017 41.118C41.0243 41.1779 41.0652 41.2378 41.1237 41.251C41.1894 41.2671 41.2552 41.2232 41.3035 41.1735C41.3926 41.0829 41.454 40.9645 41.4789 40.8388C41.4979 40.7409 41.5212 40.5669 41.3619 40.6035V40.6064Z"></path>
<path fill="white" d="M39.6868 41.786C39.5319 41.8401 39.4018 41.9556 39.3287 42.1032C39.3053 42.15 39.2878 42.2012 39.2936 42.2538C39.2995 42.3064 39.3302 42.3576 39.3784 42.3751C39.4281 42.3926 39.4807 42.3722 39.5275 42.3473C39.6327 42.2889 39.7219 42.2026 39.7847 42.1003C39.8227 42.0404 39.9221 41.8723 39.8622 41.8036C39.8198 41.7553 39.7394 41.77 39.6868 41.7875V41.786Z"></path>
<path fill="#EE4794" d="M29.8264 36.6322C29.9886 36.714 30.1494 36.7973 30.3116 36.8792C30.7399 37.097 31.1682 37.3148 31.5965 37.5326C32.206 37.8424 32.8155 38.1523 33.4236 38.4607C34.1281 38.8188 34.8341 39.177 35.5386 39.5351C36.2534 39.899 36.9696 40.2615 37.6844 40.6255C38.3246 40.9514 38.9648 41.2759 39.605 41.6019C40.0859 41.846 40.5653 42.0901 41.0462 42.3342C41.3868 42.5067 41.8589 42.7873 42.1951 42.9671C42.296 43.0212 42.3968 43.0753 42.4816 43.1527C42.5781 43.2419 42.6365 43.3632 42.638 43.4977C42.6409 43.8602 42.3617 44.2782 42.1878 44.5823C41.2889 46.1594 39.8798 47.4603 38.1886 48.14C36.3805 48.8664 34.2903 48.8723 32.4822 48.1458C31.8026 47.8725 31.1653 47.4968 30.6011 47.0291C28.277 45.1026 27.4278 41.9161 28.2668 39.0454C28.3267 38.8408 28.3939 38.6391 28.4699 38.4388C28.714 37.7913 29.0473 37.1759 29.4756 36.6307C29.4756 36.6307 29.4756 36.6307 29.4756 36.6292C29.4756 36.6292 29.5238 36.4758 29.8264 36.6292V36.6322Z"></path>
<path fill="white" d="M30.0588 36.7506C30.0588 36.7506 29.8644 36.5912 29.6495 36.9698C28.7375 38.5747 28.4349 40.5509 28.8062 42.359C29.1672 44.1131 30.3745 45.4651 31.9254 46.288C33.656 47.206 35.8383 47.5422 37.7136 46.8873C38.5366 46.6008 39.2879 46.1302 39.9354 45.5484C40.5844 44.9637 41.2392 44.2607 41.6646 43.4933C41.7157 43.4012 41.7683 43.3062 41.8064 43.2083C41.8064 43.2083 41.9818 42.8575 41.6821 42.6718L30.0574 36.7491L30.0588 36.7506Z"></path>
<path fill="#FFDB00" d="M30.7237 37.0897C30.4299 36.9669 30.028 37.1934 29.9491 37.5018C29.8994 37.6962 29.9505 37.9228 29.8321 38.0851C29.7327 38.221 29.5354 38.2722 29.4682 38.4256C29.3819 38.6215 29.5617 38.8481 29.5105 39.0571C29.4667 39.2369 29.2606 39.3509 29.2431 39.535C29.2255 39.7104 29.3863 39.8683 29.3629 40.0422C29.3381 40.2235 29.1261 40.3346 29.0984 40.5158C29.0618 40.7629 29.3834 40.9456 29.3717 41.1955C29.3629 41.3724 29.1861 41.5098 29.189 41.6866C29.1919 41.9205 29.4915 42.0418 29.5602 42.264C29.6275 42.4803 29.4609 42.7317 29.5617 42.9349C29.6406 43.0928 29.8526 43.1483 29.9344 43.3033C29.9841 43.3968 29.9783 43.5094 29.9695 43.6161C29.9534 43.8236 29.9461 44.0268 30.1756 44.1057C30.2823 44.1423 30.4066 44.1627 30.4767 44.2504C30.5849 44.3864 30.5118 44.6144 30.6331 44.7386C30.7208 44.8292 30.8699 44.8088 30.9605 44.8863C31.0497 44.9623 31.0658 45.1304 31.1316 45.2298C31.2032 45.3379 31.3128 45.4271 31.4414 45.4446C31.5423 45.4578 31.649 45.4271 31.7469 45.4549C32.0013 45.5279 32.0334 45.8568 32.3301 45.8597C32.4514 45.8597 32.5742 45.8071 32.6897 45.8451C32.89 45.9094 32.928 46.193 33.1077 46.3026C33.3562 46.4532 33.6646 46.1915 33.9424 46.2851C34.1134 46.3421 34.2201 46.538 34.3969 46.5657C34.5665 46.592 34.7127 46.4546 34.8764 46.4006C35.0006 46.3596 35.2067 46.3655 35.309 46.4619C35.4114 46.5584 35.4347 46.6783 35.6072 46.6593C35.7373 46.6447 35.8469 46.5584 35.9507 46.4795C36.0545 46.4006 36.1729 46.3216 36.3044 46.3246C36.4638 46.3289 36.6099 46.459 36.7678 46.4327C36.9447 46.4035 37.0484 46.193 37.2253 46.1638C37.4212 46.1301 37.6097 46.3362 37.7997 46.2792C37.9912 46.2208 38.0307 45.946 38.2075 45.8539C38.38 45.7633 38.6124 45.8846 38.7791 45.7837C38.9501 45.6799 38.9428 45.4154 39.0933 45.2838C39.2746 45.126 39.5903 45.2327 39.7686 45.0719C39.9572 44.9023 39.868 44.5457 40.0683 44.3907C40.2437 44.2563 40.5506 44.3527 40.6749 44.17C40.764 44.0399 40.6895 43.8528 40.7553 43.7111C40.8386 43.5327 41.0491 43.4889 41.1923 43.3778C41.2698 43.3179 41.3341 43.2346 41.3516 43.1381C41.3735 43.0226 41.3268 42.9071 41.2888 42.7946C41.2508 42.682 41.223 42.5563 41.2771 42.4511L30.7208 37.094L30.7237 37.0897Z"></path>
<path fill="#00452B" d="M35.5239 43.6818C35.4786 43.7315 35.4596 43.7987 35.4465 43.8659C35.4202 44.0048 35.4231 44.1495 35.4552 44.2869C35.4728 44.3658 35.502 44.4433 35.5546 44.5047C35.6073 44.5661 35.6862 44.607 35.7666 44.5983C35.8382 44.5895 35.9011 44.5427 35.9391 44.4828C35.9771 44.4228 35.9946 44.3498 36.0004 44.2781C36.0151 44.1144 35.9712 43.9463 35.885 43.8075C35.806 43.6818 35.6643 43.5254 35.5239 43.6832V43.6818Z"></path>
<path fill="#00452B" d="M37.0631 44.496C37.0602 44.6582 37.1172 44.8219 37.2195 44.9476C37.259 44.9959 37.3057 45.0412 37.3642 45.0646C37.4227 45.088 37.4914 45.0909 37.5455 45.0573C37.6141 45.0149 37.6419 44.9286 37.6492 44.8482C37.6624 44.6962 37.6185 44.5398 37.5352 44.4127C37.4592 44.2987 37.3262 44.1481 37.1844 44.2446C37.0982 44.303 37.0689 44.3922 37.066 44.4931L37.0631 44.496Z"></path>
<path fill="#00452B" d="M37.9035 43.1687C37.9605 43.2301 38.0277 43.2857 38.1081 43.3076C38.1885 43.3295 38.285 43.3105 38.3376 43.2448C38.4049 43.1585 38.3771 43.0328 38.3274 42.9363C38.2368 42.7624 38.0789 42.625 37.8962 42.5534C37.8319 42.5285 37.7179 42.4803 37.674 42.5621C37.6331 42.6382 37.6901 42.7829 37.7164 42.8574C37.7573 42.9714 37.8216 43.0781 37.9035 43.1687Z"></path>
<path fill="#00452B" d="M30.5455 42.3005C30.49 42.3517 30.4403 42.4116 30.4198 42.4847C30.3994 42.5578 30.4169 42.644 30.4754 42.6908C30.5514 42.7522 30.6654 42.7273 30.7531 42.6835C30.9095 42.6031 31.0337 42.4628 31.098 42.2991C31.1214 42.2421 31.1638 42.1397 31.0907 42.1003C31.0235 42.0637 30.892 42.1134 30.8262 42.1368C30.7239 42.1734 30.6274 42.2304 30.5455 42.3035V42.3005Z"></path>
<path fill="#00452B" d="M33.1838 39.7412C33.1107 39.7558 33.0362 39.7836 32.9821 39.8347C32.928 39.8859 32.8988 39.9692 32.9251 40.0394C32.9602 40.1314 33.0698 40.168 33.1677 40.1738C33.3431 40.1841 33.5214 40.1256 33.6603 40.0174C33.7085 39.9794 33.7977 39.9136 33.7553 39.842C33.7159 39.7763 33.577 39.7529 33.5083 39.7382C33.4016 39.7178 33.289 39.7178 33.1823 39.7382L33.1838 39.7412Z"></path>
<path fill="#00452B" d="M36.0676 41.6121C36.0676 41.6867 36.0764 41.7656 36.1173 41.8285C36.1583 41.8913 36.2313 41.9381 36.3059 41.9279C36.4024 41.9132 36.4623 41.8139 36.4886 41.7188C36.5354 41.5493 36.5164 41.3637 36.4404 41.2043C36.414 41.1488 36.3673 41.0479 36.2898 41.0742C36.2167 41.0991 36.1641 41.2292 36.1363 41.2935C36.0925 41.3944 36.0691 41.5025 36.0676 41.6121Z"></path>
<path fill="#00452B" d="M39.6356 43.1892C39.6956 43.2345 39.7657 43.2711 39.8403 43.2769C39.9148 43.2828 39.9967 43.2492 40.0317 43.1819C40.0771 43.0957 40.0317 42.9875 39.9704 42.9115C39.8607 42.7741 39.6985 42.6791 39.526 42.6484C39.4661 42.6367 39.3565 42.6148 39.3316 42.6937C39.3082 42.7668 39.3828 42.8867 39.4193 42.9466C39.4748 43.0401 39.5494 43.1234 39.6371 43.1892H39.6356Z"></path>
<path fill="#00452B" d="M30.7266 37.6275C30.6623 37.61 30.5936 37.6012 30.5307 37.6217C30.4679 37.6422 30.4109 37.6948 30.405 37.7606C30.3963 37.8468 30.4679 37.9199 30.5424 37.9623C30.6769 38.0397 30.8406 38.0646 30.9926 38.0354C31.0452 38.0251 31.1432 38.0076 31.1373 37.9345C31.1315 37.8673 31.0336 37.7927 30.9839 37.7547C30.9078 37.6962 30.8201 37.6509 30.7266 37.6261V37.6275Z"></path>
<path fill="#00452B" d="M30.4139 40.2878C30.3233 40.3068 30.2326 40.339 30.1669 40.4047C30.1011 40.4705 30.0645 40.5714 30.0982 40.6576C30.1406 40.7702 30.2765 40.8155 30.3963 40.8213C30.6127 40.833 30.8305 40.7599 31 40.6284C31.0599 40.5816 31.1696 40.4998 31.117 40.4121C31.0673 40.3317 30.8977 40.3024 30.8129 40.2864C30.6814 40.2615 30.544 40.2615 30.4124 40.2893L30.4139 40.2878Z"></path>
<path fill="#00452B" d="M34.9275 41.8971C34.8778 41.9322 34.8456 41.9863 34.8193 42.0403C34.7506 42.1792 34.7112 42.3312 34.7039 42.4847C34.6995 42.568 34.7053 42.6557 34.7463 42.7288C34.7872 42.8019 34.869 42.8574 34.9509 42.8457C35.0444 42.8326 35.1058 42.7434 35.1424 42.6557C35.2111 42.4935 35.2286 42.3107 35.1965 42.1383C35.1716 42.0038 35.1117 41.7685 34.929 41.8971H34.9275Z"></path>
<path fill="#00452B" d="M32.1809 39.348C32.1502 39.3056 32.1035 39.2793 32.0567 39.2573C31.9368 39.2018 31.8053 39.1711 31.6723 39.1667C31.6007 39.1652 31.5261 39.1711 31.4633 39.2076C31.4004 39.2442 31.3551 39.3143 31.3682 39.386C31.3814 39.4649 31.4603 39.516 31.5349 39.5453C31.6752 39.6008 31.8316 39.6111 31.9792 39.5818C32.0947 39.5584 32.295 39.5014 32.1809 39.3465V39.348Z"></path>
<path fill="#00452B" d="M33.3783 44.2577C33.2072 44.4053 33.0976 44.6202 33.0801 44.8453C33.0742 44.9169 33.0786 44.9915 33.1108 45.0558C33.1429 45.1201 33.2087 45.1713 33.2803 45.1669C33.352 45.1639 33.4104 45.1099 33.4557 45.0558C33.561 44.9286 33.6311 44.7722 33.6604 44.6085C33.6779 44.512 33.7203 44.246 33.6092 44.189C33.5303 44.1481 33.4338 44.208 33.3768 44.2577H33.3783Z"></path>
<path fill="#00452B" d="M32.4647 42.2903C32.415 42.3386 32.3697 42.3941 32.3507 42.4614C32.3317 42.5286 32.3405 42.6046 32.3858 42.6572C32.4384 42.7171 32.5276 42.7303 32.608 42.7245C32.8492 42.7084 33.0918 42.5374 33.2029 42.324C33.2204 42.2903 33.2351 42.2523 33.2351 42.2143C33.2351 42.1091 33.0991 42.0872 33.0158 42.0842C32.9135 42.0799 32.8053 42.1047 32.7103 42.1398C32.6197 42.1734 32.5349 42.2246 32.4647 42.2903Z"></path>
<path fill="white" d="M39.6444 43.3516C39.4544 43.3238 39.2527 43.4101 39.1401 43.5665C39.051 43.6907 39.0101 43.8603 38.877 43.9363C38.7513 44.0079 38.5847 43.9684 38.4605 44.04C38.3552 44.1014 38.307 44.2257 38.2763 44.3441C38.2456 44.4625 38.2222 44.5882 38.1433 44.6803C38.0965 44.7358 38.0322 44.7753 37.9737 44.8177C37.9153 44.86 37.8568 44.9112 37.8305 44.9784C37.8042 45.0457 37.8173 45.1348 37.8787 45.1743C37.9343 45.2108 38.0088 45.1962 38.0702 45.1743C38.4151 45.0413 38.63 44.6583 38.9881 44.5662C39.1153 44.5341 39.2585 44.5385 39.3638 44.4595C39.4851 44.3689 39.5158 44.195 39.6298 44.0956C39.7117 44.024 39.8184 44.0342 39.9017 43.9611C39.9748 43.8983 40.023 43.8047 40.023 43.7082C40.0245 43.489 39.8344 43.3808 39.6444 43.3516Z"></path>
<path fill="white" d="M40.2905 43.068C40.2042 43.1221 40.1457 43.2229 40.1501 43.3252C40.1545 43.4276 40.2276 43.5255 40.327 43.5518C40.3986 43.5708 40.4746 43.5518 40.5389 43.5182C40.6223 43.4729 40.691 43.3954 40.7114 43.3033C40.7699 43.0358 40.4819 42.9481 40.2905 43.068Z"></path>
<path fill="white" d="M28.5795 43.7418C28.6072 43.809 28.6379 43.8777 28.6891 43.9289C28.7403 43.98 28.8192 44.0107 28.8879 43.9873C28.9697 43.9596 29.0136 43.8675 29.0107 43.7812C29.0077 43.695 28.9712 43.6146 28.9376 43.5357C28.6935 42.9773 28.5444 42.378 28.502 41.77C28.4962 41.6764 28.4845 41.3227 28.3266 41.3548C28.1936 41.3812 28.2287 41.7597 28.2257 41.862C28.217 42.2757 28.2638 42.6908 28.3631 43.0913C28.4187 43.312 28.4903 43.5298 28.578 43.7403L28.5795 43.7418Z"></path>
<path fill="white" d="M29.2885 45.2663C29.344 45.3247 29.4127 45.3774 29.4931 45.3847C29.61 45.3964 29.7211 45.3043 29.7547 45.1917C29.8205 44.971 29.5983 44.6348 29.3542 44.6436C29.0253 44.6538 29.1496 45.1172 29.2885 45.2663Z"></path>
<path fill="#62BB46" d="M37.0281 32.4093C36.7299 31.5966 36.2402 30.8716 35.752 30.1583C35.6205 29.9669 35.4845 29.7637 35.4611 29.5313C35.4392 29.3076 35.5342 29.0782 35.6994 28.9261C35.8646 28.7741 36.0955 28.6996 36.3191 28.7171C36.572 28.7361 36.8044 28.8633 37.05 28.9247C37.4417 29.0226 37.8641 28.9539 38.2442 29.0898C38.5847 29.2112 38.8537 29.4889 39.0203 29.809C39.187 30.1291 39.2586 30.4916 39.2922 30.8512C39.4208 32.2368 38.9794 33.6532 38.1521 34.7714C37.9168 35.09 37.6463 35.3882 37.3218 35.6119C37.2561 35.6572 37.1684 35.5943 37.1903 35.5183C37.2268 35.3882 37.2619 35.2596 37.2838 35.1237C37.3204 34.903 37.3423 34.6793 37.3511 34.4557C37.3672 34.0084 37.3292 33.5597 37.2341 33.1212C37.1815 32.8785 37.1143 32.6403 37.0281 32.4079V32.4093Z"></path>
<mask height="8" width="5" y="28" x="35" maskUnits="userSpaceOnUse" style="mask-type:luminance" id="mask4_8241_14015">
<path fill="white" d="M37.0281 32.4093C36.7299 31.5966 36.2402 30.8716 35.752 30.1583C35.6205 29.9669 35.4845 29.7637 35.4611 29.5313C35.4392 29.3076 35.5342 29.0782 35.6994 28.9261C35.8646 28.7741 36.0955 28.6996 36.3191 28.7171C36.572 28.7361 36.8044 28.8633 37.05 28.9247C37.4417 29.0226 37.8641 28.9539 38.2442 29.0898C38.5847 29.2112 38.8537 29.4889 39.0203 29.809C39.187 30.1291 39.2586 30.4916 39.2922 30.8512C39.4208 32.2368 38.9794 33.6532 38.1521 34.7714C37.9168 35.09 37.6463 35.3882 37.3218 35.6119C37.2561 35.6572 37.1684 35.5943 37.1903 35.5183C37.2268 35.3882 37.2619 35.2596 37.2838 35.1237C37.3204 34.903 37.3423 34.6793 37.3511 34.4557C37.3672 34.0084 37.3292 33.5597 37.2341 33.1212C37.1815 32.8785 37.1143 32.6403 37.0281 32.4079V32.4093Z"></path>
</mask>
<g mask="url(#mask4_8241_14015)">
<path fill="#00452B" d="M36.8571 28.3341C37.0924 28.4861 37.2868 28.6951 37.4564 28.9144C38.2516 29.9697 38.367 31.3656 38.2077 32.63C38.1419 33.1328 38.0352 33.6269 37.8993 34.1121L37.8306 34.0961C37.9329 33.6064 38.006 33.1109 38.0382 32.6154C38.1185 31.2385 37.8584 29.5955 36.6539 28.7609L36.6379 28.7521C36.6335 28.7507 36.6262 28.7463 36.6276 28.7463L36.8571 28.337V28.3341Z"></path>
</g>
</g>
<defs>
<clipPath id="clip0_8241_14015">
<rect transform="translate(13.1763 13.1765)" fill="white" height="37.6471" width="37.7538"></rect>
</clipPath>
</defs>
</svg>
