<svg viewBox="0 0 32 32" xmlns="http://www.w3.org/2000/svg" data-name="Layer 2" id="Layer_2">
  <defs>
    <style>
      .cls-1 {
        fill: #004600;
      }
    </style>
  </defs>
  <g data-name="Layer 1" id="Layer_1-2">
    <path d="M16,2c7.72,0,14,6.28,14,14s-6.28,14-14,14S2,23.72,2,16,8.28,2,16,2M16,0C7.16,0,0,7.16,0,16s7.16,16,16,16,16-7.16,16-16S24.84,0,16,0h0Z" class="cls-1"></path>
    <path d="M10.7,12.77c-.11-.32-.26-.41-.58-.41h-.34v-2.09h1.56c.94,0,1.28.24,1.58,1.09l2.56,7.44c.26.75.51,1.95.51,1.95h.04s.24-1.2.51-1.95l2.56-7.44c.3-.85.62-1.09,1.56-1.09h1.58v2.09h-.36c-.32,0-.47.09-.58.41l-3.99,10.85h-2.59l-4-10.85Z" class="cls-1"></path>
  </g>
</svg>