<svg xmlns="http://www.w3.org/2000/svg" fill="none" viewBox="0 0 139 49" height="49" width="139">
<g clip-path="url(#clip0_4048_8700)">
<path fill="white" d="M8.7459 23.813C7.36172 26.9241 6.37269 29.9916 6.7433 31.8803C6.95762 33.4576 7.98795 34.527 10.6402 34.0504C12.9096 33.5179 16.4382 31.4193 17.6426 30.2628C17.6471 31.5521 18.0222 32.7187 18.8839 33.4889C19.8819 34.2748 21.2136 34.3841 22.7016 34.0537C30.9219 32.2208 39.6947 22.7905 41.9909 13.6761C42.865 10.2067 43.0726 4.80052 39.9749 2.20741C37.9031 0.472709 34.849 0.365546 32.2212 2.80573L32.2056 2.82024C32.7414 2.72313 33.8086 2.6595 34.8389 3.36052C35.9954 4.1475 36.7366 5.65224 37.0492 7.83903C37.5347 14.5858 34.091 22.191 29.5969 26.664C28.2685 27.9399 27.0473 28.7894 26.2302 29.1711C25.2032 29.6511 24.5167 29.5674 24.1159 29.1566C23.1135 28.1263 23.9842 26.0779 24.4932 25.1101L31.9757 10.8943H26.8921L19.3617 24.9315C18.7902 25.839 17.9284 26.6428 16.0095 28.1174C15.5652 28.4923 15.086 28.8239 14.5785 29.1075C12.491 30.1423 12.5167 28.6052 13.0413 26.8493C13.8082 24.2807 18.7723 14.6204 20.7727 11.6567L21.1835 10.8943H16.0598L16.0441 10.9222C15.409 11.8208 14.8062 12.7105 14.2335 13.599L13.8317 14.2766C13.0603 15.5726 12.1997 17.0003 10.888 18.3566C7.69995 21.6519 4.47055 22.3663 0.0277644 22.584L0.0166016 22.5851C0.0668341 22.6409 0.134927 22.7101 0.221997 22.7894C2.07055 24.4772 6.52897 24.5665 8.45902 23.9112L8.7459 23.813ZM100.66 21.7345C100.773 21.7128 100.886 21.6997 101.001 21.6954C101.786 21.6418 102.276 22.4288 102.201 23.1399L102.203 23.1521L100.842 25.6973L100.783 25.8089C99.8566 27.5503 98.7459 28.7838 97.1764 29.6779C97.0123 29.7895 96.7701 29.9012 96.5156 29.9615C95.5857 30.0686 95.1258 29.4848 95.2865 28.546C95.7487 25.8446 98.8731 21.8628 100.66 21.7345ZM106.188 27.8171L104.09 29.3162C103.861 27.8271 108.815 19.3791 108.815 19.3791H104.143C104.143 19.3791 103.779 20.0857 103.781 20.0243C103.781 19.983 101.967 18.4303 98.7247 19.8792C97.8942 20.1181 96.6127 20.9051 95.3044 22.0381C91.2635 25.5354 93.3632 24.1356 89.3513 27.2176C88.2707 28.0481 87.3989 28.6978 87.3989 28.6978C87.9481 27.5335 88.4404 26.5155 88.8679 25.6415L88.9338 25.5097C89.8882 23.583 90.712 21.6028 90.6082 20.434C90.4051 19.0833 88.9918 17.9637 82.8456 21.6954C82.782 21.7345 82.2685 22.095 81.8343 22.3987C82.0854 21.634 82.2227 20.9531 82.177 20.434C81.9749 19.0833 80.5606 17.9637 74.4144 21.6954C74.3708 21.7211 74.1174 21.8986 73.8227 22.1051L75.2583 19.4249C75.264 19.4112 75.2703 19.3978 75.2772 19.3847H70.6782L63.3688 33.0446H67.96L68.0036 32.9631L72.3314 24.888C73.2289 24.1858 73.9053 23.7326 74.8642 23.1086C75.6289 22.6342 76.3321 22.3228 76.6279 22.5281C76.7641 22.6219 76.8132 22.9356 76.7775 23.0684C76.6681 23.4748 76.2986 24.2126 76.1915 24.4191C76.081 24.6256 71.6438 33.0446 71.6438 33.0446H76.5219L76.5643 32.9531L79.4265 27.5849C79.8864 26.7254 80.3831 25.7743 80.8296 24.8355C81.6947 24.1635 82.36 23.717 83.2966 23.1086C84.0601 22.6342 84.7645 22.3228 85.0592 22.5281C85.1954 22.6219 85.2445 22.9356 85.2099 23.0684C85.0994 23.4748 84.7299 24.2126 84.6227 24.4191C84.6004 24.4593 84.4117 24.8165 83.7297 26.1125H83.7319C82.984 27.5034 82.0687 29.2582 81.5552 30.6178C81.1064 31.8122 81.0707 33.2924 82.6112 33.4241C84.1037 33.5179 86.0594 32.0779 86.8162 31.5008C87.8052 30.7495 89.8592 28.901 90.9185 27.9812C90.4184 29.3631 90.2778 30.7964 90.7277 32.1717C90.7645 32.28 90.808 32.3849 90.8571 32.4854C91.816 34.4411 94.3957 33.9879 96.2823 32.8761C97.5805 32.0991 98.7012 31.0264 98.7012 31.0264C98.7012 31.0264 98.5472 33.6496 100.632 33.6753C102.375 33.6943 106.531 30.1992 107.911 28.9948L105.744 33.0446H110.335L110.378 32.9631L114.706 24.888C115.605 24.1858 116.28 23.7326 117.239 23.1086C118.004 22.6342 118.706 22.3228 119.003 22.5281C119.139 22.6219 119.188 22.9356 119.153 23.0684C119.043 23.4748 118.674 24.2126 118.565 24.4191L117.623 26.2074H117.615C116.875 27.5827 115.99 29.2883 115.489 30.6167C115.07 31.7308 115.011 33.0948 116.255 33.3795C118.015 33.7992 120.288 32.2353 121.556 31.1615C122.11 30.7587 122.651 30.3395 123.18 29.9045C123.276 30.5743 123.542 31.2195 123.932 31.7944C126.158 35.0762 131.188 34.1129 133.004 33.327C135.717 32.1572 138.181 29.3721 134.165 23.1332C133.684 22.3853 133.432 21.6362 133.697 21.0591C133.928 20.5557 134.374 20.0478 135.349 20.2041C136.271 20.4028 135.842 22.2401 135.348 23.0361C137.653 23.0327 139.146 21.8863 138.087 20.098C137.701 19.4428 135.142 17.631 132.079 20.2822C130.42 21.7166 129.898 24.5575 131.119 27.5804C131.588 28.7414 131.771 29.6042 131.769 30.2483C131.765 31.4695 130.996 32.146 129.797 32.146C128.043 32.146 126.724 30.4381 126.996 28.7302C127.174 27.6161 127.933 26.3681 129.535 25.2161C127.771 24.7652 126.404 25.0855 125.376 25.7564C124.43 26.3693 123.82 27.0792 123.479 27.8215C123.189 28.0493 122.847 28.3127 122.446 28.6219C121.366 29.4513 120.494 30.1021 120.494 30.1021C120.838 29.3721 121.998 27.298 122.295 26.6829C122.875 25.4807 125.057 21.6295 124.483 20.1304C124.103 18.9404 122.462 18.2506 116.789 21.6954C116.746 21.7211 116.492 21.8986 116.198 22.1051L117.633 19.4249L117.652 19.3847H113.053L111.903 21.5347C110.696 23.6433 110.457 24.7652 106.188 27.8171ZM60.1014 21.7345C60.2153 21.7121 60.3292 21.6999 60.443 21.6954C61.2266 21.6418 61.9087 22.4288 61.8328 23.1399L61.835 23.1521L60.4754 25.6973C60.455 25.7343 60.4349 25.7715 60.4151 25.8089C59.4886 27.5503 58.379 28.7838 56.8084 29.6779C56.6465 29.7884 56.3496 29.8978 56.0471 29.957C55.0313 30.0686 54.5312 29.3185 54.7958 28.2156C55.4376 25.5332 58.3868 21.8584 60.1014 21.7345ZM41.2899 26.1516L41.2988 26.1293C41.5846 24.8042 42.1561 23.4122 43.6888 22.3685C45.2739 21.2891 46.1457 21.6128 46.4292 22.2189C46.9215 23.2772 45.2906 24.466 44.5941 24.9181C43.3718 25.7095 42.1461 26.0366 41.569 26.088L41.2899 26.1516ZM63.2549 20.4954C63.134 20.3524 63.0062 20.2153 62.872 20.0846C61.998 19.2385 60.6931 19.061 59.5623 19.2519C57.3643 19.5756 55.3941 21.1049 53.9887 22.4846C52.9394 23.5172 51.7293 24.898 50.977 25.7151C50.7425 25.9417 50.5025 26.1728 50.2603 26.4028C49.0257 27.5737 45.1366 30.3019 42.7243 30.1378C41.8782 30.0809 41.2653 29.7002 41.0789 28.8876L41.0745 28.8697C41.0901 28.8693 41.1057 28.8693 41.1213 28.8697C41.838 28.8474 43.2423 28.5136 44.3597 28.0638C46.2819 27.3873 48.5558 26.2197 49.9332 24.2561C50.3435 23.6747 50.6599 23.0325 50.8709 22.3529C51.2438 21.154 51.3364 19.0353 48.0735 19.1268C46.3366 19.1748 44.5941 19.7497 42.99 20.6628C40.2506 22.114 37.5001 24.994 36.6216 27.9923C35.9262 30.3678 36.2108 33.0826 39.3732 33.6988C39.8265 33.7881 40.2975 33.8137 40.7597 33.7881C43.8797 33.6273 47.857 30.9282 50.2402 28.6052C49.8774 29.9949 49.8975 31.3814 50.5773 32.5423C50.8251 32.9654 51.1801 33.3192 51.6646 33.5782C53.2095 34.3172 55.3405 33.3996 56.6689 32.3179C56.8207 32.1951 56.9736 32.0723 57.1288 31.9574L54.9297 36.0708C53.569 38.616 50.6845 43.2943 46.9829 44.7254C44.5159 45.6787 42.4676 44.5334 42.7567 42.0463C42.8237 41.3832 42.9777 40.8295 43.0224 40.6621L42.9532 40.7034C41.3033 41.7281 40.4326 43.7028 40.6871 45.1719C40.8255 46.6409 41.6806 48.2584 44.3474 48.8422C51.4346 49.9607 56.9848 40.8139 59.1738 36.7295C60.0333 35.122 68.4825 19.3512 68.4825 19.3512C66.6238 19.3512 64.1122 19.3557 63.8644 19.3557L63.2549 20.4954Z"></path>
</g>
<defs>
<clipPath id="clip0_4048_8700">
<rect transform="translate(0.0166016 0.936035)" fill="white" height="48" width="138.419"></rect>
</clipPath>
</defs>
</svg>
