<svg width="82" height="56" viewBox="0 0 82 56" fill="none" xmlns="http://www.w3.org/2000/svg">
<path fill-rule="evenodd" clip-rule="evenodd" d="M37.4533 5.50168C37.7272 5.63863 38.139 5.36424 38.4134 5.08984C38.9622 3.99226 40.0603 3.30603 41.1578 3.03164C44.4516 2.20845 46.2349 5.91351 49.1168 6.1879V6.32534C47.0581 6.05095 45.6856 4.4041 43.4909 4.81593C41.9815 4.95289 40.3342 6.05095 39.7849 7.56036C39.648 7.9722 39.648 8.38355 39.9223 8.52099C40.6081 8.79538 41.0204 8.24659 41.4318 7.9722C42.9417 6.60022 44.4511 8.38403 46.0974 8.24659C46.2344 8.38355 46.6467 8.24659 46.6467 8.52099C44.0397 9.61808 40.7465 11.4019 40.0608 14.5582C38.9627 18.1258 39.6489 22.5171 42.6687 24.9871C45.0003 26.7714 48.8438 27.1827 51.5878 26.0852C53.9204 25.262 55.7051 22.9294 56.2534 20.5963C57.2145 16.8912 56.5283 12.9118 53.2346 10.4418C52.137 9.89248 50.7646 8.93234 49.5305 9.89248C49.1182 11.4019 51.1769 11.2649 51.5882 12.6369C53.0977 15.3813 53.2346 19.4982 51.8631 22.3801C51.1769 23.4777 50.0783 24.7127 48.7064 24.8501C47.4718 24.9871 46.2363 24.7127 45.2762 23.7521C43.0805 21.1446 43.0805 16.8908 44.0407 13.7345C45.5501 9.89199 49.9414 9.20625 52.6863 6.59877C52.8233 6.18694 52.8233 5.63815 52.5484 5.2268C52.137 4.81496 51.5882 4.81496 50.902 4.67801C47.6088 4.12922 45.9624 -0.262066 42.3943 0.0123287C40.0617 0.0123287 38.003 2.34541 37.1799 4.26666C37.0414 4.67801 36.767 5.2268 37.4533 5.50168ZM80.9538 23.2038C80.6799 23.3407 80.4055 23.7526 80.2676 24.027C79.0331 25.8108 76.2881 25.1245 74.3669 24.9871C73.9555 24.9871 73.6816 24.7127 73.5437 24.3014V18.675L73.8186 18.2632C75.0531 17.7144 76.8374 18.5376 77.798 17.577C77.935 17.3026 77.935 16.7538 77.6611 16.4789C76.5625 16.0676 75.0531 16.342 73.8191 16.342C73.6821 16.2045 73.5442 16.2045 73.5442 16.0676V12.362C73.6821 12.0876 73.9565 11.6763 74.2304 11.5388C75.7398 11.6763 77.1123 11.6763 78.4847 11.6763C79.5823 11.6763 79.7202 13.1857 80.8173 13.1857C81.0912 13.1857 81.0913 12.9113 81.0913 12.6369C80.9543 11.8137 80.5429 10.8531 80.1311 10.1669L79.8572 9.89248H68.7416L68.4676 10.1669C67.9184 11.4019 69.4278 10.9901 69.9771 11.6763V24.7127C69.8401 25.2615 69.2908 25.3989 68.7416 25.3989C68.3302 25.5359 68.1923 25.9477 68.3302 26.2221C68.3302 26.4965 68.6041 26.7709 68.8785 26.7709H80.2681L80.6804 26.4965C81.0917 25.5359 81.778 24.5753 81.778 23.6146C81.64 23.2038 81.3657 23.2038 80.9538 23.2038Z" fill="white"/>
<path fill-rule="evenodd" clip-rule="evenodd" d="M56.9393 11.8135L57.0762 24.85C56.9393 25.3987 56.2531 25.2618 55.9787 25.3988C55.5673 25.5357 55.4294 25.9475 55.4294 26.2219C55.4294 26.6338 55.8417 26.6338 56.1156 26.7707H67.2313C67.9175 26.3589 67.9175 25.3988 68.3298 24.7125C68.4668 24.1637 69.153 23.6145 68.4668 23.0657C67.0943 22.6538 66.8194 24.7125 65.5849 24.9869H61.4675C60.9192 24.85 60.7813 24.5751 60.6443 24.1637V11.6766C60.7813 11.1278 61.4675 11.2648 61.8799 11.1278C62.2912 11.1278 62.4291 10.7155 62.4291 10.4416C62.4291 10.1672 62.1542 9.8923 61.8799 9.8923H58.1748C57.2147 9.8923 55.7048 9.75534 55.5678 10.1667C55.0185 11.5391 56.9393 10.9899 56.9393 11.8135ZM7.81246 26.085C8.08686 26.4968 8.49821 26.7712 8.91052 26.7712C9.45931 26.7712 9.87066 26.6343 10.1455 26.2224C11.1062 23.7524 11.9298 21.2823 13.0274 18.8123L13.1644 18.9493L15.6344 26.085C15.7718 26.4968 16.3202 26.7712 16.7325 26.7712C18.3793 26.6343 18.2419 24.713 18.7907 23.6149L22.7701 11.4017C22.9076 10.5785 24.0051 10.9899 24.5539 10.4416C24.9658 10.9904 25.789 10.5785 26.0633 11.2648L26.2008 24.713C26.0633 25.5362 25.1027 25.2618 24.6914 25.6736C24.417 25.948 24.417 26.4973 24.8288 26.7717H30.8669L31.2788 26.6347C32.2394 24.9879 29.7694 25.8111 29.7694 24.7135V17.9886L30.1812 17.5768H34.8469C35.1213 17.7142 35.2587 17.8512 35.3957 17.9886V24.9869C35.1213 25.3988 34.7099 25.3988 34.2976 25.3988C34.0232 25.5357 33.7488 25.8106 33.7488 26.2219C33.8863 26.3594 33.8863 26.6338 34.1607 26.7707H40.0613C40.1988 26.6338 40.4732 26.6338 40.6101 26.3589C41.022 24.9864 39.2382 25.6727 38.9633 24.8495V11.2648C39.2377 10.8529 39.7865 10.8529 40.1988 10.7155C40.6101 10.7155 40.7476 10.3041 40.6101 9.8923C40.6101 9.6179 40.3357 9.48046 40.0613 9.34351H34.435C33.8863 9.48095 33.7488 9.8923 33.7488 10.3041C34.0232 10.9899 34.9838 10.5785 35.3957 11.2648V15.656L35.2587 15.7935H30.0428C29.9058 15.7935 29.7684 15.656 29.7684 15.656V11.2648C30.0428 10.5785 30.8665 10.9904 31.2778 10.5785C31.4153 10.3041 31.5522 9.48046 30.866 9.34351H25.1022C24.6904 9.48095 24.4165 9.75534 24.1416 9.34351L19.4769 9.48046L19.0651 9.6179C18.9276 9.75534 18.7907 10.1667 18.9276 10.3041C19.202 10.8529 19.7508 10.7155 20.1626 10.9899C20.5745 11.1273 20.7114 11.4017 20.5745 11.6761L17.5557 21.1449L17.2813 21.4193L14.125 11.8135C13.5762 10.5785 15.2231 11.1278 15.7718 10.3041C15.7718 10.0297 15.7718 9.48046 15.36 9.48046H9.59675L9.04748 9.6179C8.49869 10.9899 10.2825 10.4416 10.5569 11.4017C11.1057 12.7742 11.655 14.1461 11.9294 15.656L9.87066 21.5563L9.59675 21.8306L9.45931 21.6937L5.89121 11.6761C5.47938 10.4411 7.26367 11.2643 7.53807 10.3041C7.67502 10.0297 7.67502 9.48046 7.12623 9.48046H1.22553L0.8137 9.75486C0.264911 11.1273 2.04872 10.4411 2.32311 11.4012L5.75377 20.4582L7.81246 26.085ZM70.3875 30.4763C71.76 29.7905 73.4064 30.3393 74.5049 31.1625C75.3281 31.7118 75.1911 32.9473 76.2887 32.8089C76.5626 32.8089 76.7001 32.6719 76.838 32.3975L76.0148 28.8294C75.8769 27.8688 74.9163 28.555 74.5054 28.8294C72.5837 28.4171 70.1141 28.0057 68.3303 29.1033C67.0948 29.7896 66.4086 31.0246 66.2716 32.534C66.2716 35.6898 69.8397 37.0622 72.0344 38.846C73.1329 39.8071 74.6424 40.7678 74.367 42.4141C74.23 43.2373 73.5438 44.0605 72.8576 44.1989C71.3482 44.7472 69.7018 44.3349 68.4673 43.2378C67.781 42.6885 67.5071 41.454 66.4086 41.5914C66.1347 41.7284 65.8593 42.0028 65.9963 42.2777C66.1342 43.6501 66.4086 45.0226 66.9574 46.1197C67.5066 46.6689 67.9175 45.7074 68.4668 45.7074C70.5245 46.2566 73.1325 46.5315 75.0527 45.5704C76.4252 44.8842 76.9745 43.5117 77.3853 42.2772C78.3464 38.2977 74.0921 36.239 71.4856 34.4557C70.6624 33.7695 69.5639 32.9463 69.7008 31.7108C69.7013 31.2994 69.9762 30.8881 70.3875 30.4763Z" fill="white"/>
<path fill-rule="evenodd" clip-rule="evenodd" d="M51.9997 45.7079C56.253 46.5321 61.7428 46.9434 64.4868 43.1009C66.5455 40.356 66.6824 35.9657 65.31 32.8084C63.3892 28.4172 58.4487 28.1433 54.1953 28.5546C52.6859 28.829 51.0385 28.9664 49.941 29.9266C49.5296 31.1616 51.0385 30.7502 51.4504 31.5734V43.0999L51.1765 43.5113C50.9016 43.7862 50.4902 43.6492 50.2154 43.7862C49.9415 43.9231 49.804 44.1985 49.9415 44.6094C50.3528 45.434 51.176 45.434 51.9997 45.7079ZM55.9786 30.4763C58.1743 29.7906 60.5069 30.6133 61.4675 32.8089C62.703 35.8278 62.703 40.219 60.7813 42.827C59.8211 44.0615 58.5866 44.6108 57.0762 44.4734C56.3909 44.4734 55.8417 44.3354 55.4298 44.0611L55.1559 43.5118V31.4374C55.1554 31.0251 55.5678 30.6133 55.9786 30.4763Z" fill="white"/>
<path fill-rule="evenodd" clip-rule="evenodd" d="M20.1627 44.7481C22.9071 46.6698 27.2984 46.8068 30.1803 45.023C32.1015 43.9244 32.9247 42.0032 33.611 40.2194C34.0228 40.9056 34.2972 41.7288 34.709 42.415C35.944 44.6107 38.2771 45.9831 40.7467 46.1201C44.0399 46.5324 47.1962 45.5708 48.9804 42.6889C50.7643 39.945 50.9012 35.4167 49.2544 32.5349C47.1957 28.6924 42.6684 27.8692 38.8254 28.9668C36.3554 29.653 34.2972 32.2605 33.611 34.5931C33.0622 32.9467 32.1015 31.025 30.4552 29.9269C27.8477 28.2801 23.7308 28.0057 20.9869 29.5151C18.6543 30.7506 17.2818 33.2201 17.0074 35.6902C16.4581 39.1223 17.2813 42.5525 20.1627 44.7481ZM40.4723 30.6136C41.5703 30.2023 42.9423 30.3397 43.9029 30.8885C44.7261 31.4378 45.2754 32.124 45.6867 32.9472C46.9222 36.103 47.0592 40.7686 44.4522 43.5126C43.4921 44.3358 41.9822 44.6111 40.7467 44.1998C37.5909 43.1012 37.4534 39.6706 37.316 36.9266C37.5909 34.4566 38.0022 31.8491 40.4723 30.6136ZM24.417 30.4767C26.2008 30.0653 27.8477 30.889 28.8083 32.3984C30.3177 35.2803 30.3177 39.3967 28.9458 42.2785C28.2595 43.5131 27.0245 44.3363 25.7895 44.3363C24.4175 44.4742 23.182 44.0623 22.3588 42.9648C20.9869 41.3184 20.8494 39.3967 20.7125 37.201C20.8489 34.5936 21.5352 31.4378 24.417 30.4767Z" fill="white"/>
<path fill-rule="evenodd" clip-rule="evenodd" d="M11.5174 31.0253H14.948C15.9087 31.0253 16.4579 32.1239 17.1437 32.6717C17.4181 32.6717 17.8299 32.6717 17.9669 32.3978C18.1043 31.7116 17.5555 31.0253 17.4181 30.3391C17.1437 29.9273 17.1437 29.3785 16.5949 29.3785C12.8898 29.241 9.87052 29.241 6.16595 29.3785L5.75411 29.6529C5.34228 30.8879 6.98913 30.476 7.26401 31.1623V44.4736C6.98962 45.1598 6.16595 44.6105 5.75411 45.1598C5.61716 45.5712 5.61716 46.1199 6.02851 46.2574H11.106C11.6548 46.2574 12.341 46.3943 12.6154 45.846C13.0273 44.4736 11.2435 45.1598 10.9686 44.3356V38.1606L11.106 37.7492C12.2041 37.4743 13.7135 37.7492 14.6741 37.6122L15.2229 37.063C15.3604 36.6507 15.2229 36.2398 14.9485 35.9654C13.7135 35.6905 12.4785 35.8275 11.2439 35.8275L10.9691 35.5536V31.7116C10.9686 31.4376 11.2435 31.1628 11.5174 31.0253ZM76.562 48.0417H6.5773C0.676601 48.7269 2.04906 56.0001 6.5773 56.0001H76.562C81.64 55.4513 81.7769 48.3161 76.562 48.0417ZM12.2036 54.2168V54.0788C12.2036 53.9419 12.478 53.9419 12.478 53.6675V51.3349L12.341 51.1979C11.9292 51.6093 11.6548 52.2955 11.2435 52.7074C10.8316 52.4325 10.5572 51.7462 10.008 51.061L9.87052 51.3349V53.8049C10.008 54.0788 10.2824 53.9419 10.2824 54.2172C9.87052 54.2172 9.04734 54.3542 9.04734 54.0793L9.45917 53.8054V50.3752C9.45917 50.2373 9.18477 50.1004 9.04734 50.1004V49.9634C10.5567 49.4141 10.5567 51.1989 11.3804 51.7472H11.5174C12.2036 51.1989 12.2036 49.2772 13.713 49.9634C13.713 50.1004 13.4386 50.1004 13.3012 50.2373V53.8054C13.3012 53.9424 13.713 53.9424 13.713 54.2177H12.2036V54.2168ZM25.7888 54.2168H24.2794C24.4168 53.9419 24.8282 53.9419 24.6912 53.5305C24.5538 53.2566 24.5538 52.8443 24.1424 52.8443C23.7311 52.8443 23.0444 52.5694 22.9074 53.3936V53.8049C22.9074 53.9424 23.1818 53.9419 23.1818 54.0788C22.9074 54.2168 22.4961 54.2168 22.0837 54.2168C21.9463 53.9419 22.2212 54.0788 22.3581 53.9419C22.9074 52.5694 23.3188 51.1979 23.7306 49.9624C23.868 49.8255 24.005 49.8255 24.1424 49.8255C24.6912 51.1979 24.9661 52.4325 25.5149 53.8049C25.5144 53.9419 26.2006 54.0788 25.7888 54.2168ZM37.8646 54.2168C36.4926 54.7651 36.4926 52.9813 35.8064 52.432C35.532 51.7458 36.6296 52.0206 36.6296 51.3344C36.6296 51.0605 36.6296 50.6482 36.3552 50.3743C36.2177 50.2363 35.9433 49.962 35.669 50.2363L35.3946 50.5112V53.8044C35.532 54.0784 35.8064 53.9414 35.8064 54.2168H34.297C34.16 53.9419 34.5714 54.0788 34.5714 53.8044C34.5714 52.7069 34.7088 51.6088 34.5714 50.5112C34.5714 50.2364 34.1595 50.3743 34.297 50.2363C35.1202 49.825 36.0813 49.688 37.0414 50.0994C37.4532 50.3743 37.5902 50.9226 37.4532 51.4718C37.3158 51.8842 36.904 51.8842 36.6296 52.1581C37.0414 52.8443 37.3158 53.8045 38.002 54.2168H37.8646ZM50.0778 54.2168C48.7054 54.3537 48.7054 52.7074 47.7452 52.1581C47.8822 52.7074 47.4713 53.6675 48.0191 54.0788C48.1571 54.2168 47.8822 54.2168 47.7452 54.2168C47.3339 54.2168 46.922 54.3537 46.5107 54.0788L46.7846 53.6675V50.3743L46.5107 50.0994C47.059 49.9624 47.6083 49.8255 48.0191 50.0994C47.4708 50.3743 47.7452 51.1979 47.7452 51.7458L47.8822 51.8837C48.2945 51.4714 48.7054 50.9226 48.9807 50.5112L48.7058 50.0989C49.1182 49.825 49.667 49.962 49.9413 50.0989C49.9413 50.2359 49.6674 50.3738 49.53 50.5112L48.7058 51.6088C49.1182 52.432 49.53 53.3936 50.3532 53.9414C50.4897 54.2168 50.2148 54.2168 50.0778 54.2168ZM62.1536 53.6675L61.8797 54.2168H58.9978C58.8609 54.2168 58.8609 54.0788 58.8609 54.0788C58.9978 53.8049 59.2732 53.9419 59.2732 53.8049V50.3748C59.2732 50.0999 58.8609 50.2368 58.9983 49.9624L59.1353 49.8255H61.7432C61.8802 49.9624 61.8802 50.3748 62.0171 50.5117C62.0171 50.6487 62.0171 50.6487 61.8802 50.6487C61.7432 50.6487 61.6063 50.3748 61.4679 50.2363H60.2333C59.9584 50.5112 60.0964 50.7856 60.0964 51.0605C60.0964 51.1975 59.9584 51.4718 60.2333 51.4718L61.0565 51.6088C61.1935 51.6088 61.1935 51.6088 61.1935 51.7458C61.1935 51.8837 61.1935 51.8837 61.0565 52.0206H60.2333C59.9584 52.1576 60.0964 52.2946 60.0964 52.5689V53.8044C60.2333 53.9414 61.3309 53.8044 61.4679 53.8044C61.7427 53.8044 61.8802 53.2561 62.1541 53.3931L62.1536 53.6675ZM73.9555 50.7856C73.6816 50.5117 73.4062 50.0994 72.8569 50.3743L72.72 50.5112L72.8569 53.667C72.8569 53.9409 73.1318 53.804 73.1318 54.0784C72.7195 54.3532 72.0333 54.2163 71.6224 54.2163C71.4854 53.9414 71.7594 53.9414 71.8963 53.804V50.6482C71.7594 50.2359 71.347 50.2359 71.0731 50.3743L70.6618 50.7856C70.3869 50.6487 70.5239 50.0994 70.7987 49.9624H73.6806C73.9545 50.0994 73.9545 50.2363 74.092 50.5117L73.9555 50.7856Z" fill="white"/>
<path fill-rule="evenodd" clip-rule="evenodd" d="M23.3191 52.4323H24.2797C24.1423 52.0209 23.8679 51.0608 23.7309 51.0608C23.7309 51.0608 23.4565 52.0209 23.3191 52.4323Z" fill="white"/>
<path fill-rule="evenodd" clip-rule="evenodd" d="M76.8376 45.434H77.1115C77.2485 45.434 77.2485 45.434 77.2485 45.571C77.2485 45.7079 77.1115 45.708 76.9746 45.708H76.8376V45.434ZM76.6997 46.2572H76.8376V45.8459H76.9746L77.2485 46.2572H77.5233L77.2485 45.8459C77.3854 45.8459 77.5233 45.8459 77.5233 45.571C77.5233 45.434 77.3854 45.2971 77.111 45.2971H76.6987V46.2572H76.6997ZM76.1514 45.8459C76.1514 46.2572 76.5627 46.6691 77.1115 46.6691C77.5238 46.6691 77.9347 46.2567 77.9347 45.8459C77.9347 45.2966 77.5233 44.8848 77.1115 44.8848C76.5622 44.8848 76.1514 45.2971 76.1514 45.8459ZM76.4253 45.8459C76.4253 45.4336 76.6992 45.1596 77.1115 45.1596C77.5238 45.1596 77.7977 45.4336 77.7977 45.8459C77.7977 46.2572 77.5238 46.5321 77.1115 46.5321C76.6992 46.5321 76.4253 46.2572 76.4253 45.8459Z" fill="white"/>
</svg>
