<svg width="24" height="25" viewBox="0 0 24 25" fill="none" xmlns="http://www.w3.org/2000/svg">
<path d="M19 11.874H13V5.87402C13 5.60881 12.8946 5.35445 12.7071 5.16692C12.5196 4.97938 12.2652 4.87402 12 4.87402C11.7348 4.87402 11.4804 4.97938 11.2929 5.16692C11.1054 5.35445 11 5.60881 11 5.87402V11.874H5C4.73478 11.874 4.48043 11.9794 4.29289 12.1669C4.10536 12.3545 4 12.6088 4 12.874C4 13.1392 4.10536 13.3936 4.29289 13.5811C4.48043 13.7687 4.73478 13.874 5 13.874H11V19.874C11 20.1392 11.1054 20.3936 11.2929 20.5811C11.4804 20.7687 11.7348 20.874 12 20.874C12.2652 20.874 12.5196 20.7687 12.7071 20.5811C12.8946 20.3936 13 20.1392 13 19.874V13.874H19C19.2652 13.874 19.5196 13.7687 19.7071 13.5811C19.8946 13.3936 20 13.1392 20 12.874C20 12.6088 19.8946 12.3545 19.7071 12.1669C19.5196 11.9794 19.2652 11.874 19 11.874Z" fill="#004600"/>
</svg>
