<svg width="24" height="25" viewBox="0 0 24 25" fill="none" xmlns="http://www.w3.org/2000/svg">
<path d="M19 11.0449H13V5.04492C13 4.77971 12.8946 4.52535 12.7071 4.33782C12.5196 4.15028 12.2652 4.04492 12 4.04492C11.7348 4.04492 11.4804 4.15028 11.2929 4.33782C11.1054 4.52535 11 4.77971 11 5.04492V11.0449H5C4.73478 11.0449 4.48043 11.1503 4.29289 11.3378C4.10536 11.5254 4 11.7797 4 12.0449C4 12.3101 4.10536 12.5645 4.29289 12.752C4.48043 12.9396 4.73478 13.0449 5 13.0449H11V19.0449C11 19.3101 11.1054 19.5645 11.2929 19.752C11.4804 19.9396 11.7348 20.0449 12 20.0449C12.2652 20.0449 12.5196 19.9396 12.7071 19.752C12.8946 19.5645 13 19.3101 13 19.0449V13.0449H19C19.2652 13.0449 19.5196 12.9396 19.7071 12.752C19.8946 12.5645 20 12.3101 20 12.0449C20 11.7797 19.8946 11.5254 19.7071 11.3378C19.5196 11.1503 19.2652 11.0449 19 11.0449Z" fill="white"/>
</svg>
