<svg width="24" height="24" viewBox="0 0 24 24" fill="none" xmlns="http://www.w3.org/2000/svg">
<path d="M12 1.53816L12.9768 2.67985L12.9772 2.68036C14.0654 3.95052 15.7274 4.56896 17.3758 4.30276L18.8511 4.06516L18.877 5.59959L18.877 5.60016C18.9061 7.27444 19.7817 8.82318 21.2077 9.693L21.2079 9.69309L22.5093 10.4866L21.5503 11.6884C21.5503 11.6884 21.5503 11.6885 21.5502 11.6885C20.5069 12.9956 20.2036 14.752 20.7414 16.3374L20.7414 16.3376L21.2375 17.7989L19.7587 18.0908C19.7585 18.0908 19.7583 18.0908 19.7582 18.0909C18.12 18.4134 16.7706 19.5695 16.1788 21.1352L16.1787 21.1354L15.6418 22.5571L14.3411 21.8245L14.3409 21.8244C12.885 21.0048 11.1124 21.0048 9.65651 21.8244L9.65634 21.8245L8.35561 22.5571L7.8187 21.1355C7.22678 19.5678 5.87699 18.4133 4.23925 18.0909C4.23908 18.0908 4.23891 18.0908 4.23875 18.0908L2.75991 17.7989L3.25596 16.3376L3.25605 16.3374C3.79378 14.7519 3.4905 12.9955 2.44707 11.6884L1.48929 10.488L2.79085 9.6944L2.791 9.69431C4.21633 8.82493 5.09409 7.27645 5.12175 5.6009C5.12175 5.60077 5.12175 5.60064 5.12176 5.60051L5.14756 4.06647L6.62311 4.30409C6.6232 4.30411 6.6233 4.30412 6.62339 4.30414C8.27241 4.57009 9.93465 3.95207 11.0219 2.6812C11.0219 2.68117 11.0219 2.68114 11.022 2.68111L12 1.53816Z" fill="#004600" stroke="#004600" stroke-width="2"/>
</svg>
