<svg width="25" height="24" viewBox="0 0 25 24" fill="none" xmlns="http://www.w3.org/2000/svg">
<path d="M12.601 1.53816L13.5779 2.67985L13.5783 2.68036C14.6665 3.95052 16.3285 4.56896 17.9768 4.30276L19.4522 4.06516L19.478 5.59959L19.478 5.60016C19.5072 7.27444 20.3827 8.82318 21.8088 9.693L21.8089 9.69309L23.1104 10.4866L22.1514 11.6884C22.1514 11.6884 22.1513 11.6885 22.1513 11.6885C21.108 12.9956 20.8047 14.752 21.3424 16.3374L21.3425 16.3376L21.8386 17.7989L20.3597 18.0908C20.3596 18.0908 20.3594 18.0908 20.3592 18.0909C18.7211 18.4134 17.3717 19.5695 16.7799 21.1352L16.7798 21.1354L16.2429 22.5571L14.9422 21.8245L14.942 21.8244C13.4861 21.0048 11.7134 21.0048 10.2576 21.8244L10.2574 21.8245L8.95669 22.5571L8.41978 21.1355C7.82786 19.5678 6.47806 18.4133 4.84033 18.0909C4.84016 18.0908 4.83999 18.0908 4.83982 18.0908L3.36099 17.7989L3.85704 16.3376L3.85712 16.3374C4.39486 14.7519 4.09157 12.9955 3.04815 11.6884L2.09036 10.488L3.39192 9.6944L3.39207 9.69431C4.81741 8.82493 5.69516 7.27645 5.72282 5.6009C5.72283 5.60077 5.72283 5.60064 5.72283 5.60051L5.74864 4.06647L7.22418 4.30409C7.22428 4.30411 7.22437 4.30412 7.22446 4.30414C8.87349 4.57009 10.5357 3.95207 11.623 2.6812C11.623 2.68117 11.623 2.68114 11.623 2.68111L12.601 1.53816Z" stroke="#004600" stroke-width="2"/>
</svg>
