<svg width="74" height="72" viewBox="0 0 74 72" fill="none" xmlns="http://www.w3.org/2000/svg">
<path id="Vector" d="M36.555 0L41.8452 6.08922C44.4785 9.11612 48.4855 10.5764 52.4452 9.94664L60.412 8.68314L60.5498 16.7483C60.6206 20.7592 62.7501 24.4513 66.1903 26.5178L73.1061 30.6705L68.0284 36.9368C65.5014 40.0542 64.7614 44.2541 66.0682 48.0485L68.6976 55.6768L60.7781 57.2158C56.838 57.9794 53.571 60.7229 52.1343 64.4662L49.2451 72L42.1916 68.0875C38.6845 66.143 34.4177 66.143 30.9106 68.0875L23.857 72L20.9679 64.4662C19.5312 60.719 16.2642 57.9794 12.3241 57.2158L4.40455 55.6768L7.0339 48.0485C8.3407 44.2541 7.6007 40.0542 5.07369 36.9368L0 30.6744L6.91581 26.5218C10.356 24.4553 12.4894 20.7632 12.5563 16.7522L12.6941 8.68708L20.6608 9.95058C24.6245 10.5804 28.6315 9.12005 31.2609 6.09316L36.555 0Z" fill="white"/>
</svg>
